<svg width="191" height="82" viewBox="0 0 191 82" fill="none" xmlns="http://www.w3.org/2000/svg">
<path d="M184.032 28.0483C183.82 28.1595 183.628 28.296 183.4 28.3971C184.632 28.8154 185.772 29.4676 186.757 30.3179C186.017 29.442 185.133 28.6985 184.143 28.1191C184.108 28.0926 184.071 28.0689 184.032 28.0483Z" fill="#FF10F0"/>
<path d="M18.443 44.4559C19.0661 44.9993 19.7437 45.477 20.4649 45.8813C20.244 45.446 20.1296 44.9644 20.1313 44.4762V44.3852C20.1313 42.2774 19.5095 40.6852 18.1094 39.7956C17.8038 39.6097 17.4783 39.4588 17.1389 39.3457C17.6016 40.3023 17.8253 41.3569 17.791 42.4189V42.5099C17.769 43.2156 18.0003 43.9059 18.443 44.4559Z" fill="#808080"/>
<path d="M70.2983 15.5635C69.9509 15.4243 69.5808 15.3507 69.2065 15.3462C68.3644 15.3594 67.5608 15.7015 66.9676 16.2994C66.3745 16.8973 66.0387 17.7036 66.0322 18.5458V75.5721C66.0406 76.383 66.361 77.1596 66.9269 77.7405C67.5259 78.2395 68.163 78.6907 68.8325 79.0901C68.5519 78.6205 68.4002 78.0853 68.3927 77.5383V20.4867C68.4058 19.6494 68.7446 18.8501 69.3372 18.2584C69.9298 17.6667 70.7297 17.3292 71.567 17.3175C72.1119 17.3239 72.6454 17.4738 73.1138 17.7522C72.7448 17.1204 70.7482 15.7354 70.2983 15.5635Z" fill="#808080"/>
<path d="M21.7588 64.9673C21.4083 64.8426 21.039 64.7793 20.667 64.7803C18.8675 64.7803 17.7555 66.145 17.7555 67.8636V67.9445C17.7555 71.2047 16.2947 73.3428 12.3521 73.3428C11.6091 73.3475 10.8713 73.2191 10.1736 72.9637C10.2191 73.0345 10.2494 73.1255 10.2999 73.1962C11.2603 74.6267 12.7262 75.3091 14.7126 75.3091C18.6552 75.3091 20.116 73.171 20.116 69.9107V69.8299C20.116 68.1113 21.2281 66.7465 23.0275 66.7465C23.5349 66.7423 24.036 66.8602 24.4883 67.0902C24.1698 66.4786 22.239 65.1341 21.7588 64.9673Z" fill="#808080"/>
<path d="M14.7125 33.0775C18.2053 33.0775 20.8438 33.9823 22.6989 35.5189C22.0316 34.7001 19.4538 32.8956 19.0343 32.6529C16.9763 31.5758 14.6733 31.0532 12.352 31.1365C4.63867 31.1113 0.185547 35.994 0.185547 44.5566V65.786C0.185547 70.8811 1.7727 74.6569 4.67406 76.9062C4.97666 77.138 5.29224 77.3523 5.61927 77.5481C5.58894 77.5178 5.56367 77.4774 5.52829 77.442C3.59237 75.1573 2.54606 71.8819 2.54606 67.7624V46.5329C2.54606 37.9603 6.99918 33.0775 14.7125 33.0775Z" fill="#808080"/>
<path d="M54.0882 31.8443C53.7397 31.703 53.3675 31.6292 52.9914 31.627C52.154 31.6387 51.3542 31.9762 50.7616 32.5679C50.1689 33.1596 49.8301 33.9589 49.8171 34.7962V64.9471C49.8171 70.861 47.9368 73.5096 43.9941 73.5096C43.2495 73.5147 42.5099 73.3863 41.8105 73.1305C41.856 73.2063 41.8914 73.2973 41.9369 73.363C42.8973 74.7985 44.3631 75.4809 46.3547 75.4809C50.2973 75.4809 52.1776 72.8272 52.1776 66.9133V36.7422C52.1919 35.9053 52.5311 35.1067 53.1235 34.5153C53.7158 33.9239 54.5149 33.586 55.3519 33.573C55.8988 33.5805 56.4341 33.7322 56.9037 34.0127C56.5347 33.4011 54.5381 32.0162 54.0882 31.8443Z" fill="#808080"/>
<path d="M36.0736 31.8443C35.7251 31.703 35.3529 31.6292 34.9768 31.627C34.1394 31.6387 33.3396 31.9762 32.747 32.5679C32.1543 33.1596 31.8156 33.9589 31.8025 34.7962V65.9782C31.8025 71.0733 33.3896 74.8541 36.291 77.0984C36.5935 77.3318 36.9091 77.5478 37.2362 77.7454C37.2059 77.71 37.1806 77.6695 37.1503 77.6392C35.2093 75.3545 34.163 72.0791 34.163 67.9546V36.7422C34.1773 35.9053 34.5165 35.1067 35.1089 34.5153C35.7012 33.9239 36.5004 33.586 37.3373 33.573C37.8842 33.5805 38.4195 33.7322 38.8891 34.0127C38.5403 33.4011 36.5437 32.0162 36.0736 31.8443Z" fill="#808080"/>
<path d="M90.0315 17.7974C89.683 17.6561 89.3107 17.5824 88.9346 17.5801C88.0986 17.5918 87.3001 17.9288 86.7084 18.5195C86.1167 19.1103 85.7785 19.9083 85.7654 20.7443V31.7937H81.3072C80.5142 31.8029 79.7564 32.1223 79.1961 32.6836C78.6359 33.2448 78.3177 34.0032 78.3098 34.7961C78.3138 35.5491 78.6048 36.2722 79.1236 36.818C79.7281 37.3298 80.3758 37.7881 81.0595 38.1878C80.8077 37.7548 80.6735 37.2633 80.6703 36.7624C80.6782 35.9694 80.9964 35.211 81.5567 34.6498C82.1169 34.0886 82.8748 33.7692 83.6677 33.7599H88.136V22.7156C88.1516 21.8826 88.4894 21.0881 89.0785 20.4989C89.6676 19.9098 90.4622 19.572 91.2952 19.5564C91.8426 19.5603 92.3788 19.7122 92.8469 19.9962C92.4779 19.3492 90.4814 17.9693 90.0315 17.7974Z" fill="#808080"/>
<path d="M102.148 34.154C101.794 33.5221 99.8176 32.1321 99.3627 31.9855C99.04 31.8615 98.6975 31.7964 98.3518 31.7935H94.4597V33.7597H100.722C101.224 33.7651 101.715 33.901 102.148 34.154Z" fill="#808080"/>
<path d="M104.842 64.6034C104.516 64.4915 104.175 64.4351 103.831 64.4366C102.031 64.4366 100.828 65.7204 100.828 67.6867V67.8636C100.828 71.2047 99.3726 73.3428 96.8857 73.3428C96.3936 73.3395 95.9046 73.2628 95.4351 73.1153C95.4931 73.2283 95.5572 73.338 95.6271 73.4439C96.0154 74.0457 96.5551 74.5348 97.1921 74.8622C97.8291 75.1896 98.541 75.3437 99.2564 75.3091C101.743 75.3091 103.199 73.1709 103.199 69.8298V69.6529C103.199 67.6867 104.402 66.4028 106.201 66.4028C106.661 66.396 107.116 66.4964 107.531 66.696C107.217 66.0591 105.322 64.76 104.842 64.6034Z" fill="#808080"/>
<path d="M88.1364 69.3955V39.7754H85.7759V67.4444C85.7759 71.8521 87.1861 75.1325 89.7084 77.1139C90.0449 77.3778 90.3996 77.6177 90.7699 77.8317C90.7593 77.8127 90.7456 77.7956 90.7294 77.7811C89.0462 75.7643 88.1364 72.9489 88.1364 69.3955Z" fill="#808080"/>
<path d="M134.35 31.8443C134.002 31.703 133.63 31.6292 133.253 31.627C132.418 31.6413 131.621 31.9799 131.03 32.5714C130.44 33.1628 130.102 33.9606 130.089 34.7962V64.9471C130.089 70.861 128.209 73.5096 124.266 73.5096C123.522 73.5147 122.782 73.3863 122.083 73.1305C122.121 73.2102 122.163 73.2878 122.209 73.363C123.17 74.7985 124.635 75.4809 126.627 75.4809C130.569 75.4809 132.45 72.8272 132.45 66.9133V36.7422C132.464 35.9053 132.803 35.1067 133.396 34.5153C133.988 33.9239 134.787 33.586 135.624 33.573C136.171 33.5805 136.706 33.7322 137.176 34.0127C136.797 33.4011 134.8 32.0162 134.35 31.8443Z" fill="#808080"/>
<path d="M116.356 31.8443C116.008 31.703 115.635 31.6292 115.259 31.627C114.422 31.6387 113.622 31.9762 113.029 32.5679C112.437 33.1596 112.098 33.9589 112.085 34.7962V65.9782C112.085 71.0733 113.672 74.8541 116.573 77.0984C116.876 77.3318 117.192 77.5478 117.519 77.7454L117.433 77.6342C115.492 75.3545 114.445 72.0741 114.445 67.9546V36.7422C114.459 35.9049 114.797 35.1056 115.39 34.5139C115.983 33.9222 116.782 33.5847 117.62 33.573C118.167 33.5805 118.702 33.7322 119.172 34.0127C118.803 33.4011 116.806 32.0162 116.356 31.8443Z" fill="#808080"/>
<path d="M163.218 32.1477C161.429 31.2377 159.441 30.7927 157.435 30.8537C150.065 30.8537 145.865 35.5696 145.865 44.1322V75.5669C145.873 76.3795 146.193 77.1579 146.76 77.7404C147.36 78.2382 147.997 78.6894 148.665 79.09C148.385 78.6204 148.233 78.0851 148.226 77.5382V46.0984C148.226 37.5359 152.426 32.8199 159.796 32.8199C162.778 32.8199 165.172 33.5747 166.978 35.0844C166.255 34.215 163.637 32.3802 163.218 32.1477Z" fill="#808080"/>
<path d="M185.908 5.45425C185.16 4.58486 182.486 2.71465 182.066 2.47708C180.008 1.35707 177.691 0.79755 175.349 0.854543C167.767 0.854543 163.046 5.80808 163.046 13.6478V14.6587C163.031 15.4233 163.305 16.1653 163.814 16.7362C164.424 17.2588 165.08 17.7241 165.775 18.1262C165.527 17.6599 165.4 17.1383 165.406 16.6098V15.6141C165.406 7.77433 170.112 2.82079 177.709 2.82079C181.106 2.82079 183.866 3.7559 185.908 5.45425Z" fill="#808080"/>
<path d="M175.48 25.7631H176.799C180.676 25.7631 183.815 21.8003 183.815 17.5948V15.6943C183.815 12.8991 182.804 10.862 181.247 9.74497C180.933 9.52211 180.593 9.33558 180.237 9.18896C181.091 10.5486 181.519 12.1331 181.465 13.7381V15.6387C181.465 19.8441 178.326 23.8069 174.449 23.8069H173.13C170.982 23.8069 169.824 25.1211 169.824 27.0166C169.797 27.8547 170.08 28.6732 170.618 29.3165C171.231 29.8385 171.891 30.3038 172.589 30.7065C172.317 30.1731 172.178 29.5817 172.185 28.9829C172.174 27.0823 173.332 25.7631 175.48 25.7631Z" fill="#808080"/>
<path d="M181.288 33.9982C180.91 33.7002 180.507 33.4347 180.085 33.2046C181.356 34.6803 182.072 36.5542 182.107 38.5018V44.4259C182.107 50.9413 179.049 53.9083 175.338 53.9083C174.391 53.9192 173.451 53.7333 172.579 53.3624L172.654 53.4888C173.792 55.0557 175.475 55.8746 177.709 55.8746C181.419 55.8746 184.477 52.9075 184.477 46.3921V40.4529C184.449 39.2095 184.149 37.9873 183.598 36.8722C183.047 35.7571 182.258 34.7761 181.288 33.9982Z" fill="#808080"/>
<path d="M164.84 49.1463C164.795 48.6408 164.754 46.9475 164.759 46.902C164.759 42.828 164.057 40.331 162.298 39.2796C162.008 39.1171 161.699 38.993 161.378 38.9106C162.08 40.2653 162.389 42.2619 162.389 44.9358C162.389 44.9863 162.424 46.6746 162.469 47.18C162.838 51.7292 164.491 55.2219 167.261 57.3651C167.576 57.6098 167.906 57.8359 168.247 58.0424C168.176 57.9666 168.105 57.8958 168.04 57.82C166.235 55.6869 165.133 52.7654 164.84 49.1463Z" fill="#808080"/>
<path d="M73.1138 17.7518C72.6459 17.4718 72.1124 17.3202 71.5671 17.312C70.7293 17.325 69.9295 17.6637 69.337 18.2562C68.7445 18.8487 68.4059 19.6485 68.3928 20.4863V77.5379C68.3996 78.0849 68.5513 78.6204 68.8326 79.0897C69.1703 79.7038 69.7035 80.1876 70.3476 80.464C70.9916 80.7404 71.7096 80.7937 72.3874 80.6154C73.0652 80.4371 73.6641 80.0374 74.0887 79.4798C74.5134 78.9222 74.7396 78.2387 74.7313 77.5379V20.4863C74.7232 19.9291 74.5697 19.3837 74.286 18.9041C74.0023 18.4245 73.5982 18.0272 73.1138 17.7518Z" fill="white"/>
<path d="M22.6987 35.519C20.8437 34.0026 18.2051 33.0776 14.7124 33.0776C6.99903 33.0776 2.5459 37.9604 2.5459 46.528V67.7574C2.5459 71.8871 3.59221 75.1523 5.52813 77.437L5.61911 77.5432C7.69656 79.929 10.7799 81.2027 14.7174 81.2027C22.4308 81.2027 26.0297 76.8355 26.0297 70.8408V69.7287C26.0477 69.1893 25.9155 68.6555 25.6477 68.1869C25.3799 67.7183 24.9872 67.3334 24.5133 67.0751C24.061 66.845 23.56 66.7271 23.0525 66.7313C21.2531 66.7313 20.1411 68.1011 20.1411 69.8147V69.8955C20.1411 73.1558 18.6803 75.2939 14.7377 75.2939C12.7461 75.2939 11.2853 74.6166 10.3199 73.181C10.2744 73.1153 10.2441 73.0193 10.1986 72.9485C10.0975 72.7868 10.0116 72.6099 9.9206 72.4431C9.80816 72.2129 9.7086 71.9766 9.62238 71.7354C9.53139 71.4877 9.45052 71.23 9.37976 70.9469C9.0451 69.5725 8.88713 68.1609 8.90967 66.7465V47.5389C8.90967 41.9232 10.6333 39.2797 14.1766 39.0219C14.3636 39.0219 14.5355 38.9713 14.7377 38.9713C14.9398 38.9713 15.051 38.9713 15.2077 39.0067C15.5344 39.0158 15.8601 39.0445 16.1833 39.0926C16.5035 39.1475 16.8194 39.2252 17.1285 39.3252C17.4679 39.4382 17.7934 39.5891 18.099 39.775C19.5193 40.6646 20.1208 42.2568 20.1208 44.3646V44.4556C20.1199 44.9431 20.2324 45.4242 20.4494 45.8608C20.6893 46.3345 21.0603 46.7294 21.5182 46.9982C21.9761 47.267 22.5017 47.3986 23.0323 47.3772C24.9177 47.3772 26.0297 46.0933 26.0297 44.2939V43.4447C26.0246 40.1642 24.9531 37.3741 22.6987 35.519Z" fill="white"/>
<path d="M56.9034 34.0332C56.4339 33.7527 55.8986 33.601 55.3516 33.5935C54.5181 33.6063 53.7219 33.9414 53.1301 34.5285C52.5383 35.1156 52.1968 35.9091 52.1773 36.7425V66.8933C52.1773 72.8073 50.292 75.4609 46.3544 75.4609C44.3629 75.4609 42.897 74.7786 41.9367 73.3481C41.8861 73.2773 41.8558 73.1864 41.8103 73.1105C41.7143 72.9488 41.6233 72.7719 41.5373 72.6051C41.4223 72.3754 41.321 72.1391 41.2341 71.8974C41.1431 71.6447 41.0622 71.392 40.9914 71.0988C40.6586 69.7275 40.5024 68.3194 40.5264 66.9085V36.7425C40.5174 36.1862 40.3635 35.6418 40.0798 35.1631C39.7962 34.6845 39.3926 34.288 38.9089 34.013C38.4394 33.7324 37.9041 33.5807 37.3572 33.5732C36.5202 33.5862 35.7211 33.9242 35.1287 34.5156C34.5364 35.107 34.1972 35.9056 34.1829 36.7425V67.9245C34.1829 72.0592 35.2292 75.3245 37.1701 77.6092C37.2005 77.6395 37.2257 77.6799 37.2561 77.7153C39.3386 80.096 42.4168 81.3749 46.3544 81.3749C54.0627 81.3749 58.5209 76.4921 58.5209 67.9245V36.7425C58.5084 36.1896 58.3528 35.6494 58.0694 35.1746C57.7859 34.6998 57.3842 34.3065 56.9034 34.0332Z" fill="white"/>
<path d="M107.536 66.6959C107.121 66.4988 106.666 66.3985 106.206 66.4028C104.407 66.4028 103.204 67.6867 103.204 69.6529V69.8298C103.204 73.1709 101.748 75.309 99.2613 75.309C98.5476 75.3418 97.8378 75.1869 97.2028 74.8596C96.5677 74.5323 96.0296 74.0442 95.6422 73.4439C95.5723 73.3379 95.5081 73.2283 95.4501 73.1153C95.337 72.9177 95.2357 72.7134 95.1469 72.5037C95.0426 72.2536 94.9548 71.997 94.884 71.7354C94.7916 71.4034 94.7207 71.0657 94.6717 70.7245C94.5365 69.9466 94.4689 69.1585 94.4695 68.369V39.775H100.722C101.389 39.7811 102.038 39.5634 102.566 39.1567C103.094 38.7499 103.471 38.1777 103.635 37.5317C103.799 36.8856 103.742 36.2031 103.472 35.5935C103.203 34.9839 102.736 34.4824 102.148 34.1694C101.715 33.9164 101.223 33.7806 100.722 33.7752H94.4695V22.7156C94.4605 22.1587 94.306 21.6138 94.0214 21.135C93.7368 20.6562 93.332 20.2602 92.847 19.9861C92.3789 19.7022 91.8427 19.5502 91.2952 19.5464C90.4605 19.562 89.6645 19.9012 89.0751 20.4925C88.4857 21.0838 88.1491 21.8809 88.1361 22.7156V33.76H83.6779C82.8866 33.7665 82.1292 34.082 81.5673 34.6391C81.0054 35.1963 80.6836 35.951 80.6704 36.7422C80.6736 37.2432 80.8077 37.7346 81.0596 38.1676C81.3312 38.6585 81.7337 39.0645 82.2222 39.3403C82.5859 39.5465 82.9888 39.674 83.405 39.7143C83.4909 39.7143 83.5768 39.7143 83.6678 39.7143H88.1361V69.3951C88.1361 72.9334 89.056 75.764 90.7291 77.7656C90.7453 77.7801 90.759 77.7972 90.7696 77.8161C92.6499 80.0301 95.4603 81.2179 99.0137 81.2179C105.185 81.2179 109.123 76.8507 109.123 70.8559V69.7439C109.118 68.3033 108.567 67.1964 107.536 66.6959Z" fill="white"/>
<path d="M137.166 34.0332C136.697 33.7527 136.161 33.601 135.614 33.5935C134.781 33.6063 133.985 33.9414 133.393 34.5285C132.801 35.1156 132.46 35.9091 132.44 36.7425V66.8933C132.44 72.8073 130.56 75.4609 126.617 75.4609C124.626 75.4609 123.16 74.7786 122.199 73.3481C122.154 73.2773 122.118 73.1864 122.073 73.1105C121.977 72.9488 121.886 72.7719 121.8 72.6051C121.685 72.3754 121.584 72.1391 121.497 71.8974C121.406 71.6447 121.325 71.392 121.254 71.0988C120.924 69.7271 120.768 68.3192 120.789 66.9085V36.7425C120.78 36.1862 120.626 35.6418 120.343 35.1631C120.059 34.6845 119.655 34.288 119.172 34.013C118.702 33.7324 118.167 33.5807 117.62 33.5732C116.783 33.585 115.983 33.9225 115.39 34.5142C114.797 35.1059 114.459 35.9052 114.446 36.7425V67.9245C114.446 72.0592 115.492 75.3245 117.433 77.6041L117.519 77.7153C119.601 80.096 122.68 81.3749 126.617 81.3749C134.325 81.3749 138.784 76.4921 138.784 67.9245V36.7425C138.771 36.1896 138.616 35.6494 138.332 35.1746C138.049 34.6998 137.647 34.3065 137.166 34.0332Z" fill="white"/>
<path d="M186.757 30.3181C185.774 29.4684 184.636 28.8163 183.406 28.3974C183.628 28.2963 183.825 28.1598 184.038 28.0486C187.829 25.9964 189.992 21.7151 189.992 15.7052C189.992 11.2167 188.556 7.68855 185.893 5.46452C183.871 3.76616 181.091 2.83105 177.694 2.83105C170.112 2.83105 165.391 7.78459 165.391 15.6243V16.61C165.384 17.1384 165.511 17.66 165.76 18.1264C166.021 18.6087 166.41 19.0094 166.885 19.2842C167.36 19.5589 167.901 19.697 168.449 19.6832C170.097 19.6832 171.482 18.5257 171.482 16.4634V15.2857C171.482 11.7171 173.706 9.01792 177.548 8.80562C177.704 8.80562 177.851 8.76519 178.013 8.76519C178.174 8.76519 178.311 8.80057 178.467 8.81068C178.767 8.82602 179.064 8.8649 179.357 8.92693C180.027 9.07454 180.66 9.3528 181.222 9.74578C182.809 10.8629 183.79 12.8999 183.79 15.6951V17.5956C183.79 21.8011 180.651 25.7639 176.774 25.7639H175.48C173.332 25.7639 172.174 27.0832 172.174 28.9736C172.168 29.5724 172.307 30.1638 172.579 30.6972C172.86 31.2111 173.283 31.6334 173.797 31.9139C174.312 32.1944 174.896 32.3212 175.48 32.2793H176.88C177.387 32.3365 177.893 32.4056 178.397 32.4865C178.668 32.5651 178.935 32.6596 179.195 32.7696C179.499 32.8881 179.794 33.0266 180.08 33.1841C180.504 33.4194 180.907 33.6918 181.283 33.9979C182.253 34.7758 183.042 35.7568 183.593 36.8719C184.144 37.987 184.444 39.2092 184.472 40.4526V46.3918C184.472 52.9072 181.414 55.8743 177.704 55.8743C175.485 55.8743 173.797 55.0555 172.65 53.4885C172.619 53.4481 172.599 53.4026 172.569 53.3622C172.468 53.2105 172.387 53.0336 172.296 52.8567C172.205 52.6798 172.038 52.4473 171.932 52.2148C171.826 51.9822 171.765 51.7497 171.684 51.5172C171.145 49.9105 170.886 48.2228 170.921 46.5283V46.3463C170.921 40.9834 169.566 37.248 166.963 35.0745C165.157 33.5682 162.763 32.8134 159.78 32.81C152.411 32.81 148.21 37.526 148.21 46.0885V77.5283C148.218 78.0753 148.37 78.6105 148.65 79.0801C148.989 79.6927 149.523 80.1748 150.167 80.4501C150.811 80.7254 151.528 80.7782 152.206 80.6002C152.883 80.4222 153.481 80.0235 153.907 79.4672C154.332 78.9108 154.56 78.2286 154.554 77.5283V47.1247C154.554 42.0701 155.934 39.5428 158.567 38.9211C158.885 38.8484 159.208 38.8028 159.533 38.7846C159.705 38.7846 159.861 38.7341 160.038 38.7341C160.215 38.7341 160.316 38.7694 160.458 38.7796C160.764 38.7956 161.069 38.8396 161.368 38.911C161.687 38.9942 161.995 39.1183 162.283 39.28C164.042 40.2909 164.719 42.8182 164.744 46.9023C164.744 46.9478 164.785 48.6411 164.825 49.1466C165.118 52.7657 166.22 55.6873 168.04 57.8203L168.242 58.0427C170.441 60.4841 173.63 61.8135 177.694 61.8135C185.205 61.8135 190.735 56.8701 190.735 46.7204V39.7046C190.745 35.7316 189.229 32.436 186.757 30.3181Z" fill="white"/>
</svg>
