<svg width="250" height="70" viewBox="0 0 250 70" fill="none" xmlns="http://www.w3.org/2000/svg">
<path fill-rule="evenodd" clip-rule="evenodd" d="M42.8737 39.0333C42.8737 41.3498 42.4002 43.5545 41.5457 45.554C48.7618 47.9037 53.5273 51.9545 53.5273 56.5577C53.5273 63.821 41.6629 69.709 27.0273 69.709C12.3918 69.709 0.527344 63.821 0.527344 56.5577C0.527344 52.1206 4.95518 48.1967 11.7377 45.8149C10.8112 43.7469 10.2954 41.451 10.2954 39.0333C10.2954 34.1666 14.9533 25.4905 19.2821 17.4275C23.0395 10.4287 26.549 3.89175 26.549 0.708984C26.549 4.08826 30.1637 10.7603 33.9913 17.8251C38.2978 25.774 42.8737 34.2202 42.8737 39.0333ZM12.716 47.6716C12.4951 47.3103 12.2877 46.9397 12.0945 46.5606C10.8596 46.9903 9.70641 47.4714 8.64784 47.9967C3.93326 50.3364 1.34135 53.4133 1.34135 56.5577C1.34135 59.7021 3.93326 62.779 8.64784 65.1187C13.3095 67.4322 19.8065 68.8864 27.0273 68.8864C34.2481 68.8864 40.7452 67.4322 45.4068 65.1187C50.1214 62.779 52.7133 59.7021 52.7133 56.5577C52.7133 53.4133 50.1214 50.3364 45.4068 47.9967C44.1343 47.3652 42.725 46.7977 41.2015 46.3063C41.0853 46.5444 40.9635 46.7793 40.8364 47.0107C45.8948 48.9723 49.1468 52.0281 49.1468 55.4609C49.1468 61.3801 39.4777 66.1786 27.5504 66.1786C15.6231 66.1786 5.95406 61.3801 5.95406 55.4609C5.95406 52.3926 8.55209 49.6254 12.716 47.6716ZM13.1659 48.3678C12.987 48.4506 12.8111 48.5349 12.6383 48.6206C8.81112 50.52 6.76806 52.9885 6.76806 55.4609C6.76806 57.9333 8.81112 60.4017 12.6383 62.3011C16.4125 64.1741 21.6837 65.356 27.5504 65.356C33.4171 65.356 38.6883 64.1741 42.4625 62.3011C46.2897 60.4017 48.3327 57.9333 48.3327 55.4609C48.3327 52.9885 46.2897 50.52 42.4625 48.6206C41.8224 48.303 41.1393 48.0052 40.4175 47.7297C40.2197 48.0503 40.0113 48.3635 39.7928 48.6689C42.8948 50.1421 44.8117 52.1721 44.8117 54.4136C44.8117 58.9137 37.085 62.5617 27.5536 62.5617C18.0222 62.5617 10.2954 58.9137 10.2954 54.4136C10.2954 52.526 11.6548 50.7884 13.9366 49.407C13.6666 49.0713 13.4095 48.7247 13.1659 48.3678ZM15.0187 50.6244C14.8323 50.4345 14.6504 50.24 14.4732 50.041C12.2296 51.3647 11.1094 52.9222 11.1094 54.4136C11.1094 56.1547 12.6361 57.9858 15.6948 59.4299C18.6877 60.843 22.8795 61.7392 27.5536 61.7392C32.2277 61.7392 36.4195 60.843 39.4124 59.4299C42.471 57.9858 43.9977 56.1547 43.9977 54.4136C43.9977 52.6724 42.471 50.8413 39.4124 49.3972L39.3435 49.3649L39.2872 49.3387C38.951 49.7614 38.5945 50.1669 38.2194 50.5538C39.208 51.3912 39.7687 52.3485 39.7687 53.3653C39.7687 56.6548 33.8998 59.3215 26.6601 59.3215C19.4204 59.3215 13.5515 56.6548 13.5515 53.3653C13.5515 52.377 14.0812 51.4449 15.0187 50.6244ZM15.6082 51.1959C14.7604 51.9203 14.3655 52.6748 14.3655 53.3653C14.3655 54.4844 15.4032 55.7719 17.7247 56.8267C19.9696 57.8467 23.128 58.4989 26.6601 58.4989C30.1922 58.4989 33.3506 57.8467 35.5955 56.8267C37.917 55.7719 38.9547 54.4844 38.9547 53.3653C38.9547 52.6537 38.5351 51.874 37.6327 51.1293C34.7293 53.8387 30.8482 55.4941 26.5846 55.4941C22.3559 55.4941 18.5037 53.8658 15.6082 51.1959Z" fill="white"/>
<path fill-rule="evenodd" clip-rule="evenodd" d="M68.5273 47.6644V22.7311H69.2299C70.0721 22.7311 70.9156 22.7256 71.7597 22.7201C73.6605 22.7076 75.5639 22.6952 77.4605 22.7457C80.4573 22.8187 83.4111 23.242 86.1068 24.731C89.2901 26.4682 91.0538 29.2126 91.5986 32.7891C91.9428 35.081 91.8424 37.3582 91.1541 39.5771C90.05 43.1244 87.6124 45.3433 84.2141 46.5842C81.9916 47.387 79.6687 47.6644 77.3314 47.679C75.2346 47.7009 73.1379 47.6982 71.0411 47.6954C70.3421 47.6945 69.6421 47.6936 68.9432 47.6936L68.5273 47.6644ZM73.4456 27.709V42.8617C74.2674 42.8088 75.0846 42.7749 75.8966 42.7413L75.8977 42.7412C77.5503 42.6727 79.1817 42.605 80.7871 42.3799C83.5832 41.9712 85.8487 40.5698 86.5944 37.5334C86.8353 36.5213 86.9271 35.4783 86.8668 34.4387C86.6947 31.6359 85.3325 29.6213 82.7229 28.5995C80.3164 27.6617 77.8174 27.684 75.3002 27.7066C74.6827 27.7121 74.0642 27.7176 73.4456 27.709Z" fill="white"/>
<path fill-rule="evenodd" clip-rule="evenodd" d="M117.796 47.6498V22.7311H118.527C119.592 22.7311 120.656 22.7293 121.72 22.7274C124.91 22.722 128.095 22.7165 131.289 22.7603C132.362 22.767 133.429 22.9292 134.458 23.242C136.623 23.9135 137.942 25.5193 138.286 27.7382C138.516 29.3148 138.43 30.9789 138.3 32.5847C138.252 33.096 138.009 33.5808 137.763 34.0703C137.644 34.3075 137.524 34.5459 137.426 34.789C140.351 36.9495 140.107 40.0297 139.405 43.1098C138.702 46.19 136.852 47.4892 133.483 47.606C129.824 47.7189 126.166 47.6947 122.483 47.6704H122.479C120.923 47.6601 119.362 47.6498 117.796 47.6498ZM134.888 37.7524H122.714V42.6573H134.888V37.7524ZM122.714 32.7015H133.698C133.698 32.2783 133.694 31.859 133.69 31.443V31.4393C133.681 30.4792 133.672 29.5356 133.712 28.5995C133.741 27.9134 133.554 27.6798 132.852 27.6944C130.905 27.7257 128.958 27.7197 127.017 27.7138H127.012C126.238 27.7114 125.465 27.709 124.693 27.709H122.714V32.7015Z" fill="white"/>
<path fill-rule="evenodd" clip-rule="evenodd" d="M177.245 22.7749V47.679C178.134 47.679 179.018 47.6854 179.9 47.6917C182.007 47.7068 184.096 47.7218 186.178 47.6498C187.87 47.6109 189.555 47.4105 191.211 47.0513C194.695 46.2776 197.563 44.5258 199.198 41.1391C200.531 38.3509 200.66 35.2707 200.173 32.3804C199.685 29.49 198.251 27.0959 195.943 25.4463C193.634 23.7968 190.982 23.0377 188.214 22.9063C185.646 22.7903 183.078 22.7733 180.509 22.7563L180.508 22.7563C179.521 22.7498 178.533 22.7433 177.546 22.7311L177.245 22.7749ZM182.12 42.6573V27.7236C182.629 27.7236 183.136 27.7166 183.641 27.7096C185.959 27.6775 188.243 27.6458 190.48 28.2929C194.523 29.4462 195.972 32.4679 195.484 36.424C195.054 39.7523 193.305 41.5041 189.935 42.307C188.272 42.7011 183.956 42.9055 182.12 42.6573Z" fill="white"/>
<path fill-rule="evenodd" clip-rule="evenodd" d="M249.527 35.154C249.47 39.1684 248.323 42.5843 245.226 45.0952C242.544 47.2703 239.404 47.8834 236.063 47.6352C233.009 47.4016 230.313 46.3068 228.162 44.0003C226.384 42.1026 225.467 39.7669 225.151 37.2123C224.836 34.6576 225.036 32.1614 226.055 29.7965C227.833 25.6507 231.044 23.4756 235.361 22.8917C238.486 22.4683 241.469 22.9063 244.179 24.6142C248.022 27.0521 249.47 30.8184 249.527 35.154ZM229.94 35.2124C229.94 39.6063 232.966 42.7157 237.253 42.7157C241.541 42.7157 244.638 39.6209 244.638 35.1978C244.638 30.7746 241.555 27.6944 237.282 27.709C233.009 27.7236 229.955 30.8184 229.94 35.2124Z" fill="white"/>
<path d="M114.254 47.6352V42.7303H99.5998V37.6794H109.336V32.7599H100.188C99.6858 32.7599 99.5137 32.6139 99.5424 32.103C99.5639 31.4788 99.5612 30.8547 99.5585 30.2367V30.2329C99.5576 30.0283 99.5567 29.8244 99.5567 29.6213V27.6944H114.211V22.7749H94.7389V47.6352H114.254Z" fill="white"/>
<path fill-rule="evenodd" clip-rule="evenodd" d="M209.077 22.7311C209.669 22.7311 210.256 22.7302 210.838 22.7293C212.57 22.7265 214.265 22.7239 215.96 22.7457C216.083 22.7711 216.199 22.8251 216.299 22.9036C216.398 22.9821 216.479 23.0829 216.534 23.1982C219.143 30.7405 221.743 38.2877 224.334 45.8397C224.409 46.0638 224.482 46.2879 224.556 46.5151L224.557 46.517C224.681 46.8959 224.807 47.2834 224.95 47.6936C224.636 47.6936 224.326 47.6942 224.018 47.6948L224.014 47.6948C222.791 47.6971 221.613 47.6994 220.434 47.6644C220.262 47.6644 220.018 47.4016 219.946 47.1973C219.473 45.9127 219.028 44.5988 218.598 43.285C218.469 42.8471 218.283 42.6573 217.81 42.6573C214.411 42.6865 211.013 42.6719 207.629 42.6573C207.228 42.6573 207.027 42.8033 206.898 43.1828C206.663 43.9251 206.41 44.6626 206.156 45.4008C205.961 45.9693 205.766 46.5381 205.579 47.1097C205.45 47.533 205.263 47.7228 204.776 47.7082C203.799 47.6771 202.815 47.6828 201.788 47.6887C201.368 47.6911 200.94 47.6936 200.503 47.6936C201.97 43.4145 203.433 39.1584 204.894 34.9076C206.29 30.849 207.684 26.7953 209.077 22.7311ZM212.82 26.4828H212.662C211.858 28.815 211.049 31.1473 210.235 33.4928C209.613 35.2873 208.988 37.0896 208.36 38.9056H217.107C215.659 34.7452 214.239 30.614 212.82 26.4828Z" fill="white"/>
<path d="M166.304 22.7749H141.957V27.7382H151.707V47.6352H156.597V27.6798H166.304V22.7749Z" fill="white"/>
</svg>
