<svg width="322" height="89" viewBox="0 0 322 89" fill="none" xmlns="http://www.w3.org/2000/svg">
<mask id="path-1-outside-1_4854_1111" maskUnits="userSpaceOnUse" x="109.162" y="36.0967" width="213" height="26" fill="black">
<rect fill="white" x="109.162" y="36.0967" width="213" height="26"/>
<path d="M120.031 50.9569L121.671 52.0344C121.182 52.9812 120.48 53.773 119.566 54.4097C118.668 55.0301 117.557 55.3402 116.235 55.3402C114.472 55.3402 113.019 54.7199 111.876 53.4792C110.733 52.2221 110.162 50.5569 110.162 48.4836C110.162 46.4103 110.717 44.7533 111.827 43.5125C112.954 42.2555 114.39 41.627 116.137 41.627C117.884 41.627 119.296 42.2392 120.374 43.4636C121.467 44.688 122.014 46.3613 122.014 48.4836V49.0713H112.219C112.235 50.312 112.578 51.365 113.248 52.2303C113.933 53.0955 114.913 53.5281 116.186 53.5281C116.774 53.5281 117.288 53.4547 117.729 53.3077C118.186 53.1445 118.553 52.9241 118.831 52.6466C119.125 52.3527 119.345 52.0997 119.492 51.8874C119.639 51.6589 119.794 51.3977 119.957 51.1038C119.99 51.0385 120.014 50.9895 120.031 50.9569ZM112.268 47.4796H119.982C119.949 46.3858 119.623 45.4389 119.002 44.639C118.382 43.839 117.427 43.4391 116.137 43.4391C114.88 43.4391 113.925 43.8717 113.272 44.7369C112.619 45.5859 112.284 46.5001 112.268 47.4796Z"/>
<path d="M132.929 51.2018V43.7819H128.791V41.9943H132.954V38.8108H134.913V41.9943H139.59V43.7819H134.937V50.9569C134.937 51.7242 135.043 52.2629 135.255 52.5731C135.468 52.8833 135.892 53.0384 136.529 53.0384H138.733V54.9729H136.431C135.206 54.9729 134.317 54.6627 133.762 54.0424C133.207 53.4057 132.929 52.4588 132.929 51.2018Z"/>
<path d="M147.737 54.9729V37.0967H149.745V43.2921H149.794C150.154 42.8024 150.676 42.4024 151.362 42.0922C152.064 41.7821 152.806 41.627 153.59 41.627C154.978 41.627 156.096 42.0514 156.945 42.9003C157.81 43.7329 158.243 44.9328 158.243 46.5001V54.9729H156.235V47.0388C156.235 44.6553 155.231 43.4636 153.223 43.4636C152.162 43.4636 151.313 43.7737 150.676 44.3941C150.056 45.0145 149.745 45.8226 149.745 46.8184V54.9729H147.737Z"/>
<path d="M175.035 50.9569L176.675 52.0344C176.186 52.9812 175.484 53.773 174.569 54.4097C173.671 55.0301 172.561 55.3402 171.239 55.3402C169.476 55.3402 168.023 54.7199 166.88 53.4792C165.737 52.2221 165.166 50.5569 165.166 48.4836C165.166 46.4103 165.721 44.7533 166.831 43.5125C167.958 42.2555 169.394 41.627 171.141 41.627C172.888 41.627 174.3 42.2392 175.377 43.4636C176.471 44.688 177.018 46.3613 177.018 48.4836V49.0713H167.223C167.239 50.312 167.582 51.365 168.251 52.2303C168.937 53.0955 169.917 53.5281 171.19 53.5281C171.778 53.5281 172.292 53.4547 172.733 53.3077C173.19 53.1445 173.557 52.9241 173.835 52.6466C174.129 52.3527 174.349 52.0997 174.496 51.8874C174.643 51.6589 174.798 51.3977 174.961 51.1038C174.994 51.0385 175.018 50.9895 175.035 50.9569ZM167.272 47.4796H174.986C174.953 46.3858 174.626 45.4389 174.006 44.639C173.386 43.839 172.431 43.4391 171.141 43.4391C169.884 43.4391 168.929 43.8717 168.276 44.7369C167.623 45.5859 167.288 46.5001 167.272 47.4796Z"/>
<path d="M185.974 54.9729V41.9943H187.884V43.8799H187.933C188.227 43.2921 188.716 42.7942 189.402 42.3861C190.088 41.978 190.831 41.7739 191.631 41.7739C192.626 41.7739 193.483 42.0433 194.202 42.582C194.92 43.1044 195.451 43.8717 195.794 44.8839L193.834 45.7165C193.459 44.4431 192.618 43.8064 191.312 43.8064C190.349 43.8064 189.549 44.1655 188.912 44.8839C188.292 45.6022 187.982 46.5572 187.982 47.749V54.9729H185.974Z"/>
<path d="M211.704 50.9569L213.345 52.0344C212.855 52.9812 212.153 53.773 211.239 54.4097C210.341 55.0301 209.231 55.3402 207.908 55.3402C206.145 55.3402 204.692 54.7199 203.549 53.4792C202.407 52.2221 201.835 50.5569 201.835 48.4836C201.835 46.4103 202.39 44.7533 203.5 43.5125C204.627 42.2555 206.063 41.627 207.81 41.627C209.557 41.627 210.969 42.2392 212.047 43.4636C213.14 44.688 213.687 46.3613 213.687 48.4836V49.0713H203.892C203.908 50.312 204.251 51.365 204.921 52.2303C205.606 53.0955 206.586 53.5281 207.859 53.5281C208.447 53.5281 208.961 53.4547 209.402 53.3077C209.859 53.1445 210.226 52.9241 210.504 52.6466C210.798 52.3527 211.018 52.0997 211.165 51.8874C211.312 51.6589 211.467 51.3977 211.63 51.1038C211.663 51.0385 211.688 50.9895 211.704 50.9569ZM203.941 47.4796H211.655C211.622 46.3858 211.296 45.4389 210.675 44.639C210.055 43.839 209.1 43.4391 207.81 43.4391C206.553 43.4391 205.598 43.8717 204.945 44.7369C204.292 45.5859 203.957 46.5001 203.941 47.4796Z"/>
<path d="M221.076 50.4426V41.9943H223.084V50.1488C223.084 51.3569 223.312 52.2139 223.77 52.72C224.243 53.2261 225.018 53.4792 226.096 53.4792C227.075 53.4792 227.826 53.1771 228.349 52.5731C228.871 51.9691 229.132 51.1283 229.132 50.0508V41.9943H231.14V54.9729H229.157V53.724H229.108C229.026 53.8383 228.904 53.9852 228.741 54.1648C228.577 54.3444 228.194 54.5893 227.59 54.8995C227.002 55.1933 226.357 55.3402 225.655 55.3402C224.218 55.3402 223.092 54.9321 222.276 54.1158C221.476 53.2996 221.076 52.0752 221.076 50.4426Z"/>
<path d="M238.97 54.9729V41.9943H240.782V43.2432H240.831C240.994 42.7697 241.263 42.3861 241.639 42.0922C242.014 41.7821 242.439 41.627 242.912 41.627C244.104 41.627 244.879 42.2636 245.239 43.537H245.288C245.467 43.0146 245.777 42.5657 246.218 42.1902C246.659 41.8147 247.206 41.627 247.859 41.627C248.936 41.627 249.695 42.0106 250.136 42.7779C250.577 43.5452 250.797 44.6635 250.797 46.1328V54.9729H248.936V46.745C248.936 45.5859 248.838 44.7533 248.642 44.2472C248.447 43.7248 248.063 43.4636 247.491 43.4636C246.365 43.4636 245.802 44.5002 245.802 46.5735V54.9729H244.014V46.745C244.014 45.5859 243.908 44.7533 243.696 44.2472C243.5 43.7248 243.108 43.4636 242.52 43.4636C241.394 43.4636 240.831 44.5002 240.831 46.5735V54.9729H238.97Z"/>
<path d="M260.32 54.9729V52.0833H263.21V54.9729H260.32Z"/>
<path d="M279.149 53.5281C280.242 53.5281 281.149 53.0873 281.867 52.2058C282.585 51.3079 282.944 50.0672 282.944 48.4836C282.944 46.8837 282.585 45.643 281.867 44.7614C281.165 43.8799 280.259 43.4391 279.149 43.4391C278.006 43.4391 277.067 43.8799 276.333 44.7614C275.614 45.6267 275.255 46.8674 275.255 48.4836C275.255 50.0998 275.614 51.3487 276.333 52.2303C277.067 53.0955 278.006 53.5281 279.149 53.5281ZM279.149 55.3402C277.435 55.3402 276.014 54.7362 274.888 53.5281C273.761 52.3037 273.198 50.6222 273.198 48.4836C273.198 46.3613 273.778 44.688 274.937 43.4636C276.096 42.2392 277.5 41.627 279.149 41.627C280.781 41.627 282.161 42.2392 283.287 43.4636C284.43 44.688 285.001 46.3613 285.001 48.4836C285.001 50.6222 284.446 52.3037 283.336 53.5281C282.242 54.7362 280.847 55.3402 279.149 55.3402Z"/>
<path d="M293.981 54.9729V41.9943H295.892V43.8799H295.941C296.234 43.2921 296.724 42.7942 297.41 42.3861C298.095 41.978 298.838 41.7739 299.638 41.7739C300.634 41.7739 301.491 42.0433 302.209 42.582C302.928 43.1044 303.458 43.8717 303.801 44.8839L301.842 45.7165C301.467 44.4431 300.626 43.8064 299.32 43.8064C298.357 43.8064 297.557 44.1655 296.92 44.8839C296.3 45.6022 295.989 46.5572 295.989 47.749V54.9729H293.981Z"/>
<path d="M310.773 57.3238L312.512 56.4177C312.806 57.234 313.198 57.8788 313.687 58.3523C314.194 58.8257 314.92 59.0624 315.867 59.0624C316.912 59.0624 317.72 58.7522 318.291 58.1319C318.863 57.5278 319.148 56.6789 319.148 55.5851V53.8465H319.099C318.25 54.8423 317.05 55.3402 315.5 55.3402C313.785 55.3402 312.398 54.7199 311.337 53.4792C310.275 52.2384 309.745 50.5732 309.745 48.4836C309.745 46.4103 310.292 44.7533 311.386 43.5125C312.479 42.2555 313.843 41.627 315.475 41.627C317.042 41.627 318.259 42.1657 319.124 43.2432H319.173V41.9943H321.156V55.1688C321.156 57.0136 320.691 58.4176 319.76 59.3808C318.83 60.3603 317.548 60.85 315.916 60.85C314.593 60.85 313.492 60.5235 312.61 59.8705C311.745 59.2338 311.133 58.3849 310.773 57.3238ZM319.148 50.712V46.598C319.148 45.7981 318.838 45.0716 318.218 44.4186C317.614 43.7656 316.806 43.4391 315.793 43.4391C314.52 43.4391 313.532 43.888 312.83 44.7859C312.145 45.6675 311.802 46.9 311.802 48.4836C311.802 50.0835 312.145 51.3242 312.83 52.2058C313.516 53.0873 314.504 53.5281 315.793 53.5281C316.757 53.5281 317.557 53.2506 318.193 52.6955C318.83 52.1242 319.148 51.463 319.148 50.712Z"/>
</mask>
<path d="M120.031 50.9569L121.671 52.0344C121.182 52.9812 120.48 53.773 119.566 54.4097C118.668 55.0301 117.557 55.3402 116.235 55.3402C114.472 55.3402 113.019 54.7199 111.876 53.4792C110.733 52.2221 110.162 50.5569 110.162 48.4836C110.162 46.4103 110.717 44.7533 111.827 43.5125C112.954 42.2555 114.39 41.627 116.137 41.627C117.884 41.627 119.296 42.2392 120.374 43.4636C121.467 44.688 122.014 46.3613 122.014 48.4836V49.0713H112.219C112.235 50.312 112.578 51.365 113.248 52.2303C113.933 53.0955 114.913 53.5281 116.186 53.5281C116.774 53.5281 117.288 53.4547 117.729 53.3077C118.186 53.1445 118.553 52.9241 118.831 52.6466C119.125 52.3527 119.345 52.0997 119.492 51.8874C119.639 51.6589 119.794 51.3977 119.957 51.1038C119.99 51.0385 120.014 50.9895 120.031 50.9569ZM112.268 47.4796H119.982C119.949 46.3858 119.623 45.4389 119.002 44.639C118.382 43.839 117.427 43.4391 116.137 43.4391C114.88 43.4391 113.925 43.8717 113.272 44.7369C112.619 45.5859 112.284 46.5001 112.268 47.4796Z" fill="white"/>
<path d="M132.929 51.2018V43.7819H128.791V41.9943H132.954V38.8108H134.913V41.9943H139.59V43.7819H134.937V50.9569C134.937 51.7242 135.043 52.2629 135.255 52.5731C135.468 52.8833 135.892 53.0384 136.529 53.0384H138.733V54.9729H136.431C135.206 54.9729 134.317 54.6627 133.762 54.0424C133.207 53.4057 132.929 52.4588 132.929 51.2018Z" fill="white"/>
<path d="M147.737 54.9729V37.0967H149.745V43.2921H149.794C150.154 42.8024 150.676 42.4024 151.362 42.0922C152.064 41.7821 152.806 41.627 153.59 41.627C154.978 41.627 156.096 42.0514 156.945 42.9003C157.81 43.7329 158.243 44.9328 158.243 46.5001V54.9729H156.235V47.0388C156.235 44.6553 155.231 43.4636 153.223 43.4636C152.162 43.4636 151.313 43.7737 150.676 44.3941C150.056 45.0145 149.745 45.8226 149.745 46.8184V54.9729H147.737Z" fill="white"/>
<path d="M175.035 50.9569L176.675 52.0344C176.186 52.9812 175.484 53.773 174.569 54.4097C173.671 55.0301 172.561 55.3402 171.239 55.3402C169.476 55.3402 168.023 54.7199 166.88 53.4792C165.737 52.2221 165.166 50.5569 165.166 48.4836C165.166 46.4103 165.721 44.7533 166.831 43.5125C167.958 42.2555 169.394 41.627 171.141 41.627C172.888 41.627 174.3 42.2392 175.377 43.4636C176.471 44.688 177.018 46.3613 177.018 48.4836V49.0713H167.223C167.239 50.312 167.582 51.365 168.251 52.2303C168.937 53.0955 169.917 53.5281 171.19 53.5281C171.778 53.5281 172.292 53.4547 172.733 53.3077C173.19 53.1445 173.557 52.9241 173.835 52.6466C174.129 52.3527 174.349 52.0997 174.496 51.8874C174.643 51.6589 174.798 51.3977 174.961 51.1038C174.994 51.0385 175.018 50.9895 175.035 50.9569ZM167.272 47.4796H174.986C174.953 46.3858 174.626 45.4389 174.006 44.639C173.386 43.839 172.431 43.4391 171.141 43.4391C169.884 43.4391 168.929 43.8717 168.276 44.7369C167.623 45.5859 167.288 46.5001 167.272 47.4796Z" fill="white"/>
<path d="M185.974 54.9729V41.9943H187.884V43.8799H187.933C188.227 43.2921 188.716 42.7942 189.402 42.3861C190.088 41.978 190.831 41.7739 191.631 41.7739C192.626 41.7739 193.483 42.0433 194.202 42.582C194.92 43.1044 195.451 43.8717 195.794 44.8839L193.834 45.7165C193.459 44.4431 192.618 43.8064 191.312 43.8064C190.349 43.8064 189.549 44.1655 188.912 44.8839C188.292 45.6022 187.982 46.5572 187.982 47.749V54.9729H185.974Z" fill="white"/>
<path d="M211.704 50.9569L213.345 52.0344C212.855 52.9812 212.153 53.773 211.239 54.4097C210.341 55.0301 209.231 55.3402 207.908 55.3402C206.145 55.3402 204.692 54.7199 203.549 53.4792C202.407 52.2221 201.835 50.5569 201.835 48.4836C201.835 46.4103 202.39 44.7533 203.5 43.5125C204.627 42.2555 206.063 41.627 207.81 41.627C209.557 41.627 210.969 42.2392 212.047 43.4636C213.14 44.688 213.687 46.3613 213.687 48.4836V49.0713H203.892C203.908 50.312 204.251 51.365 204.921 52.2303C205.606 53.0955 206.586 53.5281 207.859 53.5281C208.447 53.5281 208.961 53.4547 209.402 53.3077C209.859 53.1445 210.226 52.9241 210.504 52.6466C210.798 52.3527 211.018 52.0997 211.165 51.8874C211.312 51.6589 211.467 51.3977 211.63 51.1038C211.663 51.0385 211.688 50.9895 211.704 50.9569ZM203.941 47.4796H211.655C211.622 46.3858 211.296 45.4389 210.675 44.639C210.055 43.839 209.1 43.4391 207.81 43.4391C206.553 43.4391 205.598 43.8717 204.945 44.7369C204.292 45.5859 203.957 46.5001 203.941 47.4796Z" fill="white"/>
<path d="M221.076 50.4426V41.9943H223.084V50.1488C223.084 51.3569 223.312 52.2139 223.77 52.72C224.243 53.2261 225.018 53.4792 226.096 53.4792C227.075 53.4792 227.826 53.1771 228.349 52.5731C228.871 51.9691 229.132 51.1283 229.132 50.0508V41.9943H231.14V54.9729H229.157V53.724H229.108C229.026 53.8383 228.904 53.9852 228.741 54.1648C228.577 54.3444 228.194 54.5893 227.59 54.8995C227.002 55.1933 226.357 55.3402 225.655 55.3402C224.218 55.3402 223.092 54.9321 222.276 54.1158C221.476 53.2996 221.076 52.0752 221.076 50.4426Z" fill="white"/>
<path d="M238.97 54.9729V41.9943H240.782V43.2432H240.831C240.994 42.7697 241.263 42.3861 241.639 42.0922C242.014 41.7821 242.439 41.627 242.912 41.627C244.104 41.627 244.879 42.2636 245.239 43.537H245.288C245.467 43.0146 245.777 42.5657 246.218 42.1902C246.659 41.8147 247.206 41.627 247.859 41.627C248.936 41.627 249.695 42.0106 250.136 42.7779C250.577 43.5452 250.797 44.6635 250.797 46.1328V54.9729H248.936V46.745C248.936 45.5859 248.838 44.7533 248.642 44.2472C248.447 43.7248 248.063 43.4636 247.491 43.4636C246.365 43.4636 245.802 44.5002 245.802 46.5735V54.9729H244.014V46.745C244.014 45.5859 243.908 44.7533 243.696 44.2472C243.5 43.7248 243.108 43.4636 242.52 43.4636C241.394 43.4636 240.831 44.5002 240.831 46.5735V54.9729H238.97Z" fill="white"/>
<path d="M260.32 54.9729V52.0833H263.21V54.9729H260.32Z" fill="white"/>
<path d="M279.149 53.5281C280.242 53.5281 281.149 53.0873 281.867 52.2058C282.585 51.3079 282.944 50.0672 282.944 48.4836C282.944 46.8837 282.585 45.643 281.867 44.7614C281.165 43.8799 280.259 43.4391 279.149 43.4391C278.006 43.4391 277.067 43.8799 276.333 44.7614C275.614 45.6267 275.255 46.8674 275.255 48.4836C275.255 50.0998 275.614 51.3487 276.333 52.2303C277.067 53.0955 278.006 53.5281 279.149 53.5281ZM279.149 55.3402C277.435 55.3402 276.014 54.7362 274.888 53.5281C273.761 52.3037 273.198 50.6222 273.198 48.4836C273.198 46.3613 273.778 44.688 274.937 43.4636C276.096 42.2392 277.5 41.627 279.149 41.627C280.781 41.627 282.161 42.2392 283.287 43.4636C284.43 44.688 285.001 46.3613 285.001 48.4836C285.001 50.6222 284.446 52.3037 283.336 53.5281C282.242 54.7362 280.847 55.3402 279.149 55.3402Z" fill="white"/>
<path d="M293.981 54.9729V41.9943H295.892V43.8799H295.941C296.234 43.2921 296.724 42.7942 297.41 42.3861C298.095 41.978 298.838 41.7739 299.638 41.7739C300.634 41.7739 301.491 42.0433 302.209 42.582C302.928 43.1044 303.458 43.8717 303.801 44.8839L301.842 45.7165C301.467 44.4431 300.626 43.8064 299.32 43.8064C298.357 43.8064 297.557 44.1655 296.92 44.8839C296.3 45.6022 295.989 46.5572 295.989 47.749V54.9729H293.981Z" fill="white"/>
<path d="M310.773 57.3238L312.512 56.4177C312.806 57.234 313.198 57.8788 313.687 58.3523C314.194 58.8257 314.92 59.0624 315.867 59.0624C316.912 59.0624 317.72 58.7522 318.291 58.1319C318.863 57.5278 319.148 56.6789 319.148 55.5851V53.8465H319.099C318.25 54.8423 317.05 55.3402 315.5 55.3402C313.785 55.3402 312.398 54.7199 311.337 53.4792C310.275 52.2384 309.745 50.5732 309.745 48.4836C309.745 46.4103 310.292 44.7533 311.386 43.5125C312.479 42.2555 313.843 41.627 315.475 41.627C317.042 41.627 318.259 42.1657 319.124 43.2432H319.173V41.9943H321.156V55.1688C321.156 57.0136 320.691 58.4176 319.76 59.3808C318.83 60.3603 317.548 60.85 315.916 60.85C314.593 60.85 313.492 60.5235 312.61 59.8705C311.745 59.2338 311.133 58.3849 310.773 57.3238ZM319.148 50.712V46.598C319.148 45.7981 318.838 45.0716 318.218 44.4186C317.614 43.7656 316.806 43.4391 315.793 43.4391C314.52 43.4391 313.532 43.888 312.83 44.7859C312.145 45.6675 311.802 46.9 311.802 48.4836C311.802 50.0835 312.145 51.3242 312.83 52.2058C313.516 53.0873 314.504 53.5281 315.793 53.5281C316.757 53.5281 317.557 53.2506 318.193 52.6955C318.83 52.1242 319.148 51.463 319.148 50.712Z" fill="white"/>
<path d="M120.031 50.9569L121.671 52.0344C121.182 52.9812 120.48 53.773 119.566 54.4097C118.668 55.0301 117.557 55.3402 116.235 55.3402C114.472 55.3402 113.019 54.7199 111.876 53.4792C110.733 52.2221 110.162 50.5569 110.162 48.4836C110.162 46.4103 110.717 44.7533 111.827 43.5125C112.954 42.2555 114.39 41.627 116.137 41.627C117.884 41.627 119.296 42.2392 120.374 43.4636C121.467 44.688 122.014 46.3613 122.014 48.4836V49.0713H112.219C112.235 50.312 112.578 51.365 113.248 52.2303C113.933 53.0955 114.913 53.5281 116.186 53.5281C116.774 53.5281 117.288 53.4547 117.729 53.3077C118.186 53.1445 118.553 52.9241 118.831 52.6466C119.125 52.3527 119.345 52.0997 119.492 51.8874C119.639 51.6589 119.794 51.3977 119.957 51.1038C119.99 51.0385 120.014 50.9895 120.031 50.9569ZM112.268 47.4796H119.982C119.949 46.3858 119.623 45.4389 119.002 44.639C118.382 43.839 117.427 43.4391 116.137 43.4391C114.88 43.4391 113.925 43.8717 113.272 44.7369C112.619 45.5859 112.284 46.5001 112.268 47.4796Z" stroke="white" stroke-width="0.5" mask="url(#path-1-outside-1_4854_1111)"/>
<path d="M132.929 51.2018V43.7819H128.791V41.9943H132.954V38.8108H134.913V41.9943H139.59V43.7819H134.937V50.9569C134.937 51.7242 135.043 52.2629 135.255 52.5731C135.468 52.8833 135.892 53.0384 136.529 53.0384H138.733V54.9729H136.431C135.206 54.9729 134.317 54.6627 133.762 54.0424C133.207 53.4057 132.929 52.4588 132.929 51.2018Z" stroke="white" stroke-width="0.5" mask="url(#path-1-outside-1_4854_1111)"/>
<path d="M147.737 54.9729V37.0967H149.745V43.2921H149.794C150.154 42.8024 150.676 42.4024 151.362 42.0922C152.064 41.7821 152.806 41.627 153.59 41.627C154.978 41.627 156.096 42.0514 156.945 42.9003C157.81 43.7329 158.243 44.9328 158.243 46.5001V54.9729H156.235V47.0388C156.235 44.6553 155.231 43.4636 153.223 43.4636C152.162 43.4636 151.313 43.7737 150.676 44.3941C150.056 45.0145 149.745 45.8226 149.745 46.8184V54.9729H147.737Z" stroke="white" stroke-width="0.5" mask="url(#path-1-outside-1_4854_1111)"/>
<path d="M175.035 50.9569L176.675 52.0344C176.186 52.9812 175.484 53.773 174.569 54.4097C173.671 55.0301 172.561 55.3402 171.239 55.3402C169.476 55.3402 168.023 54.7199 166.88 53.4792C165.737 52.2221 165.166 50.5569 165.166 48.4836C165.166 46.4103 165.721 44.7533 166.831 43.5125C167.958 42.2555 169.394 41.627 171.141 41.627C172.888 41.627 174.3 42.2392 175.377 43.4636C176.471 44.688 177.018 46.3613 177.018 48.4836V49.0713H167.223C167.239 50.312 167.582 51.365 168.251 52.2303C168.937 53.0955 169.917 53.5281 171.19 53.5281C171.778 53.5281 172.292 53.4547 172.733 53.3077C173.19 53.1445 173.557 52.9241 173.835 52.6466C174.129 52.3527 174.349 52.0997 174.496 51.8874C174.643 51.6589 174.798 51.3977 174.961 51.1038C174.994 51.0385 175.018 50.9895 175.035 50.9569ZM167.272 47.4796H174.986C174.953 46.3858 174.626 45.4389 174.006 44.639C173.386 43.839 172.431 43.4391 171.141 43.4391C169.884 43.4391 168.929 43.8717 168.276 44.7369C167.623 45.5859 167.288 46.5001 167.272 47.4796Z" stroke="white" stroke-width="0.5" mask="url(#path-1-outside-1_4854_1111)"/>
<path d="M185.974 54.9729V41.9943H187.884V43.8799H187.933C188.227 43.2921 188.716 42.7942 189.402 42.3861C190.088 41.978 190.831 41.7739 191.631 41.7739C192.626 41.7739 193.483 42.0433 194.202 42.582C194.92 43.1044 195.451 43.8717 195.794 44.8839L193.834 45.7165C193.459 44.4431 192.618 43.8064 191.312 43.8064C190.349 43.8064 189.549 44.1655 188.912 44.8839C188.292 45.6022 187.982 46.5572 187.982 47.749V54.9729H185.974Z" stroke="white" stroke-width="0.5" mask="url(#path-1-outside-1_4854_1111)"/>
<path d="M211.704 50.9569L213.345 52.0344C212.855 52.9812 212.153 53.773 211.239 54.4097C210.341 55.0301 209.231 55.3402 207.908 55.3402C206.145 55.3402 204.692 54.7199 203.549 53.4792C202.407 52.2221 201.835 50.5569 201.835 48.4836C201.835 46.4103 202.39 44.7533 203.5 43.5125C204.627 42.2555 206.063 41.627 207.81 41.627C209.557 41.627 210.969 42.2392 212.047 43.4636C213.14 44.688 213.687 46.3613 213.687 48.4836V49.0713H203.892C203.908 50.312 204.251 51.365 204.921 52.2303C205.606 53.0955 206.586 53.5281 207.859 53.5281C208.447 53.5281 208.961 53.4547 209.402 53.3077C209.859 53.1445 210.226 52.9241 210.504 52.6466C210.798 52.3527 211.018 52.0997 211.165 51.8874C211.312 51.6589 211.467 51.3977 211.63 51.1038C211.663 51.0385 211.688 50.9895 211.704 50.9569ZM203.941 47.4796H211.655C211.622 46.3858 211.296 45.4389 210.675 44.639C210.055 43.839 209.1 43.4391 207.81 43.4391C206.553 43.4391 205.598 43.8717 204.945 44.7369C204.292 45.5859 203.957 46.5001 203.941 47.4796Z" stroke="white" stroke-width="0.5" mask="url(#path-1-outside-1_4854_1111)"/>
<path d="M221.076 50.4426V41.9943H223.084V50.1488C223.084 51.3569 223.312 52.2139 223.77 52.72C224.243 53.2261 225.018 53.4792 226.096 53.4792C227.075 53.4792 227.826 53.1771 228.349 52.5731C228.871 51.9691 229.132 51.1283 229.132 50.0508V41.9943H231.14V54.9729H229.157V53.724H229.108C229.026 53.8383 228.904 53.9852 228.741 54.1648C228.577 54.3444 228.194 54.5893 227.59 54.8995C227.002 55.1933 226.357 55.3402 225.655 55.3402C224.218 55.3402 223.092 54.9321 222.276 54.1158C221.476 53.2996 221.076 52.0752 221.076 50.4426Z" stroke="white" stroke-width="0.5" mask="url(#path-1-outside-1_4854_1111)"/>
<path d="M238.97 54.9729V41.9943H240.782V43.2432H240.831C240.994 42.7697 241.263 42.3861 241.639 42.0922C242.014 41.7821 242.439 41.627 242.912 41.627C244.104 41.627 244.879 42.2636 245.239 43.537H245.288C245.467 43.0146 245.777 42.5657 246.218 42.1902C246.659 41.8147 247.206 41.627 247.859 41.627C248.936 41.627 249.695 42.0106 250.136 42.7779C250.577 43.5452 250.797 44.6635 250.797 46.1328V54.9729H248.936V46.745C248.936 45.5859 248.838 44.7533 248.642 44.2472C248.447 43.7248 248.063 43.4636 247.491 43.4636C246.365 43.4636 245.802 44.5002 245.802 46.5735V54.9729H244.014V46.745C244.014 45.5859 243.908 44.7533 243.696 44.2472C243.5 43.7248 243.108 43.4636 242.52 43.4636C241.394 43.4636 240.831 44.5002 240.831 46.5735V54.9729H238.97Z" stroke="white" stroke-width="0.5" mask="url(#path-1-outside-1_4854_1111)"/>
<path d="M260.32 54.9729V52.0833H263.21V54.9729H260.32Z" stroke="white" stroke-width="0.5" mask="url(#path-1-outside-1_4854_1111)"/>
<path d="M279.149 53.5281C280.242 53.5281 281.149 53.0873 281.867 52.2058C282.585 51.3079 282.944 50.0672 282.944 48.4836C282.944 46.8837 282.585 45.643 281.867 44.7614C281.165 43.8799 280.259 43.4391 279.149 43.4391C278.006 43.4391 277.067 43.8799 276.333 44.7614C275.614 45.6267 275.255 46.8674 275.255 48.4836C275.255 50.0998 275.614 51.3487 276.333 52.2303C277.067 53.0955 278.006 53.5281 279.149 53.5281ZM279.149 55.3402C277.435 55.3402 276.014 54.7362 274.888 53.5281C273.761 52.3037 273.198 50.6222 273.198 48.4836C273.198 46.3613 273.778 44.688 274.937 43.4636C276.096 42.2392 277.5 41.627 279.149 41.627C280.781 41.627 282.161 42.2392 283.287 43.4636C284.43 44.688 285.001 46.3613 285.001 48.4836C285.001 50.6222 284.446 52.3037 283.336 53.5281C282.242 54.7362 280.847 55.3402 279.149 55.3402Z" stroke="white" stroke-width="0.5" mask="url(#path-1-outside-1_4854_1111)"/>
<path d="M293.981 54.9729V41.9943H295.892V43.8799H295.941C296.234 43.2921 296.724 42.7942 297.41 42.3861C298.095 41.978 298.838 41.7739 299.638 41.7739C300.634 41.7739 301.491 42.0433 302.209 42.582C302.928 43.1044 303.458 43.8717 303.801 44.8839L301.842 45.7165C301.467 44.4431 300.626 43.8064 299.32 43.8064C298.357 43.8064 297.557 44.1655 296.92 44.8839C296.3 45.6022 295.989 46.5572 295.989 47.749V54.9729H293.981Z" stroke="white" stroke-width="0.5" mask="url(#path-1-outside-1_4854_1111)"/>
<path d="M310.773 57.3238L312.512 56.4177C312.806 57.234 313.198 57.8788 313.687 58.3523C314.194 58.8257 314.92 59.0624 315.867 59.0624C316.912 59.0624 317.72 58.7522 318.291 58.1319C318.863 57.5278 319.148 56.6789 319.148 55.5851V53.8465H319.099C318.25 54.8423 317.05 55.3402 315.5 55.3402C313.785 55.3402 312.398 54.7199 311.337 53.4792C310.275 52.2384 309.745 50.5732 309.745 48.4836C309.745 46.4103 310.292 44.7533 311.386 43.5125C312.479 42.2555 313.843 41.627 315.475 41.627C317.042 41.627 318.259 42.1657 319.124 43.2432H319.173V41.9943H321.156V55.1688C321.156 57.0136 320.691 58.4176 319.76 59.3808C318.83 60.3603 317.548 60.85 315.916 60.85C314.593 60.85 313.492 60.5235 312.61 59.8705C311.745 59.2338 311.133 58.3849 310.773 57.3238ZM319.148 50.712V46.598C319.148 45.7981 318.838 45.0716 318.218 44.4186C317.614 43.7656 316.806 43.4391 315.793 43.4391C314.52 43.4391 313.532 43.888 312.83 44.7859C312.145 45.6675 311.802 46.9 311.802 48.4836C311.802 50.0835 312.145 51.3242 312.83 52.2058C313.516 53.0873 314.504 53.5281 315.793 53.5281C316.757 53.5281 317.557 53.2506 318.193 52.6955C318.83 52.1242 319.148 51.463 319.148 50.712Z" stroke="white" stroke-width="0.5" mask="url(#path-1-outside-1_4854_1111)"/>
<mask id="path-2-outside-2_4854_1111" maskUnits="userSpaceOnUse" x="48.3994" y="49.0859" width="31" height="40" fill="black">
<rect fill="white" x="48.3994" y="49.0859" width="31" height="40"/>
<path fill-rule="evenodd" clip-rule="evenodd" d="M77.5137 50.0859L49.3994 87.3729V66.4387L77.5064 50.0902L77.5063 50.0902L77.5137 50.0859ZM72.0391 54.9406L50.122 67.6888V84.0084L72.0391 54.9406Z"/>
</mask>
<path fill-rule="evenodd" clip-rule="evenodd" d="M77.5137 50.0859L49.3994 87.3729V66.4387L77.5064 50.0902L77.5063 50.0902L77.5137 50.0859ZM72.0391 54.9406L50.122 67.6888V84.0084L72.0391 54.9406Z" fill="white"/>
<path d="M77.5137 50.0859L78.3122 50.688C78.5988 50.3078 78.5777 49.7783 78.2617 49.4222C77.9457 49.0661 77.4225 48.9822 77.011 49.2215L77.5137 50.0859ZM49.3994 87.3729H48.3994C48.3994 87.8029 48.6742 88.1847 49.0819 88.3212C49.4897 88.4577 49.939 88.3183 50.1978 87.975L49.3994 87.3729ZM49.3994 66.4387L48.8966 65.5743C48.5888 65.7534 48.3994 66.0826 48.3994 66.4387H49.3994ZM77.5064 50.0902L78.3058 50.691C78.5917 50.3106 78.5699 49.7815 78.2539 49.4259C77.9378 49.0702 77.4149 48.9865 77.0036 49.2258L77.5064 50.0902ZM77.5063 50.0902L76.707 49.4894C76.4211 49.8698 76.4428 50.3989 76.7589 50.7545C77.0749 51.1102 77.5978 51.1939 78.0091 50.9547L77.5063 50.0902ZM50.122 67.6888L49.6192 66.8244C49.3114 67.0035 49.122 67.3327 49.122 67.6888H50.122ZM72.0391 54.9406L72.8376 55.5427C73.1242 55.1625 73.1031 54.633 72.7871 54.2769C72.4711 53.9208 71.9479 53.8369 71.5363 54.0762L72.0391 54.9406ZM50.122 84.0084H49.122C49.122 84.4384 49.3968 84.8202 49.8046 84.9567C50.2123 85.0932 50.6616 84.9538 50.9205 84.6104L50.122 84.0084ZM76.7153 49.4839L48.6009 86.7709L50.1978 87.975L78.3122 50.688L76.7153 49.4839ZM50.3994 87.3729V66.4387H48.3994V87.3729H50.3994ZM49.9022 67.3032L78.0092 50.9546L77.0036 49.2258L48.8966 65.5743L49.9022 67.3032ZM78.3057 50.6911L78.3058 50.691L76.707 49.4893L76.707 49.4894L78.3057 50.6911ZM77.011 49.2215L77.0036 49.2258L78.0091 50.9547L78.0165 50.9504L77.011 49.2215ZM50.6248 68.5532L72.5419 55.805L71.5363 54.0762L49.6192 66.8244L50.6248 68.5532ZM51.122 84.0084V67.6888H49.122V84.0084H51.122ZM71.2406 54.3386L49.3235 83.4064L50.9205 84.6104L72.8376 55.5427L71.2406 54.3386Z" fill="white" mask="url(#path-2-outside-2_4854_1111)"/>
<mask id="path-4-outside-3_4854_1111" maskUnits="userSpaceOnUse" x="19.2852" y="49.0859" width="32" height="40" fill="black">
<rect fill="white" x="19.2852" y="49.0859" width="32" height="40"/>
<path fill-rule="evenodd" clip-rule="evenodd" d="M49.398 66.438L49.398 66.438L21.285 50.0859L21.2911 50.094L49.3973 87.3702L49.3994 87.3729V66.4387L49.398 66.438ZM26.7491 54.9406L48.6768 84.0225V67.6949L48.6674 67.6896L26.7491 54.9406Z"/>
</mask>
<path fill-rule="evenodd" clip-rule="evenodd" d="M49.398 66.438L49.398 66.438L21.285 50.0859L21.2911 50.094L49.3973 87.3702L49.3994 87.3729V66.4387L49.398 66.438ZM26.7491 54.9406L48.6768 84.0225V67.6949L48.6674 67.6896L26.7491 54.9406Z" fill="white"/>
<path d="M49.398 66.438L49.9005 65.5733C49.5942 65.3954 49.2165 65.3927 48.9078 65.5664L49.398 66.438ZM49.398 66.438L48.8952 67.3024C49.2016 67.4806 49.5794 67.4833 49.8883 67.3096L49.398 66.438ZM21.285 50.0859L21.7878 49.2215C21.3766 48.9824 20.8539 49.0659 20.5378 49.4214C20.2216 49.7769 20.1997 50.3058 20.4852 50.6862L21.285 50.0859ZM21.2911 50.094L20.4913 50.6943L20.4926 50.6961L21.2911 50.094ZM49.3973 87.3702L48.5988 87.9722L48.6029 87.9776L49.3973 87.3702ZM49.3994 87.3729L48.605 87.9803C48.8654 88.3209 49.3139 88.4576 49.72 88.3201C50.1261 88.1827 50.3994 87.8016 50.3994 87.3729H49.3994ZM49.3994 66.4387H50.3994C50.3994 66.0825 50.2098 65.7531 49.9018 65.5741L49.3994 66.4387ZM48.6768 84.0225L47.8783 84.6245C48.1371 84.9678 48.5865 85.1072 48.9942 84.9707C49.4019 84.8342 49.6768 84.4524 49.6768 84.0225H48.6768ZM26.7491 54.9406L27.2519 54.0762C26.8403 53.8369 26.3171 53.9208 26.0011 54.2769C25.6851 54.633 25.664 55.1625 25.9506 55.5427L26.7491 54.9406ZM48.6768 67.6949H49.6768C49.6768 67.3375 49.4859 67.0072 49.1763 66.8286L48.6768 67.6949ZM48.6674 67.6896L48.1646 68.554L48.1679 68.5559L48.6674 67.6896ZM48.9078 65.5664L48.9077 65.5664L49.8883 67.3096L49.8883 67.3095L48.9078 65.5664ZM49.9008 65.5736L21.7878 49.2215L20.7822 50.9503L48.8952 67.3024L49.9008 65.5736ZM20.4852 50.6862L20.4913 50.6943L22.0909 49.4937L22.0848 49.4856L20.4852 50.6862ZM20.4926 50.6961L48.5988 87.9722L50.1957 86.7681L22.0895 49.492L20.4926 50.6961ZM48.6029 87.9776L48.605 87.9803L50.1938 86.7655L50.1917 86.7628L48.6029 87.9776ZM50.3994 87.3729V66.4387H48.3994V87.3729H50.3994ZM49.9018 65.5741L49.9005 65.5733L48.8956 67.3026L48.8969 67.3034L49.9018 65.5741ZM49.4752 83.4204L27.5475 54.3386L25.9506 55.5427L47.8783 84.6245L49.4752 83.4204ZM47.6768 67.6949V84.0225H49.6768V67.6949H47.6768ZM48.1679 68.5559L48.1772 68.5612L49.1763 66.8286L49.1669 66.8232L48.1679 68.5559ZM26.2463 55.8051L48.1646 68.554L49.1702 66.8251L27.2519 54.0762L26.2463 55.8051Z" fill="white" mask="url(#path-4-outside-3_4854_1111)"/>
<mask id="path-6-outside-4_4854_1111" maskUnits="userSpaceOnUse" x="19.2852" y="0.642578" width="32" height="47" fill="black">
<rect fill="white" x="19.2852" y="0.642578" width="32" height="47"/>
<path fill-rule="evenodd" clip-rule="evenodd" d="M21.2863 45.7613L49.3994 1.64262L49.3994 33.2606L21.285 45.7634L21.2863 45.7613ZM48.6767 32.7911V5.49471L24.405 43.585L48.6767 32.7911Z"/>
</mask>
<path fill-rule="evenodd" clip-rule="evenodd" d="M21.2863 45.7613L49.3994 1.64262L49.3994 33.2606L21.285 45.7634L21.2863 45.7613ZM48.6767 32.7911V5.49471L24.405 43.585L48.6767 32.7911Z" fill="white"/>
<path d="M49.3994 1.64262L50.3994 1.64262C50.3994 1.19813 50.106 0.80699 49.6793 0.682587C49.2525 0.558183 48.7949 0.73038 48.556 1.10524L49.3994 1.64262ZM21.2863 45.7613L20.443 45.2239L20.443 45.2239L21.2863 45.7613ZM49.3994 33.2606L49.8057 34.1744C50.1667 34.0138 50.3994 33.6557 50.3994 33.2606L49.3994 33.2606ZM21.285 45.7634L20.4416 45.226C20.2045 45.5981 20.2393 46.0817 20.5272 46.416C20.8151 46.7503 21.2882 46.8564 21.6913 46.6771L21.285 45.7634ZM48.6767 5.49471H49.6767C49.6767 5.05021 49.3834 4.65907 48.9566 4.53467C48.5299 4.41027 48.0723 4.58246 47.8334 4.95732L48.6767 5.49471ZM48.6767 32.7911L49.0831 33.7049C49.4441 33.5443 49.6767 33.1862 49.6767 32.7911H48.6767ZM24.405 43.585L23.5617 43.0476C23.3246 43.4197 23.3594 43.9032 23.6473 44.2376C23.9352 44.5719 24.4082 44.678 24.8114 44.4987L24.405 43.585ZM48.556 1.10524L20.443 45.2239L22.1297 46.2987L50.2427 2.18001L48.556 1.10524ZM48.3994 1.64262L48.3994 33.2606L50.3994 33.2606L50.3994 1.64262L48.3994 1.64262ZM48.993 32.3469L20.8786 44.8497L21.6913 46.6771L49.8057 34.1744L48.993 32.3469ZM22.1283 46.3008L22.1297 46.2987L20.443 45.2239L20.4416 45.226L22.1283 46.3008ZM47.6767 5.49471V32.7911H49.6767V5.49471H47.6767ZM25.2484 44.1224L49.5201 6.03209L47.8334 4.95732L23.5617 43.0476L25.2484 44.1224ZM48.2704 31.8774L23.9987 42.6713L24.8114 44.4987L49.0831 33.7049L48.2704 31.8774Z" fill="white" mask="url(#path-6-outside-4_4854_1111)"/>
<mask id="path-8-outside-5_4854_1111" maskUnits="userSpaceOnUse" x="20.2798" y="31.2617" width="31" height="32" fill="black">
<rect fill="white" x="20.2798" y="31.2617" width="31" height="32"/>
<path fill-rule="evenodd" clip-rule="evenodd" d="M21.2965 45.774L49.3994 61.7639V33.2615L21.2798 45.7643L21.2966 45.7739L21.2965 45.774ZM23.6721 45.4913L48.6767 59.7184V34.3735L23.6721 45.4913Z"/>
</mask>
<path fill-rule="evenodd" clip-rule="evenodd" d="M21.2965 45.774L49.3994 61.7639V33.2615L21.2798 45.7643L21.2966 45.7739L21.2965 45.774ZM23.6721 45.4913L48.6767 59.7184V34.3735L23.6721 45.4913Z" fill="white"/>
<path d="M49.3994 61.7639L48.9048 62.6331C49.2144 62.8092 49.5942 62.8074 49.9021 62.6283C50.21 62.4493 50.3994 62.12 50.3994 61.7639H49.3994ZM21.2965 45.774L20.4529 45.237C20.3058 45.468 20.26 45.7492 20.3259 46.0149C20.3919 46.2807 20.564 46.5077 20.8019 46.6431L21.2965 45.774ZM49.3994 33.2615H50.3994C50.3994 32.923 50.2281 32.6074 49.9442 32.423C49.6604 32.2385 49.3024 32.2102 48.9931 32.3478L49.3994 33.2615ZM21.2798 45.7643L20.8735 44.8506C20.5288 45.0039 20.2997 45.3381 20.281 45.7149C20.2624 46.0917 20.4574 46.4469 20.7853 46.6335L21.2798 45.7643ZM21.2966 45.7739L22.1402 46.3108C22.2872 46.0798 22.3331 45.7987 22.2671 45.5329C22.2011 45.2672 22.0291 45.0401 21.7911 44.9047L21.2966 45.7739ZM48.6767 59.7184L48.1822 60.5875C48.4918 60.7637 48.8716 60.7619 49.1795 60.5828C49.4873 60.4038 49.6767 60.0745 49.6767 59.7184H48.6767ZM23.6721 45.4913L23.2659 44.5776C22.9211 44.7308 22.692 45.0651 22.6734 45.4419C22.6547 45.8187 22.8497 46.1739 23.1776 46.3605L23.6721 45.4913ZM48.6767 34.3735H49.6767C49.6767 34.035 49.5055 33.7194 49.2216 33.535C48.9377 33.3505 48.5798 33.3222 48.2705 33.4597L48.6767 34.3735ZM49.8939 60.8947L21.791 44.9048L20.8019 46.6431L48.9048 62.6331L49.8939 60.8947ZM48.3994 33.2615V61.7639H50.3994V33.2615H48.3994ZM21.6861 46.6781L49.8057 34.1753L48.9931 32.3478L20.8735 44.8506L21.6861 46.6781ZM20.7853 46.6335L20.802 46.643L21.7911 44.9047L21.7744 44.8952L20.7853 46.6335ZM20.4529 45.2369L20.4529 45.237L22.1401 46.3109L22.1402 46.3108L20.4529 45.2369ZM49.1713 58.8492L24.1667 44.6222L23.1776 46.3605L48.1822 60.5875L49.1713 58.8492ZM47.6767 34.3735V59.7184H49.6767V34.3735H47.6767ZM24.0784 46.4051L49.083 35.2872L48.2705 33.4597L23.2659 44.5776L24.0784 46.4051Z" fill="white" mask="url(#path-8-outside-5_4854_1111)"/>
<mask id="path-10-outside-6_4854_1111" maskUnits="userSpaceOnUse" x="48.3994" y="32.2617" width="31" height="31" fill="black">
<rect fill="white" x="48.3994" y="32.2617" width="31" height="31"/>
<path fill-rule="evenodd" clip-rule="evenodd" d="M77.5187 45.7644L49.3994 33.2617V61.7641L77.5024 45.7741L77.5022 45.7739L77.5187 45.7644ZM50.122 59.7184L75.1266 45.4913L50.122 34.3735V59.7184Z"/>
</mask>
<path fill-rule="evenodd" clip-rule="evenodd" d="M77.5187 45.7644L49.3994 33.2617V61.7641L77.5024 45.7741L77.5022 45.7739L77.5187 45.7644ZM50.122 59.7184L75.1266 45.4913L50.122 34.3735V59.7184Z" fill="white"/>
<path d="M77.5187 45.7644L78.0132 46.6336C78.3412 46.4471 78.5362 46.0918 78.5175 45.715C78.4989 45.3382 78.2698 45.004 77.925 44.8507L77.5187 45.7644ZM49.3994 33.2617L49.8057 32.348C49.4964 32.2104 49.1384 32.2387 48.8546 32.4232C48.5707 32.6076 48.3994 32.9232 48.3994 33.2617H49.3994ZM49.3994 61.7641H48.3994C48.3994 62.1202 48.5888 62.4495 48.8967 62.6286C49.2046 62.8076 49.5844 62.8094 49.8939 62.6333L49.3994 61.7641ZM77.5024 45.7741L77.9969 46.6433C78.235 46.5078 78.4071 46.2806 78.473 46.0147C78.5389 45.7488 78.4929 45.4675 78.3456 45.2365L77.5024 45.7741ZM77.5022 45.7739L77.0077 44.9047C76.7696 45.0401 76.5975 45.2674 76.5316 45.5333C76.4657 45.7992 76.5117 46.0805 76.659 46.3115L77.5022 45.7739ZM75.1266 45.4913L75.6211 46.3605C75.949 46.1739 76.144 45.8187 76.1254 45.4419C76.1067 45.0651 75.8776 44.7308 75.5329 44.5776L75.1266 45.4913ZM50.122 59.7184H49.122C49.122 60.0745 49.3114 60.4038 49.6193 60.5828C49.9271 60.7619 50.307 60.7637 50.6165 60.5875L50.122 59.7184ZM50.122 34.3735L50.5283 33.4597C50.219 33.3222 49.861 33.3505 49.5772 33.535C49.2933 33.7194 49.122 34.035 49.122 34.3735H50.122ZM77.925 44.8507L49.8057 32.348L48.9931 34.1755L77.1125 46.6782L77.925 44.8507ZM48.3994 33.2617V61.7641H50.3994V33.2617H48.3994ZM49.8939 62.6333L77.9969 46.6433L77.0079 44.905L48.9049 60.8949L49.8939 62.6333ZM78.3456 45.2365L78.3454 45.2362L76.659 46.3115L76.6592 46.3117L78.3456 45.2365ZM77.9967 46.643L78.0132 46.6336L77.0243 44.8953L77.0077 44.9047L77.9967 46.643ZM74.6321 44.6222L49.6275 58.8492L50.6165 60.5875L75.6211 46.3605L74.6321 44.6222ZM49.7157 35.2872L74.7203 46.4051L75.5329 44.5776L50.5283 33.4597L49.7157 35.2872ZM51.122 59.7184V34.3735H49.122V59.7184H51.122Z" fill="white" mask="url(#path-10-outside-6_4854_1111)"/>
<mask id="path-12-outside-7_4854_1111" maskUnits="userSpaceOnUse" x="48.3994" y="0.642578" width="31" height="47" fill="black">
<rect fill="white" x="48.3994" y="0.642578" width="31" height="47"/>
<path fill-rule="evenodd" clip-rule="evenodd" d="M49.3994 1.64262V33.2606L77.5138 45.7634L77.5124 45.7613L49.3994 1.64262ZM50.122 32.7911L74.3937 43.585L50.122 5.49471V32.7911Z"/>
</mask>
<path fill-rule="evenodd" clip-rule="evenodd" d="M49.3994 1.64262V33.2606L77.5138 45.7634L77.5124 45.7613L49.3994 1.64262ZM50.122 32.7911L74.3937 43.585L50.122 5.49471V32.7911Z" fill="white"/>
<path d="M49.3994 1.64262L50.2427 1.10524C50.0038 0.730381 49.5462 0.558184 49.1195 0.682588C48.6928 0.806991 48.3994 1.19813 48.3994 1.64262L49.3994 1.64262ZM49.3994 33.2606H48.3994C48.3994 33.6557 48.632 34.0138 48.993 34.1744L49.3994 33.2606ZM77.5138 45.7634L77.1074 46.6771C77.5095 46.856 77.9813 46.7509 78.2695 46.4183C78.5577 46.0857 78.5946 45.6038 78.3604 45.2312L77.5138 45.7634ZM77.5124 45.7613L78.3591 45.2291L78.3558 45.2239L77.5124 45.7613ZM74.3937 43.585L73.9874 44.4987C74.3905 44.678 74.8635 44.5719 75.1514 44.2376C75.4394 43.9032 75.4741 43.4197 75.237 43.0476L74.3937 43.585ZM50.122 32.7911H49.122C49.122 33.1862 49.3546 33.5443 49.7157 33.7049L50.122 32.7911ZM50.122 5.49471L50.9653 4.95733C50.7265 4.58247 50.2689 4.41027 49.8421 4.53468C49.4154 4.65908 49.122 5.05022 49.122 5.49471H50.122ZM48.3994 1.64262V33.2606H50.3994V1.64262H48.3994ZM48.993 34.1744L77.1074 46.6771L77.9201 44.8497L49.8057 32.3469L48.993 34.1744ZM78.3604 45.2312L78.3591 45.2291L76.6658 46.2935L76.6671 46.2956L78.3604 45.2312ZM78.3558 45.2239L50.2427 1.10524L48.556 2.18001L76.6691 46.2987L78.3558 45.2239ZM74.8 42.6713L50.5283 31.8774L49.7157 33.7049L73.9874 44.4987L74.8 42.6713ZM49.2787 6.0321L73.5504 44.1224L75.237 43.0476L50.9653 4.95733L49.2787 6.0321ZM51.122 32.7911V5.49471H49.122V32.7911H51.122Z" fill="white" mask="url(#path-12-outside-7_4854_1111)"/>
<mask id="path-14-outside-8_4854_1111" maskUnits="userSpaceOnUse" x="-0.508301" y="31.3281" width="17" height="19" fill="black">
<rect fill="white" x="-0.508301" y="31.3281" width="17" height="19"/>
<path fill-rule="evenodd" clip-rule="evenodd" d="M11.7267 40.3126L13.2076 36.3281L11.2052 38.6911L2.4917 48.9741H4.38211L4.54425 48.784C6.20716 46.8338 9.52685 42.9134 11.6647 40.3858L11.7267 40.3126Z"/>
</mask>
<path fill-rule="evenodd" clip-rule="evenodd" d="M11.7267 40.3126L13.2076 36.3281L11.2052 38.6911L2.4917 48.9741H4.38211L4.54425 48.784C6.20716 46.8338 9.52685 42.9134 11.6647 40.3858L11.7267 40.3126Z" fill="white"/>
<path d="M13.2076 36.3281L14.1449 36.6765L16.132 31.3302L12.4447 35.6816L13.2076 36.3281ZM11.7267 40.3126L12.4902 40.9584L12.6031 40.8249L12.664 40.661L11.7267 40.3126ZM11.2052 38.6911L10.4423 38.0446L10.4423 38.0446L11.2052 38.6911ZM2.4917 48.9741L1.72877 48.3276L0.333592 49.9741H2.4917V48.9741ZM4.38211 48.9741V49.9741H4.84361L5.14304 49.623L4.38211 48.9741ZM4.54425 48.784L3.78332 48.1351L3.78331 48.1351L4.54425 48.784ZM11.6647 40.3858L10.9012 39.74L10.9012 39.7401L11.6647 40.3858ZM12.2702 35.9797L10.7893 39.9642L12.664 40.661L14.1449 36.6765L12.2702 35.9797ZM11.9681 39.3376L13.9705 36.9746L12.4447 35.6816L10.4423 38.0446L11.9681 39.3376ZM3.25463 49.6206L11.9681 39.3376L10.4423 38.0446L1.72877 48.3276L3.25463 49.6206ZM4.38211 47.9741H2.4917V49.9741H4.38211V47.9741ZM3.78331 48.1351L3.62117 48.3253L5.14304 49.623L5.30518 49.4328L3.78331 48.1351ZM10.9012 39.7401C8.76311 42.2679 5.44471 46.1867 3.78332 48.1351L5.30518 49.4328C6.9696 47.4808 10.2906 43.5589 12.4282 41.0316L10.9012 39.7401ZM10.9632 39.6668L10.9012 39.74L12.4282 41.0316L12.4902 40.9584L10.9632 39.6668Z" fill="white" mask="url(#path-14-outside-8_4854_1111)"/>
<mask id="path-16-outside-9_4854_1111" maskUnits="userSpaceOnUse" x="-0.508301" y="47.9736" width="17" height="19" fill="black">
<rect fill="white" x="-0.508301" y="47.9736" width="17" height="19"/>
<path fill-rule="evenodd" clip-rule="evenodd" d="M11.7241 57.5326L13.2031 61.4646L3.25526 49.8682L2.4917 48.9736H4.37956L4.5417 49.1615C6.20461 51.0886 9.52431 54.9626 11.6622 57.4602L11.7241 57.5326Z"/>
</mask>
<path fill-rule="evenodd" clip-rule="evenodd" d="M11.7241 57.5326L13.2031 61.4646L3.25526 49.8682L2.4917 48.9736H4.37956L4.5417 49.1615C6.20461 51.0886 9.52431 54.9626 11.6622 57.4602L11.7241 57.5326Z" fill="white"/>
<path d="M13.2031 61.4646L12.4441 62.1156L16.1345 66.4176L14.1391 61.1125L13.2031 61.4646ZM11.7241 57.5326L12.6601 57.1805L12.5982 57.0159L12.4838 56.8823L11.7241 57.5326ZM3.25526 49.8682L2.49466 50.5174L2.49626 50.5193L3.25526 49.8682ZM2.4917 48.9736V47.9736H0.323348L1.73111 49.6229L2.4917 48.9736ZM4.37956 48.9736L5.13666 48.3203L4.83749 47.9736H4.37956V48.9736ZM4.5417 49.1615L5.2988 48.5082L5.2988 48.5082L4.5417 49.1615ZM11.6622 57.4602L10.9025 58.1104L10.9025 58.1104L11.6622 57.4602ZM14.1391 61.1125L12.6601 57.1805L10.7882 57.8846L12.2671 61.8166L14.1391 61.1125ZM2.49626 50.5193L12.4441 62.1156L13.9621 60.8135L4.01425 49.2171L2.49626 50.5193ZM1.73111 49.6229L2.49466 50.5174L4.01585 49.2189L3.25229 48.3244L1.73111 49.6229ZM4.37956 47.9736H2.4917V49.9736H4.37956V47.9736ZM5.2988 48.5082L5.13666 48.3203L3.62246 49.6269L3.7846 49.8148L5.2988 48.5082ZM12.4219 56.8099C10.2842 54.3126 6.96323 50.4371 5.2988 48.5082L3.7846 49.8148C5.44599 51.7402 8.76438 55.6126 10.9025 58.1104L12.4219 56.8099ZM12.4838 56.8823L12.4219 56.8099L10.9025 58.1104L10.9644 58.1828L12.4838 56.8823Z" fill="white" mask="url(#path-16-outside-9_4854_1111)"/>
<mask id="path-18-outside-10_4854_1111" maskUnits="userSpaceOnUse" x="82.3096" y="31.3281" width="17" height="19" fill="black">
<rect fill="white" x="82.3096" y="31.3281" width="17" height="19"/>
<path fill-rule="evenodd" clip-rule="evenodd" d="M87.0746 40.3126L85.5937 36.3281L87.5961 38.6911L96.3096 48.9741H94.4192L94.257 48.784C92.5941 46.8338 89.2744 42.9134 87.1366 40.3858L87.0746 40.3126Z"/>
</mask>
<path fill-rule="evenodd" clip-rule="evenodd" d="M87.0746 40.3126L85.5937 36.3281L87.5961 38.6911L96.3096 48.9741H94.4192L94.257 48.784C92.5941 46.8338 89.2744 42.9134 87.1366 40.3858L87.0746 40.3126Z" fill="white"/>
<path d="M85.5937 36.3281L84.6563 36.6765L82.6693 31.3302L86.3566 35.6816L85.5937 36.3281ZM87.0746 40.3126L86.3111 40.9584L86.1982 40.8249L86.1372 40.661L87.0746 40.3126ZM87.5961 38.6911L88.359 38.0446L88.359 38.0446L87.5961 38.6911ZM96.3096 48.9741L97.0725 48.3276L98.4677 49.9741H96.3096V48.9741ZM94.4192 48.9741V49.9741H93.9577L93.6582 49.623L94.4192 48.9741ZM94.257 48.784L95.018 48.1351L95.018 48.1351L94.257 48.784ZM87.1366 40.3858L87.9001 39.74L87.9001 39.7401L87.1366 40.3858ZM86.531 35.9797L88.0119 39.9642L86.1372 40.661L84.6563 36.6765L86.531 35.9797ZM86.8331 39.3376L84.8308 36.9746L86.3566 35.6816L88.359 38.0446L86.8331 39.3376ZM95.5466 49.6206L86.8331 39.3376L88.359 38.0446L97.0725 48.3276L95.5466 49.6206ZM94.4192 47.9741H96.3096V49.9741H94.4192V47.9741ZM95.018 48.1351L95.1801 48.3253L93.6582 49.623L93.4961 49.4328L95.018 48.1351ZM87.9001 39.7401C90.0382 42.2679 93.3566 46.1867 95.018 48.1351L93.4961 49.4328C91.8317 47.4808 88.5107 43.5589 86.3731 41.0316L87.9001 39.7401ZM87.8381 39.6668L87.9001 39.74L86.3731 41.0316L86.3111 40.9584L87.8381 39.6668Z" fill="white" mask="url(#path-18-outside-10_4854_1111)"/>
<mask id="path-20-outside-11_4854_1111" maskUnits="userSpaceOnUse" x="82.3096" y="47.9736" width="17" height="19" fill="black">
<rect fill="white" x="82.3096" y="47.9736" width="17" height="19"/>
<path fill-rule="evenodd" clip-rule="evenodd" d="M87.0771 57.5326L85.5982 61.4646L95.546 49.8682L96.3096 48.9736H94.4217L94.2596 49.1615C92.5967 51.0886 89.277 54.9626 87.1391 57.4602L87.0771 57.5326Z"/>
</mask>
<path fill-rule="evenodd" clip-rule="evenodd" d="M87.0771 57.5326L85.5982 61.4646L95.546 49.8682L96.3096 48.9736H94.4217L94.2596 49.1615C92.5967 51.0886 89.277 54.9626 87.1391 57.4602L87.0771 57.5326Z" fill="white"/>
<path d="M85.5982 61.4646L86.3572 62.1156L82.6668 66.4176L84.6622 61.1125L85.5982 61.4646ZM87.0771 57.5326L86.1412 57.1805L86.2031 57.0159L86.3174 56.8823L87.0771 57.5326ZM95.546 49.8682L96.3066 50.5174L96.305 50.5193L95.546 49.8682ZM96.3096 48.9736V47.9736H98.4779L97.0702 49.6229L96.3096 48.9736ZM94.4217 48.9736L93.6646 48.3203L93.9638 47.9736H94.4217V48.9736ZM94.2596 49.1615L93.5025 48.5082L93.5025 48.5082L94.2596 49.1615ZM87.1391 57.4602L87.8988 58.1104L87.8988 58.1104L87.1391 57.4602ZM84.6622 61.1125L86.1412 57.1805L88.0131 57.8846L86.5342 61.8166L84.6622 61.1125ZM96.305 50.5193L86.3572 62.1156L84.8392 60.8135L94.787 49.2171L96.305 50.5193ZM97.0702 49.6229L96.3066 50.5174L94.7854 49.2189L95.549 48.3244L97.0702 49.6229ZM94.4217 47.9736H96.3096V49.9736H94.4217V47.9736ZM93.5025 48.5082L93.6646 48.3203L95.1788 49.6269L95.0167 49.8148L93.5025 48.5082ZM86.3794 56.8099C88.517 54.3126 91.838 50.4371 93.5025 48.5082L95.0167 49.8148C93.3553 51.7402 90.0369 55.6126 87.8988 58.1104L86.3794 56.8099ZM86.3174 56.8823L86.3794 56.8099L87.8988 58.1104L87.8368 58.1828L86.3174 56.8823Z" fill="white" mask="url(#path-20-outside-11_4854_1111)"/>
</svg>
