<svg width="267" height="78" viewBox="0 0 267 78" fill="none" xmlns="http://www.w3.org/2000/svg">
<path d="M95.062 41.4621H109.156C109.156 42.9039 109.084 44.2376 108.976 45.4271C108.867 46.6166 108.615 47.6979 108.255 48.7072C107.75 50.149 107.065 51.4106 106.2 52.528C105.335 53.6094 104.29 54.5466 103.136 55.2675C101.983 55.9884 100.685 56.5651 99.2793 56.9256C97.8735 57.3221 96.3957 57.5023 94.8457 57.5023C92.719 57.5023 90.7726 57.1419 89.0063 56.457C87.2762 55.7721 85.7622 54.7629 84.5006 53.5373C83.2391 52.2397 82.2658 50.7258 81.581 48.9595C80.8961 47.1573 80.5356 45.2108 80.5356 43.0481C80.5356 40.9214 80.8601 38.9749 81.5449 37.2087C82.2298 35.4064 83.2391 33.8925 84.4646 32.6309C85.7622 31.3693 87.2762 30.3961 89.0784 29.7112C90.8807 29.0264 92.8632 28.6659 95.062 28.6659C97.9096 28.6659 100.397 29.2787 102.559 30.5043C104.722 31.7298 106.416 33.6402 107.678 36.2355L100.937 39.011C100.325 37.4971 99.4956 36.4518 98.4863 35.8029C97.5131 35.1541 96.3596 34.8297 95.098 34.8297C94.0527 34.8297 93.0795 35.046 92.2144 35.4425C91.3493 35.839 90.5923 36.3797 89.9796 37.1366C89.3668 37.8575 88.8982 38.7587 88.5377 39.7679C88.2133 40.8133 88.0331 41.9667 88.0331 43.2283C88.0331 44.3818 88.1773 45.4631 88.4657 46.4364C88.7901 47.4096 89.2226 48.2747 89.8354 48.9956C90.4482 49.7165 91.2051 50.2932 92.0702 50.6897C92.9713 51.0862 94.0167 51.2664 95.1701 51.2664C95.855 51.2664 96.5398 51.1944 97.1887 51.0502C97.8375 50.8699 98.4142 50.6176 98.9188 50.2932C99.4595 49.9328 99.8921 49.4642 100.216 48.9235C100.541 48.3828 100.793 47.6979 100.901 46.9049H95.062V41.4621ZM144.192 35.1541V57.5023H136.622V35.1541H130.495V28.6659H150.32V35.1541H144.192ZM176.633 38.5424C174.975 36.5238 172.956 35.5146 170.541 35.5146C169.46 35.5146 168.487 35.6948 167.549 36.0913C166.648 36.4878 165.891 37.0285 165.206 37.6773C164.558 38.3261 164.017 39.1191 163.657 40.0563C163.296 40.9935 163.116 41.9667 163.116 43.0481C163.116 44.1294 163.296 45.1387 163.657 46.0759C164.053 47.0131 164.558 47.8061 165.206 48.4909C165.891 49.1758 166.684 49.7165 167.585 50.0769C168.487 50.4735 169.46 50.6537 170.505 50.6537C172.776 50.6537 174.831 49.6804 176.633 47.734V56.1686L175.912 56.421C174.831 56.8175 173.821 57.0698 172.848 57.25C171.911 57.4302 170.974 57.5384 170.037 57.5384C168.162 57.5384 166.324 57.1779 164.594 56.493C162.864 55.7721 161.35 54.7629 160.016 53.4652C158.718 52.1676 157.637 50.6176 156.844 48.8514C156.051 47.0491 155.654 45.1027 155.654 43.012C155.654 40.9214 156.051 38.9749 156.808 37.2448C157.601 35.4785 158.646 33.9646 159.98 32.703C161.314 31.4054 162.864 30.4322 164.594 29.7112C166.324 28.9903 168.162 28.6299 170.073 28.6299C171.154 28.6299 172.235 28.738 173.281 28.9903C174.362 29.2066 175.479 29.5671 176.633 30.0357V38.5424ZM191.484 43.0841C191.484 44.1655 191.7 45.1748 192.096 46.1119C192.493 47.0491 193.07 47.8421 193.755 48.527C194.439 49.2119 195.268 49.7525 196.206 50.113C197.143 50.4734 198.152 50.6537 199.197 50.6537C200.243 50.6537 201.216 50.4734 202.153 50.113C203.09 49.7165 203.919 49.1758 204.64 48.527C205.361 47.8421 205.938 47.0491 206.334 46.1119C206.731 45.1748 206.947 44.2015 206.947 43.0841C206.947 41.9667 206.731 40.9935 206.334 40.0563C205.938 39.1191 205.361 38.3261 204.64 37.6413C203.955 36.9564 203.126 36.4518 202.153 36.0913C201.216 35.6948 200.243 35.5146 199.197 35.5146C198.152 35.5146 197.179 35.6948 196.206 36.0913C195.268 36.4518 194.475 36.9924 193.755 37.6413C193.07 38.3261 192.493 39.1191 192.096 40.0563C191.7 40.9935 191.484 42.0028 191.484 43.0841ZM184.058 43.0841C184.058 41.0656 184.419 39.1552 185.176 37.425C185.933 35.6588 186.978 34.1088 188.312 32.8112C189.645 31.5135 191.231 30.4682 193.07 29.7473C194.944 28.9903 196.999 28.6299 199.197 28.6299C201.396 28.6299 203.451 28.9903 205.289 29.7473C207.163 30.4682 208.749 31.4775 210.083 32.8112C211.453 34.1088 212.498 35.6588 213.255 37.425C214.012 39.1552 214.373 41.0656 214.373 43.0841C214.373 45.1027 214.012 47.0131 213.255 48.7793C212.498 50.5095 211.453 52.0594 210.083 53.3571C208.749 54.6547 207.163 55.7 205.289 56.457C203.415 57.1779 201.396 57.5384 199.197 57.5384C196.963 57.5384 194.908 57.1779 193.07 56.457C191.231 55.7 189.645 54.6908 188.312 53.3571C186.978 52.0594 185.933 50.5095 185.176 48.7793C184.419 47.0131 184.058 45.1387 184.058 43.0841ZM229.259 28.6659V57.5023H221.69V28.6659H229.259ZM123.286 28.6659V57.5023H115.716V28.6659H123.286ZM237.189 57.5023V28.6659H244.398L258.456 46.2922V28.6659H266.026V57.5023H258.744L244.759 39.8761V57.5023H237.189Z" fill="white"/>
<path d="M55.7645 43.7632C55.7645 47.9095 54.5512 51.965 52.2746 55.429L57.2049 59.4823C60.4306 54.8778 62.1557 49.3874 62.1445 43.7632C62.1427 38.2987 60.5261 32.9568 57.4986 28.4104L52.3726 32.2863C54.4834 35.5744 55.7645 39.5618 55.7645 43.7632Z" fill="white"/>
<path d="M61.2091 62.4232C57.849 59.6477 46.2164 50.3696 44.6729 49.1376C45.5495 47.4828 46.0005 45.6365 45.9861 43.7643C45.9713 41.8921 45.4912 40.0527 44.5886 38.4119L57.5339 28.6302L61.3151 25.5639C62.2444 24.9453 62.3961 24.2597 61.721 23.3716C60.8415 22.2145 59.8888 21.1148 58.8687 20.0791C53.4226 14.5462 46.0859 10.8744 37.9054 10.1019V3.6021C37.9054 1.88244 36.6063 0.38086 34.8884 0.269587C34.4465 0.24021 34.0035 0.301741 33.5868 0.450357C33.1697 0.598972 32.788 0.831537 32.4647 1.13363C32.1413 1.4357 31.8836 1.80087 31.7074 2.20653C31.5315 2.61215 31.4403 3.04963 31.4403 3.4918V10.1048C28.6839 10.365 25.9696 10.9629 23.3592 11.8854V3.6021C23.3592 1.88244 22.0601 0.38086 20.3422 0.269587C19.9007 0.24021 19.4577 0.301741 19.041 0.450357C18.6239 0.598972 18.2422 0.831537 17.9189 1.13363C17.5956 1.43573 17.3382 1.80091 17.1619 2.20656C16.9857 2.61218 16.8948 3.04963 16.8948 3.4918V14.972C7.26925 20.8952 0.828533 31.4818 0.732004 43.5797C0.58346 62.3782 16.2662 77.7602 35.0852 77.7602H60.2074C60.6656 77.7599 61.1089 77.5977 61.4586 77.3021C61.8082 77.0065 62.0422 76.5967 62.1182 76.1454L62.1442 64.418C62.1456 64.037 62.0623 63.6607 61.9005 63.3157C61.739 62.9708 61.5029 62.6662 61.2091 62.4232ZM55.7165 66.5613L55.6823 71.302H35.0109C19.8235 71.302 7.12172 58.8879 7.19647 43.7171C7.2371 35.3895 10.9953 27.9429 16.8934 22.9361V29.2135C16.8934 30.9336 18.1925 32.4352 19.9104 32.5466C20.3523 32.5758 20.795 32.5141 21.212 32.3656C21.6287 32.2168 22.0108 31.9843 22.3337 31.6822C22.6571 31.3802 22.9148 31.015 23.0907 30.6095C23.267 30.204 23.3578 29.7664 23.3578 29.3245V18.8441C26.9122 17.2355 30.7695 16.4049 34.6714 16.4078C41.8999 16.4078 47.9895 18.8031 52.8953 23.3608L39.699 33.7307C38.1372 32.9543 36.416 32.5516 34.6714 32.5534C28.4233 32.5534 23.3578 37.6131 23.3578 43.8551C23.3578 50.0971 28.4233 55.1568 34.6714 55.1568C36.443 55.1583 38.1905 54.742 39.7707 53.9421L55.7165 66.5613ZM39.5202 43.8551C39.5202 44.8132 39.2358 45.7497 38.7031 46.5463C38.1703 47.3429 37.413 47.9636 36.527 48.3302C35.641 48.6971 34.666 48.793 33.7255 48.6059C32.7848 48.4192 31.9208 47.9578 31.2427 47.2802C30.5644 46.6029 30.1026 45.74 29.9155 44.8002C29.7285 43.8605 29.8243 42.8866 30.1916 42.0013C30.5586 41.1164 31.18 40.3598 31.9773 39.8274C32.7747 39.2954 33.7122 39.0113 34.6714 39.0113C35.9575 39.0113 37.1906 39.5214 38.1 40.4301C39.0095 41.3384 39.5202 42.5705 39.5202 43.8551Z" fill="white"/>
</svg>
