<svg width="284" height="88" viewBox="0 0 284 88" fill="none" xmlns="http://www.w3.org/2000/svg">
<path d="M134.384 20.9759L134.662 21.0188C140.735 21.3294 145.972 23.5999 150.395 27.766L150.684 28.0444L147.279 31.4502L146.786 31.0004C144.732 29.088 142.288 27.6446 139.621 26.77C138.466 26.3952 137.28 26.1263 136.076 25.9667C134.818 25.815 133.55 25.7756 132.285 25.8489C130.913 25.9338 129.556 26.1709 128.236 26.5558C127.111 26.875 126.017 27.2981 124.97 27.8195C123.527 28.5165 122.184 29.4025 120.975 30.4542C120.504 30.8611 120.043 31.2788 119.604 31.7286C117.904 33.4743 116.552 35.5279 115.62 37.7797C115.035 39.1628 114.621 40.6122 114.389 42.0958C114.285 42.7272 114.213 43.3635 114.174 44.0021C114.132 44.759 114.121 45.5194 114.142 46.2833C114.209 47.5964 114.41 48.8991 114.742 50.171C115.763 54.0817 117.976 57.5778 121.073 60.1743C124.17 62.7708 127.999 64.339 132.028 64.6615C132.961 64.7329 133.899 64.74 134.834 64.6829C136.35 64.5955 137.85 64.3221 139.3 63.8689C140.296 63.5597 141.266 63.173 142.202 62.7123C144.601 61.5186 146.728 59.8444 148.453 57.7939C150.177 55.7433 151.462 53.3601 152.227 50.7922C152.269 50.6208 152.323 50.4495 152.377 50.246C151.734 50.2353 151.134 50.246 150.534 50.246H128.697L133.645 45.2873H157.828V45.63C157.699 51.5526 155.718 56.7683 151.841 61.2343C148.382 65.2291 144.034 67.778 138.904 68.9668C137.55 69.2683 136.175 69.4581 134.791 69.5345C133.638 69.6005 132.481 69.5755 131.332 69.4595C126.03 68.9347 121.361 66.9213 117.387 63.3656C113.414 59.8099 111.047 55.6223 109.89 50.5673C109.557 49.1296 109.367 47.6622 109.323 46.187C109.141 39.7503 111.133 34.0741 115.363 29.2332C118.78 25.3134 123.074 22.7966 128.129 21.6078C129.365 21.3171 130.622 21.1272 131.889 21.0402L132.445 21.0188L132.735 20.9759H134.384Z" fill="white"/>
<path d="M283.765 69.5666H278.924V50.2567H264.348V69.5238C264.166 69.5773 259.85 69.588 259.529 69.5452V40.5321H264.337V45.2338C264.541 45.2873 278.453 45.3088 278.924 45.2552V30.8504L279.128 30.829H283.765V69.5666Z" fill="white"/>
<path d="M235.196 50.2246H215.886L210.949 45.2873H229.616C228.949 43.3663 227.879 41.6099 226.478 40.1359C224.24 37.7797 221.509 36.3018 218.306 35.7556C215.133 35.2199 211.872 35.7471 209.029 37.2555C206.186 38.7638 203.92 41.1687 202.584 44.0967C201.249 47.0247 200.917 50.3119 201.641 53.4477C202.366 56.5834 204.105 59.3922 206.59 61.4378C209.482 63.794 212.812 64.9078 216.539 64.7365C220.266 64.5651 223.436 63.13 226.103 60.5703L229.455 63.9332C224.668 68.9668 215.586 71.7086 207.168 67.4889C197.626 62.6801 193.77 51.0385 198.579 41.4746C200.555 37.5378 203.816 34.3937 207.822 32.5629C211.828 30.7321 216.339 30.3244 220.609 31.4073C230.419 33.9027 235.367 42.7491 235.196 50.2246Z" fill="white"/>
<path d="M177.309 59.7564L193.995 30.8397H199.521V30.8611C199.521 30.8719 199.532 30.8826 199.521 30.8826L199.489 30.979L177.245 69.5559H172.425V30.8826L172.447 30.8611C172.447 30.8504 172.458 30.8504 172.468 30.8504L172.565 30.829H177.127L177.245 30.8504V59.7457L177.309 59.7564Z" fill="white"/>
<path d="M244.931 69.5559H240.09V35.5521C239.758 35.5306 239.448 35.5414 239.137 35.5414H234.361L231.619 30.8397H264.327V35.5414H244.931V69.5559Z" fill="white"/>
<path d="M167.531 69.5559H162.712V40.5321H167.52C167.52 40.5429 167.531 40.5429 167.531 40.5536C167.531 50.171 167.535 59.7885 167.542 69.4059C167.542 69.4595 167.531 69.4916 167.531 69.5559Z" fill="white"/>
<path d="M165.121 30.829C165.437 30.8279 165.75 30.8909 166.041 31.0143C166.332 31.1376 166.595 31.3187 166.813 31.5466C167.199 31.9401 167.436 32.4547 167.485 33.0032C167.535 33.5516 167.393 34.1003 167.084 34.5563C166.776 35.0123 166.319 35.3476 165.791 35.5054C165.263 35.6632 164.698 35.6338 164.189 35.4222C163.681 35.2107 163.261 34.8299 163.001 34.3444C162.741 33.8588 162.657 33.2984 162.763 32.758C162.869 32.2176 163.158 31.7304 163.582 31.3788C164.006 31.0273 164.538 30.8331 165.089 30.829H165.121Z" fill="white"/>
<path d="M87.9245 45.0946C87.8389 46.3262 87.8174 47.5578 87.6568 48.7895C86.061 61.7591 80.0099 72.1584 69.3858 79.7731C61.4605 85.46 52.4963 88.1161 42.7503 87.7734C31.4621 87.3878 21.7376 83.1895 13.5874 75.382C13.5124 75.3071 13.5124 75.0179 13.5874 74.9429C23.7546 64.7614 33.9361 54.5835 44.1319 44.4091C44.3734 44.1908 44.6847 44.0655 45.0101 44.0557C59.3185 44.0343 73.6269 44.0271 87.9352 44.0343L87.9245 45.0946Z" fill="white"/>
<path d="M45.2029 0.220215C46.4024 0.305894 47.6126 0.359444 48.8121 0.498672C55.7413 1.2258 62.3938 3.60982 68.2077 7.44937C68.2484 7.47539 68.2846 7.50796 68.3148 7.54576L64.5877 11.2728C63.7738 12.0867 62.9598 12.9007 62.1352 13.7039C62.0849 13.7389 62.0251 13.7576 61.9638 13.7575C61.9023 13.7655 61.8397 13.7582 61.7817 13.7361C55.8413 10.3089 49.4368 8.73456 42.5683 9.01301C27.221 9.62348 13.8444 20.494 10.1709 35.4021C7.88971 44.634 9.15347 53.4054 13.8444 61.6948C13.8872 61.7698 13.8979 61.9412 13.8444 61.9947L7.70764 68.1315L7.62196 68.2064C7.42918 67.9066 7.23641 67.6174 7.05434 67.3175C1.98857 59.1459 -0.239081 50.2567 0.47848 40.6607C1.98857 20.7189 16.8324 4.38635 36.5814 0.916356C38.5735 0.562931 40.6191 0.477253 42.6432 0.263055L43.0502 0.220215H45.2029Z" fill="white"/>
<path d="M67.4044 26.6522C67.4062 24.8265 68.0409 23.0578 69.2002 21.6475C70.3596 20.2372 71.972 19.2724 73.7629 18.9174C75.5538 18.5624 77.4123 18.8392 79.022 19.7007C80.6317 20.5621 81.893 21.955 82.591 23.642C83.2891 25.3289 83.3808 27.2057 82.8504 28.9527C82.3201 30.6997 81.2006 32.2088 79.6825 33.2231C78.1644 34.2373 76.3417 34.6939 74.5248 34.5152C72.7079 34.3364 71.0091 33.5333 69.7178 32.2427C68.982 31.5119 68.3995 30.6417 68.0042 29.6831C67.6084 28.7216 67.4047 27.6919 67.4044 26.6522Z" fill="white"/>
</svg>
