<svg width="226" height="229" viewBox="0 0 226 229" fill="none" xmlns="http://www.w3.org/2000/svg">
<path d="M143.366 31.0808L173.683 19.1479C173.926 19.0793 174.181 19.0634 174.43 19.1011C174.68 19.1389 174.918 19.2296 175.13 19.367C175.342 19.5045 175.522 19.6855 175.658 19.8981C175.794 20.1107 175.884 20.3499 175.92 20.5998L176.686 53.0849C167.366 43.439 156.218 35.7774 143.366 31.0808Z" fill="white"/>
<path d="M90.5429 201.597L62.5781 217.399C62.348 217.503 62.0983 217.557 61.8458 217.557C61.5932 217.556 61.3437 217.502 61.1137 217.398C60.8838 217.293 60.6788 217.141 60.5125 216.951C60.3462 216.761 60.2224 216.537 60.1494 216.296L54.6062 183.811C64.8498 192.533 77.0815 198.199 90.5314 201.597H90.5429Z" fill="white"/>
<path d="M39.4938 63.3169L36.2951 30.8663C36.2949 30.6129 36.3491 30.3624 36.4539 30.1316C36.5587 29.9009 36.7117 29.6953 36.9026 29.5287C37.0935 29.3621 37.3179 29.2383 37.5607 29.1657C37.8035 29.0932 38.0591 29.0734 38.3101 29.1079L69.6767 37.03C57.7284 43.5845 47.3393 52.2536 39.5053 63.3169H39.4938Z" fill="white"/>
<path d="M188.718 162.826L193.488 195.311C193.498 195.562 193.455 195.812 193.362 196.046C193.268 196.279 193.127 196.49 192.945 196.665C192.764 196.839 192.548 196.973 192.312 197.058C192.075 197.143 191.823 197.177 191.572 197.157L159.976 190.645C171.468 183.393 181.563 174.372 188.73 162.818L188.718 162.826Z" fill="white"/>
<path d="M84.6359 30.1269L100.924 1.34993C101.074 1.14673 101.265 0.977649 101.485 0.853891C101.705 0.730134 101.949 0.654523 102.2 0.632066C102.452 0.60961 102.705 0.640821 102.943 0.723633C103.182 0.806444 103.4 0.938965 103.583 1.11242L124.357 26.4608C120.412 25.9283 116.6 25.9053 112.509 25.9053C102.713 25.9053 93.4582 27.2116 84.6359 30.1192V30.1269Z" fill="white"/>
<path d="M147.488 198.073L133.398 227.669C133.266 227.884 133.089 228.069 132.88 228.211C132.671 228.352 132.434 228.448 132.185 228.491C131.936 228.534 131.681 228.524 131.436 228.461C131.192 228.398 130.963 228.283 130.766 228.125L108.107 204.635C109.609 204.708 110.992 204.581 112.509 204.581C124.928 204.581 136.754 202.666 147.499 198.069L147.488 198.073Z" fill="white"/>
<path d="M183.309 60.5125L215.488 64.6689C215.734 64.7266 215.965 64.8358 216.165 64.9894C216.365 65.1431 216.531 65.3375 216.65 65.5599C216.77 65.7824 216.841 66.0277 216.858 66.2796C216.876 66.5315 216.84 66.7842 216.752 67.0211L199.969 96.3037C197.201 83.2691 191.512 71.0327 183.328 60.5164L183.309 60.5125Z" fill="white"/>
<path d="M42.4894 171.311L10.1997 166.147C9.95575 166.082 9.72842 165.966 9.53277 165.807C9.33711 165.648 9.17763 165.449 9.06493 165.223C8.95223 164.997 8.88889 164.75 8.87912 164.498C8.86935 164.246 8.91338 163.994 9.00828 163.76L25.0976 135.19C28.0184 148.413 33.9679 160.778 42.4779 171.311H42.4894Z" fill="white"/>
<path d="M201.778 111.451L224.743 134.137C224.905 134.331 225.023 134.557 225.09 134.801C225.157 135.044 225.171 135.299 225.132 135.548C225.093 135.797 225.001 136.036 224.863 136.247C224.724 136.458 224.543 136.637 224.33 136.772L194.775 150.632C195.61 148.717 196.162 146.748 196.863 144.748C200.171 135.266 201.855 125.294 201.843 115.251C201.843 113.914 201.843 112.784 201.774 111.459" fill="white"/>
<path d="M22.8451 116.607L0.53453 92.814C0.381515 92.6132 0.273039 92.382 0.216324 92.136C0.15961 91.89 0.155958 91.6347 0.205613 91.3872C0.255267 91.1396 0.357088 90.9055 0.504296 90.7004C0.651504 90.4952 0.840721 90.3238 1.05935 90.1975L31.2882 77.4103C25.8637 88.941 23.1707 101.667 23.1707 115.243C23.1707 115.757 22.8336 116.086 22.8451 116.596V116.607Z" fill="white"/>
<path d="M118.527 154.635C121.4 154.635 121.427 151.655 121.427 149.541V146.426C121.427 144.315 121.373 141.335 118.527 141.335C117.652 141.36 116.808 141.664 116.117 142.201C115.604 142.553 115.332 142.852 115.332 142.013V135.972C115.342 135.865 115.33 135.758 115.296 135.656C115.262 135.555 115.207 135.461 115.135 135.382C115.063 135.303 114.975 135.24 114.877 135.197C114.779 135.154 114.673 135.132 114.566 135.133H113.417C113.209 135.143 113.013 135.233 112.87 135.384C112.727 135.536 112.648 135.737 112.651 135.945V153.712C112.668 153.913 112.757 154.1 112.901 154.241C113.045 154.381 113.235 154.465 113.436 154.478H114.585C114.783 154.462 114.968 154.376 115.108 154.236C115.249 154.095 115.335 153.91 115.351 153.712C115.351 153.498 115.459 153.444 115.623 153.444C115.788 153.444 115.891 153.659 116.137 153.827C116.825 154.349 117.664 154.632 118.527 154.635ZM118.745 146.292V149.74C118.745 150.717 118.42 151.655 117.213 151.655C116.428 151.655 115.317 151.084 115.317 149.027V146.89C115.317 145.261 116.347 144.288 117.213 144.288C118.42 144.288 118.757 145.288 118.757 146.292H118.745ZM132.548 154.471C132.65 154.473 132.752 154.455 132.847 154.418C132.942 154.381 133.029 154.325 133.102 154.253C133.175 154.182 133.233 154.096 133.273 154.002C133.313 153.908 133.333 153.807 133.333 153.705V142.273C133.325 142.073 133.241 141.883 133.099 141.741C132.957 141.599 132.767 141.516 132.567 141.507H131.418C131.213 141.507 131.016 141.587 130.869 141.731C130.722 141.874 130.637 142.069 130.632 142.273V150.184C130.633 150.336 130.598 150.485 130.532 150.621C130.465 150.757 130.369 150.876 130.249 150.969C129.774 151.495 129.114 151.817 128.407 151.866C127.64 151.866 127.38 151.483 127.38 150.333V142.273C127.38 142.171 127.36 142.07 127.32 141.976C127.28 141.882 127.222 141.796 127.149 141.725C127.076 141.653 126.989 141.597 126.894 141.56C126.799 141.523 126.697 141.505 126.595 141.507H125.484C125.274 141.501 125.07 141.578 124.917 141.722C124.765 141.865 124.675 142.064 124.668 142.273V151.647C124.668 153.678 125.434 154.655 127.054 154.655C128.165 154.655 129.138 154.272 130.222 153.191C130.494 152.919 130.628 152.866 130.628 153.191V153.705C130.628 153.807 130.649 153.908 130.689 154.002C130.728 154.096 130.786 154.182 130.86 154.253C130.933 154.325 131.02 154.381 131.115 154.418C131.21 154.455 131.312 154.473 131.414 154.471H132.548ZM141.052 154.743C143.734 154.743 145.496 153.21 145.496 150.912C145.51 150.448 145.426 149.985 145.248 149.556C145.071 149.127 144.804 148.74 144.465 148.422C143.898 147.878 143.193 147.499 141.542 146.687C139.508 145.683 139.347 145.304 139.347 144.603C139.347 143.902 139.995 143.545 140.838 143.545C141.202 143.533 141.562 143.623 141.878 143.805C142.193 143.987 142.451 144.254 142.623 144.576C142.715 144.789 142.887 144.957 143.102 145.043C143.318 145.129 143.558 145.126 143.772 145.035L144.695 144.683C144.809 144.649 144.913 144.588 144.999 144.506C145.084 144.423 145.148 144.321 145.186 144.208C145.223 144.095 145.233 143.975 145.215 143.858C145.196 143.74 145.149 143.629 145.078 143.534C144.155 141.963 142.803 141.235 140.826 141.235C138.386 141.235 136.612 142.768 136.612 144.836C136.608 145.302 136.699 145.763 136.88 146.192C137.062 146.621 137.329 147.009 137.666 147.33C138.547 148.116 139.543 148.762 140.619 149.246C142.151 150.012 142.623 150.491 142.623 151.222C142.623 151.954 141.975 152.333 141.09 152.333C140.651 152.377 140.21 152.276 139.834 152.046C139.458 151.815 139.167 151.468 139.006 151.057C138.761 150.544 138.462 150.33 137.895 150.517L136.972 150.816C136.405 151.004 136.244 151.329 136.486 151.873C137.382 153.85 138.872 154.743 141.064 154.743H141.052ZM77.7673 153.793L78.6982 153.705L79.8819 153.616H83.8583L85.7162 153.777L86.4824 153.222L87.4132 153.145L88.5089 152.869L89.3555 152.513L90.0259 152.234L92.0715 151.521L94.0673 150.72H94.4083V150.452L94.5768 150.008L95.772 149.131L96.8715 147.794L97.6376 147.081L98.9325 145.836L100.277 144.331L102.219 142.373L102.602 140.14L103.016 139.071L103.185 138.09L104.058 136.658L104.116 134.968L104.453 133.455L104.426 132.118L104.931 130.605L105.104 128.916L105.188 127.935L104.924 127.402L104.847 126.866L105.046 126.51L105.131 125.533L105.203 124.464L104.951 123.395L104.859 122.683L105.027 121.17L104.943 118.055L105.027 115.83V114.761L105.112 112.979L104.859 111.378L104.774 110.133L105.138 108.888L104.886 107.551L104.97 105.149L105.054 102.851L105.138 101.318L105.054 99.7172L105.138 97.8478V95.8902L105.307 94.5571L105.56 92.5076V90.1057L105.391 89.125L105.223 87.9758L102.943 86.0872L102.177 86.1792L98.6988 86.3554L97.6874 86.8917L96.8408 87.3437L96.7566 87.88L96.588 88.5926L96.7566 89.6613L96.5037 90.8106L96.6991 91.8679V93.1129L96.1934 92.5804L95.094 91.0481L93.9946 89.8989L93.1518 89.1863L92.6691 88.7419L92.332 88.2976L91.9106 88.2056L91.5735 87.7613L90.3898 87.0487L88.6123 86.2481L87.5129 85.7156L86.1606 85.5356L83.5403 85.2712H81.035L80.2688 85.3594L78.3228 85.4475L75.8519 85.911L74.5839 86.091L73.7373 86.3592L71.9637 87.1598L70.1057 87.8762L68.4163 88.7649L66.0489 90.2781L64.191 92.1475L62.6395 94.2047L61.8733 95.2735L61.5362 95.9822L61.3638 96.6066L61.1953 97.1391L60.6896 97.7635L60.6322 99.2958L60.1457 100.617V101.598L59.9733 102.042V102.755L59.7204 103.468L59.889 103.824L59.6362 104.268L59.2148 104.801L59.299 105.425L59.2148 106.574L59.1305 108.087L59.4676 109.064L59.5519 110.489L59.6362 112.539L59.9733 113.516L60.1457 114.228L60.7356 115.209L60.9041 115.741L60.8199 116.366L61.0727 116.986L61.4098 118.411L62.0036 119.925L62.5935 120.193L63.3597 121.262L64.712 123.043L66.2443 124.82L68.1903 126.353L69.3396 127.333L71.4503 128.402L73.6492 129.291L74.5801 129.379L77.028 129.735L78.3802 129.915H81.7398L85.0382 130.015L88.4437 129.134L89.2099 128.421L90.5622 127.621L92.1673 126.019L93.3165 124.682L94.2474 123.97L95.0135 122.821L96.0287 121.396L96.2815 120.595L96.339 120.063L96.5918 120.239L96.6761 120.863L96.3965 122.457L96.3122 123.97L95.9751 124.502L96.0594 125.027L95.9827 125.74L96.0479 126.353L95.6188 127.157V128.935L95.2817 130.804V132.405L95.1974 133.386L94.776 134.367L94.3163 135.761L93.8107 136.654L93.5004 137.523L93.0177 138.289L92.6346 139.366L90.4281 141.128L89.5853 141.431L89.2444 141.699L87.283 142.312L85.4519 143.017L83.5135 143.982L81.6517 144.158L79.0315 143.794L77.0203 143.446L74.7218 143.013L74.1012 142.273L73.3696 141.929L72.9137 141.507L72.3774 139.542L71.7874 139.312L71.458 135.83L70.5271 135.493L65.9991 135.278L64.3136 135.367L63.7198 135.466L63.2984 135.642L62.8732 135.73L62.4901 138.324L62.6855 138.849L62.7736 141.565L63.3061 142.99L63.896 144.691L64.3212 145.748L65.164 146.48L66.0106 147.993L68.4048 149.958L70.236 151.107L71.4082 151.85L72.6762 152.295L74.1127 152.743L74.7065 153.187L76.6487 153.632L77.7673 153.793ZM79.4146 120.821L78.7135 120.549L78.204 120.687L77.3114 120.549L76.3576 120.687L75.8481 120.484L75.5914 120.415L75.0168 119.871L74.2506 119.396L73.6147 119.193L72.2127 118.105L71.0021 117.086L70.7493 116.611L70.3011 116.071L70.1096 115.527L69.7916 115.052L69.3396 114.021L68.9565 113.071L68.5121 111.508V108.727L68.5734 105.942V104.349L68.7036 103.671L68.8301 103.127L68.9565 102.314L69.466 101.165L69.7839 100.621L69.8491 100.077L70.167 99.5333L70.4237 99.0583L70.8068 98.7212L71.1247 98.3113L71.3814 98.1772L71.7645 97.7673L72.2088 97.4302L72.7834 96.8173L73.7373 96.0511L74.3732 95.917L75.013 95.442L75.7791 94.8291L76.2886 94.6261L77.1161 94.3541L77.8822 94.22L78.7748 94.0859L79.4107 94.151L79.8551 94.423L80.4297 94.2889L81.4487 94.469L82.2762 94.8789L82.8469 95.013L83.1687 94.8789L83.6782 95.147L85.1339 95.3539L86.2832 95.894L86.8578 96.3039L87.5588 96.507L88.1947 96.913L88.3863 97.185L89.0222 97.526L90.1714 98.6101L91.1253 100.173L91.4471 101.257L91.765 102.073L91.8914 102.82L92.083 103.092V104.732L92.2745 105.345V106.701L92.2094 107.789V109.551L91.6999 111.792L90.9989 113.761L90.4281 114.91L90.045 115.385L89.8535 115.86L89.5355 116.132L89.0873 116.676L88.7694 117.017L88.2599 117.289L87.8155 117.561L87.306 118.17L86.9229 118.848L86.605 119.258L85.9767 119.392L85.2757 120.001L84.7662 120.139L84.4482 120.208L83.0461 120.614L81.0733 120.817L79.4146 120.821ZM154.923 131.861L156.05 131.455L160.953 131.861L162.635 131.402L164.087 131.164L164.431 128.743L164.558 126.655L164.431 125.77V124.453L164.117 123.135V121.603L164.221 120.691V119.365L164.117 117.833V117.021L164.221 116.109L164.01 114.991L163.979 113.876L164.087 112.252V110.627L163.907 109.712L164.087 107.379L163.979 104.333L164.19 102.801L164.087 101.786L163.769 100.771L163.876 99.9585L163.558 98.6407L163.244 96.913L163.137 94.8827L162.822 92.9673L161.769 90.4926L159.746 87.7191L157.609 86.635L153.801 85.344L149.108 84.6353L146.266 84.8384L141.742 86.0566L139.217 88.1712L138.068 86.6657L136.49 85.7501L133.862 85.0414L131.835 84.4285L130.786 84.2254L130.249 84.0454L126.801 84.5319L125.15 84.9801L124.174 85.344L121.542 86.2213L120.492 87.4395L119.753 88.945L119.439 87.8455L119.331 86.8304L119.125 85.9148L118.707 85.6007L118.071 85.8152L115.773 86.1025L113.704 86.5086L112.965 86.3056L111.655 87.11L111.13 89.2783L110.812 92.1207V94.695L111.233 97.1314L111.022 98.7557L111.233 100.989V103.525L111.444 105.057L111.34 106.682L111.13 108.597L111.34 109.915L111.13 111.236V114.178L110.919 115.711L111.022 116.925L110.919 118.955L111.13 120.277L110.812 120.986L111.022 122.713L111.13 124.135L110.812 125.859V130.122L111.233 130.222L111.758 130.528L112.601 131.34L114.784 131.543L115.627 131.746L120.542 131.543L121.592 130.425V130.222L121.699 129.716L121.488 128.395L121.592 126.671L121.277 125.556V124.843L120.963 123.422L121.067 120.58L121.277 117.534L121.385 116.117L121.277 115.102V113.071L121.174 111.853V110.635L121.385 109.417V108.605L121.277 106.881L121.802 105.348L121.91 104.13V102.95L122.013 101.364L122.856 99.449L123.208 97.7788L124.216 96.4878L126.598 95.0972L127.798 94.6912L128.395 94.5877L129.073 94.9708L129.387 95.1739L129.904 95.783L131.165 96.7981L132.111 98.25L132.64 99.5333V101.181L132.954 102.904L132.743 104.529L132.532 105.846V106.456L132.429 107.674L132.532 108.792L132.85 110.214L132.64 111.834L132.322 114.171L132.218 117.618V120.561L132.008 122.185L132.218 122.893L132.322 123.403L132.008 124.315L132.111 126.448L131.782 128.483L131.885 129.498L132.157 130.241L132.835 131.225L135.517 131.835L138.562 131.563L141.244 131.459L142.194 130.647L142.611 130.141L142.718 129.023L143.14 126.992L143.274 124.652L143.17 123.334L143.274 121.419V119.591L142.853 118.373L143.063 116.649L142.96 114.213L143.063 112.489L143.17 110.256L143.347 109.647L143.592 108.325L143.485 106.908L143.695 105.18L143.906 102.947L143.979 101.977L144.22 101.755L144.117 101.349L144.285 100.64L144.178 99.3188L144.707 97.7865L145.756 96.0588L147.059 95.0436L149.288 94.8406L150.97 95.6527L151.453 96.3652L152.023 97.1927L152.652 98.725L153.314 100.449L153.843 102.364L153.736 102.671L153.632 103.889L153.525 104.563L153.977 105.984L154.084 106.593L153.977 107.406L153.874 108.938V110.056L153.904 111.171L153.801 112.493L153.59 113.914L153.556 114.726L153.59 115.741L153.621 117.159L153.556 118.174L153.663 119.293L153.556 120.105V121.016L153.663 123.15V125.889L153.766 127.107L153.349 129.95V130.762L154.188 131.674L154.923 131.861ZM194.764 115.305C194.764 160.868 157.827 197.805 112.264 197.805C66.7001 197.805 29.7751 160.857 29.7751 115.293C29.7751 69.7297 66.7116 32.7932 112.275 32.7932C157.839 32.7932 194.775 69.7297 194.775 115.293L194.764 115.305Z" fill="white"/>
</svg>
