<svg width="214" height="78" viewBox="0 0 214 78" fill="none" xmlns="http://www.w3.org/2000/svg">
<path d="M48.0223 0.597656C50.4748 1.16548 52.9614 1.60425 55.3668 2.32263C61.3288 4.09922 66.5633 7.11039 70.6036 11.9455C74.0747 16.0923 75.6626 20.9231 75.517 26.3217C75.5042 26.8293 75.2988 27.3326 75.1147 28.1327C74.8023 27.6767 74.6396 27.5477 74.6396 27.4229C74.6097 22.205 68.8788 21.164 65.5061 22.9061C64.3163 23.5213 63.5202 23.3879 62.3774 22.7986C57.8663 20.4757 53.3723 20.8241 49.0923 23.4568C48.0951 24.0719 47.5087 24.0934 46.5671 23.3492C43.8536 21.2027 40.5708 21.1382 38.2981 23.0008C35.8114 25.0398 35.255 27.9348 36.8301 31.2772C37.2666 32.2064 37.1982 32.7957 36.5005 33.5528C27.6923 43.1412 22.3337 54.4245 20.121 67.2435C20.0396 67.7253 19.907 68.2028 19.7957 68.6975C16.2861 67.5059 15.0149 65.4927 13.6111 58.9155C12.3699 59.9307 11.1972 60.8168 10.11 61.7976C9.07 62.7354 8.11556 63.7721 6.87436 64.6195C6.52768 59.9565 7.64476 55.7753 10.491 51.8521C6.98992 51.1811 4.4904 53.3577 1.66987 54.3901C1.39595 51.7876 4.07951 47.658 8.56068 43.223C7.22532 43.1541 5.86428 42.8917 4.55888 43.0638C3.19355 43.2402 1.88387 43.8295 0.171875 44.3586C2.26479 39.8332 5.6888 37.2866 9.91744 35.2003C7.05412 33.7378 4.39195 34.5035 1.24187 34.7573C4.30207 30.3265 8.58636 28.6274 13.3286 26.7002C12.0018 26.227 11.1073 25.8227 10.1742 25.5947C9.22836 25.3667 8.24396 25.2204 7.27668 25.2118C6.27516 25.2032 5.27364 25.4011 4.20791 25.3108C8.15408 20.5187 13.8294 19.6111 19.4404 18.5658C19.479 18.3851 19.5132 18.2044 19.5517 18.0237C17.8526 17.5334 16.1791 16.8494 14.4414 16.6042C12.7123 16.359 10.9232 16.5483 9.284 16.5483C11.2357 13.7264 17.4973 10.4657 28.0347 12.2724C28.1203 12.1348 28.2016 11.9971 28.2872 11.8637C26.8448 11.0765 25.4624 10.156 23.9473 9.54514C22.3894 8.9171 20.7116 8.59017 19.1194 7.86319C26.0916 4.19816 32.7427 5.90162 39.5222 9.26983C38.739 6.94263 37.1725 5.64782 35.2978 4.77028C33.4532 3.90564 31.4972 3.29051 29.584 2.55922C33.5687 -0.692846 42.7921 1.50531 49.8798 7.3857C50.265 5.41123 49.3363 3.65185 47.269 2.16777C46.794 1.81933 45.5656 1.75911 46.2975 0.597656C46.871 0.597656 47.4445 0.597656 48.0223 0.597656Z" fill="white"/>
<path d="M131.405 65.0927C128.606 68.5684 124.84 69.0717 120.949 68.9083C115.505 68.676 111.739 66.0218 109.864 60.6577C109.864 62.5074 109.885 64.3571 109.86 66.2068C109.83 68.0565 109.076 68.8524 107.433 68.8481C105.794 68.8394 104.998 68.0436 104.985 66.2025C104.95 62.1718 104.972 58.1412 104.972 53.947H86.371C86.371 58.0637 86.3624 62.1417 86.3752 66.2197C86.3795 67.6737 85.9002 68.6975 84.2866 68.8351C82.489 68.99 81.5859 68.2028 81.526 66.3789C81.4875 65.226 81.5174 64.0732 81.5174 62.9203C81.5174 54.5579 81.5174 46.1997 81.5174 37.8373C81.5174 36.6973 81.5902 35.6219 82.8357 35.0971C84.7018 34.3056 86.3453 35.3595 86.371 37.4372C86.4095 40.7796 86.3838 44.1263 86.3838 47.4687C86.3838 48.0968 86.3838 48.7205 86.3838 49.4733H104.98C104.98 47.2106 104.98 44.9867 104.98 42.767C104.98 41.0936 104.963 39.4203 104.985 37.7512C105.01 35.7811 105.764 34.9164 107.416 34.8906C109.085 34.8648 109.86 35.7122 109.868 37.6867C109.885 42.9907 109.872 48.2946 110.001 53.7018C111.499 49.1163 114.311 45.9846 119.19 45.2189C124.005 44.4618 127.784 46.0406 130.357 50.6046C132.124 47.5505 134.525 45.5244 138.031 45.1243C141.472 44.7329 144.378 45.7308 146.817 48.656C146.894 48.0236 146.989 47.6193 146.989 47.2149C146.993 43.9844 146.989 40.7581 146.976 37.5275C146.967 35.7983 147.673 34.9508 149.201 34.882C150.858 34.8089 151.765 35.6305 151.782 37.3727C151.821 41.2356 151.795 45.0985 151.795 48.9614C151.795 49.5636 151.795 50.1702 151.971 50.8455C153.76 47.6279 156.276 45.576 159.901 45.0942C163.449 44.6253 166.45 45.6835 168.932 48.7076C169.005 48.1398 169.043 47.8774 169.073 47.615C169.245 45.9459 170.118 44.9996 171.47 45.0168C172.891 45.034 173.76 46.075 173.79 47.8559C173.811 49.1808 173.794 50.5057 173.935 51.964C175.536 48.7377 177.817 46.3331 181.361 45.4383C184.888 44.5436 188.205 44.9479 190.683 46.8708C191.984 46.1954 192.943 45.3781 193.996 45.2232C195.554 44.9953 196.033 46.432 196.512 47.6193C198.353 52.1532 200.18 56.6915 202.017 61.2298C202.179 61.6341 202.385 62.0213 202.723 62.7483C204.285 58.9585 205.723 55.4741 207.157 51.9898C207.859 50.2863 208.526 48.5699 209.267 46.8837C209.952 45.3265 211.505 44.6167 212.759 45.348C214.155 46.161 213.975 47.4515 213.431 48.6904C209.554 57.6164 205.685 66.5423 201.708 75.4253C201.345 76.234 200.352 77.0513 199.491 77.2836C197.754 77.7525 196.615 76.1738 197.309 74.3198C197.993 72.4916 198.901 70.7408 199.641 68.9341C199.842 68.4394 200.026 67.7597 199.847 67.3167C198.31 63.6 196.688 59.9135 194.903 56.042C194.771 57.9992 193.559 58.1111 192.155 58.0982C188.072 58.0551 183.985 58.0853 179.902 58.0853C179.29 58.0853 178.678 58.0853 178.061 58.0853C178.186 62.5719 180.552 65.0239 184.815 65.2217C187.165 65.3336 189.335 64.7486 191.436 63.6258C192.091 63.2774 193.221 63.415 193.936 63.7506C194.274 63.9097 194.236 65.0712 194.184 65.7681C194.163 66.0821 193.739 66.4176 193.427 66.6542C189.147 69.9149 180.976 69.7299 176.944 66.1552C175.772 65.1142 174.946 63.686 173.79 62.2149C173.79 63.3935 173.837 64.4431 173.777 65.4884C173.687 67.093 173.683 68.7276 173.366 70.2934C172.63 73.924 170.332 76.2125 166.741 76.9954C162.465 77.9289 158.271 77.5288 154.299 75.5802C152.668 74.7801 152.21 73.752 152.869 72.6034C153.691 71.1623 154.718 71.7388 155.968 72.1087C158.356 72.8185 160.843 73.4982 163.308 73.5842C166.784 73.7046 168.62 71.8635 169.043 68.4265C169.206 67.093 169.069 65.7207 169.069 64.2883C164.109 70.2117 155.193 68.7018 151.782 62.103C151.782 63.1913 151.782 64.2797 151.782 65.368C151.774 68.0436 151.2 68.861 149.325 68.861C147.592 68.861 147.07 68.1082 146.963 65.1529C144.827 67.8199 142.191 69.1019 138.981 68.9943C135.818 68.8911 133.25 67.5317 131.401 65.1013L131.405 65.0927ZM133.87 56.9668C134.17 58.438 134.316 59.8274 134.752 61.1179C135.629 63.7248 138.013 65.3121 140.693 65.2648C143.351 65.2174 145.61 63.5097 146.454 60.877C147.284 58.2788 147.275 55.672 146.428 53.0738C145.585 50.5014 143.449 48.8926 140.778 48.7979C138.155 48.7033 135.741 50.1831 134.842 52.678C134.345 54.0632 134.179 55.5688 133.875 56.9625L133.87 56.9668ZM155.634 56.528C156.233 58.2229 156.567 60.0855 157.487 61.5782C159.627 65.0454 165.119 65.0884 167.55 61.8277C169.865 58.7219 169.655 52.9663 167.066 50.6218C165.012 48.7635 162.606 48.2559 160.034 49.3658C156.995 50.6778 156.024 53.2631 155.638 56.528H155.634ZM114.726 58.2487C114.315 61.2513 116.643 64.1076 118.89 64.7701C121.681 65.596 124.335 65.3078 126.958 64.1764C127.99 63.7291 129.038 63.3247 130.138 62.8773C129.796 61.432 129.415 59.836 129.043 58.2487H114.726ZM127.164 55.0569C127.142 52.4673 126.363 50.4369 124.249 49.2109C122.088 47.9591 119.815 48.0968 117.722 49.4217C115.723 50.6864 114.782 52.6178 114.512 55.0612H127.168L127.164 55.0569ZM190.508 54.9923C190.773 51.5123 188.522 48.7334 185.273 48.428C181.46 48.071 178.447 50.7638 178.07 54.9923H190.508Z" fill="white"/>
<path d="M71.665 34.3658C69.4308 34.1378 67.3893 33.7635 65.3477 33.7549C62.433 33.742 59.9463 36.0176 59.7281 38.6115C59.5397 40.814 60.5284 42.5476 62.7027 42.7368C64.9967 42.9347 67.3465 42.5089 69.6662 42.2895C70.3296 42.2249 70.9673 41.9281 72.2214 41.5625C71.1642 43.58 70.5479 45.3135 69.4822 46.7073C64.787 52.8415 63.5929 59.6897 64.9454 67.1403C65.0267 67.5833 65.0181 68.0393 65.0695 68.762C63.2205 68.762 61.4615 68.8308 59.7152 68.7061C59.3557 68.6803 58.9363 68.0049 58.7308 67.5403C58.076 66.0734 57.618 64.5076 56.8733 63.0924C55.9745 61.3846 54.117 60.6963 52.6575 61.2943C51.3307 61.8363 50.7829 63.3505 51.2365 65.3206C51.4805 66.3659 51.7929 67.3941 52.161 68.7534C49.7214 68.7534 47.5044 68.7878 45.2959 68.7104C44.9877 68.7018 44.5597 68.1899 44.4228 67.8199C39.7447 55.1687 43.8022 40.5774 54.1298 33.8883C58.0332 31.3589 62.2832 30.2018 66.9399 31.0922C68.9429 31.4751 70.5008 32.5634 71.6693 34.3658H71.665Z" fill="white"/>
<path d="M38.576 68.6415H24.7559C25.2823 65.5615 26.0484 62.7826 28.7234 61.0361C31.0346 59.5262 33.7182 59.8144 35.3788 61.9911C36.8383 63.901 37.8783 66.1336 39.1024 68.2199C38.9269 68.3619 38.7515 68.4995 38.576 68.6415Z" fill="white"/>
<path d="M38.2036 27.5735C38.9954 26.6142 39.616 25.2764 40.6347 24.8032C41.6019 24.3516 43.053 24.5795 44.1743 24.9065C45.2187 25.2162 45.3085 26.0722 44.3284 26.8422C43.1985 27.7284 42.1027 28.6618 41.0199 29.5996C39.6888 30.7524 39.0382 30.5288 38.683 28.7522C38.6273 28.4726 38.6059 28.1843 38.5717 27.8961C38.4519 27.7886 38.332 27.6811 38.2079 27.5735H38.2036Z" fill="white"/>
<path d="M57.5539 28.6317C57.6009 30.0169 56.5181 31.1998 55.1357 31.2729C53.7233 31.3504 52.5762 30.318 52.4906 28.8941C52.4007 27.3799 53.4707 26.2013 54.9645 26.1798C56.3683 26.1583 57.5025 27.2337 57.5496 28.6317H57.5539Z" fill="white"/>
<path d="M69.645 30.4426C68.3867 30.4254 67.3467 29.3714 67.3895 28.1455C67.428 26.941 68.575 25.8312 69.7649 25.9516C71.0574 26.085 71.8492 26.8206 71.892 28.1799C71.9305 29.4833 70.9419 30.4598 69.645 30.4426Z" fill="white"/>
<path d="M75.4912 35.252C76.7624 35.4111 77.5756 36.1037 77.6655 37.4415C77.7425 38.5987 76.6768 39.6999 75.5212 39.6483C74.1944 39.588 73.347 38.8223 73.3298 37.4931C73.3127 36.1639 74.143 35.4283 75.4912 35.252Z" fill="white"/>
</svg>
