<svg width="1664" height="280" viewBox="0 0 1664 280" fill="none" xmlns="http://www.w3.org/2000/svg">
<path d="M500.864 238L425.51 150.92V238H393.576V43.4H425.51V132.16L501.144 43.4H541.202L456.604 140.84L542.602 238H500.864Z" fill="#FAFAFA"/>
<path d="M585.969 30.8V238H554.035V30.8H585.969Z" fill="#FAFAFA"/>
<path d="M627.336 63.28C621.547 63.28 616.691 61.32 612.769 57.4C608.848 53.48 606.887 48.6267 606.887 42.84C606.887 37.0533 608.848 32.2 612.769 28.28C616.691 24.36 621.547 22.4 627.336 22.4C632.938 22.4 637.7 24.36 641.622 28.28C645.544 32.2 647.505 37.0533 647.505 42.84C647.505 48.6267 645.544 53.48 641.622 57.4C637.7 61.32 632.938 63.28 627.336 63.28ZM643.023 83.72V238H611.089V83.72H643.023Z" fill="#FAFAFA"/>
<path d="M854.986 81.2C867.124 81.2 877.956 83.72 887.48 88.76C897.191 93.8 904.754 101.267 910.17 111.16C915.773 121.053 918.574 133 918.574 147V238H886.92V151.76C886.92 137.947 883.465 127.4 876.555 120.12C869.645 112.653 860.215 108.92 848.263 108.92C836.311 108.92 826.786 112.653 819.69 120.12C812.78 127.4 809.325 137.947 809.325 151.76V238H777.671V151.76C777.671 137.947 774.216 127.4 767.306 120.12C760.397 112.653 750.966 108.92 739.014 108.92C727.062 108.92 717.538 112.653 710.441 120.12C703.531 127.4 700.076 137.947 700.076 151.76V238H668.142V83.72H700.076V101.36C705.305 95.0133 711.935 90.0667 719.965 86.52C727.996 82.9733 736.586 81.2 745.737 81.2C758.062 81.2 769.081 83.8133 778.792 89.04C788.503 94.2667 795.973 101.827 801.202 111.72C805.87 102.387 813.154 95.0133 823.051 89.6C832.949 84 843.594 81.2 854.986 81.2Z" fill="#FAFAFA"/>
<path d="M931.757 160.16C931.757 144.667 934.932 130.947 941.282 119C947.818 107.053 956.595 97.8133 967.613 91.28C978.818 84.56 991.144 81.2 1004.59 81.2C1016.73 81.2 1027.28 83.6267 1036.24 88.48C1045.39 93.1467 1052.68 99.0267 1058.09 106.12V83.72H1090.31V238H1058.09V215.04C1052.68 222.32 1045.3 228.387 1035.96 233.24C1026.63 238.093 1015.98 240.52 1004.03 240.52C990.77 240.52 978.632 237.16 967.613 230.44C956.595 223.533 947.818 214.013 941.282 201.88C934.932 189.56 931.757 175.653 931.757 160.16ZM1058.09 160.72C1058.09 150.08 1055.85 140.84 1051.37 133C1047.08 125.16 1041.38 119.187 1034.28 115.08C1027.19 110.973 1019.53 108.92 1011.31 108.92C1003.1 108.92 995.439 110.973 988.343 115.08C981.246 119 975.457 124.88 970.975 132.72C966.68 140.373 964.532 149.52 964.532 160.16C964.532 170.8 966.68 180.133 970.975 188.16C975.457 196.187 981.246 202.347 988.343 206.64C995.626 210.747 1003.28 212.8 1011.31 212.8C1019.53 212.8 1027.19 210.747 1034.28 206.64C1041.38 202.533 1047.08 196.56 1051.37 188.72C1055.85 180.693 1058.09 171.36 1058.09 160.72Z" fill="#FAFAFA"/>
<path d="M1179.03 43.4C1199.76 43.4 1217.88 47.4133 1233.38 55.44C1249.06 63.28 1261.11 74.6667 1269.51 89.6C1278.1 104.347 1282.4 121.613 1282.4 141.4C1282.4 161.187 1278.1 178.36 1269.51 192.92C1261.11 207.48 1249.06 218.68 1233.38 226.52C1217.88 234.173 1199.76 238 1179.03 238H1115.44V43.4H1179.03ZM1179.03 211.96C1201.82 211.96 1219.28 205.8 1231.42 193.48C1243.56 181.16 1249.62 163.8 1249.62 141.4C1249.62 118.813 1243.56 101.173 1231.42 88.48C1219.28 75.7867 1201.82 69.44 1179.03 69.44H1147.38V211.96H1179.03Z" fill="#FAFAFA"/>
<path d="M1414.61 198.24H1333.1L1319.09 238H1285.76L1355.51 43.12H1392.48L1462.24 238H1428.62L1414.61 198.24ZM1405.65 172.2L1374 81.76L1342.06 172.2H1405.65Z" fill="#FAFAFA"/>
<path d="M1564.56 239.96C1546.44 239.96 1529.73 235.76 1514.41 227.36C1499.29 218.773 1487.24 206.92 1478.28 191.8C1469.5 176.493 1465.11 159.32 1465.11 140.28C1465.11 121.24 1469.5 104.16 1478.28 89.04C1487.24 73.92 1499.29 62.16 1514.41 53.76C1529.73 45.1733 1546.44 40.88 1564.56 40.88C1582.86 40.88 1599.57 45.1733 1614.7 53.76C1630.01 62.16 1642.06 73.92 1650.83 89.04C1659.61 104.16 1664 121.24 1664 140.28C1664 159.32 1659.61 176.493 1650.83 191.8C1642.06 206.92 1630.01 218.773 1614.7 227.36C1599.57 235.76 1582.86 239.96 1564.56 239.96ZM1564.56 212.24C1577.44 212.24 1588.93 209.347 1599.01 203.56C1609.1 197.587 1616.94 189.187 1622.54 178.36C1628.33 167.347 1631.23 154.653 1631.23 140.28C1631.23 125.907 1628.33 113.307 1622.54 102.48C1616.94 91.6533 1609.1 83.3467 1599.01 77.56C1588.93 71.7733 1577.44 68.88 1564.56 68.88C1551.67 68.88 1540.18 71.7733 1530.1 77.56C1520.02 83.3467 1512.08 91.6533 1506.29 102.48C1500.69 113.307 1497.89 125.907 1497.89 140.28C1497.89 154.653 1500.69 167.347 1506.29 178.36C1512.08 189.187 1520.02 197.587 1530.1 203.56C1540.18 209.347 1551.67 212.24 1564.56 212.24Z" fill="#FAFAFA"/>
<path d="M274.722 150.705V129.295H207.271L291.33 0H0L86.4712 129.295H18.7416V150.705H86.4712L0 280H83.6878V260.166H37.2049L104.099 158.954L146.686 223.648L188.808 159.232L255.517 260.073H209.312V279.907H291.237L207.271 150.705H274.722ZM37.2977 19.8345H255.517L188.808 120.768L146.686 56.3522L104.099 121.046L37.2977 19.8345ZM146.686 91.5723L171.551 129.202H121.635L146.686 91.5723ZM146.686 188.335L121.635 150.705H171.551L146.686 188.335Z" fill="#FAFAFA"/>
</svg>
