<svg width="417" height="82" viewBox="0 0 417 82" fill="none" xmlns="http://www.w3.org/2000/svg">
<path d="M119.08 20.1431V55.9051H113.154V20.1431H95.3296V61.8537H101.256V26.0917H107.205V61.8537H125.006V26.0917H130.956V61.8537H136.881V20.1431H119.08Z" fill="white"/>
<path d="M190.309 32.063V38.035H208.134V43.9837H190.309V61.8763H214.06V32.063H190.309ZM208.11 55.9044H202.184H196.235V49.9322H202.184H208.11V55.9044Z" fill="white"/>
<path d="M178.433 38.012H184.382V32.0633H178.433V25.1582H172.484V61.8535H184.382V55.9046H178.433V38.012Z" fill="white"/>
<path d="M220.009 61.8535H226.12V43.8909H245.874V38.0822H226.12V25.9049H247.175V20.0962H220.009V61.8535Z" fill="white"/>
<path d="M262.606 31.4805C257.586 31.4805 253.798 33.58 251.358 37.7324L251.009 38.3156L255.355 42.3047L255.843 41.255C256.982 38.7355 259.631 37.1259 262.559 37.1259C266.464 37.1259 268.788 39.2721 268.788 42.8646V44.6142C266.092 43.891 263.745 43.5178 261.793 43.5178C254.844 43.5178 250.382 47.2969 250.382 53.1756C250.382 58.6811 254.705 62.5302 260.863 62.5302C264.07 62.5302 266.766 61.6905 268.904 60.0573V61.9004H274.807V43.2845C274.783 35.8895 270.228 31.4805 262.606 31.4805ZM261.095 57.0249C258.237 57.0249 256.378 55.5317 256.378 53.2455C256.378 49.653 259.91 49.1165 262.025 49.1165C264.07 49.1165 266.278 49.4897 268.788 50.2597V53.129C266.952 55.5084 263.977 57.0249 261.095 57.0249Z" fill="white"/>
<path d="M303.043 53.0589C301.067 55.5783 298.557 56.8616 295.583 56.8616C289.843 56.8616 286.148 52.989 286.148 47.0171C286.148 44.171 287.031 41.8148 288.774 39.9952C290.563 38.1057 292.725 37.1725 295.397 37.1725C298.186 37.1725 300.51 38.3156 302.532 40.6484L303.112 41.325L307.249 37.3592L306.738 36.7526C303.786 33.2534 299.975 31.4805 295.397 31.4805C291.121 31.4805 287.449 33.0201 284.451 36.0761C281.5 39.0855 280.013 42.7713 280.013 47.0171C280.013 51.3328 281.477 55.0185 284.335 58.0046C287.263 60.9674 290.912 62.4836 295.211 62.4836C300.068 62.4836 304.135 60.5706 307.319 56.8147L307.853 56.185L303.601 52.359L303.043 53.0589Z" fill="white"/>
<path d="M318.125 25.2515H312.106V52.7788C312.106 59.0541 315.011 61.97 321.239 61.97C322.308 61.97 323.33 61.9001 323.981 61.8533L324.771 61.7834V56.3012L321.657 56.3713C318.845 56.3713 318.125 55.5081 318.125 52.1255V37.802H324.794V32.2266H318.125V25.2515Z" fill="white"/>
<path d="M344.269 31.4805C339.946 31.4805 336.276 33.0201 333.37 36.0295C330.489 39.0155 329.048 42.7246 329.048 47.0171C329.048 51.3095 330.512 55.0185 333.37 58.0046C336.3 60.9674 339.946 62.4836 344.245 62.4836C348.593 62.4836 352.263 60.9674 355.191 58.0046C358.096 54.9719 359.584 51.2859 359.584 47.0171C359.584 42.7246 358.096 39.0388 355.146 36.0295C352.263 32.9968 348.593 31.4805 344.269 31.4805ZM344.269 56.8616C341.666 56.8616 339.46 55.9283 337.761 54.1087C336.044 52.2193 335.182 49.8396 335.182 47.0171C335.182 44.1943 336.044 41.8148 337.761 39.9952C339.46 38.129 341.645 37.1725 344.269 37.1725C346.966 37.1725 349.126 38.0823 350.847 39.9952C352.567 41.8148 353.426 44.1943 353.426 47.0171C353.426 49.8396 352.567 52.2193 350.847 54.1087C349.126 55.9283 346.918 56.8616 344.269 56.8616Z" fill="white"/>
<path d="M379.964 31.7603C376.246 31.7603 373.713 32.5767 371.459 34.6063V32.1568H365.556V61.8534H371.576V49.0697C371.576 40.5316 373.851 37.5223 380.266 37.5223C380.567 37.5223 380.893 37.5223 381.103 37.569L382.103 37.7556V31.9235L381.381 31.8302C380.917 31.7603 380.405 31.7603 379.964 31.7603Z" fill="white"/>
<path d="M409.594 32.1572L400.926 53.9923L392.095 32.1572H385.403L397.627 61.364L392.956 72.9348H399.51L416.217 32.1572H409.594Z" fill="white"/>
<path d="M142.808 32.063V61.853H166.558V55.9044H148.734V49.9322H166.558V32.063H142.808ZM160.609 43.9837H154.66H148.734V38.0117H154.66H160.609V43.9837Z" fill="white"/>
<rect x="1.79053" y="1.89062" width="78.0957" height="78.0957" stroke="white" stroke-width="3"/>
<path fill-rule="evenodd" clip-rule="evenodd" d="M20.1709 20.0962H61.5062V61.4315H20.1709V20.0962ZM25.9632 25.8884H55.7139V43.8376H25.9632V25.8884ZM55.7139 49.7115H25.9632V55.6391H55.7139V49.7115Z" fill="white"/>
<path fill-rule="evenodd" clip-rule="evenodd" d="M34.9018 31.5278C32.9721 31.5278 31.4077 33.0922 31.4077 35.0219C31.4077 36.9516 32.9721 38.516 34.9018 38.516C36.8315 38.516 38.3958 36.9516 38.3958 35.0219C38.3958 33.0922 36.8315 31.5278 34.9018 31.5278ZM46.7754 31.5278C44.8457 31.5278 43.2814 33.0922 43.2814 35.0219C43.2814 36.9516 44.8457 38.516 46.7754 38.516C48.7051 38.516 50.2695 36.9516 50.2695 35.0219C50.2695 33.0922 48.7051 31.5278 46.7754 31.5278Z" fill="white"/>
</svg>
