<svg width="296" height="132" viewBox="0 0 296 132" fill="none" xmlns="http://www.w3.org/2000/svg">
<path d="M243.722 91.9612C241.429 92.2474 239.382 92.1768 237.375 90.938C234.685 89.2718 232.408 86.6686 230.608 84.0968C228.162 80.6899 226.903 78.6082 225.543 76.7812C224.112 74.8484 221.842 72.0767 218.016 71.1397C218.016 71.1397 217.867 71.0966 217.549 71.0417C220.931 70.5871 224.015 68.8699 226.183 66.2349C228.35 63.5999 229.44 60.2423 229.234 56.8365C229.028 53.4308 227.541 50.2291 225.072 47.8746C222.603 45.52 219.334 44.1871 215.922 44.1434H207.568V70.3517H205.999V71.9199H207.568V93.5216H212.813V71.9238H213.487C215.397 71.9238 216.922 73.4018 218.012 74.821C219.498 76.7538 220.642 78.9296 221.964 80.9722C223.226 82.9324 224.473 84.9789 226.029 86.7039C227.557 88.4473 229.302 89.9887 231.22 91.2908C233.855 92.9704 236.863 93.9756 239.979 94.2176C243.095 94.4597 246.222 93.9311 249.085 92.6787C249.52 92.4826 249.948 92.2631 250.363 92.0279L249.085 89.9148C247.472 90.9865 245.639 91.6855 243.722 91.9612ZM213.668 45.6999C221.23 45.6999 223.747 51.2159 223.747 58.0218C223.747 64.765 222.226 70.238 213.907 70.3438H212.813V45.7077L213.668 45.6999Z" fill="white"/>
<path d="M295.782 91.9534H284.02V71.9199H285.589V70.3517H284.02V44.1356H278.532V70.3517H276.964V71.9199H278.532V93.5216H284.02V93.5137H295.782V91.9534Z" fill="white"/>
<path d="M231.745 45.7077H238.614V70.3517H237.045V71.9199H238.614V83.6851H244.102V71.9199H245.671V70.3517H244.102V45.7077H250.967V44.1356H231.745V45.7077Z" fill="white"/>
<path d="M198.3 71.9199V70.3517H196.731L192.36 44.1238H185.974L181.497 70.3517H179.928V71.9199H181.23L177.541 93.5216H179.458L183.147 71.9238H191.772L195.375 93.5216H200.581L196.978 71.9199H198.3ZM183.402 70.3517L187.507 46.3154L191.533 70.3556L183.402 70.3517Z" fill="white"/>
<path d="M119.059 71.9199V70.3517H117.491L113.124 44.1356H106.733L102.256 70.3517H100.688V71.9199H101.99L98.3006 93.5216H100.218L103.903 71.9238H112.528L116.131 93.5216H121.357L117.754 71.9199H119.059ZM104.162 70.3517L108.266 46.3154L112.273 70.3517H104.162Z" fill="white"/>
<path d="M61.0719 71.9238H70.7398V70.3556H61.0719V45.7077H71.6415V44.1395H61.0719V44.1356H55.5833V70.3517H54.0151V71.9199H55.5833V93.5216H72.9548V91.9534H61.0719V71.9238Z" fill="white"/>
<path d="M90.2441 44.1356H84.7554V44.1395H77.9221V45.7077H84.7554V70.3517H83.1872V71.9199H84.7554V93.5216H90.2441V71.9199H91.8122V70.3517H90.2441V45.7077H97.0813V44.1395H90.2441V44.1356Z" fill="white"/>
<path d="M46.7858 44.1356H40.0701L25.0665 85.7042L10.0629 44.1356H3.3942V70.3517H1.82602V71.9199H3.3942V93.5216H5.10353V45.9939L22.2516 93.4981L22.2438 93.5216H24.1765L41.2972 46.088V93.5216H46.7858V71.9199H48.354V70.3517H46.7858V44.1356Z" fill="white"/>
<path d="M152.211 45.7077C160.087 45.7077 166.971 50.275 170.707 57.077L172.907 55.8107C170.057 51.0213 165.713 47.3001 160.543 45.2185C155.373 43.1369 149.663 42.8101 144.289 44.2884C138.915 45.7666 134.176 48.968 130.798 53.401C127.42 57.834 125.59 63.2533 125.591 68.8266C125.591 69.3363 125.61 69.842 125.638 70.3478H124.234V71.9159H125.783C126.426 77.1852 128.702 82.1213 132.291 86.0328C135.88 89.9444 140.602 92.6355 145.796 93.7293C150.991 94.8231 156.398 94.2648 161.259 92.1325C166.12 90.0003 170.193 86.401 172.907 81.8386L170.711 80.5723C166.971 87.3782 160.087 91.9416 152.211 91.9416C140.347 91.9416 131.123 81.5877 131.123 68.8109C131.123 56.0342 140.347 45.7077 152.211 45.7077Z" fill="white"/>
<path d="M261.662 71.9238H271.326V70.3556H261.662V45.7077H272.232V44.1395H261.662V44.1356H256.173V70.3517H254.605V71.9199H256.173V93.5216H273.545V91.9534H261.662V71.9238Z" fill="white"/>
<path d="M100.139 131.381L97.0774 108.227C97.0669 108.204 97.0647 108.177 97.0711 108.152C97.0775 108.127 97.0922 108.105 97.1127 108.09C97.1288 108.071 97.1485 108.055 97.1707 108.044C97.1929 108.032 97.2172 108.025 97.2421 108.023H98.7044C98.7478 108.026 98.7886 108.045 98.819 108.076C98.8494 108.107 98.8672 108.148 98.8691 108.192L100.919 124.356C100.982 124.956 101.065 125.767 101.163 126.783C101.261 127.798 101.308 128.484 101.308 128.841H101.472C101.472 128.449 101.519 127.767 101.617 126.763C101.715 125.759 101.798 124.956 101.86 124.356L103.911 108.192C103.908 108.169 103.91 108.146 103.917 108.125C103.924 108.103 103.936 108.084 103.952 108.067C103.968 108.051 103.987 108.039 104.008 108.031C104.03 108.023 104.053 108.021 104.075 108.023H105.538C105.648 108.023 105.702 108.09 105.702 108.227L102.676 131.381C102.633 131.495 102.578 131.55 102.511 131.55H100.3C100.186 131.55 100.139 131.495 100.139 131.381Z" fill="white"/>
<path d="M113.837 109.764V118.601H117.319C117.341 118.597 117.364 118.599 117.385 118.607C117.407 118.614 117.426 118.626 117.442 118.642C117.458 118.658 117.47 118.677 117.478 118.699C117.485 118.72 117.487 118.743 117.483 118.765V120.173C117.487 120.195 117.485 120.218 117.478 120.24C117.47 120.261 117.458 120.281 117.442 120.297C117.426 120.313 117.407 120.325 117.385 120.332C117.364 120.339 117.341 120.341 117.319 120.337H113.837V129.809H117.97C117.992 129.806 118.016 129.808 118.037 129.815C118.059 129.822 118.079 129.835 118.095 129.851C118.111 129.868 118.123 129.888 118.13 129.91C118.137 129.932 118.138 129.955 118.134 129.978V131.381C118.138 131.404 118.137 131.427 118.13 131.449C118.123 131.471 118.111 131.491 118.095 131.508C118.079 131.524 118.059 131.537 118.037 131.544C118.016 131.551 117.992 131.553 117.97 131.55H112.21C112.101 131.55 112.05 131.495 112.05 131.381V108.192C112.05 108.082 112.101 108.023 112.21 108.023H117.97C117.992 108.021 118.015 108.023 118.036 108.031C118.058 108.039 118.077 108.051 118.093 108.067C118.109 108.084 118.121 108.103 118.128 108.125C118.135 108.146 118.137 108.169 118.134 108.192V109.595C118.138 109.618 118.137 109.641 118.13 109.663C118.123 109.685 118.111 109.705 118.095 109.722C118.079 109.738 118.059 109.751 118.037 109.758C118.016 109.765 117.992 109.767 117.97 109.764H113.837Z" fill="white"/>
<path d="M124.885 131.381V108.192C124.882 108.169 124.884 108.146 124.891 108.125C124.898 108.103 124.91 108.084 124.926 108.067C124.942 108.051 124.961 108.039 124.983 108.031C125.004 108.023 125.027 108.021 125.05 108.023H126.708C126.818 108.023 126.873 108.07 126.873 108.157L130.648 128.037H130.778C130.647 126.54 130.538 124.939 130.452 123.235C130.366 121.531 130.323 120.131 130.323 119.036V108.192C130.323 108.082 130.374 108.023 130.484 108.023H131.883C131.906 108.021 131.929 108.023 131.95 108.031C131.972 108.039 131.991 108.051 132.007 108.067C132.023 108.084 132.035 108.103 132.042 108.125C132.049 108.146 132.051 108.169 132.048 108.192V131.381C132.052 131.404 132.05 131.427 132.044 131.449C132.037 131.471 132.025 131.491 132.009 131.508C131.993 131.524 131.973 131.537 131.951 131.544C131.929 131.551 131.906 131.553 131.883 131.55H130.225C130.182 131.551 130.141 131.539 130.105 131.515C130.07 131.491 130.044 131.457 130.029 131.417L126.253 111.905H126.089C126.24 113.133 126.361 114.461 126.449 115.888C126.536 117.315 126.579 118.589 126.579 119.702V131.381C126.583 131.404 126.581 131.427 126.575 131.449C126.568 131.471 126.556 131.491 126.54 131.508C126.524 131.524 126.504 131.537 126.482 131.544C126.46 131.551 126.437 131.553 126.414 131.55H125.05C125.027 131.553 125.004 131.551 124.982 131.544C124.96 131.537 124.94 131.524 124.924 131.508C124.908 131.491 124.896 131.471 124.889 131.449C124.883 131.427 124.881 131.404 124.885 131.381Z" fill="white"/>
<path d="M145.797 108.192V109.595C145.797 109.709 145.73 109.764 145.601 109.764H142.857V131.381C142.857 131.495 142.806 131.55 142.696 131.55H141.23C141.124 131.55 141.069 131.495 141.069 131.381V109.764H138.325C138.191 109.764 138.129 109.709 138.129 109.595V108.192C138.129 108.082 138.191 108.023 138.325 108.023H145.581C145.73 108.023 145.797 108.082 145.797 108.192Z" fill="white"/>
<path d="M151.748 127.735V108.192C151.745 108.169 151.747 108.146 151.754 108.125C151.761 108.103 151.773 108.084 151.789 108.067C151.805 108.051 151.824 108.039 151.846 108.031C151.867 108.023 151.89 108.021 151.913 108.023H153.379C153.401 108.021 153.424 108.024 153.445 108.032C153.466 108.04 153.485 108.053 153.5 108.069C153.515 108.085 153.527 108.105 153.534 108.126C153.541 108.147 153.543 108.17 153.54 108.192V127.633C153.54 128.551 153.669 129.202 153.932 129.543C154.195 129.884 154.669 130.076 155.363 130.076C156.057 130.076 156.539 129.903 156.762 129.558C156.986 129.213 157.119 128.57 157.119 127.633V108.192C157.116 108.169 157.118 108.146 157.125 108.125C157.132 108.103 157.144 108.084 157.16 108.067C157.176 108.051 157.195 108.039 157.217 108.031C157.238 108.023 157.261 108.021 157.284 108.023H158.746C158.769 108.021 158.792 108.023 158.813 108.031C158.835 108.039 158.854 108.051 158.87 108.067C158.886 108.084 158.898 108.103 158.905 108.125C158.912 108.146 158.914 108.169 158.911 108.192V127.735C158.911 130.456 157.735 131.817 155.382 131.817C152.962 131.817 151.751 130.456 151.748 127.735Z" fill="white"/>
<path d="M173.734 131.472C173.722 131.491 173.705 131.507 173.685 131.518C173.665 131.53 173.643 131.537 173.62 131.538H172.025C171.915 131.538 171.848 131.495 171.829 131.405C171.676 131.068 171.601 130.323 171.601 129.162V122.815C171.601 121.877 171.488 121.242 171.26 120.91C171.033 120.573 170.582 120.408 169.908 120.408H168.183V131.385C168.183 131.499 168.128 131.554 168.022 131.554H166.556C166.45 131.554 166.395 131.499 166.395 131.385V108.192C166.392 108.17 166.394 108.147 166.401 108.126C166.408 108.105 166.419 108.085 166.435 108.069C166.45 108.053 166.469 108.04 166.49 108.032C166.511 108.024 166.533 108.021 166.556 108.023H169.747C170.939 108.023 171.844 108.347 172.464 108.996C173.083 109.642 173.389 110.67 173.389 112.073V116.056C173.389 117.865 172.847 118.969 171.762 119.369V119.538C172.018 119.576 172.261 119.671 172.476 119.816C172.69 119.96 172.869 120.15 173.001 120.373C173.26 120.82 173.393 121.549 173.393 122.615V128.304C173.393 129.754 173.513 130.758 173.754 131.315C173.762 131.341 173.765 131.368 173.761 131.395C173.758 131.422 173.749 131.448 173.734 131.472ZM171.601 112.163C171.601 111.246 171.464 110.619 171.209 110.27C170.954 109.921 170.457 109.752 169.763 109.752H168.194V118.656H169.79C170.056 118.684 170.326 118.645 170.573 118.543C170.82 118.44 171.038 118.276 171.205 118.068C171.512 117.512 171.649 116.878 171.597 116.245L171.601 112.163Z" fill="white"/>
<path d="M182.567 109.764V118.601H186.044C186.067 118.597 186.09 118.599 186.111 118.607C186.132 118.614 186.152 118.626 186.168 118.642C186.184 118.658 186.196 118.677 186.203 118.699C186.21 118.72 186.212 118.743 186.209 118.765V120.173C186.212 120.195 186.21 120.218 186.203 120.24C186.196 120.261 186.184 120.281 186.168 120.297C186.152 120.313 186.132 120.325 186.111 120.332C186.09 120.339 186.067 120.341 186.044 120.337H182.563V129.809H186.695C186.718 129.806 186.741 129.808 186.763 129.815C186.785 129.822 186.805 129.835 186.821 129.851C186.837 129.868 186.849 129.888 186.855 129.91C186.862 129.932 186.864 129.955 186.86 129.978V131.381C186.864 131.404 186.862 131.427 186.855 131.449C186.849 131.471 186.837 131.491 186.821 131.508C186.805 131.524 186.785 131.537 186.763 131.544C186.741 131.551 186.718 131.553 186.695 131.55H180.948C180.838 131.55 180.787 131.495 180.787 131.381V108.192C180.787 108.082 180.838 108.023 180.948 108.023H186.707C186.729 108.021 186.752 108.023 186.774 108.031C186.795 108.039 186.815 108.051 186.831 108.067C186.846 108.084 186.858 108.103 186.866 108.125C186.873 108.146 186.875 108.169 186.872 108.192V109.595C186.876 109.618 186.874 109.641 186.867 109.663C186.86 109.685 186.849 109.705 186.832 109.722C186.816 109.738 186.797 109.751 186.775 109.758C186.753 109.765 186.73 109.767 186.707 109.764H182.567Z" fill="white"/>
<path d="M193.842 130.797C193.27 130.115 192.98 129.096 192.98 127.735V123.317C192.976 123.295 192.978 123.272 192.986 123.25C192.993 123.228 193.005 123.209 193.021 123.192C193.036 123.176 193.056 123.164 193.077 123.156C193.099 123.148 193.122 123.146 193.144 123.148H194.607C194.629 123.146 194.652 123.148 194.674 123.156C194.695 123.164 194.714 123.176 194.73 123.192C194.746 123.209 194.758 123.228 194.765 123.25C194.772 123.272 194.774 123.295 194.771 123.317V127.63C194.771 128.567 194.889 129.198 195.128 129.554C195.367 129.911 195.822 130.072 196.496 130.072C197.171 130.072 197.7 129.896 197.959 129.539C198.217 129.182 198.351 128.547 198.351 127.63V124.552C198.363 123.793 198.147 123.047 197.731 122.411C197.172 121.608 196.541 120.857 195.845 120.169C195.195 119.5 194.685 118.942 194.316 118.495C193.926 118.014 193.608 117.479 193.372 116.907C193.104 116.254 192.971 115.554 192.98 114.849V111.834C192.98 110.43 193.289 109.405 193.909 108.756C194.528 108.108 195.423 107.785 196.594 107.788C197.786 107.788 198.675 108.123 199.26 108.792C199.846 109.461 200.14 110.475 200.142 111.834V116.052C200.145 116.075 200.143 116.098 200.136 116.12C200.129 116.141 200.117 116.161 200.101 116.177C200.085 116.193 200.066 116.206 200.045 116.213C200.023 116.221 200 116.224 199.978 116.221H198.515C198.493 116.224 198.47 116.221 198.448 116.213C198.427 116.206 198.407 116.193 198.392 116.177C198.376 116.161 198.364 116.141 198.357 116.12C198.35 116.098 198.347 116.075 198.351 116.052V111.936C198.351 110.999 198.233 110.368 197.994 110.011C197.755 109.654 197.288 109.494 196.594 109.494C195.9 109.494 195.418 109.674 195.163 110.027C194.908 110.38 194.771 111.022 194.771 111.936V114.578C194.759 115.362 194.98 116.132 195.406 116.789C195.966 117.597 196.603 118.348 197.308 119.032C198.096 119.795 198.805 120.636 199.425 121.541C199.919 122.332 200.168 123.251 200.142 124.183V127.731C200.142 130.452 198.927 131.813 196.496 131.813C195.3 131.817 194.418 131.472 193.842 130.797Z" fill="white"/>
<path d="M148.604 32.4409C145.414 32.4409 142.296 31.4949 139.643 29.7227C136.991 27.9504 134.924 25.4315 133.703 22.4843C132.482 19.5372 132.163 16.2942 132.785 13.1655C133.407 10.0369 134.944 7.16301 137.199 4.90736C139.455 2.65171 142.329 1.1156 145.457 0.493266C148.586 -0.129066 151.829 0.19034 154.776 1.41109C157.723 2.63183 160.242 4.69909 162.015 7.35145C163.787 10.0038 164.733 13.1222 164.733 16.3121C164.727 20.5881 163.027 24.6875 160.003 27.7111C156.979 30.7347 152.88 32.4357 148.604 32.4409ZM148.604 0.732222C145.523 0.732222 142.51 1.64596 139.948 3.3579C137.386 5.06984 135.389 7.50309 134.21 10.3499C133.031 13.1968 132.722 16.3294 133.323 19.3516C133.925 22.3738 135.408 25.1499 137.587 27.3288C139.766 29.5076 142.542 30.9915 145.564 31.5926C148.587 32.1938 151.719 31.8853 154.566 30.7061C157.413 29.5269 159.846 27.5299 161.558 24.9678C163.27 22.4057 164.184 19.3935 164.184 16.3121C164.179 12.1817 162.536 8.22187 159.615 5.3012C156.694 2.38052 152.734 0.737409 148.604 0.732222Z" fill="#FEFEFE"/>
<path d="M136.011 13.2228H136.129L136.106 12.9797C136.1 12.9263 136.11 12.8725 136.133 12.8241C136.156 12.7757 136.192 12.7345 136.237 12.705C136.281 12.6755 136.333 12.6589 136.387 12.6569C136.441 12.6548 136.494 12.6675 136.541 12.6935L137.564 13.262C137.615 13.2896 137.671 13.3064 137.728 13.3112C137.786 13.316 137.844 13.3088 137.898 13.29C137.953 13.2712 138.003 13.2412 138.045 13.2019C138.088 13.1627 138.121 13.1151 138.144 13.0621L138.223 12.8739L138.281 12.7367L138.336 12.6073L138.689 11.7801C138.706 11.74 138.731 11.7043 138.764 11.6758C138.797 11.6472 138.835 11.6266 138.877 11.6154C138.919 11.6018 138.964 11.5986 139.008 11.6061C139.052 11.6136 139.093 11.6316 139.128 11.6585L140.257 12.4426C140.306 12.4771 140.361 12.5009 140.419 12.5124C140.477 12.5239 140.537 12.5228 140.594 12.5093C140.652 12.4942 140.706 12.4672 140.753 12.4301C140.799 12.3929 140.837 12.3465 140.865 12.2936L141.492 11.0509C141.512 11.0122 141.54 10.9784 141.575 10.9519C141.61 10.9255 141.65 10.9071 141.692 10.898C141.734 10.8882 141.778 10.8881 141.82 10.8976C141.862 10.9071 141.901 10.926 141.935 10.9528L143.029 11.8114C143.076 11.8479 143.13 11.8738 143.187 11.8875C143.245 11.9012 143.305 11.9023 143.363 11.8908C143.421 11.8792 143.476 11.8553 143.524 11.8207C143.572 11.786 143.611 11.7414 143.641 11.6899L144.209 10.6706L144.28 10.549C144.252 10.8117 144.233 11.0626 144.209 11.3096C144.182 11.6507 144.154 11.9761 144.123 12.2701V12.4034L144.248 12.4309H144.621C144.762 12.4309 144.942 12.4309 145.17 12.4309C145.933 12.423 146.695 12.3693 147.451 12.2701L147.773 12.227C148.573 12.1312 149.362 11.9525 150.125 11.6938L150.313 11.6232L150.517 11.5331H150.552V11.5056C150.622 11.5106 150.691 11.5106 150.76 11.5056L150.854 11.439L150.811 11.3331C150.697 11.0548 150.58 10.7451 150.458 10.4197L150.16 9.63557C150.2 9.63537 150.239 9.64327 150.276 9.65877C150.312 9.67428 150.345 9.69707 150.372 9.72575L151.27 10.6667C151.312 10.7111 151.364 10.7455 151.422 10.7672C151.48 10.7889 151.541 10.7975 151.603 10.7922C151.664 10.7869 151.723 10.768 151.776 10.7368C151.829 10.7055 151.875 10.6628 151.909 10.6118L152.634 9.53364C152.66 9.4964 152.694 9.46544 152.733 9.44304C152.772 9.42065 152.816 9.4074 152.862 9.40427C152.906 9.40242 152.951 9.41022 152.992 9.42714C153.033 9.44405 153.07 9.46968 153.101 9.50228L153.971 10.4706C154.011 10.5167 154.061 10.5527 154.118 10.5758C154.174 10.599 154.236 10.6086 154.296 10.6039C154.358 10.602 154.418 10.5857 154.471 10.5564C154.525 10.5271 154.571 10.4857 154.606 10.4353L155.39 9.39251C155.417 9.35601 155.452 9.32609 155.492 9.30503C155.532 9.28397 155.576 9.27233 155.622 9.27097C155.667 9.27005 155.711 9.27947 155.752 9.2985C155.793 9.31753 155.829 9.34567 155.857 9.38075L156.527 10.2158L156.617 10.3295L156.66 10.3805C156.677 10.4041 156.697 10.4253 156.719 10.4432C156.793 10.5045 156.886 10.539 156.982 10.5412C157.044 10.543 157.106 10.5313 157.164 10.5069C157.221 10.4826 157.273 10.4461 157.315 10.4001L157.648 10.008L157.884 9.74143L158.076 9.5258C158.11 9.48679 158.155 9.45783 158.205 9.44196C158.254 9.42609 158.307 9.42391 158.358 9.43563C158.398 9.44307 158.435 9.45913 158.468 9.48268C158.508 9.51196 158.541 9.55109 158.562 9.59637L158.86 10.1923L158.915 10.1688L158.966 10.1452C159.238 10.0241 159.5 9.88119 159.75 9.71791C160.075 9.49052 160.205 9.30626 160.189 9.17688C160.183 9.1582 160.177 9.13987 160.169 9.12199C160.155 9.09574 160.136 9.07193 160.114 9.05143C160.082 9.01533 160.045 8.98369 160.005 8.95734C159.933 8.91471 159.858 8.87674 159.781 8.84365C159.264 8.62802 158.213 8.4516 156.425 8.40455H155.739C153.764 8.42147 151.79 8.54055 149.827 8.76131V8.72995C149.827 8.70251 149.8 8.67114 149.788 8.63978L149.764 8.58881L149.737 8.53001C149.728 8.50451 149.718 8.47962 149.706 8.45552V8.42807C148.945 6.71091 147.965 5.16626 146.624 5.35052C146.314 5.41158 146.023 5.54889 145.779 5.75008C145.534 5.95128 145.344 6.21006 145.225 6.50313C144.814 7.34518 144.549 8.25047 144.44 9.18081L144.389 9.5454C142.393 9.89165 140.417 10.3524 138.473 10.9254C136.752 11.4547 135.796 11.9251 135.361 12.274C135.297 12.3241 135.238 12.3791 135.184 12.4387L135.141 12.4936C135.114 12.5307 135.093 12.5717 135.078 12.6151C135.071 12.6447 135.071 12.6757 135.078 12.7053C135.047 12.8817 135.341 13.0738 136.011 13.2228ZM144.487 11.3684C144.487 11.2665 144.507 11.1606 144.515 11.0548C144.515 10.8274 144.558 10.5961 144.582 10.3609V10.2432C144.605 9.99234 144.633 9.74143 144.668 9.49052V9.36899C144.666 9.34943 144.666 9.32973 144.668 9.31017V9.12984C144.754 8.42677 144.917 7.73526 145.154 7.06767L145.181 7.01279C145.242 6.8288 145.36 6.66928 145.519 6.55802C145.911 6.33455 146.256 6.7854 146.393 7.08728C146.593 7.59812 146.725 8.13338 146.785 8.67898C146.785 8.71427 146.785 8.75348 146.785 8.78876V8.8162C146.785 8.8554 146.785 8.89461 146.785 8.93381V9.05143C146.783 9.06969 146.783 9.08806 146.785 9.10632V9.13768C146.828 9.4474 146.863 9.75319 146.895 10.0629C146.893 10.0942 146.893 10.1257 146.895 10.157V10.2511C146.895 10.2746 146.895 10.2942 146.895 10.3138L146.953 10.9646H147.02C147.412 10.9136 147.804 10.8509 148.196 10.7725H148.333C148.584 10.7176 148.835 10.6588 149.074 10.5922L149.161 10.5647L149.247 10.5412C149.451 10.4785 149.639 10.4118 149.839 10.3413L149.898 10.3177C149.925 10.3961 149.957 10.4746 149.984 10.549L150.035 10.6823H149.988L149.855 10.7333C149.545 10.8431 149.216 10.9411 148.874 11.0273L148.663 11.0783C148.349 11.1489 148.032 11.2116 147.714 11.2626L147.055 11.3567H146.985C146.722 11.388 146.463 11.4115 146.201 11.4311C145.938 11.4507 145.738 11.4625 145.526 11.4703H144.954C144.703 11.4703 144.484 11.4704 144.311 11.4468L144.487 11.3684ZM144.417 12.1525C144.417 12.0976 144.417 12.0427 144.417 11.9878C144.417 11.933 144.417 11.8702 144.417 11.8075H145.37C145.879 11.8075 146.491 11.7565 147.138 11.6821H147.208L147.894 11.588L148.286 11.5174C148.451 11.486 148.616 11.4547 148.776 11.4155C148.937 11.3763 149.09 11.3449 149.243 11.3057C149.581 11.2182 149.915 11.1135 150.243 10.9921L150.302 10.9685C150.345 11.0744 150.384 11.1802 150.423 11.2782L150.364 11.3057C150.257 11.359 150.147 11.4061 150.035 11.4468C149.953 11.4821 149.855 11.5135 149.745 11.5488L149.478 11.6311C148.921 11.7853 148.354 11.9019 147.781 11.98L147.353 12.0388H147.149C146.38 12.1373 145.604 12.1818 144.829 12.1721H144.374L144.417 12.1525Z" fill="white"/>
<path d="M152.571 16.1631C152.515 16.1888 152.464 16.2232 152.419 16.2651C152.219 16.414 152.054 16.6571 151.811 16.6571H151.787C151.476 16.5948 151.17 16.5056 150.874 16.3905C150.802 16.3752 150.728 16.3673 150.654 16.367C150.605 16.363 150.555 16.363 150.505 16.367L150.36 16.3905L150.219 16.4336C149.945 16.5384 149.705 16.716 149.525 16.9472L149.404 16.9002C149.212 16.8287 149.009 16.7915 148.804 16.7904C148.585 16.7901 148.369 16.8355 148.169 16.9237L148.086 16.9629C147.925 17.0483 147.773 17.1522 147.636 17.2726C147.502 17.3902 147.389 17.5392 147.197 17.551C147.032 17.531 146.879 17.4597 146.757 17.3471C146.699 17.3001 146.542 17.1276 146.448 17.1276C146.279 17.1628 146.358 17.7117 146.385 17.8176C146.449 18.1047 146.596 18.3666 146.808 18.5703C147.105 18.85 147.499 19.0032 147.906 18.9976C148.331 19.0032 148.746 18.8651 149.082 18.6056C149.262 18.4644 149.411 18.2884 149.521 18.0881C149.572 17.9526 149.634 17.8215 149.706 17.696L149.733 17.6725H149.776C149.945 17.6725 150.266 18.0254 150.674 18.1469L150.835 18.19C150.898 18.2079 150.962 18.2211 151.027 18.2292C151.088 18.2325 151.15 18.2325 151.211 18.2292H151.254C151.387 18.2265 151.52 18.204 151.646 18.1626C151.981 18.0503 152.272 17.8361 152.479 17.5499C152.686 17.2637 152.798 16.92 152.799 16.5669C152.799 16.4729 152.799 16.1749 152.654 16.1749L152.571 16.1631Z" fill="white"/>
<path d="M160.475 9.40819C160.442 9.49542 160.394 9.57632 160.334 9.64733C160.299 9.69046 160.259 9.73751 160.216 9.78063L160.181 9.81199C159.667 10.2903 158.554 10.7921 156.853 11.3135C154.931 11.8847 152.978 12.3429 151.003 12.6857L150.843 12.7131L150.686 12.7445C149.784 12.9013 148.851 13.0503 147.902 13.1836L147.604 13.2228C146.522 13.3679 145.456 13.4933 144.429 13.5913H144.131C142.437 13.7442 140.853 13.8265 139.473 13.8265H138.779C136.937 13.7873 135.71 13.5952 135.106 13.2581C135.106 13.3051 135.137 13.3522 135.157 13.3992L135.102 13.2581C135.035 13.22 134.97 13.1767 134.91 13.1287C134.814 13.052 134.74 12.9503 134.698 12.8347C134.98 14.5087 136.443 15.579 139.05 16.0377C140.135 16.213 141.232 16.2956 142.331 16.2847C142.911 16.2847 143.507 16.2847 144.17 16.2298C144.664 19.4406 146.644 22.7926 150.239 23.4395C150.653 23.5132 151.073 23.5499 151.493 23.5493C153.036 23.5477 154.536 23.0392 155.761 22.102C156.987 21.1649 157.87 19.851 158.276 18.3625C158.284 18.3297 158.281 18.2948 158.267 18.264C158.253 18.2332 158.228 18.2084 158.197 18.1939C158.166 18.1789 158.131 18.1758 158.097 18.1852C158.064 18.1946 158.036 18.2158 158.017 18.2449C157.651 18.7874 157.161 19.235 156.588 19.5507C156.015 19.8664 155.375 20.041 154.721 20.0601C154.067 20.0793 153.418 19.9424 152.827 19.6609C152.237 19.3793 151.722 18.9611 151.325 18.4409H151.152L150.96 18.4213C150.828 18.3998 150.697 18.3697 150.568 18.3311C150.337 18.2522 150.12 18.137 149.925 17.9901L149.796 17.9038L149.772 17.9744C149.749 18.0427 149.722 18.1095 149.69 18.1743C149.564 18.4009 149.395 18.6007 149.192 18.7624C149.564 19.1967 149.999 19.5733 150.482 19.8797C151.451 20.4855 152.583 20.7797 153.724 20.7226C154.656 20.6741 155.565 20.4183 156.386 19.9738C156.898 19.7485 157.362 19.4278 157.754 19.029C157.174 20.4666 156.118 21.6608 154.761 22.4112C153.405 23.1615 151.831 23.4221 150.305 23.1494C146.863 22.526 144.962 19.3073 144.476 16.2102C145.5 16.1422 146.597 16.0325 147.765 15.8809C147.834 16.169 147.919 16.453 148.02 16.7316L148.09 16.6963C148.32 16.5944 148.568 16.5423 148.82 16.5434C149.041 16.5442 149.261 16.5827 149.47 16.6571C149.675 16.4385 149.931 16.2753 150.215 16.1827L150.36 16.1435C150.408 16.1316 150.456 16.1237 150.505 16.12C150.493 15.8949 150.502 15.6691 150.533 15.4457C152.815 15.0762 155.04 14.4107 157.151 13.4659C159.452 12.3525 160.561 10.9842 160.475 9.40819ZM150.56 15.1634L150.407 15.1909L150.258 15.2183C149.6 15.3359 148.916 15.4444 148.208 15.5437L147.69 15.6143C146.527 15.7685 145.438 15.8769 144.421 15.9397H144.127C142.45 16.0633 140.764 15.9989 139.101 15.7476C137.646 15.4967 136.568 15.0458 135.874 14.4068L137.086 14.0147C137.144 13.9951 137.206 13.991 137.267 14.0026C137.327 14.0143 137.384 14.0414 137.431 14.0814L138.76 15.2575C138.821 15.3096 138.897 15.3401 138.977 15.3444C139.057 15.3487 139.137 15.3264 139.203 15.281L140.618 14.3048C140.676 14.2661 140.744 14.2454 140.814 14.2454C140.884 14.2454 140.952 14.2661 141.01 14.3048L142.398 15.3359C142.46 15.3824 142.536 15.4075 142.613 15.4075C142.691 15.4075 142.767 15.3824 142.829 15.3359L144.048 14.3715L144.186 14.2656C144.243 14.2258 144.312 14.2045 144.382 14.2045C144.452 14.2045 144.52 14.2258 144.578 14.2656L146.024 15.1948C146.091 15.2391 146.171 15.2593 146.251 15.2522C146.331 15.2451 146.406 15.211 146.463 15.1556L147.518 14.1755L147.73 13.9794C147.782 13.9315 147.847 13.9003 147.917 13.8898C147.987 13.8793 148.058 13.89 148.122 13.9206L149.76 14.7047C149.829 14.7371 149.906 14.7469 149.981 14.7328C150.056 14.7187 150.124 14.6815 150.176 14.6263L150.337 14.4499L150.513 14.2578L150.694 14.0657L151.415 13.2816C151.463 13.2284 151.527 13.1913 151.597 13.1752C151.667 13.1591 151.74 13.1647 151.807 13.1914L153.508 13.8461C153.577 13.8695 153.651 13.8714 153.721 13.8519C153.791 13.8323 153.854 13.792 153.9 13.7364L155.073 12.2897C155.118 12.2318 155.18 12.1893 155.25 12.1683C155.32 12.1472 155.395 12.1485 155.465 12.1721L157.205 12.7014C157.278 12.7215 157.355 12.7183 157.425 12.6923C157.495 12.6662 157.556 12.6187 157.597 12.5563L158.617 11.0117C158.649 10.9599 158.695 10.9179 158.75 10.8903C158.804 10.8627 158.866 10.8504 158.927 10.8548L159.844 10.894C159.379 11.7539 158.436 12.538 157.017 13.2463C154.956 14.1593 152.786 14.8036 150.56 15.1634Z" fill="white"/>
<path d="M148.522 27.999C151.834 27.999 154.52 27.4408 154.52 26.7523C154.52 26.0638 151.834 25.5056 148.522 25.5056C145.209 25.5056 142.523 26.0638 142.523 26.7523C142.523 27.4408 145.209 27.999 148.522 27.999Z" fill="white"/>
</svg>
