<svg width="156" height="103" viewBox="0 0 156 103" fill="none" xmlns="http://www.w3.org/2000/svg">
<path fill-rule="evenodd" clip-rule="evenodd" d="M53.11 8.46919L42.6465 10.4726L38.399 11.2859L21.8602 14.4525C19.8669 14.8341 18.39 16.5194 18.2779 18.5401C18.1116 21.5368 18.1204 24.1635 18.2514 26.8946C18.3097 28.1079 18.8672 29.2434 19.7924 30.0335C19.8628 30.0936 19.9349 30.1513 20.0084 30.2066C20.0723 31.6138 20.1103 33.0104 20.109 34.4052L20.1092 34.4331C20.1185 36.1584 20.0911 37.8915 20.0268 39.6326C19.2308 40.2499 18.6613 41.1277 18.4313 42.1236L3.46116 44.9899C1.70581 45.326 0.556064 47.0173 0.893139 48.7675L2.61224 57.6939L2.68637 57.6798C3.14227 60.5145 3.69692 63.0224 4.28095 65.3063C4.65215 66.7581 5.32115 68.0665 6.21045 69.1765C5.91935 71.5146 5.60939 73.8505 5.28121 76.1732C3.63566 78.3008 2.84582 81.0458 3.23047 83.8444C3.69633 87.2338 4.3529 90.643 5.17928 93.9636C6.23452 98.2036 9.1256 101.322 12.9938 101.872C13.3464 102.444 22.9318 101.122 34.6045 98.8875C43.0294 97.2744 50.2675 95.6207 53.6864 94.5767L53.8433 94.5467C54.3967 95.3198 54.7164 96.0715 55.002 96.7434C55.8894 98.8301 56.4501 100.148 62.6709 98.9574L70.41 97.4755C75.834 96.4371 75.8962 95.1096 75.9958 92.9792C76.0298 92.2528 76.0681 91.433 76.3249 90.4994C76.8761 90.2938 77.7817 90.135 78.864 89.9453C80.7069 89.6222 83.0619 89.2094 85.0508 88.3222C87.7026 87.1392 88.8014 85.8259 89.6759 84.781C89.8422 84.5819 90.0006 84.3928 90.1599 84.216C95.2017 86.1704 99.2815 86.4012 105.841 85.1452C112.401 83.8892 115.981 81.379 115.981 81.379C116.726 84.6677 123.546 84.1581 126.036 83.6815C128.526 83.2048 135.121 81.529 134.452 78.635C137.096 78.9454 139.561 78.6891 141.594 78.2997C145.936 77.4685 149.512 75.8827 153.009 71.2515C156.679 66.3882 155.79 60.9589 154.903 56.3616C154.507 54.3035 153.383 52.1495 152.167 50.0353L151.698 47.8216C151.088 43.7157 150.28 39.5175 149.355 35.6582C149.316 35.4914 149.275 35.3257 149.234 35.1614C149.226 35.0167 149.209 34.8708 149.18 34.7245L148.478 31.0799C147.917 28.1629 145.09 26.2521 142.164 26.8124L136.875 27.8252C135.818 28.0017 134.766 28.2031 133.719 28.4292L133.448 28.4812C133.807 26.5544 133.941 24.5123 133.914 22.3889V22.3817L133.81 14.7723C133.762 11.9302 133.801 9.05186 133.898 5.70708C133.935 4.45026 133.431 3.23767 132.515 2.37405C131.599 1.51045 130.356 1.07794 129.1 1.18524C124.825 1.5503 121.046 2.27494 116.863 3.52705L115.644 3.83482C113.62 3.79584 110.925 4.17363 108.764 4.58732C106.519 5.01707 104.78 5.43361 103.015 5.95949C102.942 5.02791 102.573 4.13509 101.949 3.41716C101.129 2.47245 99.9445 1.91928 98.6912 1.89515C96.6734 1.8563 94.0738 2.21431 91.9009 2.63036C90.6805 2.86402 89.6201 3.09899 88.6194 3.35962C87.9971 1.84389 86.5525 0.746182 84.8236 0.629451C83.4634 0.537615 81.82 0.636206 79.7264 1.03707C76.2222 1.70802 73.0566 3.07507 70.7454 5.61904C70.2701 5.17185 69.7202 4.77154 69.0907 4.43223C66.697 3.14157 63.873 3.13814 61.2157 3.64693C58.6349 4.14107 56.172 5.14594 54.3474 6.95398C53.8715 7.42548 53.4588 7.93274 53.11 8.46919ZM61.7249 8.04106C57.6128 8.8284 55.5841 10.9454 55.8058 13.7995C56.0014 16.5183 58.156 17.9746 62.5393 17.1353C66.6513 16.348 68.68 14.231 68.4584 11.3769C68.2627 8.65799 66.1082 7.20181 61.7249 8.04106ZM67.4772 27.4488C67.539 24.1201 67.8267 20.748 68.3316 17.2876C66.6893 17.275 64.2231 17.607 61.9185 18.0484C59.1621 18.5762 57.2902 19.0747 55.0464 19.8314C54.8631 22.5293 54.7982 25.1113 54.8861 27.7574C55.4457 27.7436 56.0052 27.7299 56.5024 27.6348C56.5241 30.6673 56.4399 33.3931 56.3225 36.9194C56.1666 41.9481 57.8324 44.7593 63.3905 43.695C68.813 42.6567 70.331 40.0769 70.4323 31.6015L68.67 31.939C68.5439 35.4202 68.3126 36.1653 67.8607 36.2519C67.4992 36.3211 67.3221 35.8878 67.331 34.7182L67.4772 27.4488ZM43.1556 14.8668C43.0368 17.4122 43.0065 20.1745 43.131 22.7669L44.8742 22.5732C44.9793 25.3095 44.9857 28.0179 44.9553 30.78C44.9575 31.0108 44.9507 31.2432 44.9437 31.48C44.9351 31.7695 44.9264 32.0656 44.9341 32.3725C42.784 26.8042 40.8233 21.2465 38.908 15.68L22.3693 18.8467C22.212 21.6799 22.2201 24.1545 22.3445 26.7467L22.4715 26.7333C22.9737 26.6801 23.4396 26.6306 23.8982 26.5427C24.0765 29.1716 24.2096 31.809 24.2072 34.4723C24.2221 37.2259 24.1465 39.9967 23.9807 42.7848C23.4774 42.8811 23.0205 43.0089 22.5308 43.1458L22.4165 43.1778C22.3536 44.8099 22.3354 46.4873 22.3668 48.1202L10.6137 50.3706C11.0584 53.835 11.6786 56.7667 12.3546 59.4104C13.3944 59.3223 14.4345 59.234 15.4537 59.0389C14.7608 65.5498 13.9171 72.1451 12.9354 78.6003C12.4629 78.7462 11.9902 78.8922 11.5281 79.0916C11.9441 82.1179 12.5312 85.1668 13.2691 88.1315L29.2557 85.0705C28.8397 82.0442 28.2525 78.9953 27.5147 76.0306C26.5822 76.0983 25.6065 76.2297 24.6307 76.3611L24.7323 72.8474L31.5454 71.5429L32.8278 74.7361C31.8724 74.9744 30.9274 75.2664 29.9824 75.5581C30.3984 78.5845 30.9856 81.6334 31.7234 84.5981L52.4308 80.6333C52.0148 77.607 51.4277 74.558 50.6898 71.5934C50.1328 71.5891 49.6397 71.628 49.0392 71.6876C44.4241 63.0316 40.1742 54.2502 36.3102 45.4505L34.2343 45.8479C34.2601 44.2041 34.2425 42.5336 34.1654 40.9282L32.4222 41.1218C32.3169 38.3856 32.3107 35.6772 32.3409 32.915L32.3623 31.3225C34.5488 36.837 36.5633 42.4312 38.5239 47.989L53.1647 45.1857C53.0233 41.2887 53.0174 37.3657 53.0114 33.4427C53.0074 29.2855 53.1389 25.102 53.3608 20.9015C53.8578 20.8064 54.3914 20.6575 54.8797 20.5173C54.9813 17.8816 54.9664 15.1281 54.8142 12.6345L43.1556 14.8668ZM84.0759 12.965C83.4086 12.9059 82.6144 12.9178 81.7106 13.0908C80.0387 13.4109 79.4198 14.0901 79.6107 15.0813L79.6628 15.3516C81.0469 14.9961 82.4392 14.6829 83.7905 14.3788L83.9209 14.3495C84.1896 16.961 84.1611 19.4892 84.023 22.1786L82.7127 22.4295L82.9348 29.9085C83.3095 41.6831 79.0138 45.2048 75.3319 46.4343C79.1349 47.2641 82.3091 50.9389 83.7745 58.5478C85.9687 69.9411 82.466 75.4371 76.4575 76.5875C73.0778 77.2346 69.0921 75.8901 66.6203 68.5432C67.2199 71.3679 67.8836 74.2358 68.5514 76.5483C68.9887 76.4646 69.4603 76.4256 69.9228 76.3871C70.1408 76.3691 70.3577 76.3511 70.5672 76.3287C71.1607 78.5445 71.5832 80.7376 71.8548 83.0151L54.5808 86.3225C53.8863 83.2941 53.3198 80.3521 52.8398 77.2826C53.3557 77.0729 53.8282 76.927 54.3544 76.7707C54.0414 74.2793 53.6645 71.7448 53.1803 69.2308C52.6344 66.3958 51.9275 63.5916 51.1029 60.7545C50.7887 60.8147 50.4884 60.8251 50.181 60.8359C50.0163 60.8417 49.8493 60.8475 49.6773 60.861C48.9291 57.8429 48.3626 54.901 47.9363 51.8212C50.4289 50.9002 52.9296 50.3105 55.451 49.8277C57.8651 49.3656 60.3534 49 62.85 48.9656L64.4467 57.2567C64.4684 50.7796 67.1517 47.8927 70.3825 46.7898C70.3255 44.1968 70.2709 41.5664 70.3846 38.9455C71.4067 38.6563 71.956 37.6167 71.7835 33.0715L71.4609 24.5838L69.7437 24.9126C69.6539 22.5005 69.672 20.161 69.8707 17.7871C70.3053 17.6105 70.785 17.4252 71.2282 17.2937C71.0477 10.2738 73.7736 6.66846 80.2355 5.43121C82.043 5.08513 83.2978 5.03175 84.1998 5.09264C84.2511 7.79245 84.2313 10.3657 84.0759 12.965ZM101.072 18.9142C101.21 16.2249 101.23 13.6516 100.961 11.0401C99.9184 11.2398 98.9255 11.4731 97.8942 11.7154L97.7701 11.7445C97.7986 11.4117 97.8262 11.082 97.8537 10.7549L97.8539 10.7515C97.9789 9.2592 98.0994 7.81921 98.2809 6.36759C96.7288 6.33772 94.4886 6.62649 92.41 7.02449C89.9247 7.50035 88.2336 7.9643 86.2608 8.66904C86.3437 10.8022 86.411 12.6113 86.4244 14.3841C85.8908 14.5329 85.4111 14.7182 84.9314 14.9035C84.7327 17.2775 84.7146 19.6168 84.8043 22.029L86.3406 21.7348L86.1714 30.8305C86.0884 35.7518 88.4737 38.8923 94.1221 37.8109C100.403 36.6083 101.063 32.9781 101.276 22.8929L99.0618 23.3169C98.8982 30.496 98.4043 31.338 97.9074 31.4333C97.2746 31.5544 97.1167 30.9773 97.2784 24.0321C97.2997 22.4396 97.347 20.9823 97.4117 19.615L101.072 18.9142ZM117.81 7.81468C121.708 6.64778 125.188 5.98099 129.152 5.64242C129.054 9.02493 129.013 11.976 129.063 14.9098L129.167 22.5048C129.253 29.7024 127.292 34.1944 122.364 36.747C126.827 36.0337 130.355 37.3117 132.696 43.6345L131.202 35.8784C134.627 34.8898 138.115 34.2221 141.662 33.8755C142.515 37.4285 143.267 41.3333 143.837 45.1619C140.197 46.1916 136.817 46.8388 133.376 47.1649L133.241 46.4695C132.943 44.9183 131.907 44.451 130.824 44.603C129.58 44.7857 128.858 45.3677 129.064 46.4375C129.28 47.5608 130.047 48.0794 135.964 47.612C142.707 47.0975 145.627 49.2562 146.585 54.2309C147.727 60.1683 145.185 63.4283 138.801 64.6507C133.973 65.5751 129.878 64.5289 127.164 57.9492L128.72 66.0263C125.295 67.0149 121.808 67.6825 118.259 68.0292C117.408 64.4761 116.656 60.5714 116.085 56.7428C119.725 55.713 123.105 55.0659 126.546 54.7398L126.608 55.0607C126.989 57.0398 128.559 57.6822 130.222 57.3637C131.617 57.0966 132.158 56.4385 131.993 55.5827C131.766 54.4058 130.892 53.9078 125.564 54.2622C118.093 54.7498 115.166 52.2597 114.208 47.2852C113.392 43.0441 114.642 40.2001 117.343 38.4891C117.035 38.5579 116.721 38.6229 116.399 38.6845C107.407 40.4063 103.474 37.7488 103.77 32.2263C106.717 31.475 109.7 30.9039 112.898 30.4785C112.975 32.0988 113.82 32.5912 114.949 32.3748C116.938 31.9941 118.065 29.8163 118.114 19.8559C116.866 27.2427 113.357 29.4562 110.419 30.0186C104.861 31.0828 103.58 27.5908 103.591 22.543C103.613 20.9505 103.568 19.7444 103.495 18.6371L103.38 18.6476C102.951 18.6865 102.49 18.7284 102.06 18.7251C101.972 16.079 102.037 13.4971 102.22 10.7991C104.509 10.0338 106.426 9.52654 109.273 8.98146C111.352 8.58347 113.682 8.27738 115.234 8.30726C115.025 10.8701 114.889 13.3255 114.825 15.6735C114.715 19.4788 115.069 20.3453 116.199 20.1291C117.193 19.9387 117.946 18.2528 118.057 13.2328C118.035 11.4152 117.922 9.61495 117.81 7.81468ZM29.2733 66.0989C27.9783 63.13 26.6297 60.1713 25.2813 57.2127L24.9278 66.9309L29.2733 66.0989ZM65.8992 64.7988C66.3937 67.3664 67.5962 68.4118 69.0984 68.1242C70.7614 67.8057 71.2797 65.8762 70.5689 62.1855C69.8582 58.4946 68.6598 56.8937 66.9968 57.2121C65.5484 57.4894 64.7991 58.7977 65.1885 61.1081L65.8992 64.7988ZM103.564 58.8629C104.17 60.8544 103.486 61.9281 102.199 62.1747C100.59 62.4829 99.6097 61.7275 98.6968 57.8536L102.613 57.1037C105.077 56.6319 107.06 56.2437 108.691 55.9244C111.213 55.4307 112.891 55.1021 114.201 54.8851C114.25 53.9882 114.131 52.7908 113.863 51.4001C112.339 43.4835 107.043 39.6722 98.0307 41.3978C88.2671 43.2671 83.1816 49.7872 85.108 59.7898C86.9725 69.4716 92.8557 73.4477 103.048 71.4962C111.471 69.8835 116.364 64.6759 115.149 58.3641C115.035 57.7757 114.879 57.2511 114.648 56.6298C110.979 57.2212 107.224 57.9403 103.564 58.8629ZM99.8296 49.8719C101.493 49.5535 102.359 51.1625 102.76 53.2486L102.925 54.1044L98.1508 55.0186C97.6216 51.4039 98.3811 50.1492 99.8296 49.8719Z" fill="white"/>
</svg>
