<svg width="152" height="49" viewBox="0 0 152 49" fill="none" xmlns="http://www.w3.org/2000/svg">
<g clip-path="url(#clip0_637_1103)">
<path d="M77.6522 9.56968C77.6522 6.39601 75.2734 4.68714 72.4532 4.68714H65.6457V20.2217H69.1265V14.9395H72.0784C75.6914 14.9395 77.6516 12.4987 77.6516 9.56937L77.6522 9.56968ZM74.017 9.79171C74.017 11.1233 73.1582 12.0114 71.9902 12.0114H69.1044V7.61734H71.9902C73.1576 7.61734 74.017 8.37224 74.017 9.79263V9.79171ZM86.7282 11.3674V7.94962H85.6708C84.4594 7.94962 83.292 8.48249 82.6968 9.50322V7.94962H79.4145V20.222H82.8072V13.6973C82.8072 11.9884 83.7982 11.3453 85.4726 11.3453C85.9353 11.3453 86.7282 11.3674 86.7282 11.3674ZM93.6229 20.3772C97.1477 20.3772 99.6588 18.2467 99.6588 14.097C99.6588 9.92493 97.1477 7.79435 93.6229 7.79435C90.1199 7.79435 87.6088 9.92493 87.6088 14.097C87.6088 18.2467 90.1199 20.3772 93.6229 20.3772ZM93.6229 10.5681C95.0988 10.5681 96.1999 11.5664 96.1999 14.097C96.1999 16.6045 95.0985 17.6035 93.6229 17.6035C92.191 17.6035 91.0677 16.6052 91.0677 14.097C91.0677 11.5673 92.191 10.5681 93.6229 10.5681ZM108.03 20.1776V17.3371C108.03 17.3371 107.259 17.4039 106.554 17.4039C105.827 17.4039 105.607 17.2039 105.607 16.4499V10.7025H108.184V7.95084H105.607V4.68867H102.193V7.95084H100.43V10.7025H102.193V16.6275C102.193 18.9137 102.523 20.3117 105.365 20.3117C106.907 20.3117 108.03 20.1785 108.03 20.1785V20.1776ZM115.079 20.3772C118.604 20.3772 121.115 18.2467 121.115 14.097C121.115 9.92493 118.604 7.79435 115.079 7.79435C111.576 7.79435 109.065 9.92493 109.065 14.097C109.065 18.2467 111.576 20.3772 115.079 20.3772ZM115.079 10.5681C116.555 10.5681 117.656 11.5664 117.656 14.097C117.656 16.6045 116.555 17.6035 115.079 17.6035C113.647 17.6035 112.524 16.6052 112.524 14.097C112.524 11.5673 113.647 10.5681 115.079 10.5681ZM130.5 15.5835C130.279 17.048 129.288 17.6032 128.209 17.6032C126.821 17.6032 125.72 16.6049 125.72 14.0967C125.72 11.567 126.799 10.5677 128.253 10.5677C129.398 10.5677 130.28 11.145 130.456 12.6542H133.871C133.585 9.4141 131.294 7.79404 128.232 7.79404C124.729 7.79404 122.218 9.99139 122.218 14.1411C122.218 18.3131 124.795 20.3769 128.298 20.3769C131.426 20.3769 133.541 18.7569 133.893 15.5835H130.5H130.5ZM140.897 20.3769C144.422 20.3769 146.933 18.2464 146.933 14.0967C146.933 9.92462 144.422 7.79404 140.897 7.79404C137.394 7.79404 134.883 9.92462 134.883 14.0967C134.883 18.2464 137.394 20.3769 140.897 20.3769ZM140.897 10.5677C142.373 10.5677 143.474 11.5661 143.474 14.0967C143.474 16.6042 142.373 17.6032 140.897 17.6032C139.465 17.6032 138.342 16.6049 138.342 14.0967C138.342 11.567 139.465 10.5677 140.897 10.5677ZM151.978 20.2217V3.79962H148.585V20.2217H151.978ZM76.573 44.6329V41.5704H69.1275V29.0983H65.6467V44.6329H76.573ZM85.7593 39.9279C85.7593 40.9707 85.054 42.302 83.0497 42.302C81.7501 42.302 81.3975 41.4812 81.3975 40.926C81.3975 40.1497 81.9924 39.6612 82.8072 39.5059C83.6438 39.3283 85.759 39.0619 85.759 39.0619V39.9276L85.7593 39.9279ZM78.3134 36.377H81.596C81.596 35.8885 81.7283 34.8681 83.7331 34.8681C85.3635 34.8681 85.7602 35.4454 85.7602 36.2885V36.7102L81.7511 37.2874C80.6278 37.443 77.9182 38.1303 77.9182 40.9272C77.9182 43.3904 79.7909 44.7884 82.3019 44.7884C84.395 44.7884 85.32 44.0779 85.8487 43.5236V44.6332H89.4398C89.4398 44.6332 89.1753 43.7012 89.1753 42.8134V36.2C89.1753 34.4246 88.2062 32.2055 83.7347 32.2055C79.1087 32.2055 78.3599 34.5796 78.3159 36.3776H78.3137L78.3134 36.377ZM94.7689 44.6329V43.4345C95.3861 44.2108 96.4653 44.7881 97.8089 44.7881C101.113 44.7881 103.382 42.6572 103.382 38.5075C103.382 34.3358 101.069 32.2049 98.0072 32.2049C96.6635 32.2049 95.3858 32.7822 94.7689 33.5585V28.2099H91.3763V44.6319H94.7689V44.6326V44.6329ZM97.346 34.9789C98.8219 34.9789 99.9233 35.9773 99.9233 38.5075C99.9233 41.0151 98.8219 42.0141 97.346 42.0141C95.6937 42.0141 94.7908 41.2378 94.7908 38.5075C94.7908 35.7559 95.6937 34.9789 97.346 34.9789ZM111.863 35.9994H115.189C115.189 35.0454 114.704 32.2043 109.946 32.2043C107.038 32.2043 104.725 33.5135 104.725 36.0432C104.725 38.9057 107.015 39.5053 109.637 39.8606L110.298 39.9494C111.245 40.0826 112.127 40.2826 112.127 41.0366C112.127 41.9241 111.18 42.2793 110.1 42.2793C108.933 42.2793 107.897 41.9241 107.897 40.7481H104.482C104.482 41.3918 104.768 44.7869 109.901 44.7869C114.461 44.7869 115.562 42.5452 115.562 40.6593C115.562 35.7103 108.116 37.6856 108.116 35.7991C108.116 34.9563 109.041 34.6895 109.901 34.6895C111.068 34.6895 111.862 35.1559 111.862 35.9987L111.863 35.9994H111.863ZM23.0706 36.1304C23.5928 36.4342 24.0169 37.1769 24.0169 37.7817V48.234C24.0169 48.842 23.5904 49.087 23.0709 48.7853L14.0922 43.5644C13.5702 43.2602 13.1462 42.5179 13.1462 41.913V31.4607C13.1462 30.8528 13.5727 30.6078 14.0922 30.9095L23.0709 36.1301L23.0706 36.1304ZM36.9202 26.9099C36.9202 27.5178 36.4937 28.258 35.9738 28.5612L26.9915 33.7843C26.4693 34.0884 26.0455 33.8388 26.0455 33.2339V22.7847C26.0455 22.1768 26.472 21.4363 26.9915 21.1331L35.9738 15.91C36.4961 15.6062 36.9202 15.8555 36.9202 16.4603L36.9193 26.9105L36.9202 26.9099ZM34.9472 13.0367C35.4786 13.3454 35.4823 13.8437 34.9624 14.1463L25.9753 19.3715C25.4524 19.6756 24.5966 19.6701 24.0677 19.3623L2.21706 6.65602C1.68567 6.34732 1.68202 5.84905 2.20247 5.54678L11.1902 0.320623C11.7131 0.0168234 12.5689 0.0220296 13.0978 0.329811L34.9472 13.0386L34.9463 13.0377L34.9469 13.037L34.9472 13.0367ZM11.1176 40.7279C11.1176 41.3373 10.6911 41.5829 10.1727 41.2806L1.19502 36.06C0.673048 35.7559 0.250488 35.0071 0.250488 34.3925V8.97678C0.250488 8.35907 0.683688 8.11009 1.21174 8.41787L23.0566 21.1205C23.588 21.4289 24.0178 22.1755 24.0178 22.7804V33.2318C24.0178 33.8397 23.5886 34.0832 23.0693 33.7809L12.0667 27.3839C11.5423 27.0798 11.1182 27.3319 11.1182 27.9352V40.7266L11.1176 40.7273V40.7279ZM38.9412 15.2868C38.9412 14.6773 39.3677 13.9362 39.8875 13.6339L48.8683 8.41083C49.3906 8.10703 49.8146 8.36428 49.8146 8.97892V34.3946C49.8146 35.0123 49.3814 35.7651 48.8531 36.0713L27.0086 48.7737C26.4772 49.0824 26.0473 48.8374 26.0473 48.2325V37.7802C26.0473 37.1723 26.476 36.4296 26.9958 36.128L37.993 29.7335C38.5159 29.4294 38.9415 28.683 38.9415 28.0788L38.9421 15.2858V15.2864H38.9415L38.9412 15.2868ZM27.9996 6.64285C27.4767 6.33905 27.4798 5.84507 27.9996 5.54188L36.9849 0.317867C37.5072 0.0140671 38.3575 0.0162109 38.8773 0.317867L47.8627 5.54341C48.3849 5.84721 48.3825 6.34119 47.8627 6.64438L38.8779 11.8696C38.3557 12.1734 37.5054 12.1713 36.9855 11.8696L28.0002 6.64346H27.9996V6.64285Z" fill="white"/>
</g>
<defs>
<clipPath id="clip0_637_1103">
<rect width="152" height="49" fill="white"/>
</clipPath>
</defs>
</svg>
