<svg width="226" height="75" viewBox="0 0 226 75" fill="none" xmlns="http://www.w3.org/2000/svg">
<path fill-rule="evenodd" clip-rule="evenodd" d="M100.037 1.19474C100.467 1.27289 100.74 1.6636 100.701 2.09338C100.545 3.22645 100.428 5.21908 100.623 7.48522C100.779 9.04807 101.092 10.7281 101.639 12.291L103.319 11.3142C104.061 10.8844 104.999 11.1579 105.429 11.9003L111.29 22.0588C111.719 22.8012 111.485 23.7389 110.743 24.1686L108.398 25.5361C109.062 27.4897 110.352 30.3419 112.501 33.1941C115.548 37.2575 119.534 40.7739 121.096 41.9851C121.253 42.1024 121.37 42.2977 121.409 42.5321C121.448 42.7275 121.37 42.9619 121.214 43.1182C119.807 44.7983 117.228 47.2598 114.064 49.2915C110.899 51.3232 107.031 52.9642 103.045 52.847C95.5047 52.6516 89.9175 51.5576 88.0421 50.9715C87.8077 50.8934 87.5733 50.698 87.5342 50.4636C87.4561 50.2292 87.4951 49.9557 87.6905 49.7213L91.285 45.3843C91.4413 45.189 91.7148 45.0718 91.9492 45.1108C93.5902 45.2671 97.6537 44.4857 99.8416 39.8753C100.936 37.5701 100.936 35.1477 100.506 32.9597C100.31 32.061 100.076 31.2405 99.7635 30.4982L83.6661 39.7972C82.9238 40.2269 81.9861 39.9534 81.5563 39.2111L80.9702 38.1952L69.5223 44.7983L67.9595 43.8996L80.1888 36.8277L79.0167 34.796L65.6152 42.5321L64.8338 42.0633L78.6259 34.0927L77.2585 31.7094L62.0988 40.4614L60.536 39.5627L76.5161 30.3419L75.7347 28.9744C75.3049 28.2321 75.5393 27.2943 76.2817 26.8646L93.8247 16.7451V16.667C93.2777 15.9246 91.793 14.6743 89.4878 14.8697C86.6746 15.1041 82.0251 16.5497 80.0325 17.253C79.7981 17.3312 79.5637 17.2921 79.3683 17.1749C79.1729 17.0577 79.0167 16.8623 78.9776 16.6279L78.3134 12.7208C78.2743 12.5254 78.3134 12.3301 78.4306 12.1347C79.9153 9.94671 82.7675 6.78193 86.5183 4.39859C90.2301 2.09338 94.9187 0.374247 100.037 1.19474ZM51.9403 44.5638L24.2778 60.544C24.2387 60.5831 24.1606 60.6221 24.1215 60.6612C22.2852 60.0361 20.2144 60.1923 18.3781 61.2473C15.0179 63.2008 13.8458 67.4987 15.7994 70.8588C17.7529 74.2189 22.0508 75.3911 25.4109 73.4375C27.3644 72.3044 28.5757 70.3509 28.8492 68.2801L60.9657 49.7603L59.4029 48.8617L28.8882 66.4828C28.8101 65.7014 28.5757 64.92 28.1849 64.1776L57.0586 47.5333L56.2772 47.1035L27.8333 63.5525C27.2863 62.732 26.6221 62.0678 25.8407 61.5598L53.5422 45.5797L51.9403 44.5638ZM100.897 14.518L95.1922 17.8L95.0359 18.894L99.7635 27.099C99.9589 27.3725 100.154 27.7241 100.389 28.1148L106.484 24.5984C106.445 24.4031 106.406 24.2468 106.367 24.0905C105.507 22.7621 103.436 19.3238 101.131 15.026C101.053 14.8697 100.975 14.6743 100.897 14.518ZM87.9249 22.0197L93.473 18.8159V18.9331C93.434 19.0894 93.473 19.2847 93.5512 19.441L98.2007 27.5288L87.9249 22.0197ZM107.851 23.6216C107.851 23.7389 107.89 23.817 107.929 23.9733L109.961 22.8012L104.1 12.6426L102.225 13.7366C102.303 13.932 102.42 14.0883 102.498 14.2836C104.843 18.6596 106.992 22.176 107.734 23.3872C107.812 23.4654 107.851 23.5435 107.851 23.6216ZM87.8077 22.8012L98.9821 28.8181C99.0211 28.8963 99.0602 29.0135 99.1384 29.0916L89.5268 34.6007L87.8077 22.8012ZM99.0602 2.64038C94.7233 2.17152 90.699 3.65623 87.3388 5.80515C83.9396 7.99314 81.3219 10.8453 79.8762 12.8771L80.3451 15.573C80.853 15.4167 81.4391 15.2213 82.0642 15.026V13.2287C83.2364 11.8612 86.7918 8.7355 91.5976 7.05543C95.4266 5.72701 97.8099 5.53165 98.9821 5.64887C98.943 4.47673 98.9821 3.46088 99.0602 2.64038ZM108.125 45.5016C104.804 46.3221 99.2556 46.3611 95.1531 46.1658C94.0591 46.5565 93.0042 46.6737 92.2227 46.6737L89.6831 49.7603C92.1055 50.3073 96.9113 51.0887 103.124 51.245C106.64 51.3232 110.196 49.8775 113.243 47.924C115.9 46.2048 118.127 44.2122 119.534 42.6884C118.83 42.1024 117.854 41.2819 116.838 40.266C115.079 42.0242 111.837 44.6029 108.125 45.5016ZM86.9872 22.5277L77.3366 28.1148L88.6673 34.1318L86.9872 22.5277ZM77.4538 29.0135L82.8847 38.4297L88.7845 35.0305L77.4538 29.0135ZM23.6918 70.3509C22.0117 71.3277 19.8628 70.7416 18.886 69.0615C17.9092 67.3815 18.4953 65.2325 20.1753 64.2558C21.8554 63.279 24.0043 63.865 24.9811 65.5451C25.9579 67.2252 25.3718 69.4132 23.6918 70.3509Z" fill="white"/>
<path fill-rule="evenodd" clip-rule="evenodd" d="M20.8787 2.09327C20.8005 1.66348 21.1131 1.27277 21.5429 1.19463C26.6612 0.374132 31.3498 2.09327 35.1006 4.51569C38.8515 6.9381 41.7037 10.0638 43.1884 12.2518C43.3056 12.4081 43.3446 12.6425 43.3056 12.8379L42.6414 16.745C42.6023 16.9794 42.4851 17.1748 42.2507 17.292C42.0553 17.4092 41.8209 17.4483 41.5864 17.3701C39.5938 16.6668 34.9443 15.2212 32.1312 14.9868C29.826 14.7914 28.3413 16.0417 27.7943 16.7841V16.8622L45.3373 26.9817C46.0796 27.4114 46.3141 28.3492 45.8843 29.0915L45.1029 30.459L97.3021 60.5829C97.3411 60.622 97.4193 60.6611 97.4583 60.7002C99.2947 60.075 101.365 60.2313 103.202 61.2862C106.562 63.2398 107.734 67.5376 105.781 70.8978C103.827 74.2579 99.5291 75.43 96.169 73.4765C94.2154 72.3434 93.0042 70.3898 92.7307 68.3191L40.6097 38.1951L40.0236 39.211C39.5938 39.9533 38.6561 40.2268 37.9137 39.797L21.8164 30.4981C21.5429 31.2404 21.2694 32.0609 21.074 32.9596C20.6052 35.1476 20.6442 37.57 21.7382 39.8752C23.9262 44.4856 27.9896 45.267 29.6306 45.1107C29.9041 45.0717 30.1386 45.1889 30.2948 45.3842L33.8894 49.7211C34.0457 49.9165 34.1238 50.19 34.0457 50.4635C33.9675 50.6979 33.7722 50.8933 33.5378 50.9714C31.6623 51.5184 26.0751 52.6515 18.5344 52.8468C14.5491 52.925 10.7201 51.284 7.5163 49.2914C4.35152 47.2596 1.77282 44.7982 0.366255 43.1181C0.20997 42.9618 0.170898 42.7274 0.170898 42.532C0.20997 42.3367 0.288112 42.1413 0.483469 41.985C2.04632 40.7738 6.03159 37.2965 9.07915 33.194C11.2281 30.3418 12.5174 27.4505 13.1816 25.536L10.8374 24.1685C10.095 23.7387 9.86057 22.801 10.2904 22.0587L16.151 11.9002C16.5808 11.1578 17.5185 10.8843 18.2609 11.3141L19.941 12.2909C20.488 10.728 20.8005 9.04795 20.9568 7.4851C21.1522 5.21897 21.035 3.22633 20.8787 2.09327ZM26.3877 17.7999L20.6833 14.5179C20.6052 14.6742 20.527 14.8696 20.4098 15.0259C18.1046 19.3237 16.0338 22.762 15.1743 24.0904C15.1352 24.2467 15.0961 24.403 15.0571 24.5983L21.1522 28.1147C21.3475 27.724 21.582 27.3724 21.7773 27.0989L26.5049 18.8939L26.3877 17.7999ZM28.1069 18.8158L33.655 22.0196L23.3792 27.5287L28.0287 19.4409C28.1069 19.2846 28.1459 19.0893 28.1069 18.933V18.8158ZM13.6114 23.9732C13.6505 23.856 13.6505 23.7387 13.6896 23.6215C13.6896 23.5434 13.7286 23.4262 13.8068 23.348C14.5491 22.1759 16.698 18.6595 19.0423 14.2444C19.1205 14.0491 19.2377 13.8928 19.3158 13.6974L17.4404 12.6034L11.5797 22.762L13.6114 23.9732ZM22.5978 28.818L33.7722 22.8401L32.053 34.6006L22.4415 29.0524C22.5197 28.9743 22.5587 28.8962 22.5978 28.818ZM34.241 5.80504C30.8809 3.65612 26.8566 2.17141 22.5197 2.64026C22.5978 3.46076 22.6369 4.47661 22.6369 5.60968C23.809 5.49247 26.2314 5.68782 30.0213 7.01625C34.8271 8.69631 38.3826 11.822 39.5547 13.1895V14.9868C40.1799 15.1821 40.7659 15.3775 41.2739 15.5338L41.7427 12.8379C40.258 10.8452 37.6402 7.99303 34.241 5.80504ZM26.4268 46.2047C22.3243 46.361 16.7762 46.361 13.4551 45.5405C9.78243 44.6028 6.53951 42.0241 4.78131 40.305C3.72638 41.3208 2.78867 42.1413 2.08539 42.7274C3.49196 44.2512 5.67995 46.2829 8.37586 47.9629C11.4234 49.9165 14.9789 51.3621 18.4953 51.284C24.7077 51.1277 29.5134 50.3463 31.9358 49.7993L29.3962 46.7126C28.5366 46.6736 27.5208 46.5564 26.4268 46.2047ZM44.2042 28.1147L34.5536 22.5275L32.8735 34.1317L44.2042 28.1147ZM38.6952 38.4295L44.1261 29.0134L32.7954 35.0303L38.6952 38.4295ZM95.7392 61.4816C94.9578 61.9895 94.2936 62.6537 93.7466 63.4742L42.9539 34.1317L44.3214 31.7484L95.7392 61.4816ZM93.3559 64.1384C92.9652 64.8808 92.7307 65.6622 92.6526 66.4436L41.3911 36.8276L42.5632 34.7959L93.3559 64.1384ZM102.694 69.0614C101.717 70.7415 99.5682 71.3275 97.8881 70.3508C96.2081 69.374 95.622 67.2251 96.5988 65.545C97.5756 63.8649 99.7245 63.2789 101.405 64.2556C103.085 65.2324 103.671 67.3813 102.694 69.0614Z" fill="white"/>
<path d="M171.274 35.4583L167.601 40.6157C164.28 40.6157 161.897 38.623 161.311 34.8722L160.451 29.4022C159.826 25.4951 158.849 24.5965 155.684 24.323L154.708 24.8309V35.3801C155.489 35.5364 156.075 35.6536 156.349 35.6536C156.857 35.6536 157.247 35.4192 158.107 34.2861L158.849 34.7941C157.755 36.1225 155.763 38.623 154.395 40.6547C150.957 39.2872 148.613 38.5449 144.471 38.5449C142.283 38.5449 141.306 39.0919 139.9 40.3031L139.274 39.5607L143.26 35.8881C144.862 34.4033 146.659 32.5279 146.659 29.4804V24.2448H145.682C143.533 24.2448 142.049 25.0653 141.502 26.3156L141.033 26.1202C141.228 21.8615 143.064 19.3609 146.385 19.3609H146.62V13.5784C143.025 10.8824 142.088 10.4917 141.423 10.4917C140.837 10.4917 140.29 10.8043 139.548 11.5076L139.001 10.8824L144.784 5.99854C147.05 7.63953 149.785 9.71031 151.894 11.2732L153.809 10.0229V9.00702C153.809 7.87395 153.575 6.66275 153.379 6.07668V5.99854L154.434 6.15482C154.59 6.70182 154.669 7.83488 154.669 8.73352V9.51495L160.099 6.0376C163.733 7.1316 166.976 8.85074 166.976 13.3049C166.976 16.8213 165.062 19.5953 160.607 21.5098C164.085 21.9396 165.335 24.6355 165.882 27.8003L166.663 32.2935C167.25 35.6927 168.265 35.9662 169.125 35.9662C169.594 35.9662 169.984 35.6146 170.453 34.8722L171.274 35.4583ZM153.809 11.0387C152.988 11.5857 151.934 12.2499 151.934 12.2499V25.8467C151.934 30.1055 149.394 32.3716 146.425 34.3252L146.464 34.4033C147.05 34.208 147.87 33.9736 149.003 33.9736C150.097 33.9736 152.129 34.755 153.809 35.1066V11.0387ZM156.349 9.4368L154.708 10.4917V23.815C159.787 21.5489 161.506 19.2437 161.506 15.571C161.467 11.9374 159.396 10.2964 156.349 9.4368Z" fill="white"/>
<path d="M187.684 36.8647C186.629 37.8805 185.105 39.3262 184.206 40.2639C182.722 39.1308 180.846 37.8024 179.947 37.1382L176.314 40.2639C175.025 39.209 172.954 37.6852 171.352 36.6303V36.4349C171.86 36.1223 172.133 35.6925 172.133 34.1297V28.9723C173.774 28.1909 175.22 27.4094 176.236 26.7843C174.36 26.081 172.797 24.3619 172.797 21.8613C172.797 18.6575 174.36 17.1728 175.767 15.4927C176.509 14.5941 176.978 13.9689 177.447 13.1875C179.635 14.1643 183.503 15.9225 186.043 16.8602V17.0556C185.496 17.4853 185.261 18.0714 185.261 19.2045V35.6925C185.691 36.1223 187.098 36.9428 187.605 36.7475L187.684 36.8647ZM180.534 19.3998C178.541 18.1886 177.681 17.6416 176.783 17.6416C175.962 17.6416 173.891 18.2277 173.891 21.8613C173.891 24.2837 176.04 26.2764 179.049 26.2764C179.479 26.2764 180.026 26.1201 180.573 25.9638L180.534 19.3998ZM180.534 35.38V27.0187C180.026 27.2141 179.518 27.3313 178.971 27.3313C178.267 27.3313 177.486 27.1359 176.9 26.9797C176.665 27.4094 176.587 28.0737 176.587 28.8942V35.38C177.369 35.8879 177.955 36.3958 178.853 36.9038L180.534 35.38Z" fill="white"/>
<path d="M197.647 36.8649L194.052 40.2641C193.037 39.4827 190.966 37.998 189.676 37.1775V36.9821C190.262 36.6305 190.458 36.1225 190.458 34.8332V17.759L189.872 17.4074C188.895 16.8213 188.582 16.8213 188.074 16.8213L188.035 16.626L191.63 13.1877C192.646 13.9691 194.599 15.3757 196.006 16.3134V16.5088C195.459 16.8213 195.225 17.2902 195.225 18.5405V35.7318C196.631 36.6305 197.139 36.7477 197.569 36.7477L197.647 36.8649ZM191.864 10.8825L190.38 9.28058C191.669 7.99123 194.756 4.70925 195.537 3.53711C195.889 4.00596 196.826 5.95953 197.217 7.01445C196.123 7.95216 193.349 9.98387 191.864 10.8825Z" fill="white"/>
<path d="M214.174 17.6418C213.627 18.1107 213.393 18.4623 213.393 20.1815V35.1848C210.775 36.6695 208.431 38.0761 205.539 40.2641C204.015 39.2483 200.968 37.4119 199.21 36.4742V36.2788C199.679 36.0444 199.991 35.5756 199.991 34.6769V17.6809C201.007 17.1339 203.468 15.6492 204.992 14.6334L203.351 12.8361C201.163 10.4137 200.694 9.90574 200.694 7.95217C200.694 6.58468 201.476 4.7874 202.179 3.49805L202.687 3.6934C202.414 4.98275 202.726 5.95954 205.305 8.49917C205.305 8.49917 212.572 16.079 214.213 17.4074V17.6418H214.174ZM208.665 36.904V18.5405L205.735 15.4148L204.719 16.0399V34.6378C205.617 35.2239 207.571 36.396 208.587 36.943L208.665 36.904Z" fill="white"/>
<path d="M157.325 59.2917C157.325 61.7141 155.724 63.3942 153.497 64.8789L146.893 69.4112C142.596 67.4185 138.649 66.2464 135.641 66.2464C132.281 66.2464 129.937 67.5748 129.937 71.8727L129.78 71.9117L128.764 71.0522C129.546 65.9729 132.203 63.1988 134.625 62.5346C135.055 61.7141 135.407 60.542 135.407 58.0414V52.6887H134.86C132.672 52.6887 131.187 53.2357 130.444 54.7594L130.015 54.5641C130.484 49.8365 132.632 47.8048 135.289 47.8048H135.485V41.9441C132.125 39.5217 131.304 38.8575 130.054 38.8575C129.272 38.8575 128.999 39.2091 128.217 39.8733L127.67 39.2482L133.453 34.3643C135.289 35.7708 138.22 37.8416 140.603 39.5607L142.713 38.076V37.49C142.713 36.3569 142.478 35.1457 142.283 34.5596V34.4815L143.26 34.6377C143.416 35.1847 143.533 36.3178 143.533 37.2165V37.529L147.909 34.4424C149.941 35.9662 153.731 39.9514 155.802 42.5692L149.316 47.1796C154.122 47.8829 157.365 50.9305 157.365 55.3846L157.325 59.2917ZM142.752 39.1309L140.837 40.4984V55.7753C140.837 58.354 138.728 59.7996 135.954 62.1049L135.993 62.183C136.774 61.9486 138.298 61.5969 139.743 61.5969C140.564 61.5969 141.814 61.8314 142.713 62.0267L142.752 39.1309ZM150.722 45.0307C149.199 42.8818 146.19 39.5217 144.198 38.1151L143.572 38.5449V50.0709L150.722 45.0307ZM152.051 56.6349C152.051 52.884 149.433 50.6179 144.94 50.6179C144.432 50.6179 143.924 50.8133 143.572 51.0477V62.2611C146.151 62.8863 148.925 64.1756 151.387 65.4259L151.543 65.3478C152.012 64.6054 152.09 64.2147 152.09 62.0267L152.051 56.6349Z" fill="white"/>
<path d="M170.844 50.4224H170.649C169.515 49.1721 167.796 46.7106 167.249 45.3822L166.273 46.398V63.1205C168.461 64.488 168.89 64.6834 169.594 64.6834C169.906 64.6834 170.18 64.4099 170.453 64.0973L170.883 63.6285L171.664 64.3317C168.969 67.0277 167.21 68.8249 167.21 68.8249C165.296 67.5356 163.186 66.4025 160.803 65.2304V65.035C161.311 64.5662 161.584 64.1755 161.584 62.7298V46.2808C160.607 45.5385 159.982 45.265 159.279 45.2259L159.201 45.0696C160.256 44.0928 161.623 42.8816 162.678 41.6704C163.967 42.7253 165.335 43.9756 166.507 44.8743C168.109 43.5068 168.617 42.9598 169.945 41.6704C170.805 43.0379 172.368 45.265 173.813 46.7497C172.837 47.6874 171.703 49.2112 170.844 50.4224Z" fill="white"/>
<path d="M189.676 45.6166C189.246 45.9292 188.895 46.359 188.895 47.6874V63.6675C186.785 64.8788 183.464 66.9105 181.002 68.7468C178.971 67.3793 176.626 65.8946 174.712 64.8006V64.6053C175.259 64.3708 175.493 63.7848 175.493 62.808V46.7106C177.838 45.3822 181.002 43.3505 183.386 41.6313C185.3 42.8816 187.684 44.3663 189.676 45.4213V45.6166ZM184.167 65.4648V47.2967C183.112 46.5543 181.549 45.6166 180.377 44.9133L180.221 44.9524V63.1205C181.237 63.8629 183.034 64.9569 184.089 65.543L184.167 65.4648Z" fill="white"/>
<path d="M207.415 45.6166C206.985 45.9292 206.633 46.359 206.633 47.6874V63.6675C204.523 64.8788 201.202 66.9105 198.741 68.7468C196.709 67.3793 194.365 65.8946 192.45 64.8006V64.6053C192.997 64.3708 193.232 63.7848 193.232 62.808V46.7106C195.576 45.3822 198.741 43.3505 201.124 41.6313C203.039 42.8816 205.422 44.3663 207.415 45.4213V45.6166ZM201.906 65.4648V47.2967C200.851 46.5543 199.288 45.6166 198.116 44.9133L197.959 44.9524V63.1205C198.975 63.8629 200.773 64.9569 201.828 65.543L201.906 65.4648Z" fill="white"/>
<path d="M225.114 46.1247C224.567 46.5936 224.333 46.9452 224.333 48.6644V63.6678C221.715 65.1525 219.371 66.559 216.479 68.747C214.956 67.7312 211.908 65.8948 210.15 64.9571V64.7617C210.619 64.5273 210.931 64.0585 210.931 63.1598V46.1638C211.947 45.6168 214.409 44.1321 215.932 43.1163L214.291 41.319C212.103 38.8966 211.635 38.3886 211.635 36.4351C211.635 35.0676 212.416 33.2703 213.119 31.981L213.627 32.1763C213.354 33.4657 213.666 34.4424 216.245 36.9821C216.245 36.9821 223.512 44.5619 225.153 45.8903V46.1247H225.114ZM219.605 65.426V47.0625L216.675 43.9368L215.659 44.5619V63.1598C216.558 63.7459 218.511 64.918 219.527 65.465L219.605 65.426Z" fill="white"/>
</svg>
