<svg width="200" height="43" viewBox="0 0 200 43" fill="none" xmlns="http://www.w3.org/2000/svg">
<path d="M35.6478 18.7851C35.4748 18.3218 35.0316 18.0137 34.5363 18.0137H20.2271L28.4808 1.96605C28.7403 1.46123 28.6064 0.84383 28.1597 0.493062C27.944 0.322418 27.6845 0.238281 27.4261 0.238281C27.15 0.238281 26.8739 0.335453 26.6523 0.526243L0.581906 23.0418C0.20744 23.3653 0.0723482 23.8879 0.245361 24.3512C0.418374 24.8146 0.860386 25.1239 1.35572 25.1239H15.6648L7.41117 41.1715C7.15165 41.6763 7.28556 42.2937 7.73231 42.6445C7.94798 42.8151 8.2075 42.8993 8.46584 42.8993C8.74195 42.8993 9.01806 42.8021 9.23965 42.6113L35.3101 20.0958C35.6857 19.7723 35.8196 19.2497 35.6478 18.7851Z" fill="white"/>
<path d="M55.5905 30.6846C57.7787 30.6846 59.5583 30.1427 60.9293 29.0588C62.3004 27.9611 62.9859 26.4881 62.9859 24.64C62.9721 21.8192 61.3517 20.0267 58.1249 19.2625L54.1364 18.3245C52.8346 17.9771 52.1837 17.3935 52.1837 16.5737C52.1837 15.865 52.4814 15.3231 53.077 14.9479C53.6725 14.5727 54.3788 14.3851 55.1958 14.3851C57.0655 14.3851 58.2149 15.0799 58.6442 16.4694H62.8197C62.4735 14.7186 61.6633 13.3499 60.3892 12.3633C59.1151 11.3767 57.4186 10.8834 55.2997 10.8834C53.1808 10.8834 51.4497 11.4462 50.1063 12.5717C48.763 13.6973 48.0913 15.1146 48.0913 16.8238C48.0913 19.5612 49.6493 21.2981 52.7654 22.0346L56.6915 22.9726C57.4948 23.1671 58.0626 23.4172 58.395 23.7229C58.7273 24.0286 58.8935 24.4872 58.8935 25.0986C58.8935 25.7239 58.6027 26.2311 58.021 26.6201C57.4394 27.0092 56.6569 27.2038 55.6736 27.2038C53.6517 27.2038 52.3984 26.4048 51.9136 24.8068H47.572C47.849 26.6132 48.7076 28.0444 50.1479 29.1005C51.5882 30.1566 53.4024 30.6846 55.5905 30.6846ZM71.3863 30.0935V17.7412C71.6075 16.8461 72.0844 16.1232 72.817 15.5723C73.5496 15.0215 74.448 14.7461 75.5124 14.7461C76.5767 14.7461 77.4061 15.0835 78.0005 15.7583C78.5949 16.433 78.8921 17.3763 78.8921 18.5881V30.0935H83.1426V17.8652C83.1287 15.7445 82.5413 14.0507 81.3802 12.7838C80.219 11.5169 78.581 10.8834 76.4662 10.8834C74.3513 10.8834 72.658 11.6202 71.3863 13.0936V11.3172H67.1358V30.0935H71.3863ZM94.33 30.3856C95.3236 30.4131 96.2619 30.2757 97.1451 29.9733C98.0282 29.6709 98.6423 29.348 98.9872 29.0044V30.0558H103.003V17.769C103.003 15.625 102.34 13.9414 101.016 12.7182C99.691 11.495 97.9592 10.8834 95.8203 10.8834C93.6953 10.8834 91.9428 11.4126 90.5629 12.4708C89.1829 13.5291 88.355 14.876 88.079 16.5114H92.1567C92.6396 15.1508 93.716 14.4705 95.3857 14.4705C96.5448 14.4705 97.4348 14.7866 98.0558 15.4188C98.6768 16.051 98.9872 16.8619 98.9872 17.8514V19.377C98.5871 19.0884 97.9592 18.8272 97.1037 18.5936C96.2481 18.36 95.4202 18.2431 94.6198 18.2431C92.5223 18.2569 90.7767 18.8272 89.383 19.9542C87.9893 21.0812 87.2925 22.5449 87.2925 24.3453C87.2925 26.1457 87.9617 27.6025 89.3002 28.7158C90.6526 29.829 92.3292 30.3856 94.33 30.3856ZM94.8453 27.1381C93.8862 27.1381 93.0299 26.9062 92.2763 26.4425C91.5227 25.9787 91.1459 25.3171 91.1459 24.4578C91.1459 23.5985 91.5296 22.9437 92.2968 22.4936C93.0641 22.0435 93.9273 21.8184 94.8864 21.8184C95.8455 21.8184 96.6949 21.9957 97.4348 22.3504C98.1747 22.705 98.6474 23.162 98.8529 23.7212V25.2558C98.6337 25.8014 98.1541 26.2515 97.4143 26.6061C96.6607 26.9608 95.8044 27.1381 94.8453 27.1381ZM112.291 37.482V28.6158C112.747 29.1986 113.411 29.6842 114.281 30.0727C115.152 30.4612 116.085 30.6554 117.08 30.6554C119.733 30.6554 121.854 29.6981 123.443 27.7833C125.033 25.8685 125.827 23.5306 125.827 20.7694C125.813 18.0083 125.019 15.6703 123.443 13.7556C121.868 11.8408 119.747 10.8834 117.08 10.8834C116.085 10.8834 115.152 11.0846 114.281 11.487C113.411 11.8894 112.747 12.375 112.291 12.9439V11.3205H108.042V37.482H112.291ZM116.342 26.8426C115.452 26.8426 114.634 26.6082 113.886 26.1395C113.138 25.6708 112.573 25.0712 112.192 24.3406V17.2275C112.573 16.4968 113.138 15.8972 113.886 15.4285C114.634 14.9598 115.452 14.7255 116.342 14.7255C117.993 14.7255 119.299 15.2906 120.258 16.421C121.204 17.5514 121.677 19.0057 121.677 20.784C121.691 22.5623 121.218 24.0166 120.258 25.147C119.299 26.2774 117.993 26.8426 116.342 26.8426ZM136.514 30.6846C138.702 30.6846 140.481 30.1427 141.852 29.0588C143.223 27.9611 143.909 26.4881 143.909 24.64C143.895 21.8192 142.275 20.0267 139.048 19.2625L135.059 18.3245C133.758 17.9771 133.107 17.3935 133.107 16.5737C133.107 15.865 133.405 15.3231 134 14.9479C134.596 14.5727 135.302 14.3851 136.119 14.3851C137.989 14.3851 139.138 15.0799 139.567 16.4694H143.743C143.397 14.7186 142.586 13.3499 141.312 12.3633C140.038 11.3767 138.342 10.8834 136.223 10.8834C134.104 10.8834 132.373 11.4462 131.029 12.5717C129.686 13.6973 129.014 15.1146 129.014 16.8238C129.014 19.5612 130.572 21.2981 133.688 22.0346L137.615 22.9726C138.418 23.1671 138.986 23.4172 139.318 23.7229C139.65 24.0286 139.817 24.4872 139.817 25.0986C139.817 25.7239 139.526 26.2311 138.944 26.6201C138.362 27.0092 137.58 27.2038 136.597 27.2038C134.575 27.2038 133.321 26.4048 132.837 24.8068H128.495C128.772 26.6132 129.631 28.0444 131.071 29.1005C132.511 30.1566 134.325 30.6846 136.514 30.6846ZM152.606 30.389V17.9076C152.827 17.0031 153.304 16.2726 154.036 15.716C154.769 15.1594 155.668 14.8811 156.732 14.8811C157.796 14.8811 158.626 15.222 159.22 15.9038C159.814 16.5857 160.112 17.5388 160.112 18.7633V30.389H164.362V18.0328C164.348 15.8899 163.761 14.1784 162.6 12.8983C161.439 11.6181 159.801 10.978 157.686 10.978C155.571 10.978 153.877 11.7225 152.606 13.2113V2.60834H148.355V30.389H152.606ZM176.97 30.6846C179.646 30.6846 181.82 29.7605 183.492 27.9124C185.165 26.0643 186.001 23.6882 186.001 20.784C186.001 17.8798 185.165 15.5037 183.492 13.6556C181.82 11.8075 179.646 10.8834 176.97 10.8834C174.281 10.8834 172.1 11.8075 170.428 13.6556C168.755 15.5037 167.919 17.8798 167.919 20.784C167.919 23.6882 168.755 26.0643 170.428 27.9124C172.114 29.7605 174.295 30.6846 176.97 30.6846ZM177.119 27.1381C175.618 27.1381 174.45 26.5638 173.616 25.4153C172.782 24.2667 172.365 22.7722 172.365 20.9318C172.365 19.0913 172.782 17.5968 173.616 16.4483C174.436 15.2997 175.604 14.7255 177.119 14.7255C178.633 14.7255 179.801 15.2997 180.621 16.4483C181.441 17.5968 181.851 19.0913 181.851 20.9318C181.851 22.7722 181.441 24.2667 180.621 25.4153C179.801 26.5638 178.633 27.1381 177.119 27.1381ZM196.456 30.6846C198.001 30.6846 199.16 30.4642 199.933 30.0235V26.16C199.229 26.6697 198.422 26.9245 197.512 26.9245C196.022 26.9245 195.277 26.1945 195.277 24.7345V15.0036H199.519V11.4914H195.277V6.45035H191.035V11.4914H188.076V15.0036H191.035V25.189C191.035 26.9796 191.552 28.3431 192.587 29.2797C193.621 30.2163 194.911 30.6846 196.456 30.6846Z" fill="white"/>
</svg>
