<svg width="309" height="62" viewBox="0 0 309 62" fill="none" xmlns="http://www.w3.org/2000/svg">
<path d="M91.4365 33.2333C91.4289 34.5016 91.0486 35.6039 90.3009 36.5381C89.5584 37.4668 88.5427 38.1841 87.2515 38.6944C85.968 39.197 84.5032 39.4472 82.8546 39.4472C80.1318 39.4472 78.0009 38.8909 76.4622 37.7757C74.931 36.663 74.0761 35.1932 73.8975 33.3686H80.2543C80.3384 33.9325 80.6165 34.3689 81.0888 34.6802C81.5685 34.9813 82.1706 35.1319 82.8979 35.1319C83.4848 35.1319 83.9698 35.0324 84.3474 34.8308C84.7353 34.6291 84.9318 34.3435 84.9394 33.9734C84.9318 33.634 84.7608 33.3634 84.429 33.162C84.1051 32.9603 83.5947 32.7995 82.8979 32.6744L79.7439 32.1181C77.9269 31.8016 76.5668 31.1968 75.6609 30.3088C74.7548 29.4208 74.3084 28.2749 74.316 26.8765C74.3084 25.6389 74.6323 24.5927 75.2909 23.7327C75.9568 22.8675 76.9036 22.2092 78.1336 21.76C79.3712 21.3033 80.836 21.0762 82.5305 21.0762C85.1054 21.0762 87.1366 21.6094 88.6192 22.6761C90.112 23.7429 90.8957 25.2203 90.9746 27.1063H85.0823C85.0519 26.7438 84.9242 26.4299 84.6997 26.1671C84.4749 25.9043 84.1841 25.7026 83.8295 25.5649C83.4822 25.417 83.0943 25.3454 82.6684 25.3454C82.1197 25.3454 81.6474 25.4451 81.2519 25.6465C80.8564 25.8482 80.665 26.134 80.6728 26.5041C80.665 26.7669 80.7772 27.0092 81.0096 27.2337C81.2496 27.4585 81.7088 27.6318 82.3902 27.7569L86.0086 28.4076C87.8332 28.7394 89.191 29.3009 90.079 30.0895C90.9773 30.8703 91.4289 31.9191 91.4365 33.2333ZM105.699 31.3321C105.707 31.9191 105.602 32.4268 105.385 32.8506C105.176 33.269 104.875 33.5931 104.479 33.8252C104.094 34.05 103.632 34.1623 103.099 34.1623C102.295 34.1623 101.667 33.9121 101.221 33.4093C100.779 32.9068 100.554 32.2152 100.547 31.3321V21.3083H94.1441V32.677C94.1517 33.976 94.4121 35.1295 94.9225 36.1347C95.4405 37.1403 96.1628 37.9289 97.0915 38.5004C98.028 39.0721 99.1177 39.3577 100.363 39.3577C101.693 39.3577 102.841 39.0414 103.808 38.406C104.775 37.7629 105.451 36.8749 105.837 35.7393H106.023V39.1256H112.102V21.3083H105.699V31.3321ZM132.815 24.9753C133.489 26.3202 133.823 28.0683 133.823 30.2196C133.823 32.3707 133.502 33.981 132.861 35.3361C132.229 36.6886 131.376 37.6992 130.31 38.3627C129.25 39.0286 128.087 39.3604 126.818 39.3604C125.984 39.3604 125.236 39.225 124.581 38.9546C123.93 38.6764 123.373 38.3013 122.909 37.8292C122.452 37.3496 122.1 36.8085 121.853 36.2063H121.761V45.8116H115.358V21.3083H121.715V24.4165H121.855C122.087 23.8143 122.427 23.2606 122.876 22.7579C123.325 22.2475 123.881 21.8418 124.545 21.5407C125.211 21.2318 125.984 21.0762 126.864 21.0762C128.041 21.0762 129.158 21.3899 130.217 22.0152C131.284 22.6404 132.152 23.6281 132.815 24.973V24.9753ZM127.237 30.2196C127.237 29.3392 127.125 28.5838 126.9 27.9586C126.683 27.3258 126.367 26.8408 125.948 26.5091C125.537 26.1697 125.04 25.9987 124.453 25.9987C123.866 25.9987 123.358 26.1697 122.935 26.5091C122.516 26.8408 122.192 27.3258 121.96 27.9586C121.735 28.5838 121.623 29.3392 121.623 30.2196C121.623 31.1 121.735 31.8349 121.96 32.4704C122.192 33.0956 122.516 33.5829 122.935 33.9325C123.361 34.2719 123.866 34.4429 124.453 34.4429C125.04 34.4429 125.54 34.2771 125.948 33.9453C126.367 33.606 126.683 33.1211 126.9 32.4958C127.125 31.863 127.237 31.105 127.237 30.222V30.2196ZM153.651 26.4044C154.07 27.5324 154.277 28.8057 154.277 30.2196V31.7048H142.679V31.9828C142.679 32.5546 142.798 33.0649 143.038 33.5139C143.278 33.9632 143.623 34.3154 144.072 34.5706C144.521 34.8258 145.062 34.9533 145.695 34.9533C146.136 34.9533 146.537 34.8921 146.902 34.767C147.272 34.6446 147.591 34.4659 147.854 34.2336C148.117 33.9939 148.31 33.708 148.433 33.3762H154.279C154.078 34.6139 153.603 35.6881 152.853 36.6018C152.103 37.5077 151.11 38.2095 149.872 38.7123C148.642 39.2072 147.203 39.4548 145.557 39.4548C143.653 39.4548 142.015 39.0926 140.639 38.3651C139.272 37.6302 138.215 36.5788 137.473 35.211C136.738 33.8355 136.37 32.1871 136.37 30.2705C136.37 28.3541 136.74 26.8204 137.483 25.445C138.225 24.0695 139.272 22.9976 140.627 22.232C141.979 21.4665 143.577 21.0838 145.417 21.0838C146.761 21.0838 147.981 21.2931 149.071 21.7091C150.161 22.1274 151.092 22.7348 151.865 23.531C152.639 24.3197 153.233 25.2791 153.651 26.4071V26.4044ZM148.384 28.1781C148.377 27.6677 148.244 27.2185 147.989 26.8332C147.741 26.4377 147.405 26.134 146.981 25.9171C146.562 25.6924 146.088 25.5801 145.555 25.5801C145.021 25.5801 144.562 25.6924 144.128 25.9171C143.694 26.134 143.347 26.4351 143.084 26.823C142.829 27.2109 142.694 27.6625 142.679 28.1805H148.384V28.1781ZM167.84 21.0786C166.889 21.0786 166.059 21.3697 165.348 21.9488C164.642 22.5281 164.13 23.4442 163.802 24.6973H163.617V21.311H157.4V39.1256H163.802V29.8469C163.802 29.1656 163.945 28.5762 164.232 28.0735C164.518 27.5631 164.908 27.1674 165.403 26.8893C165.907 26.6035 166.47 26.4606 167.098 26.4606C167.429 26.4606 167.828 26.4886 168.292 26.5424C168.756 26.5959 169.146 26.6774 169.462 26.7847V21.3212C169.208 21.2446 168.939 21.1859 168.661 21.1476C168.392 21.1017 168.116 21.0786 167.838 21.0786H167.84ZM194.648 21.0786C193.325 21.0786 192.172 21.4104 191.19 22.0765C190.208 22.7348 189.568 23.6076 189.266 24.6973H189.08C188.892 23.6076 188.35 22.7322 187.444 22.0765C186.538 21.4104 185.461 21.0786 184.207 21.0786C182.954 21.0786 181.903 21.4028 181.006 22.0534C180.11 22.7041 179.475 23.5846 179.104 24.6973H178.918V21.311H172.839V39.1256H179.242V28.7318C179.242 28.2138 179.327 27.7698 179.496 27.3971C179.677 27.0194 179.924 26.7286 180.24 26.5269C180.557 26.3255 180.937 26.2258 181.377 26.2258C182.043 26.2258 182.571 26.4503 182.968 26.8996C183.363 27.341 183.56 27.951 183.56 28.7318V39.1256H189.684V28.7318C189.684 27.951 189.872 27.341 190.253 26.8996C190.64 26.4503 191.161 26.2258 191.82 26.2258C192.479 26.2258 193.014 26.4503 193.411 26.8996C193.806 27.341 194.001 27.951 194.001 28.7318V39.1256H200.405V27.1089C200.405 25.2843 199.87 23.8219 198.805 22.7246C197.747 21.6273 196.36 21.0786 194.653 21.0786H194.648ZM220.528 25.4629C221.263 26.8382 221.631 28.4409 221.631 30.2655C221.631 32.0901 221.263 33.6952 220.528 35.0783C219.793 36.4539 218.737 37.5308 217.362 38.3039C215.985 39.0695 214.33 39.4522 212.399 39.4522C210.468 39.4522 208.81 39.0695 207.433 38.3039C206.056 37.5308 205 36.4563 204.265 35.0783C203.531 33.6952 203.164 32.0901 203.164 30.2655C203.164 28.4409 203.531 26.8408 204.265 25.4629C205 24.0797 206.056 23.0028 207.433 22.2373C208.808 21.4641 210.463 21.0762 212.399 21.0762C214.332 21.0762 215.985 21.4641 217.362 22.2373C218.737 23.0028 219.793 24.0771 220.528 25.4629ZM215.089 30.2196C215.089 29.2831 214.982 28.4842 214.765 27.8183C214.546 27.1445 214.242 26.6266 213.847 26.2641C213.453 25.9017 212.986 25.7181 212.444 25.7181C211.873 25.7181 211.381 25.8993 210.972 26.2641C210.561 26.6266 210.249 27.1445 210.033 27.8183C209.816 28.4842 209.709 29.2831 209.709 30.2196C209.709 31.1562 209.816 31.9472 210.033 32.6209C210.249 33.2947 210.563 33.8126 210.972 34.1751C211.383 34.5373 211.873 34.7211 212.444 34.7211C212.986 34.7211 213.453 34.5399 213.847 34.1751C214.244 33.8126 214.546 33.2947 214.765 32.6209C214.982 31.9472 215.089 31.1485 215.089 30.2196ZM236.243 15.3701H242.645V39.1256H236.288V36.2037H236.148C235.901 36.8059 235.546 37.3469 235.083 37.8266C234.626 38.2987 234.069 38.674 233.411 38.952C232.759 39.2227 232.019 39.3577 231.182 39.3577C229.915 39.3577 228.747 39.0262 227.679 38.3601C226.621 37.6939 225.769 36.686 225.127 35.3335C224.495 33.981 224.176 32.2763 224.176 30.217C224.176 28.1577 224.507 26.3202 225.172 24.973C225.848 23.6281 226.711 22.6404 227.772 22.0152C228.837 21.3899 229.96 21.0762 231.135 21.0762C232.015 21.0762 232.788 21.2318 233.454 21.5407C234.119 21.8418 234.676 22.2475 235.125 22.7579C235.575 23.2606 235.915 23.8143 236.146 24.4165H236.238V15.3701H236.243ZM236.383 30.217C236.383 29.3366 236.267 28.5812 236.036 27.956C235.813 27.3231 235.487 26.8382 235.061 26.5065C234.643 26.1671 234.141 25.9961 233.553 25.9961C232.966 25.9961 232.464 26.1671 232.046 26.5065C231.634 26.8382 231.318 27.3231 231.094 27.956C230.878 28.5812 230.768 29.3366 230.768 30.217C230.768 31.0974 230.878 31.8554 231.094 32.4908C231.318 33.1158 231.634 33.6007 232.046 33.9401C232.464 34.2719 232.966 34.4379 233.553 34.4379C234.141 34.4379 234.643 34.2669 235.061 33.9275C235.487 33.5803 235.813 33.093 236.036 32.4651C236.269 31.8323 236.383 31.0822 236.383 30.2144V30.217ZM257.345 31.3295C257.352 31.9165 257.248 32.4245 257.031 32.848C256.822 33.2666 256.52 33.5905 256.125 33.8229C255.738 34.0474 255.279 34.1596 254.744 34.1596C253.94 34.1596 253.312 33.9097 252.867 33.4069C252.425 32.9042 252.201 32.2126 252.192 31.3295V21.3083H245.789V32.677C245.797 33.976 246.058 35.1295 246.569 36.1347C247.086 37.1403 247.809 37.9289 248.738 38.5004C249.673 39.0721 250.765 39.3577 252.009 39.3577C253.338 39.3577 254.487 39.0414 255.455 38.406C256.42 37.7629 257.098 36.8749 257.483 35.7393H257.669V39.1256H263.748V21.3083H257.345V31.3321V31.3295ZM267.003 39.1256H273.406V15.3701H267.003V39.1256ZM292.593 24.6258C292.971 25.3302 293.164 26.0957 293.164 26.9224V39.1256H287.176V36.6197H287.038C286.683 37.2858 286.25 37.8216 285.739 38.2324C285.237 38.6433 284.659 38.9394 284.012 39.1256C283.373 39.3118 282.662 39.4039 281.889 39.4039C280.754 39.4039 279.748 39.2174 278.873 38.8474C278.007 38.4697 277.327 37.8956 276.83 37.13C276.336 36.3645 276.088 35.3897 276.088 34.2081C276.088 33.2333 276.255 32.4014 276.585 31.715C276.918 31.0182 277.382 30.4517 277.979 30.0103C278.573 29.5689 279.266 29.2319 280.057 29.0022C280.852 28.7701 281.713 28.6195 282.631 28.5506C283.63 28.474 284.431 28.3796 285.033 28.2725C285.644 28.1577 286.084 27.9969 286.355 27.7978C286.626 27.5886 286.762 27.3155 286.762 26.9735V26.9276C286.762 26.4632 286.581 26.1083 286.227 25.861C285.872 25.6134 285.416 25.491 284.859 25.491C284.25 25.491 283.748 25.626 283.363 25.8967C282.987 26.1595 282.757 26.5652 282.681 27.1139H276.787C276.863 26.032 277.208 25.0341 277.822 24.1206C278.438 23.1993 279.339 22.467 280.524 21.9157C281.708 21.3595 283.182 21.0812 284.954 21.0812C286.229 21.0812 287.375 21.2318 288.386 21.5328C289.399 21.8263 290.262 22.2399 290.974 22.7731C291.685 23.2989 292.227 23.9163 292.596 24.6284L292.593 24.6258ZM286.807 31.3295C286.636 31.3985 286.455 31.4648 286.26 31.5262C286.074 31.5873 285.872 31.6461 285.658 31.6996C285.449 31.7533 285.225 31.8042 284.985 31.8501C284.752 31.896 284.51 31.9395 284.255 31.9778C283.76 32.0544 283.354 32.1819 283.037 32.3605C282.728 32.5315 282.495 32.7434 282.341 32.9986C282.193 33.2462 282.122 33.5242 282.122 33.8331C282.122 34.328 282.295 34.7057 282.645 34.9687C282.992 35.2315 283.437 35.3642 283.979 35.3642C284.467 35.3642 284.923 35.2646 285.347 35.0631C285.78 34.8614 286.134 34.573 286.403 34.1929C286.674 33.8153 286.809 33.3532 286.809 32.8124V31.3271L286.807 31.3295ZM307.74 21.145C307.469 21.0991 307.193 21.0762 306.915 21.0762C305.964 21.0762 305.131 21.3671 304.423 21.9464C303.719 22.5255 303.205 23.4416 302.881 24.6947H302.694V21.3083H296.479V39.1256H302.881V29.8469C302.881 29.1656 303.024 28.5762 303.31 28.0735C303.595 27.5631 303.985 27.1674 304.482 26.8893C304.984 26.6035 305.547 26.4606 306.175 26.4606C306.506 26.4606 306.905 26.4886 307.369 26.5424C307.833 26.5959 308.225 26.6774 308.542 26.7847V21.3212C308.285 21.2446 308.018 21.1859 307.74 21.1476V21.145Z" fill="white"/>
<path fill-rule="evenodd" clip-rule="evenodd" d="M49.6046 26.2412C49.6046 32.5737 54.7221 37.6912 61.0546 37.6912V49.5824C48.1548 49.5824 37.7134 39.141 37.7134 26.2412H49.6046Z" fill="url(#paint0_linear_4854_1043)"/>
<path fill-rule="evenodd" clip-rule="evenodd" d="M37.7134 61.0326C37.7134 48.1328 48.1548 37.6914 61.0546 37.6914V49.5826C54.7221 49.5826 49.6046 54.7001 49.6046 61.0326H37.7134Z" fill="url(#paint1_linear_4854_1043)"/>
<path fill-rule="evenodd" clip-rule="evenodd" d="M11.6219 34.9408C11.6219 28.6083 6.50441 23.4908 0.171875 23.4908V11.5996C13.0717 11.5996 23.5131 22.041 23.5131 34.9408H11.6219Z" fill="url(#paint2_linear_4854_1043)"/>
<path fill-rule="evenodd" clip-rule="evenodd" d="M23.5131 0.149414C23.5131 13.0492 13.0717 23.4906 0.171875 23.4906V11.5994C6.50441 11.5994 11.6219 6.48195 11.6219 0.149414H23.5131Z" fill="url(#paint3_linear_4854_1043)"/>
<path fill-rule="evenodd" clip-rule="evenodd" d="M26.2637 11.5994C32.5962 11.5994 37.7137 6.48195 37.7137 0.149414H49.6049C49.6049 13.0492 39.1635 23.4906 26.2637 23.4906V11.5994Z" fill="url(#paint4_linear_4854_1043)"/>
<path fill-rule="evenodd" clip-rule="evenodd" d="M61.0546 23.4906C48.1548 23.4906 37.7134 13.0492 37.7134 0.149414H49.6046C49.6046 6.48195 54.7221 11.5994 61.0546 11.5994V23.4906Z" fill="url(#paint5_linear_4854_1043)"/>
<path fill-rule="evenodd" clip-rule="evenodd" d="M34.9628 49.5826C28.6303 49.5826 23.5128 54.7001 23.5128 61.0326H11.6216C11.6216 48.1328 22.063 37.6914 34.9628 37.6914V49.5826Z" fill="url(#paint6_linear_4854_1043)"/>
<path fill-rule="evenodd" clip-rule="evenodd" d="M0.171875 37.6914C13.0717 37.6914 23.5131 48.1328 23.5131 61.0326H11.6219C11.6219 54.7001 6.50441 49.5826 0.171875 49.5826V37.6914Z" fill="url(#paint7_linear_4854_1043)"/>
<defs>
<linearGradient id="paint0_linear_4854_1043" x1="39.1154" y1="26.1913" x2="52.2551" y2="43.6713" gradientUnits="userSpaceOnUse">
<stop stop-color="#D9D9D9"/>
<stop offset="1" stop-color="white"/>
</linearGradient>
<linearGradient id="paint1_linear_4854_1043" x1="61.0546" y1="43.4931" x2="38.937" y2="60.0219" gradientUnits="userSpaceOnUse">
<stop offset="0.126213" stop-color="#D9D9D9"/>
<stop offset="1" stop-color="white"/>
</linearGradient>
<linearGradient id="paint2_linear_4854_1043" x1="18.1276" y1="34.2178" x2="10.9334" y2="18.5809" gradientUnits="userSpaceOnUse">
<stop stop-color="#D9D9D9"/>
<stop offset="1" stop-color="white"/>
</linearGradient>
<linearGradient id="paint3_linear_4854_1043" x1="19.3167" y1="0.149414" x2="1.77719" y2="21.1968" gradientUnits="userSpaceOnUse">
<stop offset="0.0176537" stop-color="white"/>
<stop offset="0.859094" stop-color="#D9D9D9"/>
</linearGradient>
<linearGradient id="paint4_linear_4854_1043" x1="27.5812" y1="20.6617" x2="42.3857" y2="9.84073" gradientUnits="userSpaceOnUse">
<stop stop-color="#D9D9D9"/>
<stop offset="1" stop-color="white"/>
</linearGradient>
<linearGradient id="paint5_linear_4854_1043" x1="42.5043" y1="1.87364" x2="61.0546" y2="21.1968" gradientUnits="userSpaceOnUse">
<stop stop-color="#D9D9D9"/>
<stop offset="1" stop-color="white"/>
</linearGradient>
<linearGradient id="paint6_linear_4854_1043" x1="33.9425" y1="41.8878" x2="20.3866" y2="51.6386" gradientUnits="userSpaceOnUse">
<stop stop-color="#D9D9D9"/>
<stop offset="1" stop-color="white"/>
</linearGradient>
<linearGradient id="paint7_linear_4854_1043" x1="21.3977" y1="59.7246" x2="0.171867" y2="40.4014" gradientUnits="userSpaceOnUse">
<stop offset="0.2651" stop-color="#D9D9D9"/>
<stop offset="1" stop-color="white"/>
</linearGradient>
</defs>
</svg>
