<svg width="201" height="84" viewBox="0 0 201 84" fill="none" xmlns="http://www.w3.org/2000/svg">
<path fill-rule="evenodd" clip-rule="evenodd" d="M188.945 0.144043V11.2077H200.009V0.144043H188.945ZM188.945 59.6113V13.9736H200.009V59.6113H188.945ZM0.170898 14.9877V48.7106L11.6616 59.9515H46.1336L57.6242 48.7106V14.9877H46.1336V43.09L40.3882 48.7106H34.643V14.9877H23.1523V48.7106H17.4069L11.6616 43.09V14.9877H0.170898ZM77.608 32.0572L74.7767 29.2123L77.608 26.3674H88.932L91.7629 29.2123V32.0572H77.608ZM71.9458 54.8164L63.4527 63.3515V74.7311L71.9458 83.2657H111.58L120.073 74.7311V63.3515L111.58 54.8164H103.087V43.4369H111.58L120.073 34.9022V14.9877H108.749V29.2123L105.918 32.0572H103.087V23.5225L94.5942 14.9877H71.9458L63.4527 23.5225V34.9022L71.9458 43.4369H91.7629V54.8164H86.1011V66.1964H105.918L108.749 69.0413L105.918 71.8862H77.608L74.7767 69.0413L77.608 66.1964H80.4389V54.8164H71.9458ZM125.902 59.9515V14.9877H171.865L183.356 26.2287V59.9515H171.865V31.8491L166.12 26.2287H160.374V48.7106H148.884V26.2287H137.393V59.9515H125.902Z" fill="white"/>
</svg>
