<svg width="91" height="110" viewBox="0 0 91 110" fill="none" xmlns="http://www.w3.org/2000/svg">
<g clip-path="url(#clip0_4841_2420)">
<path d="M43.0029 86.5025C43.0029 83.8533 43.1181 81.3193 42.8877 78.6701C42.6572 76.0209 45.7686 76.8271 45.8838 78.6701C46.0565 81.3933 46.0565 84.1248 45.8838 86.8481C46.253 87.1556 46.5459 87.5443 46.7396 87.9839C46.9332 88.4235 47.0224 88.902 47 89.3818C46.9777 89.8616 46.8445 90.3297 46.6109 90.7494C46.3772 91.1691 46.0495 91.5291 45.6533 91.801C45.5735 94.4968 45.7277 97.1946 46.1143 99.8638L49.8019 100.555C51.1989 100.625 52.587 100.818 53.9504 101.131C54.084 101.18 54.2023 101.264 54.2931 101.373C54.3839 101.483 54.4441 101.615 54.4675 101.755C54.491 101.895 54.4768 102.039 54.4264 102.173C54.376 102.306 54.2913 102.423 54.1809 102.513C53.1437 102.974 52.798 103.204 52.798 104.356C52.798 105.508 52.798 105.508 53.8352 105.969C53.9456 106.058 54.0303 106.176 54.0807 106.309C54.1311 106.442 54.1453 106.586 54.1218 106.727C54.0984 106.867 54.0382 106.999 53.9474 107.108C53.8566 107.218 53.7383 107.302 53.6047 107.351C51.7609 107.696 49.1104 107.12 48.419 109.424C48.3826 109.537 48.3218 109.64 48.2409 109.727C48.16 109.813 48.061 109.881 47.951 109.925C47.841 109.969 47.7226 109.988 47.6044 109.981C47.4861 109.974 47.3708 109.941 47.2666 109.885C45.5381 108.848 41.5048 102.628 43.2334 100.67C42.7351 97.7805 42.5804 94.8421 42.7724 91.9161C42.3038 91.6252 41.921 91.215 41.6632 90.7276C41.4054 90.2401 41.2819 89.6929 41.3054 89.1421C41.3288 88.5912 41.4984 88.0564 41.7967 87.5926C42.0949 87.1288 42.5112 86.7526 43.0029 86.5025Z" fill="#D7706B"/>
<path d="M31.3636 86.5027C31.5365 83.8948 31.5365 81.2782 31.3636 78.6703C31.1331 76.8274 34.2444 76.8274 34.3597 78.6703C34.5324 81.3936 34.5324 84.125 34.3597 86.8483C34.7289 87.1558 35.0218 87.5445 35.2155 87.9841C35.4091 88.4237 35.4983 88.9022 35.4759 89.382C35.4536 89.8618 35.3204 90.3299 35.0868 90.7496C34.8531 91.1694 34.5254 91.5293 34.1292 91.8012C33.9915 94.4975 34.1461 97.2009 34.5902 99.864L38.2778 100.555C39.6732 100.642 41.0601 100.834 42.4263 101.131C42.6096 101.116 42.7916 101.174 42.9321 101.293C43.0726 101.412 43.1601 101.581 43.1753 101.765C43.1906 101.948 43.1324 102.13 43.0136 102.27C42.8947 102.41 42.7249 102.498 42.5415 102.513C41.6196 102.974 41.2739 103.204 41.2739 104.356C41.2739 105.508 41.2739 105.508 42.3111 105.969C42.4215 106.059 42.5062 106.176 42.5566 106.309C42.607 106.442 42.6212 106.586 42.5977 106.727C42.5743 106.867 42.5141 106.999 42.4233 107.108C42.3325 107.218 42.2142 107.302 42.0806 107.351C40.1215 107.696 37.5863 107.121 36.8949 109.424C36.8585 109.537 36.7977 109.64 36.7168 109.727C36.6359 109.813 36.5369 109.881 36.4269 109.925C36.3169 109.969 36.1985 109.988 36.0803 109.981C35.962 109.974 35.8467 109.941 35.7425 109.885C34.014 108.848 29.9807 102.628 31.7093 100.67C31.211 97.7807 31.0563 94.8423 31.2483 91.9163C30.7745 91.6352 30.3839 91.2334 30.1164 90.7519C29.8489 90.2704 29.7141 89.7266 29.7258 89.1759C29.7376 88.6253 29.8953 88.0877 30.1831 87.618C30.4708 87.1484 30.8782 86.7635 31.3636 86.5027Z" fill="#D7706B"/>
<path d="M8.66189 37.6651C15.9218 42.9635 31.7093 41.6965 39.5454 35.8222C41.1587 26.3771 37.1254 15.2044 42.6568 6.796C46.5748 0.691285 53.8347 -1.15165 60.4032 0.806467C66.9717 2.76458 70.8898 10.597 71.005 18.4295C71.3326 28.6815 70.6766 38.9413 69.046 49.0682C65.8194 67.0368 54.7566 81.7803 36.0883 80.974C17.4199 80.1677 4.39813 61.9688 0.595309 44.2306C-0.326586 39.6232 4.51336 34.6703 8.66189 37.6651Z" fill="#F2F2F2"/>
<path d="M8.89323 33.7487C12.696 30.9843 16.9598 34.4398 20.3017 35.822C23.6435 37.2042 27.4463 37.2042 30.9034 37.089C34.3605 36.9738 36.3196 35.5916 39.0853 35.1309H40.4681C40.6047 35.1131 40.7435 35.1365 40.8666 35.198C40.9898 35.2596 41.0918 35.3565 41.1596 35.4764C44.9624 36.7434 45.8843 41.1204 46.3452 45.0366C46.6579 47.6806 46.431 50.3604 45.6784 52.9143C44.9257 55.4681 43.6629 57.843 41.9662 59.8953C38.7396 63.8115 33.2082 67.8429 27.7921 67.1518C26.5603 67.0305 25.3911 66.5514 24.4286 65.7736C23.4661 64.9958 22.7525 63.9533 22.3759 62.7748C20.7061 62.7875 19.054 62.4336 17.536 61.7382C16.717 61.4307 16.029 60.8504 15.5882 60.0951C15.1474 59.3397 14.9806 58.4555 15.116 57.5916C14.1788 57.5511 13.25 57.3964 12.3503 57.1309C11.3648 56.7502 10.4901 56.1293 9.80582 55.3246C9.12154 54.52 8.64937 53.5571 8.43225 52.5235C8.1687 51.6406 8.12542 50.7066 8.30621 49.8031C8.487 48.8995 8.88638 48.054 9.46941 47.3403C6.47325 43.1937 5.09041 36.6283 8.89323 33.7487Z" fill="#E6E6E6"/>
<path d="M69.2771 15.4347C69.2771 15.4347 69.8533 14.6284 70.3142 14.6284C74.0018 14.7436 77.6894 15.3195 81.2617 15.7803C83.4803 15.8267 85.6394 16.5061 87.4845 17.7384C89.2131 18.8902 92.4397 21.6546 89.0978 22.6912C85.7559 23.7279 83.336 23.2672 81.0312 23.2672C78.7265 23.2672 73.5408 23.7279 70.199 23.0368C66.8571 22.3457 67.4333 17.8535 69.2771 15.4347Z" fill="#D7706B"/>
<path d="M57.7534 12.0942C61.441 12.0942 61.5563 17.7382 57.7534 17.7382C53.9506 17.7382 54.0659 12.0942 57.7534 12.0942Z" fill="#333333"/>
</g>
<defs>
<clipPath id="clip0_4841_2420">
<rect width="90" height="110" fill="white" transform="matrix(-1 0 0 1 90.4805 0)"/>
</clipPath>
</defs>
</svg>
