<svg width="64" height="61" viewBox="0 0 64 61" fill="none" xmlns="http://www.w3.org/2000/svg">
<path fill-rule="evenodd" clip-rule="evenodd" d="M45.0595 0.475371C45.4371 0.321566 45.8224 0.211102 46.2076 0.135606C48.9343 -0.398838 51.6586 0.818923 51.6586 0.818923C51.3312 4.51891 49.7168 6.26775 48.9301 6.91091C48.6679 7.1253 48.4976 7.21684 48.4976 7.21684C48.4976 7.21684 46.024 5.54416 44.7921 5.40309C44.6162 5.38295 44.4655 5.39407 44.3511 5.44579C42.756 6.14806 40.8943 7.43226 39.3971 8.57109C39.6576 9.0451 39.8867 9.53225 40.0873 10.0156C40.6368 11.3291 40.9869 12.6321 41.2038 13.6071C41.291 14.0074 41.3491 14.34 41.3955 14.606C41.4066 14.6695 41.417 14.7293 41.427 14.7852C41.4425 14.8652 41.4525 14.9391 41.4608 15.0004C41.4667 15.0437 41.4717 15.0808 41.4772 15.109C41.4762 15.1288 41.4809 15.1488 41.4848 15.1654C41.4875 15.1772 41.4899 15.1872 41.4895 15.1942L41.4878 15.2279C41.4875 15.2349 41.4899 15.242 41.4929 15.2504C41.497 15.2622 41.502 15.2765 41.501 15.2962C41.4996 15.3234 41.5073 15.3608 41.5165 15.4054C41.5244 15.4438 41.5335 15.4878 41.5388 15.5349C41.57 15.6967 41.6084 15.9222 41.6548 16.1947L41.6815 16.3513C54.5673 17.188 63.5634 26.6624 63.4012 27.9107C63.3998 27.9217 63.3974 27.9329 63.3941 27.9441C63.398 27.9757 63.3984 28.0041 63.3952 28.0293C63.3866 28.0919 63.3743 28.1542 63.3584 28.2159C63.095 29.2375 61.8289 30.1321 59.7556 30.8719C59.3091 31.032 58.8253 31.1851 58.3062 31.3308C58.3738 32.4347 58.1407 33.699 57.6276 34.9998C57.5264 35.2742 57.4024 35.5509 57.2465 35.8339C56.3154 37.6276 54.6889 39.4323 53.1108 40.7994C52.4478 41.3733 52.0056 41.9641 51.6929 42.5915C52.3961 42.9071 53.0392 43.2087 53.9996 43.7495C54.3178 43.9304 54.4121 44.3298 54.2485 44.65C54.0832 45.0029 53.6528 45.0956 53.3769 45.0483C53.2758 45.031 52.9335 44.8755 52.4657 44.6499C52.4615 44.6572 52.4573 44.6644 52.4531 44.6717C52.6905 44.8091 52.9681 44.9737 53.318 45.1841C53.6342 45.3761 53.7267 45.8023 53.5625 46.1449C53.3975 46.505 52.9685 46.6055 52.6939 46.5561C52.5526 46.5307 52.0908 46.2748 51.4699 45.9308L51.469 45.9303C51.3997 45.8919 51.3283 45.8523 51.2553 45.8119C51.1965 45.8351 51.1367 45.8552 51.0762 45.8722C51.1008 45.8852 51.1246 45.898 51.1483 45.9109C51.3494 46.0209 51.5433 46.1444 52.123 46.5136L52.3407 46.6522C52.645 46.846 52.733 47.2775 52.574 47.6251C52.4131 48.0081 51.9994 48.1111 51.7357 48.044C51.6018 48.019 51.3493 47.8693 50.946 47.6301C50.8291 47.5607 50.6994 47.4838 50.5563 47.4003C50.4879 47.7357 50.4095 48.0827 50.3161 48.4424C49.9557 49.8258 48.604 50.9043 47.5048 50.0361C46.8319 49.5112 46.6144 48.4186 46.9611 47.6426C47.0643 47.4059 47.1654 47.1829 47.2642 46.9716C47.1994 47.023 47.1338 47.0737 47.0674 47.1235C46.4777 47.5654 45.81 47.902 45.0843 48.0667C44.8987 48.1077 44.714 48.1318 44.5293 48.156C44.4062 48.1721 44.2838 48.1732 44.1615 48.1743C44.1003 48.1749 44.039 48.1755 43.9777 48.1779C43.7939 48.1852 43.6099 48.1925 43.4436 48.1838C43.3499 48.179 43.256 48.1785 43.1644 48.1781C43.0769 48.1776 42.9915 48.1772 42.9103 48.173C42.1957 48.1189 41.4688 47.9798 40.7795 47.7582C40.1538 47.5571 39.5605 47.2604 39.0231 46.8945C38.3899 48.3368 37.6835 49.648 36.9087 50.8624C35.1391 53.7531 33.0327 56.0869 30.6965 57.7819C28.3934 59.5102 25.1191 61.1743 21.196 60.9853C20.0328 60.9826 18.8519 60.8466 17.6616 60.5711C15.9793 60.2513 14.2842 59.6681 13.6439 58.5131C13.493 58.2408 13.4007 57.9368 13.3809 57.597C13.3614 57.3248 13.4732 57.0933 13.6647 56.9337C13.8563 56.7742 14.1283 56.6697 14.4328 56.5838C14.9253 56.455 15.5813 56.3769 16.2901 56.2926L16.311 56.2901C16.3735 56.2827 16.4364 56.2752 16.4996 56.2676C16.5499 56.2618 16.6043 56.2561 16.6587 56.2505C16.7132 56.2448 16.7677 56.2392 16.8181 56.2333C17.7404 56.1288 18.7309 55.9939 19.6443 55.7363C20.5578 55.4787 21.3941 55.0984 21.9912 54.5023C23.6542 52.8415 24.211 51.143 24.5361 49.1427C24.457 49.0722 24.3766 48.9838 24.2938 48.8752C23.7402 48.1551 23.8729 47.1254 24.4976 46.1818C22.1803 47.4402 19.525 47.2906 17.854 46.2634C18.3092 46.9294 18.3803 47.4505 17.4625 48.1092C16.7615 48.6014 14.9722 48.5594 14.1848 46.7617C14.1423 46.6651 14.1009 46.5712 14.0605 46.4801C13.379 46.8178 12.7025 47.0565 12.1723 46.8816C11.9141 46.9473 11.563 46.9048 11.3781 46.6561C11.2303 46.4708 11.1771 46.2443 11.2278 46.0394C11.1176 45.9019 11.01 45.7567 10.9078 45.606C10.6673 45.6378 10.3824 45.5769 10.2226 45.3578C9.98961 45.0601 9.99356 44.6572 10.2712 44.4028L10.2848 44.3903C10.2804 44.3773 10.2761 44.3643 10.2719 44.3513C10.1379 44.4558 10.0423 44.5249 9.99637 44.5475C9.73576 44.6759 9.27873 44.6698 9.05661 44.3744C8.8185 44.0604 8.82321 43.6348 9.10791 43.3657C9.85992 42.6456 10.405 42.1887 10.9682 41.7419C10.7185 41.4811 10.4352 41.1844 10.1091 40.8361C9.47089 40.1608 8.84694 40.0585 8.10309 39.9365C6.96441 39.7498 5.54475 39.5171 3.36264 37.1124C3.2813 37.1108 3.23477 37.1068 3.23477 37.1068C3.23477 37.1068 2.67779 36.3703 2.28062 35.8161C2.25082 35.7776 2.2209 35.7388 2.19085 35.6997C-0.867565 31.7031 0.30729 27.2106 3.38796 25.7849C3.53057 25.7199 3.67791 25.6682 3.82919 25.6293C3.53806 25.3157 3.34445 25.0273 3.24421 24.7736C3.17096 24.5903 3.14743 24.4244 3.17191 24.2797C3.16738 24.2109 3.1766 24.1423 3.20064 24.0755C4.6598 19.8192 14.0711 17.6484 23.8783 16.7385C24.0231 16.1912 24.1844 15.6568 24.3581 15.1054C24.5381 14.4891 24.7334 13.8659 24.9416 13.208C25.6345 11.0572 26.7806 8.8453 28.2992 7.17829C29.8004 5.52733 31.6914 4.40523 33.8531 4.51778L35.7746 4.95523C36.7361 5.3653 37.5422 6.03005 38.2152 6.82656C40.4352 4.33844 43.5186 1.10269 45.0595 0.475371ZM42.3868 33.2169C44.7807 33.1545 47.0341 33.0279 49.112 32.8423C49.1036 32.8958 49.0955 32.9498 49.0877 33.0042C48.751 35.3654 49.1149 36.4636 49.4478 37.4682C49.5776 37.8601 49.7027 38.2377 49.7797 38.6704C49.764 38.6659 49.7479 38.6615 49.7311 38.6571L49.7168 38.6533C49.5687 38.6119 49.4356 38.6049 49.2859 38.5971C48.7194 38.5845 48.166 38.6401 47.6268 38.7471C47.3572 38.8005 47.0867 38.8708 46.8153 38.958C46.7471 38.9882 46.6832 39.0144 46.6193 39.0406C46.5554 39.0668 46.4915 39.093 46.4233 39.1232C46.39 39.1215 46.3384 39.1526 46.3034 39.1845L46.1984 39.2803C46.1284 39.3442 46.0909 39.4266 46.07 39.5099C45.9705 39.8255 45.9892 40.1134 46.0246 40.4021C46.0599 40.6909 46.1128 40.9637 46.1823 41.2374C46.3118 41.7473 46.4708 42.2441 46.6595 42.7277C46.0204 43.3058 45.3518 43.8487 44.6421 44.2966C44.2633 44.5301 43.8853 44.7467 43.4765 44.9111C43.0678 45.0755 42.645 45.1885 42.224 45.2679C41.8029 45.3472 41.3686 45.3584 40.9377 45.3022C40.5434 45.2507 40.1673 45.1154 39.8075 44.935C40.2397 43.7471 40.6282 42.4748 40.971 41.1031C42.224 34.9998 42.4205 32.5555 42.3868 33.2169ZM49.5754 39.7937C49.6743 39.7175 49.7705 39.6314 49.857 39.5337C49.8578 39.6771 49.853 39.8278 49.8417 39.9872C49.8009 40.572 49.7386 41.0742 49.6563 41.5206C49.3939 41.3998 49.121 41.3076 48.852 41.2245C48.7762 41.2011 48.7003 41.179 48.6252 41.1572C48.4402 41.1035 48.2595 41.0511 48.097 40.9826C48.0313 40.9623 47.9831 40.9261 47.9673 40.9084C47.9745 40.9018 47.985 40.8867 47.9974 40.869C48.0149 40.8439 48.036 40.8136 48.0565 40.7949C48.0747 40.7783 48.0909 40.7615 48.1064 40.7455C48.1357 40.7153 48.1627 40.6874 48.1964 40.6671C48.3769 40.5315 48.5837 40.4144 48.7979 40.2932C49.0573 40.1464 49.3277 39.9934 49.5754 39.7937ZM40.231 45.251C40.0743 45.1835 39.9227 45.106 39.776 45.0211L39.7709 45.0353C39.9173 45.1165 40.0707 45.1889 40.231 45.251ZM13.7176 41.5472C13.707 41.5336 13.6965 41.52 13.686 41.5064C13.9867 41.1349 13.9992 40.659 13.6988 40.3577C13.4878 40.1513 13.2025 40.1428 12.8952 40.2828C12.5202 39.5495 12.3012 38.7568 12.3229 37.8474C12.3632 36.072 11.9464 33.844 11.344 31.9975C11.2313 31.5428 11.038 30.8468 10.791 30.2858C10.6653 29.9845 10.3746 29.5702 10.1288 29.2469C13.3223 30.4646 17.6834 31.6151 23.3538 32.3757L23.3466 32.3157L23.3874 32.326C23.5688 33.4498 23.7878 34.5705 23.9961 35.6312C24.0489 35.9052 24.1203 36.233 24.1918 36.5608C24.2632 36.8885 24.3347 37.2165 24.3874 37.4904C24.7551 39.4462 25.1077 41.3915 25.1399 43.3243C23.7288 45.2479 21.0828 47.0757 17.095 42.4311C17.095 42.4311 17.0623 38.529 16.1995 38.2824C15.7819 38.1624 15.3565 38.0279 14.9539 37.9007C13.7715 37.5269 12.7855 37.2152 12.7702 37.5154C12.7011 38.8736 14.9322 39.4941 14.9322 39.4941C14.9322 39.4941 14.1387 40.1589 14.0046 41.4968C14.0046 41.4968 13.8963 41.5149 13.7176 41.5472Z" fill="white"/>
</svg>
