<svg width="305" height="89" viewBox="0 0 305 89" fill="none" xmlns="http://www.w3.org/2000/svg">
<path fill-rule="evenodd" clip-rule="evenodd" d="M21.8942 45.6069V46.539L35.5483 56.3008L35.5483 35.7445L21.8942 45.6069ZM34.6089 79.4824C34.9493 79.1437 35.263 78.7822 35.5483 78.3987V78.5509C35.5483 81.0812 36.4364 83.3905 38.2134 85.2323C40.0308 87.1159 42.3724 88.0549 44.9513 88.0549H59.7452C62.3217 88.0549 64.6513 87.1201 66.4901 85.2904C68.3298 83.4599 69.2768 81.1325 69.2768 78.5509V78.2439C69.4672 78.5033 69.6699 78.7525 69.8837 78.9918L69.962 79.0795L70.0454 79.1624C70.5355 79.6501 71.0454 80.1033 71.5764 80.5143L71.6559 80.5758L71.7383 80.6333C72.3979 81.0926 73.1494 81.5096 73.9874 81.7876L74.5927 81.9883L91.1259 82.0549H91.1339C92.2388 82.0549 93.2316 81.7566 94.0691 81.35C94.8783 80.9764 95.6232 80.4911 96.2925 79.8992L96.3017 79.891L96.3109 79.8828C96.9911 79.2736 97.6053 78.568 98.097 77.7525C98.6663 76.8084 99.0575 75.6761 99.0575 74.4069L99.0575 48.2309C99.0575 46.4445 98.2882 44.9815 97.3777 43.9004C96.835 43.2178 96.258 42.5731 95.6493 42.0347L95.5083 41.91L88.6249 36.8898L97.4826 31.6017V33.1429L106.552 33.1429L106.552 88.0549L123.3 88.0549L123.3 33.1429L132.69 33.1429V16.0549L98.7033 16.0549C98.5537 15.6244 98.37 15.2322 98.1792 14.8841C97.7516 14.1042 97.2224 13.3962 96.6019 12.7656C95.9678 12.0801 95.2336 11.489 94.3973 11.0251C93.4672 10.4845 92.3638 10.1189 91.1339 10.1189L76.2114 10.1189C75.0094 10.1189 73.8887 10.4228 72.886 10.9216C72.0143 11.3553 71.2243 11.9108 70.5119 12.5542C69.7683 13.2216 69.1456 13.9926 68.6441 14.8479L68.5788 14.9594L68.5207 15.0749C68.0171 16.077 67.7089 17.2002 67.7089 18.4069V20.2925C67.3598 19.7725 66.9533 19.2802 66.4901 18.8194C64.6513 16.9897 62.3217 16.0549 59.7452 16.0549L44.9513 16.0549C42.3724 16.0549 40.0308 16.9939 38.2134 18.8776C37.809 19.2967 37.4507 19.7401 37.1383 20.2047V18.0229C37.1383 16.7541 36.7197 15.6588 36.2599 14.8201C35.8156 14.0095 35.2613 13.2766 34.6089 12.6274C34.0059 12.0274 33.3321 11.5119 32.5925 11.0894C31.7448 10.5378 30.6208 10.0549 29.279 10.0549L13.3917 10.0549C12.2391 10.0549 11.1612 10.3343 10.1905 10.7971C9.25535 11.2026 8.40754 11.7714 7.67591 12.4994C6.96901 13.2027 6.39871 14.0064 5.95831 14.8829C5.45472 15.885 5.14649 17.0082 5.14649 18.2149L5.14648 73.8949C5.14648 75.1016 5.45471 76.2248 5.9583 77.227L5.99045 77.2909L6.02487 77.3537C6.44296 78.1164 6.95094 78.8172 7.53072 79.4582L7.60131 79.5362L7.67589 79.6104C8.38271 80.3137 9.18894 80.8797 10.0663 81.3162L10.1892 81.3774L10.3161 81.4299C11.2758 81.8279 12.3093 82.0549 13.3917 82.0549L29.279 82.0549C30.5699 82.0549 31.6814 81.6249 32.5515 81.1054L32.5966 81.0785L32.641 81.0504C33.3527 80.5998 34.0111 80.0772 34.6089 79.4824ZM70.4853 50.1822C70.1366 50.2943 69.7035 50.4883 69.2768 50.8146V43.9234C69.5852 44.3748 69.9687 44.8375 70.4422 45.2301L70.5397 45.311L82.6315 54.1075V56.2609L82.252 56.014C79.4634 54.1999 77.3656 52.8404 75.9626 51.9383C75.2631 51.4886 74.7255 51.1456 74.3579 50.9149C74.1785 50.8023 74.017 50.7022 73.89 50.6264C73.8363 50.5944 73.738 50.5361 73.6306 50.4786C73.6004 50.4624 73.4455 50.3785 73.245 50.2956L73.2386 50.293C73.1758 50.2667 72.8312 50.1226 72.3752 50.0458L72.3658 50.0442C72.196 50.0154 71.4158 49.8831 70.4853 50.1822ZM157.956 10.0549L136.255 10.0549L127.644 82.0549H144.386L145.544 72.3269H148.69L149.912 82.0549L166.567 82.055L157.956 10.0549ZM203.957 88.055V75.5195L206.365 88.055H223.184L221.664 80.055H235.767C235.793 81.201 236.096 82.2693 236.577 83.227L236.61 83.291L236.644 83.3538C237.062 84.1164 237.57 84.8172 238.15 85.4582L238.22 85.5362L238.295 85.6105C239.002 86.3138 239.808 86.8798 240.685 87.3162L240.808 87.3774L240.935 87.43C241.895 87.8279 242.928 88.055 244.011 88.055L259.898 88.055C261.189 88.055 262.301 87.6249 263.171 87.1055L263.216 87.0786L263.26 87.0505C263.972 86.5998 264.63 86.0773 265.228 85.4825C265.881 84.8333 266.435 84.1003 266.879 83.2898C267.339 82.451 267.757 81.3558 267.757 80.087V80.055H282.403L283.561 70.327H286.707L287.929 80.055H304.584L295.973 8.05494L274.272 8.05494L267.657 63.3654L252.513 52.5391L252.513 51.6069L267.757 40.5961V24.0229C267.758 22.7541 267.339 21.6589 266.879 20.8201C266.435 20.0096 265.881 19.2766 265.228 18.6274C264.625 18.0274 263.951 17.512 263.212 17.0895C262.364 16.5378 261.24 16.0549 259.898 16.0549L244.011 16.0549C242.858 16.0549 241.78 16.3343 240.81 16.7971C239.875 17.2026 239.027 17.7714 238.295 18.4994C237.929 18.8634 237.6 19.2543 237.306 19.6682V8.05493L220.816 8.05493L220.816 75.5897L216.144 50.9992L216.278 50.866L216.332 50.8074C216.957 50.1337 217.535 49.4285 218.064 48.6916C218.656 47.8675 219.151 46.9875 219.532 46.0521C220.032 44.8944 220.294 43.6641 220.294 42.3909L220.294 24.4069C220.294 23.3412 220.073 22.3238 219.684 21.3788C219.336 20.4921 218.851 19.6376 218.19 18.8773C217.55 18.1017 216.78 17.4548 215.893 16.9618C214.962 16.4208 213.859 16.0549 212.628 16.0549L187.274 16.0549L187.273 88.055H203.957Z" fill="#292F51"/>
<path d="M20.201 31.2543L20.201 15.7023C20.201 15.617 20.1367 15.5316 20.0081 15.4463C19.9223 15.3183 19.8366 15.2543 19.7508 15.2543L14.0262 15.2543C13.7689 15.2543 13.6403 15.4036 13.6403 15.7023L13.6403 61.2703C13.6403 61.3557 13.6831 61.441 13.7689 61.5263C13.8547 61.6117 13.9404 61.6543 14.0262 61.6543H19.7508C19.8365 61.6543 19.9223 61.6117 20.0081 61.5263C20.1367 61.441 20.201 61.3557 20.201 61.2703L20.201 45.7183L28.8844 51.9263L28.8844 66.5183C28.8844 66.9023 28.7558 67.329 28.4985 67.7983C28.2412 68.2677 27.9196 68.6943 27.5336 69.0783C27.1477 69.4623 26.7189 69.8037 26.2472 70.1023C25.8184 70.3583 25.411 70.4863 25.0251 70.4863L9.13778 70.4863C8.62321 70.4863 8.10864 70.3796 7.59407 70.1663C7.0795 69.9103 6.62925 69.5903 6.24332 69.2063C5.8574 68.7797 5.53579 68.3317 5.27851 67.8623C5.02122 67.3503 4.89258 66.8383 4.89258 66.3263L4.89259 10.6463C4.89259 10.1343 5.02123 9.62229 5.27852 9.11029C5.5358 8.59829 5.85741 8.15029 6.24333 7.76629C6.62926 7.38229 7.07951 7.08362 7.59408 6.87029C8.10865 6.61429 8.62322 6.48629 9.13779 6.48629L25.0251 6.48629C25.4111 6.48629 25.8184 6.63563 26.2472 6.93429C26.7189 7.19029 27.1477 7.51029 27.5337 7.89429C27.9196 8.27829 28.2412 8.70496 28.4985 9.17429C28.7558 9.64363 28.8844 10.0703 28.8844 10.4543L28.8844 24.9823L20.201 31.2543Z" fill="white"/>
<path d="M40.6974 76.4863C39.1537 76.4863 37.8673 75.953 36.8381 74.8863C35.809 73.8197 35.2944 72.5183 35.2944 70.9823L35.2944 17.9903C35.2944 16.4543 35.809 15.153 36.8381 14.0863C37.8673 13.0196 39.1537 12.4863 40.6974 12.4863L55.4913 12.4863C57.035 12.4863 58.3429 13.0196 59.4149 14.0863C60.4869 15.153 61.0229 16.4543 61.0229 17.9903L61.0229 70.9823C61.0229 72.5183 60.4869 73.8197 59.4149 74.8863C58.3428 75.953 57.035 76.4863 55.4913 76.4863H40.6974ZM50.9888 68.2303C51.289 68.2303 51.5248 68.1237 51.6963 67.9103C51.9107 67.697 52.0179 67.4837 52.0179 67.2703L52.0179 22.0863C52.0179 21.4463 51.6749 21.1263 50.9888 21.1263H45.3928C44.6639 21.1263 44.2994 21.4463 44.2994 22.0863L44.2994 67.2703C44.2994 67.4837 44.4066 67.697 44.621 67.9103C44.8354 68.1237 45.0927 68.2303 45.3928 68.2303H50.9888Z" fill="white"/>
<path d="M70.9927 70.4223C70.6068 70.2943 70.1994 70.081 69.7706 69.7823C69.3846 69.4837 68.9987 69.1423 68.6128 68.7583C68.2698 68.3743 67.991 67.969 67.7766 67.5423C67.5622 67.1157 67.455 66.689 67.455 66.2623L67.455 46.4223C67.455 46.3797 70.2423 48.1717 75.8168 51.7983V60.9503L76.2027 61.5263L82.3775 61.5263L82.3775 44.5023L68.7414 34.5823C68.4842 34.369 68.2054 33.9636 67.9053 33.3663C67.6051 32.769 67.455 32.2996 67.455 31.9583L67.455 10.8383C67.455 10.3263 67.5837 9.8143 67.841 9.3023C68.1411 8.7903 68.5056 8.3423 68.9344 7.9583C69.4061 7.53163 69.8992 7.1903 70.4138 6.9343C70.9284 6.6783 71.4429 6.5503 71.9575 6.5503L86.88 6.5503C87.3088 6.5503 87.7377 6.6783 88.1665 6.9343C88.6381 7.1903 89.067 7.53163 89.4529 7.9583C89.8388 8.3423 90.1604 8.76897 90.4177 9.23831C90.675 9.70764 90.8036 10.1343 90.8036 10.5183V20.8223L82.4419 25.8143V15.5743L76.46 15.5743L75.9454 16.0223V27.6703C75.9454 27.7983 76.0097 27.9476 76.1384 28.1183C76.267 28.289 76.3742 28.417 76.46 28.5023L88.7453 37.4623C89.1313 37.8037 89.5601 38.273 90.0318 38.8703C90.5463 39.4677 90.8036 40.065 90.8036 40.6623L90.8036 66.8383C90.8036 67.265 90.675 67.6917 90.4177 68.1183C90.1604 68.545 89.8174 68.9503 89.3885 69.3343C89.0026 69.6757 88.5738 69.953 88.1021 70.1663C87.6733 70.3797 87.266 70.4863 86.88 70.4863L70.9927 70.4223Z" fill="white"/>
<path d="M97.2287 21.5743V12.4863L124.437 12.4863V21.5743L115.046 21.5743L115.046 76.4863L106.298 76.4863L106.298 21.5743L97.2287 21.5743Z" fill="white"/>
<path d="M135.551 6.48631L150.152 6.48632L157.806 70.4864L149.187 70.4863L147.965 60.7583L137.738 60.7583L136.58 70.4863H127.897L135.551 6.48631ZM146.872 51.2863L142.819 19.1583L138.96 51.2863L146.872 51.2863Z" fill="white"/>
<path d="M208.374 12.4863C208.803 12.4863 209.232 12.6143 209.661 12.8703C210.132 13.1263 210.54 13.4677 210.883 13.8943C211.226 14.2783 211.505 14.7477 211.719 15.3023C211.933 15.8143 212.041 16.3263 212.041 16.8383L212.041 34.8223C212.041 35.5477 211.89 36.2517 211.59 36.9343C211.333 37.5743 210.99 38.193 210.561 38.7903C210.132 39.3877 209.661 39.9637 209.146 40.5183C208.632 41.0303 208.138 41.521 207.667 41.9903V42.6303L214.099 76.4864H205.415L199.884 47.6863L195.703 50.6943V76.4864H187.02L187.02 12.4863L208.374 12.4863ZM195.767 39.8143L201.813 35.6543C202.028 35.4837 202.242 35.2917 202.457 35.0783C202.671 34.865 202.843 34.673 202.971 34.5023L202.971 21.6383H195.767L195.767 39.8143Z" fill="white"/>
<path d="M229.053 4.48633L229.052 68.4864H220.562L220.562 4.48633L229.053 4.48633Z" fill="white"/>
<path d="M250.82 37.2543L250.82 21.7023C250.82 21.617 250.756 21.5317 250.627 21.4463C250.541 21.3183 250.456 21.2543 250.37 21.2543L244.645 21.2543C244.388 21.2543 244.259 21.4037 244.259 21.7023L244.259 67.2704C244.259 67.3557 244.302 67.441 244.388 67.5264C244.474 67.6117 244.56 67.6544 244.645 67.6544H250.37C250.456 67.6544 250.541 67.6117 250.627 67.5264C250.756 67.441 250.82 67.3557 250.82 67.2704V51.7183L259.504 57.9264V72.5184C259.504 72.9024 259.375 73.329 259.118 73.7984C258.86 74.2677 258.539 74.6944 258.153 75.0784C257.767 75.4624 257.338 75.8037 256.866 76.1024C256.438 76.3584 256.03 76.4864 255.644 76.4864L239.757 76.4864C239.242 76.4864 238.728 76.3797 238.213 76.1664C237.699 75.9104 237.248 75.5904 236.862 75.2064C236.477 74.7797 236.155 74.3317 235.898 73.8624C235.64 73.3504 235.512 72.8384 235.512 72.3264L235.512 16.6463C235.512 16.1343 235.64 15.6223 235.898 15.1103C236.155 14.5983 236.477 14.1503 236.863 13.7663C237.248 13.3823 237.699 13.0837 238.213 12.8703C238.728 12.6143 239.242 12.4863 239.757 12.4863L255.644 12.4863C256.03 12.4863 256.438 12.6357 256.866 12.9343C257.338 13.1903 257.767 13.5103 258.153 13.8943C258.539 14.2783 258.86 14.705 259.118 15.1743C259.375 15.6437 259.504 16.0703 259.504 16.4543L259.504 30.9823L250.82 37.2543Z" fill="white"/>
<path d="M273.568 4.48634L288.169 4.48634L295.823 68.4864H287.204L285.982 58.7584H275.755L274.597 68.4864H265.914L273.568 4.48634ZM284.888 49.2864L280.836 17.1583L276.977 49.2864H284.888Z" fill="white"/>
<path fill-rule="evenodd" clip-rule="evenodd" d="M17.6403 38.9704V38.0383L31.2944 28.1759L31.2944 48.7322L17.6403 38.9704ZM31.2944 70.8301C31.0091 71.2136 30.6954 71.5751 30.355 71.9138C29.7572 72.5086 29.0988 73.0312 28.3871 73.4818L28.3427 73.5099L28.2976 73.5368C27.4275 74.0563 26.316 74.4863 25.0251 74.4863L9.13778 74.4863C8.0554 74.4863 7.02191 74.2592 6.06216 73.8613L5.93531 73.8088L5.81237 73.7476C4.93503 73.3111 4.1288 72.7451 3.42198 72.0418L3.3474 71.9676L3.27682 71.8896C2.69704 71.2486 2.18905 70.5478 1.77097 69.7851L1.73654 69.7223L1.70439 69.6583C1.2008 68.6562 0.892578 67.533 0.892578 66.3263L0.892588 10.6463C0.892588 9.43957 1.20081 8.31642 1.7044 7.31427C2.14481 6.43785 2.71511 5.63414 3.422 4.93078C4.15363 4.20281 5.00145 3.63399 5.93655 3.22853C6.90731 2.76571 7.98518 2.48629 9.13779 2.48629L25.0251 2.48629C26.3669 2.48629 27.4909 2.96917 28.3386 3.52078C29.0781 3.94332 29.752 4.45884 30.355 5.05879C31.0074 5.70795 31.5617 6.44089 32.006 7.25148C32.4658 8.09024 32.8844 9.18545 32.8844 10.4543V12.6361C33.1967 12.1715 33.5551 11.7281 33.9595 11.309C35.7769 9.42533 38.1185 8.4863 40.6974 8.4863L55.4913 8.4863C58.0678 8.4863 60.3974 9.42113 62.2362 11.2508C62.6993 11.7116 63.1059 12.2039 63.455 12.7239V10.8383C63.455 9.6316 63.7632 8.50844 64.2668 7.50627L64.3249 7.39079L64.3902 7.27929C64.8916 6.42402 65.5144 5.65299 66.258 4.98558C66.9704 4.34222 67.7604 3.7867 68.6321 3.35302C69.6348 2.85417 70.7555 2.5503 71.9575 2.5503L86.88 2.5503C88.1099 2.5503 89.2133 2.91585 90.1434 3.45653C90.9797 3.92043 91.7139 4.51146 92.348 5.19696C92.9685 5.82762 93.4977 6.53562 93.9252 7.31551C94.1161 7.66359 94.2998 8.05583 94.4494 8.48631L128.437 8.48631V25.5743L119.046 25.5743L119.046 80.4863L102.298 80.4863L102.298 25.5743L93.2287 25.5743V24.0331L84.371 29.3212L91.2544 34.3414L91.3954 34.4661C92.0041 35.0045 92.5811 35.6492 93.1238 36.3318C94.0343 37.4129 94.8036 38.8759 94.8036 40.6623L94.8036 66.8383C94.8036 68.1075 94.4124 69.2398 93.8431 70.1839C93.3514 70.9994 92.7372 71.705 92.057 72.3142L92.0478 72.3224L92.0386 72.3306C91.3693 72.9225 90.6244 73.4078 89.8152 73.7813C88.9777 74.188 87.9849 74.4863 86.88 74.4863H86.872L70.3388 74.4197L69.7335 74.219C68.8955 73.941 68.144 73.524 67.4844 73.0647L67.402 73.0072L67.3225 72.9457C66.7915 72.5347 66.2816 72.0815 65.7915 71.5938L65.7081 71.5109L65.6298 71.4232C65.416 71.1839 65.2133 70.9347 65.0229 70.6753V70.9823C65.0229 73.5639 64.0759 75.8913 62.2362 77.7218C60.3974 79.5515 58.0678 80.4863 55.4913 80.4863H40.6974C38.1185 80.4863 35.7769 79.5473 33.9595 77.6637C32.1825 75.8219 31.2944 73.5126 31.2944 70.9823V70.8301ZM65.0229 43.2459C65.4496 42.9197 65.8827 42.7257 66.2314 42.6136C67.1619 42.3145 67.9421 42.4468 68.1119 42.4756L68.1213 42.4772C68.5773 42.554 68.9219 42.6981 68.9847 42.7244L68.9911 42.727C69.1916 42.8099 69.3465 42.8938 69.3767 42.91C69.4841 42.9675 69.5824 43.0258 69.6361 43.0578C69.763 43.1336 69.9246 43.2337 70.104 43.3463C70.4716 43.577 71.0092 43.92 71.7086 44.3697C73.1117 45.2718 75.2095 46.6312 77.9981 48.4454L78.3775 48.6923V46.5389L66.2858 37.7424L66.1883 37.6615C65.7148 37.2689 65.3313 36.8062 65.0229 36.3548V43.2459ZM82.3775 44.5023L82.3775 61.5263L76.2027 61.5263L75.8168 60.9503V51.7983C74.0978 50.68 72.6439 49.7361 71.455 48.9667C71.239 48.8269 71.0317 48.6929 70.8331 48.5646C68.6635 47.1625 67.5389 46.4484 67.4595 46.4223C67.4565 46.4213 67.455 46.4223 67.455 46.4223V66.2623C67.455 66.689 67.5622 67.1157 67.7766 67.5423C67.991 67.969 68.2697 68.3743 68.6128 68.7583C68.9987 69.1423 69.3847 69.4837 69.7706 69.7823C70.1994 70.081 70.6068 70.2943 70.9927 70.4223L86.88 70.4863C87.266 70.4863 87.6733 70.3797 88.1021 70.1663C88.5738 69.953 89.0026 69.6757 89.3885 69.3343C89.8174 68.9503 90.1604 68.545 90.4177 68.1183C90.675 67.6917 90.8036 67.265 90.8036 66.8383L90.8036 40.6623C90.8036 40.065 90.5463 39.4677 90.0318 38.8703C89.5601 38.273 89.1313 37.8037 88.7453 37.4623L76.46 28.5023C76.3742 28.417 76.267 28.289 76.1384 28.1183C76.0098 27.9476 75.9454 27.7983 75.9454 27.6703V16.0223L76.46 15.5743H82.4419V25.8143L90.8036 20.8223V10.5183C90.8036 10.1343 90.675 9.70764 90.4177 9.23831C90.1604 8.76897 89.8388 8.3423 89.4529 7.9583C89.067 7.53164 88.6381 7.1903 88.1665 6.9343C87.7376 6.6783 87.3088 6.5503 86.88 6.5503L71.9575 6.5503C71.4429 6.5503 70.9284 6.6783 70.4138 6.9343C69.8992 7.1903 69.4061 7.53163 68.9344 7.9583C68.5056 8.3423 68.1411 8.7903 67.841 9.3023C67.5837 9.8143 67.455 10.3263 67.455 10.8383L67.455 31.9583C67.455 32.2996 67.6051 32.769 67.9053 33.3663C68.2054 33.9636 68.4842 34.369 68.7414 34.5823L82.3775 44.5023ZM106.298 21.5743L106.298 76.4863L115.046 76.4863L115.046 21.5743L124.437 21.5743V12.4863L97.2287 12.4863V21.5743L106.298 21.5743ZM26.2472 6.93429C25.8184 6.63563 25.4111 6.48629 25.0251 6.48629L9.13779 6.48629C8.62322 6.48629 8.10865 6.61429 7.59408 6.87029C7.07951 7.08362 6.62926 7.38229 6.24333 7.76629C5.85741 8.15029 5.5358 8.59829 5.27852 9.11029C5.02123 9.62229 4.89259 10.1343 4.89259 10.6463L4.89258 66.3263C4.89258 66.8383 5.02122 67.3503 5.27851 67.8623C5.53579 68.3317 5.8574 68.7797 6.24332 69.2063C6.62925 69.5903 7.0795 69.9103 7.59407 70.1663C8.10864 70.3796 8.62321 70.4863 9.13778 70.4863L25.0251 70.4863C25.411 70.4863 25.8184 70.3583 26.2472 70.1023C26.7189 69.8037 27.1477 69.4623 27.5336 69.0783C27.9196 68.6943 28.2412 68.2677 28.4985 67.7983C28.7558 67.329 28.8844 66.9023 28.8844 66.5183L28.8844 51.9263L20.201 45.7183L20.201 61.2703C20.201 61.3557 20.1367 61.441 20.0081 61.5263C19.9223 61.6117 19.8365 61.6543 19.7508 61.6543H14.0262C13.9404 61.6543 13.8547 61.6117 13.7689 61.5263C13.6831 61.441 13.6403 61.3557 13.6403 61.2703L13.6403 15.7023C13.6403 15.4036 13.7689 15.2543 14.0262 15.2543L19.7508 15.2543C19.8366 15.2543 19.9223 15.3183 20.0081 15.4463C20.1367 15.5316 20.201 15.617 20.201 15.7023L20.201 31.2543L28.8844 24.9823L28.8844 10.4543C28.8844 10.0703 28.7558 9.64363 28.4985 9.17429C28.2412 8.70496 27.9196 8.27829 27.5337 7.89429C27.1477 7.51029 26.7189 7.19029 26.2472 6.93429ZM132.001 2.48631L153.702 2.48632L162.313 74.4864L145.658 74.4863L144.436 64.7583H141.29L140.132 74.4863H123.39L132.001 2.48631ZM137.738 60.7583L147.965 60.7583L149.187 70.4863L157.806 70.4864L150.152 6.48632L135.551 6.48631L127.897 70.4863H136.58L137.738 60.7583ZM208.374 12.4863C208.803 12.4863 209.232 12.6143 209.661 12.8703C210.132 13.1263 210.54 13.4677 210.883 13.8943C211.226 14.2783 211.505 14.7477 211.719 15.3023C211.933 15.8143 212.041 16.3263 212.041 16.8383L212.041 34.8223C212.041 35.5477 211.89 36.2517 211.59 36.9343C211.333 37.5743 210.99 38.193 210.561 38.7903C210.132 39.3877 209.661 39.9637 209.146 40.5183L207.667 41.9903V42.6303L214.099 76.4864H205.415L199.884 47.6863L195.703 50.6943V76.4864H187.02L187.02 12.4863L208.374 12.4863ZM199.703 67.9509V80.4864H183.02L183.02 8.48632L208.374 8.48633C209.605 8.48633 210.708 8.85216 211.639 9.39315C212.526 9.88618 213.296 10.5331 213.936 11.3087C214.597 12.069 215.082 12.9235 215.43 13.8102C215.819 14.7552 216.041 15.7726 216.041 16.8383L216.041 34.8223C216.041 36.0955 215.778 37.3258 215.278 38.4835C214.897 39.4189 214.402 40.2989 213.811 41.123C213.282 41.8599 212.704 42.5651 212.079 43.2388L212.024 43.2974L211.89 43.4306L216.562 68.0211L216.562 0.486328L233.053 0.486331V12.0996C233.346 11.6857 233.675 11.2948 234.041 10.9308C234.773 10.2028 235.621 9.63398 236.556 9.22854C237.527 8.76572 238.604 8.48633 239.757 8.48633L255.644 8.48633C256.986 8.48633 258.11 8.96923 258.958 9.52085C259.697 9.94336 260.371 10.4588 260.974 11.0588C261.627 11.708 262.181 12.4409 262.625 13.2515L259.118 15.1743C258.86 14.705 258.539 14.2783 258.153 13.8943C257.767 13.5103 257.338 13.1903 256.866 12.9343C256.438 12.6357 256.03 12.4863 255.644 12.4863L239.757 12.4863C239.242 12.4863 238.728 12.6143 238.213 12.8703C237.699 13.0837 237.248 13.3823 236.863 13.7663C236.477 14.1503 236.155 14.5983 235.898 15.1103C235.64 15.6223 235.512 16.1343 235.512 16.6463L235.512 72.3264C235.512 72.8384 235.64 73.3504 235.898 73.8624C236.155 74.3317 236.477 74.7797 236.862 75.2064C237.248 75.5904 237.699 75.9104 238.213 76.1664C238.728 76.3797 239.242 76.4864 239.757 76.4864L255.644 76.4864C256.03 76.4864 256.438 76.3584 256.866 76.1024C257.338 75.8037 257.767 75.4624 258.153 75.0784C258.539 74.6944 258.86 74.2677 259.118 73.7984C259.375 73.329 259.504 72.9024 259.504 72.5184V57.9264L250.82 51.7183V67.2704C250.82 67.3557 250.756 67.441 250.627 67.5264C250.541 67.6117 250.456 67.6544 250.37 67.6544H244.645C244.56 67.6544 244.474 67.6117 244.388 67.5264C244.302 67.441 244.259 67.3557 244.259 67.2704L244.259 21.7023C244.259 21.4037 244.388 21.2543 244.645 21.2543L250.37 21.2543C250.456 21.2543 250.542 21.3183 250.627 21.4463C250.756 21.5317 250.82 21.617 250.82 21.7023L250.82 37.2543L259.504 30.9823L259.504 16.4543C259.504 16.0703 259.375 15.6437 259.118 15.1743L262.625 13.2515C263.085 14.0903 263.504 15.1855 263.504 16.4543V33.0275L248.259 44.0383L248.259 44.9705L263.403 55.7968L270.018 0.486337L291.719 0.486341L300.33 72.4864H283.675L282.453 62.7584H279.307L278.149 72.4864H263.504V72.5184C263.504 73.7872 263.085 74.8824 262.625 75.7212C262.181 76.5317 261.627 77.2647 260.974 77.9139C260.376 78.5087 259.718 79.0312 259.006 79.4819L258.962 79.51L258.917 79.5369C258.047 80.0563 256.935 80.4864 255.644 80.4864L239.757 80.4864C238.675 80.4864 237.641 80.2593 236.681 79.8614L236.555 79.8088L236.432 79.7476C235.554 79.3112 234.748 78.7452 234.041 78.0419L233.967 77.9676L233.896 77.8896C233.316 77.2486 232.808 76.5478 232.39 75.7852L232.356 75.7224L232.324 75.6584C231.842 74.7007 231.539 73.6324 231.514 72.4864H217.41L218.93 80.4864H202.111L199.703 67.9509ZM275.755 58.7584H285.982L287.204 68.4864H295.823L288.169 4.48634L273.568 4.48634L265.914 68.4864H274.597L275.755 58.7584ZM142.819 19.1583L138.96 51.2863L146.872 51.2863L142.819 19.1583ZM202.971 21.6383L195.767 21.6383L195.767 39.8143L201.813 35.6543C202.028 35.4837 202.242 35.2917 202.457 35.0783C202.671 34.865 202.843 34.673 202.971 34.5023M229.053 4.48633L229.052 68.4864H220.562L220.562 4.48633H229.053ZM280.836 17.1583L276.977 49.2864H284.888L280.836 17.1583ZM40.6974 76.4863C39.1537 76.4863 37.8673 75.953 36.8381 74.8863C35.809 73.8197 35.2944 72.5183 35.2944 70.9823L35.2944 17.9903C35.2944 16.4543 35.809 15.153 36.8381 14.0863C37.8673 13.0196 39.1537 12.4863 40.6974 12.4863L55.4913 12.4863C57.035 12.4863 58.3428 13.0196 59.4149 14.0863C60.4869 15.153 61.0229 16.4543 61.0229 17.9903L61.0229 70.9823C61.0229 72.5183 60.4869 73.8197 59.4149 74.8863C58.3428 75.953 57.035 76.4863 55.4913 76.4863H40.6974ZM50.9888 68.2303C51.289 68.2303 51.5248 68.1237 51.6963 67.9103C51.9107 67.697 52.0179 67.4837 52.0179 67.2703L52.0179 22.0863C52.0179 21.4463 51.6749 21.1263 50.9888 21.1263H45.3928C44.6639 21.1263 44.2994 21.4463 44.2994 22.0863L44.2994 67.2703C44.2994 67.4837 44.4066 67.697 44.621 67.9103C44.8354 68.1237 45.0927 68.2303 45.3928 68.2303H50.9888Z" fill="#2D2D31"/>
</svg>
