<svg width="304" height="88" viewBox="0 0 304 88" fill="none" xmlns="http://www.w3.org/2000/svg">
<g filter="url(#filter0_d_4512_1661)">
<mask id="path-1-outside-1_4512_1661" maskUnits="userSpaceOnUse" x="-1.32883e-05" y="-6.99382e-07" width="300" height="80.0001" fill="black">
<rect fill="white" x="-1.32883e-05" y="-6.99382e-07" width="300" height="80.0001"/>
<path d="M19.3084 30.768L19.3084 15.216C19.3084 15.1307 19.2441 15.0453 19.1155 14.96C19.0297 14.832 18.944 14.768 18.8582 14.768L13.1336 14.768C12.8763 14.768 12.7477 14.9173 12.7477 15.216L12.7477 60.784C12.7477 60.8694 12.7906 60.9547 12.8763 61.04C12.9621 61.1254 13.0478 61.168 13.1336 61.168L18.8582 61.168C18.944 61.168 19.0297 61.1254 19.1155 61.04C19.2441 60.9547 19.3084 60.8694 19.3084 60.784L19.3084 45.232L27.9918 51.44L27.9918 66.032C27.9918 66.416 27.8632 66.8427 27.6059 67.312C27.3486 67.7814 27.027 68.208 26.6411 68.592C26.2551 68.976 25.8263 69.3174 25.3546 69.616C24.9258 69.872 24.5185 70 24.1325 70L8.24519 70C7.73062 70 7.21605 69.8934 6.70148 69.68C6.18691 69.424 5.73666 69.104 5.35073 68.72C4.96481 68.2934 4.6432 67.8454 4.38592 67.376C4.12863 66.864 3.99999 66.352 3.99999 65.84L4 10.16C4 9.648 4.12864 9.136 4.38593 8.624C4.64321 8.112 4.96482 7.664 5.35075 7.28C5.73667 6.896 6.18692 6.59733 6.70149 6.384C7.21606 6.128 7.73063 6 8.2452 6L24.1325 6C24.5185 6 24.9258 6.14933 25.3546 6.448C25.8263 6.704 26.2551 7.024 26.6411 7.408C27.027 7.792 27.3486 8.21867 27.6059 8.688C27.8632 9.15734 27.9918 9.584 27.9918 9.968L27.9918 24.496L19.3084 30.768Z"/>
<path d="M39.8048 76C38.2611 76 36.9747 75.4667 35.9455 74.4C34.9164 73.3334 34.4018 72.032 34.4018 70.496L34.4018 17.504C34.4018 15.968 34.9164 14.6667 35.9455 13.6C36.9747 12.5333 38.2611 12 39.8048 12L54.5987 12C56.1424 12 57.4503 12.5333 58.5223 13.6C59.5943 14.6667 60.1303 15.968 60.1303 17.504L60.1303 70.496C60.1303 72.032 59.5943 73.3334 58.5223 74.4C57.4503 75.4667 56.1424 76 54.5987 76L39.8048 76ZM50.0962 67.744C50.3964 67.744 50.6322 67.6374 50.8037 67.424C51.0181 67.2107 51.1253 66.9974 51.1253 66.784L51.1253 21.6C51.1253 20.96 50.7823 20.64 50.0962 20.64L44.5003 20.64C43.7713 20.64 43.4068 20.96 43.4068 21.6L43.4068 66.784C43.4068 66.9974 43.514 67.2107 43.7284 67.424C43.9428 67.6374 44.2001 67.744 44.5002 67.744L50.0962 67.744Z"/>
<path d="M70.1001 69.936C69.7142 69.808 69.3068 69.5947 68.878 69.296C68.4921 68.9974 68.1061 68.656 67.7202 68.272C67.3772 67.888 67.0984 67.4827 66.884 67.056C66.6696 66.6294 66.5624 66.2027 66.5624 65.776L66.5624 45.936C66.5624 45.8934 69.3497 47.6854 74.9242 51.312L74.9242 60.464L75.3101 61.04L81.485 61.04L81.485 44.016L67.8489 34.096C67.5916 33.8827 67.3128 33.4774 67.0127 32.88C66.7125 32.2827 66.5624 31.8134 66.5624 31.472L66.5624 10.352C66.5624 9.84001 66.6911 9.32801 66.9484 8.81601C67.2485 8.30401 67.613 7.85601 68.0418 7.47201C68.5135 7.04534 69.0066 6.70401 69.5212 6.44801C70.0358 6.19201 70.5504 6.06401 71.0649 6.06401L85.9874 6.06401C86.4163 6.06401 86.8451 6.19201 87.2739 6.44801C87.7456 6.70401 88.1744 7.04534 88.5603 7.47201C88.9462 7.85601 89.2678 8.28268 89.5251 8.75202C89.7824 9.22135 89.911 9.64801 89.911 10.032L89.911 20.336L81.5493 25.328L81.5493 15.088L75.5674 15.088L75.0528 15.536L75.0528 27.184C75.0528 27.312 75.1172 27.4614 75.2458 27.632C75.3744 27.8027 75.4816 27.9307 75.5674 28.016L87.8528 36.976C88.2387 37.3174 88.6675 37.7867 89.1392 38.384C89.6537 38.9814 89.911 39.5787 89.911 40.176L89.911 66.352C89.911 66.7787 89.7824 67.2054 89.5251 67.632C89.2678 68.0587 88.9248 68.4641 88.496 68.8481C88.11 69.1894 87.6812 69.4667 87.2095 69.68C86.7807 69.8934 86.3734 70 85.9874 70L70.1001 69.936Z"/>
<path d="M96.3361 21.088L96.3361 12L123.544 12L123.544 21.088L114.153 21.088L114.153 76L105.405 76L105.405 21.088L96.3361 21.088Z"/>
<path d="M134.658 6.00002L149.259 6.00002L156.914 70.0001L148.295 70.0001L147.072 60.272L136.845 60.272L135.688 70.0001L127.004 70.0001L134.658 6.00002ZM145.979 50.8L141.927 18.672L138.068 50.8L145.979 50.8Z"/>
<path d="M207.482 12C207.91 12 208.339 12.128 208.768 12.384C209.24 12.64 209.647 12.9814 209.99 13.408C210.333 13.792 210.612 14.2614 210.826 14.816C211.041 15.328 211.148 15.84 211.148 16.352L211.148 34.336C211.148 35.0614 210.998 35.7654 210.698 36.448C210.44 37.088 210.097 37.7067 209.669 38.304C209.24 38.9014 208.768 39.4774 208.254 40.032C207.739 40.544 207.246 41.0347 206.774 41.504L206.774 42.144L213.206 76.0001L204.523 76.0001L198.991 47.2001L194.81 50.208L194.81 76.0001L186.127 76.0001L186.127 12L207.482 12ZM194.875 39.328L200.921 35.168C201.135 34.9974 201.35 34.8054 201.564 34.592C201.779 34.3787 201.95 34.1867 202.079 34.016L202.079 21.152L194.875 21.152L194.875 39.328Z"/>
<path d="M228.16 4.00004L228.16 68.0001L219.67 68.0001L219.67 4.00004L228.16 4.00004Z"/>
<path d="M249.928 36.7681L249.928 21.216C249.928 21.1307 249.863 21.0454 249.735 20.96C249.649 20.832 249.563 20.768 249.477 20.768L243.753 20.768C243.495 20.768 243.367 20.9174 243.367 21.216L243.367 66.7841C243.367 66.8694 243.41 66.9547 243.495 67.0401C243.581 67.1254 243.667 67.1681 243.753 67.1681L249.477 67.1681C249.563 67.1681 249.649 67.1254 249.735 67.0401C249.863 66.9547 249.928 66.8694 249.928 66.7841L249.928 51.2321L258.611 57.4401L258.611 72.0321C258.611 72.4161 258.482 72.8427 258.225 73.3121C257.968 73.7814 257.646 74.2081 257.26 74.5921C256.874 74.9761 256.445 75.3174 255.974 75.6161C255.545 75.8721 255.138 76.0001 254.752 76.0001L238.864 76.0001C238.35 76.0001 237.835 75.8934 237.321 75.6801C236.806 75.4241 236.356 75.1041 235.97 74.7201C235.584 74.2934 235.262 73.8454 235.005 73.3761C234.748 72.8641 234.619 72.3521 234.619 71.8401L234.619 16.16C234.619 15.648 234.748 15.136 235.005 14.624C235.262 14.112 235.584 13.664 235.97 13.28C236.356 12.896 236.806 12.5974 237.321 12.384C237.835 12.128 238.35 12 238.864 12L254.752 12C255.138 12 255.545 12.1494 255.974 12.448C256.446 12.704 256.874 13.024 257.26 13.408C257.646 13.792 257.968 14.2187 258.225 14.688C258.482 15.1574 258.611 15.584 258.611 15.968L258.611 30.4961L249.928 36.7681Z"/>
<path d="M272.675 4.00005L287.276 4.00005L294.93 68.0001L286.311 68.0001L285.089 58.2721L274.862 58.2721L273.704 68.0001L265.021 68.0001L272.675 4.00005ZM283.996 48.8001L279.944 16.6721L276.084 48.8001L283.996 48.8001Z"/>
</mask>
<path d="M19.3084 30.768L19.3084 15.216C19.3084 15.1307 19.2441 15.0453 19.1155 14.96C19.0297 14.832 18.944 14.768 18.8582 14.768L13.1336 14.768C12.8763 14.768 12.7477 14.9173 12.7477 15.216L12.7477 60.784C12.7477 60.8694 12.7906 60.9547 12.8763 61.04C12.9621 61.1254 13.0478 61.168 13.1336 61.168L18.8582 61.168C18.944 61.168 19.0297 61.1254 19.1155 61.04C19.2441 60.9547 19.3084 60.8694 19.3084 60.784L19.3084 45.232L27.9918 51.44L27.9918 66.032C27.9918 66.416 27.8632 66.8427 27.6059 67.312C27.3486 67.7814 27.027 68.208 26.6411 68.592C26.2551 68.976 25.8263 69.3174 25.3546 69.616C24.9258 69.872 24.5185 70 24.1325 70L8.24519 70C7.73062 70 7.21605 69.8934 6.70148 69.68C6.18691 69.424 5.73666 69.104 5.35073 68.72C4.96481 68.2934 4.6432 67.8454 4.38592 67.376C4.12863 66.864 3.99999 66.352 3.99999 65.84L4 10.16C4 9.648 4.12864 9.136 4.38593 8.624C4.64321 8.112 4.96482 7.664 5.35075 7.28C5.73667 6.896 6.18692 6.59733 6.70149 6.384C7.21606 6.128 7.73063 6 8.2452 6L24.1325 6C24.5185 6 24.9258 6.14933 25.3546 6.448C25.8263 6.704 26.2551 7.024 26.6411 7.408C27.027 7.792 27.3486 8.21867 27.6059 8.688C27.8632 9.15734 27.9918 9.584 27.9918 9.968L27.9918 24.496L19.3084 30.768Z" fill="white"/>
<path d="M39.8048 76C38.2611 76 36.9747 75.4667 35.9455 74.4C34.9164 73.3334 34.4018 72.032 34.4018 70.496L34.4018 17.504C34.4018 15.968 34.9164 14.6667 35.9455 13.6C36.9747 12.5333 38.2611 12 39.8048 12L54.5987 12C56.1424 12 57.4503 12.5333 58.5223 13.6C59.5943 14.6667 60.1303 15.968 60.1303 17.504L60.1303 70.496C60.1303 72.032 59.5943 73.3334 58.5223 74.4C57.4503 75.4667 56.1424 76 54.5987 76L39.8048 76ZM50.0962 67.744C50.3964 67.744 50.6322 67.6374 50.8037 67.424C51.0181 67.2107 51.1253 66.9974 51.1253 66.784L51.1253 21.6C51.1253 20.96 50.7823 20.64 50.0962 20.64L44.5003 20.64C43.7713 20.64 43.4068 20.96 43.4068 21.6L43.4068 66.784C43.4068 66.9974 43.514 67.2107 43.7284 67.424C43.9428 67.6374 44.2001 67.744 44.5002 67.744L50.0962 67.744Z" fill="white"/>
<path d="M70.1001 69.936C69.7142 69.808 69.3068 69.5947 68.878 69.296C68.4921 68.9974 68.1061 68.656 67.7202 68.272C67.3772 67.888 67.0984 67.4827 66.884 67.056C66.6696 66.6294 66.5624 66.2027 66.5624 65.776L66.5624 45.936C66.5624 45.8934 69.3497 47.6854 74.9242 51.312L74.9242 60.464L75.3101 61.04L81.485 61.04L81.485 44.016L67.8489 34.096C67.5916 33.8827 67.3128 33.4774 67.0127 32.88C66.7125 32.2827 66.5624 31.8134 66.5624 31.472L66.5624 10.352C66.5624 9.84001 66.6911 9.32801 66.9484 8.81601C67.2485 8.30401 67.613 7.85601 68.0418 7.47201C68.5135 7.04534 69.0066 6.70401 69.5212 6.44801C70.0358 6.19201 70.5504 6.06401 71.0649 6.06401L85.9874 6.06401C86.4163 6.06401 86.8451 6.19201 87.2739 6.44801C87.7456 6.70401 88.1744 7.04534 88.5603 7.47201C88.9462 7.85601 89.2678 8.28268 89.5251 8.75202C89.7824 9.22135 89.911 9.64801 89.911 10.032L89.911 20.336L81.5493 25.328L81.5493 15.088L75.5674 15.088L75.0528 15.536L75.0528 27.184C75.0528 27.312 75.1172 27.4614 75.2458 27.632C75.3744 27.8027 75.4816 27.9307 75.5674 28.016L87.8528 36.976C88.2387 37.3174 88.6675 37.7867 89.1392 38.384C89.6537 38.9814 89.911 39.5787 89.911 40.176L89.911 66.352C89.911 66.7787 89.7824 67.2054 89.5251 67.632C89.2678 68.0587 88.9248 68.4641 88.496 68.8481C88.11 69.1894 87.6812 69.4667 87.2095 69.68C86.7807 69.8934 86.3734 70 85.9874 70L70.1001 69.936Z" fill="white"/>
<path d="M96.3361 21.088L96.3361 12L123.544 12L123.544 21.088L114.153 21.088L114.153 76L105.405 76L105.405 21.088L96.3361 21.088Z" fill="white"/>
<path d="M134.658 6.00002L149.259 6.00002L156.914 70.0001L148.295 70.0001L147.072 60.272L136.845 60.272L135.688 70.0001L127.004 70.0001L134.658 6.00002ZM145.979 50.8L141.927 18.672L138.068 50.8L145.979 50.8Z" fill="white"/>
<path d="M207.482 12C207.91 12 208.339 12.128 208.768 12.384C209.24 12.64 209.647 12.9814 209.99 13.408C210.333 13.792 210.612 14.2614 210.826 14.816C211.041 15.328 211.148 15.84 211.148 16.352L211.148 34.336C211.148 35.0614 210.998 35.7654 210.698 36.448C210.44 37.088 210.097 37.7067 209.669 38.304C209.24 38.9014 208.768 39.4774 208.254 40.032C207.739 40.544 207.246 41.0347 206.774 41.504L206.774 42.144L213.206 76.0001L204.523 76.0001L198.991 47.2001L194.81 50.208L194.81 76.0001L186.127 76.0001L186.127 12L207.482 12ZM194.875 39.328L200.921 35.168C201.135 34.9974 201.35 34.8054 201.564 34.592C201.779 34.3787 201.95 34.1867 202.079 34.016L202.079 21.152L194.875 21.152L194.875 39.328Z" fill="white"/>
<path d="M228.16 4.00004L228.16 68.0001L219.67 68.0001L219.67 4.00004L228.16 4.00004Z" fill="white"/>
<path d="M249.928 36.7681L249.928 21.216C249.928 21.1307 249.863 21.0454 249.735 20.96C249.649 20.832 249.563 20.768 249.477 20.768L243.753 20.768C243.495 20.768 243.367 20.9174 243.367 21.216L243.367 66.7841C243.367 66.8694 243.41 66.9547 243.495 67.0401C243.581 67.1254 243.667 67.1681 243.753 67.1681L249.477 67.1681C249.563 67.1681 249.649 67.1254 249.735 67.0401C249.863 66.9547 249.928 66.8694 249.928 66.7841L249.928 51.2321L258.611 57.4401L258.611 72.0321C258.611 72.4161 258.482 72.8427 258.225 73.3121C257.968 73.7814 257.646 74.2081 257.26 74.5921C256.874 74.9761 256.445 75.3174 255.974 75.6161C255.545 75.8721 255.138 76.0001 254.752 76.0001L238.864 76.0001C238.35 76.0001 237.835 75.8934 237.321 75.6801C236.806 75.4241 236.356 75.1041 235.97 74.7201C235.584 74.2934 235.262 73.8454 235.005 73.3761C234.748 72.8641 234.619 72.3521 234.619 71.8401L234.619 16.16C234.619 15.648 234.748 15.136 235.005 14.624C235.262 14.112 235.584 13.664 235.97 13.28C236.356 12.896 236.806 12.5974 237.321 12.384C237.835 12.128 238.35 12 238.864 12L254.752 12C255.138 12 255.545 12.1494 255.974 12.448C256.446 12.704 256.874 13.024 257.26 13.408C257.646 13.792 257.968 14.2187 258.225 14.688C258.482 15.1574 258.611 15.584 258.611 15.968L258.611 30.4961L249.928 36.7681Z" fill="white"/>
<path d="M272.675 4.00005L287.276 4.00005L294.93 68.0001L286.311 68.0001L285.089 58.2721L274.862 58.2721L273.704 68.0001L265.021 68.0001L272.675 4.00005ZM283.996 48.8001L279.944 16.6721L276.084 48.8001L283.996 48.8001Z" fill="white"/>
<path d="M19.3084 30.768L19.3084 15.216C19.3084 15.1307 19.2441 15.0453 19.1155 14.96C19.0297 14.832 18.944 14.768 18.8582 14.768L13.1336 14.768C12.8763 14.768 12.7477 14.9173 12.7477 15.216L12.7477 60.784C12.7477 60.8694 12.7906 60.9547 12.8763 61.04C12.9621 61.1254 13.0478 61.168 13.1336 61.168L18.8582 61.168C18.944 61.168 19.0297 61.1254 19.1155 61.04C19.2441 60.9547 19.3084 60.8694 19.3084 60.784L19.3084 45.232L27.9918 51.44L27.9918 66.032C27.9918 66.416 27.8632 66.8427 27.6059 67.312C27.3486 67.7814 27.027 68.208 26.6411 68.592C26.2551 68.976 25.8263 69.3174 25.3546 69.616C24.9258 69.872 24.5185 70 24.1325 70L8.24519 70C7.73062 70 7.21605 69.8934 6.70148 69.68C6.18691 69.424 5.73666 69.104 5.35073 68.72C4.96481 68.2934 4.6432 67.8454 4.38592 67.376C4.12863 66.864 3.99999 66.352 3.99999 65.84L4 10.16C4 9.648 4.12864 9.136 4.38593 8.624C4.64321 8.112 4.96482 7.664 5.35075 7.28C5.73667 6.896 6.18692 6.59733 6.70149 6.384C7.21606 6.128 7.73063 6 8.2452 6L24.1325 6C24.5185 6 24.9258 6.14933 25.3546 6.448C25.8263 6.704 26.2551 7.024 26.6411 7.408C27.027 7.792 27.3486 8.21867 27.6059 8.688C27.8632 9.15734 27.9918 9.584 27.9918 9.968L27.9918 24.496L19.3084 30.768Z" stroke="#2D2D31" stroke-width="8" mask="url(#path-1-outside-1_4512_1661)"/>
<path d="M39.8048 76C38.2611 76 36.9747 75.4667 35.9455 74.4C34.9164 73.3334 34.4018 72.032 34.4018 70.496L34.4018 17.504C34.4018 15.968 34.9164 14.6667 35.9455 13.6C36.9747 12.5333 38.2611 12 39.8048 12L54.5987 12C56.1424 12 57.4503 12.5333 58.5223 13.6C59.5943 14.6667 60.1303 15.968 60.1303 17.504L60.1303 70.496C60.1303 72.032 59.5943 73.3334 58.5223 74.4C57.4503 75.4667 56.1424 76 54.5987 76L39.8048 76ZM50.0962 67.744C50.3964 67.744 50.6322 67.6374 50.8037 67.424C51.0181 67.2107 51.1253 66.9974 51.1253 66.784L51.1253 21.6C51.1253 20.96 50.7823 20.64 50.0962 20.64L44.5003 20.64C43.7713 20.64 43.4068 20.96 43.4068 21.6L43.4068 66.784C43.4068 66.9974 43.514 67.2107 43.7284 67.424C43.9428 67.6374 44.2001 67.744 44.5002 67.744L50.0962 67.744Z" stroke="#2D2D31" stroke-width="8" mask="url(#path-1-outside-1_4512_1661)"/>
<path d="M70.1001 69.936C69.7142 69.808 69.3068 69.5947 68.878 69.296C68.4921 68.9974 68.1061 68.656 67.7202 68.272C67.3772 67.888 67.0984 67.4827 66.884 67.056C66.6696 66.6294 66.5624 66.2027 66.5624 65.776L66.5624 45.936C66.5624 45.8934 69.3497 47.6854 74.9242 51.312L74.9242 60.464L75.3101 61.04L81.485 61.04L81.485 44.016L67.8489 34.096C67.5916 33.8827 67.3128 33.4774 67.0127 32.88C66.7125 32.2827 66.5624 31.8134 66.5624 31.472L66.5624 10.352C66.5624 9.84001 66.6911 9.32801 66.9484 8.81601C67.2485 8.30401 67.613 7.85601 68.0418 7.47201C68.5135 7.04534 69.0066 6.70401 69.5212 6.44801C70.0358 6.19201 70.5504 6.06401 71.0649 6.06401L85.9874 6.06401C86.4163 6.06401 86.8451 6.19201 87.2739 6.44801C87.7456 6.70401 88.1744 7.04534 88.5603 7.47201C88.9462 7.85601 89.2678 8.28268 89.5251 8.75202C89.7824 9.22135 89.911 9.64801 89.911 10.032L89.911 20.336L81.5493 25.328L81.5493 15.088L75.5674 15.088L75.0528 15.536L75.0528 27.184C75.0528 27.312 75.1172 27.4614 75.2458 27.632C75.3744 27.8027 75.4816 27.9307 75.5674 28.016L87.8528 36.976C88.2387 37.3174 88.6675 37.7867 89.1392 38.384C89.6537 38.9814 89.911 39.5787 89.911 40.176L89.911 66.352C89.911 66.7787 89.7824 67.2054 89.5251 67.632C89.2678 68.0587 88.9248 68.4641 88.496 68.8481C88.11 69.1894 87.6812 69.4667 87.2095 69.68C86.7807 69.8934 86.3734 70 85.9874 70L70.1001 69.936Z" stroke="#2D2D31" stroke-width="8" mask="url(#path-1-outside-1_4512_1661)"/>
<path d="M96.3361 21.088L96.3361 12L123.544 12L123.544 21.088L114.153 21.088L114.153 76L105.405 76L105.405 21.088L96.3361 21.088Z" stroke="#2D2D31" stroke-width="8" mask="url(#path-1-outside-1_4512_1661)"/>
<path d="M134.658 6.00002L149.259 6.00002L156.914 70.0001L148.295 70.0001L147.072 60.272L136.845 60.272L135.688 70.0001L127.004 70.0001L134.658 6.00002ZM145.979 50.8L141.927 18.672L138.068 50.8L145.979 50.8Z" stroke="#2D2D31" stroke-width="8" mask="url(#path-1-outside-1_4512_1661)"/>
<path d="M207.482 12C207.91 12 208.339 12.128 208.768 12.384C209.24 12.64 209.647 12.9814 209.99 13.408C210.333 13.792 210.612 14.2614 210.826 14.816C211.041 15.328 211.148 15.84 211.148 16.352L211.148 34.336C211.148 35.0614 210.998 35.7654 210.698 36.448C210.44 37.088 210.097 37.7067 209.669 38.304C209.24 38.9014 208.768 39.4774 208.254 40.032C207.739 40.544 207.246 41.0347 206.774 41.504L206.774 42.144L213.206 76.0001L204.523 76.0001L198.991 47.2001L194.81 50.208L194.81 76.0001L186.127 76.0001L186.127 12L207.482 12ZM194.875 39.328L200.921 35.168C201.135 34.9974 201.35 34.8054 201.564 34.592C201.779 34.3787 201.95 34.1867 202.079 34.016L202.079 21.152L194.875 21.152L194.875 39.328Z" stroke="#2D2D31" stroke-width="8" mask="url(#path-1-outside-1_4512_1661)"/>
<path d="M228.16 4.00004L228.16 68.0001L219.67 68.0001L219.67 4.00004L228.16 4.00004Z" stroke="#2D2D31" stroke-width="8" mask="url(#path-1-outside-1_4512_1661)"/>
<path d="M249.928 36.7681L249.928 21.216C249.928 21.1307 249.863 21.0454 249.735 20.96C249.649 20.832 249.563 20.768 249.477 20.768L243.753 20.768C243.495 20.768 243.367 20.9174 243.367 21.216L243.367 66.7841C243.367 66.8694 243.41 66.9547 243.495 67.0401C243.581 67.1254 243.667 67.1681 243.753 67.1681L249.477 67.1681C249.563 67.1681 249.649 67.1254 249.735 67.0401C249.863 66.9547 249.928 66.8694 249.928 66.7841L249.928 51.2321L258.611 57.4401L258.611 72.0321C258.611 72.4161 258.482 72.8427 258.225 73.3121C257.968 73.7814 257.646 74.2081 257.26 74.5921C256.874 74.9761 256.445 75.3174 255.974 75.6161C255.545 75.8721 255.138 76.0001 254.752 76.0001L238.864 76.0001C238.35 76.0001 237.835 75.8934 237.321 75.6801C236.806 75.4241 236.356 75.1041 235.97 74.7201C235.584 74.2934 235.262 73.8454 235.005 73.3761C234.748 72.8641 234.619 72.3521 234.619 71.8401L234.619 16.16C234.619 15.648 234.748 15.136 235.005 14.624C235.262 14.112 235.584 13.664 235.97 13.28C236.356 12.896 236.806 12.5974 237.321 12.384C237.835 12.128 238.35 12 238.864 12L254.752 12C255.138 12 255.545 12.1494 255.974 12.448C256.446 12.704 256.874 13.024 257.26 13.408C257.646 13.792 257.968 14.2187 258.225 14.688C258.482 15.1574 258.611 15.584 258.611 15.968L258.611 30.4961L249.928 36.7681Z" stroke="#2D2D31" stroke-width="8" mask="url(#path-1-outside-1_4512_1661)"/>
<path d="M272.675 4.00005L287.276 4.00005L294.93 68.0001L286.311 68.0001L285.089 58.2721L274.862 58.2721L273.704 68.0001L265.021 68.0001L272.675 4.00005ZM283.996 48.8001L279.944 16.6721L276.084 48.8001L283.996 48.8001Z" stroke="#2D2D31" stroke-width="8" mask="url(#path-1-outside-1_4512_1661)"/>
</g>
<defs>
<filter id="filter0_d_4512_1661" x="0" y="0" width="303.438" height="88" filterUnits="userSpaceOnUse" color-interpolation-filters="sRGB">
<feFlood flood-opacity="0" result="BackgroundImageFix"/>
<feColorMatrix in="SourceAlpha" type="matrix" values="0 0 0 0 0 0 0 0 0 0 0 0 0 0 0 0 0 0 127 0" result="hardAlpha"/>
<feOffset dx="4" dy="8"/>
<feComposite in2="hardAlpha" operator="out"/>
<feColorMatrix type="matrix" values="0 0 0 0 0.160784 0 0 0 0 0.184314 0 0 0 0 0.317647 0 0 0 1 0"/>
<feBlend mode="normal" in2="BackgroundImageFix" result="effect1_dropShadow_4512_1661"/>
<feBlend mode="normal" in="SourceGraphic" in2="effect1_dropShadow_4512_1661" result="shape"/>
</filter>
</defs>
</svg>
