<svg width="74" height="83" viewBox="0 0 74 83" fill="none" xmlns="http://www.w3.org/2000/svg">
<path d="M27.0185 60.3261C26.0185 59.5261 23.9184 59.7261 22.8184 60.0261C22.7625 60.0303 22.709 60.0502 22.6638 60.0834C22.6186 60.1165 22.5836 60.1617 22.5627 60.2138C22.5419 60.2658 22.5361 60.3227 22.5459 60.3779C22.5558 60.4331 22.5809 60.4844 22.6185 60.5261C21.3184 61.8261 19.6185 62.7261 18.5185 64.3261C17.4576 65.9911 16.7749 67.8685 16.5185 69.8261C16.085 71.9343 16.051 74.1053 16.4184 76.2261C16.7184 77.9261 17.0184 80.1261 18.1184 81.5261C19.2185 82.9261 18.8184 81.5261 18.7184 81.2261C18.2725 79.462 18.0706 77.645 18.1184 75.8261C18.2081 73.9893 18.5444 72.1731 19.1184 70.4261C20.1184 66.8261 22.8184 64.6261 25.8184 63.0261C26.8184 62.5261 28.3185 61.3261 27.0185 60.3261Z" fill="#C0472C"/>
<path d="M21.7187 57.726C20.7187 56.826 18.7187 56.826 17.5187 57.026C17.4628 57.0302 17.4092 57.0501 17.364 57.0833C17.3188 57.1164 17.2838 57.1616 17.263 57.2137C17.2422 57.2657 17.2363 57.3226 17.2462 57.3778C17.256 57.433 17.2812 57.4843 17.3187 57.526C15.9187 58.726 14.1187 59.426 12.9187 60.926C11.7495 62.5137 10.9004 64.3139 10.4187 66.226C9.75393 68.256 9.48242 70.3942 9.6187 72.526C9.8187 74.226 9.91869 76.426 10.9187 77.926C11.9187 79.426 11.6187 78.126 11.5187 77.726C11.235 75.9393 11.2014 74.1219 11.4187 72.326C11.6719 70.4986 12.1766 68.715 12.9187 67.026C14.2187 63.626 17.1187 61.526 20.3187 60.326C21.3187 59.926 22.9187 58.826 21.7187 57.726Z" fill="#C0472C"/>
<path d="M20.5184 53.126C19.9184 52.026 17.9184 51.426 16.8184 51.226C15.7184 51.026 16.4184 51.426 16.4184 51.626C14.7184 52.226 12.8184 52.326 11.1184 53.426C9.51764 54.5444 8.15747 55.9726 7.11844 57.626C5.86157 59.3723 4.94554 61.34 4.41844 63.426C4.01844 65.126 3.41844 67.226 3.81844 68.926C3.85303 68.9885 3.90374 69.0406 3.96529 69.0769C4.02684 69.1132 4.09698 69.1324 4.16844 69.1324C4.23989 69.1324 4.31004 69.1132 4.37159 69.0769C4.43314 69.0406 4.48385 68.9885 4.51844 68.926C4.79204 67.1552 5.33145 65.4358 6.11844 63.826C6.97512 62.1497 8.01479 60.5734 9.21844 59.126C11.6184 56.326 14.9184 55.326 18.4184 55.126C19.4184 55.126 21.3184 54.526 20.5184 53.126Z" fill="#C0472C"/>
<path d="M48.8184 63.0261C51.9184 64.6261 54.6184 66.8261 55.5184 70.4261C56.0924 72.1731 56.4288 73.9893 56.5184 75.8261C56.6163 77.6468 56.4136 79.4712 55.9184 81.2261C55.8184 81.5261 56.3184 81.7261 56.5184 81.5261C56.7184 81.3261 57.9184 77.9261 58.3184 76.2261C58.6529 74.099 58.5851 71.9281 58.1184 69.8261C57.8619 67.8685 57.1792 65.9911 56.1184 64.3261C55.0184 62.7261 53.4184 61.8261 52.0184 60.5261C52.0557 60.4912 52.0834 60.4473 52.099 60.3987C52.1146 60.3501 52.1176 60.2983 52.1075 60.2482C52.0975 60.1982 52.0749 60.1515 52.0418 60.1126C52.0087 60.0737 51.9662 60.0439 51.9184 60.0261C50.7184 59.7261 48.7184 59.5261 47.7184 60.3261C46.7184 61.1261 47.9184 62.5261 48.8184 63.0261Z" fill="#C0472C"/>
<path d="M54.3185 60.326C57.5185 61.526 60.4185 63.626 61.7185 67.026C62.4605 68.715 62.9653 70.4986 63.2185 72.326C63.4689 74.1172 63.4689 75.9347 63.2185 77.726C63.1185 78.126 63.6185 78.226 63.8185 77.926C64.0185 77.626 64.8185 74.226 65.0185 72.526C65.1377 70.4016 64.9011 68.2723 64.3185 66.226C63.8442 64.2924 62.9573 62.4844 61.7185 60.926C60.5185 59.426 58.8185 58.726 57.3185 57.526C57.356 57.4843 57.3811 57.433 57.391 57.3778C57.4008 57.3226 57.395 57.2657 57.3742 57.2137C57.3533 57.1616 57.3183 57.1164 57.2732 57.0833C57.228 57.0501 57.1744 57.0302 57.1185 57.026C55.9185 56.826 53.9185 56.826 52.9185 57.726C51.9185 58.626 53.4185 59.926 54.3185 60.326Z" fill="#C0472C"/>
<path d="M56.3184 55.126C59.7184 55.326 63.1184 56.326 65.4184 59.126C66.6552 60.5486 67.6976 62.1291 68.5184 63.826C69.3054 65.4358 69.8448 67.1552 70.1184 68.926C70.153 68.9886 70.2037 69.0407 70.2653 69.077C70.3268 69.1133 70.397 69.1324 70.4684 69.1324C70.5399 69.1324 70.61 69.1133 70.6716 69.077C70.7331 69.0407 70.7838 68.9886 70.8184 68.926C71.2184 67.226 70.6184 65.126 70.2184 63.426C69.7264 61.3457 68.8441 59.3775 67.6184 57.626C66.5438 55.968 65.1501 54.5403 63.5184 53.426C61.8184 52.326 60.0184 52.226 58.2184 51.626C58.3184 51.426 58.1184 51.126 57.9184 51.226C57.7184 51.326 54.7184 52.026 54.1184 53.126C53.5184 54.226 55.2184 55.126 56.3184 55.126Z" fill="#C0472C"/>
<path d="M59.3185 38.726C52.4185 33.026 47.0185 27.826 37.3185 28.126C27.6185 28.426 22.2185 33.026 15.3185 38.726C8.41848 44.426 7.11848 49.826 13.1185 56.326C19.1185 62.826 28.0185 64.226 37.3185 63.626C46.6185 63.026 55.9185 62.326 61.5185 56.326C67.1185 50.326 65.3185 43.726 59.3185 38.726Z" fill="#F35D3C"/>
<path d="M39.7184 32.3259C39.1184 34.0259 35.6184 34.3259 34.9184 32.4259C34.2184 30.5259 33.9184 32.1259 34.1184 32.6259C34.3772 33.2301 34.8106 33.7433 35.3629 34.0996C35.9152 34.4559 36.5613 34.6392 37.2184 34.6259C37.9394 34.7137 38.6687 34.5536 39.2865 34.1719C39.9044 33.7903 40.3741 33.2098 40.6184 32.5259C40.8184 32.0259 39.9184 31.7259 39.7184 32.3259Z" fill="#012A48"/>
<path d="M31.0188 29.9261L33.1188 29.4261C33.3188 28.2261 33.3188 27.0261 33.5188 25.8261C33.7838 24.5069 33.9509 23.1699 34.0188 21.8261C33.9729 21.6684 33.8798 21.5287 33.7519 21.4259C33.624 21.323 33.4675 21.262 33.3037 21.2511C33.14 21.2402 32.9768 21.2799 32.8364 21.3649C32.696 21.4498 32.5851 21.5759 32.5188 21.7261V21.5261C32.3188 20.9261 31.4188 20.6261 31.1188 21.3261H30.8187C30.7619 21.173 30.6596 21.0409 30.5255 20.9477C30.3915 20.8544 30.2321 20.8044 30.0687 20.8044C29.9054 20.8044 29.746 20.8544 29.612 20.9477C29.4779 21.0409 29.3756 21.173 29.3187 21.3261V21.6261C28.8187 21.4261 28.2188 21.6261 28.2188 22.2261C28.3575 23.9771 28.7622 25.6968 29.4187 27.3261C29.8173 28.2688 30.3568 29.1455 31.0188 29.9261Z" fill="#C0472C"/>
<path d="M41.5187 29.426H41.4186L43.5187 29.926C44.2469 29.1385 44.8233 28.2231 45.2187 27.226C45.8752 25.5967 46.2799 23.877 46.4186 22.126C46.4186 21.526 45.8186 21.326 45.3186 21.526V21.226C45.2186 20.426 44.0186 20.526 43.8186 21.226H43.5187C43.2187 20.526 42.3187 20.826 42.1187 21.426V21.626C42.0523 21.4758 41.9414 21.3497 41.801 21.2648C41.6606 21.1798 41.4974 21.1401 41.3337 21.151C41.1699 21.1619 41.0134 21.2229 40.8855 21.3258C40.7576 21.4286 40.6645 21.5684 40.6187 21.726C40.6711 23.0773 40.8723 24.4187 41.2187 25.726C41.3187 27.026 41.3187 28.226 41.5187 29.426Z" fill="#C0472C"/>
<path d="M31.1184 18.926C27.2184 18.926 27.2184 24.926 31.1184 24.926C35.0184 24.926 35.0184 18.926 31.1184 18.926Z" fill="#F2F2F2"/>
<path d="M43.5188 18.926C39.6188 18.926 39.6188 24.926 43.5188 24.926C47.4188 24.926 47.4188 18.926 43.5188 18.926Z" fill="#F2F2F2"/>
<path d="M31.1187 19.626C28.1187 19.626 28.1187 24.326 31.1187 24.326C31.6591 24.2139 32.1443 23.919 32.4927 23.491C32.8411 23.0629 33.0313 22.5279 33.0313 21.976C33.0313 21.4241 32.8411 20.889 32.4927 20.461C32.1443 20.0329 31.6591 19.738 31.1187 19.626Z" fill="#012A48"/>
<path d="M43.6188 19.426C40.4188 19.426 40.4188 24.326 43.6188 24.326C46.8188 24.326 46.8188 19.426 43.6188 19.426Z" fill="#012A48"/>
<path d="M16.8186 39.926C15.0186 39.526 13.1186 38.426 12.7186 36.426C12.4821 34.6192 12.7594 32.7824 13.5186 31.126C15.2186 28.026 10.4186 25.226 8.81856 28.326C7.15376 31.453 6.69133 35.0813 7.51856 38.526C8.51856 42.026 12.0186 44.426 15.4186 45.226C18.8186 46.026 20.3186 40.826 16.8186 39.926Z" fill="#C0472C"/>
<path d="M22.6186 11.726C22.2056 11.9394 21.8523 12.2522 21.5904 12.6363C21.3285 13.0204 21.1664 13.4636 21.1186 13.926L20.1186 14.126C18.7186 14.726 18.0186 14.726 17.6186 16.526C17.4964 17.219 17.4628 17.9246 17.5186 18.626C17.3186 18.826 16.3186 18.926 15.9186 19.126L15.5186 19.426C15.2186 18.326 14.8186 17.226 14.4186 16.126C15.5104 15.6109 16.4179 14.7732 17.0186 13.726C17.2186 13.526 17.1186 12.826 17.2186 12.626L18.7186 12.326C20.0186 11.626 20.8186 10.826 20.6186 9.32605C22.7186 9.22605 22.6186 7.32605 23.0186 5.72605C23.0148 4.89301 22.8346 4.07023 22.4899 3.31185C22.1451 2.55347 21.6437 1.8767 21.0186 1.32605C19.3186 -0.173952 16.2186 -0.173954 13.0186 0.226046C9.81864 0.626046 3.11864 7.62605 1.31864 11.726C-2.88136 21.5261 3.21864 36.726 15.8186 32.126C20.3186 30.526 25.1186 24.026 25.9186 19.326C26.3186 17.426 26.8186 9.72605 22.6186 11.726Z" fill="#F35D3C"/>
<path d="M56.9183 39.926C58.7183 39.526 60.6183 38.426 61.0183 36.426C61.3026 34.6191 61.0233 32.7685 60.2183 31.126C58.6183 28.026 63.3183 25.226 65.0183 28.326C66.6061 31.4789 67.031 35.0907 66.2183 38.526C65.2183 42.026 61.8183 44.426 58.4183 45.226C55.0183 46.026 53.4183 40.826 56.9183 39.926Z" fill="#C0472C"/>
<path d="M47.8184 19.326C48.7184 24.026 53.4184 30.526 58.0184 32.126C70.5184 36.726 76.7184 21.5261 72.4184 11.726C70.7184 7.62605 65.5184 0.926046 60.7184 0.226046C57.5184 -0.173954 54.4184 -0.173952 52.7184 1.32605C51.5022 2.47493 50.7843 4.05435 50.7184 5.72605C51.1184 7.32605 51.0184 9.22605 53.1184 9.32605C53.0578 9.96596 53.2116 10.6078 53.5555 11.1509C53.8994 11.6939 54.414 12.1073 55.0184 12.326L56.6184 12.626C56.7184 12.826 56.6184 13.526 56.7184 13.726C57.3191 14.7732 58.2266 15.6109 59.3184 16.126C58.8938 17.1963 58.5593 18.3001 58.3184 19.426L57.9184 19.126C57.5184 18.926 56.4184 18.826 56.2184 18.626C56.3255 17.9301 56.3255 17.2219 56.2184 16.526C55.7184 14.726 55.0184 14.726 53.6184 14.126L52.6184 13.926C52.5994 13.4685 52.46 13.0242 52.2141 12.6378C51.9683 12.2515 51.6248 11.937 51.2184 11.726C46.9184 9.72605 47.4184 17.426 47.8184 19.326Z" fill="#F35D3C"/>
</svg>
