<svg width="1440" height="277" viewBox="0 0 1440 277" fill="none" xmlns="http://www.w3.org/2000/svg">
<g clip-path="url(#clip0_4854_992)">
<path d="M0 -132.2C0 -132.2 85.9926 -177.465 145.5 -177.465C222.5 -177.465 238.411 -91.4648 365 -91.4648C462.897 -91.4648 493.674 -133.255 585 -132.2C708.5 -130.773 691.567 -77.8277 776 -76.4772C887.583 -74.6923 941.903 -144.7 1053.5 -144.7C1200.5 -144.7 1244.5 18.0352 1440 -177.465V-40.4636H7.62939e-05L0 -132.2Z" fill="#D19823"/>
<path d="M1443 25.4339H-0.999914L-1 -69.966C-1 -69.966 77.5137 -130.465 136 -130.465C240.5 -130.465 294.5 -50.566 360.5 -50.566C426.5 -50.566 497.485 -105.225 589.5 -106.066C685.125 -106.94 646 -37.4662 828 -50.566C891.835 -55.1607 949.126 -106.066 1031.5 -106.066C1142 -106.066 1196 -54.566 1268 -50.566C1340 -46.566 1443 -122.566 1443 -122.566V25.4339Z" fill="#7385EA"/>
<g clip-path="url(#clip1_4854_992)">
<path opacity="0.05" d="M1537.3 236.765C1510.92 234.347 1462.1 219.169 1410.71 225.16C1359.33 231.152 1340.67 266.155 1290.64 265.524C1240.61 264.893 1220.59 225.707 1170.56 222.133C1120.53 218.559 1100.52 246.372 1050.48 248.369C1000.45 250.366 980.439 228.145 930.407 231.719C880.375 235.293 860.362 270.674 810.33 265.524C760.298 260.373 740.285 209.94 690.253 206.997C640.221 204.053 620.208 252.132 570.176 251.397C520.144 250.661 500.131 205.357 450.099 203.465C400.067 201.573 380.055 242.525 330.022 242.315C279.99 242.104 259.978 202.456 209.945 202.456C159.913 202.456 139.901 243.681 89.8686 242.315C39.8366 240.948 28.6835 238.047 -30.2083 195.897C-89.1002 153.746 -585.773 125.029 -192.812 39.992C200.148 -45.0449 1429.16 -159.724 1856 -212.281" fill="url(#paint0_linear_4854_992)"/>
<path opacity="0.29" d="M1537.3 204.474C1510.92 202.056 1462.1 186.878 1410.71 192.869C1359.33 198.861 1340.67 233.864 1290.64 233.233C1240.61 232.602 1220.59 193.416 1170.56 189.842C1120.53 186.268 1100.52 214.081 1050.48 216.078C1000.45 218.075 980.439 195.854 930.407 199.428C880.375 203.002 860.362 238.383 810.33 233.233C760.298 228.082 740.285 177.649 690.253 174.706C640.221 171.762 620.208 219.841 570.176 219.106C520.144 218.37 500.131 173.066 450.099 171.174C400.067 169.282 380.055 210.234 330.022 210.024C279.99 209.813 259.978 170.165 209.945 170.165C159.913 170.165 139.901 211.39 89.8686 210.024C39.8366 208.657 28.6835 205.756 -30.2083 163.605C-89.1002 121.455 -585.773 92.7378 -192.812 7.70096C200.148 -77.3359 1429.16 -192.015 1856 -244.572" fill="url(#paint1_linear_4854_992)"/>
<path opacity="0.53" d="M1537.3 172.183C1510.92 169.765 1462.1 154.587 1410.71 160.578C1359.33 166.57 1340.67 201.573 1290.64 200.942C1240.61 200.311 1220.59 161.125 1170.56 157.551C1120.53 153.977 1100.52 181.79 1050.48 183.787C1000.45 185.784 980.439 163.563 930.407 167.137C880.375 170.711 860.362 206.092 810.33 200.942C760.298 195.791 740.285 145.358 690.253 142.415C640.221 139.471 620.208 187.55 570.176 186.815C520.144 186.079 500.131 140.775 450.099 138.883C400.067 136.991 380.055 177.943 330.022 177.733C279.99 177.522 259.978 137.874 209.945 137.874C159.913 137.874 139.901 179.099 89.8686 177.733C39.8366 176.366 28.6835 173.465 -30.2083 131.314C-89.1002 89.1639 -585.773 60.4468 -192.812 -24.5901C200.148 -109.627 1429.16 -224.306 1856 -276.863" fill="url(#paint2_linear_4854_992)"/>
<path opacity="0.76" d="M1537.3 139.892C1510.92 137.474 1462.1 122.296 1410.71 128.287C1359.33 134.279 1340.67 169.282 1290.64 168.651C1240.61 168.02 1220.59 128.834 1170.56 125.26C1120.53 121.686 1100.52 149.499 1050.48 151.496C1000.45 153.493 980.439 131.272 930.407 134.846C880.375 138.42 860.362 173.801 810.33 168.651C760.298 163.5 740.285 113.067 690.253 110.124C640.221 107.18 620.208 155.259 570.176 154.524C520.144 153.788 500.131 108.484 450.099 106.592C400.067 104.7 380.055 145.652 330.022 145.442C279.99 145.231 259.978 105.583 209.945 105.583C159.913 105.583 139.901 146.808 89.8686 145.442C39.8366 144.075 28.6835 141.174 -30.2083 99.0235C-89.1002 56.8729 -585.773 28.1558 -192.812 -56.8811C200.148 -141.918 1429.16 -256.597 1856 -309.154" fill="url(#paint3_linear_4854_992)"/>
<path d="M1537.3 107.602C1510.92 105.184 1462.1 90.0057 1410.71 95.9972C1359.33 101.989 1340.67 136.991 1290.64 136.361C1240.61 135.73 1220.59 96.5438 1170.56 92.9699C1120.53 89.396 1100.52 117.209 1050.48 119.206C1000.45 121.203 980.439 98.9824 930.407 102.556C880.375 106.13 860.362 141.511 810.33 136.361C760.298 131.21 740.285 80.7767 690.253 77.8335C640.221 74.8903 620.208 122.969 570.176 122.233C520.144 121.498 500.131 76.1937 450.099 74.3016C400.067 72.4096 380.055 113.362 330.022 113.152C279.99 112.941 259.977 73.2925 209.945 73.2925C159.913 73.2925 139.901 114.518 89.8687 113.152C39.8366 111.785 28.6835 108.884 -30.2084 66.7334C-89.1003 24.5829 -585.773 -4.13422 -192.812 -89.1711C200.148 -174.208 1429.16 -288.887 1856 -341.444" fill="#7385EA"/>
</g>
</g>
<defs>
<linearGradient id="paint0_linear_4854_992" x1="-108084" y1="266.026" x2="-108084" y2="-47565.5" gradientUnits="userSpaceOnUse">
<stop stop-color="#6E84F2"/>
<stop offset="1" stop-color="#292F51"/>
</linearGradient>
<linearGradient id="paint1_linear_4854_992" x1="-108084" y1="233.735" x2="-108084" y2="-47597.8" gradientUnits="userSpaceOnUse">
<stop stop-color="#6E84F2"/>
<stop offset="1" stop-color="#292F51"/>
</linearGradient>
<linearGradient id="paint2_linear_4854_992" x1="-108084" y1="201.444" x2="-108084" y2="-47630.1" gradientUnits="userSpaceOnUse">
<stop stop-color="#6E84F2"/>
<stop offset="1" stop-color="#292F51"/>
</linearGradient>
<linearGradient id="paint3_linear_4854_992" x1="-108084" y1="169.152" x2="-108084" y2="-47662.4" gradientUnits="userSpaceOnUse">
<stop stop-color="#6E84F2"/>
<stop offset="1" stop-color="#292F51"/>
</linearGradient>
<clipPath id="clip0_4854_992">
<rect width="1440" height="277" fill="white"/>
</clipPath>
<clipPath id="clip1_4854_992">
<rect width="1440" height="253" fill="white" transform="translate(1440 266.035) rotate(-180)"/>
</clipPath>
</defs>
</svg>
