<svg width="1440" height="298" viewBox="0 0 1440 298" fill="none" xmlns="http://www.w3.org/2000/svg">
<g clip-path="url(#clip0_4854_990)">
<path d="M0 -9.03529H1440V226.5C1002 226.5 570.5 226.5 0 226.5L0 -9.03529Z" fill="#F3B73C"/>
<path d="M0 152.765C0 152.765 85.9926 107.5 145.5 107.5C222.5 107.5 238.411 193.5 365 193.5C462.897 193.5 493.674 151.71 585 152.765C708.5 154.192 691.567 207.137 776 208.488C887.583 210.273 941.903 140.265 1053.5 140.265C1200.5 140.265 1244.5 303 1440 107.5V244.501H7.62939e-05L0 152.765Z" fill="#D19823"/>
<path d="M1443 310.399H-0.999914L-1 214.999C-1 214.999 77.5137 154.5 136 154.5C240.5 154.5 294.5 234.399 360.5 234.399C426.5 234.399 497.485 179.74 589.5 178.899C685.125 178.025 646 247.499 828 234.399C891.835 229.804 949.126 178.899 1031.5 178.899C1142 178.899 1196 230.399 1268 234.399C1340 238.399 1443 162.399 1443 162.399V310.399Z" fill="#7385EA"/>
<path d="M1373.32 116.741C1372.39 115.078 1371.01 113.707 1369.34 112.786C1365.04 110.447 1360.29 109.056 1355.4 108.707C1352.55 108.48 1349.68 108.439 1346.82 108.583C1346.82 105.987 1346.69 103.391 1346.69 100.796C1346.78 98.364 1346.74 95.9297 1346.57 93.5024C1346.34 91.3073 1345.84 89.1487 1345.08 87.0745C1344.99 86.4073 1344.67 85.7926 1344.17 85.3399C1343.66 84.8873 1343.02 84.6259 1342.34 84.6023C1341.81 84.6372 1341.29 84.8075 1340.85 85.0968C1339.65 85.4537 1338.6 86.1919 1337.86 87.1982L1335 90.2885C1333.09 92.4962 1331.42 94.8995 1330.03 97.458C1328.99 99.207 1328.08 101.024 1327.29 102.897H1326.92C1323.68 102.897 1320.45 102.526 1317.09 102.402H1307.14C1304.28 102.65 1301.29 102.773 1298.68 104.009C1296.07 105.246 1296.19 105.987 1296.81 107.347C1297.43 108.707 1299.92 111.797 1301.79 113.898C1303.71 116.032 1305.78 118.015 1308.01 119.832C1309.47 120.856 1311.01 121.765 1312.61 122.551C1311.26 124.074 1310.01 125.684 1308.88 127.372C1307.42 129.668 1306.13 132.064 1305.02 134.542C1303.9 137.261 1302.66 139.981 1301.79 142.824C1301.55 143.379 1301.45 143.982 1301.5 144.584C1301.54 145.185 1301.72 145.768 1302.04 146.285C1302.91 147.768 1304.65 147.892 1306.14 147.645L1312.49 146.161C1315.2 145.469 1317.77 144.297 1320.07 142.7C1322.11 141.165 1323.99 139.426 1325.67 137.508C1327.54 135.531 1329.53 133.553 1331.27 131.575C1331.39 132.193 1331.64 132.811 1331.77 133.306C1332.41 135.742 1333.19 138.136 1334.13 140.475C1335.16 142.722 1336.75 144.676 1338.73 146.161C1340.62 147.781 1342.61 149.268 1344.7 150.611C1346.82 151.847 1349.8 152.96 1351.42 150.24C1352.12 148.703 1352.62 147.083 1352.91 145.42C1354.22 140.375 1354.1 135.067 1352.54 130.092C1352.29 129.226 1351.92 128.361 1351.67 127.619H1355.9C1358.58 127.425 1361.22 126.842 1363.74 125.889C1366.17 124.948 1368.47 123.701 1370.58 122.18H1370.7L1371.2 121.933L1372.45 120.944C1373.04 120.443 1373.46 119.756 1373.61 118.993C1373.77 118.231 1373.67 117.437 1373.32 116.741ZM1306.89 144.183C1307.01 144.678 1306.76 144.802 1306.89 144.183Z" fill="#F35D3C"/>
<path d="M1246.93 94.1205L1248.55 94.4913H1249.29C1251.81 95.144 1254.41 95.4354 1257 95.3566C1259.68 95.307 1262.33 94.8054 1264.84 93.8732C1266.2 93.4536 1267.52 92.9584 1268.82 92.3899C1268.8 93.257 1268.84 94.1245 1268.95 94.9858C1269.43 100.169 1271.33 105.124 1274.42 109.325C1275.4 110.752 1276.53 112.077 1277.78 113.28C1280.27 115.135 1282.63 112.91 1284.12 110.932C1285.51 108.919 1286.76 106.812 1287.86 104.628C1289.06 102.501 1289.78 100.139 1289.97 97.7052C1289.95 95.1798 1289.75 92.6592 1289.35 90.1649C1289.35 89.5468 1289.22 88.9287 1289.22 88.3107C1291.59 89.5468 1294.07 90.5357 1296.56 91.6482C1298.89 92.7358 1301.31 93.6449 1303.78 94.3677C1306.51 94.984 1309.33 95.1096 1312.11 94.7385C1314.29 94.4881 1316.45 94.1167 1318.58 93.626C1319.31 93.6635 1320.03 93.4654 1320.63 93.0616C1321.23 92.6578 1321.69 92.0701 1321.93 91.3869C1322.17 90.7038 1322.18 89.9621 1321.95 89.2736C1321.73 88.585 1321.29 87.9868 1320.7 87.569C1318.86 85.2903 1316.82 83.1804 1314.6 81.2648C1312.66 79.2974 1310.54 77.5177 1308.26 75.9494C1306.64 74.8369 1304.77 73.848 1303.03 72.8591C1304.21 71.564 1305.25 70.1561 1306.14 68.6563C1307.59 66.1819 1308.8 63.5739 1309.75 60.8688C1310.62 58.1493 1311.74 55.677 1311.86 52.834C1311.74 52.1466 1311.37 51.5275 1310.82 51.0944C1310.27 50.6614 1309.58 50.4446 1308.88 50.4853C1305.98 50.56 1303.11 51.146 1300.42 52.2159C1297.31 53.3284 1294.07 54.5645 1291.09 55.9243L1282.26 60.2507H1282.01L1277.28 56.2951C1275.04 54.4328 1272.58 52.8549 1269.94 51.5978L1266.09 49.7436C1265.04 49.1261 1263.81 48.8657 1262.6 49.002C1262.06 48.8625 1261.5 48.906 1260.99 49.1256C1260.37 49.3743 1259.86 49.8378 1259.57 50.4293C1259.27 51.0209 1259.2 51.7 1259.37 52.3395C1259.5 54.5575 1259.87 56.7546 1260.49 58.891C1261.23 61.2396 1262.23 63.4646 1263.1 65.6896C1263.97 67.9147 1265.09 70.5105 1265.96 72.9828C1263.35 74.0953 1260.74 74.9606 1258.25 76.3203C1253.85 78.5184 1249.99 81.6395 1246.93 85.4676C1245.69 86.9451 1244.91 88.7492 1244.69 90.6593C1244.66 91.3949 1244.86 92.1217 1245.26 92.7409C1245.66 93.3601 1246.24 93.8418 1246.93 94.1205ZM1316.59 91.0302C1316.96 91.401 1316.72 91.5246 1316.59 91.0302Z" fill="#BFDED8"/>
<path d="M1335.62 112.415H1335.5C1334.97 111.967 1334.31 111.701 1333.61 111.656C1332.92 111.612 1332.23 111.791 1331.64 112.168C1330.36 113.013 1329.37 114.218 1328.78 115.629C1328.42 116.304 1328.29 117.076 1328.4 117.832C1328.51 118.588 1328.86 119.289 1329.4 119.832C1330.4 120.762 1331.71 121.28 1333.07 121.28C1334.44 121.28 1335.75 120.762 1336.74 119.832C1337.2 119.403 1337.57 118.886 1337.83 118.313C1338.09 117.74 1338.22 117.121 1338.24 116.494C1338.17 115.655 1337.89 114.845 1337.44 114.134C1336.98 113.423 1336.36 112.833 1335.62 112.415Z" fill="#F3B73C"/>
<path d="M1336.99 103.021C1336.53 103.134 1336.13 103.396 1335.84 103.765C1335.54 104.135 1335.39 104.591 1335.39 105.06C1335.39 105.529 1335.54 105.985 1335.84 106.355C1336.13 106.725 1336.53 106.987 1336.99 107.1C1337.45 106.987 1337.86 106.725 1338.15 106.355C1338.44 105.985 1338.6 105.529 1338.6 105.06C1338.6 104.591 1338.44 104.135 1338.15 103.765C1337.86 103.396 1337.45 103.134 1336.99 103.021Z" fill="#F3B73C"/>
<path d="M1339.6 94.9857C1339.06 94.9857 1338.54 95.2006 1338.15 95.5831C1337.77 95.9656 1337.55 96.4844 1337.55 97.0253C1337.55 97.5663 1337.77 98.0851 1338.15 98.4676C1338.54 98.8501 1339.06 99.065 1339.6 99.065C1340.15 99.065 1340.67 98.8501 1341.06 98.4676C1341.44 98.0851 1341.66 97.5663 1341.66 97.0253C1341.66 96.4844 1341.44 95.9656 1341.06 95.5831C1340.67 95.2006 1340.15 94.9857 1339.6 94.9857Z" fill="#F3B73C"/>
<path d="M1344.83 116.989C1344.37 117.102 1343.96 117.364 1343.67 117.734C1343.38 118.103 1343.22 118.559 1343.22 119.028C1343.22 119.498 1343.38 119.953 1343.67 120.323C1343.96 120.693 1344.37 120.955 1344.83 121.068C1345.29 120.955 1345.69 120.693 1345.99 120.323C1346.28 119.953 1346.43 119.498 1346.43 119.028C1346.43 118.559 1346.28 118.103 1345.99 117.734C1345.69 117.364 1345.29 117.102 1344.83 116.989Z" fill="#F3B73C"/>
<path d="M1356.4 116.865C1355.94 116.978 1355.53 117.24 1355.24 117.61C1354.95 117.98 1354.79 118.435 1354.79 118.905C1354.79 119.374 1354.95 119.83 1355.24 120.199C1355.53 120.569 1355.94 120.831 1356.4 120.944C1356.86 120.831 1357.26 120.569 1357.55 120.199C1357.85 119.83 1358 119.374 1358 118.905C1358 118.435 1357.85 117.98 1357.55 117.61C1357.26 117.24 1356.86 116.978 1356.4 116.865Z" fill="#F3B73C"/>
<path d="M1338.73 124.653C1336.12 124.653 1336.12 128.856 1338.73 128.856C1341.35 128.856 1341.35 124.653 1338.73 124.653Z" fill="#F3B73C"/>
<path d="M1344.08 136.272C1343.62 136.385 1343.22 136.647 1342.93 137.017C1342.64 137.387 1342.48 137.843 1342.48 138.312C1342.48 138.781 1342.64 139.237 1342.93 139.607C1343.22 139.976 1343.62 140.238 1344.08 140.351C1344.54 140.238 1344.95 139.976 1345.24 139.607C1345.53 139.237 1345.69 138.781 1345.69 138.312C1345.69 137.843 1345.53 137.387 1345.24 137.017C1344.95 136.647 1344.54 136.385 1344.08 136.272Z" fill="#F3B73C"/>
<path d="M1325.17 121.439C1324.63 121.439 1324.11 121.654 1323.72 122.036C1323.34 122.419 1323.12 122.937 1323.12 123.478C1323.12 124.019 1323.34 124.538 1323.72 124.921C1324.11 125.303 1324.63 125.518 1325.17 125.518C1325.72 125.518 1326.24 125.303 1326.63 124.921C1327.01 124.538 1327.23 124.019 1327.23 123.478C1327.23 122.937 1327.01 122.419 1326.63 122.036C1326.24 121.654 1325.72 121.439 1325.17 121.439Z" fill="#F3B73C"/>
<path d="M1316.47 128.979C1315.92 128.979 1315.4 129.194 1315.02 129.576C1314.63 129.959 1314.41 130.478 1314.41 131.019C1314.41 131.56 1314.63 132.078 1315.02 132.461C1315.4 132.843 1315.92 133.058 1316.47 133.058C1317.01 133.058 1317.53 132.843 1317.92 132.461C1318.3 132.078 1318.52 131.56 1318.52 131.019C1318.52 130.478 1318.3 129.959 1317.92 129.576C1317.53 129.194 1317.01 128.979 1316.47 128.979Z" fill="#F3B73C"/>
<path d="M1322.69 109.696C1322.23 109.809 1321.82 110.071 1321.53 110.44C1321.24 110.81 1321.08 111.266 1321.08 111.735C1321.08 112.205 1321.24 112.66 1321.53 113.03C1321.82 113.4 1322.23 113.662 1322.69 113.775C1323.14 113.662 1323.55 113.4 1323.84 113.03C1324.13 112.66 1324.29 112.205 1324.29 111.735C1324.29 111.266 1324.13 110.81 1323.84 110.44C1323.55 110.071 1323.14 109.809 1322.69 109.696Z" fill="#F3B73C"/>
<path d="M1311.12 107.347C1310.66 107.46 1310.25 107.722 1309.96 108.092C1309.67 108.461 1309.51 108.917 1309.51 109.387C1309.51 109.856 1309.67 110.312 1309.96 110.681C1310.25 111.051 1310.66 111.313 1311.12 111.426C1311.58 111.313 1311.98 111.051 1312.27 110.681C1312.56 110.312 1312.72 109.856 1312.72 109.387C1312.72 108.917 1312.56 108.461 1312.27 108.092C1311.98 107.722 1311.58 107.46 1311.12 107.347Z" fill="#F3B73C"/>
<path d="M1287.11 72.4883C1286.13 72.0409 1285.07 71.7889 1284 71.7466H1282.38C1282.01 71.6844 1281.63 71.6844 1281.26 71.7466C1280.86 71.687 1280.44 71.723 1280.05 71.8519C1279.66 71.9807 1279.31 72.1987 1279.02 72.4883C1278.03 73.5199 1277.44 74.867 1277.34 76.2919C1277.25 77.7167 1277.67 79.1277 1278.53 80.2759C1281.01 82.8717 1284.75 81.1412 1286.98 79.287C1287.97 78.4481 1288.66 77.3244 1288.97 76.0731C1289.12 75.3536 1289.02 74.6056 1288.68 73.9533C1288.34 73.3011 1287.79 72.7841 1287.11 72.4883Z" fill="#D8F3EE"/>
<path d="M1292.96 65.0716C1292.5 65.1846 1292.09 65.4468 1291.8 65.8164C1291.51 66.1861 1291.35 66.6419 1291.35 67.1112C1291.35 67.5805 1291.51 68.0363 1291.8 68.4059C1292.09 68.7756 1292.5 69.0378 1292.96 69.1508C1293.41 69.0378 1293.82 68.7756 1294.11 68.4059C1294.4 68.0363 1294.56 67.5805 1294.56 67.1112C1294.56 66.6419 1294.4 66.1861 1294.11 65.8164C1293.82 65.4468 1293.41 65.1846 1292.96 65.0716Z" fill="#D8F3EE"/>
<path d="M1300.29 59.1382C1299.84 59.2512 1299.43 59.5134 1299.14 59.883C1298.85 60.2527 1298.69 60.7085 1298.69 61.1778C1298.69 61.6471 1298.85 62.1029 1299.14 62.4725C1299.43 62.8422 1299.84 63.1044 1300.29 63.2174C1300.75 63.1044 1301.16 62.8422 1301.45 62.4725C1301.74 62.1029 1301.9 61.6471 1301.9 61.1778C1301.9 60.7085 1301.74 60.2527 1301.45 59.883C1301.16 59.5134 1300.75 59.2512 1300.29 59.1382Z" fill="#D8F3EE"/>
<path d="M1296.31 78.4217C1295.86 78.5347 1295.45 78.7969 1295.16 79.1665C1294.87 79.5362 1294.71 79.992 1294.71 80.4613C1294.71 80.9306 1294.87 81.3864 1295.16 81.7561C1295.45 82.1257 1295.86 82.3879 1296.31 82.5009C1296.77 82.3879 1297.18 82.1257 1297.47 81.7561C1297.76 81.3864 1297.92 80.9306 1297.92 80.4613C1297.92 79.992 1297.76 79.5362 1297.47 79.1665C1297.18 78.7969 1296.77 78.5347 1296.31 78.4217Z" fill="#D8F3EE"/>
<path d="M1308.13 83.9842C1307.67 84.0972 1307.27 84.3594 1306.98 84.7291C1306.68 85.0987 1306.53 85.5545 1306.53 86.0239C1306.53 86.4932 1306.68 86.949 1306.98 87.3186C1307.27 87.6883 1307.67 87.9505 1308.13 88.0635C1308.59 87.9505 1309 87.6883 1309.29 87.3186C1309.58 86.949 1309.74 86.4932 1309.74 86.0239C1309.74 85.5545 1309.58 85.0987 1309.29 84.7291C1309 84.3594 1308.59 84.0972 1308.13 83.9842Z" fill="#D8F3EE"/>
<path d="M1279.4 87.3218C1278.94 87.4348 1278.53 87.697 1278.24 88.0666C1277.95 88.4363 1277.79 88.8921 1277.79 89.3614C1277.79 89.8307 1277.95 90.2865 1278.24 90.6561C1278.53 91.0258 1278.94 91.288 1279.4 91.401C1279.85 91.288 1280.26 91.0258 1280.55 90.6561C1280.84 90.2865 1281 89.8307 1281 89.3614C1281 88.8921 1280.84 88.4363 1280.55 88.0666C1280.26 87.697 1279.85 87.4348 1279.4 87.3218Z" fill="#D8F3EE"/>
<path d="M1279.27 98.8177C1278.81 98.9307 1278.41 99.1929 1278.12 99.5626C1277.82 99.9322 1277.67 100.388 1277.67 100.857C1277.67 101.327 1277.82 101.782 1278.12 102.152C1278.41 102.522 1278.81 102.784 1279.27 102.897C1279.73 102.784 1280.14 102.522 1280.43 102.152C1280.72 101.782 1280.88 101.327 1280.88 100.857C1280.88 100.388 1280.72 99.9322 1280.43 99.5626C1280.14 99.1929 1279.73 98.9307 1279.27 98.8177Z" fill="#D8F3EE"/>
<path d="M1268.2 79.5342C1267.74 79.6472 1267.33 79.9094 1267.04 80.279C1266.75 80.6487 1266.59 81.1045 1266.59 81.5738C1266.59 82.0431 1266.75 82.4989 1267.04 82.8686C1267.33 83.2382 1267.74 83.5004 1268.2 83.6134C1268.66 83.5004 1269.07 83.2382 1269.36 82.8686C1269.65 82.4989 1269.81 82.0431 1269.81 81.5738C1269.81 81.1045 1269.65 80.6487 1269.36 80.279C1269.07 79.9094 1268.66 79.6472 1268.2 79.5342Z" fill="#D8F3EE"/>
<path d="M1257.25 84.7259C1256.69 84.7259 1256.15 84.9473 1255.76 85.3414C1255.36 85.7355 1255.14 86.27 1255.14 86.8273C1255.14 87.3847 1255.36 87.9192 1255.76 88.3133C1256.15 88.7073 1256.69 88.9287 1257.25 88.9287C1259.87 88.9287 1259.87 84.7259 1257.25 84.7259Z" fill="#D8F3EE"/>
<path d="M1274.3 64.4535C1271.68 64.4535 1271.68 68.6563 1274.3 68.6563C1274.86 68.6563 1275.39 68.4349 1275.79 68.0408C1276.19 67.6467 1276.41 67.1122 1276.41 66.5549C1276.41 65.9976 1276.19 65.4631 1275.79 65.069C1275.39 64.6749 1274.86 64.4535 1274.3 64.4535Z" fill="#D8F3EE"/>
<path d="M1269.69 58.0257C1269.23 58.1386 1268.83 58.4009 1268.54 58.7705C1268.25 59.1402 1268.09 59.596 1268.09 60.0653C1268.09 60.5346 1268.25 60.9904 1268.54 61.36C1268.83 61.7297 1269.23 61.9919 1269.69 62.1049C1270 62.1817 1270.33 62.187 1270.64 62.1204C1270.96 62.0537 1271.25 61.917 1271.51 61.7204C1271.76 61.5238 1271.96 61.2727 1272.1 60.9859C1272.24 60.6991 1272.32 60.3843 1272.32 60.0653C1272.32 59.7463 1272.24 59.4314 1272.1 59.1446C1271.96 58.8579 1271.76 58.6067 1271.51 58.4101C1271.25 58.2136 1270.96 58.0768 1270.64 58.0102C1270.33 57.9436 1270 57.9489 1269.69 58.0257Z" fill="#D8F3EE"/>
<path d="M1126.64 230.082C1127.79 230.082 1128.73 230.783 1128.73 231.646C1128.73 232.51 1127.79 233.21 1126.64 233.21C1125.49 233.21 1124.56 232.51 1124.56 231.646C1124.56 230.783 1125.49 230.082 1126.64 230.082Z" fill="#CA8F16"/>
<path d="M596.964 221.741C596.964 221.464 596.87 221.199 596.702 221.004C596.534 220.808 596.307 220.698 596.07 220.698C595.474 220.698 594.878 221.046 594.878 221.741C594.878 222.436 595.474 222.784 596.07 222.784C596.307 222.784 596.534 222.674 596.702 222.478C596.87 222.283 596.964 222.017 596.964 221.741Z" fill="#CA8F16"/>
<path d="M802.371 89.321C803.066 89.321 803.414 89.738 803.414 90.1551C803.414 90.4869 803.304 90.8052 803.108 91.0398C802.913 91.2745 802.647 91.4063 802.371 91.4063C802.094 91.4063 801.829 91.2745 801.634 91.0398C801.438 90.8052 801.328 90.4869 801.328 90.1551C801.328 89.738 801.676 89.321 802.371 89.321Z" fill="#CA8F16"/>
<path d="M153.826 201.93C153.826 200.778 152.893 199.845 151.741 199.845C150.589 199.845 149.656 200.778 149.656 201.93C149.656 203.082 150.589 204.015 151.741 204.015C152.893 204.015 153.826 203.082 153.826 201.93Z" fill="#CA8F16"/>
<path d="M1380.53 75.7662C1382.55 75.7662 1384.18 77.1667 1384.18 78.8942C1384.18 80.6218 1382.55 82.0223 1380.53 82.0223C1378.52 82.0223 1376.89 80.6218 1376.89 78.8942C1376.89 77.1667 1378.52 75.7662 1380.53 75.7662Z" fill="#CA8F16"/>
<path d="M1218.4 96.6198C1218.4 96.044 1217.93 95.5771 1217.36 95.5771C1216.78 95.5771 1216.31 96.044 1216.31 96.6198C1216.31 97.1956 1216.78 97.6624 1217.36 97.6624C1217.93 97.6624 1218.4 97.1956 1218.4 96.6198Z" fill="#CA8F16"/>
<path d="M397.813 175.885C397.813 175.614 397.759 175.346 397.656 175.096C397.552 174.845 397.4 174.618 397.208 174.426C397.017 174.235 396.789 174.083 396.539 173.979C396.289 173.876 396.02 173.822 395.75 173.822C395.465 173.756 395.169 173.764 394.888 173.844C394.607 173.924 394.352 174.075 394.146 174.281C393.939 174.488 393.789 174.743 393.708 175.024C393.628 175.305 393.62 175.601 393.686 175.885C393.686 176.432 393.904 176.957 394.291 177.344C394.678 177.731 395.202 177.948 395.75 177.948C396.02 177.948 396.289 177.895 396.539 177.791C396.789 177.688 397.017 177.536 397.208 177.344C397.4 177.153 397.552 176.925 397.656 176.675C397.759 176.424 397.813 176.156 397.813 175.885Z" fill="#CA8F16"/>
<path d="M864.931 205.058C864.931 203.906 864.231 202.973 863.367 202.973C862.504 202.973 861.803 203.906 861.803 205.058C861.803 206.21 862.504 207.143 863.367 207.143C864.231 207.143 864.931 206.21 864.931 205.058Z" fill="#CA8F16"/>
<path d="M42.8448 202.388C43.1381 202.681 43.3028 203.079 43.3028 203.494C43.3028 203.909 43.1381 204.307 42.8448 204.6C42.5515 204.893 42.1537 205.058 41.7389 205.058C41.3241 205.058 40.9262 204.893 40.6329 204.6C40.3396 204.307 40.1748 203.909 40.1748 203.494C40.1748 203.079 40.3396 202.681 40.6329 202.388C40.9262 202.095 41.3241 201.93 41.7389 201.93C42.1537 201.93 42.5515 202.095 42.8448 202.388Z" fill="#CA8F16"/>
<path d="M285.204 157.279C285.204 156.4 284.913 155.558 284.395 154.937C283.878 154.316 283.176 153.967 282.444 153.967C281.766 154.058 281.14 154.446 280.687 155.058C280.234 155.67 279.986 156.461 279.99 157.279C280.057 158.032 280.337 158.736 280.783 159.271C281.23 159.807 281.816 160.143 282.444 160.223C283.125 160.228 283.785 159.93 284.294 159.386C284.804 158.843 285.128 158.092 285.204 157.279Z" fill="#CA8F16"/>
<path d="M205.96 92.9704C205.96 90.9549 204.326 89.321 202.311 89.321C200.295 89.321 198.662 90.9549 198.662 92.9704C198.662 94.9859 200.295 96.6197 202.311 96.6197C204.326 96.6197 205.96 94.9859 205.96 92.9704Z" fill="#CA8F16"/>
<path d="M15.1506 107.905C15.0647 107.092 14.6978 106.341 14.1203 105.798C13.5427 105.254 12.7954 104.956 12.0227 104.961C11.2499 104.956 10.5027 105.254 9.92508 105.798C9.3475 106.341 8.98039 107.092 8.89453 107.905C8.89453 108.784 9.22412 109.626 9.81075 110.247C10.3974 110.868 11.1931 111.217 12.0227 111.217C12.8523 111.217 13.648 110.868 14.2346 110.247C14.8212 109.626 15.1506 108.784 15.1506 107.905Z" fill="#CA8F16"/>
<path d="M938.503 101.249C938.797 101.542 938.961 101.94 938.961 102.354C938.961 102.769 938.797 103.167 938.503 103.46C938.21 103.754 937.812 103.919 937.397 103.919C936.983 103.919 936.585 103.754 936.292 103.46C935.998 103.167 935.833 102.769 935.833 102.354C935.833 101.94 935.998 101.542 936.292 101.249C936.585 100.955 936.983 100.79 937.397 100.79C937.812 100.79 938.21 100.955 938.503 101.249Z" fill="#CA8F16"/>
<path d="M1367.5 191.676C1367.5 191.106 1367.39 190.541 1367.17 190.014C1366.95 189.487 1366.63 189.008 1366.23 188.605C1365.83 188.201 1365.35 187.881 1364.82 187.663C1364.29 187.445 1363.73 187.333 1363.16 187.333C1362.6 187.33 1362.05 187.444 1361.55 187.666C1361.04 187.889 1360.58 188.215 1360.21 188.624C1359.83 189.033 1359.55 189.515 1359.37 190.041C1359.19 190.567 1359.13 191.123 1359.18 191.676C1359.18 192.732 1359.6 193.745 1360.34 194.491C1361.09 195.238 1362.1 195.657 1363.16 195.657C1363.71 195.708 1364.27 195.642 1364.79 195.465C1365.32 195.288 1365.8 195.002 1366.21 194.627C1366.62 194.253 1366.95 193.796 1367.17 193.288C1367.39 192.78 1367.5 192.231 1367.5 191.676Z" fill="#CA8F16"/>
<path d="M485.005 240.771C485.256 240.938 485.397 241.166 485.397 241.403C485.397 241.999 484.951 242.594 484.057 242.594C483.583 242.594 483.128 242.469 482.793 242.245C482.458 242.022 482.269 241.719 482.269 241.403C482.269 240.807 483.163 240.509 484.057 240.509C484.275 240.509 484.487 240.544 484.677 240.61C484.797 240.652 484.908 240.706 485.005 240.771Z" fill="#CA8F16"/>
<path d="M715.829 207.143C716.405 207.143 716.872 207.377 716.872 207.665C716.872 207.953 716.405 208.186 715.829 208.186C715.253 208.186 714.786 207.953 714.786 207.665C714.786 207.377 715.253 207.143 715.829 207.143Z" fill="#CA8F16"/>
<path d="M589.665 100.79C589.665 99.6387 588.731 98.7051 587.58 98.7051C586.428 98.7051 585.494 99.6387 585.494 100.79C585.494 101.942 586.428 102.876 587.58 102.876C588.731 102.876 589.665 101.942 589.665 100.79Z" fill="#CA8F16"/>
<path d="M88.1379 61.1688C88.7138 61.1688 89.1806 61.6357 89.1806 62.2115C89.1806 62.7873 88.7138 63.2541 88.1379 63.2541C87.562 63.2541 87.0952 62.7873 87.0952 62.2115C87.0952 61.6357 87.562 61.1688 88.1379 61.1688Z" fill="#CA8F16"/>
<path d="M448.904 86.1929C448.904 84.4654 447.737 83.065 446.297 83.065C444.857 83.065 443.69 84.4654 443.69 86.1929C443.69 87.9205 444.857 89.321 446.297 89.321C447.737 89.321 448.904 87.9205 448.904 86.1929Z" fill="#CA8F16"/>
<path d="M970.922 257.247C971.765 257.247 972.327 258.107 972.327 259.826C972.333 260.442 972.194 261.04 971.936 261.513C971.678 261.986 971.319 262.303 970.922 262.405C970.7 262.405 970.481 262.339 970.276 262.209C970.159 262.134 970.048 262.04 969.945 261.928C969.868 261.845 969.796 261.752 969.729 261.65C969.573 261.41 969.448 261.126 969.364 260.813C969.279 260.5 969.235 260.165 969.235 259.826C969.182 259.471 969.188 259.1 969.253 258.749C969.319 258.399 969.442 258.079 969.611 257.821C969.779 257.563 969.988 257.375 970.218 257.275C970.256 257.258 970.295 257.244 970.334 257.232L970.359 257.225C970.384 257.218 970.409 257.212 970.434 257.208C970.467 257.202 970.5 257.197 970.533 257.195C970.591 257.19 970.65 257.191 970.708 257.198C970.78 257.206 970.851 257.222 970.922 257.247Z" fill="#CA8F16"/>
<path d="M1247.59 217.049C1247.59 216.634 1247.43 216.236 1247.14 215.943C1246.84 215.65 1246.44 215.485 1246.03 215.485C1245.61 215.485 1245.22 215.65 1244.92 215.943C1244.63 216.236 1244.47 216.634 1244.47 217.049C1244.47 217.464 1244.63 217.861 1244.92 218.155C1245.22 218.448 1245.61 218.613 1246.03 218.613C1246.44 218.613 1246.84 218.448 1247.14 218.155C1247.43 217.861 1247.59 217.464 1247.59 217.049Z" fill="#CA8F16"/>
<path d="M514.592 49.5275C514.595 49.1094 514.527 48.6955 514.393 48.3134C514.259 47.9313 514.062 47.5899 513.815 47.3122C513.568 47.0345 513.277 46.8266 512.961 46.7028C512.646 46.579 512.313 46.542 511.986 46.5943C511.658 46.542 511.325 46.579 511.01 46.7028C510.694 46.8266 510.404 47.0345 510.157 47.3122C509.91 47.5899 509.713 47.9313 509.579 48.3134C509.445 48.6955 509.376 49.1094 509.379 49.5275C509.379 50.4026 509.654 51.242 510.143 51.8609C510.631 52.4798 511.294 52.8273 511.986 52.8273C512.677 52.8273 513.34 52.4798 513.829 51.8609C514.318 51.242 514.592 50.4026 514.592 49.5275Z" fill="#CA8F16"/>
<path d="M1091.32 119.604C1091.91 120.287 1092.23 121.212 1092.23 122.177C1092.16 123.114 1091.81 123.992 1091.24 124.658C1090.67 125.323 1089.92 125.733 1089.12 125.815C1088.29 125.815 1087.5 125.431 1086.91 124.749C1086.33 124.067 1086 123.142 1086 122.177C1085.95 121.685 1085.99 121.186 1086.13 120.718C1086.27 120.25 1086.5 119.825 1086.8 119.475C1087.1 119.125 1087.47 118.858 1087.87 118.696C1088.27 118.534 1088.7 118.48 1089.12 118.539C1089.94 118.539 1090.74 118.922 1091.32 119.604Z" fill="#CA8F16"/>
</g>
<defs>
<clipPath id="clip0_4854_990">
<rect width="1440" height="298" fill="white"/>
</clipPath>
</defs>
</svg>
