<svg width="1440" height="210" viewBox="0 0 1440 210" fill="none" xmlns="http://www.w3.org/2000/svg">
<g clip-path="url(#clip0_4867_1463)">
<path fill-rule="evenodd" clip-rule="evenodd" d="M145.5 68.5938C85.9926 68.5938 0 113.859 0 113.859L7.62939e-05 205.595H1440V68.5938C1308.97 199.627 1245.99 169.73 1174.45 135.765C1139.25 119.054 1101.97 101.359 1053.5 101.359C998.225 101.359 957.002 118.534 915.913 135.653C874.045 153.097 832.315 170.483 776 169.582C737.859 168.971 720.403 157.833 701.343 145.671C678.209 130.91 652.712 114.641 585 113.859C539.736 113.336 509.346 123.338 478.286 133.56C446.678 143.963 414.377 154.594 365 154.594C293.879 154.594 257.694 127.448 225.982 103.659C201.25 85.1056 179.24 68.5938 145.5 68.5938Z" fill="#D19823"/>
<path fill-rule="evenodd" clip-rule="evenodd" d="M1443 211.688H-0.999968L-1 176.093C-1 176.093 77.5137 115.594 136 115.594C194.226 115.594 236.774 140.399 274.456 162.368C304.402 179.826 331.275 195.493 360.5 195.493C390.97 195.493 422.503 183.843 456.677 171.217C496.526 156.495 539.966 140.445 589.5 139.993C628.689 139.635 645.247 151.092 663.667 163.838C690.195 182.194 720.587 203.224 828 195.493C856.371 193.451 883.448 182.261 912.01 170.459C947.714 155.705 985.736 139.993 1031.5 139.993C1094.81 139.993 1139.57 156.896 1179.8 172.087C1209.78 183.412 1237.25 193.784 1268 195.493C1340 199.493 1443 123.493 1443 123.493V211.688Z" fill="#7385EA"/>
<path d="M1141.02 114.775C1142.17 114.775 1143.11 115.476 1143.11 116.339C1143.11 117.203 1142.17 117.903 1141.02 117.903C1139.87 117.903 1138.94 117.203 1138.94 116.339C1138.94 115.476 1139.87 114.775 1141.02 114.775Z" fill="#CA8F16"/>
<path d="M611.345 106.434C611.345 106.157 611.251 105.892 611.083 105.697C610.915 105.501 610.688 105.391 610.451 105.391C609.855 105.391 609.259 105.739 609.259 106.434C609.259 107.129 609.855 107.477 610.451 107.477C610.688 107.477 610.915 107.367 611.083 107.171C611.251 106.976 611.345 106.71 611.345 106.434Z" fill="#CA8F16"/>
<path d="M168.207 86.6241C168.207 85.4721 167.274 84.5391 166.122 84.5391C164.97 84.5391 164.037 85.4721 164.037 86.6241C164.037 87.7761 164.97 88.7091 166.122 88.7091C167.274 88.7091 168.207 87.7761 168.207 86.6241Z" fill="#CA8F16"/>
<path d="M412.194 60.578C412.194 60.307 412.14 60.039 412.037 59.789C411.933 59.538 411.781 59.311 411.589 59.119C411.398 58.928 411.17 58.776 410.92 58.672C410.67 58.569 410.401 58.515 410.131 58.515C409.846 58.449 409.55 58.457 409.269 58.537C408.988 58.617 408.733 58.768 408.527 58.974C408.32 59.181 408.17 59.436 408.089 59.717C408.009 59.998 408.001 60.294 408.067 60.578C408.067 61.125 408.285 61.65 408.672 62.037C409.059 62.424 409.583 62.641 410.131 62.641C410.401 62.641 410.67 62.588 410.92 62.484C411.17 62.381 411.398 62.229 411.589 62.037C411.781 61.846 411.933 61.618 412.037 61.368C412.14 61.117 412.194 60.849 412.194 60.578Z" fill="#CA8F16"/>
<path d="M879.312 89.751C879.312 88.599 878.612 87.666 877.748 87.666C876.885 87.666 876.184 88.599 876.184 89.751C876.184 90.903 876.885 91.836 877.748 91.836C878.612 91.836 879.312 90.903 879.312 89.751Z" fill="#CA8F16"/>
<path d="M57.2257 87.0811C57.519 87.3741 57.6837 87.7721 57.6837 88.1871C57.6837 88.6021 57.519 89.0001 57.2257 89.2931C56.9324 89.5861 56.5346 89.7511 56.1198 89.7511C55.705 89.7511 55.3071 89.5861 55.0138 89.2931C54.7205 89.0001 54.5557 88.6021 54.5557 88.1871C54.5557 87.7721 54.7205 87.3741 55.0138 87.0811C55.3071 86.7881 55.705 86.623 56.1198 86.623C56.5346 86.623 56.9324 86.7881 57.2257 87.0811Z" fill="#CA8F16"/>
<path d="M299.585 41.9722C299.585 41.0932 299.294 40.2512 298.776 39.6302C298.259 39.0092 297.557 38.6602 296.825 38.6602C296.147 38.7512 295.521 39.1392 295.068 39.7512C294.615 40.3632 294.367 41.1542 294.371 41.9722C294.438 42.7252 294.718 43.4292 295.164 43.9642C295.611 44.5002 296.197 44.8362 296.825 44.9162C297.506 44.9212 298.166 44.6232 298.675 44.0792C299.185 43.5362 299.509 42.7852 299.585 41.9722Z" fill="#CA8F16"/>
<path d="M1381.88 76.3704C1381.88 75.8004 1381.77 75.2354 1381.55 74.7084C1381.33 74.1814 1381.01 73.7024 1380.61 73.2994C1380.21 72.8954 1379.73 72.5754 1379.2 72.3574C1378.67 72.1394 1378.11 72.0274 1377.54 72.0274C1376.98 72.0244 1376.43 72.1384 1375.93 72.3604C1375.42 72.5834 1374.96 72.9094 1374.59 73.3184C1374.21 73.7274 1373.93 74.2094 1373.75 74.7354C1373.57 75.2614 1373.51 75.8174 1373.56 76.3704C1373.56 77.4264 1373.98 78.4394 1374.72 79.1854C1375.47 79.9324 1376.48 80.3514 1377.54 80.3514C1378.09 80.4024 1378.65 80.3364 1379.17 80.1594C1379.7 79.9824 1380.18 79.6964 1380.59 79.3214C1381 78.9474 1381.33 78.4904 1381.55 77.9824C1381.77 77.4744 1381.88 76.9254 1381.88 76.3704Z" fill="#CA8F16"/>
<path d="M499.385 125.465C499.636 125.632 499.777 125.86 499.777 126.097C499.777 126.693 499.331 127.288 498.437 127.288C497.963 127.288 497.508 127.163 497.173 126.939C496.838 126.716 496.649 126.413 496.649 126.097C496.649 125.501 497.543 125.203 498.437 125.203C498.655 125.203 498.867 125.238 499.057 125.304C499.177 125.346 499.288 125.4 499.385 125.465Z" fill="#CA8F16"/>
<path d="M730.21 91.8359C730.786 91.8359 731.253 92.0699 731.253 92.3579C731.253 92.6459 730.786 92.8789 730.21 92.8789C729.634 92.8789 729.167 92.6459 729.167 92.3579C729.167 92.0699 729.634 91.8359 730.21 91.8359Z" fill="#CA8F16"/>
<path d="M985.303 141.94C986.146 141.94 986.708 142.8 986.708 144.519C986.714 145.135 986.575 145.733 986.317 146.206C986.059 146.679 985.7 146.996 985.303 147.098C985.081 147.098 984.862 147.032 984.657 146.902C984.54 146.827 984.429 146.733 984.326 146.621C984.249 146.538 984.177 146.445 984.11 146.343C983.954 146.103 983.829 145.819 983.745 145.506C983.66 145.193 983.616 144.858 983.616 144.519C983.563 144.164 983.569 143.793 983.634 143.442C983.7 143.092 983.823 142.772 983.992 142.514C984.16 142.256 984.369 142.068 984.599 141.968C984.637 141.951 984.676 141.937 984.715 141.925L984.74 141.918C984.765 141.911 984.79 141.905 984.815 141.901C984.848 141.895 984.881 141.89 984.914 141.888C984.972 141.883 985.031 141.884 985.089 141.891C985.161 141.899 985.232 141.915 985.303 141.94Z" fill="#CA8F16"/>
<path d="M1261.97 101.742C1261.97 101.327 1261.81 100.929 1261.52 100.636C1261.22 100.343 1260.82 100.178 1260.41 100.178C1259.99 100.178 1259.6 100.343 1259.3 100.636C1259.01 100.929 1258.85 101.327 1258.85 101.742C1258.85 102.157 1259.01 102.554 1259.3 102.848C1259.6 103.141 1259.99 103.306 1260.41 103.306C1260.82 103.306 1261.22 103.141 1261.52 102.848C1261.81 102.554 1261.97 102.157 1261.97 101.742Z" fill="#CA8F16"/>
<path d="M1105.7 4.29717C1106.29 4.98017 1106.61 5.90518 1106.61 6.87018C1106.54 7.80718 1106.19 8.68517 1105.62 9.35117C1105.05 10.0162 1104.3 10.4262 1103.5 10.5082C1102.67 10.5082 1101.88 10.1242 1101.29 9.44218C1100.71 8.76018 1100.38 7.83518 1100.38 6.87018C1100.33 6.37818 1100.37 5.87918 1100.51 5.41118C1100.65 4.94318 1100.88 4.51818 1101.18 4.16818C1101.48 3.81818 1101.85 3.55118 1102.25 3.38918C1102.65 3.22718 1103.08 3.17318 1103.5 3.23218C1104.32 3.23218 1105.12 3.61517 1105.7 4.29717Z" fill="#CA8F16"/>
<path d="M1373.32 77.834C1372.39 76.171 1371.01 74.8 1369.34 73.879C1365.04 71.54 1360.29 70.149 1355.4 69.8C1352.55 69.573 1349.68 69.532 1346.82 69.676C1346.82 67.08 1346.69 64.484 1346.69 61.889C1346.78 59.457 1346.74 57.0227 1346.57 54.5954C1346.34 52.4003 1345.84 50.2417 1345.08 48.1675C1344.99 47.5003 1344.67 46.8856 1344.17 46.4329C1343.66 45.9803 1343.02 45.7189 1342.34 45.6953C1341.81 45.7302 1341.29 45.9005 1340.85 46.1898C1339.65 46.5467 1338.6 47.2849 1337.86 48.2912L1335 51.3815C1333.09 53.5892 1331.42 55.9925 1330.03 58.551C1328.99 60.3 1328.08 62.117 1327.29 63.99H1326.92C1323.68 63.99 1320.45 63.619 1317.09 63.495H1307.14C1304.28 63.743 1301.29 63.866 1298.68 65.102C1296.07 66.339 1296.19 67.08 1296.81 68.44C1297.43 69.8 1299.92 72.89 1301.79 74.991C1303.71 77.125 1305.78 79.108 1308.01 80.925C1309.47 81.949 1311.01 82.858 1312.61 83.644C1311.26 85.167 1310.01 86.777 1308.88 88.465C1307.42 90.761 1306.13 93.157 1305.02 95.635C1303.9 98.354 1302.66 101.074 1301.79 103.917C1301.55 104.472 1301.45 105.075 1301.5 105.677C1301.54 106.278 1301.72 106.861 1302.04 107.378C1302.91 108.861 1304.65 108.985 1306.14 108.738L1312.49 107.254C1315.2 106.562 1317.77 105.39 1320.07 103.793C1322.11 102.258 1323.99 100.519 1325.67 98.601C1327.54 96.624 1329.53 94.646 1331.27 92.668C1331.39 93.286 1331.64 93.904 1331.77 94.399C1332.41 96.835 1333.19 99.229 1334.13 101.568C1335.16 103.815 1336.75 105.769 1338.73 107.254C1340.62 108.874 1342.61 110.361 1344.7 111.704C1346.82 112.94 1349.8 114.053 1351.42 111.333C1352.12 109.796 1352.62 108.176 1352.91 106.513C1354.22 101.468 1354.1 96.16 1352.54 91.185C1352.29 90.319 1351.92 89.454 1351.67 88.712H1355.9C1358.58 88.518 1361.22 87.935 1363.74 86.982C1366.17 86.041 1368.47 84.794 1370.58 83.273H1370.7L1371.2 83.026L1372.45 82.037C1373.04 81.536 1373.46 80.849 1373.61 80.086C1373.77 79.324 1373.67 78.53 1373.32 77.834ZM1306.89 105.276C1307.01 105.771 1306.76 105.895 1306.89 105.276Z" fill="#F35D3C"/>
<path d="M1246.93 55.2143L1248.55 55.5851H1249.29C1251.81 56.2378 1254.41 56.5292 1257 56.4504C1259.68 56.4008 1262.33 55.8992 1264.84 54.967C1266.2 54.5474 1267.52 54.0522 1268.82 53.4837C1268.8 54.3508 1268.84 55.2183 1268.95 56.0796C1269.43 61.2628 1271.33 66.2178 1274.42 70.4188C1275.4 71.8458 1276.53 73.1708 1277.78 74.3738C1280.27 76.2288 1282.63 74.0038 1284.12 72.0258C1285.51 70.0128 1286.76 67.9058 1287.86 65.7218C1289.06 63.5948 1289.78 61.2328 1289.97 58.799C1289.95 56.2736 1289.75 53.753 1289.35 51.2587C1289.35 50.6406 1289.22 50.0225 1289.22 49.4045C1291.59 50.6406 1294.07 51.6295 1296.56 52.742C1298.89 53.8296 1301.31 54.7387 1303.78 55.4615C1306.51 56.0778 1309.33 56.2034 1312.11 55.8323C1314.29 55.5819 1316.45 55.2105 1318.58 54.7198C1319.31 54.7573 1320.03 54.5592 1320.63 54.1554C1321.23 53.7516 1321.69 53.1639 1321.93 52.4807C1322.17 51.7976 1322.18 51.0559 1321.95 50.3674C1321.73 49.6788 1321.29 49.0806 1320.7 48.6628C1318.86 46.3841 1316.82 44.2742 1314.6 42.3586C1312.66 40.3912 1310.54 38.6115 1308.26 37.0432C1306.64 35.9307 1304.77 34.9418 1303.03 33.9529C1304.21 32.6578 1305.25 31.2499 1306.14 29.7501C1307.59 27.2757 1308.8 24.6677 1309.75 21.9626C1310.62 19.2431 1311.74 16.7708 1311.86 13.9278C1311.74 13.2404 1311.37 12.6213 1310.82 12.1882C1310.27 11.7552 1309.58 11.5384 1308.88 11.5791C1305.98 11.6538 1303.11 12.2398 1300.42 13.3097C1297.31 14.4222 1294.07 15.6583 1291.09 17.0181L1282.26 21.3445H1282.01L1277.28 17.3889C1275.04 15.5266 1272.58 13.9487 1269.94 12.6916L1266.09 10.8374C1265.04 10.2199 1263.81 9.95947 1262.6 10.0958C1262.06 9.95627 1261.5 9.99977 1260.99 10.2194C1260.37 10.4681 1259.86 10.9316 1259.57 11.5231C1259.27 12.1147 1259.2 12.7938 1259.37 13.4333C1259.5 15.6513 1259.87 17.8484 1260.49 19.9848C1261.23 22.3334 1262.23 24.5584 1263.1 26.7834C1263.97 29.0085 1265.09 31.6043 1265.96 34.0766C1263.35 35.1891 1260.74 36.0544 1258.25 37.4141C1253.85 39.6122 1249.99 42.7333 1246.93 46.5614C1245.69 48.0389 1244.91 49.843 1244.69 51.7531C1244.66 52.4887 1244.86 53.2155 1245.26 53.8347C1245.66 54.4539 1246.24 54.9356 1246.93 55.2143ZM1316.59 52.124C1316.96 52.4948 1316.72 52.6184 1316.59 52.124Z" fill="#BFDED8"/>
<path d="M1335.62 73.5097H1335.5C1334.97 73.0617 1334.31 72.7957 1333.61 72.7507C1332.92 72.7067 1332.23 72.8857 1331.64 73.2627C1330.36 74.1077 1329.37 75.3127 1328.78 76.7237C1328.42 77.3987 1328.29 78.1707 1328.4 78.9267C1328.51 79.6827 1328.86 80.3837 1329.4 80.9267C1330.4 81.8567 1331.71 82.3747 1333.07 82.3747C1334.44 82.3747 1335.75 81.8567 1336.74 80.9267C1337.2 80.4977 1337.57 79.9807 1337.83 79.4077C1338.09 78.8347 1338.22 78.2157 1338.24 77.5887C1338.17 76.7497 1337.89 75.9397 1337.44 75.2287C1336.98 74.5177 1336.36 73.9277 1335.62 73.5097Z" fill="#F3B73C"/>
<path d="M1336.99 64.1152C1336.53 64.2282 1336.13 64.4902 1335.84 64.8592C1335.54 65.2292 1335.39 65.6852 1335.39 66.1542C1335.39 66.6232 1335.54 67.0792 1335.84 67.4492C1336.13 67.8192 1336.53 68.0812 1336.99 68.1942C1337.45 68.0812 1337.86 67.8192 1338.15 67.4492C1338.44 67.0792 1338.6 66.6232 1338.6 66.1542C1338.6 65.6852 1338.44 65.2292 1338.15 64.8592C1337.86 64.4902 1337.45 64.2282 1336.99 64.1152Z" fill="#F3B73C"/>
<path d="M1339.6 56.0801C1339.06 56.0801 1338.54 56.295 1338.15 56.6775C1337.77 57.06 1337.55 57.5788 1337.55 58.1197C1337.55 58.6607 1337.77 59.1795 1338.15 59.562C1338.54 59.9445 1339.06 60.1594 1339.6 60.1594C1340.15 60.1594 1340.67 59.9445 1341.06 59.562C1341.44 59.1795 1341.66 58.6607 1341.66 58.1197C1341.66 57.5788 1341.44 57.06 1341.06 56.6775C1340.67 56.295 1340.15 56.0801 1339.6 56.0801Z" fill="#F3B73C"/>
<path d="M1344.83 78.082C1344.37 78.195 1343.96 78.457 1343.67 78.827C1343.38 79.196 1343.22 79.652 1343.22 80.121C1343.22 80.591 1343.38 81.046 1343.67 81.416C1343.96 81.786 1344.37 82.048 1344.83 82.161C1345.29 82.048 1345.69 81.786 1345.99 81.416C1346.28 81.046 1346.43 80.591 1346.43 80.121C1346.43 79.652 1346.28 79.196 1345.99 78.827C1345.69 78.457 1345.29 78.195 1344.83 78.082Z" fill="#F3B73C"/>
<path d="M1356.4 77.959C1355.94 78.072 1355.53 78.334 1355.24 78.704C1354.95 79.074 1354.79 79.529 1354.79 79.999C1354.79 80.468 1354.95 80.924 1355.24 81.293C1355.53 81.663 1355.94 81.925 1356.4 82.038C1356.86 81.925 1357.26 81.663 1357.55 81.293C1357.85 80.924 1358 80.468 1358 79.999C1358 79.529 1357.85 79.074 1357.55 78.704C1357.26 78.334 1356.86 78.072 1356.4 77.959Z" fill="#F3B73C"/>
<path d="M1338.73 85.7461C1336.12 85.7461 1336.12 89.9491 1338.73 89.9491C1341.35 89.9491 1341.35 85.7461 1338.73 85.7461Z" fill="#F3B73C"/>
<path d="M1344.08 97.3652C1343.62 97.4782 1343.22 97.7402 1342.93 98.1102C1342.64 98.4802 1342.48 98.9362 1342.48 99.4052C1342.48 99.8742 1342.64 100.33 1342.93 100.7C1343.22 101.069 1343.62 101.331 1344.08 101.444C1344.54 101.331 1344.95 101.069 1345.24 100.7C1345.53 100.33 1345.69 99.8742 1345.69 99.4052C1345.69 98.9362 1345.53 98.4802 1345.24 98.1102C1344.95 97.7402 1344.54 97.4782 1344.08 97.3652Z" fill="#F3B73C"/>
<path d="M1325.17 82.5332C1324.63 82.5332 1324.11 82.7482 1323.72 83.1302C1323.34 83.5132 1323.12 84.0312 1323.12 84.5722C1323.12 85.1132 1323.34 85.6322 1323.72 86.0152C1324.11 86.3972 1324.63 86.6122 1325.17 86.6122C1325.72 86.6122 1326.24 86.3972 1326.63 86.0152C1327.01 85.6322 1327.23 85.1132 1327.23 84.5722C1327.23 84.0312 1327.01 83.5132 1326.63 83.1302C1326.24 82.7482 1325.72 82.5332 1325.17 82.5332Z" fill="#F3B73C"/>
<path d="M1316.47 90.0723C1315.92 90.0723 1315.4 90.2873 1315.02 90.6693C1314.63 91.0523 1314.41 91.5713 1314.41 92.1123C1314.41 92.6533 1314.63 93.1713 1315.02 93.5543C1315.4 93.9363 1315.92 94.1513 1316.47 94.1513C1317.01 94.1513 1317.53 93.9363 1317.92 93.5543C1318.3 93.1713 1318.52 92.6533 1318.52 92.1123C1318.52 91.5713 1318.3 91.0523 1317.92 90.6693C1317.53 90.2873 1317.01 90.0723 1316.47 90.0723Z" fill="#F3B73C"/>
<path d="M1322.69 70.7891C1322.23 70.9021 1321.82 71.1641 1321.53 71.5331C1321.24 71.9031 1321.08 72.3591 1321.08 72.8281C1321.08 73.2981 1321.24 73.7531 1321.53 74.1231C1321.82 74.4931 1322.23 74.7551 1322.69 74.8681C1323.14 74.7551 1323.55 74.4931 1323.84 74.1231C1324.13 73.7531 1324.29 73.2981 1324.29 72.8281C1324.29 72.3591 1324.13 71.9031 1323.84 71.5331C1323.55 71.1641 1323.14 70.9021 1322.69 70.7891Z" fill="#F3B73C"/>
<path d="M1311.12 68.4414C1310.66 68.5544 1310.25 68.8164 1309.96 69.1864C1309.67 69.5554 1309.51 70.0114 1309.51 70.4814C1309.51 70.9504 1309.67 71.4064 1309.96 71.7754C1310.25 72.1454 1310.66 72.4074 1311.12 72.5204C1311.58 72.4074 1311.98 72.1454 1312.27 71.7754C1312.56 71.4064 1312.72 70.9504 1312.72 70.4814C1312.72 70.0114 1312.56 69.5554 1312.27 69.1864C1311.98 68.8164 1311.58 68.5544 1311.12 68.4414Z" fill="#F3B73C"/>
<path d="M1287.11 33.5813C1286.13 33.1339 1285.07 32.8819 1284 32.8396H1282.38C1282.01 32.7774 1281.63 32.7774 1281.26 32.8396C1280.86 32.78 1280.44 32.816 1280.05 32.9449C1279.66 33.0737 1279.31 33.2917 1279.02 33.5813C1278.03 34.6129 1277.44 35.96 1277.34 37.3849C1277.25 38.8097 1277.67 40.2207 1278.53 41.3689C1281.01 43.9647 1284.75 42.2342 1286.98 40.38C1287.97 39.5411 1288.66 38.4174 1288.97 37.1661C1289.12 36.4466 1289.02 35.6986 1288.68 35.0463C1288.34 34.3941 1287.79 33.8771 1287.11 33.5813Z" fill="#D8F3EE"/>
<path d="M1292.96 26.166C1292.5 26.279 1292.09 26.5412 1291.8 26.9108C1291.51 27.2805 1291.35 27.7363 1291.35 28.2056C1291.35 28.6749 1291.51 29.1307 1291.8 29.5003C1292.09 29.87 1292.5 30.1322 1292.96 30.2452C1293.41 30.1322 1293.82 29.87 1294.11 29.5003C1294.4 29.1307 1294.56 28.6749 1294.56 28.2056C1294.56 27.7363 1294.4 27.2805 1294.11 26.9108C1293.82 26.5412 1293.41 26.279 1292.96 26.166Z" fill="#D8F3EE"/>
<path d="M1300.29 20.2324C1299.84 20.3454 1299.43 20.6076 1299.14 20.9772C1298.85 21.3469 1298.69 21.8027 1298.69 22.272C1298.69 22.7413 1298.85 23.1971 1299.14 23.5667C1299.43 23.9364 1299.84 24.1986 1300.29 24.3116C1300.75 24.1986 1301.16 23.9364 1301.45 23.5667C1301.74 23.1971 1301.9 22.7413 1301.9 22.272C1301.9 21.8027 1301.74 21.3469 1301.45 20.9772C1301.16 20.6076 1300.75 20.3454 1300.29 20.2324Z" fill="#D8F3EE"/>
<path d="M1296.31 39.5156C1295.86 39.6286 1295.45 39.8908 1295.16 40.2604C1294.87 40.6301 1294.71 41.0859 1294.71 41.5552C1294.71 42.0245 1294.87 42.4803 1295.16 42.85C1295.45 43.2196 1295.86 43.4818 1296.31 43.5948C1296.77 43.4818 1297.18 43.2196 1297.47 42.85C1297.76 42.4803 1297.92 42.0245 1297.92 41.5552C1297.92 41.0859 1297.76 40.6301 1297.47 40.2604C1297.18 39.8908 1296.77 39.6286 1296.31 39.5156Z" fill="#D8F3EE"/>
<path d="M1308.13 45.0781C1307.67 45.1911 1307.27 45.4533 1306.98 45.823C1306.68 46.1926 1306.53 46.6484 1306.53 47.1178C1306.53 47.5871 1306.68 48.0429 1306.98 48.4125C1307.27 48.7822 1307.67 49.0444 1308.13 49.1574C1308.59 49.0444 1309 48.7822 1309.29 48.4125C1309.58 48.0429 1309.74 47.5871 1309.74 47.1178C1309.74 46.6484 1309.58 46.1926 1309.29 45.823C1309 45.4533 1308.59 45.1911 1308.13 45.0781Z" fill="#D8F3EE"/>
<path d="M1279.4 48.416C1278.94 48.529 1278.53 48.7912 1278.24 49.1608C1277.95 49.5305 1277.79 49.9863 1277.79 50.4556C1277.79 50.9249 1277.95 51.3807 1278.24 51.7503C1278.53 52.12 1278.94 52.3822 1279.4 52.4952C1279.85 52.3822 1280.26 52.12 1280.55 51.7503C1280.84 51.3807 1281 50.9249 1281 50.4556C1281 49.9863 1280.84 49.5305 1280.55 49.1608C1280.26 48.7912 1279.85 48.529 1279.4 48.416Z" fill="#D8F3EE"/>
<path d="M1279.27 59.9121C1278.81 60.0251 1278.41 60.2873 1278.12 60.657C1277.82 61.0266 1277.67 61.4824 1277.67 61.9514C1277.67 62.4214 1277.82 62.8764 1278.12 63.2464C1278.41 63.6164 1278.81 63.8784 1279.27 63.9914C1279.73 63.8784 1280.14 63.6164 1280.43 63.2464C1280.72 62.8764 1280.88 62.4214 1280.88 61.9514C1280.88 61.4824 1280.72 61.0266 1280.43 60.657C1280.14 60.2873 1279.73 60.0251 1279.27 59.9121Z" fill="#D8F3EE"/>
<path d="M1268.2 40.6289C1267.74 40.7419 1267.33 41.0041 1267.04 41.3737C1266.75 41.7434 1266.59 42.1992 1266.59 42.6685C1266.59 43.1378 1266.75 43.5936 1267.04 43.9633C1267.33 44.3329 1267.74 44.5951 1268.2 44.7081C1268.66 44.5951 1269.07 44.3329 1269.36 43.9633C1269.65 43.5936 1269.81 43.1378 1269.81 42.6685C1269.81 42.1992 1269.65 41.7434 1269.36 41.3737C1269.07 41.0041 1268.66 40.7419 1268.2 40.6289Z" fill="#D8F3EE"/>
<path d="M1257.25 45.8203C1256.69 45.8203 1256.15 46.0417 1255.76 46.4358C1255.36 46.8299 1255.14 47.3644 1255.14 47.9217C1255.14 48.4791 1255.36 49.0136 1255.76 49.4077C1256.15 49.8017 1256.69 50.0231 1257.25 50.0231C1259.87 50.0231 1259.87 45.8203 1257.25 45.8203Z" fill="#D8F3EE"/>
<path d="M1274.3 25.5469C1271.68 25.5469 1271.68 29.7497 1274.3 29.7497C1274.86 29.7497 1275.39 29.5283 1275.79 29.1342C1276.19 28.7401 1276.41 28.2056 1276.41 27.6483C1276.41 27.091 1276.19 26.5565 1275.79 26.1624C1275.39 25.7683 1274.86 25.5469 1274.3 25.5469Z" fill="#D8F3EE"/>
<path d="M1269.69 19.1204C1269.23 19.2333 1268.83 19.4956 1268.54 19.8652C1268.25 20.2349 1268.09 20.6907 1268.09 21.16C1268.09 21.6293 1268.25 22.0851 1268.54 22.4547C1268.83 22.8244 1269.23 23.0866 1269.69 23.1996C1270 23.2764 1270.33 23.2817 1270.64 23.2151C1270.96 23.1484 1271.25 23.0117 1271.51 22.8151C1271.76 22.6185 1271.96 22.3674 1272.1 22.0806C1272.24 21.7938 1272.32 21.479 1272.32 21.16C1272.32 20.841 1272.24 20.5261 1272.1 20.2393C1271.96 19.9526 1271.76 19.7014 1271.51 19.5048C1271.25 19.3083 1270.96 19.1715 1270.64 19.1049C1270.33 19.0383 1270 19.0436 1269.69 19.1204Z" fill="#D8F3EE"/>
</g>
<defs>
<clipPath id="clip0_4867_1463">
<rect width="1440" height="210" fill="white"/>
</clipPath>
</defs>
</svg>
