<svg width="1440" height="370" viewBox="0 0 1440 370" fill="none" xmlns="http://www.w3.org/2000/svg">
<g clip-path="url(#clip0_4848_2525)">
<path d="M759.313 220.452L760.322 224.153C760.322 224.153 761.834 229.536 763.682 237.611C765.53 245.685 767.546 256.788 768.89 267.723C769.562 274.788 770.066 281.854 770.234 288.078H847.518C847.491 287.233 847.547 286.388 847.686 285.554C847.854 277.816 848.526 267.386 849.366 256.956C850.206 246.526 851.719 236.096 852.727 228.19C853.231 224.321 853.903 221.125 854.239 218.769L854.743 215.237C854.743 215.237 854.911 213.891 855.415 211.704C855.919 209.517 856.255 206.153 857.095 202.283C858.439 194.545 860.791 184.283 863.143 174.022C865.495 163.76 868.52 153.498 870.704 145.928L873.56 136.844C874.232 134.657 874.736 133.311 874.736 133.311L873.392 136.676C872.384 138.863 871.208 141.891 869.696 145.592C866.839 152.994 863.143 162.919 859.783 173.012C856.423 183.106 853.399 193.199 851.215 200.938C850.375 203.629 849.87 205.984 849.366 208.003C849.87 202.62 850.711 196.396 851.551 190.339C852.895 181.592 854.407 172.676 855.751 166.115C856.423 162.919 856.927 160.227 857.431 158.209L857.935 155.181L857.095 158.209C856.591 160.059 855.583 162.751 854.743 165.947C852.727 172.339 850.375 180.919 848.19 189.667C846.006 198.414 843.99 207.162 842.646 213.723C841.974 217.087 841.47 219.779 841.134 221.797C840.798 223.648 840.462 224.825 840.462 224.825L839.958 227.854C839.622 229.872 839.118 232.564 838.614 235.928C837.438 242.489 836.262 251.573 835.254 260.489C835.086 262.339 834.75 264.358 834.582 266.209C834.582 264.358 834.414 262.508 834.414 260.657C834.078 253.087 834.078 245.349 834.246 239.629C834.246 236.769 834.246 234.246 834.414 232.564V227.349C834.414 225.667 834.582 223.311 834.75 220.452C835.086 214.564 835.758 206.994 836.598 199.255C837.438 191.517 838.446 183.947 839.454 178.227C839.79 175.368 840.294 173.012 840.63 171.33L841.134 168.639L840.294 171.33L838.278 178.059C836.766 183.611 834.75 191.181 833.07 198.751C831.389 206.321 829.709 213.891 828.701 219.611C828.197 222.639 827.861 224.994 827.525 226.676C827.189 228.358 827.189 229.368 827.189 229.368C827.189 229.368 827.021 230.209 826.853 232.059C826.685 233.91 826.181 236.097 825.845 238.956C825.509 241.816 825.005 245.181 824.669 248.713C825.005 240.975 825.341 233.573 825.845 227.854C826.349 222.134 826.853 215.741 826.853 215.741C826.853 215.741 827.189 210.863 828.029 203.629C828.869 196.396 829.877 186.639 831.221 177.05C832.566 167.461 834.246 157.704 835.59 150.47C836.934 143.237 837.774 138.358 837.774 138.358L834.414 150.134C832.398 157.368 830.045 166.788 827.693 176.377C825.341 185.966 823.493 195.386 821.981 202.62C820.469 209.854 819.797 214.732 819.797 214.732C819.797 214.732 819.293 216.751 818.789 220.283V208.508C818.789 208.508 818.789 207.162 818.957 204.639C819.125 202.115 818.957 201.779 819.125 199.928C819.293 198.078 819.293 196.227 819.461 194.04C819.629 191.853 820.301 184.62 820.973 179.237C821.645 173.854 822.821 168.134 823.997 162.414C825.173 156.695 826.685 150.975 828.365 145.76C829.834 140.955 831.573 136.238 833.574 131.629C834.225 129.725 835.011 127.87 835.926 126.078C836.495 124.683 837.169 123.334 837.942 122.04L839.79 118.339L837.606 121.872C836.738 123.167 835.952 124.516 835.254 125.91C834.414 127.424 833.406 129.274 832.566 131.125C831.725 132.975 828.365 139.872 826.181 145.087C823.997 150.302 822.317 155.854 820.469 161.405C818.621 166.956 817.445 172.844 816.269 178.396C815.093 183.947 814.589 186.807 813.916 190.508C814.252 181.255 814.589 169.648 815.429 158.04C816.361 146.523 817.931 135.066 820.133 123.723L820.637 120.358C820.973 119.349 821.141 118.34 821.477 117.33C821.813 116.321 822.149 113.966 822.485 112.62L823.493 108.246C823.493 108.246 822.989 109.76 822.317 112.452C821.645 115.143 821.309 115.48 820.805 117.162L819.797 120.19C819.577 121.326 819.296 122.449 818.957 123.554C816.075 134.811 813.775 146.21 812.068 157.704C810.22 170.153 808.876 182.769 808.036 192.358L806.692 208.003C806.692 208.003 806.188 214.396 805.348 223.816C804.508 233.237 803.5 245.685 801.82 258.134L800.308 268.9C800.308 264.695 800.476 260.489 800.476 256.115C800.812 231.386 800.476 206.657 800.476 206.657C800.476 206.657 800.308 182.097 799.468 157.368C798.628 132.639 797.284 108.078 797.284 108.078C797.284 108.078 796.78 132.807 795.772 157.368C794.763 181.928 793.419 206.489 793.419 206.489C793.419 206.489 791.907 231.05 789.723 255.611C789.555 258.47 789.387 261.162 789.051 264.022C789.051 262.003 788.883 260.153 788.883 258.302C788.211 247.031 787.539 235.76 786.699 227.349C786.195 223.143 785.859 219.61 785.523 217.255C785.187 214.9 785.187 213.386 785.187 213.386C785.187 213.386 785.019 211.872 784.683 209.517C784.347 207.162 784.011 203.461 783.339 199.424C782.331 191.012 780.483 179.91 778.467 168.807C776.45 157.704 774.098 146.769 772.082 138.526C771.242 134.489 770.234 131.125 769.73 128.769L768.89 124.9C768.89 124.9 769.058 126.414 769.394 128.769C769.73 131.125 770.402 134.657 771.074 138.863C772.25 147.106 773.762 158.209 774.938 169.311C776.114 180.414 776.954 191.517 777.459 199.928C777.627 204.134 777.795 207.667 777.963 210.022C777.947 211.314 778.003 212.605 778.131 213.891V217.76C778.299 220.115 778.467 223.648 778.467 227.854C778.635 236.097 778.467 247.368 778.131 258.47V259.816C776.114 250.732 773.762 242.153 771.746 235.424L767.21 221.966L765.698 218.265C764.858 215.91 763.682 212.545 762.002 208.676C758.977 200.769 754.273 190.34 749.401 180.078C744.529 169.816 739.32 159.891 735.456 152.489L728.736 140.04L734.448 152.825C737.808 160.564 742.177 170.994 746.209 181.592C750.241 192.19 753.937 202.62 756.457 210.695L759.313 220.452Z" fill="url(#paint0_linear_4848_2525)"/>
<path d="M1032.44 294.474C1032.19 295.986 1031.74 297.68 1031.49 299.192L1033.77 299.281C1033.92 295.483 1033.92 290.538 1033.94 285.024L1032.44 294.474Z" fill="url(#paint1_linear_4848_2525)"/>
<path d="M848.152 154.153C847.753 149.763 847.142 145.936 846.866 143.262L846.392 140.771C845.438 150.624 844.182 163.318 843.299 176.216C841.13 202.568 839.721 228.95 839.721 228.95C839.721 228.95 838.312 255.332 837.67 281.553C837.551 284.592 837.433 287.63 837.512 290.486C840.071 283.359 844.456 263.559 846.69 250.143C847.43 245.797 847.768 242.007 848.054 239.545L848.597 235.382C848.792 234 848.91 232.608 848.95 231.212C849.236 228.751 849.574 224.96 849.941 220.41C850.479 211.492 850.756 199.52 850.471 187.337C850.185 175.154 849.316 163.328 848.152 154.153Z" fill="url(#paint2_linear_4848_2525)"/>
<path d="M1092.37 220.165C1091.87 223.378 1091.6 225.27 1091.6 225.27L1091.46 228.878C1091.19 231.149 1090.68 234.363 1090.14 238.336C1089.26 246.29 1088.28 256.902 1087.49 267.522C1086.69 278.142 1085.9 288.761 1085.4 296.73L1085.28 299.768C1089.46 299.741 1094.06 245.146 1093.21 232.75C1092.9 227.793 1092.62 223.598 1092.37 220.165Z" fill="url(#paint3_linear_4848_2525)"/>
<path d="M1283.97 265.675L1283.95 266.245C1283.36 276.492 1282.64 299.668 1282.95 301.581L1289.02 301.818C1287.73 295.872 1286.66 289.364 1285.59 282.665C1284.52 275.967 1284.33 271.014 1283.97 265.675Z" fill="url(#paint4_linear_4848_2525)"/>
<path d="M1422.75 193.109C1422.67 180.363 1422.42 167.42 1422.22 157.713C1422.13 158.542 1421.97 159.362 1421.75 160.167C1421.26 162.81 1420.17 166.382 1419.43 170.917C1417.75 179.791 1415.76 191.885 1414.53 203.819C1413.31 215.754 1412.64 227.9 1412.67 236.84C1412.5 241.398 1412.73 245.021 1412.63 247.68C1412.53 250.338 1412.66 251.865 1412.66 251.865C1412.66 251.865 1412.79 253.391 1412.88 255.868C1412.98 258.344 1413.01 262.339 1413.41 266.729C1414.01 275.691 1415.26 287.532 1417.08 299.395C1417.68 303.412 1418.48 307.248 1419.1 311.075L1419.47 311.09C1419.63 307.102 1419.79 302.924 1420.15 298.754C1421.56 272.372 1422.02 245.953 1422.02 245.953C1422.02 245.953 1422.85 219.549 1422.75 193.109Z" fill="url(#paint5_linear_4848_2525)"/>
<path d="M1188.39 234.94L1188.85 222.976C1188.85 222.976 1189.04 218.229 1189.13 211.005C1189.22 203.781 1189.4 194.279 1189.01 184.754C1188.62 175.229 1188.04 165.887 1186.99 158.619C1186.73 155.566 1186.07 153.067 1185.76 151.153C1184.09 159.837 1182.33 170.8 1180.57 181.952C1178.8 193.104 1178.18 199.356 1177.31 206.93C1177.96 209.809 1178.61 212.687 1179.08 215.178L1181.76 229.356C1181.76 229.356 1181.89 230.883 1182.36 233.374C1182.84 235.865 1183.46 239.313 1184.05 243.71C1185.44 252.132 1186.89 263.601 1188.15 275.061C1188.13 270.686 1187.93 266.114 1187.92 261.549C1187.92 251.849 1188.11 242.156 1188.39 234.94Z" fill="url(#paint6_linear_4848_2525)"/>
<path d="M1448.12 278.543C1447.85 273.729 1447.91 268.902 1448.31 264.096C1448.31 264.096 1448.54 258.209 1448.68 249.656C1448.82 241.103 1449.85 229.351 1450.69 217.592C1451.53 205.833 1453.11 194.483 1454.21 185.777C1455.31 177.071 1456.3 171.404 1456.3 171.404L1452.51 185.521C1450.47 194 1447.74 205.495 1445.39 217.005C1443.04 228.515 1441.07 240.04 1439.78 248.738C1438.49 257.437 1437.5 263.294 1437.5 263.294C1437.5 263.294 1436.89 269.166 1435.79 277.872C1435.55 279.194 1435.5 280.523 1435.25 282.035C1434.12 262.211 1432.86 245.806 1432.86 245.806C1432.86 245.806 1430.85 219.291 1428.08 192.936C1425.3 166.581 1421.96 140.205 1421.96 140.205L1422.25 157.143L1421.37 160.152C1420.51 162.591 1419.04 166.147 1417.73 170.471C1415.11 179.307 1411.79 191.16 1409.24 203.042C1408.54 206.438 1407.84 209.645 1407.33 213.048C1407.38 201.829 1407.45 185.475 1407.14 169.106C1406.94 140.189 1405.98 111.053 1405.98 111.053C1405.98 111.053 1404.28 140.086 1401.82 168.899C1399.37 197.713 1396.34 226.694 1396.34 226.694C1396.34 226.694 1393.31 255.485 1389.54 284.056C1388.45 292.383 1387.37 300.709 1386.31 308.275C1384.41 308.201 1376.15 256.907 1374.87 226.237C1374.47 217.092 1374.95 204.748 1375.43 192.404C1375.91 180.061 1376.76 167.922 1377.51 158.631C1377.87 154.081 1378.41 150.108 1378.51 147.449C1378.62 144.791 1379.06 143.286 1379.06 143.286C1379.06 143.286 1378.62 144.791 1378.13 147.434C1377.65 150.078 1376.74 153.847 1375.81 158.375C1374.11 167.628 1371.93 179.715 1370.12 192.007C1368.31 204.299 1366.69 216.598 1365.95 225.889C1365.88 225.963 1365.82 226.051 1365.78 226.148C1365.75 226.245 1365.73 226.348 1365.73 226.451C1365.25 219.395 1363.78 198.607 1361.75 177.606C1359.13 152.019 1355.37 126.577 1355.37 126.577C1355.37 126.577 1356.46 152.295 1356.42 177.779C1356.37 203.263 1355.17 229.082 1355.17 229.082C1355.17 229.082 1354.18 254.719 1352.04 280.122C1351.32 289.032 1347.44 305.428 1346.3 305.384C1346.8 297.605 1347.34 288.687 1347.87 279.769C1349.25 254.337 1350.04 229.072 1350.04 229.072C1350.04 229.072 1350.84 203.808 1350.87 178.514C1350.91 153.22 1350.37 127.903 1350.37 127.903C1350.37 127.903 1348.25 153.116 1345.56 178.117C1342.88 203.117 1339.24 228.27 1339.24 228.27C1339.24 228.27 1335.98 253.249 1331.77 278.19C1330.98 284.055 1329.99 289.912 1329 295.58C1329.37 291.029 1329.56 286.282 1329.93 281.542C1330.57 270.155 1330.82 258.753 1330.96 250.2C1331.11 241.647 1330.94 236.125 1330.94 236.125L1330.55 221.846C1330.31 213.278 1329.8 202.036 1328.91 190.78C1328.02 179.524 1326.93 168.261 1325.93 159.853C1324.93 151.446 1324.19 145.901 1324.19 145.901C1324.19 145.901 1324.17 151.416 1324.22 159.977C1324.26 168.537 1324.02 179.559 1323.59 190.763C1323.15 201.967 1322.33 213.157 1321.62 221.688L1320.13 235.513C1320.13 235.513 1319.53 241.006 1318.45 249.332C1317.36 257.658 1315.79 268.818 1313.84 279.773L1310.97 294.876C1310.24 292.666 1309.63 290.421 1309.14 288.148C1306.31 277.768 1304.45 267.044 1304.45 267.044C1304.45 267.044 1302.58 256.511 1301.86 245.642C1301.19 238.36 1300.9 231.048 1301 223.736C1301 223.736 1298.11 234.465 1296.36 245.427L1295.58 250.722L1295.59 250.342C1294.8 246.317 1294.55 242.884 1294.27 240.401L1293.84 236.77L1293.61 232.958C1293.52 230.481 1293.08 227.041 1293.05 222.856C1292.61 212.718 1292.69 202.564 1293.29 192.434C1293.99 182.212 1295.27 172.038 1297.14 161.964C1297.68 157.801 1298.57 154.412 1299.05 151.958C1299.53 149.504 1299.96 148.19 1299.96 148.19L1298.67 151.943C1297.43 155.14 1296.35 158.399 1295.44 161.707C1292.38 171.604 1289.9 181.667 1287.99 191.847L1286.52 200.348C1286.65 191.985 1287.06 181.541 1287.08 171.271C1287.63 147.518 1287.4 123.926 1287.4 123.926C1287.4 123.926 1284.78 147.407 1281.77 170.874C1278.76 194.34 1275.19 217.785 1275.19 217.785C1275.19 217.785 1274.41 223.08 1273.35 230.836C1271.8 221.837 1270.89 215.905 1270.89 215.905L1268.54 202.881C1269.31 193.021 1270.56 180.517 1272 167.83C1274.92 141.698 1278.98 115.799 1278.98 115.799C1278.98 115.799 1272.28 141.214 1266.71 167.053C1265.79 171.011 1264.88 174.97 1264.15 178.936C1263.53 175.488 1262.72 171.843 1262.1 168.205C1257.32 144.435 1251.78 120.825 1251.78 120.825C1251.78 120.825 1254.65 144.711 1256.76 168.757C1257.78 181.54 1258.61 194.315 1259.2 203.467C1259.8 212.62 1256.52 218.768 1256.52 218.768C1256.52 218.768 1251.7 244.637 1248.21 270.937C1246.92 279.446 1245.83 287.962 1244.96 295.725C1244.76 295.171 1244.66 294.589 1244.65 294.001C1242.73 284.607 1240.56 271.97 1238.58 259.34C1236.6 246.71 1235.2 233.913 1234.05 224.359L1233.65 219.969C1234.66 213.731 1235.7 206.545 1236.93 199.365L1244.34 155.53L1231.66 198.019C1231.53 196.302 1231.41 194.586 1231.3 192.489C1230.72 182.957 1230.08 170.189 1229.63 157.239C1229.19 144.288 1229.31 131.55 1229.49 121.858C1229.68 112.165 1229.93 105.898 1229.93 105.898C1229.93 105.898 1229.1 112.333 1227.79 121.791C1226.47 131.249 1225.38 144.33 1224.31 157.221C1223.24 170.113 1222.55 182.829 1222.17 192.514C1221.8 202.199 1221.73 208.853 1221.73 208.853C1221.73 208.853 1221.86 215.324 1221.67 225.017C1221.76 227.493 1221.64 230.531 1221.72 233.387C1221.8 236.243 1219.72 240.917 1219.72 240.917C1219.72 240.917 1215.71 255.976 1211.59 273.883C1210.89 267.39 1210.23 259.946 1209.57 252.503C1207.93 231.138 1207.05 209.802 1207.05 209.802C1207.05 209.802 1206.18 188.276 1206.26 166.788C1206.33 145.299 1206.98 123.833 1206.98 123.833C1206.98 123.833 1203.49 145.188 1200.75 166.573C1199.07 180.391 1197.77 194.225 1196.88 202.368C1196.15 196.824 1195.25 190.513 1194.16 184.384C1192.44 174.808 1190.34 165.406 1188.52 158.488C1187.52 154.836 1186.49 151.943 1185.99 150.021L1185.81 150.014L1185.83 149.254L1188.7 134.341L1184.97 146.939L1184.34 148.625C1181.72 157.272 1178.41 168.935 1175.11 180.598C1174.42 183.614 1173.54 186.623 1172.85 189.639L1171.35 184.255C1168.17 173.1 1164.6 162.31 1161.49 154.201C1159.94 150.146 1158.36 146.851 1157.5 144.536L1155.92 141.051C1155.92 141.051 1156.44 142.402 1157.11 144.711C1157.78 147.019 1158.79 150.482 1159.76 154.704C1162.42 164.816 1164.56 175.056 1166.17 185.385C1167.23 192.463 1168.09 199.534 1168.79 206.027C1168.31 208.481 1167.65 210.928 1167.18 213.192L1163.94 228.091L1161.54 240.74L1161.22 234.261C1159.59 207.951 1156.62 181.779 1156.62 181.779C1156.62 181.779 1153.64 155.607 1149.52 129.77C1145.39 103.933 1139.94 78.0444 1139.94 78.0444C1139.94 78.0444 1142.73 104.019 1144.18 130.132C1145.63 156.245 1145.95 182.314 1145.95 182.314C1145.95 182.314 1146.07 208.375 1145.06 234.391C1144.04 260.408 1143.1 299.171 1138.72 299.38C1140.62 279.864 1141.16 261.247 1141.16 261.247C1141.16 261.247 1141.95 240.927 1141.41 220.745C1140.86 200.564 1139.18 180.338 1139.18 180.338C1139.18 180.338 1138.39 200.658 1136.09 220.538C1133.79 240.419 1130.56 260.072 1130.56 260.072L1130.54 260.452C1129.95 256.245 1129.68 253.381 1129.68 253.381C1129.68 253.381 1127.78 233.718 1127.24 213.536C1126.69 193.355 1127.47 173.415 1127.47 173.415C1127.47 173.415 1124.04 193.251 1121.92 213.329C1119.81 233.407 1119.01 253.916 1119.01 253.916C1119.01 253.916 1118.22 274.236 1118.75 294.607C1118.69 296.316 1118.81 298.033 1118.74 299.742L1115.32 299.609C1114.28 292.151 1113.27 284.123 1112.06 276.088L1105.45 231.135C1103.82 219.09 1102.81 210.872 1102.81 210.872C1102.81 210.872 1101.61 202.647 1100.38 190.426C1100.27 188.33 1099.98 186.037 1099.7 183.553C1102.38 173.197 1105.63 163.053 1108.4 155.364C1109.69 151.61 1111.14 148.623 1111.98 146.374L1113.26 143L1111.61 146.17C1109.86 148.986 1108.28 151.91 1106.9 154.925C1104.43 159.583 1101.54 165.557 1098.82 171.917C1098.2 163.524 1097.78 154.569 1097.57 145.432C1097.35 130.344 1098.01 115.256 1099.52 100.242C1099.58 98.723 1099.83 97.2112 1099.88 95.8819C1100.14 94.5689 1100.32 93.2423 1100.42 91.9088C1100.89 89.4548 1101.17 87.1834 1101.43 85.4817L1102.22 79.8068L1101.06 85.277C1100.6 87.1612 1100.14 89.2353 1099.48 91.6818C1098.81 94.1284 1099 94.1358 1098.56 95.6402L1097.82 99.9857C1095.02 114.998 1093.16 130.17 1092.25 145.414C1091.22 161.921 1091.15 178.465 1091.43 190.838C1088.87 197.966 1086.51 204.721 1084.96 210.366C1083.41 216.011 1081.22 223.343 1081.22 223.343L1080.13 226.914C1079.66 229.178 1078.78 232.377 1077.67 236.328C1076.08 243.113 1074.23 251.599 1072.16 260.648C1072.9 251.547 1073.43 242.819 1073.69 235.983L1074.62 212.245C1075.09 205.036 1075.84 195.556 1076.78 186.083C1077.72 176.61 1079.42 167.167 1081.02 160.192C1081.54 156.599 1082.41 153.78 1082.88 151.706C1083.34 149.631 1083.76 148.507 1083.76 148.507L1082.5 151.501C1081.66 153.56 1080.41 156.364 1079.33 159.745C1076.78 166.493 1073.95 175.702 1071.5 185.116C1069.04 194.53 1068.09 199.247 1066.91 205.287C1066.68 196.34 1066.57 184.733 1066.07 173.112C1065.32 148.358 1063.61 123.947 1063.61 123.947C1063.61 123.947 1062.66 148.445 1060.75 172.905C1058.85 197.365 1056.18 221.796 1056.18 221.796C1056.18 221.796 1053.72 246.045 1050.11 270.249L1050.08 271.198C1049.95 270.096 1049.74 269.007 1049.44 267.94C1046.21 248.414 1042.02 229.232 1042.02 229.232C1042.02 229.232 1041.72 227.128 1040.89 223.863L1040.91 223.483C1041.67 213.813 1042.11 207.363 1042.11 207.363C1042.11 207.363 1042.36 200.907 1042.93 191.229C1043.49 181.551 1043.62 168.623 1043.74 155.695C1043.87 142.767 1043.42 129.816 1042.84 120.284C1042.26 110.752 1042.14 104.091 1042.14 104.091C1042.14 104.091 1041.7 110.54 1041.13 120.217C1040.57 129.895 1039.69 142.604 1038.24 155.48C1036.78 168.357 1035.35 180.853 1033.83 190.494C1033.84 191.071 1033.75 191.646 1033.57 192.195C1033.53 191.672 1033.43 191.156 1033.25 190.661L1023.71 152.441L1027.9 191.404C1028.73 199.424 1029.56 207.254 1030.06 213.931C1029.59 216.195 1029.1 219.028 1028.61 222.052C1026.91 231.495 1024.33 243.947 1021.37 256.385C1018.42 268.822 1015.7 279.938 1013.26 288.971C1012.84 280.016 1012.35 268.395 1011.46 256.949C1009.77 232.158 1007.11 207.71 1007.11 207.71L1005.68 195.482C1006.97 186.974 1008.54 175.814 1010.49 164.859C1014.46 141.049 1019 117.262 1019 117.262C1019 117.262 1011.83 140.376 1005.21 163.702C1004.33 166.711 1003.46 169.72 1002.78 172.546C1002.19 168.148 1001.42 163.364 1000.65 158.769C997.043 134.284 992.471 110.141 992.471 110.141C992.471 110.141 994.363 134.75 995.314 159.132C995.905 173.229 996.116 187.311 996.323 196.639C996.529 205.966 992.737 210.573 992.737 210.573C992.737 210.573 991.171 216.598 989.114 225.457C988.476 217.444 988.107 212.294 988.107 212.294C988.107 212.294 986.557 188.65 985.197 165.013C983.837 141.377 983.244 117.58 983.244 117.58C983.244 117.58 981.369 141.28 979.874 164.996C979.284 175.243 978.694 185.491 978.179 193.839C978.1 190.983 977.831 188.12 977.563 185.256C976.291 173.985 974.253 162.875 972.483 154.628C971.507 150.405 970.493 147.133 970.02 144.642L969.022 140.989L969.443 144.809C969.734 147.103 970.353 150.741 970.767 154.751C971.58 163.151 972.282 174.4 972.232 185.429C972.039 195.638 971.324 205.83 970.091 215.966C969.738 220.137 969.035 223.533 968.756 225.804L967.321 233.356C966.852 235.62 966.339 239.023 965.417 243.172L965.227 243.164L964.865 237.825C963.966 226.758 962.11 215.845 962.11 215.845C962.11 215.845 961.3 226.845 959.549 237.617C957.798 248.39 955.105 258.936 955.105 258.936C955.105 258.936 952.42 269.291 948.982 279.428L946.445 285.985C945.871 281.208 945.311 276.051 944.752 270.894C943.86 259.638 942.96 248.572 942.527 240.187C942.093 231.801 941.936 226.089 941.936 226.089C941.936 226.089 941.771 220.567 941.717 212.197C941.663 203.826 941.721 192.607 941.968 181.396C942.215 170.184 943.039 158.805 943.744 150.464C944.45 142.123 945.052 136.441 945.052 136.441L942.043 150.207C940.388 158.511 938.433 169.656 936.667 180.809C934.901 191.961 933.507 203.318 932.604 211.842C931.702 220.365 931.297 225.865 931.297 225.865C931.297 225.865 930.695 231.547 930.172 240.085C929.649 248.623 929.022 259.82 928.768 271.222C928.582 275.969 928.587 280.724 928.599 285.29C928.055 279.753 927.525 273.836 927.002 267.73C924.935 242.734 923.452 217.381 923.452 217.381C923.452 217.381 921.962 192.217 921.231 167.083C920.5 141.95 920.353 116.458 920.353 116.458C920.353 116.458 917.659 141.649 915.915 166.876C914.17 192.103 912.798 217.536 912.798 217.536C912.798 217.536 911.434 242.778 910.828 268.05C910.655 277.362 910.49 286.485 910.558 294.476C909.419 294.431 907.497 216.949 907.497 216.949C907.497 216.949 908.49 191.502 910.439 165.902C912.388 140.302 915.286 114.739 915.286 114.739C915.286 114.739 909.745 139.818 905.138 165.315C901.293 185.896 898.2 206.696 897.167 213.693L897.189 213.123C896.983 203.796 896.522 191.225 895.675 178.829C894.827 166.434 893.592 154.214 892.429 145.039C892.045 140.269 891.433 136.442 890.968 133.761L890.561 129.561C890.561 129.561 890.502 131.08 890.58 133.936C890.659 136.792 890.708 140.407 890.72 144.972C890.927 154.3 890.636 166.651 890.344 179.002C890.052 191.353 889.009 203.485 888.076 212.768C887.144 222.051 886.725 227.93 886.725 227.93C886.725 227.93 885.911 234.175 884.796 243.261C883.681 252.346 872.224 292.6 870.333 292.337C869.855 285.091 869.407 277.085 868.951 269.269C867.601 240.498 866.828 211.559 866.828 211.559C866.828 211.559 866.056 182.619 865.852 153.702C865.649 124.785 866.213 95.7079 866.213 95.7079C866.213 95.7079 862.999 124.492 860.537 153.495C859.148 169.607 857.941 185.917 857.125 197.106C856.681 193.855 856.435 190.422 855.998 186.982C854.187 174.929 851.996 162.862 849.868 154.03C848.9 149.618 847.909 145.775 847.245 143.277L846.415 140.201C847.377 130.159 848.206 123.534 848.206 123.534C848.206 123.534 842.635 149.373 838.005 175.439C833.376 201.505 829.119 227.776 829.119 227.776C829.119 227.776 826.584 244.033 823.725 263.702C823.777 262.373 823.639 261.036 823.691 259.707C823.28 250.751 822.94 244.842 822.94 244.842C822.94 244.842 822.593 239.123 821.984 230.35C821.375 221.578 820.126 209.737 818.679 198.079C817.233 186.421 815.589 174.945 814.031 166.136C812.473 157.326 811.549 151.775 811.549 151.775C811.549 151.775 811.889 157.684 812.307 166.449C812.726 175.214 813.224 186.835 813.341 198.442C813.459 210.048 813.197 221.639 812.856 230.375L812.294 244.807C812.294 244.807 811.874 250.687 811.154 259.408C810.433 268.128 809.42 279.5 808.019 291.047C806.618 302.595 804.844 313.937 803.372 322.438C803.119 323.3 802.957 324.186 802.888 325.082L1452.36 350.411C1452.36 350.411 1448.7 293.02 1448.12 278.543ZM849.941 220.41C849.574 224.96 849.236 228.751 848.95 231.212C848.91 232.608 848.792 234 848.597 235.382L848.054 239.545C847.768 242.007 847.43 245.797 846.69 250.143C844.456 263.559 840.071 283.359 837.512 290.486C837.433 287.63 837.551 284.592 837.67 281.553C838.312 255.332 839.721 228.95 839.721 228.95C839.721 228.95 841.13 202.568 843.299 176.216C844.182 163.318 845.438 150.624 846.392 140.771L846.866 143.262C847.142 145.936 847.753 149.763 848.152 154.153C849.316 163.328 850.178 175.343 850.471 187.337C850.763 199.33 850.479 211.492 849.941 220.41ZM1031.49 299.192C1031.74 297.68 1032.19 295.986 1032.44 294.474L1033.95 284.834C1033.93 290.348 1033.92 295.293 1033.78 299.091L1031.49 299.192ZM1085.09 299.761L1085.21 296.722C1085.71 288.754 1086.5 278.134 1087.3 267.514C1088.09 256.895 1089.07 246.282 1089.95 238.329C1090.49 234.355 1091 231.142 1091.27 228.87L1091.42 225.262C1091.42 225.262 1091.68 223.371 1092.18 220.157C1092.43 223.59 1092.65 227.783 1092.83 232.735C1093.87 245.138 1089.27 299.734 1085.09 299.761ZM1183.86 243.703C1183.27 239.305 1182.65 235.857 1182.17 233.366C1181.7 230.876 1181.57 229.349 1181.57 229.349L1178.89 215.17C1178.42 212.679 1177.77 209.801 1177.12 206.923C1177.99 199.349 1179.09 190.643 1180.38 181.945C1181.67 173.246 1183.9 159.83 1185.57 151.146C1185.88 153.06 1186.54 155.558 1186.8 158.611C1187.85 165.88 1188.43 175.222 1188.82 184.747C1189.21 194.271 1189.22 203.781 1188.94 210.998C1188.66 218.214 1188.66 222.969 1188.66 222.969L1188.2 234.933C1187.92 242.149 1187.73 251.842 1187.54 261.534C1187.55 266.099 1187.75 270.671 1187.77 275.047C1186.7 263.593 1185.25 252.125 1183.86 243.703ZM1282.95 301.581C1282.64 299.668 1283.36 276.492 1283.95 266.245L1283.97 265.675C1284.33 271.014 1284.86 276.931 1285.59 282.665C1286.31 288.399 1287.73 295.872 1289.02 301.818L1282.95 301.581ZM1420.15 298.754C1419.79 302.924 1419.63 307.102 1419.47 311.09L1419.1 311.075C1418.48 307.248 1417.68 303.412 1417.08 299.395C1415.26 287.532 1414.01 275.691 1413.41 266.729C1413.01 262.339 1412.97 258.534 1412.88 255.868C1412.8 253.202 1412.66 251.865 1412.66 251.865C1412.66 251.865 1412.72 250.346 1412.63 247.68C1412.55 245.013 1412.5 241.398 1412.67 236.84C1412.64 227.9 1413.31 215.754 1414.53 203.819C1415.76 191.885 1417.75 179.791 1419.43 170.917C1420.17 166.382 1421.26 162.81 1421.75 160.167C1421.97 159.362 1422.13 158.542 1422.22 157.713C1422.42 167.42 1422.67 180.363 1422.75 193.109C1422.85 219.549 1422.02 245.953 1422.02 245.953C1422.02 245.953 1421.56 272.372 1420.15 298.754Z" fill="url(#paint7_linear_4848_2525)"/>
<path d="M593.313 228.451L594.321 232.152C594.321 232.152 595.833 237.536 597.682 245.61C599.53 253.685 601.546 264.788 602.89 275.722C603.562 282.788 604.066 289.853 604.234 296.078H681.518C681.491 295.233 681.547 294.388 681.686 293.554C681.854 285.816 682.526 275.386 683.366 264.956C684.206 254.526 685.718 244.096 686.726 236.19C687.23 232.32 687.903 229.124 688.239 226.769L688.743 223.236C688.743 223.236 688.911 221.891 689.415 219.704C689.919 217.517 690.255 214.152 691.095 210.283C692.439 202.545 694.791 192.283 697.143 182.022C699.495 171.76 702.519 161.498 704.703 153.928L707.56 144.844C708.232 142.657 708.736 141.311 708.736 141.311L707.392 144.676C706.384 146.863 705.207 149.891 703.695 153.592C700.839 160.993 697.143 170.919 693.783 181.012C690.423 191.106 687.398 201.199 685.214 208.937C684.374 211.629 683.87 213.984 683.366 216.003C683.87 210.62 684.71 204.395 685.55 198.339C686.894 189.592 688.407 180.676 689.751 174.115C690.423 170.919 690.927 168.227 691.431 166.208L691.935 163.18L691.095 166.208C690.591 168.059 689.583 170.75 688.743 173.947C686.726 180.339 684.374 188.919 682.19 197.666C680.006 206.414 677.99 215.162 676.646 221.722C675.974 225.087 675.47 227.778 675.134 229.797C674.798 231.648 674.462 232.825 674.462 232.825L673.958 235.853C673.622 237.872 673.118 240.564 672.614 243.928C671.438 250.489 670.262 259.573 669.253 268.489C669.085 270.339 668.749 272.358 668.581 274.208C668.581 272.358 668.413 270.507 668.413 268.657C668.077 261.087 668.077 253.349 668.245 247.629C668.245 244.769 668.245 242.246 668.413 240.564V235.349C668.413 233.666 668.582 231.311 668.75 228.451C669.086 222.564 669.757 214.993 670.598 207.255C671.438 199.517 672.446 191.947 673.454 186.227C673.79 183.367 674.294 181.012 674.63 179.33L675.134 176.638L674.294 179.33L672.278 186.059C670.766 191.61 668.749 199.18 667.069 206.75C665.389 214.32 663.709 221.891 662.701 227.61C662.197 230.638 661.861 232.993 661.525 234.676C661.189 236.358 661.189 237.367 661.189 237.367C661.189 237.367 661.021 238.208 660.853 240.059C660.685 241.909 660.181 244.096 659.845 246.956C659.509 249.816 659.005 253.18 658.669 256.713C659.005 248.975 659.341 241.573 659.845 235.853C660.349 230.134 660.853 223.741 660.853 223.741C660.853 223.741 661.189 218.863 662.029 211.629C662.869 204.395 663.877 194.638 665.221 185.05C666.565 175.461 668.245 165.704 669.59 158.47C670.934 151.236 671.774 146.358 671.774 146.358L668.413 158.134C666.397 165.367 664.045 174.788 661.693 184.377C659.341 193.965 657.493 203.386 655.981 210.62C654.469 217.853 653.797 222.732 653.797 222.732C653.797 222.732 653.293 224.75 652.789 228.283V216.507C652.789 216.507 652.789 215.162 652.957 212.638C653.125 210.115 652.957 209.778 653.125 207.928C653.293 206.078 653.293 204.227 653.461 202.04C653.629 199.853 654.301 192.62 654.973 187.236C655.645 181.853 656.821 176.134 657.997 170.414C659.173 164.694 660.685 158.975 662.365 153.76C663.834 148.955 665.573 144.237 667.573 139.629C668.225 137.725 669.011 135.87 669.926 134.078C670.495 132.683 671.169 131.333 671.942 130.04L673.79 126.339L671.606 129.872C670.738 131.167 669.952 132.515 669.253 133.909C668.413 135.423 667.405 137.274 666.565 139.124C665.725 140.975 662.365 147.872 660.181 153.087C657.997 158.302 656.317 163.853 654.469 169.405C652.621 174.956 651.445 180.844 650.268 186.395C649.092 191.947 648.588 194.807 647.916 198.507C648.252 189.255 648.588 177.648 649.428 166.04C650.36 154.523 651.931 143.066 654.133 131.722L654.637 128.358C654.973 127.349 655.141 126.339 655.477 125.33C655.813 124.321 656.149 121.965 656.485 120.62L657.493 116.246C657.493 116.246 656.989 117.76 656.317 120.451C655.645 123.143 655.309 123.479 654.805 125.162L653.797 128.19C653.576 129.325 653.296 130.448 652.957 131.554C650.074 142.811 647.775 154.209 646.068 165.704C644.22 178.152 642.876 190.769 642.036 200.358L640.692 216.003C640.692 216.003 640.188 222.395 639.348 231.816C638.508 241.236 637.5 253.685 635.82 266.134L634.308 276.9C634.308 272.694 634.476 268.489 634.476 264.115C634.812 239.386 634.476 214.657 634.476 214.657C634.476 214.657 634.308 190.096 633.468 165.367C632.627 140.638 631.283 116.078 631.283 116.078C631.283 116.078 630.779 140.807 629.771 165.367C628.763 189.928 627.419 214.489 627.419 214.489C627.419 214.489 625.907 239.05 623.723 263.61C623.555 266.47 623.387 269.162 623.051 272.022C623.051 270.003 622.883 268.152 622.883 266.302C622.211 255.031 621.539 243.76 620.699 235.349C620.195 231.143 619.859 227.61 619.523 225.255C619.187 222.9 619.187 221.386 619.187 221.386C619.187 221.386 619.019 219.872 618.683 217.517C618.347 215.162 618.011 211.461 617.339 207.423C616.331 199.012 614.482 187.909 612.466 176.807C610.45 165.704 608.098 154.769 606.082 146.526C605.242 142.489 604.234 139.124 603.73 136.769L602.89 132.9C602.89 132.9 603.058 134.414 603.394 136.769C603.73 139.124 604.402 142.657 605.074 146.863C606.25 155.106 607.762 166.208 608.938 177.311C610.114 188.414 610.954 199.517 611.458 207.928C611.626 212.134 611.794 215.666 611.962 218.021C611.947 219.313 612.003 220.605 612.13 221.891V225.76C612.298 228.115 612.466 231.648 612.466 235.853C612.634 244.096 612.466 255.367 612.13 266.47V267.816C610.114 258.732 607.762 250.152 605.746 243.423L601.21 229.965L599.698 226.264C598.858 223.909 597.682 220.545 596.001 216.676C592.977 208.769 588.273 198.339 583.401 188.078C578.528 177.816 573.32 167.891 569.456 160.489L562.736 148.04L568.448 160.825C571.808 168.564 576.176 178.993 580.209 189.592C584.241 200.19 587.937 210.62 590.457 218.694L593.313 228.451Z" fill="url(#paint8_linear_4848_2525)"/>
<path d="M350.734 224.017C350.658 223.936 350.599 223.84 350.561 223.735C350.524 223.631 350.508 223.52 350.514 223.409C349.398 231.631 348.778 239.914 348.658 248.211C348.557 252.51 348.661 256.804 348.964 260.889L357.592 262.318C357.363 261.3 357.343 260.482 357.114 259.465C355.371 246.617 352.607 233.793 350.734 224.017Z" fill="url(#paint9_linear_4848_2525)"/>
<path d="M470.588 281.484C470.694 277.389 470.586 272.89 470.477 268.392C470.017 272.677 469.3 276.93 468.329 281.129L470.588 281.484Z" fill="url(#paint10_linear_4848_2525)"/>
<path d="M446.338 268.565L446.111 259.159C446.111 259.159 446.022 255.478 445.679 249.757C445.336 244.036 444.745 236.48 443.744 228.934C442.744 221.387 442.48 218.938 441.758 214.455L441.812 216.704C441.241 226.948 441.163 240.659 441.488 254.155C441.676 261.926 442.272 269.686 442.854 276.833L446.55 277.358C446.271 274.296 446.402 271.223 446.338 268.565Z" fill="url(#paint11_linear_4848_2525)"/>
<path d="M297.603 201.36C296.768 209.155 295.963 218.178 295.576 227.599C295.67 225.823 295.835 224.182 296.071 222.676C296.911 215.086 297.192 209.759 297.192 209.759C297.192 209.759 297.317 206.482 297.603 201.36Z" fill="url(#paint12_linear_4848_2525)"/>
<path d="M450.922 187.225L453.076 191.675C453.076 191.675 453.728 193.296 455.229 196.124C456.729 198.952 458.469 203.207 460.842 208.265L464.545 217.588C464.072 214.939 463.394 212.296 462.921 209.647C461.761 203.946 460.62 199.063 459.922 195.601L458.567 190.314C458.567 190.314 456.943 182.374 454.408 170.568C453.023 164.054 451.399 156.113 450.169 147.549C448.361 157.414 446.548 167.075 445.524 175.488C447.122 179.49 448.924 183.407 450.922 187.225Z" fill="url(#paint13_linear_4848_2525)"/>
<path d="M442.63 199.702C442.63 199.702 442.465 201.343 442.334 204.415C442.3 205.718 442.194 207.018 442.019 208.31C443.783 213.587 446.006 220.899 447.814 228.017C449.623 235.135 451.656 243.065 452.816 248.766C453.977 254.467 454.679 258.133 454.679 258.133C454.679 258.133 455.177 261.804 456.123 267.101C457.494 261.176 458.24 255.123 458.347 249.042C458.845 235.731 455.038 222.114 451.519 211.968C449.76 206.896 448.025 202.845 446.929 199.803L444.975 195.144C444.534 193.835 444.025 192.549 443.45 191.293C443.467 192.531 443.36 193.767 443.13 194.984L442.63 199.702Z" fill="url(#paint14_linear_4848_2525)"/>
<path d="M574.395 275.91C574.611 276.133 574.76 276.413 574.823 276.718C575.023 274.813 575.113 272.898 575.094 270.982L575.084 270.573C575.099 271.187 574.909 271.805 574.929 272.623L574.395 275.91Z" fill="url(#paint15_linear_4848_2525)"/>
<path d="M513.131 246.902C514.35 255.056 515.844 266.069 516.928 277.092C517.236 281.381 517.744 285.461 518.047 289.546L532.431 292.063L533.539 287.126C533.714 285.894 534.088 284.453 534.263 283.221C531.082 278.592 528.111 274.162 525.344 269.727C522.577 265.293 519.581 259.841 517.433 255.596L514.631 249.73L513.121 246.493L513.131 246.902Z" fill="url(#paint16_linear_4848_2525)"/>
<path d="M50.4444 252.543L51.9964 249.027C52.1417 246.568 52.0775 243.91 52.2228 241.451L51.6686 243.92C51.423 245.725 51.056 247.511 50.57 249.266C50.3837 250.662 50.0746 252.039 49.6462 253.381C49.4516 253.795 49.4664 254.408 49.2718 254.822L50.4444 252.543Z" fill="url(#paint17_linear_4848_2525)"/>
<path d="M108.713 216.763C110.634 211.601 112.376 207.467 113.733 204.365L117.606 195.269L122.432 183.285C120.798 174.936 118.726 165.369 116.239 155.608C115.424 164.221 114.185 172.231 113.116 178.804C111.358 190.714 109.914 198.728 109.914 198.728C109.914 198.728 109.55 200.579 109.02 204.07C108.49 207.561 107.586 212.493 106.498 218.249C106.153 220.917 105.808 223.585 105.259 226.258C106.407 222.957 107.555 219.655 108.713 216.763Z" fill="url(#paint18_linear_4848_2525)"/>
<path d="M-2.59582 284.514L-2.58595 284.923C-2.51251 286.837 -2.32983 288.746 -2.0388 290.639L-1.64955 289.811L-2.34198 286.554C-2.36172 285.736 -2.58101 285.128 -2.59582 284.514Z" fill="url(#paint19_linear_4848_2525)"/>
<path d="M128.127 224.274L128.073 222.025C127.568 226.538 127.073 231.461 126.787 236.583C126.502 241.705 125.925 251.745 125.859 257.475L126.313 276.288C126.392 279.56 126.481 283.241 126.784 287.326L130.246 286.628C130.467 278.848 130.669 270.249 130.666 261.656C130.136 248.165 129.192 234.479 128.127 224.274Z" fill="url(#paint20_linear_4848_2525)"/>
<path d="M118.203 220.012C114.973 230.321 111.828 244.105 112.966 257.377C113.367 263.446 114.404 269.456 116.059 275.308L117.273 266.276L118.682 256.83C119.566 251.08 120.815 243.479 122.473 235.869C124.131 228.258 125.804 221.261 127.311 215.905C127.067 214.274 127.038 213.047 126.808 212.029C126.579 211.012 126.286 207.336 126.286 207.336L125.559 202.648C125.33 201.63 125.3 200.403 125.061 198.977L123.723 202.897L122.201 207.639C121.05 210.804 119.717 214.929 118.203 220.012Z" fill="url(#paint21_linear_4848_2525)"/>
<path d="M44.5627 297.085C45.4568 291.744 46.9546 285.978 48.2429 280.014C48.4326 279.395 48.4227 278.986 48.6124 278.368C48.0128 279.292 47.4888 280.262 47.0455 281.27L38.9921 295.173L39.6994 299.044L41.6977 305.543L43.3336 305.503C43.6784 302.835 44.0183 299.963 44.5627 297.085Z" fill="url(#paint22_linear_4848_2525)"/>
<path d="M102.354 292.417L105.207 291.938C103.791 287.124 102.648 282.233 101.784 277.289C101.913 282.606 102.036 287.718 102.354 292.417Z" fill="url(#paint23_linear_4848_2525)"/>
<path d="M126.808 212.029C126.53 208.967 126.286 207.336 126.286 207.336L125.559 202.648C125.33 201.63 125.3 200.403 125.061 198.977L123.723 202.897L122.201 207.639C121.05 210.804 119.717 214.929 118.203 220.012C114.973 230.321 111.828 244.105 112.966 257.377C113.367 263.446 114.404 269.456 116.059 275.308L117.273 266.276L118.682 256.83C119.566 251.08 120.815 243.479 122.473 235.869C124.131 228.258 125.804 221.261 127.311 215.905C127.067 214.274 127.038 213.047 126.808 212.029Z" fill="url(#paint24_linear_4848_2525)"/>
<path d="M117.606 195.269L122.432 183.285C120.798 174.936 118.726 165.369 116.239 155.608C115.424 164.221 114.185 172.231 113.116 178.804C111.358 190.714 109.914 198.728 109.914 198.728C109.914 198.728 109.55 200.579 109.02 204.07C108.49 207.561 107.586 212.493 106.498 218.249C106.153 220.917 105.808 223.585 105.259 226.258C106.407 222.957 107.555 219.655 108.713 216.763C109.87 213.87 112.376 207.467 113.733 204.365L117.606 195.269Z" fill="url(#paint25_linear_4848_2525)"/>
<path d="M128.073 222.025C127.568 226.538 127.073 231.461 126.787 236.583C126.502 241.705 125.925 251.745 125.859 257.475L126.313 276.288C126.392 279.56 126.481 283.241 126.784 287.326C129.39 279.019 130.699 270.361 130.666 261.656C130.545 248.155 129.396 234.474 128.331 224.269L128.073 222.025Z" fill="url(#paint26_linear_4848_2525)"/>
<path d="M50.57 249.266C50.3837 250.662 50.0746 252.039 49.6462 253.381C49.4516 253.795 49.4664 254.408 49.2718 254.822L50.4444 252.543L51.9964 249.027C52.1417 246.568 52.0775 243.91 52.2228 241.451L51.6686 243.92C51.423 245.725 51.056 247.511 50.57 249.266Z" fill="url(#paint27_linear_4848_2525)"/>
<path d="M296.071 222.676C296.911 215.086 297.192 209.759 297.192 209.759C297.192 209.759 297.317 206.482 297.603 201.36C296.768 209.155 295.963 218.178 295.576 227.599C295.806 225.82 295.971 224.179 296.071 222.676Z" fill="url(#paint28_linear_4848_2525)"/>
<path d="M514.631 249.73L513.121 246.493L513.131 246.902C509.311 283.619 532.431 292.063 532.431 292.063C532.431 292.063 519.581 259.841 517.433 255.596L514.631 249.73Z" fill="url(#paint29_linear_4848_2525)"/>
<path d="M350.734 224.017C350.658 223.936 350.599 223.84 350.561 223.735C350.524 223.631 350.508 223.52 350.514 223.409C349.398 231.631 348.778 239.914 348.658 248.211C348.557 252.51 357.592 262.318 357.592 262.318C357.592 262.318 357.343 260.482 357.114 259.465C355.371 246.617 352.607 233.793 350.734 224.017Z" fill="url(#paint30_linear_4848_2525)"/>
<path d="M459.922 195.601L458.567 190.314C458.567 190.314 456.943 182.374 454.408 170.568C453.023 164.054 451.399 156.113 450.169 147.549C448.361 157.414 446.548 167.075 445.524 175.488C447.122 179.49 448.924 183.407 450.922 187.225L453.076 191.675C453.076 191.675 453.728 193.296 455.229 196.124C456.729 198.952 458.469 203.207 460.842 208.265L464.545 217.588C464.072 214.939 463.394 212.296 462.921 209.647C461.761 203.946 460.62 199.063 459.922 195.601Z" fill="url(#paint31_linear_4848_2525)"/>
<path d="M446.929 199.803L444.975 195.144C444.534 193.835 444.025 192.549 443.45 191.293C443.467 192.531 443.36 193.767 443.13 194.984L442.63 199.702C442.63 199.702 442.465 201.343 442.334 204.415C442.3 205.718 442.194 207.018 442.019 208.31C443.783 213.587 446.006 220.899 447.814 228.017C449.623 235.135 451.656 243.065 452.816 248.766C453.977 254.467 454.679 258.133 454.679 258.133C454.679 258.133 455.177 261.804 456.123 267.101C457.494 261.176 458.24 255.123 458.347 249.042C458.845 235.731 455.038 222.114 451.519 211.968C449.76 206.896 448.025 202.845 446.929 199.803Z" fill="url(#paint32_linear_4848_2525)"/>
<path d="M445.475 249.762C445.132 244.041 444.54 236.485 443.54 228.939C442.539 221.392 442.276 218.943 441.554 214.459C441.675 215.203 441.693 215.96 441.608 216.709C437.681 236.984 439.318 257.944 446.345 277.363C446.271 274.296 446.402 271.223 446.338 268.565L446.111 259.159C446.111 259.159 445.817 255.483 445.475 249.762Z" fill="url(#paint33_linear_4848_2525)"/>
<path d="M620.752 145.07C620.373 146.306 620.003 147.952 619.634 149.598C619.264 151.244 618.705 153.508 617.936 155.573C615.485 164.225 611.667 175.571 607.23 186.727C602.793 197.883 597.943 208.844 594.464 217.317C590.986 225.79 588.87 231.365 588.87 231.365C588.87 231.365 587.133 235.704 584.842 242.511C583.93 238.646 583.228 234.98 582.536 231.723C580.239 221.343 578.64 214.425 578.64 214.425L577.708 209.741C577.026 206.893 576.104 202.619 575.367 197.521C574.293 191.659 573.671 185.723 573.507 179.766C573.148 173.016 573.19 166.251 573.631 159.506C574.515 146.689 576.189 133.939 578.644 121.328C580.437 110.85 581.91 104.062 581.91 104.062C581.91 104.062 579.819 110.66 577.202 120.954C573.874 133.479 571.243 146.18 569.322 158.997C568.256 165.918 567.673 172.906 567.576 179.909C567.314 186.046 567.462 192.195 568.021 198.313C568.558 203.619 569.075 208.108 569.354 211.171L570.086 216.064L572.55 233.396C573.033 236.453 573.521 239.715 573.814 243.391C573.298 241.358 572.564 239.386 571.626 237.51C568.815 231.235 563.934 223.987 560.879 216.081C557.885 208.735 555.975 200.993 555.209 193.097C554.926 189.83 554.657 187.177 554.612 185.337C554.568 183.496 554.743 182.264 554.743 182.264L554.408 185.342C554.019 187.921 553.808 190.524 553.778 193.132C553.686 201.313 554.639 209.472 556.614 217.412C557.95 221.881 559.485 226.141 561.01 229.991L564.942 240.331C565.65 242.593 566.185 244.906 566.542 247.249L566.606 249.908C566.745 253.13 566.549 256.357 566.02 259.538L559.385 247.422C555.531 240.354 553.373 235.7 553.373 235.7L551.862 232.463L550.138 228.821L548.174 223.754C541.368 205.745 538.463 186.498 539.65 167.283C539.965 163.388 540.295 160.106 540.65 157.847C541.004 155.588 541.174 154.151 541.174 154.151L540.236 157.652C539.677 159.917 538.938 163.208 538.213 167.113C536.696 176.871 536.113 186.75 536.47 196.619C537.071 206.606 538.681 216.507 541.275 226.171C541.674 227.965 542.195 229.73 542.835 231.453C543.192 232.833 543.635 234.189 544.161 235.513L545.472 238.96C545.472 238.96 547.236 244.237 550.281 251.734C553.327 259.231 558.955 288.968 558.206 291.85L557.787 291.451L556.945 290.449C555.205 286.194 544.578 261.284 544.085 257.817C543.592 254.351 542.476 250.49 541.803 248.051L540.897 244.39C540.897 244.39 539.746 239.098 537.922 231.367C535.736 221.82 534.068 212.161 532.927 202.433C531.648 191.824 530.574 181.211 529.967 173.041C529.361 164.871 529.033 159.764 529.033 159.764C529.033 159.764 528.957 165.086 528.741 173.071C528.524 181.056 528.382 192.108 528.638 202.741C528.895 213.375 529.575 224.612 530.586 232.567C531.596 240.522 532.547 246.024 532.547 246.024L532.557 246.433C532.36 246.12 532.213 245.779 532.123 245.42L530.618 242.387L529.312 239.145C528.65 238 528.139 236.775 527.792 235.499C527.056 233.935 526.469 232.305 526.037 230.631C522.909 221.841 520.568 212.791 519.042 203.587C517.699 194.251 517.13 184.821 517.339 175.392C517.379 171.435 517.51 168.363 517.73 166.175C517.937 164.956 518.044 163.721 518.05 162.484C518.05 162.484 517.88 163.921 517.521 165.976C517.161 168.03 516.427 171.526 515.907 175.426C514.713 184.866 514.326 194.39 514.753 203.895C515.365 213.575 516.76 223.189 518.925 232.644L520.28 237.931C520.724 239.352 520.963 240.779 521.401 241.996C521.84 243.213 521.63 243.014 521.845 243.418L520.563 241.198C520.027 239.932 519.381 238.715 518.634 237.561L516.905 233.716L514.961 229.466C514.308 227.845 513.44 225.82 512.777 223.789C508.87 213.362 506.804 202.335 506.671 191.2C506.465 179.999 508.061 168.838 511.398 158.144C512.501 154.544 513.852 151.025 515.44 147.611L517.192 143.886L515.027 147.417C513.859 149.9 511.898 153.426 510.161 157.764C505.725 168.364 503.092 179.631 502.372 191.099C502.173 192.73 502.076 194.373 502.081 196.016C501.628 194.186 500.97 192.36 500.517 190.53C497.397 179.965 493.874 169.615 491.228 161.7C488.581 153.784 486.622 148.92 486.622 148.92C486.622 148.92 487.978 154.207 489.806 162.143C491.634 170.079 494.145 180.862 496.242 191.451C498.339 202.04 500.032 212.844 501.048 221.003L502.396 234.475C502.396 234.475 502.729 239.787 503.13 247.961C503.532 256.136 503.998 266.969 503.851 277.817C503.918 279.386 503.888 280.959 503.76 282.525C503.069 280.495 502.2 278.531 501.163 276.654C499.204 271.791 497.041 266.932 494.873 261.869C494.865 253.071 494.458 244.692 494.096 238.154C493.733 231.615 493.27 229.375 493.001 226.722C492.733 224.069 492.693 222.433 492.693 222.433C492.693 222.433 491.932 216.313 490.887 206.926C489.842 197.539 488.119 185.509 486.796 173.06C485.472 160.611 484.977 148.551 484.954 139.14C485.104 136.885 485.05 134.636 485.21 132.791C485.188 131.146 485.285 129.503 485.501 127.873C485.641 125.21 485.606 123.778 485.606 123.778L485.092 127.883C484.725 129.504 484.492 131.152 484.392 132.81C484.232 134.656 483.872 136.71 483.727 139.169C482.71 150.539 482.302 161.955 482.506 173.368C482.603 185.847 483.313 198.311 483.535 207.513L484.009 227.144C484.053 228.984 484.107 231.233 483.962 233.692L481.087 224.759C479.537 219.886 478.625 216.02 477.738 213.177C477.251 211.786 476.874 210.358 476.612 208.907L475.481 204.433C474.594 201.59 473.882 197.515 472.746 192.837C470.344 180.929 468.822 168.862 468.192 156.731C467.369 144.558 467.898 132.33 469.767 120.273C470.117 117.809 470.267 115.555 470.627 113.5C471.142 111.821 471.511 110.101 471.73 108.358C472.139 106.873 472.444 105.362 472.644 103.835L471.526 108.363C470.947 109.809 470.577 111.455 470.008 113.31C469.302 115.536 468.741 117.805 468.331 120.103C465.608 132.171 464.055 144.474 463.693 156.84C463.456 164.001 463.629 171.17 464.211 178.311C463.329 175.672 462.432 172.42 461.53 168.964C458.174 157.314 455.43 145.497 453.31 133.56C455.542 124.299 457.788 115.651 459.87 108.644L463.673 96.6855L464.996 92.1522L463.264 96.6954C462.102 99.3833 460.355 103.313 458.633 108.265C456.911 113.217 454.401 119.416 452.309 126.014C451.284 118.431 450.758 110.788 450.734 103.136C450.774 96.3432 451.294 89.5616 452.291 82.8422C453.042 78.1177 454.091 73.4453 455.431 68.8531L457.143 63.4921L455.017 68.6586C453.41 73.2421 452.088 77.9206 451.059 82.6674C449.41 89.3314 448.41 96.1392 448.071 102.996C447.438 110.894 447.425 118.83 448.03 126.731C448.11 130.012 448.394 133.286 448.88 136.532C447.922 139.215 447.163 141.688 446.409 144.366C444.527 151.164 442.65 158.166 440.968 164.754C437.691 155.904 434.878 146.888 432.541 137.745C429.251 124.908 427.019 111.823 425.868 98.6209C425.325 93.1096 425.012 88.6157 424.934 85.3439L424.815 80.4362C424.816 82.0797 424.719 83.7218 424.525 85.3538C424.399 88.6306 424.303 93.1342 424.436 98.6554C424.719 112.069 426 125.443 428.266 138.666C430.582 151.646 433.9 164.426 438.192 176.893C437.822 178.539 437.652 179.975 437.278 181.416C436.174 186.558 435.46 190.872 434.92 193.954L434.011 198.682C434.011 198.682 433.846 200.323 433.307 203.405C432.768 206.487 432.253 210.592 431.563 215.928C430.874 221.265 429.859 230.087 429.238 238.287L428.561 235.643L425.128 220.585C425.128 220.585 423.753 214.48 421.9 205.522C420.047 196.564 418.115 184.334 417.001 172.084C415.791 160.884 415.382 149.612 415.778 138.354C415.923 135.895 416.078 133.845 416.034 132.005C415.989 130.164 416.359 128.518 416.529 127.082C416.699 125.646 417.039 122.773 417.039 122.773L416.12 127.092C415.945 128.324 415.575 129.97 415.211 131.82C414.846 133.67 414.696 135.924 414.341 138.184C412.989 149.537 412.377 160.965 412.507 172.397C412.808 184.871 413.723 197.33 414.763 206.512C415.803 215.695 416.569 222.019 416.569 222.019C416.569 222.019 417.331 228.139 418.785 237.516C420.239 246.893 421.961 258.923 423.893 271.153C423.913 271.971 424.137 272.784 424.157 273.602C424.177 274.42 413.569 250.327 412.35 242.172C411.842 238.093 411.15 234.836 410.886 232.387L409.481 225.055C409.018 222.815 408.525 219.349 407.613 215.483C405.985 207.338 403.484 196.963 400.773 186.389C398.063 175.815 394.953 165.66 392.312 157.948C391.195 154.088 389.889 150.846 389.222 148.611L387.911 145.164C388.298 146.362 388.601 147.585 388.818 148.825C389.281 151.065 390.178 154.317 391.09 158.183C392.713 166.123 394.81 176.712 396.499 187.311C398.187 197.91 399.67 208.514 400.476 216.474C400.847 220.557 401.131 223.824 401.326 226.274C401.585 228.519 401.615 229.746 401.615 229.746C401.615 229.746 401.649 231.177 401.908 233.422C402.167 235.666 402.251 239.142 402.349 243.232C402.732 250.589 402.963 260.2 402.996 270.02L401.36 270.06C401.355 269.855 382.463 190.719 382.463 190.719L382.257 233.078C381.866 232.092 381.567 231.071 381.365 230.03L380.244 225.965L379.811 224.952C379.796 224.339 379.362 223.326 379.123 221.9C378.884 220.473 378.645 219.047 378.192 217.216C377.738 215.386 377.479 213.141 377.016 210.902C375.527 199.522 374.908 188.046 375.165 176.572C375.477 164.084 376.812 151.57 378.017 142.129C378.721 137.406 379.241 133.506 379.585 130.838C379.93 128.17 380.3 126.524 380.3 126.524L379.172 130.644C378.622 133.317 377.694 137.227 376.58 141.959C374.055 153.352 372.148 164.873 370.866 176.472C369.483 188.157 369.151 199.943 369.874 211.688C370.138 214.137 370.192 216.386 370.441 218.222C370.69 220.057 370.944 222.097 370.973 223.324C371.204 224.469 371.368 225.627 371.466 226.79L371.491 227.813C371.491 227.813 371.715 228.626 371.949 229.848C370.867 227.419 369.99 224.985 369.118 222.755L362.598 206.953C362.598 206.953 360.206 201.077 356.308 192.168C357.976 184.967 360.003 175.711 361.422 166.674C363.043 157.068 363.426 147.295 362.561 137.592C362.512 135.547 362.059 133.716 362.019 132.08C361.98 130.445 361.337 129.232 361.103 128.01L360.405 124.549C360.405 124.549 360.435 125.776 360.694 128.02C360.985 129.431 361.156 130.865 361.206 132.305C361.352 134.073 361.395 135.848 361.334 137.621C361.138 147.142 359.716 156.598 357.103 165.755C355.81 171.515 353.898 177.086 352.385 182.237C351.968 181.12 351.463 180.038 350.875 179C350.079 171.449 349.463 162.87 349.255 154.282C349.144 141.189 349.641 127.878 350.018 118.048C350.395 108.217 350.845 101.454 350.845 101.454C350.845 101.454 349.981 108.023 348.786 117.873C347.591 127.723 345.862 140.859 344.956 154.181L344.545 162.58L342.567 156.898C340.573 150.604 338.375 144.314 336.796 138.214C335.216 132.114 335.216 132.114 334.738 129.261C334.26 126.408 333.583 123.764 333.114 121.32L332.412 117.654C332.183 116.637 332.153 115.41 331.924 114.392C331.695 113.375 331.631 110.716 331.392 109.29C331.153 107.863 330.869 104.596 330.869 104.596L331.111 114.616C331.313 115.693 331.408 116.788 331.395 117.883C331.424 119.11 331.653 120.128 331.688 121.559C331.723 122.99 332.425 126.656 332.703 129.719C332.982 132.781 333.664 135.629 334.147 138.687C335.118 145.006 336.912 151.51 338.506 158.224C340.101 164.937 342.543 172.858 344.541 179.357C346.539 185.857 344.943 187.532 345.231 191.003C345.519 194.475 346.007 197.737 346.276 200.39C345.793 202.138 345.22 203.859 344.559 205.547C344.559 205.547 343.046 210.698 340.985 218.523C340.046 222.024 339.122 226.139 338.204 230.458C338.164 228.822 337.925 227.395 337.895 226.168L337.52 210.627C337.348 203.47 336.906 193.66 336.056 183.859C335.259 174.946 333.883 166.094 331.938 157.359C331.485 155.529 331.241 153.898 330.797 152.476C330.354 151.055 329.915 149.838 329.686 148.82L328.794 145.773L329.282 149.035C329.581 150.119 329.815 151.341 329.984 152.701C330.278 154.318 330.455 155.955 330.512 157.598C331.572 166.344 331.99 175.156 331.762 183.963C331.585 193.583 330.794 203.219 330.358 210.595C329.923 217.972 325.134 256.963 325.134 256.963C324.622 252.679 323.905 248.399 323.183 243.915C321.241 231.276 319.708 218.628 318.658 209.036C318.131 204.139 317.832 200.258 317.559 197.4C317.285 194.542 317.251 193.111 317.251 193.111C317.063 191.62 316.958 190.12 316.938 188.617C316.669 185.964 316.366 181.879 316.048 177.181C315.611 167.575 315.301 154.692 315.608 141.999C315.916 129.306 317.241 116.383 318.645 106.733C318.994 104.269 319.354 102.214 319.714 100.16C320.073 98.1049 320.243 96.6685 320.413 95.2321C320.583 93.7958 321.127 90.9182 321.127 90.9182C321.127 90.9182 320.753 92.3594 320.209 95.2371C319.683 96.791 319.243 98.3728 318.891 99.975C318.253 102.134 317.759 104.333 317.413 106.558C315.186 116.024 313.038 128.761 311.304 141.693C309.57 154.625 309.063 167.528 308.886 177.149C308.595 182.066 308.694 186.156 308.559 189.024C308.423 191.892 308.458 193.323 308.458 193.323L308.566 197.822C308.635 200.685 308.53 204.779 308.648 209.687C308.88 219.298 309.4 232.38 310.325 245.248C310.404 248.52 310.682 251.583 310.961 254.645C311.239 257.707 306.104 231.437 306.116 223.457C306.128 215.477 305.795 210.165 305.795 210.165L305.706 206.484C305.447 204.24 305.364 200.764 304.861 196.888C304.358 193.013 303.244 180.763 301.595 171.8C301.921 168.314 302.625 163.591 303.504 157.636C305.707 143.504 307.14 129.262 307.795 114.974C308.449 100.666 307.347 86.3311 304.514 72.2906C302.949 66.804 301.813 62.1254 300.507 58.8831L298.748 53.8104L300.098 58.893C301.423 63.4298 302.424 68.0553 303.092 72.7342C305.046 86.6359 305.18 100.733 303.49 114.669C301.976 128.21 299.434 141.571 297.236 152.263C296.105 147.789 294.979 143.52 293.873 140.068C292.767 136.616 291.66 133.165 290.788 130.935L289.687 127.688C289.687 127.688 289.921 128.91 290.589 131.144C291.256 133.379 291.744 136.641 292.447 140.307C293.149 143.973 294.588 152.736 295.579 159.874L292.268 175.299C292.268 175.299 290.61 182.91 288.228 194.425C287.144 200.385 285.886 207.577 284.846 215.377C285.228 205.751 285.624 196.739 286.055 189.158C286.486 181.577 286.392 177.692 286.508 174.006L286.069 155.806C286.009 153.353 285.94 150.49 285.657 147.223C285.373 143.956 284.513 133.746 283.712 125.991C282.911 118.235 281.482 109.88 280.058 101.73C277.204 85.2261 273.742 68.9411 270.792 56.9404L265.8 36.6001L269.366 57.1795C271.502 69.4044 274.147 85.7091 275.773 102.243C276.789 110.403 277.4 118.777 277.787 126.338C278.174 133.899 278.352 141.261 278.3 147.605C278.374 150.672 278.234 153.336 278.298 155.994C278.362 158.652 278.002 160.707 278.042 162.343C278.081 163.979 277.771 168.079 277.771 168.079C277.771 168.079 277.616 170.128 277.291 173.615C276.966 177.101 276.481 182.432 275.811 188.587C274.471 200.895 272.207 217.319 270.976 234.126C270.545 241.707 270.11 249.083 270.287 256.445C270.287 256.445 263.452 244.538 262.681 238.009C260.939 224.87 260.277 211.61 260.701 198.363C260.637 195.705 260.782 193.246 260.932 190.992C261.083 188.737 261.243 186.892 261.203 185.256L261.698 180.334C261.698 180.334 262.339 172.952 263.508 162.08C264.678 151.207 266.777 136.425 268.058 121.662C269.36 108.122 269.374 94.4878 268.098 80.9445C267.696 76.4258 267.041 71.9333 266.136 67.4878C265.449 64.4353 265.2 62.5998 265.2 62.5998C265.2 62.5998 265.449 64.4352 265.732 67.7021C266.016 70.969 266.533 75.4579 266.871 80.9741C266.98 94.4316 265.936 107.874 263.748 121.153C261.436 135.531 258.305 149.929 256.317 160.821C254.329 171.713 253.075 179.109 253.075 179.109C253.075 179.109 252.711 180.96 252.381 184.241C252.051 187.523 251.856 187.937 251.501 190.196C251.08 192.709 250.799 195.243 250.661 197.787C249.185 211.521 248.834 225.352 249.613 239.143C249.996 246.5 250.577 253.647 251.154 260.59C251.154 260.59 243.678 239.082 243.685 230.897C243.592 227.012 243.712 223.531 243.653 221.077L243.564 217.396L243.884 213.705C243.825 211.251 243.951 207.975 244.261 203.875C244.677 195.681 245.642 184.813 246.817 174.145C247.992 163.477 250.184 152.58 252.037 144.556C252.756 140.446 253.7 137.15 254.054 134.891L254.988 131.185L253.845 134.691L250.595 144.181C248.125 152.016 245.105 162.524 242.703 173.222C241.959 176.309 241.215 179.396 240.671 182.273C241.015 179.605 241.555 176.523 241.88 173.037C242.205 169.551 242.826 161.351 242.862 154.394C242.899 147.436 242.118 140.498 241.331 133.356C239.555 119.077 237.379 105.216 237.327 94.5774C237.061 90.2774 237.162 85.9626 237.629 81.6798C237.964 78.6026 238.124 76.7572 238.124 76.7572L237.215 81.4853C236.528 85.764 236.086 90.0784 235.89 94.4075C235.334 105.265 236.293 119.565 236.838 133.669C237.792 146.479 237.071 159.359 234.693 171.983C233.59 177.124 232.671 181.443 231.927 184.53C231.183 187.618 230.813 189.263 230.813 189.263L229.7 193.996C228.951 196.879 228.037 201.402 226.729 206.549C225.421 211.696 224.143 218.069 223.079 224.847C222.015 231.625 221.374 239.006 220.934 246.178C220.493 253.35 219.075 279.369 221.046 293.235C221.046 293.235 214.568 253.697 216.902 231.748C217.888 221.699 221.03 199.321 222.87 182.294C224.553 175.706 226.42 168.295 227.878 160.894C229.336 153.493 230.625 147.528 231.29 141.169C231.625 138.092 232.164 135.01 232.299 132.142C232.435 129.274 232.775 126.401 232.92 123.943C233.065 121.484 233.065 121.484 233.24 120.252L233.033 111.663C232.976 110.094 233.006 108.522 233.124 106.955L232.624 111.673C232.658 113.105 232.493 114.746 232.338 116.795C232.183 118.845 232.188 119.05 232.008 120.077C231.933 121.321 231.758 122.557 231.484 123.773C231.134 126.236 230.789 128.905 230.449 131.777C229.905 134.655 229.156 137.538 228.621 140.824C228.087 144.111 225.446 153.382 223.759 159.765L222.057 165.536L221.241 157.166C219.898 143.899 217.537 130.861 215.869 121.08C214.2 111.3 212.815 104.785 212.815 104.785C212.815 104.785 213.382 111.319 214.442 121.319C215.502 131.32 216.636 144.387 216.951 157.474C217.159 166.063 216.957 174.661 216.526 182.242C216.095 189.823 213.262 191.119 211.924 195.039L206.165 210.728L200.415 226.826L198.134 234.043L198.06 230.975C198.245 230.152 198.215 228.925 198.385 227.489C198.555 226.053 198.72 224.412 198.875 222.362C199.003 220.181 199.018 217.996 198.922 215.813C199.18 204.044 198.279 192.279 196.232 180.686C194.392 169.163 191.931 157.747 188.86 146.49C187.519 141.816 186.403 137.955 185.725 135.312L184.4 131.252C184.793 132.657 185.101 134.084 185.321 135.526C185.999 138.17 186.706 142.04 187.433 146.729C189.705 158.036 191.212 169.484 191.943 180.994C192.856 192.438 192.792 203.94 191.75 215.373C191.395 217.632 191.245 219.886 190.88 221.737C190.516 223.587 190.351 225.228 190.176 226.46C190.078 227.5 189.898 228.53 189.636 229.542L189.252 230.574C189.067 231.97 188.758 233.347 188.328 234.688C188.274 235.755 188.022 236.802 187.584 237.776L185.336 195.476L180.098 258.212C179.917 258.735 179.652 259.225 179.314 259.663C176.775 264.635 173.631 270.031 170.488 275.427L169.315 277.706C168.859 267.282 168.602 256.648 168.619 248.873C168.52 244.783 168.646 241.506 168.791 239.047L168.702 235.367C168.828 234.211 168.869 233.047 168.823 231.885C168.968 229.427 169.094 226.15 169.404 222.05C169.621 214.065 170.591 203.402 171.766 192.734C172.94 182.066 174.524 171.389 175.763 163.379C176.487 159.474 177.226 156.182 177.581 153.923C177.936 151.664 178.31 150.223 178.31 150.223L177.167 153.729C176.608 155.993 175.664 159.289 174.531 163.204C172.265 171.034 169.858 181.527 167.452 192.02C165.045 202.513 163.257 213.196 162.023 221.41C161.298 225.315 160.973 228.801 160.619 231.06L160.094 234.756C160.094 234.756 159.924 236.192 159.774 238.447C159.624 240.701 158.89 244.197 158.579 248.297C157.754 256.501 148.157 282.718 148.157 282.718C148.157 282.718 151.127 253.182 152.132 243.951C153.137 234.719 153.393 228.37 153.393 228.37C153.393 228.37 154.062 222.216 154.449 212.795C155.233 201.418 155.436 190.008 155.056 178.611C154.635 167.185 153.472 155.799 151.574 144.525C151.11 142.286 150.647 140.046 150.398 138.211C150.149 136.375 149.496 134.754 149.262 133.532C149.028 132.31 148.341 129.258 148.341 129.258C148.341 129.258 148.585 130.888 148.853 133.542C149.122 136.195 149.336 136.599 149.585 138.435C149.834 140.27 149.883 142.315 150.147 144.764C151.06 155.989 151.264 167.259 150.757 178.51C150.031 190.804 148.481 202.913 147.272 212.149C146.063 221.386 144.774 227.351 144.774 227.351C144.774 227.351 143.895 233.305 142.072 242.557L141.523 245.23C140.508 237.07 139.298 229.324 138.122 223.01C136.947 216.695 136.254 213.438 135.776 210.585C135.298 207.732 134.845 205.902 134.845 205.902L133.709 201.223C133.021 198.171 132.1 193.896 130.749 188.814C130.448 187.304 130.07 185.811 129.618 184.34C133.304 171.681 136.002 158.755 137.688 145.679C139.417 132.37 140.051 118.942 139.584 105.53C139.451 100.009 139.138 95.5147 138.854 92.2479C138.571 88.981 138.327 87.3499 138.327 87.3499L138.445 92.2577C138.524 95.5295 138.428 100.033 138.152 105.564C137.639 118.806 136.041 131.984 133.374 144.964C131.577 154.232 129.2 163.378 126.26 172.349C124.262 165.85 122.049 158.946 119.841 152.247L117.2 144.536L117.576 134.706C117.631 126.784 117.167 118.867 116.186 111.005C115.478 104.193 114.221 97.449 112.426 90.8396C111.116 86.1406 109.501 81.5319 107.591 77.0429C106.081 73.8057 105.423 71.9801 105.423 71.9801L107.187 77.2573C108.748 81.7794 110.021 86.3957 110.999 91.0786C112.319 97.742 113.166 104.491 113.533 111.274C113.846 118.914 113.757 126.565 113.267 134.196C110.656 127.712 108.263 121.836 105.89 116.778C103.518 111.72 101.997 108.074 100.706 105.445L98.7574 100.991L100.297 105.455C101.389 108.293 103.123 112.343 104.673 117.216C106.223 122.09 109.752 132.644 112.428 141.787C110.985 153.827 108.813 165.768 105.925 177.545L103.902 187.006C103.939 180.049 103.766 172.892 103.18 165.54C102.222 153.206 100.077 140.992 96.7751 129.07C96.1024 126.631 95.6391 124.391 94.9763 122.361C94.3135 120.331 93.6655 118.914 93.222 117.493L91.682 113.029L92.813 117.503C93.2565 118.924 93.7099 120.755 94.1633 122.585C94.6167 124.416 95.0849 126.86 95.5531 129.304C97.7989 141.286 98.9146 153.453 98.8854 165.644C98.6791 177.793 97.673 189.915 95.8736 201.932C94.9646 206.66 94.4498 210.764 93.9055 213.642C93.4967 215.127 93.1914 216.638 92.9916 218.165L91.8683 222.489C91.2558 225.368 90.3271 229.278 89.0823 234.219L86.6411 243.281C86.3773 240.832 86.3231 238.582 86.2786 236.742L85.8049 217.111C85.7873 207.904 85.6908 195.425 85.1853 182.957C84.9412 171.541 83.983 160.152 82.3162 148.856C82.1326 146.731 81.8082 144.62 81.3453 142.537C81.1629 140.632 80.919 139.001 80.6134 137.644L79.6967 133.574C79.6967 133.574 79.9358 135 80.2044 137.654C80.473 140.307 80.4829 140.716 80.5273 142.557C80.8296 144.655 81.0172 146.768 81.0893 148.886C81.5942 160.205 81.5264 171.543 80.886 182.856C80.1646 195.354 79.2338 207.653 78.6379 216.875C78.042 226.097 77.5815 232.45 77.5815 232.45C77.5815 232.45 77.4165 234.091 77.2762 236.755C77.1359 239.418 69.9905 290.947 69.2219 293.011C69.1824 291.376 68.9385 289.745 68.9039 288.313C68.4379 277.48 68.1763 266.642 68.1834 258.458C68.1905 250.273 68.4712 244.947 68.4712 244.947C68.4712 244.947 68.5474 239.625 69.1679 231.426C69.7885 223.227 70.7588 212.564 72.3376 201.681C73.9165 190.799 75.9093 180.111 77.3527 172.097C78.7962 164.082 79.8948 158.736 79.8948 158.736L76.1159 171.717C73.8545 179.752 70.8344 190.26 68.2281 200.962C67.6591 202.817 67.2945 204.668 66.7255 206.523C66.686 204.887 66.442 203.256 66.4025 201.62C64.9711 190.209 61.7332 179.098 56.8101 168.705C55.2302 165.232 53.4406 161.859 51.4511 158.604L49.1178 155.182C49.8959 156.352 50.6083 157.564 51.2516 158.813C52.3332 161.243 54.058 164.884 55.593 169.144C59.5396 179.637 61.6752 190.724 61.9087 201.933C62.2214 207.961 61.8871 214.006 60.9116 219.963C60.2191 216.706 59.7411 213.853 59.2828 211.818C58.8244 209.783 58.3513 207.134 58.3513 207.134L57.2203 202.66C56.7373 199.602 55.4117 195.542 54.2708 190.659C53.1299 185.776 51.1563 180.299 49.1728 174.414L49.158 173.8C47.1744 167.914 44.9716 161.42 42.5693 155.135C37.7596 142.361 32.5509 130.006 28.6431 120.688L22.1284 105.091L27.426 121.127C30.5208 130.669 34.717 143.458 38.5091 156.461C42.3013 169.464 45.066 182.288 47.1433 192.059C47.8801 197.156 48.7968 201.226 49.0704 204.084L49.7924 208.568C49.7924 208.568 50.0314 209.995 50.2902 212.239C50.549 214.484 50.1252 213.88 50.1449 214.698C49.0255 223.94 47.194 233.083 44.6666 242.043C44.0976 243.898 43.5236 245.549 43.1491 246.99L41.8066 250.705L40.4541 254.012L39.3012 257.109C39.0576 257.398 38.9218 257.763 38.9169 258.141L38.907 257.732C38.907 257.732 39.3922 252.401 40.0127 244.201C40.6333 236.002 40.9852 225.149 40.7237 214.311C40.4621 203.474 39.592 192.855 39.1901 184.68C38.7883 176.506 38.0514 171.408 38.0514 171.408C38.0514 171.408 37.9752 176.73 37.7587 184.715C37.5422 192.7 37.1903 203.553 36.22 214.216C35.2497 224.879 34.0748 235.546 32.8309 243.352C31.5871 251.157 30.284 256.508 30.284 256.508L29.5548 260.208C29.2051 262.672 28.4661 265.964 27.9513 270.068C27.4365 274.173 26.9119 277.868 26.407 282.382C25.9021 286.896 23.6725 287.768 22.1007 290.466C20.529 293.164 18.2133 298.948 16.4765 303.287L15.6832 304.329L15.2841 304.748C14.3971 301.905 18.5794 271.727 21.2646 264.296C23.9497 256.865 25.6569 251.3 25.6569 251.3L26.5954 247.799C27.0571 246.451 27.4339 245.075 27.7237 243.68C28.2977 242.029 28.6622 240.178 29.2313 238.323C31.3814 228.556 32.4445 218.58 32.401 208.579C32.2819 198.705 31.2223 188.865 29.2365 179.192C28.3248 175.326 27.4279 172.074 26.7601 169.839L25.6538 166.388C25.6538 166.388 25.8928 167.814 26.3561 170.054C26.8194 172.293 27.3073 175.555 27.81 179.431C30.1961 198.564 28.2165 217.988 22.0199 236.247L20.3029 241.403C19.8646 242.674 19.3479 243.917 18.7558 245.124L17.4033 248.43C17.4033 248.43 15.472 253.183 11.9639 260.428C10.2074 263.949 8.26612 268.293 5.92083 272.851C5.23874 269.699 4.88688 266.484 4.87094 263.26C4.87094 263.26 4.8512 262.442 5.01128 260.596C5.04936 258.214 5.47618 255.854 6.2749 253.609C7.01883 250.522 8.16188 247.016 9.49953 243.096C11.1291 238.955 12.3951 234.68 13.2833 230.319C14.9752 222.308 15.5347 214.098 14.9455 205.931C14.662 202.664 14.3934 200.011 14.1445 198.175L13.457 195.123C13.6401 196.133 13.7333 197.158 13.7355 198.185C13.7799 200.025 13.8441 202.684 13.7185 205.96C13.157 213.881 11.557 221.693 8.95947 229.196C6.28909 237.24 1.76351 244.715 -0.741863 251.118C-1.49663 253.071 -2.13172 255.068 -2.64363 257.098C-2.52797 253.412 -2.19796 250.131 -1.86301 247.053L-0.237587 229.623C-0.237587 229.623 -0.0775073 227.777 0.257446 224.7C0.5924 221.623 0.892809 217.114 0.96899 211.793C1.20497 205.656 1.12498 199.512 0.729336 193.384C0.122949 186.402 -0.864254 179.459 -2.22788 172.585C-4.7646 159.876 -8.00492 147.317 -11.9338 134.967C-15.0434 124.811 -17.2462 118.317 -17.2462 118.317L-13.1509 135.405C-10.1569 147.958 -7.93655 160.682 -6.5024 173.507C-5.67169 180.217 -5.23544 186.97 -5.1959 193.731C-5.24247 200.28 -5.71282 206.225 -6.19798 211.556C-6.68313 216.888 -7.60688 221.002 -7.94677 223.875L-8.85571 228.603C-8.85571 228.603 -10.1193 235.59 -11.9125 246.068C-12.447 249.355 -12.9717 253.051 -13.4914 256.951C-16.3126 250.267 -18.2566 246.017 -18.2566 246.017C-18.2566 246.017 -20.6392 240.55 -24.5224 232.255C-28.4055 223.959 -33.5748 213.24 -38.5445 202.311C-43.2513 192.354 -47.3915 182.139 -50.9455 171.715L-52.929 165.829C-53.3775 164.203 -53.8259 162.577 -54.06 161.355C-54.5536 160.036 -54.9288 158.675 -55.1812 157.29C-55.1812 157.29 -54.9372 158.921 -54.469 161.365C-54.2405 162.941 -53.9296 164.504 -53.5375 166.048C-53.2886 167.884 -52.8303 169.919 -52.367 172.158C-50.11 180.902 -46.7613 192.484 -42.5948 204.046C-38.4282 215.608 -34.2764 226.556 -31.2063 235.076C-28.1362 243.595 -26.3621 249.281 -26.3621 249.281C-26.3621 249.281 -24.184 254.753 -21.7274 263.288C-19.0173 272.774 -16.9388 282.43 -15.5054 292.192C-15.3179 299.962 -14.9308 307.523 -14.359 314.262C-14.4278 318.173 -14.7436 322.076 -15.3046 325.947C-15.7932 329.272 -16.4651 332.567 -17.3171 335.817C-17.6332 336.828 -17.8817 337.86 -18.0611 338.904L593.36 324.149C588.908 299.109 588.913 273.481 593.374 248.443C594.127 243.59 595.384 238.828 597.123 234.235C597.123 234.235 598.621 228.47 601.277 219.812C603.932 211.155 607.751 199.809 611.359 188.264C614.968 176.719 617.749 164.784 619.378 155.947L620.457 149.783L620.956 145.065C621.306 142.601 621.676 140.955 621.676 140.955L620.752 145.07ZM51.9964 249.027L50.4444 252.543L49.2718 254.822C49.4664 254.408 49.4516 253.795 49.6462 253.381C50.0746 252.039 50.3837 250.662 50.57 249.266C51.056 247.511 51.423 245.725 51.6686 243.92L52.2228 241.451C52.0775 243.91 52.1417 246.568 51.9964 249.027ZM105.259 226.258C105.808 223.585 106.153 220.917 106.498 218.249C107.586 212.493 108.286 207.566 109.02 204.07C109.754 200.574 109.914 198.728 109.914 198.728C109.914 198.728 111.358 190.714 113.116 178.804C114.185 172.231 115.424 164.221 116.239 155.608C118.726 165.369 120.798 174.936 122.432 183.285L117.606 195.269L113.733 204.365C112.376 207.467 110.634 211.601 108.713 216.763C106.791 221.924 106.407 222.957 105.259 226.258ZM118.682 256.83L117.273 266.276L116.059 275.308C114.404 269.456 113.367 263.446 112.966 257.377C111.828 244.105 114.973 230.321 118.203 220.012C119.717 214.929 121.05 210.804 122.201 207.639L123.723 202.897L125.061 198.977C125.3 200.403 125.33 201.63 125.559 202.648L126.286 207.336C126.286 207.336 126.53 208.967 126.808 212.029C127.087 215.092 127.067 214.274 127.311 215.905C125.804 221.261 124.141 228.667 122.473 235.869C120.805 243.07 119.566 251.08 118.682 256.83ZM130.461 261.661C130.495 270.366 129.185 279.024 126.58 287.331C126.276 283.246 126.188 279.565 126.109 276.293L125.655 257.48C125.721 251.749 126.152 244.169 126.583 236.588C127.014 229.007 127.363 226.543 127.868 222.03L127.922 224.279C129.192 234.479 130.34 248.16 130.461 261.661ZM297.192 209.759C297.192 209.759 296.911 215.086 296.071 222.676C295.831 224.046 295.666 225.687 295.576 227.599C295.963 218.178 296.768 209.155 297.603 201.36C297.317 206.482 297.192 209.759 297.192 209.759ZM348.658 248.211C348.778 239.914 349.398 231.631 350.514 223.409C350.508 223.52 350.524 223.631 350.561 223.735C350.599 223.84 350.658 223.936 350.734 224.017C352.607 233.793 355.371 246.617 357.114 259.465C357.343 260.482 357.363 261.3 357.592 262.318C357.821 263.335 348.557 252.51 348.658 248.211ZM446.345 277.363C439.318 257.944 437.681 236.984 441.608 216.709C441.693 215.96 441.675 215.203 441.554 214.459C442.276 218.943 443.008 223.836 443.54 228.939C444.072 234.041 445.132 244.041 445.475 249.762C445.817 255.483 445.906 259.164 445.906 259.164L446.133 268.57C446.402 271.223 446.271 274.296 446.345 277.363ZM458.347 249.042C458.24 255.123 457.494 261.176 456.123 267.101C455.177 261.804 454.679 258.133 454.679 258.133C454.679 258.133 453.773 254.472 452.816 248.766C451.86 243.06 449.837 235.539 447.814 228.017C445.791 220.495 443.783 213.587 442.019 208.31C442.194 207.018 442.3 205.718 442.334 204.415C442.465 201.343 442.63 199.702 442.63 199.702L443.13 194.984C443.36 193.767 443.467 192.531 443.45 191.293C444.025 192.549 444.534 193.835 444.975 195.144L446.929 199.803C448.025 202.845 449.76 206.896 451.519 211.968C455.038 222.114 458.845 235.731 458.347 249.042ZM460.842 208.265C458.469 203.207 456.53 199.162 455.229 196.124C453.928 193.086 453.076 191.675 453.076 191.675L450.922 187.225C448.924 183.407 447.122 179.49 445.524 175.488C446.548 167.075 448.361 157.414 450.169 147.549C451.399 156.113 453.023 164.054 454.408 170.568C456.943 182.374 458.567 190.314 458.567 190.314L459.922 195.601C460.62 199.063 461.761 203.946 462.921 209.647C463.394 212.296 464.072 214.939 464.545 217.588L460.842 208.265ZM532.431 292.063C532.431 292.063 509.311 283.619 513.131 246.902L513.121 246.493L514.631 249.73L517.433 255.596C519.581 259.841 532.8 290.418 532.431 292.063Z" fill="url(#paint34_linear_4848_2525)"/>
<path d="M706.236 243.6C289.236 243.6 -0.26416 312.497 -0.26416 312.497V370.359H1439.74V312.497C1439.74 312.497 1123.24 243.6 706.236 243.6Z" fill="#F3B73C"/>
<path d="M1439.74 1818.42H-0.26416V1923.6H1439.74V1818.42Z" fill="#F3B73C"/>
</g>
<defs>
<linearGradient id="paint0_linear_4848_2525" x1="1223.1" y1="531.042" x2="1220.51" y2="-394.885" gradientUnits="userSpaceOnUse">
<stop stop-color="#3C7520"/>
<stop offset="0.572917" stop-color="#6ABF41"/>
<stop offset="1" stop-color="#6ABF41"/>
</linearGradient>
<linearGradient id="paint1_linear_4848_2525" x1="1238.42" y1="392.489" x2="1252.07" y2="-72.2331" gradientUnits="userSpaceOnUse">
<stop stop-color="#3C7520"/>
<stop offset="0.64644" stop-color="#6ABF41"/>
<stop offset="1" stop-color="#6ABF41"/>
</linearGradient>
<linearGradient id="paint2_linear_4848_2525" x1="1238.42" y1="392.489" x2="1252.07" y2="-72.2331" gradientUnits="userSpaceOnUse">
<stop stop-color="#3C7520"/>
<stop offset="0.64644" stop-color="#6ABF41"/>
<stop offset="1" stop-color="#6ABF41"/>
</linearGradient>
<linearGradient id="paint3_linear_4848_2525" x1="1238.42" y1="392.489" x2="1252.07" y2="-72.2331" gradientUnits="userSpaceOnUse">
<stop stop-color="#3C7520"/>
<stop offset="0.64644" stop-color="#6ABF41"/>
<stop offset="1" stop-color="#6ABF41"/>
</linearGradient>
<linearGradient id="paint4_linear_4848_2525" x1="1238.42" y1="392.489" x2="1252.07" y2="-72.2331" gradientUnits="userSpaceOnUse">
<stop stop-color="#3C7520"/>
<stop offset="0.64644" stop-color="#6ABF41"/>
<stop offset="1" stop-color="#6ABF41"/>
</linearGradient>
<linearGradient id="paint5_linear_4848_2525" x1="1238.42" y1="392.489" x2="1252.07" y2="-72.2331" gradientUnits="userSpaceOnUse">
<stop stop-color="#3C7520"/>
<stop offset="0.64644" stop-color="#6ABF41"/>
<stop offset="1" stop-color="#6ABF41"/>
</linearGradient>
<linearGradient id="paint6_linear_4848_2525" x1="1238.42" y1="392.489" x2="1252.07" y2="-72.2331" gradientUnits="userSpaceOnUse">
<stop stop-color="#3C7520"/>
<stop offset="0.64644" stop-color="#6ABF41"/>
<stop offset="1" stop-color="#6ABF41"/>
</linearGradient>
<linearGradient id="paint7_linear_4848_2525" x1="1238.42" y1="392.489" x2="1252.07" y2="-72.2331" gradientUnits="userSpaceOnUse">
<stop stop-color="#3C7520"/>
<stop offset="0.64644" stop-color="#6ABF41"/>
<stop offset="1" stop-color="#6ABF41"/>
</linearGradient>
<linearGradient id="paint8_linear_4848_2525" x1="463.891" y1="539.39" x2="460.853" y2="-488.311" gradientUnits="userSpaceOnUse">
<stop stop-color="#3C7520"/>
<stop offset="0.572917" stop-color="#6ABF41"/>
<stop offset="1" stop-color="#6ABF41"/>
</linearGradient>
<linearGradient id="paint9_linear_4848_2525" x1="292.279" y1="480.983" x2="275.648" y2="-208.144" gradientUnits="userSpaceOnUse">
<stop stop-color="#3C7520"/>
<stop offset="0.595377" stop-color="#6ABF41"/>
<stop offset="1" stop-color="#6ABF41"/>
</linearGradient>
<linearGradient id="paint10_linear_4848_2525" x1="292.279" y1="480.983" x2="275.648" y2="-208.144" gradientUnits="userSpaceOnUse">
<stop stop-color="#3C7520"/>
<stop offset="0.595377" stop-color="#6ABF41"/>
<stop offset="1" stop-color="#6ABF41"/>
</linearGradient>
<linearGradient id="paint11_linear_4848_2525" x1="292.279" y1="480.983" x2="275.648" y2="-208.144" gradientUnits="userSpaceOnUse">
<stop stop-color="#3C7520"/>
<stop offset="0.595377" stop-color="#6ABF41"/>
<stop offset="1" stop-color="#6ABF41"/>
</linearGradient>
<linearGradient id="paint12_linear_4848_2525" x1="292.279" y1="480.983" x2="275.648" y2="-208.144" gradientUnits="userSpaceOnUse">
<stop stop-color="#3C7520"/>
<stop offset="0.595377" stop-color="#6ABF41"/>
<stop offset="1" stop-color="#6ABF41"/>
</linearGradient>
<linearGradient id="paint13_linear_4848_2525" x1="292.279" y1="480.983" x2="275.648" y2="-208.144" gradientUnits="userSpaceOnUse">
<stop stop-color="#3C7520"/>
<stop offset="0.595377" stop-color="#6ABF41"/>
<stop offset="1" stop-color="#6ABF41"/>
</linearGradient>
<linearGradient id="paint14_linear_4848_2525" x1="292.279" y1="480.983" x2="275.648" y2="-208.144" gradientUnits="userSpaceOnUse">
<stop stop-color="#3C7520"/>
<stop offset="0.595377" stop-color="#6ABF41"/>
<stop offset="1" stop-color="#6ABF41"/>
</linearGradient>
<linearGradient id="paint15_linear_4848_2525" x1="292.279" y1="480.983" x2="275.648" y2="-208.144" gradientUnits="userSpaceOnUse">
<stop stop-color="#3C7520"/>
<stop offset="0.595377" stop-color="#6ABF41"/>
<stop offset="1" stop-color="#6ABF41"/>
</linearGradient>
<linearGradient id="paint16_linear_4848_2525" x1="292.279" y1="480.983" x2="275.648" y2="-208.144" gradientUnits="userSpaceOnUse">
<stop stop-color="#3C7520"/>
<stop offset="0.595377" stop-color="#6ABF41"/>
<stop offset="1" stop-color="#6ABF41"/>
</linearGradient>
<linearGradient id="paint17_linear_4848_2525" x1="292.279" y1="480.983" x2="275.648" y2="-208.144" gradientUnits="userSpaceOnUse">
<stop stop-color="#3C7520"/>
<stop offset="0.595377" stop-color="#6ABF41"/>
<stop offset="1" stop-color="#6ABF41"/>
</linearGradient>
<linearGradient id="paint18_linear_4848_2525" x1="292.279" y1="480.983" x2="275.648" y2="-208.144" gradientUnits="userSpaceOnUse">
<stop stop-color="#3C7520"/>
<stop offset="0.595377" stop-color="#6ABF41"/>
<stop offset="1" stop-color="#6ABF41"/>
</linearGradient>
<linearGradient id="paint19_linear_4848_2525" x1="292.279" y1="480.983" x2="275.648" y2="-208.144" gradientUnits="userSpaceOnUse">
<stop stop-color="#3C7520"/>
<stop offset="0.595377" stop-color="#6ABF41"/>
<stop offset="1" stop-color="#6ABF41"/>
</linearGradient>
<linearGradient id="paint20_linear_4848_2525" x1="292.279" y1="480.983" x2="275.648" y2="-208.144" gradientUnits="userSpaceOnUse">
<stop stop-color="#3C7520"/>
<stop offset="0.595377" stop-color="#6ABF41"/>
<stop offset="1" stop-color="#6ABF41"/>
</linearGradient>
<linearGradient id="paint21_linear_4848_2525" x1="292.279" y1="480.983" x2="275.648" y2="-208.144" gradientUnits="userSpaceOnUse">
<stop stop-color="#3C7520"/>
<stop offset="0.595377" stop-color="#6ABF41"/>
<stop offset="1" stop-color="#6ABF41"/>
</linearGradient>
<linearGradient id="paint22_linear_4848_2525" x1="292.279" y1="480.983" x2="275.648" y2="-208.144" gradientUnits="userSpaceOnUse">
<stop stop-color="#3C7520"/>
<stop offset="0.595377" stop-color="#6ABF41"/>
<stop offset="1" stop-color="#6ABF41"/>
</linearGradient>
<linearGradient id="paint23_linear_4848_2525" x1="292.279" y1="480.983" x2="275.648" y2="-208.144" gradientUnits="userSpaceOnUse">
<stop stop-color="#3C7520"/>
<stop offset="0.595377" stop-color="#6ABF41"/>
<stop offset="1" stop-color="#6ABF41"/>
</linearGradient>
<linearGradient id="paint24_linear_4848_2525" x1="292.279" y1="480.983" x2="275.648" y2="-208.144" gradientUnits="userSpaceOnUse">
<stop stop-color="#3C7520"/>
<stop offset="0.595377" stop-color="#6ABF41"/>
<stop offset="1" stop-color="#6ABF41"/>
</linearGradient>
<linearGradient id="paint25_linear_4848_2525" x1="292.279" y1="480.983" x2="275.648" y2="-208.144" gradientUnits="userSpaceOnUse">
<stop stop-color="#3C7520"/>
<stop offset="0.595377" stop-color="#6ABF41"/>
<stop offset="1" stop-color="#6ABF41"/>
</linearGradient>
<linearGradient id="paint26_linear_4848_2525" x1="292.279" y1="480.983" x2="275.648" y2="-208.144" gradientUnits="userSpaceOnUse">
<stop stop-color="#3C7520"/>
<stop offset="0.595377" stop-color="#6ABF41"/>
<stop offset="1" stop-color="#6ABF41"/>
</linearGradient>
<linearGradient id="paint27_linear_4848_2525" x1="292.279" y1="480.983" x2="275.648" y2="-208.144" gradientUnits="userSpaceOnUse">
<stop stop-color="#3C7520"/>
<stop offset="0.595377" stop-color="#6ABF41"/>
<stop offset="1" stop-color="#6ABF41"/>
</linearGradient>
<linearGradient id="paint28_linear_4848_2525" x1="292.279" y1="480.983" x2="275.648" y2="-208.144" gradientUnits="userSpaceOnUse">
<stop stop-color="#3C7520"/>
<stop offset="0.595377" stop-color="#6ABF41"/>
<stop offset="1" stop-color="#6ABF41"/>
</linearGradient>
<linearGradient id="paint29_linear_4848_2525" x1="292.279" y1="480.983" x2="275.648" y2="-208.144" gradientUnits="userSpaceOnUse">
<stop stop-color="#3C7520"/>
<stop offset="0.595377" stop-color="#6ABF41"/>
<stop offset="1" stop-color="#6ABF41"/>
</linearGradient>
<linearGradient id="paint30_linear_4848_2525" x1="292.279" y1="480.983" x2="275.648" y2="-208.144" gradientUnits="userSpaceOnUse">
<stop stop-color="#3C7520"/>
<stop offset="0.595377" stop-color="#6ABF41"/>
<stop offset="1" stop-color="#6ABF41"/>
</linearGradient>
<linearGradient id="paint31_linear_4848_2525" x1="292.279" y1="480.983" x2="275.648" y2="-208.144" gradientUnits="userSpaceOnUse">
<stop stop-color="#3C7520"/>
<stop offset="0.595377" stop-color="#6ABF41"/>
<stop offset="1" stop-color="#6ABF41"/>
</linearGradient>
<linearGradient id="paint32_linear_4848_2525" x1="292.279" y1="480.983" x2="275.648" y2="-208.144" gradientUnits="userSpaceOnUse">
<stop stop-color="#3C7520"/>
<stop offset="0.595377" stop-color="#6ABF41"/>
<stop offset="1" stop-color="#6ABF41"/>
</linearGradient>
<linearGradient id="paint33_linear_4848_2525" x1="292.279" y1="480.983" x2="275.648" y2="-208.144" gradientUnits="userSpaceOnUse">
<stop stop-color="#3C7520"/>
<stop offset="0.595377" stop-color="#6ABF41"/>
<stop offset="1" stop-color="#6ABF41"/>
</linearGradient>
<linearGradient id="paint34_linear_4848_2525" x1="292.279" y1="480.983" x2="275.648" y2="-208.144" gradientUnits="userSpaceOnUse">
<stop stop-color="#3C7520"/>
<stop offset="0.595377" stop-color="#6ABF41"/>
<stop offset="1" stop-color="#6ABF41"/>
</linearGradient>
<clipPath id="clip0_4848_2525">
<rect width="1440" height="370" fill="white"/>
</clipPath>
</defs>
</svg>
