<svg width="1440" height="309" viewBox="0 0 1440 309" fill="none" xmlns="http://www.w3.org/2000/svg">
<g clip-path="url(#clip0_4730_961)">
<path d="M1503.46 149.192C1483.59 159.805 1467.92 178.512 1456.17 197.218C1463.72 172.087 1474.08 141.926 1486.67 114.287C1487.79 111.778 1484.71 109.542 1482.76 111.495C1458.68 133.834 1441.62 161.473 1429.29 186.604C1437.4 156.999 1449.73 120.427 1466.79 91.1075C1468.19 88.8714 1465.11 86.3627 1463.15 88.0314C1438.53 107.578 1420.62 134.661 1407.74 160.078C1408.86 142.483 1411.94 121.54 1418.65 100.041C1419.5 97.5327 1416.41 95.5692 1414.46 97.5327C1394.59 117.352 1384.51 147.795 1379.2 172.642C1376.68 162.313 1376.4 146.398 1380.88 122.664C1385.63 103.674 1391.52 83.5708 1398.23 64.3089C1399.07 61.8002 1395.99 59.8367 1394.03 61.8002C1362.96 95.8532 1345.88 139.976 1336.93 170.965C1336.93 142.486 1338.89 108.977 1346.17 79.6574C1346.73 77.1486 1343.37 75.4689 1341.69 77.7049C1324.05 102.553 1314.25 132.997 1309.21 160.636C1299.97 146.958 1288.51 133.552 1273.94 121.542C1271.99 119.863 1268.9 122.099 1270.03 124.335C1283.47 153.099 1291.86 182.134 1296.9 205.029C1284.86 184.086 1267.51 161.191 1244.84 149.181C1242.6 148.069 1240.08 150.578 1241.48 152.814C1265.56 188.559 1276.19 226.538 1280.11 242.737L1255.76 252.794C1251 254.735 1252.4 262 1257.72 262H1490.58C1495.89 262 1497.29 254.735 1492.53 252.783L1468.19 242.726C1472.1 226.528 1482.74 188.559 1506.53 153.085C1508.21 150.86 1505.7 148.067 1503.46 149.191L1503.46 149.192Z" fill="#3C7520"/>
<path d="M1253.29 137.009C1237.97 145.193 1225.9 159.619 1216.84 174.044C1222.67 154.664 1230.64 131.406 1240.35 110.092C1241.21 108.157 1238.84 106.433 1237.33 107.939C1218.78 125.165 1205.63 146.479 1196.13 165.859C1202.38 143.029 1211.88 114.827 1225.03 92.2172C1226.11 90.4929 1223.73 88.5583 1222.22 89.8451C1203.25 104.918 1189.45 125.804 1179.52 145.403C1180.38 131.835 1182.76 115.685 1187.93 99.1066C1188.58 97.172 1186.2 95.6578 1184.7 97.172C1169.39 112.456 1161.62 135.932 1157.52 155.092C1155.58 147.127 1155.36 134.854 1158.82 116.552C1162.48 101.908 1167.02 86.4053 1172.19 71.5517C1172.84 69.617 1170.46 68.1029 1168.96 69.617C1145.01 95.8769 1131.85 129.902 1124.95 153.799C1124.95 131.837 1126.46 105.997 1132.07 83.3876C1132.5 81.4529 1129.91 80.1576 1128.61 81.8819C1115.02 101.043 1107.47 124.52 1103.59 145.834C1096.47 135.286 1087.63 124.948 1076.41 115.687C1074.9 114.392 1072.52 116.116 1073.39 117.84C1083.74 140.022 1090.22 162.412 1094.1 180.067C1084.82 163.917 1071.45 146.262 1053.98 137.001C1052.25 136.143 1050.31 138.077 1051.39 139.802C1069.94 167.366 1078.14 196.654 1081.16 209.145L1062.39 216.901C1058.73 218.398 1059.81 224 1063.9 224H1243.36C1247.46 224 1248.53 218.398 1244.87 216.892L1226.11 209.137C1229.12 196.646 1237.32 167.367 1255.65 140.011C1256.95 138.295 1255.01 136.141 1253.29 137.008L1253.29 137.009Z" fill="#3C7520"/>
<path d="M145.463 149.192C125.587 159.805 109.921 178.512 98.1683 197.218C105.723 172.087 116.076 141.926 128.67 114.287C129.785 111.778 126.713 109.542 124.756 111.495C100.682 133.834 83.6161 161.473 71.2928 186.604C79.4049 156.999 91.7265 120.427 108.792 91.1075C110.191 88.8714 107.108 86.3627 105.151 88.0314C80.5298 107.578 62.6226 134.661 49.7424 160.078C50.8575 142.483 53.9406 121.54 60.6534 100.041C61.4952 97.5327 58.4121 95.5692 56.4551 97.5327C36.5898 117.352 26.5104 147.795 21.1954 172.642C18.6808 162.313 18.3966 146.398 22.8791 122.664C27.6349 103.674 33.5169 83.5708 40.2296 64.3089C41.0714 61.8002 37.9883 59.8367 36.0313 61.8002C4.95872 95.8532 -12.117 139.976 -21.0704 170.965C-21.0704 142.486 -19.1134 108.977 -11.832 79.6574C-11.2744 77.1486 -14.6309 75.4689 -16.3146 77.7049C-33.9495 102.553 -43.7454 132.997 -48.7867 160.636C-58.0251 146.958 -69.4936 133.552 -84.0576 121.542C-86.0146 119.863 -89.0977 122.099 -87.9714 124.335C-74.5348 153.099 -66.1383 182.134 -61.0982 205.029C-73.1354 184.086 -90.4859 161.191 -113.162 149.181C-115.403 148.069 -117.918 150.578 -116.518 152.814C-92.444 188.559 -81.8073 226.538 -77.8917 242.737L-102.239 252.794C-106.995 254.735 -105.596 262 -100.282 262H132.578C137.891 262 139.29 254.735 134.535 252.783L110.187 242.726C114.101 226.528 124.739 188.559 148.528 153.085C150.212 150.86 147.697 148.067 145.456 149.191L145.463 149.192Z" fill="#3C7520"/>
<path d="M411.463 154.192C391.587 164.805 375.921 183.512 364.168 202.218C371.723 177.087 382.076 146.926 394.67 119.287C395.785 116.778 392.713 114.542 390.756 116.495C366.682 138.834 349.616 166.473 337.293 191.604C345.405 161.999 357.727 125.427 374.792 96.1075C376.191 93.8714 373.108 91.3627 371.151 93.0314C346.53 112.578 328.623 139.661 315.742 165.078C316.858 147.483 319.941 126.54 326.653 105.041C327.495 102.533 324.412 100.569 322.455 102.533C302.59 122.352 292.51 152.795 287.195 177.642C284.681 167.313 284.397 151.398 288.879 127.664C293.635 108.674 299.517 88.5708 306.23 69.3089C307.071 66.8002 303.988 64.8367 302.031 66.8002C270.959 100.853 253.883 144.976 244.93 175.965C244.93 147.486 246.887 113.977 254.168 84.6574C254.726 82.1486 251.369 80.4689 249.685 82.7049C232.05 107.553 222.255 137.997 217.213 165.636C207.975 151.958 196.506 138.552 181.942 126.542C179.985 124.863 176.902 127.099 178.029 129.335C191.465 158.099 199.862 187.134 204.902 210.029C192.865 189.086 175.514 166.191 152.838 154.181C150.597 153.069 148.082 155.578 149.482 157.814C173.556 193.559 184.193 231.538 188.108 247.737L163.761 257.794C159.005 259.735 160.404 267 165.718 267H398.578C403.891 267 405.29 259.735 400.535 257.783L376.187 247.726C380.101 231.528 390.739 193.559 414.528 158.085C416.212 155.86 413.697 153.067 411.456 154.191L411.463 154.192Z" fill="#3C7520"/>
<path d="M628.463 125.192C608.587 135.805 592.921 154.512 581.168 173.218C588.723 148.087 599.076 117.926 611.67 90.2871C612.785 87.7783 609.713 85.5422 607.756 87.4947C583.682 109.834 566.616 137.473 554.293 162.604C562.405 132.999 574.727 96.4275 591.792 67.1075C593.191 64.8714 590.108 62.3627 588.151 64.0314C563.53 83.5781 545.623 110.661 532.742 136.078C533.858 118.483 536.941 97.54 543.653 76.0415C544.495 73.5327 541.412 71.5692 539.455 73.5327C519.59 93.3521 509.51 123.795 504.195 148.642C501.681 138.313 501.397 122.398 505.879 98.6641C510.635 79.6737 516.517 59.5708 523.23 40.3089C524.071 37.8002 520.988 35.8367 519.031 37.8002C487.959 71.8532 470.883 115.976 461.93 146.965C461.93 118.486 463.887 84.9774 471.168 55.6574C471.726 53.1486 468.369 51.4689 466.685 53.7049C449.05 78.5526 439.255 108.997 434.213 136.636C424.975 122.958 413.506 109.552 398.942 97.5425C396.985 95.8627 393.902 98.0988 395.029 100.335C408.465 129.099 416.862 158.134 421.902 181.029C409.865 160.086 392.514 137.191 369.838 125.181C367.597 124.069 365.082 126.578 366.482 128.814C390.556 164.559 401.193 202.538 405.108 218.737L380.761 228.794C376.005 230.735 377.404 238 382.718 238H615.578C620.891 238 622.29 230.735 617.535 228.783L593.187 218.726C597.101 202.528 607.739 164.559 631.528 129.085C633.212 126.86 630.697 124.067 628.456 125.191L628.463 125.192Z" fill="#3C7520"/>
<path d="M850.463 88.1918C830.587 98.8051 814.921 117.512 803.168 136.218C810.723 111.087 821.076 80.926 833.67 53.2871C834.785 50.7783 831.713 48.5422 829.756 50.4947C805.682 72.8337 788.616 100.473 776.293 125.604C784.405 95.9993 796.727 59.4275 813.792 30.1075C815.191 27.8714 812.108 25.3627 810.151 27.0314C785.53 46.5781 767.623 73.6614 754.742 99.0776C755.858 81.4834 758.941 60.54 765.653 39.0415C766.495 36.5327 763.412 34.5692 761.455 36.5327C741.59 56.3521 731.51 86.7955 726.195 111.642C723.681 101.313 723.397 85.3982 727.879 61.6641C732.635 42.6737 738.517 22.5708 745.23 3.30895C746.071 0.80016 742.988 -1.16333 741.031 0.80016C709.959 34.8532 692.883 78.9756 683.93 109.965C683.93 81.4859 685.887 47.9774 693.168 18.6574C693.726 16.1486 690.369 14.4689 688.685 16.7049C671.05 41.5526 661.255 71.9968 656.213 99.6358C646.975 85.9576 635.506 72.5519 620.942 60.5425C618.985 58.8627 615.902 61.0988 617.029 63.3349C630.465 92.0992 638.862 121.134 643.902 144.029C631.865 123.086 614.514 100.191 591.838 88.1815C589.597 87.0689 587.082 89.5776 588.482 91.8138C612.556 127.559 623.193 165.538 627.108 181.737L602.761 191.794C598.005 193.735 599.404 201 604.718 201H837.578C842.891 201 844.29 193.735 839.535 191.783L815.187 181.726C819.101 165.528 829.739 127.559 853.528 92.0849C855.212 89.8597 852.697 87.0673 850.456 88.191L850.463 88.1918Z" fill="#3C7520"/>
<path d="M1086.46 111.192C1066.59 121.805 1050.92 140.512 1039.17 159.218C1046.72 134.087 1057.08 103.926 1069.67 76.2871C1070.79 73.7783 1067.71 71.5422 1065.76 73.4947C1041.68 95.8337 1024.62 123.473 1012.29 148.604C1020.4 118.999 1032.73 82.4275 1049.79 53.1075C1051.19 50.8714 1048.11 48.3627 1046.15 50.0314C1021.53 69.5781 1003.62 96.6614 990.742 122.078C991.858 104.483 994.941 83.54 1001.65 62.0415C1002.5 59.5327 999.412 57.5692 997.455 59.5327C977.59 79.3521 967.51 109.795 962.195 134.642C959.681 124.313 959.397 108.398 963.879 84.6641C968.635 65.6737 974.517 45.5708 981.23 26.3089C982.071 23.8002 978.988 21.8367 977.031 23.8002C945.959 57.8532 928.883 101.976 919.93 132.965C919.93 104.486 921.887 70.9774 929.168 41.6574C929.726 39.1486 926.369 37.4689 924.685 39.7049C907.05 64.5526 897.255 94.9968 892.213 122.636C882.975 108.958 871.506 95.5519 856.942 83.5425C854.985 81.8627 851.902 84.0988 853.029 86.3349C866.465 115.099 874.862 144.134 879.902 167.029C867.865 146.086 850.514 123.191 827.838 111.181C825.597 110.069 823.082 112.578 824.482 114.814C848.556 150.559 859.193 188.538 863.108 204.737L838.761 214.794C834.005 216.735 835.404 224 840.718 224H1073.58C1078.89 224 1080.29 216.735 1075.53 214.783L1051.19 204.726C1055.1 188.528 1065.74 150.559 1089.53 115.085C1091.21 112.86 1088.7 110.067 1086.46 111.191L1086.46 111.192Z" fill="#3C7520"/>
<path fill-rule="evenodd" clip-rule="evenodd" d="M706.578 148.5C289.578 148.5 0.078125 237 0.078125 237V318.785H1440.08V237C1440.08 237 1123.58 148.5 706.578 148.5Z" fill="#F0B130"/>
<path d="M263.241 254.081L262.219 253.868C262.17 253.877 262.119 253.88 262.066 253.875C262.008 253.87 261.956 253.857 261.911 253.841C261.886 253.832 261.864 253.822 261.845 253.812L261.812 253.803C261.716 253.776 261.604 253.756 261.426 253.725C261.299 253.703 261.139 253.674 260.927 253.634C260.83 253.617 260.724 253.599 260.611 253.579C259.866 253.45 258.81 253.268 257.624 253.11L257.624 253.11L257.615 253.109C254.77 252.674 250.663 252.212 245.863 251.882C236.255 251.222 223.815 251.027 212.477 253.212C199.385 255.736 187.45 259.65 178.785 262.935C174.454 264.577 170.987 266.052 168.61 267.136L168.601 267.141L168.591 267.144C167.591 267.554 166.82 267.918 166.209 268.206C166.068 268.273 165.935 268.336 165.81 268.394C165.778 268.409 165.747 268.424 165.716 268.439C165.672 268.46 165.629 268.48 165.587 268.501L165.57 268.509C165.505 268.541 165.441 268.572 165.38 268.601C165.342 268.618 165.302 268.636 165.26 268.654L165.285 268.78L164.794 268.875L164.768 268.88L163.838 269.314L163.257 269.584L163.135 268.955L162.937 267.924C159.116 251.363 157.691 233.722 157.241 220.225L157.241 220.225C157.025 213.515 157.079 207.744 157.121 203.78L157.121 203.78L157.121 203.77C157.135 203.356 157.147 202.958 157.159 202.577C157.205 201.139 157.242 199.94 157.289 199.073C157.283 198.808 157.3 198.561 157.313 198.364L157.316 198.312C157.332 198.074 157.334 197.965 157.323 197.912C157.29 197.737 157.31 197.596 157.327 197.509C157.328 197.502 157.33 197.495 157.331 197.487L157.326 197.462L157.309 197.375C157.292 197.287 157.297 197.204 157.3 197.166C157.302 197.127 157.308 197.07 157.31 197.045C157.317 196.97 157.315 196.939 157.312 196.926L157.301 196.865L157.304 196.804C157.311 196.669 157.311 196.492 157.31 196.264C157.31 196.215 157.31 196.164 157.31 196.111C157.31 195.818 157.312 195.471 157.332 195.095C157.344 194.801 157.355 194.487 157.367 194.153C157.417 192.742 157.481 190.965 157.649 188.817L157.649 188.815C158.08 183.592 158.974 176.559 160.91 169.32C164.703 154.984 172.813 139.238 189.872 135.95C201.298 133.747 212.148 138.241 221.261 145.719C230.476 153.267 238.109 163.906 243.31 174.548C244.03 175.945 244.645 177.271 245.256 178.587C245.478 179.043 245.698 179.495 245.917 179.943C249.781 187.878 253.069 194.631 255.736 203.602C259.148 214.768 261.615 228.98 263.727 252.486C263.727 252.488 263.727 252.489 263.727 252.491L263.84 253.538L263.914 254.222L263.241 254.081Z" fill="#F2709C" stroke="#EDE8E3" stroke-miterlimit="10"/>
<path d="M185.345 165.982C188.423 160.159 191.025 149.748 184.55 148.152C179.299 146.871 172.86 154.535 169.141 162.133C166.495 167.414 164.995 176.786 169.143 178.83C174.684 181.615 181.99 172.225 185.345 165.982Z" fill="#2D2D31"/>
<path d="M168.221 178.38C168.221 178.38 166.762 176.453 166.633 174.401C166.238 168.094 168.529 162 171.529 157.227C174.528 152.455 178.995 149.132 181.233 147.971C183.471 146.81 185.341 148 185.341 148C185.341 148 177.696 154.705 174.396 159.775C168.764 168.428 168.221 178.38 168.221 178.38Z" fill="#C9547C"/>
<path d="M159.503 203.038C91.5032 216.146 50.5857 273.294 52.3703 279.77C56.5649 294.574 155.366 301.565 219.165 288.038C281.3 274.864 364.866 247.041 364.865 215.76C347.144 180.863 220.867 191.208 159.503 203.038Z" fill="#F2709C"/>
<path opacity="0.5" d="M282.859 271.786C367.587 240.027 309.916 231.197 291.482 230.847C219.185 229.547 134.258 245.382 103.967 273.695C90.8041 285.946 132.468 290.811 162.282 291.79C194.296 292.842 215.558 290.51 282.859 271.786Z" fill="#C9557C"/>
<path d="M70.5782 276.761L70.5804 276.759C73.6801 273.655 73.614 269.939 73.551 266.405C73.548 266.239 73.5451 266.073 73.5424 265.908C73.4837 262.201 73.5757 258.664 76.982 255.606C80.9927 253.273 84.35 253.247 87.6622 253.22C87.7787 253.219 87.8951 253.218 88.0115 253.217C91.4681 253.187 94.8969 253.066 98.7242 250.073L98.7261 250.072C100.177 248.927 100.851 247.511 101.179 245.992C101.439 244.793 101.485 243.499 101.532 242.23C101.543 241.924 101.554 241.619 101.568 241.318C101.641 239.738 101.792 238.202 102.386 236.769C102.974 235.351 104.007 234.004 105.897 232.833C110.618 229.92 114.518 230.762 118.721 232.022C119.078 232.129 119.437 232.239 119.798 232.35C123.697 233.545 127.933 234.843 133.128 233.382L133.132 233.381C135.112 232.808 136.192 231.738 136.893 230.396C137.236 229.741 137.484 229.028 137.708 228.303C137.796 228.018 137.879 227.737 137.962 227.454C138.096 226.999 138.23 226.541 138.388 226.065C138.888 224.556 139.572 223.026 140.95 221.617C142.33 220.207 144.44 218.884 147.844 217.858L147.846 217.857C153.077 216.252 156.911 218.129 161.112 220.316C161.221 220.373 161.331 220.43 161.441 220.488C165.537 222.622 169.993 224.945 176.23 224.098L176.232 224.098C181.677 223.33 183.725 218.917 185.61 214.618C185.661 214.502 185.711 214.387 185.762 214.271C187.631 210.001 189.432 205.89 193.98 204.439C197.013 203.495 199.605 204.007 202.018 205.282C204.458 206.571 206.696 208.629 209 210.775L209.17 210.933C211.4 213.009 213.695 215.147 216.234 216.586C218.858 218.073 221.767 218.83 225.166 218.036M70.5782 276.761L314.905 219.277C311.961 219.563 309.681 218.574 307.766 216.972C305.873 215.387 304.319 213.188 302.811 211.041L302.761 210.969C301.252 208.822 299.783 206.732 298.023 205.196C296.262 203.66 294.231 202.7 291.601 202.83C286.951 203.096 284.435 206.222 281.786 209.677C281.72 209.763 281.653 209.85 281.587 209.937C279.035 213.269 276.306 216.832 271.336 217.564C265.116 218.486 261.055 214.342 257.237 210.446L257.113 210.319C253.181 206.308 249.479 202.611 243.815 203.618C238.928 204.518 236.605 207.454 234.342 210.553C234.241 210.691 234.14 210.83 234.039 210.969C231.885 213.93 229.656 216.993 225.166 218.036M70.5782 276.761C66.9071 280.391 62.4445 281.708 58.8181 281.813C57.0068 281.866 55.3867 281.617 54.1624 281.19C53.5511 280.977 53.0226 280.714 52.6161 280.41C52.216 280.109 51.8911 279.736 51.7714 279.29C51.6351 278.794 51.632 278.104 51.7379 277.284C51.8457 276.448 52.0729 275.43 52.4343 274.257C53.1572 271.908 54.4254 268.908 56.3866 265.446C60.3099 258.519 67.0174 249.722 77.7209 240.572C99.131 222.27 136.521 202.561 199.594 193.55C231.434 189.002 268.338 185.663 299.501 187.779C315.082 188.838 329.254 191.261 340.65 195.595C352.042 199.927 360.714 206.19 365.203 214.961C365.795 216.08 365.627 217.348 364.948 218.506C364.272 219.66 363.073 220.746 361.498 221.596C358.34 223.301 353.579 224.112 348.081 222.589C345.409 221.849 343.556 220.712 342.15 219.405C340.752 218.105 339.811 216.649 338.958 215.32L338.933 215.28C338.079 213.95 337.324 212.772 336.278 211.875C335.243 210.989 333.902 210.363 331.852 210.229L331.851 210.229M70.5782 276.761L331.851 210.229M225.166 218.036C225.166 218.036 225.166 218.036 225.166 218.036L225.053 217.549L225.167 218.036C225.167 218.036 225.166 218.036 225.166 218.036ZM331.851 210.229C327.97 209.974 325.916 211.885 323.731 214.105M331.851 210.229L323.731 214.105M323.731 214.105C323.638 214.2 323.544 214.296 323.45 214.392M323.731 214.105L323.45 214.392M323.45 214.392C321.349 216.534 319.05 218.879 314.905 219.277L323.45 214.392Z" fill="#DDE337" stroke="#EDE8E3" stroke-miterlimit="10"/>
<ellipse cx="214.685" cy="264.454" rx="58.1502" ry="13.4371" transform="rotate(-8.77379 214.685 264.454)" fill="#8F3856"/>
</g>
<defs>
<clipPath id="clip0_4730_961">
<rect width="1440" height="309" fill="white"/>
</clipPath>
</defs>
</svg>
