<svg width="1441" height="856" viewBox="0 0 1441 856" fill="none" xmlns="http://www.w3.org/2000/svg">
<g clip-path="url(#clip0_4841_1952)">
<rect x="0.879883" y="605" width="1440" height="546" fill="#6F85F2"/>
<g clip-path="url(#clip1_4841_1952)">
<path opacity="0.05" d="M-51.1563 485.146C-37.0524 486.65 -10.9408 496.095 16.5422 492.366C44.0251 488.638 54.0038 466.859 80.762 467.251C107.52 467.644 118.224 492.026 144.982 494.25C171.74 496.474 182.443 479.168 209.202 477.925C235.96 476.683 246.663 490.509 273.422 488.285C300.18 486.062 310.883 464.046 337.641 467.251C364.4 470.456 375.103 501.837 401.861 503.668C428.62 505.5 439.323 475.584 466.081 476.042C492.839 476.499 503.543 504.689 530.301 505.866C557.059 507.043 567.763 481.562 594.521 481.692C621.279 481.823 631.982 506.494 658.741 506.494C685.499 506.494 696.202 480.842 722.961 481.692C749.719 482.543 755.684 484.348 787.18 510.575C818.677 536.802 1084.31 554.671 874.145 607.583C663.981 660.495 6.67506 731.851 -221.606 764.553" fill="url(#paint0_linear_4841_1952)"/>
<path opacity="0.29" d="M-51.1563 505.238C-37.0524 506.742 -10.9408 516.187 16.5422 512.459C44.0251 508.731 54.0038 486.951 80.762 487.343C107.52 487.736 118.224 512.119 144.982 514.342C171.74 516.566 182.443 499.26 209.202 498.017C235.96 496.775 246.663 510.601 273.422 508.378C300.18 506.154 310.883 484.139 337.641 487.343C364.4 490.548 375.103 521.929 401.861 523.761C428.62 525.592 439.323 495.676 466.081 496.134C492.839 496.592 503.543 524.781 530.301 525.958C557.059 527.136 567.763 501.654 594.521 501.785C621.279 501.916 631.982 526.586 658.741 526.586C685.499 526.586 696.202 500.935 722.961 501.785C749.719 502.635 755.684 504.44 787.18 530.667C818.677 556.895 1084.31 574.763 874.145 627.675C663.981 680.587 6.67506 751.944 -221.606 784.646" fill="url(#paint1_linear_4841_1952)"/>
<path opacity="0.53" d="M-51.1563 525.33C-37.0524 526.835 -10.9408 536.279 16.5422 532.551C44.0251 528.823 54.0038 507.043 80.762 507.436C107.52 507.828 118.224 532.211 144.982 534.435C171.74 536.658 182.443 519.352 209.202 518.11C235.96 516.867 246.663 530.694 273.422 528.47C300.18 526.246 310.883 504.231 337.641 507.436C364.4 510.641 375.103 542.022 401.861 543.853C428.62 545.684 439.323 515.768 466.081 516.226C492.839 516.684 503.543 544.873 530.301 546.051C557.059 547.228 567.763 521.746 594.521 521.877C621.279 522.008 631.982 546.678 658.741 546.678C685.499 546.678 696.202 521.027 722.961 521.877C749.719 522.727 755.684 524.532 787.18 550.76C818.677 576.987 1084.31 594.855 874.145 647.767C663.981 700.68 6.67506 772.036 -221.606 804.738" fill="url(#paint2_linear_4841_1952)"/>
<path opacity="0.76" d="M-51.1563 545.422C-37.0524 546.927 -10.9408 556.371 16.5422 552.643C44.0251 548.915 54.0038 527.135 80.762 527.528C107.52 527.92 118.224 552.303 144.982 554.527C171.74 556.75 182.443 539.444 209.202 538.202C235.96 536.959 246.663 550.785 273.422 548.562C300.18 546.338 310.883 524.323 337.641 527.528C364.4 530.732 375.103 562.113 401.861 563.945C428.62 565.776 439.323 535.86 466.081 536.318C492.839 536.776 503.543 564.965 530.301 566.142C557.059 567.32 567.763 541.838 594.521 541.969C621.279 542.1 631.982 566.77 658.741 566.77C685.499 566.77 696.202 541.119 722.961 541.969C749.719 542.819 755.684 544.624 787.18 570.851C818.677 597.079 1084.31 614.947 874.145 667.859C663.981 720.771 6.67506 792.128 -221.606 824.83" fill="url(#paint3_linear_4841_1952)"/>
<path d="M-51.1563 565.514C-37.0524 567.019 -10.9408 576.463 16.5422 572.735C44.0251 569.007 54.0038 547.227 80.762 547.62C107.52 548.012 118.224 572.395 144.982 574.619C171.74 576.843 182.443 559.537 209.202 558.294C235.96 557.051 246.663 570.878 273.422 568.654C300.18 566.43 310.883 544.415 337.641 547.62C364.4 550.825 375.103 582.206 401.861 584.037C428.62 585.868 439.323 555.952 466.081 556.41C492.839 556.868 503.543 585.057 530.301 586.235C557.059 587.412 567.763 561.93 594.521 562.061C621.279 562.192 631.982 586.862 658.741 586.862C685.499 586.862 696.202 561.211 722.961 562.061C749.719 562.911 755.684 564.717 787.18 590.944C818.677 617.171 1084.31 635.039 874.145 687.952C663.981 740.864 6.67506 812.22 -221.606 844.922" fill="url(#paint4_linear_4841_1952)"/>
</g>
<g clip-path="url(#clip2_4841_1952)">
<path opacity="0.05" d="M1492.92 485.146C1478.81 486.65 1452.7 496.095 1425.22 492.366C1397.73 488.638 1387.76 466.859 1361 467.251C1334.24 467.644 1323.54 492.026 1296.78 494.25C1270.02 496.474 1259.32 479.168 1232.56 477.925C1205.8 476.683 1195.1 490.509 1168.34 488.285C1141.58 486.062 1130.88 464.046 1104.12 467.251C1077.36 470.456 1066.66 501.837 1039.9 503.668C1013.14 505.5 1002.44 475.584 975.679 476.042C948.92 476.499 938.217 504.689 911.459 505.866C884.7 507.043 873.997 481.562 847.239 481.692C820.481 481.823 809.777 506.494 783.019 506.494C756.261 506.494 745.558 480.842 718.799 481.692C692.041 482.543 686.076 484.348 654.579 510.575C623.083 536.802 357.451 554.671 567.615 607.583C777.779 660.495 1435.08 731.851 1663.37 764.553" fill="url(#paint5_linear_4841_1952)"/>
<path opacity="0.29" d="M1492.92 505.238C1478.81 506.742 1452.7 516.187 1425.22 512.459C1397.73 508.731 1387.76 486.951 1361 487.343C1334.24 487.736 1323.54 512.119 1296.78 514.342C1270.02 516.566 1259.32 499.26 1232.56 498.017C1205.8 496.775 1195.1 510.601 1168.34 508.378C1141.58 506.154 1130.88 484.139 1104.12 487.343C1077.36 490.548 1066.66 521.929 1039.9 523.761C1013.14 525.592 1002.44 495.676 975.679 496.134C948.92 496.592 938.217 524.781 911.459 525.958C884.7 527.136 873.997 501.654 847.239 501.785C820.481 501.916 809.777 526.586 783.019 526.586C756.261 526.586 745.558 500.935 718.799 501.785C692.041 502.635 686.076 504.44 654.579 530.667C623.083 556.895 357.451 574.763 567.615 627.675C777.779 680.587 1435.08 751.944 1663.37 784.646" fill="url(#paint6_linear_4841_1952)"/>
<path opacity="0.53" d="M1492.92 525.33C1478.81 526.835 1452.7 536.279 1425.22 532.551C1397.73 528.823 1387.76 507.043 1361 507.436C1334.24 507.828 1323.54 532.211 1296.78 534.435C1270.02 536.658 1259.32 519.352 1232.56 518.11C1205.8 516.867 1195.1 530.694 1168.34 528.47C1141.58 526.246 1130.88 504.231 1104.12 507.436C1077.36 510.641 1066.66 542.022 1039.9 543.853C1013.14 545.684 1002.44 515.768 975.679 516.226C948.92 516.684 938.217 544.873 911.459 546.051C884.7 547.228 873.997 521.746 847.239 521.877C820.481 522.008 809.777 546.678 783.019 546.678C756.261 546.678 745.558 521.027 718.799 521.877C692.041 522.727 686.076 524.532 654.579 550.76C623.083 576.987 357.451 594.855 567.615 647.767C777.779 700.68 1435.08 772.036 1663.37 804.738" fill="url(#paint7_linear_4841_1952)"/>
<path opacity="0.76" d="M1492.92 545.422C1478.81 546.927 1452.7 556.371 1425.22 552.643C1397.73 548.915 1387.76 527.135 1361 527.528C1334.24 527.92 1323.54 552.303 1296.78 554.527C1270.02 556.75 1259.32 539.444 1232.56 538.202C1205.8 536.959 1195.1 550.785 1168.34 548.562C1141.58 546.338 1130.88 524.323 1104.12 527.528C1077.36 530.732 1066.66 562.113 1039.9 563.945C1013.14 565.776 1002.44 535.86 975.679 536.318C948.92 536.776 938.217 564.965 911.459 566.142C884.7 567.32 873.997 541.838 847.239 541.969C820.481 542.1 809.777 566.77 783.019 566.77C756.261 566.77 745.558 541.119 718.799 541.969C692.041 542.819 686.076 544.624 654.579 570.851C623.083 597.079 357.451 614.947 567.615 667.859C777.779 720.771 1435.08 792.128 1663.37 824.83" fill="url(#paint8_linear_4841_1952)"/>
<path d="M1492.92 565.514C1478.81 567.019 1452.7 576.463 1425.22 572.735C1397.73 569.007 1387.76 547.227 1361 547.62C1334.24 548.012 1323.54 572.395 1296.78 574.619C1270.02 576.843 1259.32 559.537 1232.56 558.294C1205.8 557.051 1195.1 570.878 1168.34 568.654C1141.58 566.43 1130.88 544.415 1104.12 547.62C1077.36 550.825 1066.66 582.206 1039.9 584.037C1013.14 585.868 1002.44 555.952 975.679 556.41C948.92 556.868 938.217 585.057 911.459 586.235C884.7 587.412 873.997 561.93 847.239 562.061C820.481 562.192 809.777 586.862 783.019 586.862C756.261 586.862 745.558 561.211 718.799 562.061C692.041 562.911 686.076 564.717 654.579 590.944C623.083 617.171 357.451 635.039 567.615 687.952C777.779 740.864 1435.08 812.22 1663.37 844.922" fill="url(#paint9_linear_4841_1952)"/>
</g>
<path d="M1412.65 277.702C1405.08 266.25 1389.75 260.43 1374.8 262.495C1374.44 259.343 1373.34 256.319 1371.58 253.671C1364.01 242.032 1346.22 237.526 1332.03 243.909C1329.22 245.157 1326.61 246.801 1324.27 248.79C1319.45 244.935 1313.64 242.475 1307.5 241.68C1301.36 240.885 1295.11 241.786 1289.45 244.284C1276.02 250.292 1270.53 263.809 1276.39 275.262C1269.63 273.948 1262.63 274.735 1256.33 277.514C1242.14 283.71 1236.65 298.354 1244.41 310.181C1248.66 316.26 1255.09 320.493 1262.39 322.009C1260.16 326.08 1259.08 330.677 1259.28 335.307C1259.48 339.937 1260.95 344.426 1263.53 348.292C1272.8 362.748 1294.56 368.193 1312.16 360.308C1316.8 358.276 1320.93 355.265 1324.27 351.484C1334.68 363.499 1354.55 367.63 1370.64 360.496C1379.91 356.365 1386.15 349.419 1388.43 341.534C1393.38 342.175 1398.42 341.461 1403 339.469C1414.54 334.4 1418.7 322.572 1412.65 312.997C1411.8 311.741 1410.78 310.605 1409.62 309.618C1417.76 300.606 1419.46 288.216 1412.65 277.702Z" fill="url(#paint10_linear_4841_1952)"/>
<path d="M263.501 225.021C265.935 224.631 268.256 223.723 270.308 222.357C272.359 220.992 274.091 219.201 275.388 217.107C279.162 209.948 275.577 201.658 266.897 198.267C262.957 196.859 258.685 196.662 254.632 197.701C254.134 195.49 253.074 193.444 251.554 191.761C250.033 190.078 248.104 188.814 245.953 188.092C238.783 185.455 230.103 187.716 226.329 193.556C224.813 191.905 222.942 190.617 220.857 189.788C217.768 188.597 214.393 188.355 211.165 189.093C207.938 189.832 205.005 191.517 202.744 193.933C200.931 192.193 198.823 190.789 196.517 189.788C187.083 186.397 176.139 189.6 171.799 197.513C167.459 205.426 170.856 212.397 178.214 216.542C177.055 217.598 176.04 218.802 175.195 220.122C171.988 225.963 175.007 232.934 182.177 235.571C184.469 236.497 186.951 236.86 189.413 236.631C191.875 236.401 194.247 235.586 196.328 234.253C197.088 236.886 198.483 239.294 200.391 241.265C202.299 243.236 204.662 244.709 207.272 245.557C211.79 247.335 216.778 247.534 221.424 246.122C222.898 248.323 225.002 250.03 227.461 251.021C230.215 252.126 233.255 252.301 236.117 251.518C238.979 250.736 241.506 249.039 243.311 246.687C251.802 250.079 261.991 246.876 265.954 239.905C267.204 237.491 267.64 234.738 267.198 232.057C266.756 229.375 265.46 226.907 263.501 225.021Z" fill="url(#paint11_linear_4841_1952)"/>
<path opacity="0.3" d="M65.6881 90.4137C70.4384 89.6947 74.973 87.9317 78.9699 85.2498C82.9668 82.5679 86.3279 79.033 88.8144 74.8962C96.5231 60.7034 89.1904 44.0506 72.4568 37.6165C64.7251 34.5555 56.2178 34.0908 48.2024 36.2918C47.1365 31.9263 44.9919 27.9027 41.9679 24.5944C38.9439 21.2861 35.1384 18.8004 30.9047 17.3681C16.6154 11.6909 -0.306264 16.6111 -7.82699 27.9654C-10.8431 24.6861 -14.5768 22.1592 -18.732 20.5851C-31.5172 15.665 -46.3707 19.2604 -54.2674 28.5331C-57.9001 25.1136 -62.1862 22.4738 -66.8647 20.7744C-85.1024 13.5834 -106.912 20.3959 -115.373 35.7241C-123.834 51.0524 -117.254 65.6236 -102.776 73.95C-105.153 75.8807 -107.132 78.2589 -108.605 80.9519C-114.997 92.4953 -108.981 106.31 -95.0674 111.608C-90.4916 113.392 -85.571 114.097 -80.6825 113.671C-75.794 113.244 -71.0674 111.697 -66.8647 109.148C-64.4204 118.61 -56.8997 127.126 -45.6186 131.478C-36.5967 134.964 -26.6855 135.363 -17.4159 132.614C-14.7615 137.054 -10.6322 140.405 -5.75878 142.076C5.89834 146.617 19.4357 142.833 25.6403 133.749H25.8283C42.5619 140.183 62.4918 133.938 70.2005 119.935C75.8411 109.905 73.5849 98.5509 65.6881 90.4137Z" fill="url(#paint12_linear_4841_1952)"/>
<path opacity="0.4" d="M1583.88 203.366C1583.88 170.778 1552.18 144.193 1512.94 144.193C1509.85 144.189 1506.76 144.361 1503.69 144.708C1497.69 126.527 1480.56 111.434 1457.08 106.632C1427.44 100.457 1397.63 112.292 1383.92 133.903C1378.7 131.27 1373.18 129.311 1367.47 128.071C1334.57 121.211 1301.16 138.019 1292.93 165.461L1286.77 163.918C1258.49 158.086 1229.71 172.322 1222.51 195.991C1215.31 219.66 1232.62 243.843 1261.06 249.675H1261.92C1260.37 252.554 1259.16 255.604 1258.32 258.765C1253.52 279.175 1269.29 298.899 1293.79 303.016C1301.5 304.269 1309.38 303.859 1316.92 301.815C1323.43 319.309 1340.23 333.717 1363.19 338.347C1389.23 343.836 1415.45 335.26 1430.7 318.452C1434.97 320.207 1439.38 321.584 1443.89 322.568C1477.82 329.772 1512.43 312.449 1521 284.149C1523.15 276.907 1523.44 269.238 1521.85 261.852C1556.81 258.593 1583.88 233.724 1583.88 203.366Z" fill="url(#paint13_linear_4841_1952)"/>
<path d="M207.141 341.554C203.292 339.887 199.058 339.303 194.899 339.865C194.113 337.971 192.96 336.25 191.506 334.8C190.052 333.351 188.324 332.202 186.424 331.419C183.299 330.095 179.895 329.556 176.512 329.851C173.129 330.146 169.871 331.264 167.024 333.108C165.22 330.717 162.817 328.84 160.055 327.666C151.392 323.912 140.844 326.727 136.324 333.859C135.52 335.126 134.946 336.523 134.629 337.988C127.472 336.299 119.75 338.927 116.171 344.557C115.127 346.269 114.483 348.193 114.288 350.187C110.701 351.161 107.611 353.438 105.624 356.569C101.669 362.95 104.682 370.645 112.216 374.023C115.378 375.296 118.813 375.748 122.198 375.337C122.8 378.964 124.354 382.367 126.703 385.202C129.051 388.037 132.111 390.202 135.571 391.478C146.495 396.357 159.49 393.918 167.024 386.223C168.869 388.403 171.187 390.136 173.805 391.29C183.033 395.231 194.334 392.228 199.231 384.721C200.355 382.987 201.059 381.016 201.288 378.964C201.517 376.912 201.264 374.835 200.549 372.897C203.561 372.635 206.476 371.707 209.082 370.181C211.689 368.655 213.921 366.57 215.617 364.076C220.702 356.006 216.935 345.871 207.141 341.554Z" fill="url(#paint14_linear_4841_1952)"/>
<path opacity="0.4" d="M176.652 147.449C166.288 142.923 154.893 141.293 143.679 142.733C140.099 133.114 131.997 124.815 120.503 119.723C112.045 116.052 102.802 114.561 93.6197 115.384C84.4372 116.208 75.6069 119.321 67.9348 124.438C63.0903 117.882 56.586 112.738 49.093 109.538C25.7292 99.3527 -2.91023 106.897 -15.1574 126.324C-17.3463 129.875 -18.9376 133.762 -19.8678 137.829C-39.0864 132.926 -60.1892 139.904 -69.7985 155.37C-72.8265 160.044 -74.5205 165.457 -74.6974 171.025C-84.3807 173.561 -92.7757 179.612 -98.2496 188C-109.178 205.352 -101.076 226.665 -80.3499 235.719C-71.9298 239.354 -62.6544 240.531 -53.5946 239.114C-50.9567 257.409 -37.9559 274.196 -17.0416 283.438C12.3516 296.263 47.7741 289.662 68.1232 269.103C73.0623 274.961 79.3285 279.552 86.3997 282.495C111.459 293.434 142.171 285.512 155.172 264.576C158.233 259.922 160.167 254.618 160.821 249.085C161.475 243.551 160.831 237.942 158.941 232.701C175.71 230.626 191.16 222.327 199.639 208.747C213.582 186.491 203.407 158.954 176.652 147.449Z" fill="url(#paint15_linear_4841_1952)"/>
<path d="M162.88 272.57C162.88 255.418 150.627 240.527 132.908 233.553C133.096 231.48 133.285 229.218 133.285 226.956C133.285 192.274 99.5424 164 57.883 164C33.3774 164 11.6994 173.802 -2.0614 188.692C-13.0234 181.843 -25.7054 178.248 -38.6313 178.325C-71.6195 178.325 -98.3871 200.567 -98.3871 228.087C-98.3443 231.581 -97.9015 235.06 -97.0676 238.454H-98.3871C-122.516 238.454 -142.12 254.852 -142.12 275.021C-142.12 291.231 -129.113 304.991 -111.394 309.703C-114.263 315.302 -115.75 321.507 -115.73 327.798C-115.73 353.433 -90.8469 374.355 -59.9322 374.355H-55.5966C-46.5484 383.968 -32.5991 390 -16.7647 390C-0.930377 390 15.0925 382.837 23.9522 372.093C29.7895 373.686 35.8096 374.509 41.8601 374.544C60.522 374.544 76.9219 367.004 87.1012 355.318C92.6486 357.078 98.4351 357.968 104.255 357.957C131.588 357.957 153.643 339.485 153.643 316.677C153.62 311.322 152.396 306.041 150.062 301.221C154.048 297.579 157.242 293.156 159.448 288.227C161.653 283.299 162.821 277.969 162.88 272.57Z" fill="url(#paint16_linear_4841_1952)"/>
<path d="M79.5321 367.935C78.3693 366.607 76.8655 365.625 75.1842 365.094C78.2207 362.886 80.3668 359.662 81.2334 356.005C81.5433 355.092 81.6718 354.127 81.6115 353.164C81.6115 344.454 73.2939 337.447 62.8969 337.447C58.9681 337.381 55.101 338.432 51.7438 340.477C49.9398 337.499 47.3797 335.054 44.3244 333.39C41.2692 331.727 37.8282 330.905 34.3525 331.009C25.2787 331.009 17.5283 336.69 16.016 343.885C12.3055 341.652 8.05754 340.473 3.72866 340.477C-7.23543 340.477 -16.1201 347.862 -16.1201 357.141C-16.1201 366.42 -9.31484 371.911 -0.24111 373.426C-1.58016 375.448 -2.30267 377.817 -2.32049 380.243C-2.32049 388.575 5.80806 395.203 15.6379 395.203C19.7652 395.258 23.8032 393.998 27.1691 391.605C28.9773 393.985 31.3279 395.898 34.0245 397.183C36.7211 398.467 39.6856 399.087 42.6701 398.99C50.7986 398.99 57.6039 394.445 59.8723 388.386C62.4161 389.569 65.1969 390.152 68.0009 390.09C76.6965 390.09 83.8799 384.22 83.8799 376.835C83.8341 375.126 83.4222 373.447 82.672 371.911C81.9219 370.375 80.8511 369.019 79.5321 367.935Z" fill="url(#paint17_linear_4841_1952)"/>
<path d="M235.817 254.163C236.942 238.957 222.873 225.817 204.488 224.879C197.371 224.536 190.297 226.16 184.04 229.572C179.162 219.247 167.344 211.551 153.086 210.987C143.987 210.354 134.954 212.945 127.573 218.308C123.446 211.926 115.567 207.608 106.187 207.045C102.361 206.83 98.5314 207.384 94.9229 208.673C91.3143 209.963 88.0004 211.962 85.1764 214.554C79.8469 211.139 73.6816 209.256 67.3547 209.11C49.3454 208.172 33.7748 219.622 32.8368 234.828C32.6116 237.479 32.8658 240.15 33.5872 242.712L31.7112 245.903C14.0771 245.528 -0.930646 256.791 -2.05623 271.621C-3.18181 286.45 10.7004 299.591 28.8973 300.529H34.5252C37.9019 308.226 46.5314 313.857 56.8493 314.233C61.1974 314.417 65.5376 313.715 69.6058 312.168C72.9826 323.994 85.364 333.192 100.747 333.943C116.13 334.694 127.949 327.936 133.764 317.612C139.526 321.387 146.204 323.528 153.086 323.806C167.344 324.557 180.1 317.799 185.916 307.663C187.633 308.109 189.395 308.361 191.169 308.413C204.676 309.164 216.307 300.529 217.057 289.266C217.331 285.571 216.411 281.885 214.431 278.754C226.437 274.812 235.066 265.426 235.817 254.163Z" fill="url(#paint18_linear_4841_1952)"/>
<path d="M1511.29 241.243C1509.36 240.362 1507.34 239.672 1505.27 239.182C1508.47 230.379 1504.14 220.452 1494.16 215.394C1487.89 212.4 1480.77 211.671 1474.01 213.334C1473.36 209.281 1471.72 205.45 1469.22 202.182C1466.73 198.914 1463.46 196.311 1459.7 194.603C1445.58 187.485 1427.13 191.232 1418.66 203.032L1417.53 204.53L1416.21 203.781C1402.84 197.225 1385.52 200.784 1377.61 211.835C1374.64 215.677 1373.23 220.492 1373.66 225.322C1365.94 225.134 1358.22 228.319 1354.08 234.125C1349.94 239.932 1351.25 253.792 1361.42 259.037C1365.07 260.751 1369.07 261.586 1373.09 261.472C1370.84 267.091 1373.47 273.272 1379.68 276.269C1381.05 276.962 1382.51 277.466 1384.02 277.768C1384.99 280.792 1386.57 283.585 1388.68 285.97C1390.78 288.355 1393.36 290.282 1396.25 291.629H1396.44C1397.77 292.924 1399.29 293.999 1400.96 294.813C1409.81 299.121 1421.3 296.873 1426.94 289.755L1429.01 288.257C1429.77 288.988 1430.67 289.561 1431.65 289.943C1434.7 291.495 1438.14 292.093 1441.54 291.658C1444.93 291.224 1448.12 289.777 1450.67 287.508C1452.8 289.831 1455.36 291.737 1458.2 293.127C1471 299.496 1487.38 296.124 1495.1 285.635C1497.43 282.473 1498.74 278.686 1498.87 274.771C1506.59 275.145 1514.5 271.961 1518.64 265.967C1522.78 259.974 1521.65 246.487 1511.29 241.243Z" fill="url(#paint19_linear_4841_1952)"/>
<path d="M1499.09 342.814C1501.72 336.339 1497.58 329.675 1490.06 327.58L1486.3 326.819C1487.43 318.631 1481.6 310.633 1472.01 307.967C1462.42 305.301 1453.21 308.348 1447.94 314.632C1440.99 313.299 1433.84 316.726 1431.4 322.629L1428.58 321.487C1420.12 319.202 1411.09 323.01 1408.27 330.056C1407.86 331.025 1407.61 332.053 1407.52 333.102C1401.12 334.054 1395.48 337.672 1393.42 343.194C1391.35 348.717 1395.3 359.57 1404.7 362.046C1407.88 362.935 1411.23 363.065 1414.47 362.427C1415.04 369.472 1420.49 375.756 1428.76 378.041C1432.78 379.22 1437.02 379.314 1441.08 378.311C1445.14 377.309 1448.87 375.246 1451.89 372.328C1454.2 374.607 1457.05 376.247 1460.16 377.089C1467.69 379.183 1475.77 376.708 1479.91 371.186C1486.68 370.615 1492.88 366.806 1495.14 360.903C1495.92 358.908 1496.19 356.745 1495.93 354.615C1495.66 352.484 1494.88 350.456 1493.63 348.717C1496.02 347.378 1497.93 345.313 1499.09 342.814Z" fill="url(#paint20_linear_4841_1952)"/>
<path opacity="0.3" d="M311.873 278.593C318.638 261.851 307.739 243.793 287.632 238.15C284.253 237.269 280.787 236.764 277.297 236.646C280.303 214.826 264.894 193.758 238.962 186.61C213.03 179.462 188.789 187.551 174.883 204.104C155.904 200.53 136.548 209.559 130.347 225.171C130.279 225.248 130.227 225.337 130.195 225.434C130.163 225.531 130.151 225.634 130.159 225.736C127.641 224.717 125.069 223.837 122.455 223.102C100.093 216.707 75.6639 226.864 68.1473 245.674C67.1661 248.276 66.5342 250.995 66.2681 253.763C49.1679 256.02 34.1346 265.802 28.3093 280.286C20.041 301.165 33.5709 323.549 58.3757 330.509C66.9512 332.875 75.9614 333.198 84.6838 331.45C86.375 349.696 100.844 366.437 123.206 372.644C145.568 378.852 171.125 372.456 185.406 357.408C191.332 363.631 198.885 368.063 207.204 370.199C227.687 376.03 249.485 368.882 260.384 354.398C278.612 353.081 295.148 342.924 301.35 327.499C303.506 322.144 304.258 316.325 303.534 310.596C302.811 304.868 300.636 299.419 297.216 294.769C303.877 291.306 309.077 285.566 311.873 278.593Z" fill="url(#paint21_linear_4841_1952)"/>
<path d="M211.88 199.603C211.88 189.38 202.103 181.24 190.071 181.24H187.251C186.055 178.188 184.091 175.501 181.553 173.443C179.016 171.386 175.99 170.027 172.774 169.502C163.749 167.609 154.349 171.206 150.213 178.021C148.612 177.165 146.905 176.528 145.137 176.128C134.984 174.046 124.643 179.157 122.199 187.676L120.319 187.108C111.483 185.405 102.646 189.759 100.39 197.142C98.1342 204.526 103.586 211.909 112.235 213.802H112.611C112.075 214.676 111.693 215.637 111.483 216.642C109.979 223.079 114.867 229.137 122.387 230.462C124.77 230.812 127.198 230.683 129.532 230.083C130.792 233.021 132.758 235.596 135.252 237.579C137.746 239.562 140.691 240.889 143.82 241.442C147.539 242.295 151.413 242.168 155.068 241.074C158.724 239.979 162.038 237.955 164.69 235.195L168.638 236.52C179.166 238.603 189.883 233.302 192.515 224.593C193.23 222.322 193.295 219.895 192.703 217.588C203.607 216.642 211.88 208.88 211.88 199.603Z" fill="url(#paint22_linear_4841_1952)"/>
<g filter="url(#filter0_d_4841_1952)">
<path fill-rule="evenodd" clip-rule="evenodd" d="M1428.76 220.702C1429.05 220.626 1429.34 220.581 1429.63 220.559C1431.66 220.403 1433.56 221.434 1433.56 221.434C1433.06 223.918 1431.76 224.982 1431.14 225.358C1430.93 225.484 1430.8 225.533 1430.8 225.533C1430.8 225.533 1429.11 224.211 1428.22 224.023C1428.09 223.996 1427.98 223.992 1427.9 224.018C1426.68 224.374 1425.23 225.103 1424.06 225.762C1424.21 226.103 1424.35 226.451 1424.46 226.794C1424.77 227.726 1424.93 228.636 1425.02 229.313C1425.06 229.591 1425.08 229.821 1425.09 230.005C1425.1 230.049 1425.1 230.09 1425.1 230.129C1425.11 230.184 1425.11 230.235 1425.11 230.277C1425.11 230.307 1425.12 230.332 1425.12 230.352C1425.12 230.365 1425.12 230.379 1425.12 230.391C1425.12 230.399 1425.12 230.406 1425.12 230.411L1425.12 230.433C1425.12 230.438 1425.12 230.443 1425.12 230.449C1425.12 230.457 1425.12 230.467 1425.12 230.481C1425.12 230.499 1425.12 230.525 1425.13 230.556C1425.13 230.583 1425.13 230.613 1425.13 230.645C1425.14 230.757 1425.16 230.913 1425.17 231.101L1425.17 231.102L1425.18 231.21C1434.54 232.752 1440.45 239.856 1440.24 240.69C1440.24 240.698 1440.24 240.705 1440.23 240.712C1440.23 240.734 1440.23 240.753 1440.23 240.77C1440.22 240.812 1440.2 240.853 1440.19 240.894C1439.92 241.567 1438.93 242.077 1437.37 242.422C1437.03 242.497 1436.67 242.564 1436.28 242.623C1436.25 243.377 1435.99 244.216 1435.52 245.06C1435.43 245.238 1435.32 245.416 1435.19 245.596C1434.38 246.742 1433.06 247.842 1431.81 248.65C1431.29 248.989 1430.93 249.356 1430.65 249.757C1431.14 250.024 1431.59 250.278 1432.26 250.717C1432.48 250.864 1432.52 251.142 1432.38 251.346C1432.23 251.573 1431.91 251.603 1431.71 251.55C1431.64 251.531 1431.4 251.4 1431.07 251.211C1431.07 251.216 1431.07 251.221 1431.06 251.225C1431.23 251.336 1431.42 251.469 1431.66 251.638C1431.88 251.792 1431.91 252.088 1431.77 252.308C1431.62 252.539 1431.3 252.575 1431.11 252.521C1431 252.493 1430.68 252.285 1430.26 252.004C1430.21 251.973 1430.16 251.94 1430.11 251.907C1430.06 251.919 1430.02 251.928 1429.97 251.935C1429.99 251.945 1430.01 251.956 1430.02 251.967C1430.16 252.056 1430.29 252.155 1430.69 252.449L1430.84 252.559C1431.05 252.714 1431.08 253.013 1430.94 253.237C1430.8 253.484 1430.49 253.523 1430.3 253.457C1430.2 253.43 1430.03 253.309 1429.75 253.117C1429.67 253.061 1429.58 252.999 1429.48 252.931C1429.41 253.154 1429.33 253.383 1429.24 253.62C1428.88 254.53 1427.81 255.159 1427.07 254.488C1426.61 254.081 1426.53 253.323 1426.84 252.824C1426.93 252.671 1427.02 252.527 1427.11 252.392C1427.06 252.422 1427.01 252.451 1426.95 252.48C1426.49 252.735 1425.98 252.912 1425.44 252.969C1425.3 252.983 1425.16 252.985 1425.03 252.988C1424.94 252.989 1424.85 252.981 1424.76 252.972C1424.71 252.968 1424.67 252.964 1424.62 252.961C1424.49 252.952 1424.35 252.943 1424.23 252.924C1424.16 252.914 1424.1 252.907 1424.03 252.899C1423.96 252.892 1423.9 252.886 1423.84 252.877C1423.32 252.786 1422.8 252.637 1422.31 252.434C1421.87 252.25 1421.46 252.004 1421.09 251.716C1420.53 252.646 1419.92 253.481 1419.27 254.246C1417.77 256.072 1416.07 257.494 1414.24 258.467C1412.44 259.464 1409.93 260.345 1407.08 259.92C1406.23 259.83 1405.37 259.648 1404.52 259.371C1403.31 259.027 1402.12 258.503 1401.73 257.672C1401.64 257.476 1401.59 257.263 1401.6 257.031C1401.61 256.845 1401.71 256.696 1401.86 256.603C1402.01 256.509 1402.21 256.459 1402.44 256.424C1402.81 256.374 1403.3 256.37 1403.82 256.367L1403.84 256.367C1403.88 256.366 1403.93 256.366 1403.97 256.366C1404.01 256.365 1404.05 256.366 1404.09 256.366C1404.13 256.366 1404.17 256.367 1404.21 256.367C1404.89 256.365 1405.62 256.349 1406.31 256.243C1407 256.138 1407.63 255.943 1408.11 255.584C1409.44 254.584 1409.97 253.475 1410.35 252.143C1410.29 252.09 1410.24 252.024 1410.19 251.944C1409.84 251.414 1410 250.726 1410.53 250.133C1408.75 250.811 1406.82 250.508 1405.67 249.686C1405.95 250.172 1405.97 250.53 1405.25 250.907C1404.7 251.188 1403.4 251.024 1402.95 249.746C1402.93 249.677 1402.9 249.61 1402.88 249.545C1402.36 249.723 1401.85 249.833 1401.47 249.675C1401.28 249.7 1401.02 249.644 1400.91 249.462C1400.81 249.325 1400.79 249.167 1400.84 249.032C1400.77 248.931 1400.7 248.824 1400.64 248.714C1400.46 248.718 1400.26 248.655 1400.15 248.494C1400 248.275 1400.04 248.002 1400.26 247.85L1400.27 247.843C1400.26 247.834 1400.26 247.825 1400.26 247.815C1400.16 247.876 1400.08 247.916 1400.05 247.928C1399.85 247.995 1399.51 247.956 1399.37 247.739C1399.22 247.508 1399.25 247.22 1399.48 247.059C1400.08 246.628 1400.51 246.359 1400.95 246.099C1400.79 245.903 1400.6 245.681 1400.39 245.42C1399.97 244.914 1399.52 244.797 1398.99 244.658C1398.17 244.446 1397.15 244.18 1395.72 242.385C1395.66 242.378 1395.63 242.371 1395.63 242.371C1395.63 242.371 1395.27 241.83 1395.02 241.424C1395 241.396 1394.98 241.367 1394.96 241.338C1393.01 238.397 1394.18 235.441 1396.53 234.707C1396.64 234.674 1396.75 234.65 1396.87 234.635C1396.68 234.4 1396.56 234.19 1396.5 234.011C1396.46 233.881 1396.45 233.767 1396.48 233.67C1396.48 233.623 1396.49 233.578 1396.52 233.534C1397.88 230.759 1404.91 229.999 1412.14 230.125C1412.29 229.765 1412.44 229.415 1412.61 229.054C1412.78 228.65 1412.97 228.242 1413.17 227.812C1413.82 226.406 1414.82 224.993 1416.04 223.978C1417.26 222.972 1418.72 222.355 1420.29 222.594L1421.66 223.036C1422.34 223.387 1422.88 223.899 1423.31 224.49C1425.11 222.971 1427.59 221.011 1428.76 220.702ZM1424.51 242.697C1426.26 242.836 1427.92 242.921 1429.45 242.952C1429.44 242.988 1429.43 243.024 1429.42 243.06C1429.01 244.636 1429.2 245.408 1429.37 246.114C1429.44 246.389 1429.5 246.655 1429.53 246.954C1429.52 246.95 1429.51 246.946 1429.5 246.941L1429.49 246.938C1429.38 246.898 1429.28 246.884 1429.17 246.867C1428.76 246.816 1428.35 246.811 1427.95 246.843C1427.75 246.859 1427.55 246.886 1427.34 246.925C1427.29 246.94 1427.24 246.953 1427.19 246.966C1427.15 246.979 1427.1 246.992 1427.05 247.007C1427.02 247.003 1426.98 247.021 1426.95 247.04L1426.87 247.097C1426.81 247.135 1426.78 247.188 1426.76 247.243C1426.67 247.449 1426.66 247.646 1426.66 247.844C1426.67 248.042 1426.69 248.231 1426.72 248.422C1426.78 248.778 1426.86 249.127 1426.96 249.469C1426.46 249.812 1425.93 250.13 1425.38 250.38C1425.09 250.509 1424.8 250.628 1424.49 250.708C1424.18 250.789 1423.86 250.833 1423.55 250.855C1423.23 250.877 1422.91 250.852 1422.6 250.781C1422.32 250.716 1422.05 250.596 1421.8 250.447C1422.2 249.674 1422.58 248.841 1422.92 247.937C1424.27 243.894 1424.58 242.251 1424.51 242.697ZM1429.3 247.7C1429.38 247.656 1429.46 247.605 1429.53 247.545C1429.52 247.643 1429.5 247.744 1429.48 247.852C1429.41 248.245 1429.33 248.581 1429.24 248.877C1429.06 248.775 1428.86 248.692 1428.67 248.615C1428.62 248.594 1428.56 248.573 1428.51 248.553C1428.38 248.502 1428.25 248.453 1428.14 248.394C1428.09 248.376 1428.06 248.347 1428.05 248.334C1428.05 248.33 1428.06 248.321 1428.07 248.31C1428.09 248.294 1428.11 248.275 1428.12 248.264C1428.14 248.254 1428.15 248.244 1428.16 248.234C1428.18 248.216 1428.21 248.199 1428.23 248.188C1428.37 248.11 1428.53 248.046 1428.7 247.98C1428.9 247.9 1429.11 247.817 1429.3 247.7ZM1422.09 250.693C1421.98 250.635 1421.87 250.571 1421.77 250.503L1421.77 250.512C1421.87 250.578 1421.98 250.639 1422.09 250.693ZM1402.98 246.175C1402.97 246.165 1402.96 246.155 1402.96 246.145C1403.2 245.916 1403.24 245.594 1403.05 245.367C1402.91 245.211 1402.7 245.184 1402.46 245.256C1402.24 244.73 1402.14 244.176 1402.22 243.561C1402.37 242.361 1402.22 240.819 1401.91 239.521C1401.86 239.204 1401.77 238.718 1401.63 238.319C1401.56 238.105 1401.37 237.802 1401.22 237.564C1403.46 238.632 1406.57 239.742 1410.66 240.687L1410.66 240.645L1410.69 240.655C1410.74 241.431 1410.82 242.207 1410.9 242.942C1410.92 243.132 1410.95 243.36 1410.98 243.587C1411.01 243.815 1411.04 244.043 1411.06 244.232C1411.19 245.586 1411.31 246.932 1411.2 248.244C1410.03 249.442 1407.97 250.481 1405.38 247.03C1405.38 247.03 1405.63 244.382 1405.02 244.15C1404.72 244.037 1404.42 243.913 1404.13 243.797C1403.3 243.454 1402.6 243.168 1402.57 243.37C1402.42 244.286 1404.01 244.875 1404.01 244.875C1404.01 244.875 1403.38 245.266 1403.19 246.163C1403.19 246.163 1403.11 246.167 1402.98 246.175Z" fill="#292F51" fill-opacity="0.33"/>
<path d="M1421.66 223.036L1420.29 222.595L1420.3 222.595L1420.3 222.596C1420.81 222.673 1421.26 222.826 1421.66 223.036Z" fill="#292F51" fill-opacity="0.33"/>
</g>
</g>
<defs>
<filter id="filter0_d_4841_1952" x="1393.98" y="219.542" width="46.2676" height="40.4868" filterUnits="userSpaceOnUse" color-interpolation-filters="sRGB">
<feFlood flood-opacity="0" result="BackgroundImageFix"/>
<feColorMatrix in="SourceAlpha" type="matrix" values="0 0 0 0 0 0 0 0 0 0 0 0 0 0 0 0 0 0 127 0" result="hardAlpha"/>
<feOffset dy="-1"/>
<feComposite in2="hardAlpha" operator="out"/>
<feColorMatrix type="matrix" values="0 0 0 0 0.160784 0 0 0 0 0.184314 0 0 0 0 0.317647 0 0 0 0.6 0"/>
<feBlend mode="normal" in2="BackgroundImageFix" result="effect1_dropShadow_4841_1952"/>
<feBlend mode="normal" in="SourceGraphic" in2="effect1_dropShadow_4841_1952" result="shape"/>
</filter>
<linearGradient id="paint0_linear_4841_1952" x1="58576.8" y1="466.933" x2="58576.8" y2="30229" gradientUnits="userSpaceOnUse">
<stop stop-color="#6E84F2"/>
<stop offset="1" stop-color="#292F51"/>
</linearGradient>
<linearGradient id="paint1_linear_4841_1952" x1="58576.8" y1="487.025" x2="58576.8" y2="30249.1" gradientUnits="userSpaceOnUse">
<stop stop-color="#6E84F2"/>
<stop offset="1" stop-color="#292F51"/>
</linearGradient>
<linearGradient id="paint2_linear_4841_1952" x1="58576.8" y1="507.118" x2="58576.8" y2="30269.2" gradientUnits="userSpaceOnUse">
<stop stop-color="#6E84F2"/>
<stop offset="1" stop-color="#292F51"/>
</linearGradient>
<linearGradient id="paint3_linear_4841_1952" x1="58576.8" y1="527.209" x2="58576.8" y2="30289.2" gradientUnits="userSpaceOnUse">
<stop stop-color="#6E84F2"/>
<stop offset="1" stop-color="#292F51"/>
</linearGradient>
<linearGradient id="paint4_linear_4841_1952" x1="58576.8" y1="547.302" x2="58576.8" y2="30309.3" gradientUnits="userSpaceOnUse">
<stop stop-color="#6E84F2"/>
<stop offset="1" stop-color="#292F51"/>
</linearGradient>
<linearGradient id="paint5_linear_4841_1952" x1="-57135" y1="466.933" x2="-57135" y2="30229" gradientUnits="userSpaceOnUse">
<stop stop-color="#6E84F2"/>
<stop offset="1" stop-color="#292F51"/>
</linearGradient>
<linearGradient id="paint6_linear_4841_1952" x1="-57135" y1="487.025" x2="-57135" y2="30249.1" gradientUnits="userSpaceOnUse">
<stop stop-color="#6E84F2"/>
<stop offset="1" stop-color="#292F51"/>
</linearGradient>
<linearGradient id="paint7_linear_4841_1952" x1="-57135" y1="507.118" x2="-57135" y2="30269.2" gradientUnits="userSpaceOnUse">
<stop stop-color="#6E84F2"/>
<stop offset="1" stop-color="#292F51"/>
</linearGradient>
<linearGradient id="paint8_linear_4841_1952" x1="-57135" y1="527.209" x2="-57135" y2="30289.2" gradientUnits="userSpaceOnUse">
<stop stop-color="#6E84F2"/>
<stop offset="1" stop-color="#292F51"/>
</linearGradient>
<linearGradient id="paint9_linear_4841_1952" x1="-57135" y1="547.302" x2="-57135" y2="30309.3" gradientUnits="userSpaceOnUse">
<stop stop-color="#6E84F2"/>
<stop offset="1" stop-color="#292F51"/>
</linearGradient>
<linearGradient id="paint10_linear_4841_1952" x1="1328.88" y1="241" x2="1328.88" y2="364" gradientUnits="userSpaceOnUse">
<stop stop-color="#6F85F2"/>
<stop offset="1" stop-color="#6F85F2" stop-opacity="0"/>
</linearGradient>
<linearGradient id="paint11_linear_4841_1952" x1="223.38" y1="187" x2="223.38" y2="252" gradientUnits="userSpaceOnUse">
<stop stop-color="#6F85F2"/>
<stop offset="1" stop-color="#6F85F2" stop-opacity="0"/>
</linearGradient>
<linearGradient id="paint12_linear_4841_1952" x1="-13.6201" y1="15" x2="-13.6201" y2="144" gradientUnits="userSpaceOnUse">
<stop stop-color="#6F85F2"/>
<stop offset="1" stop-color="#6F85F2" stop-opacity="0"/>
</linearGradient>
<linearGradient id="paint13_linear_4841_1952" x1="1402.38" y1="105" x2="1402.38" y2="340" gradientUnits="userSpaceOnUse">
<stop stop-color="#6F85F2"/>
<stop offset="1" stop-color="#6F85F2" stop-opacity="0"/>
</linearGradient>
<linearGradient id="paint14_linear_4841_1952" x1="160.88" y1="326" x2="160.88" y2="394" gradientUnits="userSpaceOnUse">
<stop stop-color="#6F85F2"/>
<stop offset="1" stop-color="#6F85F2" stop-opacity="0"/>
</linearGradient>
<linearGradient id="paint15_linear_4841_1952" x1="51.3799" y1="105" x2="51.3799" y2="290" gradientUnits="userSpaceOnUse">
<stop stop-color="#6F85F2"/>
<stop offset="1" stop-color="#6F85F2" stop-opacity="0"/>
</linearGradient>
<linearGradient id="paint16_linear_4841_1952" x1="10.3799" y1="164" x2="10.3799" y2="390" gradientUnits="userSpaceOnUse">
<stop stop-color="#6F85F2"/>
<stop offset="1" stop-color="#6F85F2" stop-opacity="0"/>
</linearGradient>
<linearGradient id="paint17_linear_4841_1952" x1="33.8799" y1="331" x2="33.8799" y2="399" gradientUnits="userSpaceOnUse">
<stop stop-color="#6F85F2"/>
<stop offset="1" stop-color="#6F85F2" stop-opacity="0"/>
</linearGradient>
<linearGradient id="paint18_linear_4841_1952" x1="116.88" y1="207" x2="116.88" y2="334" gradientUnits="userSpaceOnUse">
<stop stop-color="#6F85F2"/>
<stop offset="1" stop-color="#6F85F2" stop-opacity="0"/>
</linearGradient>
<linearGradient id="paint19_linear_4841_1952" x1="1436.38" y1="191" x2="1436.38" y2="297" gradientUnits="userSpaceOnUse">
<stop stop-color="#6F85F2"/>
<stop offset="1" stop-color="#6F85F2" stop-opacity="0"/>
</linearGradient>
<linearGradient id="paint20_linear_4841_1952" x1="1446.38" y1="307" x2="1446.38" y2="379" gradientUnits="userSpaceOnUse">
<stop stop-color="#6F85F2"/>
<stop offset="1" stop-color="#6F85F2" stop-opacity="0"/>
</linearGradient>
<linearGradient id="paint21_linear_4841_1952" x1="169.88" y1="184" x2="169.88" y2="375" gradientUnits="userSpaceOnUse">
<stop stop-color="#6F85F2"/>
<stop offset="1" stop-color="#6F85F2" stop-opacity="0"/>
</linearGradient>
<linearGradient id="paint22_linear_4841_1952" x1="155.88" y1="169" x2="155.88" y2="242" gradientUnits="userSpaceOnUse">
<stop stop-color="#6F85F2"/>
<stop offset="1" stop-color="#6F85F2" stop-opacity="0"/>
</linearGradient>
<clipPath id="clip0_4841_1952">
<rect width="1440" height="856" fill="white" transform="translate(0.879883)"/>
</clipPath>
<clipPath id="clip1_4841_1952">
<rect width="720" height="138.134" fill="white" transform="translate(0.879883 466.933)"/>
</clipPath>
<clipPath id="clip2_4841_1952">
<rect width="720" height="138.134" fill="white" transform="matrix(-1 0 0 1 1440.88 466.933)"/>
</clipPath>
</defs>
</svg>
