<svg width="1441" height="766" viewBox="0 0 1441 766" fill="none" xmlns="http://www.w3.org/2000/svg">
<g clip-path="url(#clip0_4841_1870)">
<path fill-rule="evenodd" clip-rule="evenodd" d="M499.153 695C225.153 695 -0.347656 618.001 -0.347656 618.001L-0.347646 765.23H1440.15V669.5C1213.9 544.954 1165.87 563.424 1054.66 606.187C961.393 642.05 823.69 695 499.153 695Z" fill="#F3B73C"/>
<path d="M261.458 700.299C263.801 669.586 265.622 638.352 268.225 606.858C270.492 574.668 274.927 542.668 281.499 511.075C288.527 479.321 299.198 447.306 316.897 419.196C325.628 405.158 336.125 392.299 348.131 380.935C359.876 369.772 372.995 360.151 387.172 352.304L392.898 361.153C380.931 370.259 370.25 380.94 361.144 392.907C352.141 404.553 344.703 417.329 339.021 430.908C327.569 457.717 322.363 487.129 320.541 516.801C319.335 546.916 319.943 577.076 322.363 607.118C324.706 637.831 327.829 668.805 330.432 700.299C330.432 700.299 315.759 706.121 295.945 706.121C276.131 706.121 261.458 700.299 261.458 700.299Z" fill="#AA7405"/>
<path d="M387.172 352.304L383.008 354.907L386.912 361.153C375.005 370.327 364.332 381 355.158 392.907C346.154 404.553 338.716 417.329 333.034 430.908C321.582 457.717 316.637 487.129 314.815 516.801C313.348 546.913 313.956 577.09 316.637 607.118C318.719 637.831 320.02 671.3 322.363 702.794L330.432 700.299C327.829 668.805 324.705 637.831 322.363 607.118C319.943 577.076 319.335 546.916 320.541 516.801C322.363 487.129 327.568 457.717 339.021 430.908C344.703 417.329 352.141 404.553 361.144 392.907C370.25 380.94 380.931 370.259 392.898 361.153L387.172 352.304Z" fill="#9C6604"/>
<path d="M387.172 352.304C372.995 360.151 359.876 369.772 348.131 380.935C336.125 392.299 325.628 405.158 316.897 419.196C299.198 447.306 288.527 479.32 281.499 511.074C274.927 542.667 270.492 574.668 268.225 606.857C265.622 638.351 263.801 669.585 261.458 700.298L279.577 704.874C279.577 557.233 284.983 412.504 387.172 352.304Z" fill="#976706"/>
<path d="M381.446 365.839L429.597 315.084C429.597 315.084 413.2 316.646 376.24 346.838L381.446 365.839Z" fill="#6ABF41"/>
<path d="M242.978 313.782C253.058 326.454 265.096 337.437 278.636 346.317L290.349 329.92L285.664 350.482C296.255 356.676 307.637 361.404 319.5 364.537L329.911 340.331L330.692 367.14C348.066 370.491 365.928 370.402 383.268 366.88C327.048 273.179 242.978 313.782 242.978 313.782Z" fill="#50992D"/>
<path d="M290.349 237C290.349 237 287.746 254.699 301.02 281.508L302.582 280.727L326.788 275.261L305.705 290.357C311.938 300.903 319.266 310.762 327.568 319.769L349.432 309.098L334.596 327.317C349.406 342.155 365.718 355.413 383.268 366.88C383.268 366.88 394.98 269.014 290.349 237Z" fill="#6ABF41"/>
<path d="M381.053 365.681L428.944 315.187C428.944 315.187 428.423 331.584 400.313 370.106L381.053 365.681Z" fill="#50992D"/>
<path d="M440.79 501.445C427.607 492.069 416.008 480.646 406.433 467.608L422.31 454.854L402.008 460.841C395.199 450.524 389.856 439.312 386.131 427.525L409.817 416.073L383.008 416.593C378.762 399.487 377.878 381.72 380.405 364.277C476.968 415.292 440.79 501.445 440.79 501.445Z" fill="#50992D"/>
<path d="M514.969 450.169C514.969 450.169 497.53 453.813 469.941 441.84L470.721 440.279L474.886 415.812L460.831 437.676C450.04 431.921 439.841 425.121 430.378 417.374L439.748 394.729L422.31 410.607C406.784 396.647 392.741 381.121 380.405 364.277C380.405 364.277 477.489 347.358 514.969 450.169Z" fill="#6ABF41"/>
<path d="M881.735 757.59C883.751 757.59 885.384 755.957 885.384 753.941C885.384 751.926 883.751 750.292 881.735 750.292C879.72 750.292 878.086 751.926 878.086 753.941C878.086 755.957 879.72 757.59 881.735 757.59Z" fill="#CA8F16"/>
<path d="M774.861 804.511C775.437 804.511 775.904 804.044 775.904 803.468C775.904 802.892 775.437 802.425 774.861 802.425C774.285 802.425 773.818 802.892 773.818 803.468C773.818 804.044 774.285 804.511 774.861 804.511Z" fill="#CA8F16"/>
<path d="M1117.9 885.84C1119.05 885.84 1119.99 885.139 1119.99 884.276C1119.99 883.412 1119.05 882.712 1117.9 882.712C1116.75 882.712 1115.82 883.412 1115.82 884.276C1115.82 885.139 1116.75 885.84 1117.9 885.84Z" fill="#CA8F16"/>
<path d="M144.042 807.639C144.042 807.776 144.015 807.911 143.962 808.038C143.91 808.164 143.833 808.279 143.736 808.376C143.64 808.473 143.525 808.55 143.398 808.602C143.272 808.655 143.136 808.682 142.999 808.682C142.723 808.682 142.457 808.572 142.262 808.376C142.066 808.181 141.957 807.915 141.957 807.639C141.957 807.362 142.066 807.097 142.262 806.902C142.457 806.706 142.723 806.596 142.999 806.596C143.136 806.596 143.272 806.623 143.398 806.676C143.525 806.728 143.64 806.805 143.736 806.902C143.833 806.998 143.91 807.113 143.962 807.24C144.015 807.366 144.042 807.502 144.042 807.639Z" fill="#CA8F16"/>
<path d="M448.503 1148.75C448.426 1149.29 448.155 1149.78 447.742 1150.14C447.329 1150.49 446.802 1150.68 446.258 1150.68C445.747 1150.68 445.257 1150.48 444.896 1150.12C444.535 1149.75 444.333 1149.26 444.333 1148.75C444.327 1148.21 444.519 1147.68 444.873 1147.27C445.227 1146.86 445.719 1146.59 446.258 1146.51C446.853 1146.51 447.424 1146.75 447.845 1147.17C448.267 1147.59 448.503 1148.16 448.503 1148.75Z" fill="#CA8F16"/>
<path d="M764.434 1139.06C764.434 1139.38 764.246 1139.68 763.911 1139.9C763.575 1140.13 763.121 1140.25 762.647 1140.25C761.753 1140.25 761.306 1139.66 761.306 1139.06C761.306 1138.82 761.447 1138.6 761.699 1138.43C761.95 1138.26 762.291 1138.17 762.647 1138.17C763.54 1138.17 764.434 1138.47 764.434 1139.06Z" fill="#CA8F16"/>
<path d="M505.814 1155.68C505.868 1155.99 505.862 1156.31 505.796 1156.62C505.73 1156.93 505.607 1157.2 505.439 1157.43C505.27 1157.65 505.061 1157.82 504.832 1157.91C504.602 1157.99 504.36 1158 504.128 1157.93C503.284 1157.93 502.722 1157.18 502.722 1155.68C502.722 1155.18 502.87 1154.71 503.134 1154.36C503.398 1154 503.755 1153.81 504.128 1153.81C505.252 1153.81 505.814 1154.56 505.814 1155.68Z" fill="#CA8F16"/>
<path d="M588.222 894.181C588.222 894.457 588.128 894.723 587.96 894.918C587.792 895.114 587.565 895.224 587.328 895.224C586.732 895.224 586.136 894.876 586.136 894.181C586.136 893.486 586.732 893.138 587.328 893.138C587.565 893.138 587.792 893.248 587.96 893.444C588.128 893.639 588.222 893.904 588.222 894.181Z" fill="#CA8F16"/>
<path d="M794.672 1025.77C794.672 1026.18 794.324 1026.6 793.629 1026.6C792.934 1026.6 792.586 1026.18 792.586 1025.77C792.586 1025.43 792.696 1025.12 792.892 1024.88C793.087 1024.65 793.352 1024.52 793.629 1024.52C793.905 1024.52 794.171 1024.65 794.366 1024.88C794.562 1025.12 794.672 1025.43 794.672 1025.77Z" fill="#CA8F16"/>
<path d="M28.3048 641.693C28.3048 641.988 28.2374 642.28 28.1064 642.552C27.9754 642.825 27.7834 643.072 27.5414 643.281C27.2993 643.49 27.0119 643.655 26.6956 643.768C26.3793 643.881 26.0404 643.939 25.698 643.939C25.0067 643.939 24.3438 643.702 23.8549 643.281C23.3661 642.86 23.0915 642.289 23.0915 641.693C23.1816 641.155 23.4955 640.663 23.9749 640.309C24.4544 639.955 25.0666 639.763 25.698 639.768C26.3295 639.763 26.9419 639.955 27.4214 640.309C27.9008 640.663 28.2147 641.155 28.3048 641.693Z" fill="#CA8F16"/>
<path d="M605.947 792.346C605.953 792.753 605.863 793.15 605.693 793.467C605.524 793.785 605.286 794.003 605.02 794.084C604.713 794.084 604.418 793.901 604.201 793.575C603.984 793.249 603.862 792.807 603.862 792.346C603.916 791.948 604.062 791.591 604.273 791.337C604.485 791.083 604.749 790.948 605.02 790.956C605.266 790.956 605.502 791.103 605.676 791.364C605.849 791.624 605.947 791.978 605.947 792.346Z" fill="#CA8F16"/>
<path d="M1233.64 1149.12C1233.64 1149.53 1233.47 1149.93 1233.18 1150.22C1232.89 1150.51 1232.49 1150.68 1232.07 1150.68C1231.66 1150.68 1231.26 1150.51 1230.97 1150.22C1230.67 1149.93 1230.51 1149.53 1230.51 1149.12C1230.51 1148.7 1230.67 1148.3 1230.97 1148.01C1231.26 1147.72 1231.66 1147.55 1232.07 1147.55C1232.49 1147.55 1232.89 1147.72 1233.18 1148.01C1233.47 1148.3 1233.64 1148.7 1233.64 1149.12Z" fill="#CA8F16"/>
<path d="M142.999 916.077C144.151 916.077 145.085 915.144 145.085 913.992C145.085 912.84 144.151 911.906 142.999 911.906C141.847 911.906 140.914 912.84 140.914 913.992C140.914 915.144 141.847 916.077 142.999 916.077Z" fill="#CA8F16"/>
<path d="M1058.47 1110.01C1058.47 1110.79 1058.22 1111.53 1057.77 1112.11C1057.32 1112.69 1056.69 1113.06 1056.02 1113.14C1055.65 1113.14 1055.29 1113.06 1054.96 1112.9C1054.62 1112.75 1054.32 1112.52 1054.06 1112.23C1053.81 1111.94 1053.6 1111.59 1053.47 1111.21C1053.33 1110.83 1053.26 1110.43 1053.26 1110.01C1053.26 1109.19 1053.55 1108.39 1054.06 1107.8C1054.58 1107.22 1055.28 1106.89 1056.02 1106.89C1056.69 1106.97 1057.32 1107.34 1057.77 1107.92C1058.22 1108.49 1058.47 1109.24 1058.47 1110.01Z" fill="#CA8F16"/>
<path d="M1405.68 707.382C1405.69 707.926 1405.45 708.453 1405 708.866C1404.56 709.279 1403.95 709.55 1403.27 709.627C1402.53 709.627 1401.82 709.391 1401.29 708.97C1400.76 708.548 1400.47 707.977 1400.47 707.382C1400.56 706.843 1400.9 706.351 1401.42 705.997C1401.93 705.643 1402.59 705.451 1403.27 705.457C1403.91 705.457 1404.52 705.66 1404.97 706.021C1405.43 706.382 1405.68 706.871 1405.68 707.382Z" fill="#CA8F16"/>
<path d="M7.45132 1125.66C7.45132 1125.93 7.34159 1126.2 7.14605 1126.39C6.9505 1126.59 6.68519 1126.7 6.40864 1126.7C6.1321 1126.7 5.86679 1126.59 5.67124 1126.39C5.47569 1126.2 5.36597 1125.93 5.36597 1125.66C5.36597 1125.38 5.47569 1125.11 5.67124 1124.92C5.86679 1124.72 6.1321 1124.61 6.40864 1124.61C6.64827 1124.7 6.86593 1124.84 7.04613 1125.02C7.22632 1125.2 7.3646 1125.42 7.45132 1125.66Z" fill="#CA8F16"/>
<path d="M1371.79 1040.16C1373.81 1040.16 1375.44 1038.76 1375.44 1037.03C1375.44 1035.3 1373.81 1033.9 1371.79 1033.9C1369.78 1033.9 1368.14 1035.3 1368.14 1037.03C1368.14 1038.76 1369.78 1040.16 1371.79 1040.16Z" fill="#CA8F16"/>
<path d="M1208.61 1020.34C1209.19 1020.34 1209.66 1019.88 1209.66 1019.3C1209.66 1018.73 1209.19 1018.26 1208.61 1018.26C1208.04 1018.26 1207.57 1018.73 1207.57 1019.3C1207.57 1019.88 1208.04 1020.34 1208.61 1020.34Z" fill="#CA8F16"/>
<path d="M479.783 744.036C479.699 744.569 479.342 745.067 478.772 745.447C478.203 745.826 477.456 746.064 476.655 746.121C475.855 746.064 475.108 745.826 474.538 745.447C473.969 745.067 473.612 744.569 473.527 744.036C473.612 743.502 473.969 743.004 474.538 742.624C475.108 742.245 475.855 742.007 476.655 741.95C477.456 742.007 478.203 742.245 478.772 742.624C479.342 743.004 479.699 743.502 479.783 744.036Z" fill="#CA8F16"/>
<path d="M389.071 940.037C389.071 940.307 389.017 940.576 388.914 940.826C388.81 941.076 388.658 941.304 388.466 941.495C388.275 941.687 388.047 941.839 387.797 941.943C387.547 942.046 387.278 942.1 387.008 942.1C386.723 942.166 386.427 942.158 386.146 942.078C385.866 941.997 385.61 941.847 385.404 941.641C385.197 941.434 385.047 941.179 384.966 940.898C384.886 940.617 384.879 940.321 384.944 940.037C384.944 939.489 385.162 938.965 385.549 938.578C385.936 938.191 386.46 937.973 387.008 937.973C387.278 937.973 387.547 938.027 387.797 938.13C388.047 938.234 388.275 938.386 388.466 938.578C388.658 938.769 388.81 938.997 388.914 939.247C389.017 939.497 389.071 939.766 389.071 940.037Z" fill="#CA8F16"/>
<path d="M854.625 912.949C855.489 912.949 856.19 912.016 856.19 910.864C856.19 909.712 855.489 908.778 854.625 908.778C853.762 908.778 853.061 909.712 853.061 910.864C853.061 912.016 853.762 912.949 854.625 912.949Z" fill="#CA8F16"/>
<path d="M912.494 1150.68C912.494 1150.96 912.369 1151.22 912.145 1151.42C911.922 1151.61 911.618 1151.72 911.302 1151.72C910.707 1151.72 910.409 1151.2 910.409 1150.68C910.409 1150.16 910.707 1149.64 911.302 1149.64C911.618 1149.64 911.922 1149.75 912.145 1149.94C912.369 1150.14 912.494 1150.4 912.494 1150.68Z" fill="#CA8F16"/>
<path d="M236.84 1127.74C236.84 1128.85 236.42 1129.91 235.672 1130.69C234.923 1131.47 233.909 1131.91 232.851 1131.91C231.757 1131.92 230.701 1131.49 229.895 1130.72C229.088 1129.94 228.59 1128.88 228.499 1127.74C228.59 1126.6 229.088 1125.54 229.895 1124.77C230.701 1123.99 231.757 1123.57 232.851 1123.57C233.909 1123.57 234.923 1124.01 235.672 1124.79C236.42 1125.57 236.84 1126.63 236.84 1127.74Z" fill="#CA8F16"/>
<path d="M337.98 832.465C337.983 833.558 337.629 834.613 336.985 835.422C336.342 836.231 335.457 836.734 334.504 836.834C333.49 836.834 332.518 836.373 331.801 835.554C331.084 834.735 330.681 833.623 330.681 832.465C330.768 831.376 331.209 830.364 331.916 829.629C332.624 828.893 333.547 828.488 334.504 828.492C335.399 828.582 336.239 829.029 336.874 829.756C337.51 830.482 337.901 831.441 337.98 832.465Z" fill="#CA8F16"/>
<path d="M125.274 1162.67C125.274 1163.36 124.999 1164.02 124.51 1164.51C124.021 1165 123.358 1165.28 122.667 1165.28C121.976 1165.28 121.313 1165 120.824 1164.51C120.335 1164.02 120.06 1163.36 120.06 1162.67C120.06 1161.98 120.335 1161.32 120.824 1160.83C121.313 1160.34 121.976 1160.06 122.667 1160.06C123.358 1160.06 124.021 1160.34 124.51 1160.83C124.999 1161.32 125.274 1161.98 125.274 1162.67Z" fill="#CA8F16"/>
<path d="M1259.71 675.219C1259.71 675.772 1259.51 676.302 1259.15 676.693C1258.79 677.084 1258.31 677.304 1257.81 677.304C1257.27 677.312 1256.74 677.107 1256.32 676.724C1255.9 676.342 1255.62 675.808 1255.53 675.219C1255.62 674.63 1255.9 674.096 1256.32 673.714C1256.74 673.331 1257.27 673.126 1257.81 673.134C1258.31 673.134 1258.79 673.354 1259.15 673.745C1259.51 674.136 1259.71 674.666 1259.71 675.219Z" fill="#CA8F16"/>
<path d="M1237.81 794.605C1237.81 795.297 1237.63 795.96 1237.31 796.449C1236.99 796.937 1236.56 797.212 1236.1 797.212C1235.7 797.108 1235.34 796.789 1235.08 796.311C1234.82 795.833 1234.68 795.228 1234.68 794.605C1234.68 793.983 1234.82 793.378 1235.08 792.9C1235.34 792.422 1235.7 792.102 1236.1 791.999C1236.33 791.999 1236.55 792.066 1236.76 792.197C1236.96 792.328 1237.15 792.52 1237.31 792.762C1237.47 793.004 1237.59 793.292 1237.68 793.608C1237.76 793.924 1237.81 794.263 1237.81 794.605Z" fill="#CA8F16"/>
<path d="M1136.15 704.414C1137.59 704.414 1138.75 703.247 1138.75 701.807C1138.75 700.368 1137.59 699.201 1136.15 699.201C1134.71 699.201 1133.54 700.368 1133.54 701.807C1133.54 703.247 1134.71 704.414 1136.15 704.414Z" fill="#CA8F16"/>
<path d="M1048.04 794.268C1047.95 795.081 1047.56 795.832 1046.95 796.376C1046.35 796.919 1045.56 797.217 1044.74 797.212C1043.96 797.212 1043.22 796.902 1042.67 796.35C1042.12 795.798 1041.81 795.049 1041.81 794.268C1041.76 793.852 1041.79 793.429 1041.92 793.028C1042.04 792.627 1042.25 792.258 1042.53 791.944C1042.8 791.631 1043.15 791.38 1043.53 791.21C1043.91 791.039 1044.32 790.953 1044.74 790.956C1045.62 790.956 1046.46 791.305 1047.08 791.926C1047.69 792.547 1048.04 793.39 1048.04 794.268Z" fill="#CA8F16"/>
<path d="M694.53 733.587C694.596 733.871 694.589 734.167 694.508 734.448C694.428 734.729 694.278 734.984 694.071 735.191C693.865 735.397 693.609 735.548 693.329 735.628C693.048 735.708 692.752 735.716 692.467 735.65C691.92 735.65 691.395 735.432 691.008 735.046C690.621 734.659 690.404 734.134 690.404 733.587C690.404 733.04 690.621 732.515 691.008 732.128C691.395 731.741 691.92 731.524 692.467 731.524C693.014 731.524 693.539 731.741 693.926 732.128C694.313 732.515 694.53 733.04 694.53 733.587Z" fill="#CA8F16"/>
<path d="M1018.85 662.186C1018.85 663.087 1018.55 663.959 1018.01 664.633C1017.47 665.307 1016.72 665.735 1015.9 665.835C1015.02 665.835 1014.18 665.45 1013.56 664.766C1012.94 664.082 1012.59 663.153 1012.59 662.186C1012.59 661.218 1012.94 660.289 1013.56 659.605C1014.18 658.921 1015.02 658.536 1015.9 658.536C1016.72 658.636 1017.47 659.065 1018.01 659.738C1018.55 660.412 1018.85 661.284 1018.85 662.186Z" fill="#CA8F16"/>
<path d="M1391.6 828.492C1393.62 828.492 1395.25 826.625 1395.25 824.322C1395.25 822.018 1393.62 820.151 1391.6 820.151C1389.59 820.151 1387.95 822.018 1387.95 824.322C1387.95 826.625 1389.59 828.492 1391.6 828.492Z" fill="#CA8F16"/>
<path d="M34.5609 912.428C34.5609 912.843 34.3961 913.24 34.1028 913.534C33.8095 913.827 33.4117 913.992 32.9969 913.992C32.5821 913.992 32.1842 913.827 31.8909 913.534C31.5976 913.24 31.4329 912.843 31.4329 912.428C31.4329 912.013 31.5976 911.615 31.8909 911.322C32.1842 911.029 32.5821 910.864 32.9969 910.864C33.4117 910.864 33.8095 911.029 34.1028 911.322C34.3961 911.615 34.5609 912.013 34.5609 912.428Z" fill="#CA8F16"/>
<path d="M276.462 958.643C276.462 959.521 276.171 960.364 275.653 960.985C275.136 961.606 274.434 961.955 273.702 961.955C273.024 961.864 272.398 961.475 271.945 960.864C271.493 960.252 271.244 959.461 271.248 958.643C271.315 957.89 271.595 957.186 272.041 956.651C272.488 956.115 273.074 955.779 273.702 955.699C274.384 955.694 275.043 955.992 275.552 956.535C276.062 957.079 276.386 957.83 276.462 958.643Z" fill="#CA8F16"/>
<path d="M193.569 1026.6C195.584 1026.6 197.218 1024.97 197.218 1022.95C197.218 1020.94 195.584 1019.3 193.569 1019.3C191.553 1019.3 189.92 1020.94 189.92 1022.95C189.92 1024.97 191.553 1026.6 193.569 1026.6Z" fill="#CA8F16"/>
<path d="M6.40864 1008.02C6.32279 1008.83 5.95589 1009.58 5.37831 1010.12C4.80073 1010.67 4.05348 1010.97 3.28072 1010.96C2.50796 1010.97 1.76072 1010.67 1.18314 1010.12C0.605556 1009.58 0.238437 1008.83 0.152588 1008.02C0.152588 1007.14 0.482173 1006.3 1.0688 1005.67C1.65542 1005.05 2.45111 1004.7 3.28072 1004.7C4.11033 1004.7 4.90602 1005.05 5.49265 1005.67C6.07927 1006.3 6.40864 1007.14 6.40864 1008.02Z" fill="#CA8F16"/>
<path d="M930.22 1013.57C930.22 1013.98 930.055 1014.38 929.761 1014.67C929.468 1014.97 929.07 1015.13 928.656 1015.13C928.241 1015.13 927.843 1014.97 927.55 1014.67C927.256 1014.38 927.091 1013.98 927.091 1013.57C927.091 1013.15 927.256 1012.75 927.55 1012.46C927.843 1012.17 928.241 1012 928.656 1012C929.07 1012 929.468 1012.17 929.761 1012.46C930.055 1012.75 930.22 1013.15 930.22 1013.57Z" fill="#CA8F16"/>
<path d="M1358.76 924.246C1358.76 924.816 1358.65 925.381 1358.43 925.908C1358.21 926.435 1357.89 926.914 1357.49 927.317C1357.08 927.72 1356.6 928.04 1356.08 928.259C1355.55 928.477 1354.99 928.589 1354.42 928.589C1353.86 928.592 1353.31 928.478 1352.8 928.256C1352.3 928.033 1351.84 927.707 1351.46 927.298C1351.09 926.889 1350.8 926.406 1350.63 925.881C1350.45 925.355 1350.38 924.798 1350.43 924.246C1350.43 923.19 1350.85 922.177 1351.6 921.431C1352.35 920.684 1353.36 920.264 1354.42 920.264C1354.97 920.214 1355.53 920.28 1356.05 920.457C1356.58 920.634 1357.06 920.92 1357.47 921.294C1357.88 921.669 1358.2 922.125 1358.43 922.634C1358.65 923.142 1358.76 923.691 1358.76 924.246Z" fill="#CA8F16"/>
<path d="M476.655 874.519C476.655 874.756 476.514 874.983 476.263 875.151C476.011 875.319 475.67 875.413 475.315 875.413C474.421 875.413 473.527 875.115 473.527 874.519C473.527 874.203 473.716 873.9 474.051 873.676C474.386 873.453 474.841 873.327 475.315 873.327C476.209 873.327 476.655 873.923 476.655 874.519Z" fill="#CA8F16"/>
<path d="M707.087 908.778C707.663 908.778 708.13 908.545 708.13 908.257C708.13 907.969 707.663 907.736 707.087 907.736C706.511 907.736 706.044 907.969 706.044 908.257C706.044 908.545 706.511 908.778 707.087 908.778Z" fill="#CA8F16"/>
<path d="M578.838 1017.22C579.989 1017.22 580.923 1016.28 580.923 1015.13C580.923 1013.98 579.989 1013.05 578.838 1013.05C577.686 1013.05 576.752 1013.98 576.752 1015.13C576.752 1016.28 577.686 1017.22 578.838 1017.22Z" fill="#CA8F16"/>
<path d="M79.396 1054.75C79.9718 1054.75 80.4386 1054.29 80.4386 1053.71C80.4386 1053.13 79.9718 1052.67 79.396 1052.67C78.8201 1052.67 78.3533 1053.13 78.3533 1053.71C78.3533 1054.29 78.8201 1054.75 79.396 1054.75Z" fill="#CA8F16"/>
<path d="M437.555 1032.86C438.995 1032.86 440.162 1031.46 440.162 1029.73C440.162 1028 438.995 1026.6 437.555 1026.6C436.115 1026.6 434.948 1028 434.948 1029.73C434.948 1031.46 436.115 1032.86 437.555 1032.86Z" fill="#CA8F16"/>
<path d="M1419.76 1171.53C1421.2 1171.53 1422.36 1170.6 1422.36 1169.45C1422.36 1168.3 1421.2 1167.36 1419.76 1167.36C1418.32 1167.36 1417.15 1168.3 1417.15 1169.45C1417.15 1170.6 1418.32 1171.53 1419.76 1171.53Z" fill="#CA8F16"/>
<path d="M963.585 856.096C963.585 857.815 963.023 858.674 962.18 858.674C961.947 858.757 961.705 858.747 961.476 858.647C961.246 858.547 961.037 858.359 960.869 858.101C960.7 857.843 960.577 857.523 960.511 857.172C960.446 856.822 960.44 856.451 960.493 856.096C960.493 855.757 960.537 855.422 960.622 855.109C960.707 854.796 960.831 854.511 960.987 854.272C961.144 854.033 961.33 853.843 961.534 853.713C961.739 853.583 961.958 853.517 962.18 853.517C962.577 853.619 962.937 853.936 963.194 854.409C963.452 854.882 963.591 855.48 963.585 856.096Z" fill="#CA8F16"/>
<path d="M242.575 779.487C243.439 779.487 244.139 778.786 244.139 777.923C244.139 777.059 243.439 776.359 242.575 776.359C241.711 776.359 241.011 777.059 241.011 777.923C241.011 778.786 241.711 779.487 242.575 779.487Z" fill="#CA8F16"/>
<path d="M1238.85 898.873C1238.85 899.288 1238.69 899.686 1238.39 899.979C1238.1 900.272 1237.7 900.437 1237.29 900.437C1236.87 900.437 1236.47 900.272 1236.18 899.979C1235.89 899.686 1235.72 899.288 1235.72 898.873C1235.72 898.458 1235.89 898.06 1236.18 897.767C1236.47 897.474 1236.87 897.309 1237.29 897.309C1237.7 897.309 1238.1 897.474 1238.39 897.767C1238.69 898.06 1238.85 898.458 1238.85 898.873Z" fill="#CA8F16"/>
<path d="M108.591 695.03C109.743 695.03 110.676 694.33 110.676 693.466C110.676 692.602 109.743 691.902 108.591 691.902C107.439 691.902 106.506 692.602 106.506 693.466C106.506 694.33 107.439 695.03 108.591 695.03Z" fill="#CA8F16"/>
<path d="M341.108 1147.55C341.108 1147.83 340.998 1148.09 340.802 1148.29C340.607 1148.48 340.341 1148.59 340.065 1148.59C339.788 1148.59 339.523 1148.48 339.328 1148.29C339.132 1148.09 339.022 1147.83 339.022 1147.55C339.022 1147.27 339.132 1147.01 339.328 1146.81C339.523 1146.62 339.788 1146.51 340.065 1146.51C340.341 1146.51 340.607 1146.62 340.802 1146.81C340.998 1147.01 341.108 1147.27 341.108 1147.55Z" fill="#CA8F16"/>
<path d="M505.85 1066.39C505.853 1066.81 505.785 1067.23 505.651 1067.61C505.517 1067.99 505.32 1068.33 505.073 1068.61C504.826 1068.89 504.535 1069.1 504.219 1069.22C503.904 1069.34 503.571 1069.38 503.244 1069.33C502.916 1069.38 502.583 1069.34 502.268 1069.22C501.952 1069.1 501.662 1068.89 501.415 1068.61C501.168 1068.33 500.971 1067.99 500.837 1067.61C500.703 1067.23 500.634 1066.81 500.637 1066.39C500.637 1065.52 500.912 1064.68 501.401 1064.06C501.889 1063.44 502.552 1063.09 503.244 1063.09C503.935 1063.09 504.598 1063.44 505.087 1064.06C505.576 1064.68 505.85 1065.52 505.85 1066.39Z" fill="#CA8F16"/>
<path d="M28.2876 779.305C28.3402 779.859 28.2719 780.417 28.0869 780.944C27.9019 781.47 27.6043 781.954 27.2132 782.364C26.8221 782.773 26.3461 783.1 25.8159 783.323C25.2857 783.546 24.713 783.66 24.1342 783.657C23.5555 783.66 22.9825 783.546 22.4523 783.323C21.9221 783.1 21.4463 782.773 21.0553 782.364C20.6642 781.954 20.3666 781.47 20.1816 780.944C19.9965 780.417 19.928 779.859 19.9806 779.305C19.9806 778.781 20.0881 778.263 20.2968 777.779C20.5055 777.295 20.8115 776.855 21.1972 776.484C21.5829 776.114 22.0408 775.82 22.5447 775.62C23.0487 775.419 23.5888 775.316 24.1342 775.316C24.6797 775.316 25.2198 775.419 25.7237 775.62C26.2277 775.82 26.6856 776.114 27.0712 776.484C27.4569 776.855 27.7627 777.295 27.9714 777.779C28.1802 778.263 28.2876 778.781 28.2876 779.305Z" fill="#CA8F16"/>
<path d="M1083.49 993.745C1083.49 994.71 1083.16 995.635 1082.58 996.317C1081.99 997 1081.2 997.383 1080.37 997.383C1079.95 997.441 1079.53 997.388 1079.12 997.225C1078.72 997.063 1078.36 996.797 1078.06 996.447C1077.76 996.097 1077.53 995.672 1077.39 995.204C1077.25 994.736 1077.21 994.237 1077.26 993.745C1077.26 992.78 1077.59 991.855 1078.17 991.173C1078.75 990.49 1079.55 990.107 1080.37 990.107C1081.18 990.189 1081.93 990.599 1082.5 991.264C1083.07 991.929 1083.42 992.808 1083.49 993.745Z" fill="#CA8F16"/>
<path d="M540.78 1372.77C538.765 1372.77 537.131 1371.14 537.131 1369.12C537.131 1367.1 538.765 1365.47 540.78 1365.47C542.796 1365.47 544.429 1367.1 544.429 1369.12C544.429 1371.14 542.796 1372.77 540.78 1372.77Z" fill="#CA8F16"/>
<path d="M647.654 1419.69C647.079 1419.69 646.612 1419.22 646.612 1418.65C646.612 1418.07 647.079 1417.6 647.654 1417.6C648.23 1417.6 648.697 1418.07 648.697 1418.65C648.697 1419.22 648.23 1419.69 647.654 1419.69Z" fill="#CA8F16"/>
<path d="M846.805 1276.55C846.805 1277.44 847.401 1277.89 847.997 1277.89C848.234 1277.89 848.461 1277.74 848.629 1277.49C848.797 1277.24 848.891 1276.9 848.891 1276.55C848.891 1275.65 848.593 1274.76 847.997 1274.76C847.681 1274.76 847.378 1274.95 847.154 1275.28C846.931 1275.62 846.805 1276.07 846.805 1276.55Z" fill="#CA8F16"/>
<path d="M304.614 1501.02C303.462 1501.02 302.529 1500.32 302.529 1499.45C302.529 1498.59 303.462 1497.89 304.614 1497.89C305.766 1497.89 306.699 1498.59 306.699 1499.45C306.699 1500.32 305.766 1501.02 304.614 1501.02Z" fill="#CA8F16"/>
<path d="M1278.47 1422.82C1278.47 1422.95 1278.5 1423.09 1278.55 1423.22C1278.61 1423.34 1278.68 1423.46 1278.78 1423.55C1278.88 1423.65 1278.99 1423.73 1279.12 1423.78C1279.24 1423.83 1279.38 1423.86 1279.52 1423.86C1279.79 1423.86 1280.06 1423.75 1280.25 1423.55C1280.45 1423.36 1280.56 1423.09 1280.56 1422.82C1280.56 1422.54 1280.45 1422.28 1280.25 1422.08C1280.06 1421.88 1279.79 1421.77 1279.52 1421.77C1279.38 1421.77 1279.24 1421.8 1279.12 1421.85C1278.99 1421.91 1278.88 1421.98 1278.78 1422.08C1278.68 1422.18 1278.61 1422.29 1278.55 1422.42C1278.5 1422.55 1278.47 1422.68 1278.47 1422.82Z" fill="#CA8F16"/>
<path d="M834.293 1509.36C834.293 1509.64 834.387 1509.9 834.555 1510.1C834.723 1510.29 834.95 1510.4 835.187 1510.4C835.783 1510.4 836.379 1510.05 836.379 1509.36C836.379 1508.66 835.783 1508.32 835.187 1508.32C834.95 1508.32 834.723 1508.43 834.555 1508.62C834.387 1508.82 834.293 1509.08 834.293 1509.36Z" fill="#CA8F16"/>
<path d="M1394.21 1256.87C1394.21 1257.17 1394.28 1257.46 1394.41 1257.73C1394.54 1258 1394.73 1258.25 1394.97 1258.46C1395.22 1258.67 1395.5 1258.83 1395.82 1258.95C1396.14 1259.06 1396.47 1259.12 1396.82 1259.12C1397.51 1259.12 1398.17 1258.88 1398.66 1258.46C1399.15 1258.04 1399.42 1257.47 1399.42 1256.87C1399.33 1256.33 1399.02 1255.84 1398.54 1255.49C1398.06 1255.13 1397.45 1254.94 1396.82 1254.95C1396.19 1254.94 1395.57 1255.13 1395.09 1255.49C1394.61 1255.84 1394.3 1256.33 1394.21 1256.87Z" fill="#CA8F16"/>
<path d="M816.568 1407.53C816.563 1407.93 816.652 1408.33 816.822 1408.65C816.991 1408.96 817.229 1409.18 817.495 1409.26C817.802 1409.26 818.097 1409.08 818.314 1408.75C818.531 1408.43 818.653 1407.99 818.653 1407.53C818.599 1407.13 818.453 1406.77 818.242 1406.52C818.03 1406.26 817.766 1406.13 817.495 1406.14C817.249 1406.14 817.013 1406.28 816.84 1406.54C816.666 1406.8 816.568 1407.16 816.568 1407.53Z" fill="#CA8F16"/>
<path d="M1279.52 1531.26C1278.36 1531.26 1277.43 1530.32 1277.43 1529.17C1277.43 1528.02 1278.36 1527.09 1279.52 1527.09C1280.67 1527.09 1281.6 1528.02 1281.6 1529.17C1281.6 1530.32 1280.67 1531.26 1279.52 1531.26Z" fill="#CA8F16"/>
<path d="M16.8356 1322.56C16.8286 1323.1 17.0687 1323.63 17.5112 1324.04C17.9538 1324.46 18.5687 1324.73 19.2417 1324.81C19.9862 1324.81 20.7002 1324.57 21.2266 1324.15C21.7531 1323.73 22.0488 1323.16 22.0488 1322.56C21.9517 1322.02 21.6136 1321.53 21.0973 1321.18C20.581 1320.82 19.9217 1320.63 19.2417 1320.64C18.6036 1320.64 17.9915 1320.84 17.5403 1321.2C17.0891 1321.56 16.8356 1322.05 16.8356 1322.56Z" fill="#CA8F16"/>
<path d="M942.732 1359.21C942.817 1359.75 943.173 1360.25 943.743 1360.63C944.312 1361.01 945.059 1361.24 945.86 1361.3C946.66 1361.24 947.407 1361.01 947.977 1360.63C948.546 1360.25 948.903 1359.75 948.988 1359.21C948.903 1358.68 948.546 1358.18 947.977 1357.8C947.407 1357.42 946.66 1357.19 945.86 1357.13C945.059 1357.19 944.312 1357.42 943.743 1357.8C943.173 1358.18 942.817 1358.68 942.732 1359.21Z" fill="#CA8F16"/>
<path d="M1033.44 1555.22C1033.44 1555.49 1033.5 1555.75 1033.6 1556C1033.71 1556.26 1033.86 1556.48 1034.05 1556.67C1034.24 1556.87 1034.47 1557.02 1034.72 1557.12C1034.97 1557.23 1035.24 1557.28 1035.51 1557.28C1035.79 1557.34 1036.09 1557.34 1036.37 1557.26C1036.65 1557.18 1036.91 1557.03 1037.11 1556.82C1037.32 1556.61 1037.47 1556.36 1037.55 1556.08C1037.63 1555.8 1037.64 1555.5 1037.57 1555.22C1037.57 1554.67 1037.35 1554.14 1036.97 1553.76C1036.58 1553.37 1036.05 1553.15 1035.51 1553.15C1035.24 1553.15 1034.97 1553.21 1034.72 1553.31C1034.47 1553.41 1034.24 1553.56 1034.05 1553.76C1033.86 1553.95 1033.71 1554.18 1033.6 1554.43C1033.5 1554.68 1033.44 1554.94 1033.44 1555.22Z" fill="#CA8F16"/>
<path d="M567.89 1528.13C567.026 1528.13 566.326 1527.19 566.326 1526.04C566.326 1524.89 567.026 1523.96 567.89 1523.96C568.753 1523.96 569.454 1524.89 569.454 1526.04C569.454 1527.19 568.753 1528.13 567.89 1528.13Z" fill="#CA8F16"/>
<path d="M1084.54 1447.64C1084.53 1448.74 1084.89 1449.79 1085.53 1450.6C1086.17 1451.41 1087.06 1451.91 1088.01 1452.01C1089.03 1452.01 1090 1451.55 1090.71 1450.73C1091.43 1449.91 1091.83 1448.8 1091.83 1447.64C1091.75 1446.55 1091.31 1445.54 1090.6 1444.81C1089.89 1444.07 1088.97 1443.67 1088.01 1443.67C1087.12 1443.76 1086.28 1444.21 1085.64 1444.93C1085.01 1445.66 1084.61 1446.62 1084.54 1447.64Z" fill="#CA8F16"/>
<path d="M1003.73 1255.99C1002.86 1255.99 1002.16 1255.29 1002.16 1254.43C1002.16 1253.56 1002.86 1252.86 1003.73 1252.86C1004.59 1252.86 1005.29 1253.56 1005.29 1254.43C1005.29 1255.29 1004.59 1255.99 1003.73 1255.99Z" fill="#CA8F16"/>
<path d="M162.81 1290.4C162.81 1290.95 163.01 1291.48 163.365 1291.87C163.721 1292.26 164.203 1292.48 164.706 1292.48C165.249 1292.49 165.777 1292.29 166.194 1291.9C166.611 1291.52 166.89 1290.99 166.981 1290.4C166.89 1289.81 166.611 1289.27 166.194 1288.89C165.777 1288.51 165.249 1288.3 164.706 1288.31C164.203 1288.31 163.721 1288.53 163.365 1288.92C163.01 1289.31 162.81 1289.84 162.81 1290.4Z" fill="#CA8F16"/>
<path d="M184.706 1409.78C184.706 1410.48 184.886 1411.14 185.206 1411.63C185.526 1412.12 185.96 1412.39 186.412 1412.39C186.814 1412.29 187.178 1411.97 187.439 1411.49C187.7 1411.01 187.84 1410.41 187.834 1409.78C187.84 1409.16 187.7 1408.56 187.439 1408.08C187.178 1407.6 186.814 1407.28 186.412 1407.18C186.188 1407.18 185.966 1407.24 185.759 1407.38C185.552 1407.51 185.364 1407.7 185.206 1407.94C185.047 1408.18 184.922 1408.47 184.836 1408.79C184.75 1409.1 184.706 1409.44 184.706 1409.78Z" fill="#CA8F16"/>
<path d="M286.367 1319.59C284.928 1319.59 283.76 1318.43 283.76 1316.99C283.76 1315.55 284.928 1314.38 286.367 1314.38C287.807 1314.38 288.974 1315.55 288.974 1316.99C288.974 1318.43 287.807 1319.59 286.367 1319.59Z" fill="#CA8F16"/>
<path d="M374.473 1409.45C374.564 1410.26 374.951 1411.01 375.56 1411.55C376.17 1412.1 376.958 1412.4 377.773 1412.39C378.551 1412.39 379.297 1412.08 379.847 1411.53C380.397 1410.98 380.706 1410.23 380.706 1409.45C380.759 1409.03 380.722 1408.61 380.598 1408.21C380.474 1407.81 380.266 1407.44 379.988 1407.12C379.711 1406.81 379.369 1406.56 378.987 1406.39C378.605 1406.22 378.191 1406.13 377.773 1406.13C376.898 1406.13 376.059 1406.48 375.44 1407.1C374.821 1407.73 374.473 1408.57 374.473 1409.45Z" fill="#CA8F16"/>
<path d="M727.985 1348.77C727.919 1349.05 727.926 1349.35 728.007 1349.63C728.087 1349.91 728.238 1350.16 728.444 1350.37C728.65 1350.58 728.906 1350.73 729.187 1350.81C729.467 1350.89 729.764 1350.89 730.048 1350.83C730.595 1350.83 731.12 1350.61 731.507 1350.22C731.894 1349.84 732.111 1349.31 732.111 1348.77C732.111 1348.22 731.894 1347.69 731.507 1347.31C731.12 1346.92 730.595 1346.7 730.048 1346.7C729.501 1346.7 728.976 1346.92 728.589 1347.31C728.202 1347.69 727.985 1348.22 727.985 1348.77Z" fill="#CA8F16"/>
<path d="M403.668 1277.36C403.663 1278.27 403.961 1279.14 404.505 1279.81C405.048 1280.49 405.799 1280.91 406.612 1281.01C407.491 1281.01 408.333 1280.63 408.954 1279.94C409.575 1279.26 409.924 1278.33 409.924 1277.36C409.924 1276.4 409.575 1275.47 408.954 1274.78C408.333 1274.1 407.491 1273.71 406.612 1273.71C405.799 1273.82 405.048 1274.24 404.505 1274.92C403.961 1275.59 403.663 1276.46 403.668 1277.36Z" fill="#CA8F16"/>
<path d="M30.9115 1443.67C28.896 1443.67 27.2622 1441.8 27.2622 1439.5C27.2622 1437.2 28.896 1435.33 30.9115 1435.33C32.927 1435.33 34.5609 1437.2 34.5609 1439.5C34.5609 1441.8 32.927 1443.67 30.9115 1443.67Z" fill="#CA8F16"/>
<path d="M49.1585 1238.1C49.1515 1238.65 49.3916 1239.18 49.8341 1239.59C50.2766 1240 50.8915 1240.27 51.5646 1240.35C52.3091 1240.35 53.0231 1240.11 53.5495 1239.69C54.0759 1239.27 54.3717 1238.7 54.3717 1238.1C54.2746 1237.57 53.9365 1237.07 53.4202 1236.72C52.9039 1236.37 52.2445 1236.17 51.5646 1236.18C50.9264 1236.18 50.3144 1236.38 49.8632 1236.74C49.4119 1237.1 49.1585 1237.59 49.1585 1238.1Z" fill="#CA8F16"/>
<path d="M1387.95 1527.61C1387.95 1528.02 1388.12 1528.42 1388.41 1528.71C1388.71 1529.01 1389.1 1529.17 1389.52 1529.17C1389.93 1529.17 1390.33 1529.01 1390.62 1528.71C1390.92 1528.42 1391.08 1528.02 1391.08 1527.61C1391.08 1527.19 1390.92 1526.79 1390.62 1526.5C1390.33 1526.21 1389.93 1526.04 1389.52 1526.04C1389.1 1526.04 1388.71 1526.21 1388.41 1526.5C1388.12 1526.79 1387.95 1527.19 1387.95 1527.61Z" fill="#CA8F16"/>
<path d="M1146.05 1573.82C1146.05 1574.7 1146.34 1575.54 1146.86 1576.16C1147.38 1576.78 1148.08 1577.13 1148.81 1577.13C1149.49 1577.04 1150.12 1576.65 1150.57 1576.04C1151.02 1575.43 1151.27 1574.64 1151.27 1573.82C1151.2 1573.07 1150.92 1572.36 1150.47 1571.83C1150.03 1571.29 1149.44 1570.96 1148.81 1570.88C1148.13 1570.87 1147.47 1571.17 1146.96 1571.71C1146.45 1572.26 1146.13 1573.01 1146.05 1573.82Z" fill="#CA8F16"/>
<path d="M1114.77 1297.38C1114.77 1298.01 1114.99 1298.63 1115.38 1299.08C1115.77 1299.53 1116.31 1299.78 1116.86 1299.78C1117.41 1299.78 1117.94 1299.53 1118.33 1299.08C1118.72 1298.63 1118.94 1298.01 1118.94 1297.38C1118.94 1295.77 1118.25 1294.57 1116.86 1294.57C1115.47 1294.57 1114.77 1295.77 1114.77 1297.38Z" fill="#CA8F16"/>
<path d="M63.7559 1539.42C63.7559 1539.99 63.8683 1540.56 64.0866 1541.09C64.3048 1541.61 64.6247 1542.09 65.028 1542.5C65.4314 1542.9 65.9102 1543.22 66.4372 1543.44C66.9641 1543.66 67.5289 1543.77 68.0993 1543.77C68.6541 1543.77 69.2032 1543.66 69.7114 1543.43C70.2197 1543.21 70.6759 1542.89 71.0508 1542.48C71.4256 1542.07 71.7109 1541.59 71.8883 1541.06C72.0656 1540.53 72.1312 1539.98 72.0808 1539.42C72.0808 1538.37 71.6613 1537.36 70.9146 1536.61C70.1679 1535.86 69.1552 1535.44 68.0993 1535.44C67.5468 1535.39 66.9899 1535.46 66.4643 1535.64C65.9386 1535.81 65.4559 1536.1 65.0469 1536.47C64.638 1536.85 64.3119 1537.3 64.0896 1537.81C63.8673 1538.32 63.7536 1538.87 63.7559 1539.42Z" fill="#CA8F16"/>
<path d="M945.86 1489.7C945.86 1489.93 946.001 1490.16 946.252 1490.33C946.504 1490.5 946.845 1490.59 947.2 1490.59C948.094 1490.59 948.988 1490.29 948.988 1489.7C948.988 1489.38 948.799 1489.08 948.464 1488.86C948.129 1488.63 947.674 1488.51 947.2 1488.51C946.307 1488.51 945.86 1489.1 945.86 1489.7Z" fill="#CA8F16"/>
<path d="M715.428 1523.96C714.852 1523.96 714.386 1523.72 714.386 1523.44C714.386 1523.15 714.852 1522.91 715.428 1522.91C716.004 1522.91 716.471 1523.15 716.471 1523.44C716.471 1523.72 716.004 1523.96 715.428 1523.96Z" fill="#CA8F16"/>
<path d="M573.624 1265.37C573.624 1266.2 573.954 1267 574.541 1267.59C575.127 1268.17 575.923 1268.5 576.752 1268.5C577.582 1268.5 578.378 1268.17 578.964 1267.59C579.551 1267 579.88 1266.2 579.88 1265.37C579.88 1264.54 579.551 1263.75 578.964 1263.16C578.378 1262.58 577.582 1262.25 576.752 1262.25C575.923 1262.25 575.127 1262.58 574.541 1263.16C573.954 1263.75 573.624 1264.54 573.624 1265.37Z" fill="#CA8F16"/>
<path d="M717.514 1252.17C717.51 1253.12 717.864 1254.05 718.508 1254.75C719.151 1255.46 720.037 1255.9 720.989 1255.99C722.003 1255.99 722.976 1255.59 723.693 1254.87C724.41 1254.15 724.812 1253.18 724.812 1252.17C724.725 1251.21 724.285 1250.33 723.577 1249.68C722.869 1249.04 721.946 1248.69 720.989 1248.69C720.094 1248.77 719.255 1249.16 718.619 1249.8C717.983 1250.43 717.592 1251.27 717.514 1252.17Z" fill="#CA8F16"/>
<path d="M458.93 1471.27C458.93 1472.99 459.492 1473.85 460.335 1473.85C460.568 1473.94 460.81 1473.93 461.039 1473.83C461.269 1473.73 461.478 1473.54 461.646 1473.28C461.815 1473.02 461.938 1472.7 462.004 1472.35C462.069 1472 462.076 1471.63 462.022 1471.27C462.022 1470.94 461.978 1470.6 461.893 1470.29C461.809 1469.97 461.684 1469.69 461.528 1469.45C461.371 1469.21 461.185 1469.02 460.981 1468.89C460.776 1468.76 460.557 1468.7 460.335 1468.7C459.938 1468.8 459.579 1469.11 459.321 1469.59C459.063 1470.06 458.925 1470.66 458.93 1471.27Z" fill="#CA8F16"/>
<path d="M1232.07 1257.03C1230.06 1257.03 1228.42 1255.4 1228.42 1253.38C1228.42 1251.37 1230.06 1249.73 1232.07 1249.73C1234.09 1249.73 1235.72 1251.37 1235.72 1253.38C1235.72 1255.4 1234.09 1257.03 1232.07 1257.03Z" fill="#CA8F16"/>
<path d="M1179.94 1394.67C1179.08 1394.67 1178.38 1393.97 1178.38 1393.1C1178.38 1392.24 1179.08 1391.54 1179.94 1391.54C1180.8 1391.54 1181.5 1392.24 1181.5 1393.1C1181.5 1393.97 1180.8 1394.67 1179.94 1394.67Z" fill="#CA8F16"/>
<path d="M183.664 1514.05C183.664 1514.47 183.828 1514.86 184.122 1515.16C184.415 1515.45 184.813 1515.62 185.228 1515.62C185.642 1515.62 186.04 1515.45 186.333 1515.16C186.627 1514.86 186.792 1514.47 186.792 1514.05C186.792 1513.64 186.627 1513.24 186.333 1512.95C186.04 1512.65 185.642 1512.49 185.228 1512.49C184.813 1512.49 184.415 1512.65 184.122 1512.95C183.828 1513.24 183.664 1513.64 183.664 1514.05Z" fill="#CA8F16"/>
<path d="M1313.92 1310.21C1312.77 1310.21 1311.84 1309.51 1311.84 1308.64C1311.84 1307.78 1312.77 1307.08 1313.92 1307.08C1315.08 1307.08 1316.01 1307.78 1316.01 1308.64C1316.01 1309.51 1315.08 1310.21 1313.92 1310.21Z" fill="#CA8F16"/>
<path d="M1394.23 1394.48C1394.17 1395.04 1394.24 1395.6 1394.43 1396.12C1394.61 1396.65 1394.91 1397.13 1395.3 1397.54C1395.69 1397.95 1396.17 1398.28 1396.7 1398.5C1397.23 1398.72 1397.8 1398.84 1398.38 1398.84C1398.96 1398.84 1399.53 1398.72 1400.06 1398.5C1400.59 1398.28 1401.07 1397.95 1401.46 1397.54C1401.85 1397.13 1402.15 1396.65 1402.33 1396.12C1402.52 1395.6 1402.59 1395.04 1402.53 1394.48C1402.53 1393.96 1402.43 1393.44 1402.22 1392.96C1402.01 1392.47 1401.7 1392.03 1401.32 1391.66C1400.93 1391.29 1400.47 1391 1399.97 1390.8C1399.47 1390.6 1398.93 1390.49 1398.38 1390.49C1397.84 1390.49 1397.3 1390.6 1396.79 1390.8C1396.29 1391 1395.83 1391.29 1395.44 1391.66C1395.06 1392.03 1394.75 1392.47 1394.54 1392.96C1394.33 1393.44 1394.23 1393.96 1394.23 1394.48Z" fill="#CA8F16"/>
<path d="M111.538 228.769L128.366 241.86C134.062 246.292 135.085 254.498 130.651 260.19L107.134 290.378C102.699 296.071 94.4868 297.093 88.7906 292.661L71.9627 279.57C66.2665 275.139 65.2436 266.932 69.678 261.24L93.1949 231.052C97.6293 225.36 105.842 224.338 111.538 228.769Z" fill="#AA7405"/>
<g style="mix-blend-mode:multiply" opacity="0.2">
<path d="M111.637 229.005L129.179 242.755C130.478 243.761 131.564 245.017 132.373 246.447C133.181 247.878 133.697 249.455 133.889 251.087C134.081 252.719 133.946 254.373 133.492 255.952C133.037 257.531 132.273 259.004 131.243 260.285L125.052 268.534C127.045 265.913 127.943 262.622 127.558 259.353C127.173 256.084 125.535 253.091 122.988 251.004L105.445 237.255C102.739 235.321 99.41 234.461 96.1047 234.842C92.7994 235.223 89.7538 236.818 87.5593 239.317L94.0946 231.411C96.1339 228.813 99.1045 227.109 102.378 226.66C105.652 226.211 108.972 227.052 111.637 229.005Z" fill="#231005"/>
</g>
<path d="M75.8572 270.392L96.0573 277.224C102.895 279.537 106.562 286.951 104.247 293.784L91.9732 330.021C89.6588 336.854 82.2396 340.519 75.4019 338.206L55.2018 331.373C48.3641 329.06 44.6973 321.646 47.0117 314.813L59.2859 278.576C61.6003 271.743 69.0195 268.079 75.8572 270.392Z" fill="#AA7405"/>
<path d="M75.1765 270.253L96.5024 277.471C98.0678 277.97 99.5145 278.783 100.753 279.862C101.992 280.94 102.997 282.261 103.706 283.742C104.415 285.223 104.813 286.834 104.875 288.475C104.938 290.115 104.664 291.751 104.07 293.282L100.974 302.907C101.964 299.76 101.693 296.353 100.217 293.403C98.7408 290.453 96.1757 288.191 93.0628 287.095L72.0809 280.221C70.549 279.627 68.9117 279.353 67.2698 279.416C65.628 279.478 64.0163 279.876 62.5341 280.584C61.0518 281.293 59.7304 282.297 58.6511 283.535C57.5718 284.773 56.7575 286.218 56.2584 287.783L59.3541 278.158C60.4509 275.047 62.714 272.484 65.6661 271.009C68.6181 269.534 72.0281 269.263 75.1765 270.253Z" fill="#B78622"/>
<path d="M55.9894 317.479L82.4409 318.818C89.6504 319.183 95.1988 325.319 94.8336 332.524L92.5261 378.044C92.1608 385.248 86.0203 390.793 78.8108 390.428L52.3593 389.089C45.1498 388.724 39.6015 382.587 39.9667 375.383L42.2742 329.863C42.6394 322.659 48.7799 317.114 55.9894 317.479Z" fill="#AA7405"/>
<path d="M57.2794 317L82.0449 318.374C83.8833 318.461 85.6857 318.915 87.3453 319.71C89.0048 320.506 90.4879 321.625 91.7066 323.004C92.9254 324.382 93.8551 325.99 94.4406 327.734C95.0262 329.477 95.2557 331.321 95.1156 333.155L94.4277 344.498C94.6172 340.815 93.3548 337.205 90.9112 334.441C88.4676 331.678 85.0376 329.982 81.357 329.717L56.5914 328.686C52.928 328.582 49.3621 329.874 46.6159 332.299C43.8697 334.724 42.1485 338.102 41.8009 341.748L42.4888 330.405C42.577 328.553 43.0298 326.738 43.8213 325.061C44.6127 323.385 45.7273 321.881 47.1012 320.636C48.475 319.391 50.0813 318.428 51.8278 317.804C53.5743 317.18 55.4269 316.907 57.2794 317Z" fill="#B78622"/>
<path d="M50.194 374.756L76.4145 370.521C83.561 369.367 90.2908 374.221 91.4458 381.362L98.7434 426.484C99.8984 433.626 95.0412 440.351 87.8947 441.505L61.6742 445.74C54.5276 446.894 47.7979 442.041 46.6429 434.899L39.3453 389.777C38.1903 382.635 43.0474 375.91 50.194 374.756Z" fill="#AA7405"/>
<path d="M50.8387 372.031L75.2602 367.907C77.0897 367.612 78.9593 367.681 80.7621 368.109C82.565 368.538 84.2657 369.317 85.7671 370.402C87.2684 371.487 88.5411 372.858 89.5122 374.435C90.4833 376.012 91.1338 377.765 91.4267 379.593L93.1465 390.936C92.5528 387.312 90.5669 384.063 87.6116 381.88C84.6564 379.697 80.9652 378.754 77.3241 379.25L52.9025 383.374C51.0869 383.626 49.34 384.237 47.7641 385.172C46.1883 386.108 44.8153 387.348 43.7259 388.821C42.6364 390.294 41.8524 391.97 41.42 393.749C40.9876 395.529 40.9154 397.378 41.2076 399.186L39.4878 387.843C39.1439 386.055 39.168 384.215 39.5589 382.437C39.9498 380.658 40.6993 378.978 41.7614 377.498C42.8236 376.019 44.1762 374.771 45.7368 373.831C47.2975 372.891 49.0334 372.279 50.8387 372.031Z" fill="#B78622"/>
<path d="M58.6094 424.049L90.7595 410.013C97.3745 407.125 105.08 410.143 107.97 416.753L130.898 469.197C133.788 475.807 130.768 483.507 124.153 486.395L92.0032 500.431C85.3882 503.319 77.6829 500.302 74.7929 493.691L51.8648 441.248C48.9748 434.637 51.9944 426.937 58.6094 424.049Z" fill="#AA7405"/>
<path d="M61.2727 421.657L87.4141 410.314C91.3862 408.567 95.8868 408.454 99.9422 409.997C103.998 411.541 107.282 414.619 109.084 418.564L114.243 430.938C113.418 428.966 112.209 427.178 110.687 425.677C109.165 424.175 107.359 422.991 105.376 422.192C103.392 421.392 101.27 420.994 99.1314 421.021C96.9929 421.047 94.8808 421.497 92.9175 422.345L66.7761 434.031C64.8032 434.856 63.0138 436.065 61.5114 437.586C60.009 439.107 58.8235 440.91 58.0237 442.893C57.2239 444.875 56.8257 446.996 56.852 449.133C56.8783 451.27 57.3286 453.38 58.177 455.342L53.0175 442.968C52.1588 441.027 51.6911 438.936 51.6412 436.815C51.5914 434.693 51.9603 432.583 52.727 430.604C53.4936 428.625 54.6428 426.816 56.1091 425.281C57.5754 423.746 59.33 422.514 61.2727 421.657Z" fill="#B78622"/>
<path d="M82.2066 473.074L117.56 462.927C124.834 460.84 132.358 465.28 134.365 472.844L150.287 532.859C152.294 540.424 148.024 548.248 140.75 550.336L105.397 560.482C98.1226 562.57 90.5988 558.13 88.5918 550.565L72.6696 490.551C70.6626 482.986 74.9325 475.161 82.2066 473.074Z" fill="#AA7405"/>
<path d="M85.8436 471.915L114.654 463.855C118.989 462.635 124.382 462.407 128.308 464.672C132.234 466.938 134.385 471.519 135.683 475.989L139.158 490.052C137.937 485.588 135.1 481.79 131.243 479.455C127.386 477.119 122.809 476.429 118.473 477.528L89.319 485.978C87.1643 486.604 85.1506 487.669 83.3947 489.111C81.6387 490.553 80.1755 492.343 79.09 494.377C78.0044 496.412 77.3181 498.65 77.0709 500.962C76.8236 503.275 77.0203 505.615 77.6496 507.848L73.8149 493.801C73.1892 491.543 73.0055 489.177 73.2746 486.843C73.5438 484.509 74.2603 482.255 75.3819 480.215C76.5034 478.174 78.0072 476.388 79.8041 474.962C81.6011 473.537 83.6548 472.5 85.8436 471.915Z" fill="#B78622"/>
<path d="M103.973 523.862L138.859 520.136C150.003 518.946 160.003 527.01 161.194 538.146L167.821 600.111C169.012 611.248 160.943 621.241 149.798 622.431L114.912 626.157C103.768 627.347 93.7678 619.284 92.5768 608.147L85.9501 546.182C84.7591 535.045 92.8281 525.052 103.973 523.862Z" fill="#AA7405"/>
<path d="M103.382 523.579L138.81 519.798C141.433 519.513 144.086 519.75 146.616 520.496C149.146 521.242 151.502 522.482 153.55 524.145C155.597 525.807 157.294 527.858 158.543 530.18C159.791 532.502 160.567 535.049 160.824 537.672L162.544 554.171C162.287 551.547 161.511 549.001 160.262 546.679C159.014 544.357 157.317 542.306 155.269 540.643C153.222 538.981 150.865 537.741 148.335 536.995C145.805 536.249 143.152 536.012 140.53 536.297L105.102 540.078C99.8613 540.682 95.0737 543.336 91.7862 547.459C88.4987 551.581 86.9789 556.837 87.5594 562.077L85.4956 545.578C85.2101 542.957 85.4476 540.306 86.1941 537.778C86.9407 535.25 88.1816 532.894 89.845 530.849C91.5084 528.803 93.5613 527.107 95.8848 525.859C98.2084 524.611 100.757 523.836 103.382 523.579Z" fill="#B78622"/>
<path d="M110.901 589.747H151.743C164.322 589.747 174.52 600.032 174.52 612.719L197.626 708.292C189.589 746.969 88.1233 743.955 73.0541 715.324L88.1233 612.719C88.1233 600.032 98.321 589.747 110.901 589.747Z" fill="#AA7405"/>
<path d="M111.165 589.747H152.085C158.233 589.746 164.136 592.166 168.52 596.484C172.905 600.803 175.42 606.675 175.525 612.834L179.041 631.941C178.937 625.781 172.905 619.91 168.52 615.591C164.136 611.272 158.233 608.853 152.085 608.854H111.165C105.054 608.854 99.1934 611.286 94.8721 615.616C90.5509 619.945 85.1094 627.827 85.1094 633.95L88.1232 612.834C88.1232 606.711 90.5509 600.839 94.8721 596.509C99.1934 592.18 105.054 589.747 111.165 589.747Z" fill="#B78622"/>
<path d="M69.329 214.569C65.1214 218.041 62.0418 222.685 60.4816 227.91C58.9214 233.135 58.9511 238.706 60.5668 243.915C62.1825 249.123 65.3113 253.734 69.5556 257.161C73.7998 260.588 78.9679 262.677 84.403 263.162C89.8381 263.647 95.2947 262.506 100.079 259.884C104.864 257.263 108.761 253.279 111.274 248.439C113.788 243.599 114.805 238.121 114.195 232.703C113.586 227.284 111.379 222.168 107.853 218.006C105.563 215.233 102.745 212.942 99.5617 211.265C96.3785 209.589 92.8939 208.561 89.31 208.241C85.7261 207.922 82.1144 208.316 78.6844 209.403C75.2544 210.489 72.0744 212.245 69.329 214.569Z" fill="#513729"/>
<g style="mix-blend-mode:multiply" opacity="0.2">
<path d="M69.3288 214.569C72.0742 212.245 75.2542 210.489 78.6842 209.403C82.1142 208.316 85.7259 207.922 89.3098 208.241C92.8937 208.561 96.3783 209.589 99.5615 211.265C102.745 212.942 105.563 215.233 107.853 218.006C109.912 220.592 111.538 223.494 112.668 226.6C111.864 225.068 110.819 223.675 109.573 222.475C107.283 219.701 104.464 217.41 101.281 215.734C98.0981 214.057 94.6135 213.03 91.0296 212.71C87.4458 212.39 83.834 212.785 80.404 213.871C76.974 214.957 73.794 216.713 71.0486 219.038C66.8963 222.669 63.9011 227.437 62.4338 232.753C60.9664 238.068 61.0915 243.697 62.7934 248.942C59.7209 243.345 58.6926 236.854 59.885 230.583C61.0774 224.311 64.4162 218.65 69.3288 214.569Z" fill="#231005"/>
</g>
<path d="M130.737 245.352C135.294 245.221 139.708 243.74 143.421 241.097C147.134 238.454 149.979 234.769 151.596 230.507C153.212 226.245 153.528 221.599 152.503 217.155C151.477 212.712 149.157 208.672 145.836 205.547C142.515 202.421 138.342 200.351 133.845 199.598C129.349 198.845 124.731 199.443 120.576 201.316C116.421 203.189 112.916 206.254 110.505 210.121C108.094 213.989 106.885 218.486 107.031 223.043C107.089 226.075 107.753 229.064 108.983 231.836C110.212 234.608 111.984 237.107 114.192 239.185C116.401 241.264 119.002 242.88 121.843 243.939C124.685 244.998 127.708 245.478 130.737 245.352Z" fill="#432D21"/>
<path d="M130.737 245.352C124.64 245.529 118.72 243.279 114.275 239.097C109.831 234.914 107.226 229.141 107.031 223.043C106.908 220.221 107.407 217.408 108.491 214.801C108.136 216.258 119.215 213.301 119.266 214.801C119.198 220.286 113.278 224.847 115.248 231.1C117.162 237.173 121.913 241.21 127.334 242.045C132.756 242.88 138.296 241.727 142.933 238.8C147.57 235.873 150.992 231.367 152.569 226.114C151.702 231.345 149.056 236.116 145.079 239.621C141.101 243.126 136.036 245.15 130.737 245.352Z" fill="#3E261A"/>
<path d="M139.75 264.257C145.599 263.873 151.056 261.181 154.92 256.773C158.785 252.366 160.74 246.604 160.355 240.755C159.971 234.906 157.279 229.449 152.871 225.584C148.464 221.72 142.702 219.765 136.852 220.15C133.956 220.34 131.126 221.099 128.523 222.383C125.92 223.667 123.596 225.451 121.682 227.633C119.769 229.816 118.304 232.354 117.372 235.102C116.439 237.851 116.057 240.756 116.247 243.652C116.632 249.501 119.324 254.958 123.731 258.822C128.139 262.687 133.901 264.642 139.75 264.257Z" fill="#513729"/>
<path d="M140.391 264.769C137.454 265 134.498 264.637 131.699 263.702C128.899 262.766 126.312 261.278 124.091 259.324C121.871 257.371 120.062 254.992 118.772 252.329C117.481 249.666 116.736 246.773 116.579 243.822C116.322 241.034 116.576 238.225 117.328 235.534L117.359 240.098C117.822 246.006 120.575 251.508 125.026 255.424C129.477 259.34 135.273 261.358 141.17 261.046C145.709 260.811 150.057 259.172 153.617 256.354C157.177 253.537 159.775 249.68 161.054 245.311C160.415 250.469 158.002 255.234 154.231 258.785C150.46 262.336 145.566 264.453 140.391 264.769Z" fill="#432D21"/>
<path d="M121.468 214.719L208.192 97.8115C208.192 97.8115 209.475 112.944 196.02 148.66C195.369 150.389 188.011 151.21 188.011 151.21C188.011 151.21 192.456 157.753 191.645 159.709C187.697 169.239 182.813 179.981 176.774 192.008C175.658 194.231 165.912 193.708 165.912 193.708C165.912 193.708 171.549 202.185 170.637 203.908C168.015 208.867 165.211 214.02 162.211 219.373L121.468 214.719Z" fill="#50992D"/>
<path d="M121.468 214.719L208.192 97.8115C208.192 97.8115 188.688 101.844 148.912 135.452C146.708 137.315 149.762 148.66 149.762 148.66C149.762 148.66 137.083 145.786 134.463 148.188C125.525 156.378 115.763 165.884 105.171 176.913L121.468 214.719Z" fill="#6ABF41"/>
<path d="M123.431 210.072C123.431 210.072 98.8019 182.422 60.5547 171.371C59.9631 171.201 55.7606 179.316 55.7606 179.316C55.7606 179.316 56.3946 170.028 55.7606 169.864C47.8867 167.835 39.4213 166.438 30.4163 165.978C29.2532 165.918 26.9001 174.888 26.9001 174.888C26.9001 174.888 24.5646 165.808 23.384 165.813C15.6985 165.847 7.65176 166.576 -0.726739 168.175C-1.8417 168.388 -1.22905 176.394 -1.22905 176.394C-1.22905 176.394 -6.95431 169.504 -8.40073 169.864C-28.6097 174.906 -50.6117 185.065 -74.022 202.607C-74.022 202.607 24.8441 182.863 123.431 210.072Z" fill="#6ABF41"/>
<path d="M123.343 210.049C123.343 210.049 111.597 216.953 89.1861 221.829C87.8827 222.112 84.1631 217.081 84.1631 217.081C84.1631 217.081 82.521 223.159 81.1492 223.397C74.6632 224.521 67.457 225.437 59.55 225.986C57.9059 226.1 53.5223 220.095 53.5223 220.095C53.5223 220.095 50.8771 226.431 49.0016 226.477C37.6604 226.75 25.0875 226.249 11.3286 224.595C10.0001 224.435 7.81241 218.004 7.81241 218.004C7.81241 218.004 4.3097 223.668 2.78934 223.44C-5.97716 222.123 -15.1897 220.341 -24.8376 218.004C-26.334 217.641 -27.3491 211.556 -27.3491 211.556C-27.3491 211.556 -32.0293 216.182 -33.3768 215.819C-46.0688 212.399 -59.4711 208.026 -73.5614 202.514C-73.5614 202.514 21.0883 181.524 123.343 210.049Z" fill="#50992D"/>
<path d="M121.453 209.261C121.453 209.261 121.286 172.233 99.9235 138.638C99.593 138.118 91.0717 141.422 91.0717 141.422C91.0717 141.422 97.6936 134.878 97.3264 134.336C92.766 127.604 87.3439 120.954 80.8972 114.65C80.0645 113.836 72.3649 119.003 72.3649 119.003C72.3649 119.003 76.6221 110.651 75.7336 109.873C69.9496 104.812 63.434 100.034 56.0944 95.6885C55.1177 95.1102 50.2786 101.519 50.2786 101.519C50.2786 101.519 50.5461 92.5636 49.223 91.877C30.7358 82.2833 7.51762 75.3399 -21.6421 73C-21.6421 73 56.0944 134.336 121.453 209.261Z" fill="#6ABF41"/>
<path d="M121.402 209.186C121.402 209.186 108.028 206.59 87.9988 195.415C86.8339 194.765 87.3745 188.531 87.3745 188.531C87.3745 188.531 82.1215 192.001 80.9357 191.272C75.3292 187.822 69.3202 183.74 63.0288 178.92C61.7206 177.917 62.4079 170.514 62.4079 170.514C62.4079 170.514 56.2316 173.515 54.7955 172.307C46.1118 165.007 37.0172 156.311 27.7963 145.966C26.906 144.968 29.5219 138.698 29.5219 138.698C29.5219 138.698 23.1473 140.627 22.1586 139.45C16.4573 132.661 10.7301 125.228 5.04339 117.092C4.16133 115.83 7.42718 110.596 7.42718 110.596C7.42718 110.596 0.857198 110.967 0.0871836 109.803C-7.16553 98.8404 -14.32 86.693 -21.2362 73.2363C-21.2362 73.2363 69.5633 145.966 121.402 209.186Z" fill="#50992D"/>
<path d="M183.376 395.801C183.376 395.801 200.253 362.842 196.729 323.187C196.675 322.573 187.589 321.589 187.589 321.589C187.589 321.589 196.478 318.822 196.401 318.172C195.447 310.097 193.689 301.699 190.863 293.137C190.498 292.031 181.285 293.079 181.285 293.079C181.285 293.079 188.905 287.62 188.474 286.521C185.665 279.367 182.075 272.128 177.556 264.894C176.954 263.932 169.711 267.397 169.711 267.397C169.711 267.397 174.066 259.568 173.206 258.35C161.2 241.33 143.775 224.489 118.956 209.003C118.956 209.003 173.106 294.045 183.376 395.801Z" fill="#6ABF41"/>
<path d="M183.366 395.711C183.366 395.711 172.683 387.255 160.035 368.122C159.299 367.01 162.645 361.723 162.645 361.723C162.645 361.723 156.385 362.389 155.668 361.196C152.275 355.555 148.816 349.167 145.445 341.993C144.744 340.502 148.758 334.244 148.758 334.244C148.758 334.244 141.894 334.068 141.174 332.336C136.819 321.861 132.741 309.957 129.309 296.53C128.978 295.234 134.184 290.869 134.184 290.869C134.184 290.869 127.636 289.651 127.299 288.151C125.358 279.502 123.689 270.268 122.381 260.427C122.178 258.901 127.484 255.755 127.484 255.755C127.484 255.755 121.479 253.064 121.331 251.676C119.931 238.606 119.163 224.529 119.208 209.399C119.208 209.399 171.413 288.151 183.366 395.711Z" fill="#50992D"/>
<path d="M320.891 173.671C320.891 173.671 307.7 168.206 283.733 166.392C282.339 166.286 279.207 172.046 279.207 172.046C279.207 172.046 276.623 165.976 275.164 165.928C268.27 165.701 260.657 165.794 252.371 166.369C250.648 166.488 246.968 173.356 246.968 173.356C246.968 173.356 243.305 167.162 241.351 167.387C229.54 168.746 216.563 171.087 202.522 174.796C201.166 175.154 199.827 182.147 199.827 182.147C199.827 182.147 195.371 176.775 193.826 177.232C184.918 179.868 175.614 183.052 165.939 186.875C164.438 187.468 164.266 193.931 164.266 193.931C164.266 193.931 158.738 189.808 157.392 190.38C144.714 195.767 131.437 202.247 117.61 210.009C117.61 210.009 230.466 234.124 320.891 173.671Z" fill="#6ABF41"/>
<path d="M320.978 173.634C320.978 173.634 299.42 205.9 261.322 222.909C260.733 223.172 255.196 215.357 255.196 215.357C255.196 215.357 257.199 224.906 256.565 225.167C248.686 228.414 240.102 231.09 230.822 232.872C229.623 233.102 225.882 224.134 225.882 224.134C225.882 224.134 224.773 233.895 223.547 234.061C215.565 235.14 207.107 235.548 198.18 235.102C196.992 235.043 196.468 226.643 196.468 226.643C196.468 226.643 191.523 234.625 189.97 234.46C168.264 232.154 143.957 224.796 117.118 209.979C117.118 209.979 222.593 216.154 320.978 173.634Z" fill="#50992D"/>
<path d="M169.145 722.841C168.047 717.741 169.839 682.672 211.912 673.618L220.143 711.866C187.607 690.854 171.614 734.315 169.145 722.841Z" fill="#C9547C"/>
<path d="M238.194 726.438C248.526 670.665 215.893 452.426 166.502 422.095C135.429 403.013 173.685 477.85 198.831 749.516C201.188 774.973 233.613 751.163 238.194 726.438Z" fill="#50992D"/>
<path d="M243.358 719.571C253.69 663.798 223.955 463.396 177.665 428.517C135.827 396.992 180.441 476.364 205.587 748.031C207.943 773.488 238.777 744.297 243.358 719.571Z" fill="#6ABF41"/>
<path d="M234.577 739.692C234.577 739.692 236.038 646.438 226.457 597.048C213.281 529.134 207.013 502.36 192.135 464.376C183.078 443.63 168.365 420.749 166.013 421.997C164.166 422.977 179.157 464.101 185.933 486.129C203.893 544.522 211.058 580.366 216.142 615.768C222.15 657.608 224.812 751.477 224.812 751.477C224.812 751.477 228.711 748.622 230.654 746.262C232.552 743.954 234.577 739.692 234.577 739.692Z" fill="#F2709C"/>
<path d="M1199.63 681.765C1198.39 679.85 1197.26 678.074 1196.15 676.052C1194.08 672.179 1192.32 668.143 1190.91 663.982C1188.13 655.545 1186.95 646.661 1187.44 637.79C1187.79 633.298 1188.52 628.843 1189.6 624.47L1191.86 617.905C1192.66 615.608 1193.59 613.356 1194.64 611.161C1199.01 601.883 1203.9 592.426 1208.94 582.863C1213.97 573.3 1219.14 563.631 1223.96 553.79C1228.94 543.689 1233.18 533.242 1236.66 522.53C1240.38 511.588 1242.18 500.085 1241.98 488.529C1241.78 482.604 1240.72 476.739 1238.82 471.121C1236.96 465.576 1234.35 460.31 1231.06 455.466L1223.85 459.865C1228.69 468.58 1230.91 478.505 1230.25 488.449C1229.35 498.425 1226.73 508.17 1222.51 517.254C1218.22 526.768 1213.23 535.948 1207.57 544.716C1202.12 553.723 1196.06 562.524 1189.98 571.57C1183.89 580.617 1177.8 589.663 1172 599.373L1167.69 607.284C1166.45 609.99 1165.07 612.802 1164.05 615.786C1161.65 621.669 1159.9 627.8 1158.84 634.067C1156.63 646.695 1156.92 659.635 1159.72 672.148C1161.08 678.343 1162.98 684.407 1165.4 690.271C1172 697.631 1202.84 686.714 1199.63 681.765Z" fill="#AA7405"/>
<g style="mix-blend-mode:multiply" opacity="0.2">
<path d="M1193.83 687.77C1192.59 685.854 1190.99 682.85 1189.89 680.829C1187.82 676.956 1186.06 672.919 1184.65 668.759C1181.86 660.322 1180.69 651.437 1181.18 642.567C1181.53 638.074 1182.26 633.619 1183.34 629.246L1185.6 622.681C1186.4 620.384 1187.33 618.133 1188.38 615.937C1192.75 606.66 1197.64 597.203 1202.67 587.64C1207.71 578.077 1212.88 568.408 1217.7 558.566C1222.68 548.465 1226.92 538.018 1230.39 527.306C1234.12 516.365 1235.92 504.861 1235.72 493.306C1235.52 487.38 1234.46 481.516 1232.56 475.897C1230.7 470.353 1228.08 465.086 1224.8 460.242L1224.39 460.561L1223.75 459.726L1230.96 455.326C1234.24 460.17 1236.85 465.436 1238.72 470.981C1240.61 476.6 1241.67 482.464 1241.87 488.389C1242.07 499.945 1240.27 511.449 1236.55 522.39C1233.08 533.102 1228.83 543.549 1223.85 553.65C1219.03 563.491 1213.86 573.161 1208.83 582.724C1203.8 592.287 1198.9 601.743 1194.54 611.021C1193.49 613.217 1192.56 615.468 1191.76 617.765L1189.5 624.33C1188.41 628.703 1187.69 633.158 1187.33 637.65C1186.84 646.521 1188.02 655.406 1190.8 663.843C1192.22 668.003 1193.97 672.04 1196.05 675.913C1197.15 677.934 1198.29 679.71 1199.53 681.625C1199.53 681.625 1200.88 682.84 1197.71 685.305C1196.28 686.412 1193.83 687.77 1193.83 687.77Z" fill="#976706"/>
</g>
<path d="M1234.72 453.335C1234.72 453.335 1306.73 432.305 1319.16 500.538C1319.16 500.538 1269.76 508.502 1242.75 458.661C1242.75 458.661 1239.81 454.519 1228.3 460.214C1228.3 460.214 1225.22 455.303 1234.72 453.335Z" fill="#50992D"/>
<path d="M1234.72 453.335C1234.72 453.335 1306.73 432.305 1319.16 500.538C1319.16 500.538 1301.48 478.884 1283.09 467.327C1270.76 459.579 1257.73 450.284 1229.21 457.467C1229.21 457.467 1225.22 455.303 1234.72 453.335Z" fill="#6ABF41"/>
<path d="M1226.65 451.126C1226.65 451.126 1248.29 379.359 1312.12 406.18C1312.12 406.18 1301.05 452.184 1238.72 443.38C1238.72 443.38 1232.03 448.31 1228.5 458.171C1228.5 458.171 1222.95 460.118 1226.65 451.126Z" fill="#50992D"/>
<path d="M1226.04 452.537C1226.04 452.537 1248.29 379.359 1312.12 406.18C1285.91 405.348 1247.52 412.391 1227.45 453.945C1227.45 453.945 1222.33 461.529 1226.04 452.537Z" fill="#6ABF41"/>
<path d="M1216.9 461.428C1216.9 461.428 1150.82 496.868 1189.69 554.174C1189.69 554.174 1230.55 525.205 1215.02 470.79C1215.02 470.79 1214.31 465.825 1226.46 461.84C1226.46 461.84 1225.12 456.039 1216.9 461.428Z" fill="#50992D"/>
<path d="M1221.25 454.145C1221.25 454.145 1155.42 418.064 1128.61 481.891C1128.61 481.891 1175.21 500.275 1212.42 457.578C1212.42 457.578 1216.11 454.327 1226.15 462.297C1226.15 462.297 1230.21 458.098 1221.25 454.145Z" fill="#6ABF41"/>
<path d="M1204.71 387.731C1204.71 387.731 1250.56 424.746 1222.3 445.42C1222.3 445.42 1229.83 458.171 1228.83 460.035C1227.83 461.899 1223.55 461.198 1219.97 446.979C1219.97 446.979 1180.13 443.243 1204.71 387.731Z" fill="#6ABF41"/>
<path d="M1232.72 533.239L1217.89 526.498L1219.41 523.58L1233.99 530.288L1232.72 533.239Z" fill="#7A522D"/>
<path d="M1220.76 559.977L1203.94 550.347L1205.57 547.568L1222.03 557.026L1220.76 559.977Z" fill="#7A522D"/>
<path d="M1226.82 505.596L1227.6 502.579L1240.58 506.324L1239.91 509.48L1226.82 505.596Z" fill="#7A522D"/>
<path d="M1238.18 469.411L1228.5 471.73C1228.34 470.667 1228.06 469.625 1227.67 468.621L1237.07 466.514C1237.43 467.562 1237.93 468.503 1238.18 469.411Z" fill="#7A522D"/>
<path d="M1241.8 488.005L1230.17 487.19L1230.25 483.828L1241.6 484.856L1241.8 488.005Z" fill="#7A522D"/>
<path d="M1187.35 575.337L1189.07 572.698L1208.31 583.778L1206.69 586.557L1187.35 575.337Z" fill="#7A522D"/>
<path d="M1163.14 684.723L1162.07 681.581L1191.27 665.029C1191.59 666.071 1192 667.086 1192.48 668.065L1163.14 684.723Z" fill="#7A522D"/>
<path d="M1187.86 651.334L1157.43 657.604L1157.36 654.349L1187.56 648.046C1187.59 649.148 1187.69 650.247 1187.86 651.334Z" fill="#7A522D"/>
<path d="M1159.24 631.123L1160.05 627.861L1188.59 628.329L1188.02 631.624L1159.24 631.123Z" fill="#7A522D"/>
<path d="M1170.72 601.448L1171.89 599.233L1172.45 598.809L1196.33 607.891L1194.81 610.809L1170.72 601.448Z" fill="#7A522D"/>
<path d="M1300.22 729.13L1300.22 729.128L1300.23 729.126C1302.56 728.443 1304.29 728.493 1306.27 728.958C1307.28 729.196 1308.36 729.544 1309.65 729.974C1309.88 730.055 1310.13 730.138 1310.38 730.223C1311.48 730.593 1312.7 731.007 1314.1 731.438C1319.75 733.179 1326.31 732.722 1332.16 731.499C1338.02 730.273 1343.29 728.254 1346.43 726.758C1358.74 720.895 1364.64 712.714 1367.22 705.289C1369.77 697.914 1369.04 691.325 1368.12 688.593C1367.32 686.194 1364.08 680.253 1357.11 677.078C1350.09 673.875 1339.51 673.599 1324.29 682.098C1322.59 683.052 1319.44 685.251 1316.33 687.679C1313.24 690.102 1310.07 692.838 1308.38 694.882C1307.89 695.483 1307.41 696.04 1306.95 696.591C1304.38 699.62 1301.94 702.494 1296.06 711.851C1294.08 715.004 1290.93 717.631 1287.2 719.817C1283.48 721.999 1279.25 723.708 1275.16 725.049C1271.07 726.389 1267.15 727.354 1264.09 728.059C1263.3 728.239 1262.54 728.41 1261.85 728.565C1261.23 728.703 1260.67 728.828 1260.21 728.936C1259.23 729.161 1258.4 729.366 1257.96 729.561C1257.78 729.645 1257.56 729.738 1257.32 729.841C1256.01 730.398 1254.04 731.242 1252.54 732.5C1251.63 733.263 1250.82 734.234 1250.42 735.464C1250.02 736.715 1250.08 738.126 1250.72 739.686C1253.26 745.827 1259.52 746.574 1263.63 746.027C1265.41 745.79 1267.28 744.732 1269.5 743.276C1270.41 742.675 1271.37 742.013 1272.43 741.285C1274.05 740.166 1275.9 738.892 1278.15 737.446C1284.96 733.06 1291.5 731.385 1297.03 729.966C1298.14 729.684 1299.2 729.411 1300.22 729.13Z" fill="#F2709C" stroke="#EDE8E3" stroke-width="2"/>
<path d="M1337.15 729.199C1340.77 728.12 1343.89 726.864 1346 725.855C1348.65 724.592 1351 723.222 1353.07 721.776C1350.27 721.688 1345.27 721.169 1342.65 718.699C1340.62 716.787 1343.03 713.605 1345.83 709.914C1349.13 705.571 1352.96 700.524 1350.71 696.013C1348.23 691.28 1342.3 692.846 1337.12 694.215C1332.73 695.376 1328.87 696.395 1328.1 693.316C1327.72 691.885 1329.18 689.862 1330.48 688.054C1331.17 687.095 1331.82 686.197 1332.12 685.481C1332.92 683.416 1331.71 680.97 1331.04 679.847C1329.05 680.716 1326.97 681.751 1324.78 682.971C1322.7 684.133 1318.27 687.302 1314.48 690.461C1316.1 691.1 1319.39 692.655 1319.58 693.803C1320.04 696.118 1318.77 698.233 1317.58 700.205C1316.29 702.329 1315.11 704.288 1316.3 706.156C1319.25 710.757 1325.09 708.742 1330.07 707.024C1333.67 705.782 1336.82 704.695 1338.11 706.375C1339.7 708.438 1337.51 711.026 1335.11 713.852C1332.32 717.155 1329.24 720.784 1331.61 724.28C1333.36 726.797 1335.88 728.463 1337.15 729.199Z" fill="#DDE337"/>
<path d="M1263.73 700.146L1263.72 700.147C1254.87 704.768 1249.43 705.467 1244.75 705.614C1244.03 705.637 1243.34 705.647 1242.66 705.657C1238.99 705.711 1235.74 705.759 1231.15 707.753C1223.38 711.11 1219.45 714.133 1215.78 717.875C1214.45 719.224 1213.17 720.66 1211.74 722.254C1211.16 722.904 1210.55 723.58 1209.91 724.288C1207.71 726.719 1205.12 729.477 1201.7 732.686C1200.06 734.251 1197.8 735.21 1195.52 735.486C1193.23 735.763 1190.81 735.366 1188.87 734.102C1185.62 732.02 1184.8 728.69 1185.54 725.476C1186.27 722.314 1188.52 719.199 1191.52 717.169L1191.52 717.168C1194.97 714.836 1198.23 712.99 1201.25 711.323C1201.66 711.094 1202.07 710.869 1202.48 710.646C1205.03 709.243 1207.38 707.952 1209.54 706.555C1214.48 703.349 1218.36 699.626 1220.96 692.92C1225.12 682.219 1231.78 670.222 1239.78 663.142L1239.78 663.141C1245.95 657.688 1252.62 654.152 1258.86 653.159C1265.14 652.16 1271 653.741 1275.31 658.527L1275.31 658.528C1280.97 664.824 1283.58 672.395 1281.94 679.885C1280.29 687.369 1274.45 694.533 1263.73 700.146Z" fill="#F2709C" stroke="#EDE8E3" stroke-width="2" stroke-miterlimit="10"/>
<path fill-rule="evenodd" clip-rule="evenodd" d="M1272.64 692.917C1270.11 695.173 1267 697.307 1263.26 699.261C1262.99 699.402 1262.72 699.539 1262.46 699.673C1259.68 699.796 1254.87 699.21 1253.61 697.66C1252.53 696.337 1253.21 695.079 1253.95 693.694C1254.77 692.187 1255.66 690.53 1254.46 688.476C1253.36 686.615 1251.88 687.016 1250.28 687.451C1248.48 687.938 1246.53 688.467 1244.79 685.915C1243.08 683.393 1244.15 681.832 1245.2 680.312C1246.16 678.92 1247.09 677.563 1245.84 675.532C1245.01 674.219 1243.27 674.027 1241.35 673.816C1238.83 673.538 1236 673.226 1234.52 670.292C1236.39 667.891 1238.37 665.72 1240.44 663.891C1241.61 662.854 1242.8 661.89 1244 661.002C1243.99 661.144 1243.98 661.299 1243.97 661.465C1243.82 663.271 1243.58 666.337 1244.45 667.522C1245.43 668.833 1247.45 668.18 1249.66 667.465C1252.39 666.585 1255.41 665.609 1257.13 668.071C1258.59 670.155 1257.47 672.051 1256.35 673.935C1255.22 675.848 1254.1 677.748 1255.69 679.818C1256.71 681.153 1258.22 681.136 1259.72 681.12C1261.23 681.104 1262.73 681.088 1263.72 682.444C1264.83 684.003 1264.03 685.77 1263.25 687.496C1262.43 689.303 1261.63 691.066 1263.06 692.498C1264.55 693.951 1266.97 692.754 1269.05 691.724C1271.05 690.739 1272.73 689.907 1272.99 691.687C1273.04 692.046 1272.91 692.465 1272.64 692.917Z" fill="#DDE337"/>
<path d="M1002.69 735.658C1001.69 734.858 999.593 735.058 998.493 735.358C998.437 735.362 998.384 735.382 998.338 735.415C998.293 735.448 998.258 735.493 998.237 735.545C998.216 735.597 998.211 735.654 998.221 735.709C998.23 735.765 998.255 735.816 998.293 735.858C996.993 737.158 995.293 738.058 994.193 739.658C993.132 741.323 992.449 743.2 992.193 745.158C991.76 747.266 991.726 749.437 992.093 751.558C992.393 753.258 992.693 755.458 993.793 756.858C994.893 758.258 994.493 756.858 994.393 756.558C993.947 754.794 993.745 752.977 993.793 751.158C993.883 749.321 994.219 747.505 994.793 745.758C995.793 742.158 998.493 739.958 1001.49 738.358C1002.49 737.858 1003.99 736.658 1002.69 735.658Z" fill="#C0472C"/>
<path d="M997.393 733.058C996.393 732.158 994.393 732.158 993.193 732.358C993.137 732.362 993.084 732.382 993.039 732.415C992.993 732.448 992.958 732.493 992.938 732.545C992.917 732.597 992.911 732.654 992.921 732.709C992.931 732.765 992.956 732.816 992.993 732.858C991.593 734.058 989.793 734.758 988.593 736.258C987.424 737.845 986.575 739.646 986.093 741.558C985.428 743.588 985.157 745.726 985.293 747.858C985.493 749.558 985.593 751.758 986.593 753.258C987.593 754.758 987.293 753.458 987.193 753.058C986.91 751.271 986.876 749.454 987.093 747.658C987.346 745.83 987.851 744.047 988.593 742.358C989.893 738.958 992.793 736.858 995.993 735.658C996.993 735.258 998.593 734.158 997.393 733.058Z" fill="#C0472C"/>
<path d="M996.193 728.457C995.593 727.357 993.593 726.757 992.493 726.557C991.393 726.357 992.093 726.757 992.093 726.957C990.393 727.557 988.493 727.657 986.793 728.757C985.192 729.876 983.832 731.304 982.793 732.957C981.536 734.704 980.62 736.671 980.093 738.757C979.693 740.457 979.093 742.557 979.493 744.257C979.528 744.32 979.578 744.372 979.64 744.408C979.701 744.445 979.772 744.464 979.843 744.464C979.914 744.464 979.985 744.445 980.046 744.408C980.108 744.372 980.158 744.32 980.193 744.257C980.467 742.487 981.006 740.767 981.793 739.157C982.65 737.481 983.689 735.905 984.893 734.457C987.293 731.657 990.593 730.657 994.093 730.457C995.093 730.457 996.993 729.857 996.193 728.457Z" fill="#C0472C"/>
<path d="M1024.49 738.358C1027.59 739.958 1030.29 742.158 1031.19 745.758C1031.77 747.505 1032.1 749.321 1032.19 751.158C1032.29 752.978 1032.09 754.803 1031.59 756.558C1031.49 756.858 1031.99 757.058 1032.19 756.858C1032.39 756.658 1033.59 753.258 1033.99 751.558C1034.33 749.431 1034.26 747.26 1033.79 745.158C1033.54 743.2 1032.85 741.323 1031.79 739.658C1030.69 738.058 1029.09 737.158 1027.69 735.858C1027.73 735.823 1027.76 735.779 1027.77 735.73C1027.79 735.682 1027.79 735.63 1027.78 735.58C1027.77 735.53 1027.75 735.483 1027.72 735.444C1027.68 735.405 1027.64 735.375 1027.59 735.358C1026.39 735.058 1024.39 734.858 1023.39 735.658C1022.39 736.458 1023.59 737.858 1024.49 738.358Z" fill="#C0472C"/>
<path d="M1029.99 735.658C1033.19 736.858 1036.09 738.958 1037.39 742.358C1038.14 744.047 1038.64 745.83 1038.89 747.658C1039.14 749.449 1039.14 751.266 1038.89 753.058C1038.79 753.458 1039.29 753.558 1039.49 753.258C1039.69 752.958 1040.49 749.558 1040.69 747.858C1040.81 745.733 1040.58 743.604 1039.99 741.558C1039.52 739.624 1038.63 737.816 1037.39 736.258C1036.19 734.758 1034.49 734.058 1032.99 732.858C1033.03 732.816 1033.06 732.765 1033.07 732.709C1033.08 732.654 1033.07 732.597 1033.05 732.545C1033.03 732.493 1032.99 732.448 1032.95 732.415C1032.9 732.382 1032.85 732.362 1032.79 732.358C1031.59 732.158 1029.59 732.158 1028.59 733.058C1027.59 733.958 1029.09 735.258 1029.99 735.658Z" fill="#C0472C"/>
<path d="M1031.99 730.457C1035.39 730.657 1038.79 731.657 1041.09 734.457C1042.33 735.88 1043.37 737.461 1044.19 739.157C1044.98 740.767 1045.52 742.487 1045.79 744.257C1045.83 744.32 1045.88 744.372 1045.94 744.408C1046 744.445 1046.07 744.464 1046.14 744.464C1046.21 744.464 1046.28 744.445 1046.35 744.408C1046.41 744.372 1046.46 744.32 1046.49 744.257C1046.89 742.557 1046.29 740.457 1045.89 738.757C1045.4 736.677 1044.52 734.709 1043.29 732.957C1042.22 731.299 1040.82 729.872 1039.19 728.757C1037.49 727.657 1035.69 727.557 1033.89 726.957C1033.99 726.757 1033.79 726.457 1033.59 726.557C1033.39 726.657 1030.39 727.357 1029.79 728.457C1029.19 729.557 1030.89 730.457 1031.99 730.457Z" fill="#C0472C"/>
<path d="M1034.99 714.058C1028.09 708.358 1022.69 703.158 1012.99 703.458C1003.29 703.758 997.893 708.358 990.993 714.058C984.093 719.758 982.793 725.158 988.793 731.658C994.793 738.158 1003.69 739.558 1012.99 738.958C1022.29 738.358 1031.59 737.658 1037.19 731.658C1042.79 725.658 1040.99 719.058 1034.99 714.058Z" fill="#F35D3C"/>
<path d="M1015.39 707.658C1014.79 709.358 1011.29 709.658 1010.59 707.758C1009.89 705.858 1009.59 707.458 1009.79 707.958C1010.05 708.562 1010.49 709.075 1011.04 709.431C1011.59 709.788 1012.24 709.971 1012.89 709.958C1013.61 710.045 1014.34 709.885 1014.96 709.504C1015.58 709.122 1016.05 708.542 1016.29 707.858C1016.49 707.358 1015.59 707.058 1015.39 707.658Z" fill="#012A48"/>
<path d="M1006.69 705.257L1008.79 704.757C1008.99 703.557 1008.99 702.357 1009.19 701.157C1009.46 699.838 1009.63 698.501 1009.69 697.157C1009.65 697 1009.55 696.86 1009.43 696.757C1009.3 696.654 1009.14 696.593 1008.98 696.582C1008.81 696.571 1008.65 696.611 1008.51 696.696C1008.37 696.781 1008.26 696.907 1008.19 697.057V696.857C1007.99 696.257 1007.09 695.957 1006.79 696.657H1006.49C1006.44 696.504 1006.33 696.372 1006.2 696.279C1006.07 696.186 1005.91 696.136 1005.74 696.136C1005.58 696.136 1005.42 696.186 1005.29 696.279C1005.15 696.372 1005.05 696.504 1004.99 696.657V696.957C1004.49 696.757 1003.89 696.957 1003.89 697.557C1004.03 699.308 1004.44 701.028 1005.09 702.657C1005.49 703.6 1006.03 704.477 1006.69 705.257Z" fill="#C0472C"/>
<path d="M1017.19 704.757H1017.09L1019.19 705.257C1019.92 704.47 1020.5 703.554 1020.89 702.557C1021.55 700.928 1021.95 699.208 1022.09 697.457C1022.09 696.857 1021.49 696.657 1020.99 696.857V696.557C1020.89 695.757 1019.69 695.857 1019.49 696.557H1019.19C1018.89 695.857 1017.99 696.157 1017.79 696.757V696.957C1017.73 696.807 1017.62 696.681 1017.48 696.596C1017.34 696.511 1017.17 696.471 1017.01 696.482C1016.84 696.493 1016.69 696.554 1016.56 696.657C1016.43 696.76 1016.34 696.9 1016.29 697.057C1016.35 698.409 1016.55 699.75 1016.89 701.057C1016.99 702.357 1016.99 703.557 1017.19 704.757Z" fill="#C0472C"/>
<path d="M1006.79 694.258C1002.89 694.258 1002.89 700.258 1006.79 700.258C1010.69 700.258 1010.69 694.258 1006.79 694.258Z" fill="#F2F2F2"/>
<path d="M1019.19 694.258C1015.29 694.258 1015.29 700.258 1019.19 700.258C1023.09 700.258 1023.09 694.258 1019.19 694.258Z" fill="#F2F2F2"/>
<path d="M1006.79 694.958C1003.79 694.958 1003.79 699.658 1006.79 699.658C1007.33 699.545 1007.82 699.251 1008.17 698.823C1008.52 698.394 1008.71 697.859 1008.71 697.308C1008.71 696.756 1008.52 696.221 1008.17 695.793C1007.82 695.364 1007.33 695.07 1006.79 694.958Z" fill="#012A48"/>
<path d="M1019.29 694.758C1016.09 694.758 1016.09 699.658 1019.29 699.658C1022.49 699.658 1022.49 694.758 1019.29 694.758Z" fill="#012A48"/>
<path d="M992.493 715.258C990.693 714.858 988.793 713.758 988.393 711.758C988.157 709.951 988.434 708.114 989.193 706.458C990.893 703.358 986.093 700.558 984.493 703.658C982.828 706.785 982.366 710.413 983.193 713.858C984.193 717.358 987.693 719.758 991.093 720.558C994.493 721.358 995.993 716.158 992.493 715.258Z" fill="#C0472C"/>
<path d="M998.293 687.058C997.88 687.271 997.527 687.584 997.265 687.968C997.003 688.352 996.841 688.795 996.793 689.258L995.793 689.458C994.393 690.058 993.693 690.058 993.293 691.858C993.171 692.551 993.137 693.256 993.193 693.958C992.993 694.158 991.993 694.258 991.593 694.458L991.193 694.758C990.893 693.658 990.493 692.558 990.093 691.458C991.185 690.942 992.092 690.105 992.693 689.058C992.893 688.858 992.793 688.158 992.893 687.958L994.393 687.658C995.693 686.958 996.493 686.158 996.293 684.658C998.393 684.558 998.293 682.658 998.693 681.058C998.689 680.225 998.509 679.402 998.164 678.643C997.82 677.885 997.318 677.208 996.693 676.658C994.993 675.158 991.893 675.158 988.693 675.558C985.493 675.958 978.793 682.958 976.993 687.058C972.793 696.858 978.893 712.058 991.493 707.458C995.993 705.858 1000.79 699.358 1001.59 694.658C1001.99 692.758 1002.49 685.058 998.293 687.058Z" fill="#F35D3C"/>
<path d="M1032.59 715.258C1034.39 714.858 1036.29 713.758 1036.69 711.758C1036.98 709.951 1036.7 708.1 1035.89 706.458C1034.29 703.358 1038.99 700.558 1040.69 703.658C1042.28 706.81 1042.71 710.422 1041.89 713.858C1040.89 717.358 1037.49 719.758 1034.09 720.558C1030.69 721.358 1029.09 716.158 1032.59 715.258Z" fill="#C0472C"/>
<path d="M1023.49 694.658C1024.39 699.358 1029.09 705.858 1033.69 707.458C1046.19 712.058 1052.39 696.858 1048.09 687.058C1046.39 682.958 1041.19 676.258 1036.39 675.558C1033.19 675.158 1030.09 675.158 1028.39 676.658C1027.18 677.806 1026.46 679.386 1026.39 681.058C1026.79 682.658 1026.69 684.558 1028.79 684.658C1028.73 685.297 1028.89 685.939 1029.23 686.482C1029.57 687.025 1030.09 687.439 1030.69 687.658L1032.29 687.958C1032.39 688.158 1032.29 688.858 1032.39 689.058C1032.99 690.105 1033.9 690.942 1034.99 691.458C1034.57 692.528 1034.23 693.632 1033.99 694.758L1033.59 694.458C1033.19 694.258 1032.09 694.158 1031.89 693.958C1032 693.262 1032 692.553 1031.89 691.858C1031.39 690.058 1030.69 690.058 1029.29 689.458L1028.29 689.258C1028.27 688.8 1028.13 688.356 1027.89 687.969C1027.64 687.583 1027.3 687.269 1026.89 687.058C1022.59 685.058 1023.09 692.758 1023.49 694.658Z" fill="#F35D3C"/>
</g>
<defs>
<clipPath id="clip0_4841_1870">
<rect width="1440" height="765" fill="white" transform="translate(0.152588 0.22998)"/>
</clipPath>
</defs>
</svg>
