<svg width="1440" height="766" viewBox="0 0 1440 766" fill="none" xmlns="http://www.w3.org/2000/svg">
<g clip-path="url(#clip0_4841_1952)">
<path d="M-1 526.499C-1 526.499 553.5 696.5 1052.5 514C1235.23 447.17 1315 509.5 1439 572V1604.5H-0.999924L-1 526.499Z" fill="#D09928"/>
<path d="M890.478 757.591C892.494 757.591 894.127 755.957 894.127 753.941C894.127 751.926 892.494 750.292 890.478 750.292C888.463 750.292 886.829 751.926 886.829 753.941C886.829 755.957 888.463 757.591 890.478 757.591Z" fill="#CA8F16"/>
<path d="M783.604 804.511C784.18 804.511 784.646 804.044 784.646 803.468C784.646 802.892 784.18 802.426 783.604 802.426C783.028 802.426 782.561 802.892 782.561 803.468C782.561 804.044 783.028 804.511 783.604 804.511Z" fill="#CA8F16"/>
<path d="M584.453 661.366C584.453 662.26 583.857 662.707 583.261 662.707C583.024 662.707 582.797 662.566 582.629 662.314C582.461 662.063 582.367 661.722 582.367 661.366C582.367 660.473 582.665 659.579 583.261 659.579C583.577 659.579 583.88 659.767 584.104 660.103C584.327 660.438 584.453 660.892 584.453 661.366Z" fill="#CA8F16"/>
<path d="M1126.64 885.84C1127.8 885.84 1128.73 885.139 1128.73 884.276C1128.73 883.412 1127.8 882.712 1126.64 882.712C1125.49 882.712 1124.56 883.412 1124.56 884.276C1124.56 885.139 1125.49 885.84 1126.64 885.84Z" fill="#CA8F16"/>
<path d="M152.785 807.639C152.785 807.776 152.758 807.911 152.705 808.038C152.653 808.164 152.576 808.279 152.479 808.376C152.383 808.473 152.268 808.55 152.141 808.602C152.015 808.655 151.879 808.682 151.742 808.682C151.466 808.682 151.2 808.572 151.005 808.376C150.809 808.181 150.699 807.916 150.699 807.639C150.699 807.362 150.809 807.097 151.005 806.902C151.2 806.706 151.466 806.596 151.742 806.596C151.879 806.596 152.015 806.623 152.141 806.676C152.268 806.728 152.383 806.805 152.479 806.902C152.576 806.999 152.653 807.113 152.705 807.24C152.758 807.366 152.785 807.502 152.785 807.639Z" fill="#CA8F16"/>
<path d="M457.246 1148.75C457.168 1149.29 456.898 1149.78 456.485 1150.14C456.072 1150.49 455.544 1150.68 455 1150.68C454.49 1150.68 454 1150.48 453.639 1150.12C453.278 1149.75 453.076 1149.26 453.076 1148.75C453.07 1148.21 453.262 1147.68 453.616 1147.27C453.97 1146.86 454.462 1146.59 455 1146.51C455.596 1146.51 456.167 1146.75 456.588 1147.17C457.01 1147.59 457.246 1148.16 457.246 1148.75Z" fill="#CA8F16"/>
<path d="M773.177 1139.06C773.177 1139.38 772.989 1139.68 772.654 1139.9C772.318 1140.13 771.864 1140.25 771.39 1140.25C770.496 1140.25 770.049 1139.66 770.049 1139.06C770.049 1138.82 770.19 1138.6 770.442 1138.43C770.693 1138.26 771.034 1138.17 771.39 1138.17C772.283 1138.17 773.177 1138.47 773.177 1139.06Z" fill="#CA8F16"/>
<path d="M514.557 1155.68C514.611 1155.99 514.605 1156.31 514.539 1156.62C514.473 1156.93 514.35 1157.2 514.182 1157.43C514.013 1157.65 513.804 1157.82 513.575 1157.91C513.345 1157.99 513.103 1158 512.871 1157.93C512.027 1157.93 511.465 1157.18 511.465 1155.68C511.465 1155.18 511.613 1154.71 511.877 1154.36C512.14 1154 512.498 1153.81 512.871 1153.81C513.995 1153.81 514.557 1154.56 514.557 1155.68Z" fill="#CA8F16"/>
<path d="M596.965 894.181C596.965 894.458 596.871 894.723 596.703 894.918C596.535 895.114 596.308 895.224 596.071 895.224C595.475 895.224 594.879 894.876 594.879 894.181C594.879 893.486 595.475 893.138 596.071 893.138C596.308 893.138 596.535 893.248 596.703 893.444C596.871 893.639 596.965 893.905 596.965 894.181Z" fill="#CA8F16"/>
<path d="M803.415 1025.77C803.415 1026.18 803.067 1026.6 802.372 1026.6C801.677 1026.6 801.329 1026.18 801.329 1025.77C801.329 1025.43 801.439 1025.12 801.635 1024.88C801.83 1024.65 802.095 1024.52 802.372 1024.52C802.648 1024.52 802.914 1024.65 803.109 1024.88C803.305 1025.12 803.415 1025.43 803.415 1025.77Z" fill="#CA8F16"/>
<path d="M37.0478 641.693C37.0478 641.988 36.9803 642.28 36.8493 642.553C36.7183 642.825 36.5263 643.073 36.2843 643.281C36.0422 643.49 35.7548 643.655 35.4385 643.768C35.1223 643.881 34.7833 643.939 34.441 643.939C33.7496 643.939 33.0867 643.702 32.5978 643.281C32.109 642.86 31.8344 642.289 31.8344 641.693C31.9246 641.155 32.2384 640.663 32.7179 640.309C33.1973 639.955 33.8095 639.763 34.441 639.768C35.0724 639.763 35.6848 639.955 36.1643 640.309C36.6437 640.663 36.9576 641.155 37.0478 641.693Z" fill="#CA8F16"/>
<path d="M614.69 792.347C614.695 792.753 614.606 793.15 614.436 793.467C614.267 793.785 614.029 794.003 613.763 794.084C613.456 794.084 613.161 793.901 612.944 793.575C612.727 793.249 612.605 792.807 612.605 792.347C612.659 791.948 612.805 791.591 613.016 791.337C613.228 791.083 613.492 790.948 613.763 790.957C614.009 790.957 614.245 791.103 614.419 791.364C614.592 791.624 614.69 791.978 614.69 792.347Z" fill="#CA8F16"/>
<path d="M1242.38 1149.12C1242.38 1149.53 1242.22 1149.93 1241.92 1150.22C1241.63 1150.51 1241.23 1150.68 1240.82 1150.68C1240.4 1150.68 1240 1150.51 1239.71 1150.22C1239.42 1149.93 1239.25 1149.53 1239.25 1149.12C1239.25 1148.7 1239.42 1148.3 1239.71 1148.01C1240 1147.72 1240.4 1147.55 1240.82 1147.55C1241.23 1147.55 1241.63 1147.72 1241.92 1148.01C1242.22 1148.3 1242.38 1148.7 1242.38 1149.12Z" fill="#CA8F16"/>
<path d="M151.742 916.077C152.894 916.077 153.827 915.144 153.827 913.992C153.827 912.84 152.894 911.907 151.742 911.907C150.59 911.907 149.657 912.84 149.657 913.992C149.657 915.144 150.59 916.077 151.742 916.077Z" fill="#CA8F16"/>
<path d="M1067.21 1110.01C1067.22 1110.79 1066.97 1111.53 1066.51 1112.11C1066.06 1112.69 1065.44 1113.06 1064.76 1113.14C1064.4 1113.14 1064.04 1113.06 1063.7 1112.9C1063.37 1112.75 1063.06 1112.52 1062.81 1112.23C1062.55 1111.94 1062.35 1111.59 1062.21 1111.21C1062.07 1110.83 1062 1110.43 1062 1110.01C1062 1109.19 1062.29 1108.39 1062.81 1107.8C1063.32 1107.22 1064.03 1106.89 1064.76 1106.89C1065.44 1106.97 1066.06 1107.34 1066.51 1107.92C1066.97 1108.5 1067.22 1109.24 1067.21 1110.01Z" fill="#CA8F16"/>
<path d="M1414.42 707.382C1414.43 707.926 1414.19 708.453 1413.75 708.866C1413.3 709.279 1412.69 709.55 1412.02 709.627C1411.27 709.627 1410.56 709.391 1410.03 708.97C1409.51 708.549 1409.21 707.977 1409.21 707.382C1409.31 706.843 1409.64 706.351 1410.16 705.997C1410.68 705.643 1411.34 705.451 1412.02 705.457C1412.65 705.457 1413.27 705.66 1413.72 706.021C1414.17 706.382 1414.42 706.871 1414.42 707.382Z" fill="#CA8F16"/>
<path d="M16.1942 1125.66C16.1942 1125.93 16.0845 1126.2 15.889 1126.39C15.6934 1126.59 15.4281 1126.7 15.1516 1126.7C14.875 1126.7 14.6097 1126.59 14.4142 1126.39C14.2186 1126.2 14.1089 1125.93 14.1089 1125.66C14.1089 1125.38 14.2186 1125.11 14.4142 1124.92C14.6097 1124.72 14.875 1124.61 15.1516 1124.61C15.3912 1124.7 15.6089 1124.84 15.789 1125.02C15.9692 1125.2 16.1075 1125.42 16.1942 1125.66Z" fill="#CA8F16"/>
<path d="M1380.54 1040.16C1382.55 1040.16 1384.19 1038.76 1384.19 1037.03C1384.19 1035.3 1382.55 1033.9 1380.54 1033.9C1378.52 1033.9 1376.89 1035.3 1376.89 1037.03C1376.89 1038.76 1378.52 1040.16 1380.54 1040.16Z" fill="#CA8F16"/>
<path d="M1217.36 1020.34C1217.93 1020.34 1218.4 1019.88 1218.4 1019.3C1218.4 1018.73 1217.93 1018.26 1217.36 1018.26C1216.78 1018.26 1216.31 1018.73 1216.31 1019.3C1216.31 1019.88 1216.78 1020.34 1217.36 1020.34Z" fill="#CA8F16"/>
<path d="M488.526 744.036C488.441 744.569 488.085 745.068 487.515 745.447C486.946 745.827 486.199 746.064 485.398 746.121C484.598 746.064 483.851 745.827 483.281 745.447C482.712 745.068 482.355 744.569 482.27 744.036C482.355 743.502 482.712 743.004 483.281 742.624C483.851 742.245 484.598 742.007 485.398 741.95C486.199 742.007 486.946 742.245 487.515 742.624C488.085 743.004 488.441 743.502 488.526 744.036Z" fill="#CA8F16"/>
<path d="M397.814 940.037C397.814 940.308 397.76 940.576 397.657 940.826C397.553 941.076 397.401 941.304 397.209 941.495C397.018 941.687 396.79 941.839 396.54 941.943C396.29 942.046 396.021 942.1 395.75 942.1C395.466 942.166 395.17 942.158 394.889 942.078C394.608 941.997 394.353 941.847 394.146 941.641C393.94 941.434 393.79 941.179 393.709 940.898C393.629 940.617 393.621 940.321 393.687 940.037C393.687 939.489 393.905 938.965 394.292 938.578C394.679 938.191 395.203 937.973 395.75 937.973C396.021 937.973 396.29 938.027 396.54 938.131C396.79 938.234 397.018 938.386 397.209 938.578C397.401 938.769 397.553 938.997 397.657 939.247C397.76 939.497 397.814 939.766 397.814 940.037Z" fill="#CA8F16"/>
<path d="M863.368 912.949C864.232 912.949 864.932 912.016 864.932 910.864C864.932 909.712 864.232 908.779 863.368 908.779C862.505 908.779 861.804 909.712 861.804 910.864C861.804 912.016 862.505 912.949 863.368 912.949Z" fill="#CA8F16"/>
<path d="M921.237 1150.68C921.237 1150.96 921.111 1151.22 920.888 1151.42C920.665 1151.61 920.361 1151.72 920.045 1151.72C919.449 1151.72 919.152 1151.2 919.152 1150.68C919.152 1150.16 919.449 1149.64 920.045 1149.64C920.361 1149.64 920.665 1149.75 920.888 1149.94C921.111 1150.14 921.237 1150.4 921.237 1150.68Z" fill="#CA8F16"/>
<path d="M245.583 1127.74C245.583 1128.85 245.163 1129.91 244.415 1130.69C243.666 1131.47 242.652 1131.91 241.594 1131.91C240.5 1131.92 239.444 1131.49 238.638 1130.72C237.831 1129.94 237.333 1128.88 237.242 1127.74C237.333 1126.6 237.831 1125.54 238.638 1124.77C239.444 1123.99 240.5 1123.57 241.594 1123.57C242.652 1123.57 243.666 1124.01 244.415 1124.79C245.163 1125.57 245.583 1126.63 245.583 1127.74Z" fill="#CA8F16"/>
<path d="M346.722 832.465C346.726 833.558 346.372 834.613 345.728 835.422C345.085 836.231 344.199 836.735 343.247 836.834C342.233 836.834 341.26 836.374 340.543 835.554C339.827 834.735 339.424 833.623 339.424 832.465C339.511 831.376 339.952 830.364 340.659 829.629C341.367 828.893 342.29 828.488 343.247 828.493C344.142 828.582 344.982 829.029 345.617 829.756C346.253 830.482 346.644 831.441 346.722 832.465Z" fill="#CA8F16"/>
<path d="M134.017 1162.67C134.017 1163.36 133.742 1164.02 133.253 1164.51C132.764 1165 132.101 1165.28 131.41 1165.28C130.719 1165.28 130.056 1165 129.567 1164.51C129.078 1164.02 128.803 1163.36 128.803 1162.67C128.803 1161.98 129.078 1161.32 129.567 1160.83C130.056 1160.34 130.719 1160.06 131.41 1160.06C132.101 1160.06 132.764 1160.34 133.253 1160.83C133.742 1161.32 134.017 1161.98 134.017 1162.67Z" fill="#CA8F16"/>
<path d="M427.53 640.811C428.394 640.811 429.094 640.111 429.094 639.247C429.094 638.383 428.394 637.683 427.53 637.683C426.666 637.683 425.966 638.383 425.966 639.247C425.966 640.111 426.666 640.811 427.53 640.811Z" fill="#CA8F16"/>
<path d="M1268.45 675.219C1268.45 675.772 1268.25 676.303 1267.89 676.694C1267.54 677.085 1267.06 677.304 1266.55 677.304C1266.01 677.313 1265.48 677.107 1265.06 676.725C1264.65 676.342 1264.37 675.808 1264.28 675.219C1264.37 674.63 1264.65 674.096 1265.06 673.714C1265.48 673.331 1266.01 673.126 1266.55 673.134C1267.06 673.134 1267.54 673.354 1267.89 673.745C1268.25 674.136 1268.45 674.666 1268.45 675.219Z" fill="#CA8F16"/>
<path d="M1246.55 794.606C1246.55 795.297 1246.37 795.96 1246.05 796.449C1245.73 796.938 1245.3 797.212 1244.85 797.212C1244.44 797.109 1244.08 796.789 1243.82 796.311C1243.56 795.833 1243.42 795.228 1243.42 794.606C1243.42 793.983 1243.56 793.378 1243.82 792.9C1244.08 792.422 1244.44 792.102 1244.85 791.999C1245.07 791.999 1245.29 792.066 1245.5 792.197C1245.71 792.328 1245.89 792.52 1246.05 792.762C1246.21 793.004 1246.34 793.292 1246.42 793.608C1246.51 793.924 1246.55 794.263 1246.55 794.606Z" fill="#CA8F16"/>
<path d="M1144.89 704.414C1146.33 704.414 1147.5 703.247 1147.5 701.807C1147.5 700.368 1146.33 699.201 1144.89 699.201C1143.45 699.201 1142.28 700.368 1142.28 701.807C1142.28 703.247 1143.45 704.414 1144.89 704.414Z" fill="#CA8F16"/>
<path d="M1056.78 794.268C1056.69 795.081 1056.31 795.832 1055.7 796.376C1055.09 796.919 1054.3 797.217 1053.48 797.212C1052.71 797.212 1051.96 796.902 1051.41 796.35C1050.86 795.798 1050.55 795.049 1050.55 794.268C1050.5 793.852 1050.54 793.429 1050.66 793.028C1050.78 792.628 1050.99 792.258 1051.27 791.944C1051.55 791.631 1051.89 791.38 1052.27 791.21C1052.65 791.039 1053.07 790.953 1053.48 790.956C1054.36 790.956 1055.2 791.305 1055.82 791.926C1056.44 792.547 1056.78 793.39 1056.78 794.268Z" fill="#CA8F16"/>
<path d="M703.273 733.587C703.339 733.871 703.332 734.168 703.251 734.448C703.171 734.729 703.021 734.984 702.814 735.191C702.608 735.397 702.352 735.548 702.072 735.628C701.791 735.708 701.494 735.716 701.21 735.65C700.663 735.65 700.138 735.433 699.751 735.046C699.364 734.659 699.147 734.134 699.147 733.587C699.147 733.04 699.364 732.515 699.751 732.128C700.138 731.741 700.663 731.524 701.21 731.524C701.757 731.524 702.282 731.741 702.669 732.128C703.056 732.515 703.273 733.04 703.273 733.587Z" fill="#CA8F16"/>
<path d="M1027.59 662.186C1027.59 663.087 1027.3 663.959 1026.75 664.633C1026.21 665.307 1025.46 665.735 1024.65 665.835C1023.77 665.835 1022.93 665.451 1022.3 664.766C1021.68 664.082 1021.33 663.154 1021.33 662.186C1021.33 661.218 1021.68 660.29 1022.3 659.605C1022.93 658.921 1023.77 658.536 1024.65 658.536C1025.46 658.636 1026.21 659.065 1026.75 659.739C1027.3 660.412 1027.59 661.284 1027.59 662.186Z" fill="#CA8F16"/>
<path d="M1400.35 828.492C1402.36 828.492 1404 826.625 1404 824.322C1404 822.018 1402.36 820.151 1400.35 820.151C1398.33 820.151 1396.7 822.018 1396.7 824.322C1396.7 826.625 1398.33 828.492 1400.35 828.492Z" fill="#CA8F16"/>
<path d="M1382.1 622.925C1382.11 623.469 1381.87 623.996 1381.42 624.409C1380.98 624.823 1380.37 625.093 1379.69 625.171C1378.95 625.171 1378.24 624.934 1377.71 624.513C1377.18 624.092 1376.89 623.521 1376.89 622.925C1376.98 622.387 1377.32 621.895 1377.84 621.541C1378.35 621.187 1379.01 620.995 1379.69 621C1380.33 621 1380.94 621.203 1381.39 621.564C1381.85 621.925 1382.1 622.414 1382.1 622.925Z" fill="#CA8F16"/>
<path d="M43.3038 912.428C43.3038 912.843 43.139 913.241 42.8457 913.534C42.5524 913.827 42.1546 913.992 41.7399 913.992C41.3251 913.992 40.9272 913.827 40.6339 913.534C40.3406 913.241 40.1758 912.843 40.1758 912.428C40.1758 912.013 40.3406 911.615 40.6339 911.322C40.9272 911.029 41.3251 910.864 41.7399 910.864C42.1546 910.864 42.5524 911.029 42.8457 911.322C43.139 911.615 43.3038 912.013 43.3038 912.428Z" fill="#CA8F16"/>
<path d="M285.205 958.643C285.205 959.521 284.914 960.364 284.396 960.985C283.879 961.606 283.177 961.955 282.445 961.955C281.767 961.864 281.141 961.475 280.688 960.864C280.235 960.252 279.987 959.461 279.991 958.643C280.058 957.89 280.338 957.186 280.784 956.651C281.231 956.115 281.817 955.779 282.445 955.699C283.126 955.694 283.786 955.992 284.295 956.536C284.805 957.079 285.129 957.83 285.205 958.643Z" fill="#CA8F16"/>
<path d="M202.312 1026.6C204.327 1026.6 205.961 1024.97 205.961 1022.95C205.961 1020.94 204.327 1019.3 202.312 1019.3C200.296 1019.3 198.663 1020.94 198.663 1022.95C198.663 1024.97 200.296 1026.6 202.312 1026.6Z" fill="#CA8F16"/>
<path d="M15.1516 1008.02C15.0657 1008.83 14.6988 1009.58 14.1212 1010.12C13.5436 1010.67 12.7964 1010.97 12.0236 1010.96C11.2509 1010.97 10.5036 1010.67 9.92606 1010.12C9.34848 1009.58 8.98136 1008.83 8.89551 1008.02C8.89551 1007.14 9.22509 1006.3 9.81172 1005.67C10.3983 1005.05 11.194 1004.7 12.0236 1004.7C12.8533 1004.7 13.6489 1005.05 14.2356 1005.67C14.8222 1006.3 15.1516 1007.14 15.1516 1008.02Z" fill="#CA8F16"/>
<path d="M938.962 1013.57C938.962 1013.98 938.798 1014.38 938.504 1014.67C938.211 1014.97 937.813 1015.13 937.398 1015.13C936.984 1015.13 936.586 1014.97 936.293 1014.67C935.999 1014.38 935.834 1013.98 935.834 1013.57C935.834 1013.15 935.999 1012.75 936.293 1012.46C936.586 1012.17 936.984 1012 937.398 1012C937.813 1012 938.211 1012.17 938.504 1012.46C938.798 1012.75 938.962 1013.15 938.962 1013.57Z" fill="#CA8F16"/>
<path d="M316.485 682.197C316.485 682.835 316.265 683.447 315.874 683.898C315.483 684.35 314.953 684.603 314.4 684.603C313.846 684.603 313.316 684.35 312.925 683.898C312.534 683.447 312.314 682.835 312.314 682.197C312.314 680.593 313.009 679.39 314.4 679.39C315.79 679.39 316.485 680.593 316.485 682.197Z" fill="#CA8F16"/>
<path d="M1367.5 924.246C1367.5 924.816 1367.39 925.381 1367.17 925.908C1366.95 926.435 1366.63 926.914 1366.23 927.317C1365.83 927.721 1365.35 928.04 1364.82 928.259C1364.29 928.477 1363.73 928.589 1363.16 928.589C1362.6 928.592 1362.05 928.478 1361.55 928.256C1361.04 928.033 1360.58 927.707 1360.21 927.298C1359.83 926.889 1359.55 926.407 1359.37 925.881C1359.19 925.355 1359.13 924.798 1359.18 924.246C1359.18 923.19 1359.6 922.177 1360.34 921.431C1361.09 920.684 1362.1 920.264 1363.16 920.264C1363.71 920.214 1364.27 920.28 1364.79 920.457C1365.32 920.634 1365.8 920.92 1366.21 921.294C1366.62 921.669 1366.95 922.126 1367.17 922.634C1367.39 923.142 1367.5 923.691 1367.5 924.246Z" fill="#CA8F16"/>
<path d="M485.398 874.519C485.398 874.756 485.257 874.984 485.006 875.151C484.754 875.319 484.413 875.413 484.058 875.413C483.164 875.413 482.27 875.115 482.27 874.519C482.27 874.203 482.459 873.9 482.794 873.677C483.129 873.453 483.584 873.328 484.058 873.328C484.952 873.328 485.398 873.923 485.398 874.519Z" fill="#CA8F16"/>
<path d="M715.83 908.779C716.406 908.779 716.872 908.545 716.872 908.257C716.872 907.969 716.406 907.736 715.83 907.736C715.254 907.736 714.787 907.969 714.787 908.257C714.787 908.545 715.254 908.779 715.83 908.779Z" fill="#CA8F16"/>
<path d="M587.581 1017.22C588.732 1017.22 589.666 1016.28 589.666 1015.13C589.666 1013.98 588.732 1013.05 587.581 1013.05C586.429 1013.05 585.495 1013.98 585.495 1015.13C585.495 1016.28 586.429 1017.22 587.581 1017.22Z" fill="#CA8F16"/>
<path d="M88.1389 1054.75C88.7147 1054.75 89.1815 1054.29 89.1815 1053.71C89.1815 1053.13 88.7147 1052.67 88.1389 1052.67C87.563 1052.67 87.0962 1053.13 87.0962 1053.71C87.0962 1054.29 87.563 1054.75 88.1389 1054.75Z" fill="#CA8F16"/>
<path d="M446.298 1032.86C447.738 1032.86 448.905 1031.46 448.905 1029.73C448.905 1028 447.738 1026.6 446.298 1026.6C444.858 1026.6 443.691 1028 443.691 1029.73C443.691 1031.46 444.858 1032.86 446.298 1032.86Z" fill="#CA8F16"/>
<path d="M857.634 650.195C857.634 651.025 857.304 651.82 856.717 652.407C856.131 652.993 855.335 653.323 854.506 653.323C853.676 653.323 852.88 652.993 852.294 652.407C851.707 651.82 851.378 651.025 851.378 650.195C851.378 649.365 851.707 648.57 852.294 647.983C852.88 647.396 853.676 647.067 854.506 647.067C855.335 647.067 856.131 647.396 856.717 647.983C857.304 648.57 857.634 649.365 857.634 650.195Z" fill="#CA8F16"/>
<path d="M713.744 636.988C713.748 637.944 713.394 638.867 712.75 639.575C712.107 640.283 711.221 640.724 710.269 640.811C709.255 640.811 708.282 640.408 707.565 639.691C706.848 638.974 706.446 638.002 706.446 636.988C706.533 636.035 706.974 635.15 707.681 634.506C708.389 633.863 709.312 633.508 710.269 633.512C711.164 633.59 712.004 633.982 712.639 634.617C713.275 635.253 713.666 636.092 713.744 636.988Z" fill="#CA8F16"/>
<path d="M1428.5 1171.53C1429.94 1171.53 1431.11 1170.6 1431.11 1169.45C1431.11 1168.3 1429.94 1167.36 1428.5 1167.36C1427.06 1167.36 1425.89 1168.3 1425.89 1169.45C1425.89 1170.6 1427.06 1171.53 1428.5 1171.53Z" fill="#CA8F16"/>
<path d="M972.328 856.096C972.328 857.815 971.766 858.675 970.923 858.675C970.69 858.757 970.448 858.748 970.219 858.647C969.989 858.547 969.78 858.359 969.612 858.101C969.443 857.843 969.32 857.523 969.254 857.172C969.189 856.822 969.182 856.451 969.236 856.096C969.236 855.757 969.28 855.422 969.365 855.109C969.449 854.796 969.574 854.512 969.73 854.272C969.887 854.033 970.073 853.843 970.277 853.713C970.482 853.583 970.701 853.517 970.923 853.517C971.32 853.619 971.679 853.936 971.937 854.409C972.195 854.882 972.334 855.48 972.328 856.096Z" fill="#CA8F16"/>
<path d="M199.184 641.854C201.199 641.854 202.833 640.22 202.833 638.204C202.833 636.189 201.199 634.555 199.184 634.555C197.168 634.555 195.535 636.189 195.535 638.204C195.535 640.22 197.168 641.854 199.184 641.854Z" fill="#CA8F16"/>
<path d="M251.318 779.487C252.181 779.487 252.882 778.787 252.882 777.923C252.882 777.059 252.181 776.359 251.318 776.359C250.454 776.359 249.754 777.059 249.754 777.923C249.754 778.787 250.454 779.487 251.318 779.487Z" fill="#CA8F16"/>
<path d="M1247.59 898.873C1247.59 899.288 1247.43 899.686 1247.14 899.979C1246.84 900.272 1246.45 900.437 1246.03 900.437C1245.62 900.437 1245.22 900.272 1244.92 899.979C1244.63 899.686 1244.47 899.288 1244.47 898.873C1244.47 898.458 1244.63 898.061 1244.92 897.767C1245.22 897.474 1245.62 897.309 1246.03 897.309C1246.45 897.309 1246.84 897.474 1247.14 897.767C1247.43 898.061 1247.59 898.458 1247.59 898.873Z" fill="#CA8F16"/>
<path d="M117.334 695.03C118.485 695.03 119.419 694.33 119.419 693.466C119.419 692.602 118.485 691.902 117.334 691.902C116.182 691.902 115.248 692.602 115.248 693.466C115.248 694.33 116.182 695.03 117.334 695.03Z" fill="#CA8F16"/>
<path d="M349.851 1147.55C349.851 1147.83 349.741 1148.09 349.545 1148.29C349.35 1148.48 349.084 1148.59 348.808 1148.59C348.531 1148.59 348.266 1148.48 348.071 1148.29C347.875 1148.09 347.765 1147.83 347.765 1147.55C347.765 1147.27 347.875 1147.01 348.071 1146.81C348.266 1146.62 348.531 1146.51 348.808 1146.51C349.084 1146.51 349.35 1146.62 349.545 1146.81C349.741 1147.01 349.851 1147.27 349.851 1147.55Z" fill="#CA8F16"/>
<path d="M514.593 1066.39C514.596 1066.81 514.528 1067.23 514.394 1067.61C514.26 1067.99 514.062 1068.33 513.816 1068.61C513.569 1068.89 513.278 1069.1 512.962 1069.22C512.647 1069.34 512.314 1069.38 511.987 1069.33C511.659 1069.38 511.326 1069.34 511.011 1069.22C510.695 1069.1 510.404 1068.89 510.158 1068.61C509.911 1068.33 509.714 1067.99 509.58 1067.61C509.445 1067.23 509.377 1066.81 509.38 1066.39C509.38 1065.52 509.655 1064.68 510.143 1064.06C510.632 1063.44 511.295 1063.09 511.987 1063.09C512.678 1063.09 513.341 1063.44 513.83 1064.06C514.319 1064.68 514.593 1065.52 514.593 1066.39Z" fill="#CA8F16"/>
<path d="M37.0305 779.305C37.0832 779.859 37.0149 780.417 36.8298 780.944C36.6448 781.47 36.3472 781.954 35.9561 782.364C35.5651 782.774 35.0891 783.1 34.5588 783.323C34.0286 783.546 33.4559 783.66 32.8772 783.657C32.2984 783.66 31.7255 783.546 31.1952 783.323C30.665 783.1 30.1892 782.774 29.7982 782.364C29.4071 781.954 29.1095 781.47 28.9245 780.944C28.7395 780.417 28.6709 779.859 28.7235 779.305C28.7235 778.781 28.831 778.263 29.0397 777.779C29.2485 777.295 29.5545 776.855 29.9401 776.484C30.3258 776.114 30.7837 775.82 31.2877 775.62C31.7916 775.419 32.3317 775.316 32.8772 775.316C33.4226 775.316 33.9627 775.419 34.4667 775.62C34.9706 775.82 35.4285 776.114 35.8142 776.484C36.1999 776.855 36.5056 777.295 36.7143 777.779C36.9231 778.263 37.0305 778.781 37.0305 779.305Z" fill="#CA8F16"/>
<path d="M1092.24 993.745C1092.24 994.71 1091.91 995.635 1091.32 996.318C1090.74 997 1089.94 997.383 1089.12 997.383C1088.7 997.442 1088.27 997.388 1087.87 997.226C1087.47 997.063 1087.1 996.797 1086.8 996.447C1086.5 996.097 1086.27 995.672 1086.13 995.204C1086 994.736 1085.95 994.237 1086 993.745C1086 992.78 1086.33 991.855 1086.91 991.173C1087.5 990.491 1088.29 990.107 1089.12 990.107C1089.92 990.189 1090.67 990.599 1091.24 991.264C1091.81 991.929 1092.17 992.808 1092.24 993.745Z" fill="#CA8F16"/>
<path d="M549.523 1372.77C547.508 1372.77 545.874 1371.14 545.874 1369.12C545.874 1367.1 547.508 1365.47 549.523 1365.47C551.538 1365.47 553.172 1367.1 553.172 1369.12C553.172 1371.14 551.538 1372.77 549.523 1372.77Z" fill="#CA8F16"/>
<path d="M656.397 1419.69C655.821 1419.69 655.355 1419.22 655.355 1418.65C655.355 1418.07 655.821 1417.6 656.397 1417.6C656.973 1417.6 657.44 1418.07 657.44 1418.65C657.44 1419.22 656.973 1419.69 656.397 1419.69Z" fill="#CA8F16"/>
<path d="M855.548 1276.55C855.548 1277.44 856.144 1277.89 856.74 1277.89C856.977 1277.89 857.204 1277.74 857.372 1277.49C857.54 1277.24 857.634 1276.9 857.634 1276.55C857.634 1275.65 857.336 1274.76 856.74 1274.76C856.424 1274.76 856.121 1274.95 855.897 1275.28C855.674 1275.62 855.548 1276.07 855.548 1276.55Z" fill="#CA8F16"/>
<path d="M313.357 1501.02C312.205 1501.02 311.272 1500.32 311.272 1499.45C311.272 1498.59 312.205 1497.89 313.357 1497.89C314.509 1497.89 315.442 1498.59 315.442 1499.45C315.442 1500.32 314.509 1501.02 313.357 1501.02Z" fill="#CA8F16"/>
<path d="M1287.22 1422.82C1287.22 1422.95 1287.24 1423.09 1287.3 1423.22C1287.35 1423.34 1287.42 1423.46 1287.52 1423.55C1287.62 1423.65 1287.73 1423.73 1287.86 1423.78C1287.99 1423.83 1288.12 1423.86 1288.26 1423.86C1288.54 1423.86 1288.8 1423.75 1289 1423.55C1289.19 1423.36 1289.3 1423.09 1289.3 1422.82C1289.3 1422.54 1289.19 1422.28 1289 1422.08C1288.8 1421.88 1288.54 1421.78 1288.26 1421.78C1288.12 1421.78 1287.99 1421.8 1287.86 1421.85C1287.73 1421.91 1287.62 1421.98 1287.52 1422.08C1287.42 1422.18 1287.35 1422.29 1287.3 1422.42C1287.24 1422.55 1287.22 1422.68 1287.22 1422.82Z" fill="#CA8F16"/>
<path d="M843.036 1509.36C843.036 1509.64 843.13 1509.9 843.298 1510.1C843.466 1510.29 843.693 1510.4 843.93 1510.4C844.526 1510.4 845.122 1510.05 845.122 1509.36C845.122 1508.66 844.526 1508.32 843.93 1508.32C843.693 1508.32 843.466 1508.43 843.298 1508.62C843.13 1508.82 843.036 1509.08 843.036 1509.36Z" fill="#CA8F16"/>
<path d="M1402.95 1256.87C1402.95 1257.17 1403.02 1257.46 1403.15 1257.73C1403.28 1258 1403.47 1258.25 1403.72 1258.46C1403.96 1258.67 1404.25 1258.83 1404.56 1258.95C1404.88 1259.06 1405.22 1259.12 1405.56 1259.12C1406.25 1259.12 1406.91 1258.88 1407.4 1258.46C1407.89 1258.04 1408.17 1257.47 1408.17 1256.87C1408.08 1256.33 1407.76 1255.84 1407.28 1255.49C1406.8 1255.13 1406.19 1254.94 1405.56 1254.95C1404.93 1254.94 1404.32 1255.13 1403.84 1255.49C1403.36 1255.84 1403.04 1256.33 1402.95 1256.87Z" fill="#CA8F16"/>
<path d="M825.311 1407.53C825.306 1407.93 825.395 1408.33 825.565 1408.65C825.734 1408.96 825.972 1409.18 826.238 1409.26C826.545 1409.26 826.84 1409.08 827.057 1408.75C827.274 1408.43 827.396 1407.99 827.396 1407.53C827.342 1407.13 827.196 1406.77 826.985 1406.52C826.773 1406.26 826.509 1406.13 826.238 1406.14C825.992 1406.14 825.756 1406.28 825.582 1406.54C825.409 1406.8 825.311 1407.16 825.311 1407.53Z" fill="#CA8F16"/>
<path d="M1288.26 1531.26C1287.11 1531.26 1286.17 1530.32 1286.17 1529.17C1286.17 1528.02 1287.11 1527.09 1288.26 1527.09C1289.41 1527.09 1290.34 1528.02 1290.34 1529.17C1290.34 1530.32 1289.41 1531.26 1288.26 1531.26Z" fill="#CA8F16"/>
<path d="M25.5785 1322.56C25.5715 1323.1 25.8116 1323.63 26.2542 1324.04C26.6967 1324.46 27.3116 1324.73 27.9846 1324.81C28.7291 1324.81 29.4431 1324.57 29.9695 1324.15C30.496 1323.73 30.7917 1323.16 30.7917 1322.56C30.6946 1322.02 30.3565 1321.53 29.8402 1321.18C29.3239 1320.82 28.6646 1320.63 27.9846 1320.64C27.3465 1320.64 26.7345 1320.84 26.2832 1321.2C25.832 1321.56 25.5785 1322.05 25.5785 1322.56Z" fill="#CA8F16"/>
<path d="M951.475 1359.21C951.56 1359.75 951.916 1360.25 952.486 1360.63C953.055 1361.01 953.802 1361.24 954.603 1361.3C955.403 1361.24 956.15 1361.01 956.72 1360.63C957.289 1360.25 957.646 1359.75 957.731 1359.21C957.646 1358.68 957.289 1358.18 956.72 1357.8C956.15 1357.42 955.403 1357.19 954.603 1357.13C953.802 1357.19 953.055 1357.42 952.486 1357.8C951.916 1358.18 951.56 1358.68 951.475 1359.21Z" fill="#CA8F16"/>
<path d="M1042.19 1555.22C1042.19 1555.49 1042.24 1555.75 1042.34 1556C1042.45 1556.26 1042.6 1556.48 1042.79 1556.67C1042.98 1556.87 1043.21 1557.02 1043.46 1557.12C1043.71 1557.23 1043.98 1557.28 1044.25 1557.28C1044.53 1557.34 1044.83 1557.34 1045.11 1557.26C1045.39 1557.18 1045.65 1557.03 1045.85 1556.82C1046.06 1556.61 1046.21 1556.36 1046.29 1556.08C1046.37 1555.8 1046.38 1555.5 1046.31 1555.22C1046.31 1554.67 1046.1 1554.14 1045.71 1553.76C1045.32 1553.37 1044.8 1553.15 1044.25 1553.15C1043.98 1553.15 1043.71 1553.21 1043.46 1553.31C1043.21 1553.41 1042.98 1553.56 1042.79 1553.76C1042.6 1553.95 1042.45 1554.18 1042.34 1554.43C1042.24 1554.68 1042.19 1554.94 1042.19 1555.22Z" fill="#CA8F16"/>
<path d="M576.633 1528.13C575.769 1528.13 575.069 1527.19 575.069 1526.04C575.069 1524.89 575.769 1523.96 576.633 1523.96C577.496 1523.96 578.197 1524.89 578.197 1526.04C578.197 1527.19 577.496 1528.13 576.633 1528.13Z" fill="#CA8F16"/>
<path d="M1093.28 1447.64C1093.27 1448.74 1093.63 1449.79 1094.27 1450.6C1094.92 1451.41 1095.8 1451.91 1096.75 1452.01C1097.77 1452.01 1098.74 1451.55 1099.46 1450.73C1100.17 1449.91 1100.58 1448.8 1100.58 1447.64C1100.49 1446.55 1100.05 1445.54 1099.34 1444.81C1098.63 1444.07 1097.71 1443.67 1096.75 1443.67C1095.86 1443.76 1095.02 1444.21 1094.38 1444.93C1093.75 1445.66 1093.36 1446.62 1093.28 1447.64Z" fill="#CA8F16"/>
<path d="M1012.47 1255.99C1011.61 1255.99 1010.91 1255.29 1010.91 1254.43C1010.91 1253.56 1011.61 1252.86 1012.47 1252.86C1013.33 1252.86 1014.04 1253.56 1014.04 1254.43C1014.04 1255.29 1013.33 1255.99 1012.47 1255.99Z" fill="#CA8F16"/>
<path d="M171.553 1290.4C171.553 1290.95 171.753 1291.48 172.108 1291.87C172.464 1292.26 172.946 1292.48 173.449 1292.48C173.992 1292.49 174.52 1292.29 174.937 1291.9C175.354 1291.52 175.633 1290.99 175.724 1290.4C175.633 1289.81 175.354 1289.27 174.937 1288.89C174.52 1288.51 173.992 1288.3 173.449 1288.31C172.946 1288.31 172.464 1288.53 172.108 1288.92C171.753 1289.31 171.553 1289.84 171.553 1290.4Z" fill="#CA8F16"/>
<path d="M193.449 1409.78C193.449 1410.48 193.629 1411.14 193.949 1411.63C194.269 1412.12 194.703 1412.39 195.155 1412.39C195.557 1412.29 195.921 1411.97 196.182 1411.49C196.442 1411.01 196.583 1410.41 196.577 1409.78C196.583 1409.16 196.442 1408.56 196.182 1408.08C195.921 1407.6 195.557 1407.28 195.155 1407.18C194.931 1407.18 194.709 1407.24 194.502 1407.38C194.295 1407.51 194.107 1407.7 193.949 1407.94C193.79 1408.18 193.665 1408.47 193.579 1408.79C193.493 1409.1 193.449 1409.44 193.449 1409.78Z" fill="#CA8F16"/>
<path d="M295.11 1319.59C293.67 1319.59 292.503 1318.43 292.503 1316.99C292.503 1315.55 293.67 1314.38 295.11 1314.38C296.55 1314.38 297.717 1315.55 297.717 1316.99C297.717 1318.43 296.55 1319.59 295.11 1319.59Z" fill="#CA8F16"/>
<path d="M383.216 1409.45C383.307 1410.26 383.694 1411.01 384.303 1411.55C384.913 1412.1 385.701 1412.4 386.516 1412.39C387.294 1412.39 388.04 1412.08 388.59 1411.53C389.14 1410.98 389.449 1410.23 389.449 1409.45C389.502 1409.03 389.465 1408.61 389.341 1408.21C389.217 1407.81 389.009 1407.44 388.731 1407.12C388.454 1406.81 388.112 1406.56 387.73 1406.39C387.348 1406.22 386.934 1406.13 386.516 1406.13C385.641 1406.13 384.802 1406.48 384.183 1407.11C383.564 1407.73 383.216 1408.57 383.216 1409.45Z" fill="#CA8F16"/>
<path d="M736.728 1348.77C736.662 1349.05 736.669 1349.35 736.75 1349.63C736.83 1349.91 736.98 1350.16 737.187 1350.37C737.393 1350.58 737.649 1350.73 737.93 1350.81C738.21 1350.89 738.507 1350.89 738.791 1350.83C739.338 1350.83 739.863 1350.61 740.25 1350.22C740.637 1349.84 740.854 1349.31 740.854 1348.77C740.854 1348.22 740.637 1347.69 740.25 1347.31C739.863 1346.92 739.338 1346.7 738.791 1346.7C738.244 1346.7 737.719 1346.92 737.332 1347.31C736.945 1347.69 736.728 1348.22 736.728 1348.77Z" fill="#CA8F16"/>
<path d="M412.411 1277.36C412.406 1278.27 412.704 1279.14 413.248 1279.81C413.791 1280.49 414.542 1280.91 415.355 1281.01C416.234 1281.01 417.076 1280.63 417.697 1279.94C418.318 1279.26 418.667 1278.33 418.667 1277.36C418.667 1276.4 418.318 1275.47 417.697 1274.78C417.076 1274.1 416.234 1273.72 415.355 1273.72C414.542 1273.82 413.791 1274.24 413.248 1274.92C412.704 1275.59 412.406 1276.46 412.411 1277.36Z" fill="#CA8F16"/>
<path d="M39.6544 1443.67C37.639 1443.67 36.0051 1441.8 36.0051 1439.5C36.0051 1437.2 37.639 1435.33 39.6544 1435.33C41.6699 1435.33 43.3038 1437.2 43.3038 1439.5C43.3038 1441.8 41.6699 1443.67 39.6544 1443.67Z" fill="#CA8F16"/>
<path d="M57.9014 1238.1C57.8944 1238.65 58.1345 1239.18 58.577 1239.59C59.0195 1240 59.6345 1240.27 60.3075 1240.35C61.052 1240.35 61.766 1240.11 62.2924 1239.69C62.8189 1239.27 63.1146 1238.7 63.1146 1238.1C63.0175 1237.57 62.6794 1237.07 62.1631 1236.72C61.6468 1236.37 60.9874 1236.17 60.3075 1236.18C59.6693 1236.18 59.0573 1236.38 58.6061 1236.74C58.1549 1237.1 57.9014 1237.59 57.9014 1238.1Z" fill="#CA8F16"/>
<path d="M1396.7 1527.61C1396.7 1528.02 1396.86 1528.42 1397.16 1528.71C1397.45 1529.01 1397.85 1529.17 1398.26 1529.17C1398.68 1529.17 1399.07 1529.01 1399.37 1528.71C1399.66 1528.42 1399.83 1528.02 1399.83 1527.61C1399.83 1527.19 1399.66 1526.79 1399.37 1526.5C1399.07 1526.21 1398.68 1526.04 1398.26 1526.04C1397.85 1526.04 1397.45 1526.21 1397.16 1526.5C1396.86 1526.79 1396.7 1527.19 1396.7 1527.61Z" fill="#CA8F16"/>
<path d="M1154.8 1573.82C1154.8 1574.7 1155.09 1575.54 1155.6 1576.16C1156.12 1576.78 1156.82 1577.13 1157.56 1577.13C1158.23 1577.04 1158.86 1576.65 1159.31 1576.04C1159.77 1575.43 1160.01 1574.64 1160.01 1573.82C1159.94 1573.07 1159.66 1572.37 1159.22 1571.83C1158.77 1571.29 1158.18 1570.96 1157.56 1570.88C1156.87 1570.87 1156.22 1571.17 1155.71 1571.71C1155.2 1572.26 1154.87 1573.01 1154.8 1573.82Z" fill="#CA8F16"/>
<path d="M1123.52 1297.38C1123.52 1298.01 1123.74 1298.63 1124.13 1299.08C1124.52 1299.53 1125.05 1299.78 1125.6 1299.78C1126.15 1299.78 1126.68 1299.53 1127.08 1299.08C1127.47 1298.63 1127.69 1298.01 1127.69 1297.38C1127.69 1295.77 1126.99 1294.57 1125.6 1294.57C1124.21 1294.57 1123.52 1295.77 1123.52 1297.38Z" fill="#CA8F16"/>
<path d="M72.4988 1539.42C72.4988 1540 72.6112 1540.56 72.8295 1541.09C73.0477 1541.61 73.3676 1542.09 73.771 1542.5C74.1743 1542.9 74.6531 1543.22 75.1801 1543.44C75.7071 1543.66 76.2718 1543.77 76.8422 1543.77C77.397 1543.77 77.9461 1543.66 78.4544 1543.43C78.9626 1543.21 79.4188 1542.89 79.7937 1542.48C80.1685 1542.07 80.4538 1541.59 80.6312 1541.06C80.8085 1540.53 80.8741 1539.98 80.8237 1539.42C80.8237 1538.37 80.4042 1537.36 79.6575 1536.61C78.9109 1535.86 77.8982 1535.44 76.8422 1535.44C76.2898 1535.39 75.7328 1535.46 75.2072 1535.64C74.6816 1535.81 74.1988 1536.1 73.7899 1536.47C73.3809 1536.85 73.0548 1537.3 72.8325 1537.81C72.6102 1538.32 72.4965 1538.87 72.4988 1539.42Z" fill="#CA8F16"/>
<path d="M954.603 1489.7C954.603 1489.93 954.744 1490.16 954.995 1490.33C955.247 1490.5 955.588 1490.59 955.943 1490.59C956.837 1490.59 957.731 1490.29 957.731 1489.7C957.731 1489.38 957.542 1489.08 957.207 1488.86C956.872 1488.63 956.417 1488.51 955.943 1488.51C955.049 1488.51 954.603 1489.1 954.603 1489.7Z" fill="#CA8F16"/>
<path d="M724.171 1523.96C723.595 1523.96 723.129 1523.72 723.129 1523.44C723.129 1523.15 723.595 1522.91 724.171 1522.91C724.747 1522.91 725.214 1523.15 725.214 1523.44C725.214 1523.72 724.747 1523.96 724.171 1523.96Z" fill="#CA8F16"/>
<path d="M582.367 1265.37C582.367 1266.2 582.697 1267 583.284 1267.59C583.87 1268.17 584.666 1268.5 585.495 1268.5C586.325 1268.5 587.121 1268.17 587.707 1267.59C588.294 1267 588.623 1266.2 588.623 1265.37C588.623 1264.54 588.294 1263.75 587.707 1263.16C587.121 1262.58 586.325 1262.25 585.495 1262.25C584.666 1262.25 583.87 1262.58 583.284 1263.16C582.697 1263.75 582.367 1264.54 582.367 1265.37Z" fill="#CA8F16"/>
<path d="M726.257 1252.17C726.253 1253.12 726.607 1254.05 727.251 1254.75C727.894 1255.46 728.78 1255.9 729.732 1255.99C730.746 1255.99 731.719 1255.59 732.436 1254.87C733.153 1254.15 733.555 1253.18 733.555 1252.17C733.468 1251.21 733.028 1250.33 732.32 1249.69C731.612 1249.04 730.689 1248.69 729.732 1248.69C728.837 1248.77 727.997 1249.16 727.362 1249.8C726.726 1250.43 726.335 1251.27 726.257 1252.17Z" fill="#CA8F16"/>
<path d="M467.673 1471.27C467.673 1472.99 468.235 1473.85 469.078 1473.85C469.311 1473.94 469.553 1473.93 469.782 1473.83C470.012 1473.73 470.221 1473.54 470.389 1473.28C470.558 1473.02 470.681 1472.7 470.747 1472.35C470.812 1472 470.819 1471.63 470.765 1471.27C470.765 1470.94 470.721 1470.6 470.636 1470.29C470.552 1469.97 470.427 1469.69 470.271 1469.45C470.114 1469.21 469.928 1469.02 469.724 1468.89C469.519 1468.76 469.3 1468.7 469.078 1468.7C468.681 1468.8 468.321 1469.11 468.064 1469.59C467.806 1470.06 467.667 1470.66 467.673 1471.27Z" fill="#CA8F16"/>
<path d="M1240.82 1257.03C1238.8 1257.03 1237.17 1255.4 1237.17 1253.38C1237.17 1251.37 1238.8 1249.73 1240.82 1249.73C1242.83 1249.73 1244.47 1251.37 1244.47 1253.38C1244.47 1255.4 1242.83 1257.03 1240.82 1257.03Z" fill="#CA8F16"/>
<path d="M1188.68 1394.67C1187.82 1394.67 1187.12 1393.97 1187.12 1393.1C1187.12 1392.24 1187.82 1391.54 1188.68 1391.54C1189.55 1391.54 1190.25 1392.24 1190.25 1393.1C1190.25 1393.97 1189.55 1394.67 1188.68 1394.67Z" fill="#CA8F16"/>
<path d="M192.407 1514.05C192.407 1514.47 192.571 1514.86 192.865 1515.16C193.158 1515.45 193.556 1515.62 193.971 1515.62C194.385 1515.62 194.783 1515.45 195.076 1515.16C195.37 1514.86 195.535 1514.47 195.535 1514.05C195.535 1513.64 195.37 1513.24 195.076 1512.95C194.783 1512.65 194.385 1512.49 193.971 1512.49C193.556 1512.49 193.158 1512.65 192.865 1512.95C192.571 1513.24 192.407 1513.64 192.407 1514.05Z" fill="#CA8F16"/>
<path d="M1322.67 1310.21C1321.52 1310.21 1320.58 1309.51 1320.58 1308.64C1320.58 1307.78 1321.52 1307.08 1322.67 1307.08C1323.82 1307.08 1324.75 1307.78 1324.75 1308.64C1324.75 1309.51 1323.82 1310.21 1322.67 1310.21Z" fill="#CA8F16"/>
<path d="M1402.97 1394.48C1402.92 1395.04 1402.99 1395.6 1403.17 1396.12C1403.36 1396.65 1403.65 1397.13 1404.04 1397.54C1404.44 1397.95 1404.91 1398.28 1405.44 1398.5C1405.97 1398.72 1406.55 1398.84 1407.12 1398.84C1407.7 1398.84 1408.28 1398.72 1408.81 1398.5C1409.34 1398.28 1409.81 1397.95 1410.2 1397.54C1410.59 1397.13 1410.89 1396.65 1411.08 1396.12C1411.26 1395.6 1411.33 1395.04 1411.28 1394.48C1411.28 1393.96 1411.17 1393.44 1410.96 1392.96C1410.75 1392.47 1410.45 1392.03 1410.06 1391.66C1409.68 1391.29 1409.22 1391 1408.71 1390.8C1408.21 1390.6 1407.67 1390.49 1407.12 1390.49C1406.58 1390.49 1406.04 1390.6 1405.53 1390.8C1405.03 1391 1404.57 1391.29 1404.19 1391.66C1403.8 1392.03 1403.5 1392.47 1403.29 1392.96C1403.08 1393.44 1402.97 1393.96 1402.97 1394.48Z" fill="#CA8F16"/>
<path d="M1258.97 256.781L1250.15 269.736C1247.16 274.121 1248.3 280.093 1252.68 283.075L1275.95 298.889C1280.33 301.87 1286.31 300.733 1289.3 296.347L1298.11 283.392C1301.1 279.007 1299.96 273.035 1295.58 270.053L1272.31 254.24C1267.93 251.258 1261.95 252.395 1258.97 256.781Z" fill="#AA7405"/>
<path d="M1258.95 256.968L1249.78 270.545C1249.1 271.542 1248.62 272.665 1248.38 273.849C1248.14 275.032 1248.13 276.252 1248.36 277.437C1248.6 278.622 1249.07 279.748 1249.74 280.75C1250.41 281.753 1251.28 282.611 1252.29 283.274L1258.48 287.649C1256.5 286.265 1255.13 284.165 1254.66 281.791C1254.19 279.417 1254.66 276.954 1255.97 274.919L1265.14 261.343C1266.6 259.379 1268.74 258.026 1271.13 257.547C1273.53 257.068 1276.02 257.497 1278.12 258.75L1271.77 254.694C1269.75 253.336 1267.29 252.814 1264.9 253.239C1262.51 253.663 1260.37 255 1258.95 256.968Z" fill="#231005"/>
<path d="M1293.32 277.85L1280.73 287.187C1276.47 290.348 1275.57 296.362 1278.74 300.62L1295.5 323.202C1298.66 327.46 1304.68 328.35 1308.94 325.189L1321.53 315.852C1325.79 312.691 1326.68 306.677 1323.52 302.419L1306.76 279.837C1303.6 275.579 1297.58 274.689 1293.32 277.85Z" fill="#AA7405"/>
<path d="M1293.76 277.599L1280.47 287.46C1279.49 288.162 1278.66 289.058 1278.04 290.092C1277.42 291.126 1277.01 292.276 1276.85 293.472C1276.69 294.669 1276.77 295.885 1277.1 297.047C1277.42 298.209 1277.99 299.292 1278.75 300.229L1283.08 306.263C1281.68 304.286 1281.1 301.841 1281.47 299.444C1281.84 297.047 1283.12 294.886 1285.05 293.417L1298.18 283.874C1299.12 283.113 1300.2 282.552 1301.36 282.225C1302.53 281.899 1303.74 281.813 1304.94 281.974C1306.14 282.136 1307.29 282.54 1308.32 283.162C1309.36 283.785 1310.25 284.613 1310.95 285.594L1306.62 279.56C1305.15 277.631 1302.99 276.348 1300.59 275.982C1298.19 275.616 1295.74 276.196 1293.76 277.599Z" fill="#B78622"/>
<path d="M1317.84 306.31L1299.64 313.214C1294.68 315.096 1292.18 320.641 1294.06 325.598L1305.94 356.923C1307.83 361.881 1313.37 364.375 1318.33 362.493L1336.54 355.588C1341.5 353.706 1344 348.162 1342.11 343.204L1330.23 311.879C1328.35 306.921 1322.8 304.428 1317.84 306.31Z" fill="#AA7405"/>
<path d="M1316.83 306.265L1299.82 312.814C1298.55 313.29 1297.39 314.014 1296.41 314.945C1295.43 315.876 1294.64 316.994 1294.1 318.233C1293.56 319.472 1293.27 320.807 1293.26 322.159C1293.24 323.511 1293.49 324.852 1294.01 326.103L1297.05 333.884C1296.08 331.35 1296.15 328.54 1297.24 326.055C1298.32 323.571 1300.34 321.61 1302.86 320.595L1319.95 314.286C1322.49 313.387 1325.27 313.486 1327.74 314.563C1330.21 315.64 1332.18 317.615 1333.24 320.087L1330.2 312.306C1329.72 311.031 1329 309.863 1328.07 308.869C1327.13 307.875 1326.01 307.074 1324.77 306.513C1323.53 305.952 1322.19 305.641 1320.83 305.598C1319.46 305.556 1318.11 305.782 1316.83 306.265Z" fill="#B78622"/>
<path d="M1334.82 345.072L1315.52 348.025C1310.26 348.83 1306.65 353.744 1307.45 359.001L1312.52 392.215C1313.33 397.472 1318.24 401.081 1323.5 400.276L1342.8 397.323C1348.06 396.518 1351.67 391.604 1350.87 386.347L1345.8 353.133C1344.99 347.877 1340.08 344.268 1334.82 345.072Z" fill="#AA7405"/>
<path d="M1333.75 343.312L1315.74 345.936C1314.39 346.143 1313.1 346.613 1311.93 347.319C1310.77 348.025 1309.75 348.954 1308.95 350.052C1308.14 351.15 1307.56 352.396 1307.24 353.718C1306.92 355.041 1306.86 356.414 1307.06 357.759L1308.42 366.083C1308.02 363.413 1308.67 360.692 1310.25 358.498C1311.82 356.304 1314.19 354.811 1316.85 354.337L1334.87 351.713C1336.19 351.479 1337.55 351.512 1338.87 351.811C1340.18 352.11 1341.42 352.668 1342.52 353.453C1343.61 354.238 1344.54 355.233 1345.24 356.381C1345.95 357.528 1346.41 358.805 1346.62 360.136L1345.26 351.812C1345.1 350.484 1344.67 349.202 1343.99 348.046C1343.32 346.89 1342.41 345.884 1341.34 345.088C1340.26 344.293 1339.03 343.725 1337.73 343.42C1336.42 343.114 1335.07 343.077 1333.75 343.312Z" fill="#B78622"/>
<path d="M1340.05 381.456L1314.39 378.89C1309.11 378.362 1304.4 382.212 1303.87 387.488L1299.67 429.35C1299.13 434.627 1302.98 439.333 1308.26 439.861L1333.92 442.427C1339.2 442.955 1343.91 439.106 1344.44 433.829L1348.65 391.967C1349.18 386.69 1345.33 381.984 1340.05 381.456Z" fill="#AA7405"/>
<path d="M1337.65 380.384L1316.8 378.346C1313.63 378.02 1310.45 378.956 1307.97 380.951C1305.48 382.946 1303.87 385.84 1303.5 389.006L1302.69 398.827C1302.82 397.262 1303.26 395.738 1303.99 394.344C1304.71 392.95 1305.71 391.714 1306.92 390.708C1308.12 389.701 1309.52 388.944 1311.02 388.48C1312.52 388.016 1314.1 387.854 1315.67 388.004L1336.59 390.282C1338.16 390.414 1339.68 390.856 1341.08 391.581C1342.47 392.306 1343.71 393.301 1344.71 394.507C1345.72 395.713 1346.48 397.107 1346.94 398.608C1347.4 400.109 1347.57 401.687 1347.41 403.251L1348.23 393.43C1348.4 391.879 1348.25 390.311 1347.81 388.815C1347.36 387.32 1346.63 385.926 1345.65 384.715C1344.66 383.503 1343.45 382.497 1342.08 381.754C1340.71 381.011 1339.2 380.545 1337.65 380.384Z" fill="#B78622"/>
<path d="M1334.6 421.077L1307.58 421.955C1302.02 422.136 1297.76 426.939 1298.06 432.684L1300.46 478.263C1300.77 484.008 1305.52 488.518 1311.08 488.338L1338.1 487.46C1343.66 487.279 1347.92 482.476 1347.62 476.731L1345.22 431.152C1344.92 425.407 1340.16 420.897 1334.6 421.077Z" fill="#AA7405"/>
<path d="M1331.8 421.087L1309.82 421.949C1306.52 422.073 1302.69 423.13 1300.46 425.601C1298.22 428.072 1297.75 431.762 1297.85 435.182L1298.59 445.805C1298.44 442.406 1299.57 439.109 1301.74 436.605C1303.91 434.101 1306.96 432.585 1310.24 432.376L1332.54 431.71C1334.19 431.662 1335.84 431.953 1337.39 432.565C1338.95 433.178 1340.37 434.1 1341.59 435.278C1342.81 436.457 1343.79 437.868 1344.49 439.43C1345.18 440.992 1345.57 442.673 1345.64 444.377L1345.15 433.685C1345.08 431.964 1344.67 430.267 1343.96 428.695C1343.24 427.123 1342.24 425.708 1340.99 424.534C1339.75 423.359 1338.29 422.449 1336.71 421.857C1335.13 421.265 1333.46 421.003 1331.8 421.087Z" fill="#B78622"/>
<path d="M1330.83 461.519L1305.59 466.784C1297.52 468.465 1292.35 476.362 1294.03 484.422L1303.37 529.268C1305.05 537.328 1312.95 542.498 1321.01 540.817L1346.26 535.553C1354.33 533.871 1359.5 525.974 1357.82 517.914L1348.48 473.068C1346.8 465.008 1338.9 459.838 1330.83 461.519Z" fill="#AA7405"/>
<path d="M1331.18 461.188L1305.55 466.536C1303.65 466.928 1301.84 467.693 1300.24 468.785C1298.64 469.878 1297.27 471.277 1296.21 472.902C1295.16 474.527 1294.43 476.345 1294.08 478.251C1293.73 480.157 1293.77 482.114 1294.18 484.007L1296.7 495.938C1296.29 494.044 1296.25 492.088 1296.6 490.182C1296.95 488.276 1297.68 486.457 1298.73 484.833C1299.79 483.208 1301.16 481.809 1302.76 480.716C1304.36 479.623 1306.17 478.859 1308.07 478.467L1333.7 473.119C1337.51 472.359 1341.45 473.136 1344.68 475.278C1347.91 477.42 1350.16 480.755 1350.94 484.551L1348.66 472.543C1348.27 470.645 1347.51 468.844 1346.41 467.244C1345.32 465.644 1343.92 464.276 1342.29 463.22C1340.67 462.164 1338.85 461.441 1336.94 461.092C1335.04 460.743 1333.08 460.776 1331.18 461.188Z" fill="#B78622"/>
<path d="M1340.85 509.175L1312.28 518.39C1303.48 521.228 1298.67 530.724 1301.53 539.6L1306.37 603C1346.53 621 1364.03 628.515 1382.03 638.5L1367.27 530.762C1360.35 508.588 1349.65 506.337 1340.85 509.175Z" fill="#AA7405"/>
<path d="M1340.67 509.235L1312.04 518.467C1307.74 519.854 1304.16 522.878 1302.06 526.888C1299.97 530.899 1299.53 535.574 1300.85 539.907L1302.7 554.067C1301.38 549.735 1304.28 544.266 1306.37 540.255C1308.47 536.245 1312.05 533.221 1316.35 531.834L1344.98 522.602C1349.25 521.223 1353.9 521.603 1357.9 523.657C1361.9 525.711 1367.49 529.997 1368.87 534.281L1362 520.188C1360.61 515.905 1357.59 512.344 1353.59 510.29C1349.59 508.236 1344.94 507.856 1340.67 509.235Z" fill="#B78622"/>
<path d="M1285.29 237.323C1289.02 238.803 1292.22 241.357 1294.49 244.661C1296.76 247.964 1298 251.868 1298.04 255.876C1298.09 259.885 1296.94 263.816 1294.74 267.171C1292.55 270.527 1289.4 273.154 1285.71 274.719C1282.02 276.285 1277.94 276.718 1274 275.963C1270.06 275.209 1266.44 273.301 1263.59 270.482C1260.74 267.663 1258.79 264.06 1257.99 260.132C1257.2 256.203 1257.59 252.127 1259.12 248.42C1260.09 245.963 1261.55 243.724 1263.4 241.833C1265.24 239.942 1267.45 238.437 1269.89 237.404C1272.32 236.372 1274.94 235.833 1277.58 235.82C1280.23 235.806 1282.85 236.317 1285.29 237.323Z" fill="#513729"/>
<path d="M1285.29 237.323C1282.85 236.317 1280.23 235.806 1277.58 235.82C1274.94 235.833 1272.32 236.372 1269.89 237.404C1267.45 238.437 1265.24 239.942 1263.4 241.833C1261.55 243.724 1260.09 245.963 1259.12 248.42C1258.26 250.693 1257.78 253.09 1257.69 255.518C1257.9 254.265 1258.32 253.055 1258.92 251.934C1259.9 249.477 1261.35 247.238 1263.2 245.347C1265.05 243.456 1267.26 241.951 1269.69 240.919C1272.13 239.886 1274.74 239.348 1277.39 239.334C1280.03 239.32 1282.65 239.831 1285.1 240.837C1288.82 242.441 1291.99 245.101 1294.22 248.489C1296.44 251.876 1297.63 255.842 1297.62 259.896C1298.51 255.287 1297.76 250.514 1295.51 246.396C1293.26 242.277 1289.65 239.07 1285.29 237.323Z" fill="#231005"/>
<path d="M1249.28 272.714C1246.06 273.65 1242.64 273.609 1239.44 272.598C1236.25 271.587 1233.43 269.651 1231.33 267.034C1229.24 264.417 1227.97 261.237 1227.69 257.898C1227.4 254.558 1228.11 251.208 1229.73 248.272C1231.35 245.337 1233.8 242.947 1236.78 241.405C1239.75 239.864 1243.12 239.241 1246.45 239.614C1249.78 239.987 1252.92 241.34 1255.48 243.502C1258.04 245.664 1259.9 248.537 1260.83 251.758C1261.47 253.892 1261.68 256.133 1261.45 258.35C1261.21 260.567 1260.54 262.714 1259.46 264.666C1258.38 266.619 1256.93 268.336 1255.18 269.718C1253.43 271.1 1251.42 272.119 1249.28 272.714Z" fill="#432D21"/>
<path d="M1249.28 272.714C1253.58 271.461 1257.22 268.552 1259.38 264.623C1261.55 260.695 1262.07 256.068 1260.83 251.758C1260.28 249.756 1259.29 247.9 1257.95 246.321C1258.52 247.26 1250.11 247.691 1250.41 248.752C1251.69 252.574 1256.86 254.429 1256.9 259.248C1256.93 263.929 1254.51 267.825 1250.91 269.632C1247.31 271.439 1243.17 271.883 1239.27 270.881C1235.36 269.879 1231.95 267.5 1229.66 264.18C1231.45 267.644 1234.38 270.385 1237.95 271.94C1241.52 273.494 1245.52 273.768 1249.28 272.714Z" fill="#3E261A"/>
<path d="M1247.24 287.973C1243.06 289.024 1238.63 288.371 1234.93 286.16C1231.24 283.948 1228.57 280.358 1227.52 276.179C1226.47 272 1227.12 267.575 1229.33 263.878C1231.54 260.18 1235.13 257.512 1239.31 256.461C1241.38 255.941 1243.53 255.833 1245.64 256.144C1247.75 256.456 1249.78 257.179 1251.61 258.275C1253.44 259.37 1255.04 260.815 1256.31 262.527C1257.59 264.24 1258.51 266.186 1259.03 268.255C1260.08 272.434 1259.43 276.859 1257.22 280.557C1255 284.254 1251.41 286.922 1247.24 287.973Z" fill="#513729"/>
<path d="M1246.9 288.476C1249.01 287.974 1251 287.054 1252.74 285.768C1254.49 284.482 1255.96 282.857 1257.08 280.989C1258.19 279.121 1258.92 277.049 1259.22 274.895C1259.52 272.741 1259.39 270.549 1258.84 268.449C1258.39 266.44 1257.58 264.533 1256.44 262.819L1257.45 266.02C1258.46 270.257 1257.77 274.727 1255.54 278.471C1253.31 282.215 1249.71 284.935 1245.52 286.047C1242.29 286.906 1238.88 286.74 1235.75 285.572C1232.63 284.405 1229.94 282.292 1228.06 279.525C1229.67 282.989 1232.43 285.778 1235.87 287.411C1239.31 289.045 1243.21 289.421 1246.9 288.476Z" fill="#432D21"/>
<path d="M1318.58 592.802L1359.42 592.802C1372 592.802 1382.19 603.087 1382.19 615.775L1405.3 711.347C1397.26 750.024 1295.8 747.011 1280.73 718.379L1295.8 615.775C1295.8 603.087 1306 592.802 1318.58 592.802Z" fill="#AA7405"/>
<path d="M1318.84 592.802L1359.76 592.802C1365.91 592.801 1371.81 595.221 1376.19 599.54C1380.58 603.858 1383.09 609.73 1383.2 615.89L1386.72 634.996C1386.61 628.837 1380.58 622.965 1376.19 618.646C1371.81 614.328 1365.91 611.908 1359.76 611.909L1318.84 611.909C1312.73 611.909 1306.87 614.341 1302.55 618.671C1298.23 623.001 1292.78 630.882 1292.78 637.005L1295.8 615.89C1295.8 609.766 1298.23 603.894 1302.55 599.564C1306.87 595.235 1312.73 592.802 1318.84 592.802Z" fill="#B78622"/>
<path d="M1253.21 232.943L1245.87 152.706C1245.87 152.706 1240.91 159.49 1236.99 180.248C1236.8 181.253 1240.04 183.76 1240.04 183.76C1240.04 183.76 1236.05 185.573 1235.87 186.731C1234.99 192.373 1234.21 198.857 1233.6 206.282C1233.49 207.654 1238.25 210.213 1238.25 210.213C1238.25 210.213 1233.14 212.597 1233.08 213.674C1232.89 216.773 1232.73 220.017 1232.61 223.411L1253.21 232.943Z" fill="#50992D"/>
<path d="M1253.21 232.943L1245.87 152.706C1245.87 152.706 1253.93 160.228 1263.06 187.569C1263.56 189.084 1258.85 193.567 1258.85 193.567C1258.85 193.567 1265.67 195.86 1266.22 197.75C1268.09 204.195 1269.97 211.5 1271.8 219.763L1253.21 232.943Z" fill="#6ABF41"/>
<path d="M1249.55 233.1C1249.55 233.1 1282.72 222.982 1318.7 232.778C1319.26 232.929 1318.67 241.469 1318.67 241.469C1318.67 241.469 1322.69 233.73 1323.27 233.908C1330.56 236.121 1338.01 239.128 1345.44 243.148C1346.4 243.667 1343.91 251.988 1343.91 251.988C1343.91 251.988 1350.2 245.864 1351.15 246.443C1357.28 250.214 1363.36 254.718 1369.28 260.08C1370.07 260.793 1365.68 266.899 1365.68 266.899C1365.68 266.899 1373.62 264.177 1374.6 265.17C1388.31 279.049 1400.96 297.896 1411.14 323.335C1411.14 323.335 1341.67 259.369 1249.55 233.1Z" fill="#6ABF41"/>
<path d="M1249.63 233.124C1249.63 233.124 1255.66 244.369 1271.22 259.189C1272.12 260.051 1277.55 257.839 1277.55 257.839C1277.55 257.839 1275.9 263.501 1276.88 264.359C1281.52 268.419 1286.84 272.663 1292.9 276.954C1294.16 277.847 1300.59 275.179 1300.59 275.179C1300.59 275.179 1299.62 281.537 1301.1 282.487C1310.03 288.231 1320.34 293.956 1332.15 299.337C1333.29 299.857 1338.17 295.778 1338.17 295.778C1338.17 295.778 1338.21 302.016 1339.54 302.574C1347.2 305.792 1355.43 308.855 1364.29 311.686C1365.66 312.125 1369.44 307.752 1369.44 307.752C1369.44 307.752 1370.93 313.733 1372.18 314.099C1384 317.548 1396.85 320.58 1410.81 323.036C1410.81 323.036 1346.4 242.484 1249.63 233.124Z" fill="#50992D"/>
<path d="M1251.16 233.606C1251.16 233.606 1269.34 204.068 1302.79 187.604C1303.31 187.349 1308.52 194.143 1308.52 194.143C1308.52 194.143 1306.41 185.682 1306.97 185.427C1313.89 182.264 1321.47 179.587 1329.7 177.686C1330.76 177.44 1334.4 185.325 1334.4 185.325C1334.4 185.325 1335.07 176.569 1336.16 176.38C1343.25 175.15 1350.79 174.503 1358.78 174.603C1359.84 174.616 1360.59 182.1 1360.59 182.1C1360.59 182.1 1364.74 174.806 1366.13 174.902C1385.6 176.235 1407.55 181.994 1432.02 194.33C1432.02 194.33 1337.61 192.342 1251.16 233.606Z" fill="#6ABF41"/>
<path d="M1251.24 233.571C1251.24 233.571 1263.2 238.01 1284.67 238.83C1285.92 238.878 1288.52 233.628 1288.52 233.628C1288.52 233.628 1291.03 238.963 1292.34 238.957C1298.5 238.93 1305.3 238.593 1312.68 237.802C1314.21 237.637 1317.27 231.381 1317.27 231.381C1317.27 231.381 1320.75 236.79 1322.49 236.524C1332.99 234.916 1344.5 232.391 1356.92 228.608C1358.12 228.243 1359.08 221.953 1359.08 221.953C1359.08 221.953 1363.24 226.602 1364.6 226.142C1372.47 223.49 1380.67 220.335 1389.19 216.597C1390.51 216.017 1390.45 210.239 1390.45 210.239C1390.45 210.239 1395.52 213.737 1396.7 213.181C1407.85 207.946 1419.49 201.715 1431.58 194.321C1431.58 194.321 1329.98 176.555 1251.24 233.571Z" fill="#50992D"/>
<path d="M1150.95 385.096C1150.95 385.096 1143.46 351.232 1156.04 316.131C1156.24 315.588 1164.71 316.848 1164.71 316.848C1164.71 316.848 1157.31 312.236 1157.53 311.665C1160.31 304.573 1163.89 297.379 1168.48 290.289C1169.07 289.373 1177.17 292.506 1177.17 292.506C1177.17 292.506 1171.56 285.753 1172.21 284.86C1176.45 279.042 1181.42 273.332 1187.22 267.847C1188 267.117 1193.74 271.973 1193.74 271.973C1193.74 271.973 1191.65 263.847 1192.72 262.947C1207.63 250.367 1227.4 239.232 1253.56 231.077C1253.56 231.077 1184.35 295.318 1150.95 385.096Z" fill="#6ABF41"/>
<path d="M1150.98 385.017C1150.98 385.017 1162.66 379.885 1178.65 365.542C1179.58 364.708 1177.8 359.124 1177.8 359.124C1177.8 359.124 1183.32 361.21 1184.25 360.299C1188.66 355.991 1193.31 351.022 1198.06 345.319C1199.05 344.133 1196.9 337.512 1196.9 337.512C1196.9 337.512 1203.16 338.978 1204.22 337.579C1210.65 329.117 1217.16 319.296 1223.45 307.942C1224.06 306.845 1220.38 301.657 1220.38 301.657C1220.38 301.657 1226.6 302.104 1227.26 300.824C1231.07 293.446 1234.76 285.473 1238.28 276.866C1238.83 275.531 1234.76 271.423 1234.76 271.423C1234.76 271.423 1240.84 270.406 1241.3 269.184C1245.67 257.672 1249.7 245.097 1253.24 231.376C1253.24 231.376 1167.89 289.285 1150.98 385.017Z" fill="#50992D"/>
<path d="M1252.22 233.704C1252.22 233.704 1244.49 226.895 1228.55 220.066C1227.62 219.669 1224.14 222.872 1224.14 222.872C1224.14 222.872 1223.79 218.124 1222.8 217.751C1218.15 215.987 1212.93 214.275 1207.13 212.735C1205.93 212.415 1201.82 216.246 1201.82 216.246C1201.82 216.246 1200.76 211.162 1199.37 210.86C1190.99 209.033 1181.58 207.605 1171.13 206.863C1170.12 206.791 1167.57 211.254 1167.57 211.254C1167.57 211.254 1165.78 206.546 1164.62 206.498C1157.92 206.22 1150.83 206.225 1143.33 206.579C1142.16 206.634 1140.54 211.007 1140.54 211.007C1140.54 211.007 1137.73 206.902 1136.67 206.979C1126.76 207.701 1116.18 209.029 1104.93 211.104C1104.93 211.104 1176.37 253.896 1252.22 233.704Z" fill="#6ABF41"/>
<path d="M1252.29 233.699C1252.29 233.699 1230.04 250.705 1200.06 253.435C1199.6 253.477 1197.64 246.848 1197.64 246.848C1197.64 246.848 1196.78 253.837 1196.28 253.867C1190.15 254.247 1183.66 254.072 1176.91 253.124C1176.04 253.002 1175.57 246.005 1175.57 246.005C1175.57 246.005 1172.54 252.412 1171.66 252.239C1165.96 251.114 1160.09 249.42 1154.1 247.033C1153.3 246.716 1154.9 240.858 1154.9 240.858C1154.9 240.858 1149.66 245.155 1148.64 244.68C1134.35 238.043 1119.47 227.348 1104.6 210.97C1104.6 210.97 1175.19 239.788 1252.29 233.699Z" fill="#50992D"/>
<path d="M402.764 662.936C401.87 661.967 400.304 661.146 398.963 661.519C398.107 661.824 397.374 662.4 396.875 663.16C396.31 663.884 395.811 664.658 395.384 665.472C394.496 665.173 393.564 665.022 392.626 665.024C391.453 665.038 390.311 665.402 389.346 666.069C389.197 665.994 388.973 666.218 389.048 666.367C389.122 666.516 390.39 668.53 390.241 669.872C390.067 670.908 390.042 671.962 390.166 673.005C390.315 673.601 390.613 674.123 391.359 673.974C392.089 673.824 392.746 673.429 393.223 672.856C394.043 672.035 394.49 671.066 395.384 670.32C395.864 669.913 396.39 669.562 396.95 669.276C397.248 669.126 397.621 669.052 397.77 668.754H397.844C398.177 668.531 398.563 668.403 398.963 668.381C399.524 668.426 400.077 668.551 400.603 668.754L401.646 669.126L402.764 669.649C403.056 669.753 403.367 669.794 403.675 669.769C403.984 669.743 404.283 669.651 404.554 669.499C405.15 669.201 405.225 668.679 405.15 668.008C404.939 667.124 404.613 666.271 404.181 665.472C403.883 664.54 403.401 663.678 402.764 662.936Z" fill="#B38019"/>
<path d="M409.175 644.887C408.567 644.543 407.887 644.344 407.189 644.305C406.491 644.266 405.793 644.389 405.15 644.664C405.036 643.918 404.772 643.204 404.375 642.563C403.978 641.922 403.456 641.368 402.839 640.935C401.199 639.89 399.335 639.592 397.695 640.711C396.848 641.339 396.159 642.156 395.683 643.097C394.902 641.988 393.813 641.133 392.552 640.636C391.359 640.189 390.017 639.89 388.899 640.413C387.997 640.891 387.306 641.689 386.961 642.65C386.401 643.973 386.097 645.39 386.066 646.827C385.589 646.189 385.009 645.635 384.351 645.186C383.464 644.643 382.418 644.421 381.387 644.557C380.356 644.693 379.403 645.178 378.686 645.932C378.118 646.633 377.71 647.451 377.491 648.327C377.272 649.203 377.247 650.116 377.419 651.003C377.493 651.152 377.493 651.376 377.568 651.6H376.45C375.762 651.652 375.105 651.907 374.561 652.332C374.018 652.756 373.611 653.332 373.393 653.986C373.093 655.145 373.253 656.375 373.84 657.417C374.758 659.364 376.079 661.093 377.717 662.489C380.102 664.726 383.308 665.919 386.364 666.964C389.671 668.245 393.128 669.097 396.652 669.499C397.554 669.32 398.383 668.879 399.037 668.231C399.037 668.212 399.045 668.193 399.059 668.179C399.073 668.165 399.092 668.157 399.112 668.157L399.41 667.784L400.081 667.262C400.612 666.854 401.111 666.405 401.572 665.919C402.652 664.754 403.672 663.534 404.628 662.265C406.194 660.4 408.057 658.685 409.548 656.746C410.972 655.069 411.901 653.029 412.232 650.854C412.381 648.617 411.263 646.006 409.175 644.887Z" fill="#FFEEB1"/>
<path d="M395.31 664.279C393.595 662.116 392.403 659.58 391.135 657.268C389.868 654.956 388.601 652.196 387.259 649.661C387.244 649.631 387.224 649.605 387.199 649.584C387.174 649.562 387.145 649.546 387.114 649.535C387.083 649.525 387.05 649.521 387.017 649.523C386.985 649.525 386.953 649.534 386.923 649.549C386.894 649.563 386.868 649.584 386.846 649.609C386.825 649.633 386.808 649.662 386.798 649.693C386.788 649.725 386.783 649.757 386.786 649.79C386.788 649.823 386.797 649.855 386.812 649.884C388.153 652.495 389.421 655.105 390.837 657.715C392.015 660.11 393.386 662.405 394.937 664.577C395.086 664.875 395.459 664.502 395.31 664.279Z" fill="#B38019"/>
<path d="M395.757 646.006C395.534 647.339 395.385 648.684 395.31 650.034C395.335 651.43 395.435 652.824 395.608 654.21C395.757 655.627 395.832 657.119 395.981 658.61C396.13 660.102 396.279 660.027 396.428 660.773C396.517 661.516 396.567 662.263 396.577 663.011C396.577 663.309 397.099 663.309 397.024 663.011C397.062 662.415 397.062 661.817 397.024 661.221L396.577 659.058C396.353 657.566 396.279 656.075 396.13 654.583C395.981 653.091 395.832 651.6 395.832 650.183C395.866 648.781 396.016 647.384 396.279 646.006C396.353 645.708 395.832 645.633 395.757 646.006Z" fill="#B38019"/>
<path d="M403.957 647.423C403.584 648.542 403.361 649.661 403.063 650.705C402.764 651.749 402.392 653.017 402.094 654.136C401.795 655.254 401.497 656.448 401.199 657.566C400.901 658.685 400.454 659.804 400.155 660.848C399.857 661.892 400.528 661.37 400.603 660.997C400.677 660.624 401.348 658.834 401.646 657.715L402.541 654.285C402.914 653.166 403.286 652.047 403.584 650.929C403.883 649.81 404.106 648.691 404.405 647.572C404.703 646.454 404.032 647.125 403.957 647.423Z" fill="#B38019"/>
<path d="M393.446 666.442C391.991 665.974 390.591 665.349 389.272 664.577C387.931 663.745 386.724 662.714 385.693 661.519C384.65 660.4 383.531 659.356 382.488 658.163C381.417 656.904 380.491 655.528 379.73 654.061C379.7 654.002 379.648 653.956 379.585 653.936C379.522 653.915 379.453 653.919 379.394 653.949C379.335 653.979 379.29 654.031 379.269 654.094C379.248 654.157 379.253 654.225 379.282 654.285C380.044 655.775 380.969 657.176 382.041 658.461L385.47 662.041C387.595 664.296 390.265 665.966 393.223 666.889C393.595 667.038 393.744 666.516 393.446 666.442Z" fill="#B38019"/>
</g>
<defs>
<clipPath id="clip0_4841_1952">
<rect width="1440" height="765" fill="white" transform="translate(0 0.22998)"/>
</clipPath>
</defs>
</svg>
