<svg width="1440" height="700" viewBox="0 0 1440 700" fill="none" xmlns="http://www.w3.org/2000/svg">
<g clip-path="url(#clip0_4512_1942)">
<rect y="453" width="1440" height="437" fill="#6F85F2"/>
<path d="M0 569.083C0 569.083 134.263 627.557 291.499 614.296C539.015 593.42 1050.74 443.022 1399 542.5C1673.11 620.798 1538 1401.5 1538 1401.5L0 1361V569.083Z" fill="#F0B130"/>
<g clip-path="url(#clip1_4512_1942)">
<path opacity="0.05" d="M-97.2958 242.039C-70.9248 244.685 -22.1018 261.3 29.2852 254.741C80.6723 248.183 99.3301 209.869 149.362 210.56C199.394 211.25 219.407 254.143 269.439 258.055C319.471 261.967 339.484 231.523 389.516 229.337C439.548 227.151 459.561 251.474 509.593 247.562C559.625 243.65 579.638 204.922 629.67 210.56C679.702 216.197 699.715 271.402 749.747 274.623C799.779 277.845 819.792 225.218 869.824 226.023C919.856 226.829 939.869 276.418 989.901 278.489C1039.93 280.56 1059.95 235.734 1109.98 235.964C1160.01 236.194 1180.02 279.594 1230.05 279.594C1280.09 279.594 1300.1 234.468 1350.13 235.964C1400.16 237.46 1411.32 240.635 1470.21 286.773C1529.1 332.911 2025.77 364.345 1632.81 457.426C1239.85 550.507 10.8359 676.034 -416 733.562" fill="url(#paint0_linear_4512_1942)"/>
<path opacity="0.29" d="M-97.2958 277.384C-70.9248 280.031 -22.1018 296.645 29.2852 290.087C80.6723 283.528 99.3301 245.214 149.362 245.905C199.394 246.595 219.407 289.488 269.439 293.4C319.471 297.312 339.484 266.868 389.516 264.682C439.548 262.496 459.561 286.819 509.593 282.907C559.625 278.995 579.638 240.267 629.67 245.905C679.702 251.543 699.715 306.747 749.747 309.968C799.779 313.19 819.792 260.563 869.824 261.368C919.856 262.174 939.869 311.763 989.901 313.834C1039.93 315.905 1059.95 271.079 1109.98 271.309C1160.01 271.539 1180.02 314.939 1230.05 314.939C1280.09 314.939 1300.1 269.814 1350.13 271.309C1400.16 272.805 1411.32 275.981 1470.21 322.118C1529.1 368.256 2025.77 399.69 1632.81 492.771C1239.85 585.852 10.8359 711.379 -416 768.907" fill="url(#paint1_linear_4512_1942)"/>
<path opacity="0.53" d="M-97.2958 312.73C-70.9248 315.376 -22.1018 331.991 29.2852 325.432C80.6723 318.874 99.3301 280.56 149.362 281.25C199.394 281.941 219.407 324.834 269.439 328.746C319.471 332.658 339.484 302.214 389.516 300.028C439.548 297.842 459.561 322.165 509.593 318.253C559.625 314.341 579.638 275.613 629.67 281.25C679.702 286.888 699.715 342.093 749.747 345.314C799.779 348.536 819.792 295.909 869.824 296.714C919.856 297.52 939.869 347.109 989.901 349.18C1039.93 351.251 1059.95 306.425 1109.98 306.655C1160.01 306.885 1180.02 350.285 1230.05 350.285C1280.09 350.285 1300.1 305.159 1350.13 306.655C1400.16 308.151 1411.32 311.326 1470.21 357.464C1529.1 403.602 2025.77 435.035 1632.81 528.117C1239.85 621.198 10.8359 746.725 -416 804.253" fill="url(#paint2_linear_4512_1942)"/>
<path opacity="0.76" d="M-97.2958 348.075C-70.9248 350.722 -22.1018 367.336 29.2852 360.778C80.6723 354.219 99.3301 315.905 149.362 316.596C199.394 317.286 219.407 360.179 269.439 364.091C319.471 368.003 339.484 337.559 389.516 335.373C439.548 333.187 459.561 357.51 509.593 353.598C559.625 349.686 579.638 310.958 629.67 316.596C679.702 322.233 699.715 377.438 749.747 380.659C799.779 383.881 819.792 331.254 869.824 332.059C919.856 332.865 939.869 382.454 989.901 384.525C1039.93 386.596 1059.95 341.77 1109.98 342C1160.01 342.23 1180.02 385.63 1230.05 385.63C1280.09 385.63 1300.1 340.505 1350.13 342C1400.16 343.496 1411.32 346.672 1470.21 392.809C1529.1 438.947 2025.77 470.381 1632.81 563.462C1239.85 656.543 10.8359 782.07 -416 839.598" fill="url(#paint3_linear_4512_1942)"/>
<path d="M-97.2958 383.421C-70.9248 386.067 -22.1018 402.681 29.2852 396.123C80.6723 389.565 99.3301 351.251 149.362 351.941C199.394 352.632 219.407 395.525 269.439 399.437C319.471 403.349 339.484 372.905 389.516 370.719C439.548 368.533 459.561 392.856 509.593 388.944C559.625 385.032 579.638 346.304 629.67 351.941C679.702 357.579 699.715 412.783 749.747 416.005C799.779 419.227 819.792 366.6 869.824 367.405C919.856 368.21 939.869 417.8 989.901 419.871C1039.93 421.942 1059.95 377.116 1109.98 377.346C1160.01 377.576 1180.02 420.976 1230.05 420.976C1280.09 420.976 1300.1 375.85 1350.13 377.346C1400.16 378.842 1411.32 382.017 1470.21 428.155C1529.1 474.293 2025.77 505.726 1632.81 598.807C1239.85 691.888 10.8359 817.415 -416 874.944" fill="url(#paint4_linear_4512_1942)"/>
</g>
<path d="M282 540.5C64.2013 560.449 0 480 0 480V569.083C0 569.083 134.263 627.557 291.499 614.296C359.074 608.596 446.343 593.243 544.601 575.956C806.246 529.923 1145.82 470.181 1399 542.5C1577.88 593.596 1582.49 943.819 1564.1 1181H1679C1679 1181 1633.02 583.881 1377 480C1154.27 389.625 810 404 282 540.5Z" fill="#B78622"/>
<path d="M259.57 355.387C257.67 355.519 255.11 355.624 252.048 355.624C238.378 355.624 215.048 353.387 198.765 340.04C190.795 367.97 183.748 398.876 178.655 432.359C211.512 450.391 244.421 442.362 252.235 440.045C254.056 409.509 256.614 381.208 259.57 355.387Z" fill="#3C7520"/>
<path d="M260.259 349.464C263.32 323.613 266.751 300.289 270.208 279.781C266.936 280.571 262.159 281.387 256.353 281.387C246.694 281.387 234.422 279.071 222.415 270.384C214.972 289.126 207.478 310.371 200.563 333.826C219.195 351.016 251.603 350.069 260.259 349.464Z" fill="#3C7520"/>
<path d="M271.285 273.46C275.718 247.925 280.152 226.945 283.873 211.045C280.02 212.019 274.188 213.072 267.379 213.072C261.89 213.072 255.794 212.361 249.539 210.36C242.176 224.602 233.52 242.897 224.626 264.747C244.551 279.962 265.611 275.197 271.285 273.46Z" fill="#3C7520"/>
<path d="M212.358 619C318.003 619 355.817 583.541 363.633 574.722C353.842 566.509 310.139 532.393 249.598 521.468C247.75 521.126 245.877 520.81 244.029 520.52C243.132 520.389 242.235 520.231 241.337 520.099C238.54 519.704 235.743 519.388 232.919 519.099C232.074 518.993 231.256 518.941 230.412 518.888C228.168 518.704 225.951 518.52 223.708 518.414C222.89 518.362 222.072 518.309 221.227 518.283C218.272 518.151 215.29 518.072 212.36 518.072C209.114 518.072 205.815 518.177 202.517 518.335C201.804 518.388 201.091 518.414 200.405 518.467C193.781 518.862 187.131 519.573 180.48 520.599C179.847 520.705 179.214 520.784 178.607 520.915C175.466 521.415 172.326 521.994 169.185 522.653C111.759 534.683 70.5333 566.878 61.0883 574.775C68.8206 583.594 106.344 619 212.358 619Z" fill="#3C7520"/>
<path d="M171.531 516.148C174.487 515.569 177.522 515.069 180.583 514.621C181.375 514.49 182.14 514.411 182.958 514.279C185.386 513.937 187.841 513.621 190.295 513.384C191.219 513.279 192.142 513.2 193.066 513.121C195.467 512.91 197.869 512.7 200.271 512.594C201.115 512.542 201.96 512.463 202.804 512.463C205.971 512.305 209.138 512.226 212.358 512.226C215.34 512.226 218.269 512.278 221.199 512.41C222.122 512.463 223.046 512.542 223.97 512.568C225.949 512.673 227.955 512.779 229.908 512.963C231.201 513.068 232.494 513.2 233.787 513.358C235.318 513.516 236.849 513.674 238.353 513.858C239.989 514.042 241.625 514.279 243.235 514.516C244.291 514.674 245.347 514.832 246.376 514.99C247.379 515.121 248.381 515.253 249.384 515.437C249.754 491.245 250.625 468.185 251.865 446.207C246.64 447.655 236.796 449.787 224.471 449.787C211.012 449.787 194.518 447.207 177.759 438.467C174.223 463.107 171.742 489.089 170.792 516.31C171.03 516.258 171.294 516.227 171.531 516.148Z" fill="#3C7520"/>
<path d="M252.287 205.153C267.039 209.496 281.105 205.916 285.407 204.574C287.228 196.992 288.838 190.806 290.105 186.094C283.85 181.303 279.126 177.591 276.777 175.748H276.117C273.029 177.09 269.889 178.328 266.775 179.618C263.74 184.593 258.62 193.201 252.287 205.153Z" fill="#3C7520"/>
<path d="M46.3822 217.155C61.2665 217.155 76.6791 216.497 92.2234 215.233C109.879 186.671 137.484 165.638 138.671 164.743L150.785 155.582L142.92 168.56C134.607 182.275 129.778 198.754 127.059 211.337C146.166 208.626 165.246 204.967 183.852 200.465C192.561 178.906 205.255 169.297 205.783 168.902L211.905 164.348L210.401 171.798C209.266 177.379 208.316 184.881 207.551 194.147C226.447 188.698 244.92 182.249 262.787 174.957L262.84 174.878L263.711 174.509C267.168 173.088 270.625 171.613 274.109 170.113L274.663 169.876H274.874C275.217 169.718 275.587 169.586 275.956 169.428L277.566 168.718L278.939 169.797C279.598 170.297 342.62 219.945 375.53 239.506C379.726 218.999 380.861 206.127 380.861 205.968L381.732 196.044L386.377 204.863C393.264 217.92 397.83 234.056 400.02 252.8C416.726 261.355 433.933 269.174 451.271 276.07C452.169 257.512 450.664 243.007 450.638 242.849L449.107 228.397L456.101 241.164C462.277 252.457 467.977 266.936 473.018 284.257C492.098 290.943 506.297 294.708 513 296.34C491.729 185.435 417.172 161.976 357.955 161.976C353.231 161.976 348.349 162.134 343.493 162.424L316.178 164.109L342.516 156.737C361.043 151.551 378.355 144.944 394.084 137.073C388.595 132.703 383.316 129.886 378.355 128.649L367.667 125.99L378.25 123.015C378.461 122.963 383.713 121.515 392.396 121.515C400.049 121.515 407.914 122.594 415.778 124.779C423.827 119.646 431.454 114.065 438.448 108.142C428.709 99.0857 423.985 92.6364 423.774 92.3466L419.763 86.8448L426.519 87.7398C434.806 88.8454 443.91 90.8988 453.701 93.8208C468.902 77.8943 476.608 63.9161 479.564 57.7559C467.714 56.1501 456.076 55.3077 444.913 55.3077C354.415 55.3077 305.724 109.326 284.774 141.521L281.185 147.049L279.522 140.678C268.016 96.7692 232.124 20.5879 121.045 0C121.731 5.31754 123.658 16.0579 128.936 29.9573C142.369 30.9313 160.737 33.6164 175.516 40.7769L186.653 46.1734L174.275 46.305C174.091 46.305 156.224 46.5419 137.645 49.2534C143.847 61.0993 151.553 72.6825 160.552 83.7386C176.096 80.1585 190.901 80.1058 203.753 83.6333L211.908 85.8709L204.097 89.1088C204.097 89.1088 190.585 94.7423 175.832 100.745C188.605 113.67 203.384 125.832 219.825 136.915L242.495 152.183L217.107 142.021C192.538 132.203 168.733 127.201 146.378 127.201C91.4589 127.201 46.9628 157.053 14 215.887C19.806 216.466 31.0486 217.155 46.3822 217.155Z" fill="#3C7520"/>
<path d="M282.752 608.52C282.266 603.072 288.642 566.809 333.589 562.8L337.233 603.661C306.079 577.61 283.845 620.778 282.752 608.52Z" fill="#C9547C"/>
<path d="M354.143 621.147C372.07 564.438 366.189 333.136 318.693 295.219C288.813 271.364 318.995 354.163 310.213 640.099C309.39 666.893 346.196 646.288 354.143 621.147Z" fill="#50992D"/>
<path d="M360.4 614.666C378.327 557.957 373.167 345.589 329.484 303.339C290.001 265.151 326.216 353.486 317.433 639.423C316.61 666.217 352.452 639.807 360.4 614.666Z" fill="#6ABF41"/>
<path d="M348.675 634.474C348.675 634.474 362.193 537.62 358.576 484.992C353.602 412.624 350.524 383.956 339.928 342.514C333.172 319.761 320.805 294.058 318.198 295.054C316.149 295.836 326.459 340.559 330.675 364.354C341.853 427.429 344.697 465.651 345.433 503.145C346.303 547.457 336.997 645.481 336.997 645.481C336.997 645.481 341.422 643.013 343.747 640.806C346.019 638.648 348.675 634.474 348.675 634.474Z" fill="#F2709C"/>
<path d="M1248.5 335.564C1249.95 335.665 1251.91 335.745 1254.24 335.745C1264.68 335.745 1282.49 334.035 1294.93 323.837C1301.01 345.179 1306.39 368.795 1310.28 394.381C1285.19 408.16 1260.07 402.025 1254.1 400.254C1252.71 376.921 1250.76 355.295 1248.5 335.564Z" fill="#3C7520"/>
<path d="M1247.97 331.038C1245.64 311.284 1243.02 293.462 1240.38 277.791C1242.88 278.394 1246.52 279.018 1250.96 279.018C1258.33 279.018 1267.7 277.248 1276.87 270.61C1282.55 284.932 1288.27 301.165 1293.55 319.088C1279.33 332.224 1254.58 331.5 1247.97 331.038Z" fill="#3C7520"/>
<path d="M1239.56 272.961C1236.17 253.448 1232.79 237.417 1229.94 225.267C1232.89 226.011 1237.34 226.816 1242.54 226.816C1246.73 226.816 1251.38 226.273 1256.16 224.744C1261.78 235.626 1268.39 249.606 1275.18 266.302C1259.97 277.929 1243.89 274.288 1239.56 272.961Z" fill="#3C7520"/>
<path d="M1284.55 537C1203.89 537 1175.01 509.904 1169.05 503.166C1176.52 496.889 1209.89 470.82 1256.11 462.472C1257.53 462.211 1258.96 461.969 1260.37 461.748C1261.05 461.648 1261.74 461.527 1262.42 461.426C1264.56 461.125 1266.69 460.883 1268.85 460.662C1269.49 460.581 1270.12 460.541 1270.76 460.501C1272.48 460.36 1274.17 460.219 1275.88 460.139C1276.51 460.099 1277.13 460.058 1277.78 460.038C1280.03 459.938 1282.31 459.877 1284.55 459.877C1287.03 459.877 1289.54 459.958 1292.06 460.079C1292.61 460.119 1293.15 460.139 1293.67 460.179C1298.73 460.481 1303.81 461.024 1308.89 461.808C1309.37 461.889 1309.85 461.949 1310.32 462.05C1312.72 462.432 1315.11 462.875 1317.51 463.377C1361.36 472.57 1392.84 497.172 1400.05 503.206C1394.14 509.945 1365.49 537 1284.55 537Z" fill="#3C7520"/>
<path d="M1315.72 458.407C1313.46 457.965 1311.15 457.582 1308.81 457.241C1308.2 457.14 1307.62 457.08 1307 456.979C1305.14 456.718 1303.27 456.476 1301.39 456.295C1300.69 456.215 1299.98 456.154 1299.28 456.094C1297.44 455.933 1295.61 455.772 1293.78 455.692C1293.13 455.651 1292.49 455.591 1291.84 455.591C1289.42 455.47 1287.01 455.41 1284.55 455.41C1282.27 455.41 1280.03 455.45 1277.8 455.551C1277.09 455.591 1276.39 455.651 1275.68 455.672C1274.17 455.752 1272.64 455.832 1271.15 455.973C1270.16 456.054 1269.17 456.154 1268.19 456.275C1267.02 456.396 1265.85 456.516 1264.7 456.657C1263.45 456.798 1262.2 456.979 1260.97 457.16C1260.17 457.281 1259.36 457.401 1258.57 457.522C1257.81 457.623 1257.04 457.723 1256.28 457.864C1256 439.378 1255.33 421.757 1254.38 404.962C1258.37 406.069 1265.89 407.698 1275.3 407.698C1285.58 407.698 1298.17 405.727 1310.97 399.048C1313.67 417.876 1315.56 437.731 1316.28 458.531C1316.1 458.491 1315.9 458.468 1315.72 458.407Z" fill="#3C7520"/>
<path d="M1254.06 220.765C1242.8 224.084 1232.06 221.348 1228.77 220.322C1227.38 214.529 1226.15 209.801 1225.19 206.201C1229.96 202.54 1233.57 199.704 1235.36 198.295H1235.87C1238.22 199.321 1240.62 200.266 1243 201.252C1245.32 205.054 1249.23 211.632 1254.06 220.765Z" fill="#3C7520"/>
<path d="M1411.28 229.936C1399.91 229.936 1388.14 229.433 1376.27 228.467C1362.79 206.642 1341.72 190.57 1340.81 189.886L1331.56 182.885L1337.57 192.803C1343.91 203.283 1347.6 215.875 1349.68 225.49C1335.09 223.419 1320.52 220.623 1306.31 217.183C1299.66 200.708 1289.97 193.366 1289.57 193.064L1284.89 189.584L1286.04 195.277C1286.91 199.541 1287.63 205.274 1288.22 212.355C1273.79 208.191 1259.69 203.263 1246.04 197.691L1246 197.63L1245.34 197.349C1242.7 196.262 1240.06 195.136 1237.4 193.989L1236.98 193.808H1236.82C1236.55 193.688 1236.27 193.587 1235.99 193.466L1234.76 192.923L1233.71 193.748C1233.21 194.13 1185.09 232.068 1159.96 247.015C1156.76 231.345 1155.89 221.509 1155.89 221.388L1155.23 213.804L1151.68 220.543C1146.42 230.52 1142.94 242.851 1141.26 257.173C1128.51 263.711 1115.37 269.685 1102.13 274.955C1101.45 260.774 1102.59 249.69 1102.62 249.569L1103.78 238.526L1098.44 248.282C1093.73 256.912 1089.38 267.975 1085.53 281.211C1070.96 286.32 1060.12 289.197 1055 290.444C1071.24 205.698 1128.17 187.772 1173.38 187.772C1176.99 187.772 1180.72 187.893 1184.42 188.114L1205.28 189.401L1185.17 183.769C1171.02 179.806 1157.81 174.757 1145.8 168.742C1149.99 165.403 1154.02 163.251 1157.81 162.305L1165.97 160.274L1157.89 158C1157.72 157.96 1153.71 156.854 1147.08 156.854C1141.24 156.854 1135.24 157.679 1129.23 159.348C1123.09 155.426 1117.26 151.161 1111.92 146.635C1119.36 139.715 1122.96 134.787 1123.13 134.565L1126.19 130.361L1121.03 131.045C1114.7 131.89 1107.75 133.459 1100.28 135.692C1088.67 123.522 1082.79 112.841 1080.53 108.133C1089.58 106.906 1098.46 106.263 1106.99 106.263C1176.08 106.263 1213.26 147.54 1229.26 172.141L1232 176.365L1233.27 171.497C1242.05 137.945 1269.46 79.732 1354.27 64C1353.74 68.0633 1352.27 76.2704 1348.24 86.8914C1337.99 87.6357 1323.96 89.6875 1312.68 95.1591L1304.18 99.2827L1313.63 99.3833C1313.77 99.3833 1327.41 99.5644 1341.59 101.636C1336.86 110.688 1330.97 119.539 1324.1 127.988C1312.24 125.252 1300.93 125.212 1291.12 127.907L1284.89 129.617L1290.86 132.091C1290.86 132.091 1301.17 136.396 1312.44 140.982C1302.68 150.859 1291.4 160.153 1278.85 168.621L1261.54 180.288L1280.92 172.524C1299.68 165.021 1317.86 161.199 1334.93 161.199C1376.86 161.199 1410.83 184.01 1436 228.967C1431.57 229.41 1422.98 229.936 1411.28 229.936Z" fill="#3C7520"/>
</g>
<defs>
<linearGradient id="paint0_linear_4512_1942" x1="109524" y1="210" x2="109524" y2="52566.2" gradientUnits="userSpaceOnUse">
<stop stop-color="#6E84F2"/>
<stop offset="1" stop-color="#292F51"/>
</linearGradient>
<linearGradient id="paint1_linear_4512_1942" x1="109524" y1="245.345" x2="109524" y2="52601.6" gradientUnits="userSpaceOnUse">
<stop stop-color="#6E84F2"/>
<stop offset="1" stop-color="#292F51"/>
</linearGradient>
<linearGradient id="paint2_linear_4512_1942" x1="109524" y1="280.691" x2="109524" y2="52636.9" gradientUnits="userSpaceOnUse">
<stop stop-color="#6E84F2"/>
<stop offset="1" stop-color="#292F51"/>
</linearGradient>
<linearGradient id="paint3_linear_4512_1942" x1="109524" y1="316.036" x2="109524" y2="52672.2" gradientUnits="userSpaceOnUse">
<stop stop-color="#6E84F2"/>
<stop offset="1" stop-color="#292F51"/>
</linearGradient>
<linearGradient id="paint4_linear_4512_1942" x1="109524" y1="351.382" x2="109524" y2="52707.6" gradientUnits="userSpaceOnUse">
<stop stop-color="#6E84F2"/>
<stop offset="1" stop-color="#292F51"/>
</linearGradient>
<clipPath id="clip0_4512_1942">
<rect width="1440" height="700" fill="white"/>
</clipPath>
<clipPath id="clip1_4512_1942">
<rect width="1440" height="243" fill="white" transform="translate(0 210)"/>
</clipPath>
</defs>
</svg>
