<svg width="403" height="378" viewBox="0 0 403 378" fill="none" xmlns="http://www.w3.org/2000/svg">
<path d="M224.632 294.535C223.391 292.62 222.256 290.844 221.155 288.822C219.078 284.95 217.324 280.913 215.909 276.752C213.125 268.315 211.948 259.431 212.439 250.56C212.793 246.068 213.518 241.613 214.605 237.24L216.861 230.675C217.665 228.378 218.593 226.126 219.641 223.931C224.011 214.653 228.904 205.196 233.937 195.633C238.969 186.07 244.141 176.401 248.961 166.56C253.939 156.459 258.182 146.012 261.657 135.3C265.38 124.358 267.18 112.855 266.978 101.299C266.78 95.3738 265.718 89.5093 263.825 83.891C261.957 78.346 259.347 73.0798 256.065 68.2358L248.855 72.6355C253.691 81.3501 255.912 91.2748 255.251 101.22C254.347 111.195 251.726 120.94 247.506 130.024C243.222 139.538 238.23 148.718 232.573 157.486C227.116 166.493 221.062 175.294 214.975 184.34C208.888 193.387 202.802 202.433 197 212.143L192.689 220.054C191.451 222.76 190.074 225.572 189.048 228.556C186.645 234.439 184.899 240.57 183.843 246.837C181.627 259.465 181.923 272.405 184.715 284.918C186.077 291.113 187.978 297.177 190.395 303.041C197 310.401 227.838 299.484 224.632 294.535Z" fill="#AA7405"/>
<g style="mix-blend-mode:multiply" opacity="0.2">
<path d="M218.833 300.54C217.592 298.625 215.994 295.62 214.893 293.599C212.816 289.726 211.062 285.689 209.648 281.529C206.863 273.092 205.686 264.207 206.177 255.337C206.531 250.844 207.256 246.389 208.343 242.016L210.599 235.451C211.403 233.154 212.331 230.903 213.379 228.707C217.749 219.43 222.642 209.973 227.675 200.41C232.707 190.847 237.879 181.178 242.699 171.336C247.678 161.235 251.921 150.788 255.395 140.076C259.118 129.135 260.918 117.631 260.717 106.076C260.518 100.15 259.456 94.2859 257.563 88.6675C255.695 83.1226 253.085 77.8563 249.803 73.0124L249.385 73.3308L248.749 72.4958L255.959 68.0962C259.241 72.9401 261.851 78.2064 263.719 83.7513C265.612 89.3697 266.674 95.2342 266.872 101.159C267.074 112.715 265.274 124.219 261.551 135.16C258.076 145.872 253.833 156.319 248.855 166.42C244.035 176.261 238.863 185.931 233.831 195.494C228.798 205.057 223.905 214.514 219.535 223.791C218.487 225.987 217.558 228.238 216.755 230.535L214.499 237.1C213.411 241.473 212.687 245.928 212.333 250.42C211.842 259.291 213.019 268.176 215.803 276.613C217.218 280.773 218.972 284.81 221.048 288.683C222.15 290.704 223.285 292.48 224.526 294.395C224.526 294.395 225.875 295.61 222.706 298.075C221.283 299.182 218.833 300.54 218.833 300.54Z" fill="#976706"/>
</g>
<path d="M259.723 66.1055C259.723 66.1055 331.734 45.0746 344.162 113.308C344.162 113.308 294.763 121.272 267.749 71.4313C267.749 71.4313 264.809 67.2893 253.303 72.9842C253.303 72.9842 250.218 68.0733 259.723 66.1055Z" fill="#50992D"/>
<path d="M259.724 66.1055C259.724 66.1055 331.735 45.0746 344.163 113.308C344.163 113.308 326.476 91.6544 308.089 80.0969C295.764 72.3495 282.734 63.0536 254.209 70.2366C254.209 70.2366 250.218 68.0733 259.724 66.1055Z" fill="#6ABF41"/>
<path d="M251.654 63.8956C251.654 63.8956 273.293 -7.87099 337.121 18.9499C337.121 18.9499 326.049 64.9541 263.717 56.1502C263.717 56.1502 257.026 61.0804 253.505 70.9407C253.505 70.9407 247.947 72.8877 251.654 63.8956Z" fill="#50992D"/>
<path d="M251.04 65.3065C251.04 65.3065 273.293 -7.87067 337.121 18.9503C310.906 18.1177 272.521 25.1608 252.448 66.7152C252.448 66.7152 247.333 74.2986 251.04 65.3065Z" fill="#6ABF41"/>
<path d="M241.901 74.1976C241.901 74.1976 175.819 109.638 214.692 166.944C214.692 166.944 255.553 137.975 240.018 83.5599C240.018 83.5599 239.312 78.5946 251.461 74.6098C251.461 74.6098 250.118 68.8095 241.901 74.1976Z" fill="#50992D"/>
<path d="M246.252 66.9153C246.252 66.9153 180.423 30.8337 153.607 94.6607C153.607 94.6607 200.212 113.045 237.424 70.348C237.424 70.348 241.108 67.0972 251.15 75.0672C251.15 75.0672 255.211 70.8682 246.252 66.9153Z" fill="#6ABF41"/>
<path d="M229.709 0.500977C229.709 0.500977 275.557 37.5155 247.301 58.19C247.301 58.19 254.827 70.9415 253.827 72.805C252.827 74.6685 248.551 73.9682 244.968 59.7494C244.968 59.7494 205.135 56.013 229.709 0.500977Z" fill="#6ABF41"/>
<path d="M257.719 146.009L242.891 139.268L244.407 136.35L258.99 143.058L257.719 146.009Z" fill="#7A522D"/>
<path d="M245.756 172.747L228.944 163.117L230.566 160.338L247.027 169.796L245.756 172.747Z" fill="#7A522D"/>
<path d="M251.821 118.366L252.601 115.349L265.585 119.094L264.91 122.25L251.821 118.366Z" fill="#7A522D"/>
<path d="M263.181 82.1809L253.503 84.5002C253.337 83.4375 253.058 82.3954 252.672 81.3913L262.072 79.2843C262.43 80.3316 262.928 81.2727 263.181 82.1809Z" fill="#7A522D"/>
<path d="M266.8 100.775L255.171 99.9598L255.248 96.5984L266.599 97.6262L266.8 100.775Z" fill="#7A522D"/>
<path d="M212.346 188.107L214.075 185.468L233.314 196.548L231.692 199.327L212.346 188.107Z" fill="#7A522D"/>
<path d="M188.144 297.493L187.068 294.351L216.268 277.799C216.594 278.841 217.001 279.856 217.483 280.835L188.144 297.493Z" fill="#7A522D"/>
<path d="M212.865 264.105L182.425 270.374L182.364 267.119L212.558 260.816C212.586 261.918 212.689 263.017 212.865 264.105Z" fill="#7A522D"/>
<path d="M184.238 243.893L185.052 240.631L213.586 241.099L213.018 244.394L184.238 243.893Z" fill="#7A522D"/>
<path d="M195.722 214.218L196.894 212.003L197.451 211.579L221.33 220.661L219.814 223.579L195.722 214.218Z" fill="#7A522D"/>
<path d="M325.215 341.9L325.222 341.898L325.229 341.896C327.561 341.213 329.291 341.263 331.269 341.728C332.283 341.966 333.365 342.314 334.646 342.744C334.885 342.825 335.131 342.908 335.384 342.993C336.476 343.363 337.701 343.777 339.099 344.208C344.749 345.949 351.306 345.492 357.156 344.269C363.022 343.043 368.291 341.024 371.43 339.528C383.735 333.665 389.638 325.484 392.216 318.059C394.775 310.684 394.038 304.095 393.122 301.363C392.318 298.964 389.082 293.023 382.115 289.848C375.086 286.645 364.514 286.369 349.293 294.868C347.585 295.822 344.437 298.021 341.332 300.449C338.235 302.872 335.072 305.608 333.383 307.652C332.885 308.253 332.414 308.81 331.946 309.361C329.38 312.39 326.944 315.264 321.06 324.621C319.077 327.774 315.929 330.401 312.203 332.587C308.484 334.769 304.246 336.478 300.155 337.819C296.068 339.159 292.154 340.124 289.087 340.829C288.302 341.009 287.538 341.18 286.847 341.335C286.23 341.473 285.671 341.598 285.207 341.706C284.23 341.931 283.4 342.136 282.965 342.331C282.777 342.415 282.559 342.508 282.319 342.611C281.015 343.168 279.041 344.012 277.54 345.27C276.629 346.033 275.818 347.004 275.421 348.234C275.017 349.485 275.076 350.896 275.721 352.456C278.26 358.597 284.518 359.344 288.631 358.797C290.414 358.56 292.283 357.502 294.496 356.046C295.409 355.445 296.371 354.783 297.429 354.055C299.054 352.936 300.904 351.662 303.15 350.216C309.964 345.83 316.498 344.155 322.032 342.736C323.135 342.454 324.197 342.181 325.215 341.9Z" fill="#F2709C" stroke="#EDE8E3" stroke-width="2"/>
<path d="M362.151 341.969C365.769 340.89 368.885 339.634 371 338.625C373.652 337.363 375.996 335.992 378.068 334.546C375.272 334.458 370.266 333.939 367.653 331.469C365.621 329.557 368.034 326.375 370.835 322.684C374.128 318.341 377.956 313.294 375.708 308.783C373.226 304.05 367.299 305.616 362.118 306.985C357.727 308.146 353.87 309.165 353.101 306.086C352.72 304.656 354.178 302.632 355.481 300.824C356.171 299.865 356.818 298.968 357.124 298.251C357.918 296.186 356.712 293.74 356.038 292.617C354.052 293.486 351.967 294.521 349.78 295.741C347.7 296.903 343.266 300.072 339.478 303.231C341.105 303.87 344.389 305.425 344.584 306.573C345.04 308.888 343.765 311.003 342.576 312.976C341.295 315.099 340.113 317.058 341.297 318.926C344.254 323.527 350.093 321.512 355.073 319.794C358.672 318.552 361.822 317.465 363.109 319.145C364.701 321.208 362.508 323.796 360.115 326.622C357.316 329.925 354.242 333.554 356.611 337.05C358.359 339.567 360.878 341.233 362.151 341.969Z" fill="#DDE337"/>
<path d="M288.726 312.916L288.725 312.917C279.871 317.538 274.426 318.237 269.754 318.384C269.034 318.407 268.34 318.417 267.661 318.427C263.987 318.481 260.745 318.529 256.145 320.523C248.383 323.88 244.452 326.903 240.777 330.645C239.452 331.994 238.167 333.43 236.739 335.024C236.158 335.674 235.553 336.35 234.911 337.058C232.707 339.49 230.116 342.247 226.696 345.456C225.055 347.021 222.804 347.98 220.516 348.256C218.228 348.533 215.815 348.136 213.867 346.872C210.624 344.79 209.797 341.46 210.541 338.246C211.274 335.084 213.52 331.969 216.516 329.939L216.517 329.938C219.965 327.606 223.229 325.76 226.248 324.093C226.664 323.864 227.073 323.639 227.478 323.416C230.03 322.013 232.377 320.722 234.535 319.325C239.485 316.119 243.363 312.396 245.965 305.69C250.12 294.989 256.783 282.992 264.777 275.912L264.777 275.911C270.947 270.458 277.622 266.922 283.864 265.929C290.141 264.93 295.995 266.511 300.311 271.297L300.312 271.298C305.972 277.594 308.581 285.165 306.936 292.655C305.292 300.139 299.455 307.303 288.726 312.916Z" fill="#F2709C" stroke="#EDE8E3" stroke-width="2" stroke-miterlimit="10"/>
<path fill-rule="evenodd" clip-rule="evenodd" d="M297.639 305.688C295.108 307.943 291.997 310.077 288.262 312.031C287.992 312.172 287.725 312.309 287.461 312.443C284.677 312.566 279.867 311.98 278.611 310.43C277.527 309.107 278.206 307.849 278.953 306.464C279.766 304.957 280.66 303.3 279.455 301.246C278.364 299.385 276.883 299.786 275.278 300.221C273.481 300.708 271.53 301.237 269.795 298.685C268.079 296.163 269.153 294.602 270.199 293.082C271.157 291.69 272.091 290.333 270.843 288.302C270.013 286.989 268.273 286.797 266.355 286.586C263.834 286.308 261.005 285.996 259.523 283.062C261.394 280.662 263.374 278.49 265.44 276.661C266.613 275.624 267.802 274.66 269.001 273.772C268.991 273.914 268.978 274.069 268.965 274.235C268.821 276.042 268.577 279.107 269.454 280.292C270.425 281.603 272.445 280.95 274.661 280.235C277.386 279.355 280.406 278.379 282.135 280.841C283.593 282.925 282.47 284.821 281.354 286.705C280.221 288.618 279.095 290.518 280.689 292.588C281.713 293.923 283.222 293.906 284.722 293.89C286.231 293.874 287.731 293.858 288.724 295.214C289.83 296.773 289.03 298.54 288.248 300.266C287.429 302.073 286.63 303.836 288.062 305.268C289.548 306.721 291.97 305.524 294.055 304.494C296.047 303.509 297.731 302.677 297.993 304.457C298.038 304.816 297.905 305.235 297.639 305.688Z" fill="#DDE337"/>
<path d="M27.693 348.428C26.693 347.628 24.593 347.828 23.493 348.128C23.4371 348.132 23.3835 348.152 23.3383 348.185C23.2931 348.218 23.2581 348.263 23.2373 348.315C23.2165 348.367 23.2107 348.424 23.2205 348.479C23.2303 348.535 23.2555 348.586 23.293 348.628C21.993 349.928 20.293 350.828 19.193 352.428C18.1322 354.093 17.4495 355.97 17.193 357.928C16.7595 360.036 16.7256 362.207 17.093 364.328C17.393 366.028 17.693 368.228 18.793 369.628C19.893 371.028 19.493 369.628 19.393 369.328C18.9471 367.564 18.7452 365.747 18.793 363.928C18.8826 362.091 19.219 360.275 19.793 358.528C20.793 354.928 23.493 352.728 26.493 351.128C27.493 350.628 28.993 349.428 27.693 348.428Z" fill="#C0472C"/>
<path d="M22.3933 345.828C21.3933 344.928 19.3933 344.928 18.1933 345.128C18.1374 345.132 18.0838 345.152 18.0386 345.185C17.9934 345.218 17.9584 345.263 17.9375 345.315C17.9167 345.367 17.9109 345.424 17.9207 345.479C17.9306 345.535 17.9557 345.586 17.9933 345.628C16.5933 346.828 14.7933 347.528 13.5933 349.028C12.424 350.615 11.5749 352.416 11.0933 354.328C10.4285 356.358 10.157 358.496 10.2933 360.628C10.4933 362.328 10.5933 364.528 11.5933 366.028C12.5933 367.528 12.2933 366.228 12.1933 365.828C11.9096 364.041 11.8759 362.224 12.0933 360.428C12.3464 358.6 12.8512 356.817 13.5933 355.128C14.8933 351.728 17.7933 349.628 20.9933 348.428C21.9933 348.028 23.5933 346.928 22.3933 345.828Z" fill="#C0472C"/>
<path d="M21.193 341.227C20.593 340.127 18.593 339.527 17.493 339.327C16.393 339.127 17.093 339.527 17.093 339.727C15.393 340.327 13.493 340.427 11.793 341.527C10.1922 342.646 8.83204 344.074 7.793 345.727C6.53613 347.474 5.6201 349.441 5.093 351.527C4.693 353.227 4.093 355.327 4.493 357.027C4.52759 357.09 4.5783 357.142 4.63985 357.178C4.7014 357.215 4.77154 357.234 4.843 357.234C4.91445 357.234 4.9846 357.215 5.04615 357.178C5.1077 357.142 5.15841 357.09 5.193 357.027C5.4666 355.257 6.00601 353.537 6.793 351.927C7.64968 350.251 8.68935 348.675 9.893 347.227C12.293 344.427 15.593 343.427 19.093 343.227C20.093 343.227 21.993 342.627 21.193 341.227Z" fill="#C0472C"/>
<path d="M49.493 351.128C52.593 352.728 55.293 354.928 56.193 358.528C56.767 360.275 57.1034 362.091 57.193 363.928C57.2909 365.748 57.0882 367.573 56.593 369.328C56.493 369.628 56.993 369.828 57.193 369.628C57.393 369.428 58.593 366.028 58.993 364.328C59.3275 362.201 59.2597 360.03 58.793 357.928C58.5365 355.97 57.8538 354.093 56.793 352.428C55.693 350.828 54.093 349.928 52.693 348.628C52.7303 348.593 52.758 348.549 52.7736 348.5C52.7892 348.452 52.7921 348.4 52.7821 348.35C52.7721 348.3 52.7495 348.253 52.7164 348.214C52.6833 348.175 52.6408 348.145 52.593 348.128C51.393 347.828 49.393 347.628 48.393 348.428C47.393 349.228 48.593 350.628 49.493 351.128Z" fill="#C0472C"/>
<path d="M54.993 348.428C58.193 349.628 61.093 351.728 62.393 355.128C63.1351 356.817 63.6399 358.6 63.893 360.428C64.1435 362.219 64.1435 364.036 63.893 365.828C63.793 366.228 64.293 366.328 64.493 366.028C64.693 365.728 65.493 362.328 65.693 360.628C65.8122 358.503 65.5756 356.374 64.993 354.328C64.5188 352.394 63.6318 350.586 62.393 349.028C61.193 347.528 59.493 346.828 57.993 345.628C58.0306 345.586 58.0557 345.535 58.0655 345.479C58.0754 345.424 58.0696 345.367 58.0487 345.315C58.0279 345.263 57.9929 345.218 57.9477 345.185C57.9025 345.152 57.8489 345.132 57.793 345.128C56.593 344.928 54.593 344.928 53.593 345.828C52.593 346.728 54.093 348.028 54.993 348.428Z" fill="#C0472C"/>
<path d="M56.993 343.227C60.393 343.427 63.793 344.427 66.093 347.227C67.3297 348.65 68.3722 350.231 69.193 351.927C69.98 353.537 70.5194 355.257 70.793 357.027C70.8276 357.09 70.8783 357.142 70.9398 357.178C71.0014 357.215 71.0715 357.234 71.143 357.234C71.2144 357.234 71.2846 357.215 71.3461 357.178C71.4077 357.142 71.4584 357.09 71.493 357.027C71.893 355.327 71.293 353.227 70.893 351.527C70.401 349.447 69.5187 347.479 68.293 345.727C67.2183 344.069 65.8246 342.642 64.193 341.527C62.493 340.427 60.693 340.327 58.893 339.727C58.993 339.527 58.793 339.227 58.593 339.327C58.393 339.427 55.393 340.127 54.793 341.227C54.193 342.327 55.893 343.227 56.993 343.227Z" fill="#C0472C"/>
<path d="M59.993 326.828C53.093 321.128 47.693 315.928 37.993 316.228C28.293 316.528 22.893 321.128 15.993 326.828C9.09304 332.528 7.79304 337.928 13.793 344.428C19.793 350.928 28.693 352.328 37.993 351.728C47.293 351.128 56.593 350.428 62.193 344.428C67.793 338.428 65.993 331.828 59.993 326.828Z" fill="#F35D3C"/>
<path d="M40.393 320.428C39.793 322.128 36.293 322.428 35.593 320.528C34.893 318.628 34.593 320.228 34.793 320.728C35.0518 321.332 35.4851 321.845 36.0374 322.201C36.5897 322.558 37.2359 322.741 37.893 322.728C38.6139 322.815 39.3432 322.655 39.9611 322.274C40.579 321.892 41.0487 321.312 41.293 320.628C41.493 320.128 40.593 319.828 40.393 320.428Z" fill="#012A48"/>
<path d="M31.6933 318.028L33.7933 317.528C33.9933 316.328 33.9933 315.128 34.1933 313.928C34.4583 312.609 34.6254 311.272 34.6933 309.928C34.6475 309.77 34.5543 309.631 34.4264 309.528C34.2985 309.425 34.1421 309.364 33.9783 309.353C33.8145 309.342 33.6514 309.382 33.5109 309.467C33.3705 309.552 33.2596 309.678 33.1933 309.828V309.628C32.9933 309.028 32.0933 308.728 31.7933 309.428H31.4933C31.4365 309.275 31.3342 309.143 31.2001 309.049C31.066 308.956 30.9066 308.906 30.7433 308.906C30.58 308.906 30.4206 308.956 30.2865 309.049C30.1525 309.143 30.0501 309.275 29.9933 309.428V309.728C29.4933 309.528 28.8933 309.728 28.8933 310.328C29.0321 312.079 29.4367 313.799 30.0933 315.428C30.4918 316.371 31.0313 317.247 31.6933 318.028Z" fill="#C0472C"/>
<path d="M42.1932 317.528H42.0932L44.1932 318.028C44.9215 317.24 45.4978 316.325 45.8932 315.328C46.5498 313.699 46.9544 311.979 47.0932 310.228C47.0932 309.628 46.4932 309.428 45.9932 309.628V309.328C45.8932 308.528 44.6932 308.628 44.4932 309.328H44.1932C43.8932 308.628 42.9932 308.928 42.7932 309.528V309.728C42.7269 309.578 42.616 309.452 42.4756 309.367C42.3351 309.282 42.172 309.242 42.0082 309.253C41.8444 309.264 41.688 309.325 41.5601 309.428C41.4322 309.53 41.339 309.67 41.2932 309.828C41.3456 311.179 41.5468 312.521 41.8932 313.828C41.9932 315.128 41.9932 316.328 42.1932 317.528Z" fill="#C0472C"/>
<path d="M31.7929 307.027C27.8929 307.027 27.8929 313.027 31.7929 313.027C35.6929 313.027 35.6929 307.027 31.7929 307.027Z" fill="#F2F2F2"/>
<path d="M44.1933 307.027C40.2933 307.027 40.2933 313.027 44.1933 313.027C48.0933 313.027 48.0933 307.027 44.1933 307.027Z" fill="#F2F2F2"/>
<path d="M31.7932 307.728C28.7932 307.728 28.7932 312.428 31.7932 312.428C32.3336 312.315 32.8189 312.021 33.1673 311.593C33.5157 311.164 33.7059 310.629 33.7059 310.078C33.7059 309.526 33.5157 308.991 33.1673 308.563C32.8189 308.135 32.3336 307.84 31.7932 307.728Z" fill="#012A48"/>
<path d="M44.2933 307.527C41.0933 307.527 41.0933 312.427 44.2933 312.427C47.4933 312.427 47.4933 307.527 44.2933 307.527Z" fill="#012A48"/>
<path d="M17.4931 328.028C15.6931 327.628 13.7931 326.528 13.3931 324.528C13.1567 322.721 13.4339 320.884 14.1931 319.228C15.8931 316.128 11.0931 313.328 9.49312 316.428C7.82832 319.555 7.36589 323.183 8.19312 326.628C9.19312 330.128 12.6931 332.528 16.0931 333.328C19.4931 334.128 20.9931 328.928 17.4931 328.028Z" fill="#C0472C"/>
<path d="M23.2932 299.828C22.8802 300.041 22.5268 300.354 22.2649 300.738C22.0031 301.122 21.841 301.565 21.7932 302.028L20.7932 302.228C19.3932 302.828 18.6932 302.828 18.2932 304.628C18.171 305.321 18.1374 306.026 18.1932 306.728C17.9932 306.928 16.9932 307.028 16.5932 307.228L16.1932 307.528C15.8932 306.428 15.4932 305.328 15.0932 304.228C16.185 303.712 17.0925 302.875 17.6932 301.828C17.8932 301.628 17.7932 300.928 17.8932 300.728L19.3932 300.428C20.6932 299.728 21.4932 298.928 21.2932 297.428C23.3932 297.328 23.2932 295.428 23.6932 293.828C23.6894 292.995 23.5091 292.172 23.1644 291.413C22.8197 290.655 22.3183 289.978 21.6932 289.428C19.9932 287.928 16.8932 287.928 13.6932 288.328C10.4932 288.728 3.7932 295.728 1.9932 299.828C-2.2068 309.628 3.8932 324.828 16.4932 320.228C20.9932 318.628 25.7932 312.128 26.5932 307.428C26.9932 305.528 27.4932 297.828 23.2932 299.828Z" fill="#F35D3C"/>
<path d="M57.5929 328.028C59.3929 327.628 61.2929 326.528 61.6929 324.528C61.9772 322.721 61.6978 320.87 60.8929 319.228C59.2929 316.128 63.9929 313.328 65.6929 316.428C67.2807 319.58 67.7056 323.192 66.8929 326.628C65.8929 330.128 62.4929 332.528 59.0929 333.328C55.6929 334.128 54.0929 328.928 57.5929 328.028Z" fill="#C0472C"/>
<path d="M48.4929 307.428C49.3929 312.128 54.0929 318.628 58.6929 320.228C71.1929 324.828 77.3929 309.628 73.0929 299.828C71.3929 295.728 66.1929 289.028 61.3929 288.328C58.1929 287.928 55.0929 287.928 53.3929 289.428C52.1768 290.576 51.4589 292.156 51.3929 293.828C51.7929 295.428 51.6929 297.328 53.7929 297.428C53.7324 298.068 53.8861 298.709 54.2301 299.252C54.574 299.795 55.0886 300.209 55.6929 300.428L57.2929 300.728C57.3929 300.928 57.2929 301.628 57.3929 301.828C57.9937 302.875 58.9011 303.712 59.9929 304.228C59.5684 305.298 59.2339 306.402 58.9929 307.528L58.5929 307.228C58.1929 307.028 57.0929 306.928 56.8929 306.728C57.0001 306.032 57.0001 305.324 56.8929 304.628C56.3929 302.828 55.6929 302.828 54.2929 302.228L53.2929 302.028C53.274 301.57 53.1345 301.126 52.8887 300.739C52.6428 300.353 52.2994 300.039 51.8929 299.828C47.5929 297.828 48.0929 305.528 48.4929 307.428Z" fill="#F35D3C"/>
</svg>
