<svg width="1440" height="1001" viewBox="0 0 1440 1001" fill="none" xmlns="http://www.w3.org/2000/svg">
<g clip-path="url(#clip0_4512_1942)">
<rect y="787" width="1440" height="437" fill="#6F85F2"/>
<path d="M0 903.083C0 903.083 134.263 961.557 291.499 948.295C539.015 927.42 1050.74 777.022 1399 876.5C1673.11 954.798 1538 1735.5 1538 1735.5L0 1695V903.083Z" fill="#F0B130"/>
<g clip-path="url(#clip1_4512_1942)">
<path opacity="0.05" d="M-97.2958 576.039C-70.9248 578.685 -22.1018 595.3 29.2852 588.741C80.6723 582.183 99.3301 543.869 149.362 544.56C199.394 545.25 219.407 588.143 269.439 592.055C319.471 595.967 339.484 565.523 389.516 563.337C439.548 561.151 459.561 585.474 509.593 581.562C559.625 577.65 579.638 538.922 629.67 544.56C679.702 550.197 699.715 605.402 749.747 608.623C799.779 611.845 819.792 559.218 869.824 560.023C919.856 560.829 939.869 610.418 989.901 612.489C1039.93 614.56 1059.95 569.734 1109.98 569.964C1160.01 570.194 1180.02 613.594 1230.05 613.594C1280.09 613.594 1300.1 568.468 1350.13 569.964C1400.16 571.46 1411.32 574.635 1470.21 620.773C1529.1 666.911 2025.77 698.345 1632.81 791.426C1239.85 884.507 10.8359 1010.03 -416 1067.56" fill="url(#paint0_linear_4512_1942)"/>
<path opacity="0.29" d="M-97.2958 611.384C-70.9248 614.031 -22.1018 630.645 29.2852 624.087C80.6723 617.528 99.3301 579.214 149.362 579.905C199.394 580.595 219.407 623.488 269.439 627.4C319.471 631.312 339.484 600.868 389.516 598.682C439.548 596.496 459.561 620.819 509.593 616.907C559.625 612.995 579.638 574.267 629.67 579.905C679.702 585.543 699.715 640.747 749.747 643.968C799.779 647.19 819.792 594.563 869.824 595.368C919.856 596.174 939.869 645.763 989.901 647.834C1039.93 649.905 1059.95 605.079 1109.98 605.309C1160.01 605.539 1180.02 648.939 1230.05 648.939C1280.09 648.939 1300.1 603.814 1350.13 605.309C1400.16 606.805 1411.32 609.981 1470.21 656.118C1529.1 702.256 2025.77 733.69 1632.81 826.771C1239.85 919.852 10.8359 1045.38 -416 1102.91" fill="url(#paint1_linear_4512_1942)"/>
<path opacity="0.53" d="M-97.2958 646.73C-70.9248 649.377 -22.1018 665.991 29.2852 659.433C80.6723 652.874 99.3301 614.56 149.362 615.251C199.394 615.941 219.407 658.834 269.439 662.746C319.471 666.658 339.484 636.214 389.516 634.028C439.548 631.842 459.561 656.165 509.593 652.253C559.625 648.341 579.638 609.613 629.67 615.251C679.702 620.889 699.715 676.093 749.747 679.314C799.779 682.536 819.792 629.909 869.824 630.714C919.856 631.52 939.869 681.109 989.901 683.18C1039.93 685.251 1059.95 640.425 1109.98 640.655C1160.01 640.885 1180.02 684.285 1230.05 684.285C1280.09 684.285 1300.1 639.16 1350.13 640.655C1400.16 642.151 1411.32 645.327 1470.21 691.464C1529.1 737.602 2025.77 769.036 1632.81 862.117C1239.85 955.198 10.8359 1080.72 -416 1138.25" fill="url(#paint2_linear_4512_1942)"/>
<path opacity="0.76" d="M-97.2958 682.075C-70.9248 684.722 -22.1018 701.336 29.2852 694.778C80.6723 688.219 99.3301 649.905 149.362 650.596C199.394 651.286 219.407 694.179 269.439 698.091C319.471 702.003 339.484 671.559 389.516 669.373C439.548 667.187 459.561 691.51 509.593 687.598C559.625 683.686 579.638 644.958 629.67 650.596C679.702 656.233 699.715 711.438 749.747 714.659C799.779 717.881 819.792 665.254 869.824 666.059C919.856 666.865 939.869 716.454 989.901 718.525C1039.93 720.596 1059.95 675.77 1109.98 676C1160.01 676.23 1180.02 719.63 1230.05 719.63C1280.09 719.63 1300.1 674.505 1350.13 676C1400.16 677.496 1411.32 680.672 1470.21 726.809C1529.1 772.947 2025.77 804.381 1632.81 897.462C1239.85 990.543 10.8359 1116.07 -416 1173.6" fill="url(#paint3_linear_4512_1942)"/>
<path d="M-97.2958 717.421C-70.9248 720.067 -22.1018 736.681 29.2852 730.123C80.6723 723.565 99.3301 685.251 149.362 685.941C199.394 686.632 219.407 729.525 269.439 733.437C319.471 737.349 339.484 706.905 389.516 704.719C439.548 702.533 459.561 726.856 509.593 722.944C559.625 719.032 579.638 680.304 629.67 685.941C679.702 691.579 699.715 746.783 749.747 750.005C799.779 753.227 819.792 700.6 869.824 701.405C919.856 702.21 939.869 751.8 989.901 753.871C1039.93 755.942 1059.95 711.116 1109.98 711.346C1160.01 711.576 1180.02 754.976 1230.05 754.976C1280.09 754.976 1300.1 709.85 1350.13 711.346C1400.16 712.842 1411.32 716.017 1470.21 762.155C1529.1 808.293 2025.77 839.726 1632.81 932.807C1239.85 1025.89 10.8359 1151.42 -416 1208.94" fill="url(#paint4_linear_4512_1942)"/>
</g>
<path d="M282 874.5C64.2013 894.449 0 814 0 814V903.083C0 903.083 134.263 961.557 291.499 948.295C359.074 942.596 446.343 927.243 544.601 909.955C806.246 863.923 1145.82 804.181 1399 876.5C1577.88 927.595 1582.49 1277.82 1564.1 1515H1679C1679 1515 1633.02 917.881 1377 814C1154.27 723.625 810 738 282 874.5Z" fill="#B78622"/>
<path d="M259.57 689.387C257.67 689.519 255.11 689.624 252.048 689.624C238.378 689.624 215.048 687.387 198.765 674.04C190.795 701.97 183.748 732.876 178.655 766.359C211.512 784.391 244.421 776.362 252.235 774.045C254.056 743.509 256.614 715.208 259.57 689.387Z" fill="#3C7520"/>
<path d="M260.259 683.464C263.32 657.613 266.751 634.289 270.208 613.781C266.936 614.571 262.159 615.387 256.353 615.387C246.694 615.387 234.422 613.071 222.415 604.384C214.972 623.126 207.478 644.371 200.563 667.826C219.195 685.016 251.603 684.069 260.259 683.464Z" fill="#3C7520"/>
<path d="M271.285 607.46C275.718 581.925 280.152 560.945 283.873 545.045C280.02 546.019 274.188 547.072 267.379 547.072C261.89 547.072 255.794 546.361 249.539 544.36C242.176 558.602 233.52 576.897 224.626 598.747C244.551 613.962 265.611 609.197 271.285 607.46Z" fill="#3C7520"/>
<path d="M212.358 953C318.003 953 355.817 917.541 363.633 908.722C353.842 900.509 310.139 866.393 249.598 855.468C247.75 855.126 245.877 854.81 244.029 854.52C243.132 854.389 242.235 854.231 241.337 854.099C238.54 853.704 235.743 853.388 232.919 853.099C232.074 852.993 231.256 852.941 230.412 852.888C228.168 852.704 225.951 852.52 223.708 852.414C222.89 852.362 222.072 852.309 221.227 852.283C218.272 852.151 215.29 852.072 212.36 852.072C209.114 852.072 205.815 852.177 202.517 852.335C201.804 852.388 201.091 852.414 200.405 852.467C193.781 852.862 187.131 853.573 180.48 854.599C179.847 854.705 179.214 854.784 178.607 854.915C175.466 855.415 172.326 855.994 169.185 856.653C111.759 868.683 70.5333 900.878 61.0883 908.775C68.8206 917.594 106.344 953 212.358 953Z" fill="#3C7520"/>
<path d="M171.531 850.148C174.487 849.569 177.522 849.069 180.583 848.621C181.375 848.49 182.14 848.411 182.958 848.279C185.386 847.937 187.841 847.621 190.295 847.384C191.219 847.279 192.142 847.2 193.066 847.121C195.467 846.91 197.869 846.7 200.271 846.594C201.115 846.542 201.96 846.463 202.804 846.463C205.971 846.305 209.138 846.226 212.358 846.226C215.34 846.226 218.269 846.278 221.199 846.41C222.122 846.463 223.046 846.542 223.97 846.568C225.949 846.673 227.955 846.779 229.908 846.963C231.201 847.068 232.494 847.2 233.787 847.358C235.318 847.516 236.849 847.674 238.353 847.858C239.989 848.042 241.625 848.279 243.235 848.516C244.291 848.674 245.347 848.832 246.376 848.99C247.379 849.121 248.381 849.253 249.384 849.437C249.754 825.245 250.625 802.185 251.865 780.207C246.64 781.655 236.796 783.787 224.471 783.787C211.012 783.787 194.518 781.207 177.759 772.467C174.223 797.107 171.742 823.089 170.792 850.31C171.03 850.258 171.294 850.227 171.531 850.148Z" fill="#3C7520"/>
<path d="M252.287 539.153C267.039 543.496 281.105 539.916 285.407 538.574C287.228 530.992 288.838 524.806 290.105 520.094C283.85 515.303 279.126 511.591 276.777 509.748H276.117C273.029 511.09 269.889 512.328 266.775 513.618C263.74 518.593 258.62 527.201 252.287 539.153Z" fill="#3C7520"/>
<path d="M46.3822 551.155C61.2665 551.155 76.6791 550.497 92.2234 549.233C109.879 520.671 137.484 499.638 138.671 498.743L150.785 489.582L142.92 502.56C134.607 516.275 129.778 532.754 127.059 545.337C146.166 542.626 165.246 538.967 183.852 534.465C192.561 512.906 205.255 503.297 205.783 502.902L211.905 498.348L210.401 505.798C209.266 511.379 208.316 518.881 207.551 528.147C226.447 522.698 244.92 516.249 262.787 508.957L262.84 508.878L263.711 508.509C267.168 507.088 270.625 505.613 274.109 504.113L274.663 503.876H274.874C275.217 503.718 275.587 503.586 275.956 503.428L277.566 502.718L278.939 503.797C279.598 504.297 342.62 553.945 375.53 573.506C379.726 552.999 380.861 540.127 380.861 539.968L381.732 530.044L386.377 538.863C393.264 551.92 397.83 568.056 400.02 586.8C416.726 595.355 433.933 603.174 451.271 610.07C452.169 591.512 450.664 577.007 450.638 576.849L449.107 562.397L456.101 575.164C462.277 586.457 467.977 600.936 473.018 618.257C492.098 624.943 506.297 628.708 513 630.34C491.729 519.435 417.172 495.976 357.955 495.976C353.231 495.976 348.349 496.134 343.493 496.424L316.178 498.109L342.516 490.737C361.043 485.551 378.355 478.944 394.084 471.073C388.595 466.703 383.316 463.886 378.355 462.649L367.667 459.99L378.25 457.015C378.461 456.963 383.713 455.515 392.396 455.515C400.049 455.515 407.914 456.594 415.778 458.779C423.827 453.646 431.454 448.065 438.448 442.142C428.709 433.086 423.985 426.636 423.774 426.347L419.763 420.845L426.519 421.74C434.806 422.845 443.91 424.899 453.701 427.821C468.902 411.894 476.608 397.916 479.564 391.756C467.714 390.15 456.076 389.308 444.913 389.308C354.415 389.308 305.724 443.326 284.774 475.521L281.185 481.049L279.522 474.678C268.016 430.769 232.124 354.588 121.045 334C121.731 339.318 123.658 350.058 128.936 363.957C142.369 364.931 160.737 367.616 175.516 374.777L186.653 380.173L174.275 380.305C174.091 380.305 156.224 380.542 137.645 383.253C143.847 395.099 151.553 406.682 160.552 417.739C176.096 414.158 190.901 414.106 203.753 417.633L211.908 419.871L204.097 423.109C204.097 423.109 190.585 428.742 175.832 434.745C188.605 447.67 203.384 459.832 219.825 470.915L242.495 486.183L217.107 476.021C192.538 466.203 168.733 461.201 146.378 461.201C91.4589 461.201 46.9628 491.053 14 549.887C19.806 550.466 31.0486 551.155 46.3822 551.155Z" fill="#3C7520"/>
<path d="M280.727 942.695C280.511 937.648 289.017 903.439 335.73 896.801L337.35 934.648C306.489 912.379 281.213 954.049 280.727 942.695Z" fill="#C9547C"/>
<path d="M350.212 952.403C375.181 894.812 382.242 665.354 327.573 630.944C293.179 609.295 324.338 689.5 296.348 974.263C293.726 1000.95 339.142 977.935 350.212 952.403Z" fill="#50992D"/>
<path d="M356.683 946.01C381.616 888.427 388.377 677.766 338.619 638.793C293.646 603.566 331.648 688.846 303.701 973.567C301.082 1000.25 345.63 971.537 356.683 946.01Z" fill="#6ABF41"/>
<path d="M340.77 967.672C340.77 967.672 364.792 869.943 363.568 817.598C361.885 745.62 359.777 717.183 348.722 676.502C341.431 654.23 327.028 629.4 323.566 630.576C320.846 631.499 331.31 675.48 335.225 698.968C345.604 761.23 346.775 799.231 345.25 836.651C343.447 880.874 324.833 979.482 324.833 979.482C324.833 979.482 330.758 976.708 333.932 974.342C337.036 972.028 340.77 967.672 340.77 967.672Z" fill="#F2709C"/>
<path d="M1248.5 669.564C1249.95 669.665 1251.91 669.745 1254.24 669.745C1264.68 669.745 1282.49 668.035 1294.93 657.837C1301.01 679.179 1306.39 702.795 1310.28 728.381C1285.19 742.16 1260.07 736.025 1254.1 734.254C1252.71 710.921 1250.76 689.295 1248.5 669.564Z" fill="#3C7520"/>
<path d="M1247.97 665.038C1245.64 645.284 1243.02 627.462 1240.38 611.791C1242.88 612.394 1246.52 613.018 1250.96 613.018C1258.33 613.018 1267.7 611.248 1276.87 604.61C1282.55 618.932 1288.27 635.165 1293.55 653.088C1279.33 666.224 1254.58 665.5 1247.97 665.038Z" fill="#3C7520"/>
<path d="M1239.56 606.961C1236.17 587.448 1232.79 571.417 1229.94 559.267C1232.89 560.011 1237.34 560.816 1242.54 560.816C1246.73 560.816 1251.38 560.273 1256.16 558.744C1261.78 569.626 1268.39 583.606 1275.18 600.302C1259.97 611.929 1243.89 608.288 1239.56 606.961Z" fill="#3C7520"/>
<path d="M1284.55 871C1203.89 871 1175.01 843.904 1169.05 837.166C1176.52 830.889 1209.89 804.82 1256.11 796.472C1257.53 796.211 1258.96 795.969 1260.37 795.748C1261.05 795.648 1261.74 795.527 1262.42 795.426C1264.56 795.125 1266.69 794.883 1268.85 794.662C1269.49 794.581 1270.12 794.541 1270.76 794.501C1272.48 794.36 1274.17 794.219 1275.88 794.139C1276.51 794.099 1277.13 794.058 1277.78 794.038C1280.03 793.938 1282.31 793.877 1284.55 793.877C1287.03 793.877 1289.54 793.958 1292.06 794.079C1292.61 794.119 1293.15 794.139 1293.67 794.179C1298.73 794.481 1303.81 795.024 1308.89 795.808C1309.37 795.889 1309.85 795.949 1310.32 796.05C1312.72 796.432 1315.11 796.875 1317.51 797.377C1361.36 806.57 1392.84 831.172 1400.05 837.206C1394.14 843.945 1365.49 871 1284.55 871Z" fill="#3C7520"/>
<path d="M1315.72 792.407C1313.46 791.965 1311.15 791.582 1308.81 791.241C1308.2 791.14 1307.62 791.08 1307 790.979C1305.14 790.718 1303.27 790.476 1301.39 790.295C1300.69 790.215 1299.98 790.154 1299.28 790.094C1297.44 789.933 1295.61 789.772 1293.78 789.692C1293.13 789.651 1292.49 789.591 1291.84 789.591C1289.42 789.47 1287.01 789.41 1284.55 789.41C1282.27 789.41 1280.03 789.45 1277.8 789.551C1277.09 789.591 1276.39 789.651 1275.68 789.672C1274.17 789.752 1272.64 789.832 1271.15 789.973C1270.16 790.054 1269.17 790.154 1268.19 790.275C1267.02 790.396 1265.85 790.516 1264.7 790.657C1263.45 790.798 1262.2 790.979 1260.97 791.16C1260.17 791.281 1259.36 791.401 1258.57 791.522C1257.81 791.623 1257.04 791.723 1256.28 791.864C1256 773.378 1255.33 755.757 1254.38 738.962C1258.37 740.069 1265.89 741.698 1275.3 741.698C1285.58 741.698 1298.17 739.727 1310.97 733.048C1313.67 751.876 1315.56 771.731 1316.28 792.531C1316.1 792.491 1315.9 792.468 1315.72 792.407Z" fill="#3C7520"/>
<path d="M1254.06 554.765C1242.8 558.084 1232.06 555.348 1228.77 554.322C1227.38 548.529 1226.15 543.801 1225.19 540.201C1229.96 536.54 1233.57 533.704 1235.36 532.295H1235.87C1238.22 533.321 1240.62 534.266 1243 535.252C1245.32 539.054 1249.23 545.632 1254.06 554.765Z" fill="#3C7520"/>
<path d="M1411.28 563.936C1399.91 563.936 1388.14 563.433 1376.27 562.467C1362.79 540.642 1341.72 524.57 1340.81 523.886L1331.56 516.885L1337.57 526.803C1343.91 537.283 1347.6 549.875 1349.68 559.49C1335.09 557.419 1320.52 554.623 1306.31 551.183C1299.66 534.708 1289.97 527.366 1289.57 527.064L1284.89 523.584L1286.04 529.277C1286.91 533.541 1287.63 539.274 1288.22 546.355C1273.79 542.191 1259.69 537.263 1246.04 531.691L1246 531.63L1245.34 531.349C1242.7 530.262 1240.06 529.136 1237.4 527.989L1236.98 527.808H1236.82C1236.55 527.688 1236.27 527.587 1235.99 527.466L1234.76 526.923L1233.71 527.748C1233.21 528.13 1185.09 566.068 1159.96 581.015C1156.76 565.345 1155.89 555.509 1155.89 555.388L1155.23 547.804L1151.68 554.543C1146.42 564.52 1142.94 576.851 1141.26 591.173C1128.51 597.711 1115.37 603.685 1102.13 608.955C1101.45 594.774 1102.59 583.69 1102.62 583.569L1103.78 572.526L1098.44 582.282C1093.73 590.912 1089.38 601.975 1085.53 615.211C1070.96 620.32 1060.12 623.197 1055 624.444C1071.24 539.698 1128.17 521.772 1173.38 521.772C1176.99 521.772 1180.72 521.893 1184.42 522.114L1205.28 523.401L1185.17 517.769C1171.02 513.806 1157.81 508.757 1145.8 502.742C1149.99 499.403 1154.02 497.251 1157.81 496.305L1165.97 494.274L1157.89 492C1157.72 491.96 1153.71 490.854 1147.08 490.854C1141.24 490.854 1135.24 491.679 1129.23 493.348C1123.09 489.426 1117.26 485.161 1111.92 480.635C1119.36 473.715 1122.96 468.787 1123.13 468.565L1126.19 464.361L1121.03 465.045C1114.7 465.89 1107.75 467.459 1100.28 469.692C1088.67 457.522 1082.79 446.841 1080.53 442.133C1089.58 440.906 1098.46 440.263 1106.99 440.263C1176.08 440.263 1213.26 481.54 1229.26 506.141L1232 510.365L1233.27 505.497C1242.05 471.945 1269.46 413.732 1354.27 398C1353.74 402.063 1352.27 410.27 1348.24 420.891C1337.99 421.636 1323.96 423.687 1312.68 429.159L1304.18 433.283L1313.63 433.383C1313.77 433.383 1327.41 433.564 1341.59 435.636C1336.86 444.688 1330.97 453.539 1324.1 461.988C1312.24 459.252 1300.93 459.212 1291.12 461.907L1284.89 463.617L1290.86 466.091C1290.86 466.091 1301.17 470.396 1312.44 474.982C1302.68 484.859 1291.4 494.153 1278.85 502.621L1261.54 514.288L1280.92 506.524C1299.68 499.021 1317.86 495.199 1334.93 495.199C1376.86 495.199 1410.83 518.01 1436 562.967C1431.57 563.41 1422.98 563.936 1411.28 563.936Z" fill="#3C7520"/>
</g>
<defs>
<linearGradient id="paint0_linear_4512_1942" x1="109524" y1="544" x2="109524" y2="52900.2" gradientUnits="userSpaceOnUse">
<stop stop-color="#6E84F2"/>
<stop offset="1" stop-color="#292F51"/>
</linearGradient>
<linearGradient id="paint1_linear_4512_1942" x1="109524" y1="579.345" x2="109524" y2="52935.6" gradientUnits="userSpaceOnUse">
<stop stop-color="#6E84F2"/>
<stop offset="1" stop-color="#292F51"/>
</linearGradient>
<linearGradient id="paint2_linear_4512_1942" x1="109524" y1="614.691" x2="109524" y2="52970.9" gradientUnits="userSpaceOnUse">
<stop stop-color="#6E84F2"/>
<stop offset="1" stop-color="#292F51"/>
</linearGradient>
<linearGradient id="paint3_linear_4512_1942" x1="109524" y1="650.036" x2="109524" y2="53006.2" gradientUnits="userSpaceOnUse">
<stop stop-color="#6E84F2"/>
<stop offset="1" stop-color="#292F51"/>
</linearGradient>
<linearGradient id="paint4_linear_4512_1942" x1="109524" y1="685.382" x2="109524" y2="53041.6" gradientUnits="userSpaceOnUse">
<stop stop-color="#6E84F2"/>
<stop offset="1" stop-color="#292F51"/>
</linearGradient>
<clipPath id="clip0_4512_1942">
<rect width="1440" height="1000" fill="white" transform="translate(0 0.160645)"/>
</clipPath>
<clipPath id="clip1_4512_1942">
<rect width="1440" height="243" fill="white" transform="translate(0 544)"/>
</clipPath>
</defs>
</svg>
