<svg width="1440" height="789" viewBox="0 0 1440 789" fill="none" xmlns="http://www.w3.org/2000/svg">
<g clip-path="url(#clip0_4729_2456)">
<g clip-path="url(#clip1_4729_2456)">
<path opacity="0.05" d="M-52.2354 364.468C-38.1315 365.972 -12.0199 375.417 15.4631 371.689C42.946 367.961 52.9247 346.181 79.6829 346.573C106.441 346.966 117.145 371.349 143.903 373.572C170.661 375.796 181.364 358.49 208.123 357.247C234.881 356.005 245.584 369.831 272.342 367.608C299.101 365.384 309.804 343.369 336.562 346.573C363.321 349.778 374.024 381.159 400.782 382.991C427.54 384.822 438.244 354.906 465.002 355.364C491.76 355.822 502.464 384.011 529.222 385.188C555.98 386.366 566.683 360.884 593.442 361.015C620.2 361.146 630.903 385.816 657.662 385.816C684.42 385.816 695.123 360.165 721.881 361.015C748.64 361.865 754.605 363.67 786.101 389.897C817.598 416.125 1083.23 433.993 873.066 486.905C662.902 539.817 5.59596 611.174 -222.686 643.876" fill="url(#paint0_linear_4729_2456)"/>
<path opacity="0.29" d="M-52.2354 384.56C-38.1315 386.065 -12.0199 395.509 15.4631 391.781C42.946 388.053 52.9247 366.273 79.6829 366.666C106.441 367.058 117.145 391.441 143.903 393.665C170.661 395.888 181.364 378.582 208.123 377.34C234.881 376.097 245.584 389.924 272.342 387.7C299.101 385.476 309.804 363.461 336.562 366.666C363.321 369.871 374.024 401.252 400.782 403.083C427.54 404.914 438.244 374.998 465.002 375.456C491.76 375.914 502.464 404.103 529.222 405.281C555.98 406.458 566.683 380.976 593.442 381.107C620.2 381.238 630.903 405.908 657.662 405.908C684.42 405.908 695.123 380.257 721.881 381.107C748.64 381.957 754.605 383.762 786.101 409.99C817.598 436.217 1083.23 454.085 873.066 506.997C662.902 559.91 5.59596 631.266 -222.686 663.968" fill="url(#paint1_linear_4729_2456)"/>
<path opacity="0.53" d="M-52.2354 404.653C-38.1315 406.157 -12.0199 415.601 15.4631 411.873C42.946 408.145 52.9247 386.366 79.6829 386.758C106.441 387.15 117.145 411.533 143.903 413.757C170.661 415.981 181.364 398.675 208.123 397.432C234.881 396.189 245.584 410.016 272.342 407.792C299.101 405.568 309.804 383.553 336.562 386.758C363.321 389.963 374.024 421.344 400.782 423.175C427.54 425.007 438.244 395.091 465.002 395.548C491.76 396.006 502.464 424.196 529.222 425.373C555.98 426.55 566.683 401.069 593.442 401.199C620.2 401.33 630.903 426.001 657.662 426.001C684.42 426.001 695.123 400.349 721.881 401.199C748.64 402.05 754.605 403.855 786.101 430.082C817.598 456.309 1083.23 474.178 873.066 527.09C662.902 580.002 5.59596 651.358 -222.686 684.06" fill="url(#paint2_linear_4729_2456)"/>
<path opacity="0.76" d="M-52.2354 424.744C-38.1315 426.249 -12.0199 435.693 15.4631 431.965C42.946 428.237 52.9247 406.457 79.6829 406.85C106.441 407.242 117.145 431.625 143.903 433.849C170.661 436.073 181.364 418.767 208.123 417.524C234.881 416.281 245.584 430.108 272.342 427.884C299.101 425.66 309.804 403.645 336.562 406.85C363.321 410.055 374.024 441.436 400.782 443.267C427.54 445.098 438.244 415.182 465.002 415.64C491.76 416.098 502.464 444.287 529.222 445.465C555.98 446.642 566.683 421.16 593.442 421.291C620.2 421.422 630.903 446.092 657.662 446.092C684.42 446.092 695.123 420.441 721.881 421.291C748.64 422.141 754.605 423.947 786.101 450.174C817.598 476.401 1083.23 494.269 873.066 547.182C662.902 600.094 5.59596 671.45 -222.686 704.152" fill="url(#paint3_linear_4729_2456)"/>
<path d="M-52.2354 444.837C-38.1315 446.341 -12.0199 455.785 15.4631 452.057C42.946 448.329 52.9247 426.55 79.6829 426.942C106.441 427.335 117.145 451.717 143.903 453.941C170.661 456.165 181.364 438.859 208.123 437.616C234.881 436.373 245.584 450.2 272.342 447.976C299.101 445.752 309.804 423.737 336.562 426.942C363.321 430.147 374.024 461.528 400.782 463.359C427.54 465.191 438.244 435.275 465.002 435.732C491.76 436.19 502.464 464.38 529.222 465.557C555.98 466.734 566.683 441.253 593.442 441.383C620.2 441.514 630.903 466.185 657.662 466.185C684.42 466.185 695.123 440.533 721.881 441.383C748.64 442.234 754.605 444.039 786.101 470.266C817.598 496.493 1083.23 514.362 873.066 567.274C662.902 620.186 5.59596 691.542 -222.686 724.244" fill="url(#paint4_linear_4729_2456)"/>
</g>
<g clip-path="url(#clip2_4729_2456)">
<path opacity="0.05" d="M1491.84 364.468C1477.73 365.972 1451.62 375.417 1424.14 371.689C1396.66 367.961 1386.68 346.181 1359.92 346.573C1333.16 346.966 1322.46 371.349 1295.7 373.572C1268.94 375.796 1258.24 358.49 1231.48 357.247C1204.72 356.005 1194.02 369.831 1167.26 367.608C1140.5 365.384 1129.8 343.369 1103.04 346.573C1076.28 349.778 1065.58 381.159 1038.82 382.991C1012.06 384.822 1001.36 354.906 974.6 355.364C947.841 355.822 937.138 384.011 910.38 385.188C883.621 386.366 872.918 360.884 846.16 361.015C819.402 361.146 808.698 385.816 781.94 385.816C755.182 385.816 744.478 360.165 717.72 361.015C690.962 361.865 684.997 363.67 653.5 389.897C622.004 416.125 356.372 433.993 566.536 486.905C776.7 539.817 1434.01 611.174 1662.29 643.876" fill="url(#paint5_linear_4729_2456)"/>
<path opacity="0.29" d="M1491.84 384.56C1477.73 386.065 1451.62 395.509 1424.14 391.781C1396.66 388.053 1386.68 366.273 1359.92 366.666C1333.16 367.058 1322.46 391.441 1295.7 393.665C1268.94 395.888 1258.24 378.582 1231.48 377.34C1204.72 376.097 1194.02 389.924 1167.26 387.7C1140.5 385.476 1129.8 363.461 1103.04 366.666C1076.28 369.871 1065.58 401.252 1038.82 403.083C1012.06 404.914 1001.36 374.998 974.6 375.456C947.841 375.914 937.138 404.103 910.38 405.281C883.621 406.458 872.918 380.976 846.16 381.107C819.402 381.238 808.698 405.908 781.94 405.908C755.182 405.908 744.478 380.257 717.72 381.107C690.962 381.957 684.997 383.762 653.5 409.99C622.004 436.217 356.372 454.085 566.536 506.997C776.7 559.91 1434.01 631.266 1662.29 663.968" fill="url(#paint6_linear_4729_2456)"/>
<path opacity="0.53" d="M1491.84 404.653C1477.73 406.157 1451.62 415.601 1424.14 411.873C1396.66 408.145 1386.68 386.366 1359.92 386.758C1333.16 387.15 1322.46 411.533 1295.7 413.757C1268.94 415.981 1258.24 398.675 1231.48 397.432C1204.72 396.189 1194.02 410.016 1167.26 407.792C1140.5 405.568 1129.8 383.553 1103.04 386.758C1076.28 389.963 1065.58 421.344 1038.82 423.175C1012.06 425.007 1001.36 395.091 974.6 395.548C947.841 396.006 937.138 424.196 910.38 425.373C883.621 426.55 872.918 401.069 846.16 401.199C819.402 401.33 808.698 426.001 781.94 426.001C755.182 426.001 744.478 400.349 717.72 401.199C690.962 402.05 684.997 403.855 653.5 430.082C622.004 456.309 356.372 474.178 566.536 527.09C776.7 580.002 1434.01 651.358 1662.29 684.06" fill="url(#paint7_linear_4729_2456)"/>
<path opacity="0.76" d="M1491.84 424.744C1477.73 426.249 1451.62 435.693 1424.14 431.965C1396.66 428.237 1386.68 406.457 1359.92 406.85C1333.16 407.242 1322.46 431.625 1295.7 433.849C1268.94 436.073 1258.24 418.767 1231.48 417.524C1204.72 416.281 1194.02 430.108 1167.26 427.884C1140.5 425.66 1129.8 403.645 1103.04 406.85C1076.28 410.055 1065.58 441.436 1038.82 443.267C1012.06 445.098 1001.36 415.182 974.6 415.64C947.841 416.098 937.138 444.287 910.38 445.465C883.621 446.642 872.918 421.16 846.16 421.291C819.402 421.422 808.698 446.092 781.94 446.092C755.182 446.092 744.478 420.441 717.72 421.291C690.962 422.141 684.997 423.947 653.5 450.174C622.004 476.401 356.372 494.269 566.536 547.182C776.7 600.094 1434.01 671.45 1662.29 704.152" fill="url(#paint8_linear_4729_2456)"/>
<path d="M1491.84 444.837C1477.73 446.341 1451.62 455.785 1424.14 452.057C1396.66 448.329 1386.68 426.55 1359.92 426.942C1333.16 427.335 1322.46 451.717 1295.7 453.941C1268.94 456.165 1258.24 438.859 1231.48 437.616C1204.72 436.373 1194.02 450.2 1167.26 447.976C1140.5 445.752 1129.8 423.737 1103.04 426.942C1076.28 430.147 1065.58 461.528 1038.82 463.359C1012.06 465.191 1001.36 435.275 974.6 435.732C947.841 436.19 937.138 464.38 910.38 465.557C883.621 466.734 872.918 441.253 846.16 441.383C819.402 441.514 808.698 466.185 781.94 466.185C755.182 466.185 744.478 440.533 717.72 441.383C690.962 442.234 684.997 444.039 653.5 470.266C622.004 496.493 356.372 514.362 566.536 567.274C776.7 620.186 1434.01 691.542 1662.29 724.244" fill="url(#paint9_linear_4729_2456)"/>
</g>
<path fill-rule="evenodd" clip-rule="evenodd" d="M1439.8 484.322H-0.199219V757.322H1439.8V484.322Z" fill="#6F85F2"/>
<path fill-rule="evenodd" clip-rule="evenodd" d="M714.578 562.322C516.96 646.183 -0.421875 496.822 -0.421875 496.822V757.322H1439.58V580.322C1433.16 574.416 1426.7 568.201 1420.06 561.816C1328.88 474.151 1204.4 354.461 714.578 562.322Z" fill="#D19823"/>
<path fill-rule="evenodd" clip-rule="evenodd" d="M-0.421875 646.242C-0.421875 646.242 156.826 723.243 260.078 723.243C529.115 723.243 714.766 664.804 866.276 617.112C1079.41 550.022 1224.98 504.199 1440.08 672.242V788.927H-0.421875V646.242Z" fill="#F0B130"/>
<path d="M1284.7 154.757L1275.69 172.776C1272.65 178.875 1275.12 186.287 1281.22 189.329L1313.57 205.467C1319.67 208.51 1327.09 206.032 1330.14 199.932L1339.14 181.913C1342.19 175.814 1339.71 168.403 1333.61 165.36L1301.26 149.222C1295.16 146.179 1287.74 148.657 1284.7 154.757Z" fill="#AA7405"/>
<g style="mix-blend-mode:multiply" opacity="0.2">
<path d="M1284.71 154.998L1275.37 173.87C1274.67 175.258 1274.26 176.77 1274.15 178.319C1274.04 179.868 1274.25 181.423 1274.75 182.892C1275.25 184.361 1276.04 185.715 1277.07 186.876C1278.1 188.036 1279.36 188.98 1280.76 189.651L1289.4 194.157C1286.63 192.736 1284.52 190.298 1283.52 187.355C1282.51 184.412 1282.69 181.193 1284.01 178.375L1293.35 159.504C1294.87 156.752 1297.35 154.662 1300.33 153.639C1303.3 152.616 1306.54 152.733 1309.43 153.968L1300.64 149.895C1297.84 148.512 1294.62 148.272 1291.64 149.224C1288.67 150.176 1286.18 152.247 1284.71 154.998Z" fill="#231005"/>
</g>
<path d="M1332.08 175.679L1317.65 189.74C1312.77 194.499 1312.66 202.313 1317.42 207.193L1342.66 233.07C1347.42 237.95 1355.24 238.047 1360.12 233.288L1374.55 219.227C1379.44 214.468 1379.54 206.654 1374.78 201.774L1349.54 175.896C1344.78 171.017 1336.96 170.92 1332.08 175.679Z" fill="#AA7405"/>
<path d="M1332.6 175.283L1317.37 190.131C1316.24 191.195 1315.34 192.478 1314.72 193.902C1314.11 195.327 1313.79 196.862 1313.79 198.413C1313.79 199.965 1314.11 201.5 1314.72 202.924C1315.34 204.347 1316.24 205.63 1317.37 206.692L1323.93 213.632C1321.81 211.355 1320.65 208.34 1320.7 205.224C1320.76 202.108 1322.02 199.134 1324.23 196.931L1339.31 182.516C1340.37 181.385 1341.65 180.484 1343.08 179.868C1344.5 179.251 1346.04 178.933 1347.59 178.932C1349.14 178.932 1350.68 179.249 1352.1 179.863C1353.53 180.478 1354.81 181.378 1355.88 182.508L1349.31 175.568C1347.11 173.364 1344.14 172.103 1341.02 172.049C1337.9 171.996 1334.88 173.155 1332.6 175.283Z" fill="#B78622"/>
<path d="M1368.21 207.707L1346.22 219.635C1340.22 222.886 1338 230.379 1341.24 236.37L1361.77 274.223C1365.02 280.214 1372.52 282.435 1378.51 279.184L1400.51 267.256C1406.51 264.005 1408.73 256.513 1405.48 250.522L1384.95 212.669C1381.7 206.678 1374.21 204.456 1368.21 207.707Z" fill="#AA7405"/>
<path d="M1366.92 207.825L1346.37 219.096C1344.84 219.919 1343.49 221.041 1342.4 222.396C1341.31 223.75 1340.5 225.309 1340.03 226.981C1339.55 228.652 1339.41 230.402 1339.63 232.127C1339.84 233.852 1340.39 235.516 1341.26 237.022L1346.47 246.409C1344.81 243.348 1344.41 239.756 1345.37 236.404C1346.33 233.053 1348.56 230.209 1351.59 228.482L1372.27 217.504C1375.35 215.922 1378.92 215.568 1382.25 216.515C1385.58 217.462 1388.42 219.639 1390.2 222.604L1384.99 213.218C1384.16 211.676 1383.04 210.313 1381.68 209.207C1380.32 208.101 1378.76 207.274 1377.08 206.773C1375.4 206.272 1373.64 206.107 1371.89 206.288C1370.15 206.468 1368.46 206.99 1366.92 207.825Z" fill="#B78622"/>
<path d="M1396.51 254.158L1372.44 261.242C1365.88 263.172 1362.12 270.053 1364.05 276.611L1376.23 318.042C1378.16 324.599 1385.04 328.35 1391.6 326.419L1415.67 319.336C1422.23 317.405 1425.99 310.524 1424.06 303.967L1411.88 262.535C1409.95 255.978 1403.07 252.227 1396.51 254.158Z" fill="#AA7405"/>
<path d="M1394.85 252.099L1372.36 258.542C1370.68 259.038 1369.11 259.859 1367.75 260.959C1366.39 262.059 1365.26 263.416 1364.42 264.954C1363.58 266.491 1363.06 268.178 1362.87 269.918C1362.69 271.658 1362.85 273.417 1363.34 275.095L1366.5 285.463C1365.53 282.133 1365.9 278.553 1367.53 275.488C1369.16 272.423 1371.92 270.113 1375.22 269.051L1397.72 262.607C1399.37 262.081 1401.11 261.89 1402.83 262.044C1404.55 262.199 1406.23 262.696 1407.76 263.507C1409.29 264.318 1410.64 265.426 1411.73 266.767C1412.83 268.107 1413.64 269.653 1414.13 271.313L1410.97 260.945C1410.54 259.281 1409.77 257.723 1408.71 256.367C1407.65 255.01 1406.32 253.884 1404.82 253.056C1403.31 252.228 1401.65 251.717 1399.93 251.552C1398.22 251.387 1396.49 251.573 1394.85 252.099Z" fill="#B78622"/>
<path d="M1409.44 299.6L1376.32 300.748C1369.5 300.984 1364.17 306.698 1364.4 313.51L1366.24 367.556C1366.48 374.368 1372.19 379.699 1379.01 379.462L1412.13 378.314C1418.94 378.078 1424.28 372.364 1424.05 365.552L1422.2 311.507C1421.97 304.694 1416.26 299.363 1409.44 299.6Z" fill="#AA7405"/>
<path d="M1406.2 298.647L1379.29 299.64C1375.19 299.772 1371.31 301.51 1368.48 304.479C1365.66 307.449 1364.11 311.411 1364.19 315.508L1364.84 328.158C1364.74 326.141 1365.04 324.124 1365.72 322.224C1366.41 320.323 1367.46 318.578 1368.83 317.088C1370.19 315.598 1371.84 314.393 1373.67 313.543C1375.5 312.694 1377.49 312.216 1379.51 312.138L1406.55 311.437C1408.57 311.336 1410.59 311.636 1412.49 312.319C1414.39 313.003 1416.13 314.057 1417.62 315.42C1419.11 316.783 1420.32 318.428 1421.17 320.261C1422.02 322.093 1422.49 324.075 1422.57 326.093L1421.92 313.443C1421.86 311.439 1421.41 309.466 1420.58 307.638C1419.76 305.809 1418.59 304.161 1417.13 302.787C1415.67 301.413 1413.95 300.34 1412.07 299.63C1410.2 298.919 1408.2 298.586 1406.2 298.647Z" fill="#B78622"/>
<path d="M1409.32 351.003L1375.05 356.773C1368 357.96 1363.4 364.813 1364.78 372.078L1375.68 429.718C1377.05 436.984 1383.88 441.911 1390.93 440.724L1425.2 434.954C1432.25 433.767 1436.85 426.915 1435.48 419.649L1424.58 362.009C1423.2 354.744 1416.37 349.816 1409.32 351.003Z" fill="#AA7405"/>
<path d="M1405.75 351.499L1377.91 356.379C1373.72 357.107 1369.03 359.112 1366.61 362.644C1364.18 366.176 1364.22 370.957 1364.93 375.296L1367.71 388.699C1366.93 384.396 1367.8 380.002 1370.13 376.439C1372.47 372.876 1376.09 370.421 1380.23 369.589L1408.52 364.902C1410.61 364.557 1412.76 364.643 1414.85 365.156C1416.93 365.669 1418.91 366.598 1420.66 367.889C1422.42 369.18 1423.92 370.808 1425.07 372.678C1426.22 374.548 1427.01 376.623 1427.39 378.782L1424.93 365.247C1424.54 363.067 1423.73 360.976 1422.55 359.096C1421.37 357.217 1419.84 355.589 1418.05 354.307C1416.26 353.025 1414.25 352.116 1412.14 351.634C1410.03 351.152 1407.85 351.106 1405.75 351.499Z" fill="#B78622"/>
<path d="M1411.48 403.164L1380.23 414.215C1370.25 417.745 1365.02 428.695 1368.54 438.672L1388.16 494.184C1391.69 504.161 1402.64 509.387 1412.62 505.857L1443.88 494.806C1453.86 491.275 1459.09 480.326 1455.57 470.348L1435.95 414.837C1432.42 404.86 1421.47 399.634 1411.48 403.164Z" fill="#AA7405"/>
<path d="M1411.87 402.682L1380.13 413.907C1377.78 414.733 1375.62 416.017 1373.77 417.685C1371.91 419.352 1370.41 421.37 1369.34 423.622C1368.28 425.873 1367.67 428.314 1367.55 430.802C1367.43 433.29 1367.81 435.776 1368.66 438.117L1373.92 452.88C1373.07 450.539 1372.7 448.052 1372.81 445.564C1372.93 443.076 1373.54 440.636 1374.61 438.384C1375.67 436.133 1377.18 434.115 1379.03 432.447C1380.88 430.78 1383.05 429.496 1385.4 428.67L1417.13 417.444C1421.84 415.822 1427.01 416.132 1431.49 418.304C1435.97 420.477 1439.41 424.337 1441.05 429.039L1436.08 414.136C1435.26 411.786 1433.98 409.624 1432.31 407.774C1430.64 405.923 1428.62 404.422 1426.37 403.357C1424.12 402.292 1421.68 401.684 1419.19 401.568C1416.7 401.452 1414.21 401.831 1411.87 402.682Z" fill="#B78622"/>
<path d="M1432.44 462.14L1397.64 478.795C1386.92 483.925 1382.42 496.849 1387.59 507.661L1406.88 598.535C1429.5 628.221 1514.74 584.275 1515.91 553.729L1461.22 472.429C1456.05 461.616 1443.17 457.01 1432.44 462.14Z" fill="#AA7405"/>
<path d="M1432.22 462.248L1397.35 478.935C1392.11 481.441 1388.06 485.91 1386.09 491.379C1384.11 496.848 1384.36 502.878 1386.78 508.169L1391.58 525.887C1389.16 520.595 1391.9 513.131 1393.88 507.663C1395.85 502.194 1399.9 497.725 1405.14 495.219L1440.01 478.532C1445.22 476.04 1451.21 475.722 1456.65 477.65C1462.1 479.578 1469.95 484.076 1472.45 489.294L1461.27 472.528C1458.78 467.309 1454.31 463.294 1448.86 461.367C1443.41 459.439 1437.43 459.756 1432.22 462.248Z" fill="#B78622"/>
<path d="M1314.88 125.442C1319.88 126.685 1324.4 129.387 1327.86 133.204C1331.32 137.021 1333.57 141.78 1334.31 146.878C1335.06 151.976 1334.27 157.181 1332.05 161.833C1329.84 166.484 1326.28 170.372 1321.85 173.002C1317.41 175.632 1312.3 176.884 1307.15 176.601C1302 176.318 1297.06 174.512 1292.94 171.412C1288.83 168.312 1285.73 164.059 1284.04 159.192C1282.35 154.326 1282.14 149.066 1283.45 144.081C1284.27 140.784 1285.74 137.682 1287.77 134.955C1289.8 132.228 1292.35 129.931 1295.27 128.197C1298.19 126.463 1301.43 125.327 1304.8 124.854C1308.17 124.381 1311.59 124.581 1314.88 125.442Z" fill="#513729"/>
<g style="mix-blend-mode:multiply" opacity="0.2">
<path d="M1314.88 125.442C1311.59 124.581 1308.17 124.381 1304.8 124.854C1301.43 125.327 1298.19 126.463 1295.27 128.197C1292.35 129.931 1289.8 132.229 1287.77 134.955C1285.74 137.682 1284.27 140.784 1283.45 144.081C1282.75 147.125 1282.55 150.261 1282.85 153.369C1282.91 151.735 1283.23 150.122 1283.8 148.591C1284.63 145.294 1286.09 142.191 1288.12 139.465C1290.15 136.738 1292.7 134.441 1295.63 132.707C1298.55 130.973 1301.79 129.837 1305.16 129.364C1308.52 128.891 1311.95 129.091 1315.24 129.952C1320.25 131.353 1324.75 134.196 1328.17 138.127C1331.59 142.059 1333.78 146.907 1334.47 152.071C1334.8 146.048 1333.03 140.097 1329.46 135.239C1325.88 130.38 1320.73 126.916 1314.88 125.442Z" fill="#231005"/>
</g>
<path d="M1275.1 176.719C1271.16 178.465 1266.79 179.003 1262.55 178.265C1258.31 177.527 1254.38 175.546 1251.27 172.573C1248.15 169.6 1245.99 165.769 1245.05 161.564C1244.11 157.359 1244.44 152.97 1246 148.952C1247.55 144.934 1250.26 141.468 1253.79 138.993C1257.32 136.517 1261.49 135.144 1265.8 135.046C1270.1 134.948 1274.34 136.13 1277.97 138.443C1281.61 140.756 1284.47 144.096 1286.2 148.039C1287.39 150.646 1288.04 153.465 1288.13 156.329C1288.21 159.193 1287.72 162.044 1286.68 164.716C1285.65 167.388 1284.09 169.827 1282.1 171.888C1280.11 173.949 1277.73 175.592 1275.1 176.719Z" fill="#432D21"/>
<path d="M1275.1 176.719C1280.37 174.383 1284.49 170.051 1286.58 164.675C1288.66 159.298 1288.52 153.315 1286.2 148.039C1285.16 145.584 1283.58 143.389 1281.6 141.61C1282.5 142.707 1271.85 144.705 1272.41 146.004C1274.71 150.651 1281.62 152.124 1282.49 158.256C1283.33 164.212 1280.93 169.59 1276.65 172.513C1272.37 175.435 1267.18 176.712 1262.03 176.108C1256.89 175.504 1252.13 173.06 1248.65 169.226C1251.52 173.331 1255.72 176.318 1260.54 177.683C1265.36 179.048 1270.5 178.707 1275.1 176.719Z" fill="#3E261A"/>
<path d="M1275.13 196.506C1269.98 198.564 1264.24 198.495 1259.15 196.314C1254.05 194.134 1250.04 190.02 1247.98 184.879C1245.92 179.737 1245.99 173.989 1248.17 168.898C1250.35 163.807 1254.47 159.791 1259.61 157.734C1262.15 156.715 1264.88 156.207 1267.62 156.24C1270.36 156.273 1273.07 156.846 1275.59 157.925C1278.11 159.005 1280.39 160.571 1282.31 162.533C1284.22 164.495 1285.73 166.815 1286.75 169.361C1288.81 174.503 1288.74 180.251 1286.56 185.342C1284.38 190.432 1280.27 194.448 1275.13 196.506Z" fill="#513729"/>
<path d="M1274.79 197.204C1277.38 196.203 1279.76 194.688 1281.76 192.749C1283.77 190.81 1285.36 188.487 1286.46 185.916C1287.55 183.346 1288.13 180.581 1288.14 177.785C1288.15 174.99 1287.61 172.22 1286.54 169.641C1285.62 167.16 1284.26 164.87 1282.52 162.883L1284.36 166.786C1286.37 172.009 1286.27 177.821 1284.07 182.973C1281.87 188.126 1277.76 192.21 1272.61 194.349C1268.64 195.999 1264.27 196.375 1260.08 195.426C1255.9 194.476 1252.11 192.248 1249.24 189.047C1251.89 193.182 1255.89 196.259 1260.55 197.748C1265.21 199.236 1270.25 199.044 1274.79 197.204Z" fill="#432D21"/>
<path d="M1283.84 140.79L1265.67 61.5743C1265.67 61.5743 1261.62 69.0265 1260.5 90.3067C1260.45 91.337 1264.03 93.4047 1264.03 93.4047C1264.03 93.4047 1260.29 95.7557 1260.27 96.9379C1260.15 102.696 1260.24 109.284 1260.64 116.788C1260.71 118.175 1265.81 120.09 1265.81 120.09C1265.81 120.09 1261.03 123.163 1261.11 124.248C1261.34 127.372 1261.62 130.636 1261.96 134.045L1283.84 140.79Z" fill="#50992D"/>
<path d="M1283.84 140.79L1265.67 61.5742C1265.67 61.5742 1274.74 68.005 1287.56 94.1025C1288.27 95.5488 1284.16 100.667 1284.16 100.667C1284.16 100.667 1291.29 102.037 1292.09 103.852C1294.83 110.043 1297.69 117.091 1300.64 125.104L1283.84 140.79Z" fill="#6ABF41"/>
<path d="M1280.21 141.44C1280.21 141.44 1312 126.845 1349.29 131.776C1349.86 131.852 1350.43 140.469 1350.43 140.469C1350.43 140.469 1353.4 132.19 1354.01 132.289C1361.59 133.517 1369.45 135.516 1377.42 138.53C1378.44 138.919 1377.08 147.574 1377.08 147.574C1377.08 147.574 1382.54 140.601 1383.56 141.053C1390.2 143.994 1396.89 147.675 1403.53 152.234C1404.42 152.841 1400.85 159.538 1400.85 159.538C1400.85 159.538 1408.42 155.745 1409.54 156.605C1425.12 168.627 1440.31 185.757 1453.92 209.811C1453.92 209.811 1375.84 155.255 1280.21 141.44Z" fill="#6ABF41"/>
<path d="M1280.29 141.453C1280.29 141.453 1287.84 151.88 1305.39 164.593C1306.41 165.333 1311.53 162.388 1311.53 162.388C1311.53 162.388 1310.65 168.27 1311.75 168.996C1316.94 172.427 1322.82 175.951 1329.46 179.423C1330.84 180.145 1336.91 176.609 1336.91 176.609C1336.91 176.609 1336.8 183.095 1338.4 183.845C1348.11 188.38 1359.19 192.711 1371.72 196.494C1372.93 196.859 1377.26 192.122 1377.26 192.122C1377.26 192.122 1378.15 198.352 1379.55 198.731C1387.63 200.914 1396.28 202.862 1405.52 204.496C1406.95 204.75 1410.13 199.868 1410.13 199.868C1410.13 199.868 1412.43 205.645 1413.74 205.842C1426.02 207.692 1439.27 208.987 1453.56 209.557C1453.56 209.557 1378.28 137.737 1280.29 141.453Z" fill="#50992D"/>
<path d="M1281.88 141.73C1281.88 141.73 1296.06 109.747 1327.28 88.7688C1327.76 88.4443 1333.89 94.5328 1333.89 94.5328C1333.89 94.5328 1330.64 86.3595 1331.16 86.0296C1337.66 81.9318 1344.87 78.2321 1352.84 75.2194C1353.87 74.8302 1358.57 82.2204 1358.57 82.2204C1358.57 82.2204 1358.05 73.3784 1359.12 73.0423C1366.04 70.8543 1373.49 69.1885 1381.49 68.2092C1382.55 68.0788 1384.31 75.4588 1384.31 75.4588C1384.31 75.4588 1387.48 67.6074 1388.88 67.5146C1408.52 66.2182 1431.24 69.0085 1457.36 78.0346C1457.36 78.0346 1362.72 88.8016 1281.88 141.73Z" fill="#6ABF41"/>
<path d="M1281.95 141.684C1281.95 141.684 1294.51 144.505 1316.08 142.424C1317.34 142.303 1319.23 136.704 1319.23 136.704C1319.23 136.704 1322.46 141.698 1323.77 141.516C1329.92 140.655 1336.67 139.4 1343.94 137.612C1345.46 137.241 1347.67 130.573 1347.67 130.573C1347.67 130.573 1351.88 135.511 1353.58 135.01C1363.86 131.983 1375.02 127.904 1386.92 122.446C1388.07 121.919 1388.19 115.501 1388.19 115.501C1388.19 115.501 1392.97 119.587 1394.27 118.943C1401.78 115.228 1409.55 110.966 1417.56 106.08C1418.8 105.322 1417.96 99.5542 1417.96 99.5542C1417.96 99.5542 1423.5 102.365 1424.61 101.65C1435.04 94.9109 1445.84 87.1095 1456.92 78.0847C1456.92 78.0847 1352.96 74.0522 1281.95 141.684Z" fill="#50992D"/>
<path d="M1202.17 306.701C1202.17 306.701 1190.11 273.862 1197.95 237.074C1198.07 236.505 1206.7 236.62 1206.7 236.62C1206.7 236.62 1198.68 233.009 1198.83 232.408C1200.65 224.944 1203.26 217.269 1206.89 209.562C1207.35 208.566 1215.88 210.603 1215.88 210.603C1215.88 210.603 1209.35 204.611 1209.88 203.63C1213.33 197.242 1217.53 190.863 1222.59 184.596C1223.27 183.762 1229.67 187.84 1229.67 187.84C1229.67 187.84 1226.48 180 1227.42 178.955C1240.63 164.366 1258.89 150.563 1283.94 138.876C1283.94 138.876 1223.44 212.444 1202.17 306.701Z" fill="#6ABF41"/>
<path d="M1202.19 306.618C1202.19 306.618 1213.18 299.909 1227.23 283.411C1228.04 282.451 1225.51 277.111 1225.51 277.111C1225.51 277.111 1231.31 278.451 1232.12 277.414C1235.94 272.511 1239.92 266.916 1243.9 260.573C1244.72 259.255 1241.68 252.927 1241.68 252.927C1241.68 252.927 1248.13 253.547 1249.01 252.004C1254.29 242.678 1259.47 231.98 1264.23 219.78C1264.69 218.602 1260.3 213.914 1260.3 213.914C1260.3 213.914 1266.58 213.52 1267.07 212.151C1269.88 204.261 1272.5 195.792 1274.85 186.713C1275.22 185.305 1270.6 181.748 1270.6 181.748C1270.6 181.748 1276.54 179.91 1276.84 178.625C1279.64 166.528 1281.97 153.414 1283.66 139.219C1283.66 139.219 1206.16 208.637 1202.19 306.618Z" fill="#50992D"/>
<path d="M1282.96 141.684C1282.96 141.684 1274.31 135.922 1257.45 131.249C1256.46 130.978 1253.42 134.65 1253.42 134.65C1253.42 134.65 1252.43 129.951 1251.39 129.711C1246.5 128.577 1241.05 127.571 1235.05 126.814C1233.8 126.657 1230.21 131.043 1230.21 131.043C1230.21 131.043 1228.46 126.103 1227.04 125.989C1218.41 125.295 1208.81 125.138 1198.26 125.809C1197.25 125.874 1195.3 130.679 1195.3 130.679C1195.3 130.679 1192.88 126.214 1191.71 126.323C1184.98 126.951 1177.88 127.914 1170.44 129.281C1169.28 129.493 1168.25 134.084 1168.25 134.084C1168.25 134.084 1164.88 130.361 1163.84 130.579C1154.03 132.64 1143.63 135.397 1132.66 138.992C1132.66 138.992 1209.86 172.116 1282.96 141.684Z" fill="#6ABF41"/>
<path d="M1283.02 141.67C1283.02 141.67 1263.08 161.675 1233.48 168.454C1233.02 168.559 1230.17 162.198 1230.17 162.198C1230.17 162.198 1230.25 169.299 1229.76 169.397C1223.68 170.605 1217.17 171.307 1210.29 171.272C1209.4 171.267 1208 164.335 1208 164.335C1208 164.335 1205.83 171.15 1204.93 171.096C1199.08 170.742 1192.98 169.842 1186.67 168.265C1185.83 168.055 1186.64 161.983 1186.64 161.983C1186.64 161.983 1181.98 166.986 1180.89 166.65C1165.72 161.945 1149.39 153.265 1132.31 138.902C1132.31 138.902 1206.77 158.173 1283.02 141.67Z" fill="#50992D"/>
<path d="M1266.31 653.799C1264.55 651.08 1262.93 648.558 1261.37 645.688C1258.42 640.189 1255.93 634.458 1253.92 628.551C1249.97 616.571 1248.3 603.957 1248.99 591.362C1249.5 584.984 1250.53 578.658 1252.07 572.449L1255.27 563.129C1256.41 559.867 1257.73 556.671 1259.22 553.553C1265.43 540.381 1272.37 526.954 1279.52 513.376C1286.66 499.798 1294.01 486.069 1300.85 472.096C1307.92 457.755 1313.94 442.922 1318.88 427.713C1324.16 412.178 1326.72 395.845 1326.43 379.438C1326.15 371.025 1324.64 362.698 1321.95 354.721C1319.3 346.848 1315.6 339.371 1310.94 332.494L1300.7 338.74C1307.57 351.114 1310.72 365.205 1309.78 379.325C1308.5 393.489 1304.78 407.324 1298.78 420.222C1292.7 433.731 1285.61 446.765 1277.58 459.214C1269.83 472.001 1261.24 484.497 1252.6 497.342C1243.95 510.186 1235.31 523.031 1227.08 536.816L1220.95 548.049C1219.2 551.891 1217.24 555.883 1215.78 560.12C1212.37 568.473 1209.89 577.178 1208.39 586.076C1205.25 604.005 1205.67 622.378 1209.63 640.145C1211.57 648.94 1214.26 657.55 1217.7 665.876C1227.08 676.325 1270.86 660.825 1266.31 653.799Z" fill="#AA7405"/>
<g style="mix-blend-mode:multiply" opacity="0.2">
<path d="M1258.07 662.325C1256.31 659.606 1254.04 655.34 1252.48 652.47C1249.53 646.972 1247.04 641.24 1245.03 635.333C1241.08 623.354 1239.41 610.74 1240.1 598.145C1240.61 591.766 1241.63 585.441 1243.18 579.232L1246.38 569.911C1247.52 566.65 1248.84 563.453 1250.33 560.336C1256.53 547.163 1263.48 533.736 1270.63 520.158C1277.77 506.58 1285.11 492.852 1291.96 478.879C1299.03 464.537 1305.05 449.704 1309.98 434.495C1315.27 418.96 1317.83 402.627 1317.54 386.22C1317.26 377.807 1315.75 369.481 1313.06 361.504C1310.41 353.631 1306.7 346.154 1302.04 339.276L1301.45 339.728L1300.55 338.543L1310.78 332.296C1315.44 339.173 1319.15 346.651 1321.8 354.523C1324.49 362.501 1326 370.827 1326.28 379.24C1326.57 395.647 1324.01 411.98 1318.72 427.515C1313.79 442.724 1307.77 457.557 1300.7 471.899C1293.85 485.872 1286.51 499.6 1279.37 513.178C1272.22 526.756 1265.27 540.183 1259.07 553.355C1257.58 556.473 1256.26 559.67 1255.12 562.931L1251.92 572.252C1250.38 578.461 1249.35 584.786 1248.84 591.164C1248.15 603.76 1249.82 616.374 1253.77 628.353C1255.78 634.26 1258.27 639.992 1261.22 645.49C1262.78 648.36 1264.39 650.882 1266.16 653.601C1266.16 653.601 1268.07 655.325 1263.57 658.825C1261.55 660.397 1258.07 662.325 1258.07 662.325Z" fill="#976706"/>
</g>
<path d="M1316.13 329.469C1316.13 329.469 1418.37 299.609 1436.02 396.488C1436.02 396.488 1365.88 407.796 1327.52 337.031C1327.52 337.031 1323.35 331.15 1307.01 339.236C1307.01 339.236 1302.63 332.263 1316.13 329.469Z" fill="#50992D"/>
<path d="M1316.13 329.469C1316.13 329.469 1418.37 299.609 1436.02 396.488C1436.02 396.488 1410.91 365.744 1384.8 349.335C1367.3 338.335 1348.8 325.136 1308.3 335.335C1308.3 335.335 1302.63 332.263 1316.13 329.469Z" fill="#6ABF41"/>
<path d="M1304.67 326.332C1304.67 326.332 1335.4 224.436 1426.02 262.517C1426.02 262.517 1410.3 327.835 1321.8 315.335C1321.8 315.335 1312.3 322.335 1307.3 336.335C1307.3 336.335 1299.41 339.099 1304.67 326.332Z" fill="#50992D"/>
<path d="M1303.8 328.335C1303.8 328.335 1335.4 224.436 1426.02 262.517C1388.8 261.335 1334.3 271.335 1305.8 330.335C1305.8 330.335 1298.54 341.102 1303.8 328.335Z" fill="#6ABF41"/>
<path d="M1290.82 340.958C1290.82 340.958 1197 391.278 1252.19 472.642C1252.19 472.642 1310.21 431.511 1288.15 354.251C1288.15 354.251 1287.15 347.201 1304.4 341.543C1304.4 341.543 1302.49 333.308 1290.82 340.958Z" fill="#50992D"/>
<path d="M1297 330.619C1297 330.619 1203.54 279.389 1165.46 370.013C1165.46 370.013 1231.64 396.115 1284.47 335.493C1284.47 335.493 1289.7 330.877 1303.96 342.193C1303.96 342.193 1309.72 336.231 1297 330.619Z" fill="#6ABF41"/>
<path d="M1273.51 236.322C1273.51 236.322 1338.61 288.876 1298.49 318.231C1298.49 318.231 1309.18 336.335 1307.76 338.981C1306.34 341.627 1300.27 340.633 1295.18 320.445C1295.18 320.445 1238.62 315.14 1273.51 236.322Z" fill="#6ABF41"/>
<path d="M1313.28 442.918L1292.23 433.348L1294.38 429.205L1315.09 438.728L1313.28 442.918Z" fill="#7A522D"/>
<path d="M1296.3 480.882L1272.43 467.208L1274.73 463.263L1298.1 476.692L1296.3 480.882Z" fill="#7A522D"/>
<path d="M1304.91 403.67L1306.02 399.386L1324.45 404.704L1323.49 409.185L1304.91 403.67Z" fill="#7A522D"/>
<path d="M1321.04 352.293L1307.3 355.586C1307.06 354.077 1306.67 352.597 1306.12 351.172L1319.46 348.18C1319.97 349.667 1320.68 351.004 1321.04 352.293Z" fill="#7A522D"/>
<path d="M1326.18 378.694L1309.67 377.537L1309.78 372.764L1325.89 374.223L1326.18 378.694Z" fill="#7A522D"/>
<path d="M1248.86 502.691L1251.32 498.943L1278.63 514.676L1276.33 518.621L1248.86 502.691Z" fill="#7A522D"/>
<path d="M1214.5 657.999L1212.97 653.538L1254.43 630.038C1254.89 631.517 1255.47 632.958 1256.16 634.348L1214.5 657.999Z" fill="#7A522D"/>
<path d="M1249.6 610.593L1206.38 619.494L1206.29 614.872L1249.16 605.924C1249.2 607.488 1249.35 609.048 1249.6 610.593Z" fill="#7A522D"/>
<path d="M1208.95 581.897L1210.11 577.265L1250.62 577.929L1249.82 582.608L1208.95 581.897Z" fill="#7A522D"/>
<path d="M1225.26 539.764L1226.92 536.619L1227.71 536.016L1261.62 548.911L1259.47 553.054L1225.26 539.764Z" fill="#7A522D"/>
<path d="M235.018 718.322C237.834 681.397 240.024 643.846 243.153 605.983C245.879 567.283 251.211 528.811 259.112 490.828C267.561 452.651 280.391 414.162 301.669 380.367C312.166 363.49 324.786 348.03 339.219 334.367C353.34 320.947 369.113 309.38 386.157 299.946L393.042 310.585C378.654 321.532 365.812 334.374 354.865 348.762C344.041 362.762 335.098 378.122 328.267 394.448C314.499 426.679 308.241 462.039 306.05 497.712C304.6 533.918 305.331 570.178 308.241 606.296C311.057 643.221 314.812 680.458 317.941 718.322C317.941 718.322 300.3 725.322 276.479 725.322C252.658 725.322 235.018 718.322 235.018 718.322Z" fill="#AA7405"/>
<path d="M386.157 299.946L381.151 303.075L385.844 310.585C371.529 321.615 358.698 334.446 347.668 348.762C336.844 362.762 327.901 378.122 321.07 394.448C307.302 426.679 301.356 462.039 299.166 497.712C297.402 533.914 298.134 570.195 301.356 606.296C303.86 643.221 305.424 683.458 308.24 721.322L317.941 718.322C314.812 680.458 311.057 643.221 308.24 606.296C305.331 570.178 304.6 533.918 306.05 497.712C308.241 462.039 314.499 426.679 328.267 394.448C335.098 378.122 344.041 362.762 354.865 348.762C365.812 334.374 378.654 321.532 393.041 310.585L386.157 299.946Z" fill="#9C6604"/>
<path d="M386.157 299.946C369.113 309.38 353.34 320.947 339.219 334.368C324.786 348.03 312.166 363.49 301.669 380.367C280.391 414.162 267.561 452.651 259.112 490.828C251.211 528.81 245.879 567.283 243.153 605.983C240.024 643.846 237.834 681.397 235.018 718.322L256.801 723.822C256.801 546.322 263.301 372.322 386.157 299.946Z" fill="#976706"/>
<path d="M379.274 316.218L437.164 255.198C437.164 255.198 417.45 257.076 373.016 293.375L379.274 316.218Z" fill="#6ABF41"/>
<path d="M212.801 253.634C224.92 268.869 239.392 282.073 255.671 292.749L269.752 273.035L264.119 297.756C276.852 305.203 290.537 310.887 304.799 314.653L317.316 285.552L318.254 317.783C339.142 321.811 360.617 321.705 381.464 317.47C313.873 204.818 212.801 253.634 212.801 253.634Z" fill="#50992D"/>
<path d="M269.752 161.322C269.752 161.322 266.623 182.601 282.582 214.832L284.459 213.893L313.561 207.322L288.214 225.471C295.708 238.15 304.518 250.002 314.5 260.831L340.785 248.002L322.948 269.906C340.754 287.744 360.364 303.684 381.464 317.47C381.464 317.47 395.546 199.812 269.752 161.322Z" fill="#6ABF41"/>
<path d="M378.801 316.028L436.378 255.322C436.378 255.322 435.752 275.036 401.957 321.348L378.801 316.028Z" fill="#50992D"/>
<path d="M450.619 479.25C434.77 467.978 420.825 454.245 409.313 438.57L428.401 423.237L403.994 430.434C395.808 418.031 389.384 404.551 384.906 390.38L413.381 376.612L381.151 377.238C376.046 356.672 374.983 335.311 378.021 314.34C494.114 375.673 450.619 479.25 450.619 479.25Z" fill="#50992D"/>
<path d="M539.8 417.604C539.8 417.604 518.835 421.985 485.665 407.591L486.604 405.713L491.611 376.299L474.713 402.584C461.74 395.666 449.478 387.491 438.102 378.176L449.367 350.952L428.401 370.04C409.735 353.258 392.852 334.592 378.021 314.34C378.021 314.34 494.74 294.001 539.8 417.604Z" fill="#6ABF41"/>
<path d="M99.7277 180.832L118.04 195.078C124.239 199.9 125.352 208.831 120.526 215.025L94.935 247.876C90.1095 254.07 81.1727 255.182 74.974 250.36L56.6617 236.114C50.4631 231.292 49.3499 222.361 54.1754 216.167L79.7667 183.316C84.5923 177.122 93.5291 176.01 99.7277 180.832Z" fill="#AA7405"/>
<g style="mix-blend-mode:multiply" opacity="0.2">
<path d="M99.8355 181.088L118.925 196.05C120.339 197.146 121.52 198.512 122.4 200.069C123.28 201.626 123.841 203.342 124.05 205.118C124.259 206.894 124.112 208.693 123.618 210.412C123.124 212.13 122.292 213.733 121.171 215.127L114.433 224.104C116.602 221.252 117.58 217.67 117.161 214.113C116.743 210.555 114.96 207.299 112.188 205.027L93.098 190.066C90.1529 187.961 86.5301 187.025 82.9333 187.44C79.3364 187.855 76.0222 189.59 73.6341 192.31L80.7459 183.707C82.965 180.879 86.1977 179.025 89.7603 178.536C93.3229 178.048 96.9361 178.963 99.8355 181.088Z" fill="#231005"/>
</g>
<path d="M60.9008 226.126L82.8827 233.561C90.3235 236.078 94.3138 244.146 91.7952 251.582L78.4384 291.015C75.9198 298.451 67.8461 302.438 60.4053 299.921L38.4234 292.486C30.9826 289.969 26.9923 281.901 29.5109 274.466L42.8677 235.032C45.3863 227.596 53.46 223.609 60.9008 226.126Z" fill="#AA7405"/>
<path d="M60.1584 225.974L83.3654 233.829C85.0689 234.372 86.6431 235.257 87.9912 236.431C89.3394 237.605 90.4328 239.042 91.2042 240.654C91.9756 242.265 92.4087 244.018 92.4768 245.803C92.5449 247.589 92.2465 249.369 91.6001 251.035L88.2314 261.509C89.3091 258.085 89.0137 254.377 87.4074 251.166C85.8012 247.956 83.0098 245.495 79.6223 244.302L56.7896 236.822C55.1226 236.176 53.3409 235.877 51.5542 235.945C49.7676 236.013 48.0138 236.446 46.4008 237.217C44.7878 237.988 43.3497 239.081 42.1753 240.428C41.0008 241.775 40.1147 243.348 39.5715 245.051L42.9403 234.577C44.1338 231.192 46.5966 228.403 49.809 226.798C53.0215 225.192 56.7323 224.897 60.1584 225.974Z" fill="#B78622"/>
<path d="M39.2794 277.367L68.0641 278.824C75.9096 279.221 81.9473 285.899 81.5499 293.739L79.0388 343.273C78.6414 351.113 71.9592 357.147 64.1138 356.75L35.3291 355.293C27.4836 354.896 21.4459 348.218 21.8433 340.378L24.3544 290.843C24.7518 283.003 31.4339 276.97 39.2794 277.367Z" fill="#AA7405"/>
<path d="M40.6833 276.845L67.6333 278.341C69.6339 278.435 71.5952 278.93 73.4012 279.795C75.2072 280.66 76.821 281.879 78.1473 283.379C79.4735 284.878 80.4852 286.629 81.1224 288.526C81.7596 290.423 82.0094 292.429 81.857 294.425L81.1084 306.768C81.3146 302.761 79.9408 298.832 77.2817 295.825C74.6225 292.818 70.8899 290.973 66.8847 290.684L39.9347 289.562C35.9481 289.449 32.0676 290.855 29.0792 293.494C26.0907 296.133 24.2177 299.809 23.8395 303.776L24.5881 291.433C24.684 289.418 25.1768 287.442 26.038 285.618C26.8993 283.794 28.1122 282.157 29.6072 280.802C31.1023 279.447 32.8502 278.4 34.7508 277.721C36.6514 277.042 38.6674 276.744 40.6833 276.845Z" fill="#B78622"/>
<path d="M32.9731 339.695L61.5065 335.087C69.2834 333.831 76.6068 339.113 77.8637 346.885L85.805 395.987C87.0618 403.759 81.7763 411.077 73.9993 412.333L45.4659 416.941C37.689 418.197 30.3656 412.915 29.1088 405.144L21.1675 356.041C19.9106 348.27 25.1962 340.951 32.9731 339.695Z" fill="#AA7405"/>
<path d="M33.6752 336.73L60.2509 332.242C62.2418 331.922 64.2763 331.997 66.2381 332.462C68.1999 332.928 70.0507 333.776 71.6845 334.957C73.3183 336.138 74.7032 337.63 75.7599 339.346C76.8167 341.062 77.5247 342.97 77.8433 344.959L79.7148 357.303C79.0687 353.359 76.9077 349.823 73.6918 347.448C70.4758 345.073 66.4591 344.045 62.4968 344.585L35.921 349.074C33.9453 349.347 32.0443 350.012 30.3294 351.03C28.6145 352.048 27.1205 353.398 25.9349 355.001C24.7494 356.604 23.8962 358.427 23.4257 360.364C22.9551 362.301 22.8765 364.312 23.1946 366.28L21.323 353.936C20.9488 351.991 20.9751 349.989 21.4004 348.053C21.8258 346.118 22.6413 344.29 23.7972 342.679C24.953 341.069 26.425 339.712 28.1233 338.689C29.8216 337.666 31.7107 337 33.6752 336.73Z" fill="#B78622"/>
<path d="M42.1303 393.336L77.1164 378.062C84.3149 374.919 92.6999 378.203 95.8448 385.397L120.795 442.466C123.94 449.66 120.654 458.039 113.456 461.182L78.4697 476.456C71.2712 479.599 62.8862 476.315 59.7413 469.122L34.7907 412.052C31.6458 404.858 34.9318 396.479 42.1303 393.336Z" fill="#AA7405"/>
<path d="M45.0287 390.734L73.476 378.391C77.7984 376.49 82.6961 376.366 87.1092 378.046C91.5223 379.726 95.0961 383.075 97.0573 387.368L102.672 400.833C101.773 398.688 100.458 396.742 98.8015 395.108C97.1451 393.474 95.1807 392.185 93.0222 391.316C90.8638 390.446 88.554 390.013 86.2269 390.041C83.8997 390.07 81.6013 390.56 79.4649 391.482L51.0176 404.2C48.8707 405.098 46.9234 406.412 45.2884 408.068C43.6535 409.723 42.3635 411.686 41.4932 413.843C40.6228 416 40.1894 418.308 40.218 420.633C40.2467 422.959 40.7368 425.256 41.66 427.391L36.0454 413.925C35.1109 411.813 34.6019 409.537 34.5477 407.229C34.4934 404.92 34.8949 402.623 35.7292 400.47C36.5634 398.316 37.814 396.348 39.4097 394.677C41.0053 393.007 42.9147 391.667 45.0287 390.734Z" fill="#B78622"/>
<path d="M67.8087 446.685L106.281 435.644C114.196 433.372 122.384 438.204 124.568 446.436L141.894 511.744C144.078 519.976 139.432 528.491 131.516 530.763L93.0443 541.804C85.1286 544.076 76.9411 539.244 74.7572 531.012L57.4304 465.704C55.2464 457.472 59.893 448.957 67.8087 446.685Z" fill="#AA7405"/>
<path d="M71.7679 445.425L103.12 436.654C107.836 435.326 113.705 435.078 117.978 437.544C122.251 440.009 124.591 444.994 126.003 449.859L129.785 465.162C128.456 460.304 125.369 456.171 121.172 453.63C116.975 451.088 111.994 450.337 107.275 451.533L75.5499 460.728C73.2051 461.41 71.0137 462.569 69.1029 464.138C67.1921 465.707 65.5998 467.655 64.4185 469.869C63.2372 472.083 62.4904 474.518 62.2213 477.035C61.9522 479.551 62.1662 482.098 62.851 484.528L58.6782 469.242C57.9973 466.784 57.7973 464.209 58.0902 461.67C58.3831 459.13 59.1629 456.677 60.3833 454.457C61.6038 452.236 63.2402 450.293 65.1957 448.741C67.1511 447.19 69.3859 446.062 71.7679 445.425Z" fill="#B78622"/>
<path d="M91.4959 501.954L129.459 497.899C141.587 496.604 152.469 505.379 153.765 517.498L160.976 584.929C162.272 597.048 153.491 607.922 141.364 609.217L103.401 613.272C91.273 614.567 80.3909 605.792 79.0948 593.673L71.8836 526.242C70.5875 514.123 79.3682 503.249 91.4959 501.954Z" fill="#AA7405"/>
<path d="M90.8517 501.646L129.405 497.532C132.259 497.221 135.146 497.479 137.899 498.291C140.652 499.103 143.217 500.453 145.445 502.261C147.673 504.07 149.519 506.303 150.878 508.829C152.237 511.356 153.081 514.127 153.361 516.982L155.232 534.936C154.952 532.081 154.108 529.31 152.75 526.784C151.391 524.257 149.544 522.024 147.316 520.216C145.088 518.407 142.524 517.057 139.771 516.245C137.017 515.434 134.13 515.175 131.277 515.486L92.7233 519.6C87.0206 520.258 81.8107 523.146 78.2332 527.632C74.6557 532.118 73.002 537.838 73.6336 543.539L71.3878 525.585C71.0771 522.733 71.3355 519.849 72.1479 517.097C72.9603 514.346 74.3107 511.783 76.1208 509.557C77.9309 507.331 80.1649 505.485 82.6934 504.127C85.222 502.769 87.9949 501.926 90.8517 501.646Z" fill="#B78622"/>
<path d="M99.0347 573.65H143.479C157.169 573.65 168.266 584.843 168.266 598.649L193.41 702.651C184.664 744.741 74.2482 741.461 57.8497 710.304L74.2482 598.649C74.2482 584.843 85.3455 573.65 99.0347 573.65Z" fill="#AA7405"/>
<path d="M99.323 573.65H143.852C150.543 573.649 156.966 576.282 161.737 580.982C166.509 585.682 169.246 592.071 169.359 598.774L173.186 619.566C173.072 612.863 166.509 606.474 161.737 601.774C156.966 597.075 150.543 594.441 143.852 594.442H99.323C92.6728 594.442 86.2949 597.089 81.5925 601.801C76.8901 606.512 70.9686 615.089 70.9686 621.752L74.2483 598.774C74.2483 592.111 76.8901 585.721 81.5925 581.009C86.2949 576.297 92.6728 573.65 99.323 573.65Z" fill="#B78622"/>
<path d="M53.7954 165.379C49.2167 169.157 45.8655 174.211 44.1677 179.897C42.4699 185.583 42.5021 191.645 44.2604 197.313C46.0186 202.981 49.4233 207.998 54.042 211.728C58.6606 215.457 64.2846 217.73 70.1991 218.258C76.1136 218.785 82.0515 217.544 87.2583 214.691C92.465 211.839 96.7055 207.503 99.4407 202.236C102.176 196.969 103.282 191.009 102.619 185.112C101.957 179.215 99.5542 173.649 95.7177 169.119C93.2258 166.101 90.1589 163.608 86.6949 161.784C83.2309 159.96 79.4389 158.841 75.5389 158.493C71.6389 158.145 67.7086 158.575 63.9761 159.757C60.2435 160.939 56.783 162.85 53.7954 165.379Z" fill="#513729"/>
<g style="mix-blend-mode:multiply" opacity="0.2">
<path d="M53.7964 165.379C56.784 162.85 60.2444 160.939 63.977 159.757C67.7096 158.575 71.6399 158.145 75.5399 158.493C79.4399 158.841 83.2319 159.96 86.6959 161.784C90.1598 163.608 93.2267 166.101 95.7187 169.119C97.9594 171.933 99.7291 175.091 100.959 178.471C100.084 176.804 98.9464 175.288 97.5902 173.982C95.0983 170.964 92.0314 168.47 88.5674 166.646C85.1034 164.822 81.3114 163.704 77.4114 163.356C73.5114 163.008 69.5811 163.437 65.8485 164.619C62.116 165.801 58.6555 167.712 55.6679 170.242C51.1494 174.193 47.8899 179.382 46.2932 185.166C44.6964 190.951 44.8325 197.076 46.6846 202.784C43.341 196.693 42.222 189.63 43.5196 182.805C44.8172 175.98 48.4505 169.82 53.7964 165.379Z" fill="#231005"/>
</g>
<path d="M120.62 198.877C125.579 198.734 130.382 197.123 134.423 194.247C138.463 191.371 141.559 187.36 143.318 182.723C145.078 178.085 145.421 173.028 144.306 168.193C143.19 163.358 140.665 158.962 137.051 155.561C133.437 152.159 128.896 149.907 124.003 149.087C119.109 148.268 114.084 148.918 109.563 150.957C105.041 152.995 101.227 156.33 98.6035 160.539C95.9796 164.748 94.6637 169.641 94.8224 174.6C94.8861 177.899 95.6083 181.152 96.9466 184.169C98.2849 187.186 100.212 189.905 102.616 192.166C105.019 194.428 107.85 196.187 110.942 197.339C114.034 198.492 117.324 199.015 120.62 198.877Z" fill="#432D21"/>
<path d="M120.621 198.878C113.986 199.07 107.543 196.622 102.707 192.07C97.871 187.519 95.0358 181.237 94.8234 174.601C94.6904 171.53 95.233 168.468 96.4128 165.631C96.0259 167.217 108.082 163.999 108.138 165.631C108.064 171.601 101.621 176.564 103.766 183.368C105.848 189.977 111.018 194.37 116.918 195.279C122.818 196.187 128.847 194.933 133.893 191.748C138.939 188.562 142.663 183.659 144.379 177.943C143.435 183.635 140.556 188.827 136.228 192.641C131.899 196.455 126.387 198.658 120.621 198.878Z" fill="#3E261A"/>
<path d="M130.429 219.45C136.794 219.032 142.732 216.102 146.937 211.306C151.142 206.51 153.27 200.239 152.852 193.874C152.434 187.509 149.504 181.571 144.708 177.366C139.911 173.161 133.641 171.033 127.276 171.451C124.124 171.658 121.044 172.484 118.212 173.882C115.379 175.279 112.85 177.221 110.767 179.596C108.685 181.97 107.091 184.732 106.077 187.723C105.062 190.714 104.646 193.876 104.853 197.027C105.271 203.392 108.201 209.331 112.997 213.536C117.794 217.741 124.064 219.868 130.429 219.45Z" fill="#513729"/>
<path d="M131.126 220.007C127.93 220.258 124.714 219.863 121.667 218.845C118.621 217.828 115.806 216.208 113.389 214.082C110.973 211.956 109.004 209.368 107.6 206.47C106.196 203.572 105.384 200.424 105.214 197.212C104.934 194.178 105.21 191.122 106.029 188.193L106.063 193.16C106.567 199.589 109.562 205.576 114.406 209.837C119.25 214.099 125.557 216.295 131.975 215.956C136.913 215.699 141.645 213.916 145.519 210.85C149.393 207.784 152.22 203.587 153.612 198.833C152.917 204.446 150.291 209.631 146.187 213.495C142.083 217.36 136.757 219.663 131.126 220.007Z" fill="#432D21"/>
<path d="M110.534 165.542L204.908 38.3223C204.908 38.3223 206.304 54.7897 191.662 93.6558C190.954 95.5374 182.947 96.4306 182.947 96.4306C182.947 96.4306 187.784 103.551 186.901 105.68C182.605 116.051 177.29 127.739 170.718 140.828C169.504 143.247 158.898 142.678 158.898 142.678C158.898 142.678 165.032 151.902 164.04 153.777C161.187 159.173 158.135 164.781 154.871 170.606L110.534 165.542Z" fill="#50992D"/>
<path d="M110.535 165.542L204.908 38.3223C204.908 38.3223 183.683 42.7105 140.4 79.2833C138.001 81.3101 141.324 93.6558 141.324 93.6558C141.324 93.6558 127.527 90.5285 124.675 93.142C114.949 102.055 104.327 112.399 92.8004 124.402L110.535 165.542Z" fill="#6ABF41"/>
<path d="M112.67 160.485C112.67 160.485 85.8687 130.396 44.2478 118.371C43.604 118.185 39.0308 127.016 39.0308 127.016C39.0308 127.016 39.7207 116.908 39.0308 116.731C30.4623 114.522 21.2503 113.002 11.4509 112.501C10.1853 112.436 7.62464 122.197 7.62464 122.197C7.62464 122.197 5.08308 112.317 3.79834 112.322C-4.56511 112.358 -13.3216 113.152 -22.4392 114.892C-23.6525 115.124 -22.9858 123.837 -22.9858 123.837C-22.9858 123.837 -29.2161 116.338 -30.7901 116.731C-52.7816 122.216 -76.7244 133.272 -102.2 152.361C-102.2 152.361 5.38728 130.875 112.67 160.485Z" fill="#6ABF41"/>
<path d="M112.574 160.46C112.574 160.46 99.7924 167.973 75.4044 173.279C73.986 173.587 69.9383 168.112 69.9383 168.112C69.9383 168.112 68.1514 174.726 66.6586 174.985C59.6004 176.208 51.7586 177.205 43.1542 177.802C41.365 177.927 36.5948 171.392 36.5948 171.392C36.5948 171.392 33.7162 178.287 31.6753 178.337C19.3337 178.634 5.65178 178.089 -9.32084 176.289C-10.7665 176.115 -13.1471 169.116 -13.1471 169.116C-13.1471 169.116 -16.9588 175.28 -18.6133 175.032C-28.1531 173.599 -38.1782 171.659 -48.6771 169.116C-50.3056 168.722 -51.4102 162.1 -51.4102 162.1C-51.4102 162.1 -56.5032 167.133 -57.9695 166.738C-71.7811 163.017 -86.3657 158.259 -101.699 152.261C-101.699 152.261 1.2998 129.419 112.574 160.46Z" fill="#50992D"/>
<path d="M110.518 159.602C110.518 159.602 110.335 119.308 87.0889 82.75C86.7293 82.1844 77.4563 85.7794 77.4563 85.7794C77.4563 85.7794 84.6623 78.658 84.2627 78.0681C79.3 70.7424 73.3996 63.5065 66.3843 56.6462C65.4782 55.7601 57.0994 61.3833 57.0994 61.3833C57.0994 61.3833 61.7321 52.2941 60.7652 51.4481C54.471 45.9406 47.3807 40.7412 39.3937 36.0121C38.3308 35.3828 33.0648 42.3564 33.0648 42.3564C33.0648 42.3564 33.356 32.6116 31.9161 31.8643C11.7982 21.4244 -13.468 13.8686 -45.1998 11.3223C-45.1998 11.3223 39.3937 78.0681 110.518 159.602Z" fill="#6ABF41"/>
<path d="M110.463 159.521C110.463 159.521 95.9083 156.695 74.1129 144.534C72.8452 143.827 73.4335 137.044 73.4335 137.044C73.4335 137.044 67.7171 140.82 66.4268 140.026C60.3257 136.272 53.7867 131.831 46.9403 126.585C45.5168 125.494 46.2646 117.438 46.2646 117.438C46.2646 117.438 39.5435 120.703 37.9808 119.389C28.5311 111.445 18.6343 101.982 8.60002 90.7246C7.6312 89.6376 10.4779 82.8149 10.4779 82.8149C10.4779 82.8149 3.54098 84.9141 2.46501 83.6329C-3.73914 76.2459 -9.97153 68.1574 -16.1599 59.3031C-17.1197 57.9297 -13.5658 52.234 -13.5658 52.234C-13.5658 52.234 -20.7153 52.6378 -21.5533 51.3712C-29.4457 39.4416 -37.2312 26.2228 -44.7575 11.5791C-44.7575 11.5791 54.0513 90.7246 110.463 159.521Z" fill="#50992D"/>
<path d="M177.904 362.597C177.904 362.597 196.269 326.731 192.435 283.577C192.375 282.91 182.488 281.839 182.488 281.839C182.488 281.839 192.161 278.828 192.078 278.12C191.039 269.333 189.126 260.194 186.051 250.877C185.653 249.673 175.627 250.814 175.627 250.814C175.627 250.814 183.92 244.873 183.451 243.677C180.394 235.892 176.488 228.015 171.57 220.143C170.915 219.096 163.033 222.867 163.033 222.867C163.033 222.867 167.772 214.347 166.837 213.022C153.772 194.501 134.809 176.174 107.801 159.322C107.801 159.322 166.727 251.866 177.904 362.597Z" fill="#6ABF41"/>
<path d="M177.893 362.498C177.893 362.498 166.268 353.297 152.504 332.477C151.704 331.266 155.345 325.512 155.345 325.512C155.345 325.512 148.533 326.237 147.752 324.939C144.06 318.8 140.295 311.849 136.628 304.043C135.865 302.42 140.233 295.61 140.233 295.61C140.233 295.61 132.764 295.419 131.98 293.533C127.241 282.134 122.803 269.18 119.069 254.57C118.708 253.159 124.373 248.409 124.373 248.409C124.373 248.409 117.248 247.084 116.881 245.451C114.768 236.039 112.953 225.99 111.529 215.282C111.308 213.621 117.082 210.197 117.082 210.197C117.082 210.197 110.548 207.269 110.386 205.759C108.863 191.536 108.027 176.217 108.076 159.753C108.076 159.753 164.886 245.451 177.893 362.498Z" fill="#50992D"/>
<path d="M327.548 120.873C327.548 120.873 313.193 114.926 287.112 112.951C285.595 112.836 282.187 119.105 282.187 119.105C282.187 119.105 279.374 112.499 277.787 112.447C270.284 112.2 262.001 112.301 252.983 112.927C251.109 113.057 247.104 120.53 247.104 120.53C247.104 120.53 243.117 113.79 240.992 114.035C228.139 115.513 214.017 118.061 198.738 122.097C197.262 122.487 195.805 130.096 195.805 130.096C195.805 130.096 190.956 124.25 189.275 124.748C179.581 127.616 169.456 131.082 158.927 135.242C157.294 135.887 157.107 142.92 157.107 142.92C157.107 142.92 151.092 138.433 149.627 139.056C135.83 144.918 121.382 151.969 106.336 160.416C106.336 160.416 229.147 186.659 327.548 120.873Z" fill="#6ABF41"/>
<path d="M327.643 120.833C327.643 120.833 304.183 155.945 262.725 174.454C262.084 174.74 256.058 166.236 256.058 166.236C256.058 166.236 258.238 176.627 257.548 176.912C248.974 180.445 239.633 183.357 229.535 185.296C228.23 185.547 224.159 175.787 224.159 175.787C224.159 175.787 222.952 186.41 221.618 186.59C212.932 187.764 203.728 188.208 194.013 187.723C192.72 187.658 192.15 178.518 192.15 178.518C192.15 178.518 186.769 187.203 185.079 187.024C161.459 184.515 135.007 176.508 105.801 160.384C105.801 160.384 220.58 167.103 327.643 120.833Z" fill="#50992D"/>
<path d="M170.038 744.751C168.78 738.904 170.834 698.694 219.074 688.313L228.511 732.168C191.207 708.076 172.869 757.907 170.038 744.751Z" fill="#C9547C"/>
<path d="M249.209 748.875C261.056 684.927 223.64 434.699 167.009 399.922C131.381 378.043 175.245 463.85 204.077 775.337C206.779 804.525 243.957 777.225 249.209 748.875Z" fill="#50992D"/>
<path d="M255.13 741.002C266.977 677.054 232.884 447.278 179.809 407.287C131.838 371.141 182.991 462.147 211.823 773.634C214.525 802.822 249.879 769.352 255.13 741.002Z" fill="#6ABF41"/>
<path d="M245.063 764.072C245.063 764.072 246.738 657.149 235.752 600.52C220.645 522.652 213.459 491.953 196.399 448.401C186.015 424.614 169.145 398.38 166.449 399.81C164.33 400.934 181.519 448.086 189.288 473.343C209.881 540.295 218.096 581.393 223.925 621.985C230.814 669.957 233.867 777.585 233.867 777.585C233.867 777.585 238.337 774.312 240.564 771.605C242.741 768.959 245.063 764.072 245.063 764.072Z" fill="#F2709C"/>
</g>
<defs>
<linearGradient id="paint0_linear_4729_2456" x1="58575.7" y1="346.255" x2="58575.7" y2="30108.3" gradientUnits="userSpaceOnUse">
<stop stop-color="#6E84F2"/>
<stop offset="1" stop-color="#292F51"/>
</linearGradient>
<linearGradient id="paint1_linear_4729_2456" x1="58575.7" y1="366.348" x2="58575.7" y2="30128.4" gradientUnits="userSpaceOnUse">
<stop stop-color="#6E84F2"/>
<stop offset="1" stop-color="#292F51"/>
</linearGradient>
<linearGradient id="paint2_linear_4729_2456" x1="58575.7" y1="386.44" x2="58575.7" y2="30148.5" gradientUnits="userSpaceOnUse">
<stop stop-color="#6E84F2"/>
<stop offset="1" stop-color="#292F51"/>
</linearGradient>
<linearGradient id="paint3_linear_4729_2456" x1="58575.7" y1="406.532" x2="58575.7" y2="30168.6" gradientUnits="userSpaceOnUse">
<stop stop-color="#6E84F2"/>
<stop offset="1" stop-color="#292F51"/>
</linearGradient>
<linearGradient id="paint4_linear_4729_2456" x1="58575.7" y1="426.624" x2="58575.7" y2="30188.7" gradientUnits="userSpaceOnUse">
<stop stop-color="#6E84F2"/>
<stop offset="1" stop-color="#292F51"/>
</linearGradient>
<linearGradient id="paint5_linear_4729_2456" x1="-57136.1" y1="346.255" x2="-57136.1" y2="30108.3" gradientUnits="userSpaceOnUse">
<stop stop-color="#6E84F2"/>
<stop offset="1" stop-color="#292F51"/>
</linearGradient>
<linearGradient id="paint6_linear_4729_2456" x1="-57136.1" y1="366.348" x2="-57136.1" y2="30128.4" gradientUnits="userSpaceOnUse">
<stop stop-color="#6E84F2"/>
<stop offset="1" stop-color="#292F51"/>
</linearGradient>
<linearGradient id="paint7_linear_4729_2456" x1="-57136.1" y1="386.44" x2="-57136.1" y2="30148.5" gradientUnits="userSpaceOnUse">
<stop stop-color="#6E84F2"/>
<stop offset="1" stop-color="#292F51"/>
</linearGradient>
<linearGradient id="paint8_linear_4729_2456" x1="-57136.1" y1="406.532" x2="-57136.1" y2="30168.6" gradientUnits="userSpaceOnUse">
<stop stop-color="#6E84F2"/>
<stop offset="1" stop-color="#292F51"/>
</linearGradient>
<linearGradient id="paint9_linear_4729_2456" x1="-57136.1" y1="426.624" x2="-57136.1" y2="30188.7" gradientUnits="userSpaceOnUse">
<stop stop-color="#6E84F2"/>
<stop offset="1" stop-color="#292F51"/>
</linearGradient>
<clipPath id="clip0_4729_2456">
<rect width="1440" height="789" fill="white"/>
</clipPath>
<clipPath id="clip1_4729_2456">
<rect width="720" height="138.134" fill="white" transform="translate(-0.199219 346.255)"/>
</clipPath>
<clipPath id="clip2_4729_2456">
<rect width="720" height="138.134" fill="white" transform="matrix(-1 0 0 1 1439.8 346.255)"/>
</clipPath>
</defs>
</svg>
