<svg width="209" height="139" viewBox="0 0 209 139" fill="none" xmlns="http://www.w3.org/2000/svg">
<path d="M131.558 84.3918L131.565 84.3899L131.572 84.3878C133.904 83.7055 135.634 83.7556 137.612 84.22C138.626 84.4582 139.708 84.8061 140.989 85.2365C141.228 85.3168 141.474 85.4003 141.726 85.4855C142.818 85.855 144.044 86.2696 145.441 86.7003C151.092 88.4416 157.649 87.9837 163.499 86.7612C169.365 85.5354 174.634 83.5158 177.773 82.0198C190.078 76.1573 195.981 67.976 198.559 60.5511C201.118 53.1759 200.381 46.5875 199.465 43.8554C198.661 41.4559 195.425 35.5152 188.458 32.3401C181.429 29.1371 170.856 28.8612 155.636 37.3597C153.928 38.3139 150.779 40.5128 147.675 42.9415C144.578 45.3642 141.415 48.1005 139.725 50.1438C139.228 50.7454 138.756 51.3019 138.289 51.8532C135.722 54.8825 133.287 57.7565 127.403 67.1129C125.42 70.2663 122.271 72.8936 118.546 75.0792C114.826 77.2613 110.589 78.9699 106.498 80.3112C102.411 81.6514 98.4967 82.6165 95.4301 83.3212C94.645 83.5016 93.881 83.6726 93.1901 83.8272C92.5725 83.9655 92.0134 84.0906 91.5497 84.1977C90.5724 84.4235 89.743 84.6286 89.3077 84.8236C89.1198 84.9076 88.9022 85.0007 88.6617 85.1035C87.3576 85.6605 85.384 86.5039 83.8824 87.7622C82.9721 88.5255 82.1606 89.4964 81.7636 90.7262C81.3595 91.9774 81.4183 93.3885 82.064 94.9482C84.6032 101.089 90.8613 101.837 94.9734 101.289C96.7572 101.053 98.6259 99.9946 100.838 98.5384C101.752 97.9376 102.714 97.275 103.772 96.5469C105.396 95.4282 107.247 94.1544 109.493 92.7085C116.307 88.3222 122.841 86.647 128.375 85.2284C129.478 84.9459 130.54 84.6733 131.558 84.3918Z" fill="#F2709C" stroke="#EDE8E3" stroke-width="2"/>
<path d="M168.493 84.4609C172.112 83.3818 175.228 82.1258 177.342 81.1176C179.994 79.8547 182.339 78.4839 184.41 77.038C181.615 76.9502 176.609 76.4315 173.996 73.961C171.964 72.0493 174.377 68.867 177.177 65.1766C180.471 60.8337 184.299 55.7864 182.05 51.2749C179.568 46.542 173.642 48.1081 168.461 49.4774C164.07 50.6381 160.212 51.6567 159.444 48.5781C159.063 47.1477 160.521 45.1238 161.824 43.3165C162.514 42.3576 163.161 41.4597 163.467 40.7433C164.261 38.6783 163.054 36.232 162.381 35.1091C160.395 35.9778 158.31 37.0129 156.123 38.2333C154.043 39.3955 149.608 42.5645 145.821 45.7231C147.447 46.3627 150.732 47.9168 150.927 49.0654C151.383 51.38 150.108 53.495 148.919 55.4677C147.638 57.5914 146.456 59.5507 147.639 61.4182C150.597 66.0188 156.436 64.0037 161.415 62.286C165.015 61.0438 168.165 59.9567 169.451 61.637C171.044 63.6999 168.851 66.2878 166.457 69.1145C163.659 72.4174 160.585 76.0459 162.954 79.542C164.702 82.0594 167.221 83.7256 168.493 84.4609Z" fill="#DDE337"/>
<path d="M95.0685 55.4087L95.0675 55.4091C86.2139 60.0297 80.7692 60.7288 76.0966 60.8764C75.3767 60.8992 74.6827 60.9093 74.0037 60.9193C70.3293 60.9733 67.0876 61.021 62.488 63.0149C54.7257 66.3721 50.7943 69.3955 47.1201 73.1367C45.7945 74.4865 44.5094 75.9218 43.0822 77.5166C42.5006 78.1662 41.8954 78.8423 41.2537 79.5501C39.0499 81.9817 36.4591 84.7392 33.0392 87.9482C31.398 89.5131 29.1465 90.4721 26.8589 90.7485C24.5703 91.0252 22.1576 90.6284 20.2096 89.364C16.9668 87.2823 16.1398 83.9526 16.8839 80.7385C17.6164 77.5757 19.8623 74.4611 22.859 72.431L22.8598 72.4305C26.308 70.0985 29.5716 68.2522 32.591 66.5857C33.0065 66.3564 33.416 66.1312 33.8211 65.9085C36.3733 64.5051 38.7202 63.2145 40.878 61.8167C45.8273 58.6108 49.7058 54.8885 52.3074 48.1822C56.4624 37.4814 63.1256 25.4844 71.1193 18.4043L71.1201 18.4036C77.2902 12.9502 83.9648 9.41384 90.2067 8.42083C96.4836 7.42225 102.338 9.00331 106.654 13.7893L106.655 13.7904C112.315 20.0864 114.924 27.6568 113.279 35.1476C111.635 42.6314 105.797 49.7948 95.0685 55.4087Z" fill="#F2709C" stroke="#EDE8E3" stroke-width="2" stroke-miterlimit="10"/>
<path fill-rule="evenodd" clip-rule="evenodd" d="M103.982 48.1797C101.451 50.4354 98.3397 52.5688 94.6049 54.523C94.3344 54.6641 94.0674 54.8014 93.8035 54.9352C91.0193 55.058 86.2093 54.4718 84.954 52.9222C83.8699 51.5993 84.5487 50.3411 85.296 48.9558C86.1088 47.4492 87.0028 45.7922 85.7979 43.7381C84.7067 41.8772 83.2256 42.2785 81.6203 42.7135C79.8242 43.2001 77.8725 43.7287 76.1376 41.1777C74.422 38.6552 75.4959 37.0944 76.5421 35.574C77.4995 34.1825 78.4338 32.8248 77.1857 30.7943C76.3557 29.481 74.6161 29.2893 72.6976 29.0778C70.177 28.7999 67.3476 28.4881 65.8659 25.5544C67.7372 23.1537 69.7169 20.9826 71.7824 19.1532C72.9558 18.1161 74.1453 17.1517 75.3442 16.2637C75.3335 16.4061 75.3212 16.5614 75.308 16.7274C75.164 18.5337 74.9197 21.5988 75.7972 22.7839C76.7678 24.0951 78.788 23.4425 81.0038 22.7268C83.7283 21.8467 86.7485 20.8713 88.4773 23.3329C89.936 25.4169 88.8126 27.3134 87.6967 29.1973C86.5635 31.1103 85.438 33.0103 87.0318 35.0805C88.056 36.4148 89.5644 36.3984 91.0649 36.3822C92.5736 36.366 94.0743 36.3497 95.0667 37.7066C96.173 39.265 95.3725 41.0318 94.5904 42.758C93.7714 44.5654 92.9728 46.3282 94.4051 47.7599C95.8904 49.2131 98.313 48.016 100.398 46.9859C102.39 46.0014 104.074 45.1694 104.336 46.9488C104.381 47.3085 104.248 47.7268 103.982 48.1797Z" fill="#DDE337"/>
</svg>
