<svg width="158" height="138" viewBox="0 0 158 138" fill="none" xmlns="http://www.w3.org/2000/svg">
<path d="M107.241 75.484L107.246 75.4788L107.251 75.4735C108.926 73.7128 110.447 72.8882 112.391 72.2971C113.388 71.994 114.498 71.7522 115.822 71.4816C116.069 71.4311 116.324 71.3797 116.585 71.3268C117.715 71.0983 118.983 70.8419 120.408 70.513C126.169 69.1835 131.611 65.4965 136.057 61.5034C140.516 57.4989 144.06 53.1076 146.024 50.2385C153.725 38.9922 154.725 28.9533 153.228 21.2376C151.74 13.5742 147.796 8.24546 145.633 6.3418C143.733 4.67016 137.953 1.15555 130.333 1.90601C122.646 2.66319 113.363 7.73042 104.463 22.72C103.465 24.4022 101.845 27.8845 100.379 31.543C98.9161 35.1928 97.5532 39.1472 97.1174 41.7624C96.989 42.5324 96.8605 43.2504 96.7331 43.9617C96.0332 47.8701 95.3693 51.578 94.9756 62.6238C94.843 66.3465 93.4381 70.1993 91.3127 73.9593C89.1906 77.7135 86.3827 81.3181 83.5177 84.5312C80.6552 87.7415 77.7539 90.5408 75.4552 92.6893C74.8666 93.2394 74.2916 93.7707 73.7716 94.2512C73.3068 94.6807 72.886 95.0695 72.5387 95.3949C71.8067 96.0807 71.1923 96.6743 70.9136 97.0614C70.7933 97.2284 70.6517 97.4181 70.4953 97.6277C69.6469 98.764 68.3631 100.484 67.6958 102.326C67.2915 103.443 67.0769 104.69 67.3507 105.953C67.6291 107.238 68.3882 108.429 69.7294 109.454C75.0075 113.491 80.7956 110.997 84.0778 108.46C85.5018 107.36 86.5872 105.507 87.7701 103.137C88.2586 102.159 88.7583 101.103 89.3076 99.9425C90.1516 98.1594 91.1126 96.1291 92.3298 93.7512C96.0225 86.5374 100.833 81.8094 104.908 77.8048C105.72 77.0071 106.502 76.2382 107.241 75.484Z" fill="#F2709C" stroke="#EDE8E3" stroke-width="2"/>
<path d="M139.223 57.0065C141.811 54.2572 143.876 51.607 145.199 49.6737C146.859 47.2504 148.199 44.8881 149.265 42.5979C146.803 43.9249 142.213 45.9885 138.713 45.163C135.996 44.5293 136.486 40.5658 137.056 35.9684C137.725 30.5592 138.503 24.2724 134.294 21.4987C129.772 18.6505 125.432 22.9794 121.638 26.7639C118.422 29.9719 115.597 32.7887 113.387 30.5116C112.34 29.4654 112.585 26.9833 112.805 24.7662C112.921 23.5903 113.03 22.4889 112.935 21.7158C112.585 19.5314 110.314 18.0208 109.168 17.3875C107.886 19.1358 106.602 21.0775 105.323 23.2306C104.107 25.2798 101.862 30.2462 100.171 34.8792C101.899 34.616 105.52 34.3118 106.265 35.2074C107.821 36.9806 107.78 39.4496 107.741 41.753C107.699 44.2327 107.66 46.5205 109.621 47.5418C114.488 50.0368 118.527 45.3635 121.972 41.3787C124.462 38.4977 126.641 35.9766 128.597 36.7843C131.01 37.7692 130.412 41.1082 129.76 44.7546C128.997 49.0159 128.159 53.6972 131.963 55.532C134.738 56.8323 137.753 57.0093 139.223 57.0065Z" fill="#DDE337"/>
<path d="M47.3908 52.5892L47.3909 52.5903C48.8171 62.4747 47.6727 67.8435 46.2639 72.3011C46.0468 72.9879 45.8265 73.646 45.6109 74.29C44.4445 77.7747 43.4154 80.8491 43.7727 85.8495L43.7727 85.8503C44.3685 94.2865 45.9185 98.9968 48.2311 103.703C49.0654 105.401 49.9939 107.089 51.0257 108.964C51.4459 109.728 51.8833 110.523 52.3385 111.363C53.9026 114.248 55.646 117.606 57.5406 121.896C58.4734 123.963 58.6322 126.405 58.1351 128.655C57.6379 130.906 56.4641 133.051 54.6257 134.47C51.5872 136.84 48.1715 136.517 45.3855 134.75C42.6441 133.011 40.4495 129.86 39.5269 126.36L39.5267 126.359C38.4689 122.333 37.8082 118.642 37.2362 115.241C37.1576 114.773 37.0807 114.312 37.0048 113.856C36.5263 110.983 36.0862 108.341 35.4823 105.842C34.0973 100.11 31.8703 95.2173 26.4047 90.5407L26.4045 90.5405C17.6848 83.0748 8.5733 72.8132 4.54162 62.9252L4.54122 62.9242C1.44018 55.2958 0.314991 47.8265 1.44614 41.6082C2.58364 35.355 6.01514 30.355 11.9608 27.8685L11.9622 27.8679C19.7777 24.6139 27.7851 24.6601 34.3077 28.6944C40.8241 32.725 45.6488 40.6063 47.3908 52.5892Z" fill="#F2709C" stroke="#EDE8E3" stroke-width="2" stroke-miterlimit="10"/>
<path fill-rule="evenodd" clip-rule="evenodd" d="M43.523 41.7839C44.8128 44.9191 45.7948 48.5615 46.4012 52.7329C46.4447 53.0348 46.4858 53.3323 46.5246 53.6256C45.718 56.2932 43.5712 60.6373 41.6933 61.3083C40.0859 61.8928 39.1237 60.8355 38.0642 59.6714C36.912 58.4054 35.6448 57.0129 33.3075 57.4691C31.1902 57.8822 31.0781 59.4126 30.9566 61.0713C30.8206 62.9272 30.6728 64.9438 27.691 65.7355C24.7426 66.5184 23.6258 64.988 22.5379 63.4972C21.5422 62.1328 20.5707 60.8014 18.2414 61.3063C16.7273 61.6543 15.97 63.2321 15.1348 64.9722C14.0375 67.2583 12.8058 69.8246 9.54696 70.2506C7.90184 67.6896 6.5093 65.1024 5.46759 62.5475C4.87783 61.0967 4.362 59.6549 3.92139 58.2295C4.05215 58.2867 4.19466 58.3498 4.34692 58.4173C6.00344 59.1516 8.81445 60.3976 10.2234 59.9624C11.7821 59.481 11.8357 57.3587 11.8946 55.0309C11.9669 52.1687 12.0472 48.9959 14.9426 48.1803C17.3922 47.4945 18.8094 49.1828 20.2171 50.8599C21.6466 52.5629 23.0664 54.2543 25.5477 53.4364C27.146 52.9122 27.6303 51.4836 28.1122 50.0625C28.5967 48.6336 29.0786 47.2123 30.6877 46.7255C32.5246 46.198 33.9264 47.5387 35.2959 48.8485C36.7299 50.2201 38.1285 51.5577 39.9539 50.6806C41.8171 49.7607 41.4903 47.0783 41.2091 44.7701C40.9403 42.5641 40.7131 40.6999 42.4789 41.0422C42.8332 41.1187 43.1838 41.3828 43.523 41.7839Z" fill="#DDE337"/>
</svg>
