<svg width="251" height="251" viewBox="0 0 251 251" fill="none" xmlns="http://www.w3.org/2000/svg">
<circle cx="125.5" cy="125.5" r="125.5" fill="#292F51"/>
<path fill-rule="evenodd" clip-rule="evenodd" d="M163.21 34.2858C164.235 33.8698 165.28 33.571 166.326 33.3668C173.727 31.9212 181.121 35.2151 181.121 35.2151C180.233 45.2233 175.851 49.9537 173.716 51.6935C173.004 52.2734 172.542 52.521 172.542 52.521C172.542 52.521 165.827 47.9965 162.484 47.6149C162.006 47.5604 161.597 47.5905 161.287 47.7304C156.957 49.63 151.904 53.1036 147.84 56.1841C148.547 57.4663 149.169 58.7839 149.714 60.0914C151.205 63.6442 152.155 67.1689 152.744 69.806C152.981 70.8887 153.139 71.7886 153.265 72.508C153.295 72.6799 153.323 72.8415 153.35 72.9928C153.392 73.2091 153.419 73.4091 153.442 73.5748C153.458 73.6919 153.471 73.7922 153.486 73.8687C153.484 73.9221 153.496 73.9763 153.507 74.0212C153.514 74.053 153.521 74.0802 153.52 74.0991L153.515 74.1903C153.514 74.2092 153.521 74.2285 153.529 74.2511C153.54 74.283 153.554 74.3216 153.551 74.3751C153.547 74.4486 153.568 74.5497 153.593 74.6704L153.593 74.6709C153.615 74.7747 153.639 74.8932 153.653 75.0206C153.738 75.4584 153.842 76.0683 153.968 76.8053L153.969 76.808L153.969 76.809L154.041 77.2288C189.017 79.4921 213.435 105.12 212.994 108.496C212.99 108.526 212.984 108.556 212.975 108.586C212.986 108.672 212.987 108.749 212.978 108.817C212.955 108.986 212.921 109.155 212.878 109.322C212.163 112.085 208.727 114.505 203.099 116.506C201.887 116.939 200.574 117.353 199.165 117.747C199.348 120.733 198.716 124.153 197.323 127.672C197.048 128.414 196.712 129.162 196.289 129.928C193.761 134.78 189.347 139.661 185.063 143.359C183.264 144.911 182.063 146.51 181.215 148.207C183.123 149.06 184.869 149.876 187.475 151.339C188.339 151.828 188.595 152.908 188.151 153.775C187.702 154.729 186.534 154.98 185.785 154.852C185.511 154.805 184.582 154.385 183.312 153.774C183.301 153.794 183.289 153.814 183.278 153.833C183.922 154.205 184.676 154.65 185.625 155.219C186.484 155.739 186.735 156.891 186.289 157.818C185.841 158.792 184.677 159.064 183.932 158.931C183.548 158.862 182.295 158.17 180.609 157.239L180.609 157.239L180.607 157.238L180.607 157.238C180.419 157.134 180.225 157.027 180.027 156.917C179.867 156.98 179.705 157.035 179.541 157.08C179.607 157.116 179.672 157.15 179.736 157.185C180.282 157.483 180.809 157.817 182.382 158.815L182.973 159.19C183.799 159.715 184.038 160.882 183.606 161.822C183.169 162.858 182.046 163.137 181.331 162.955C180.967 162.887 180.282 162.482 179.187 161.835C178.87 161.648 178.518 161.44 178.13 161.214C177.944 162.121 177.731 163.06 177.478 164.033C176.499 167.775 172.83 170.692 169.847 168.344C168.02 166.924 167.43 163.968 168.371 161.869C168.651 161.229 168.926 160.626 169.194 160.054C169.018 160.193 168.84 160.331 168.66 160.465C167.059 161.661 165.247 162.571 163.277 163.017C162.773 163.127 162.272 163.193 161.77 163.258C161.436 163.302 161.104 163.305 160.772 163.308C160.606 163.309 160.44 163.311 160.273 163.317H160.273C159.774 163.337 159.275 163.357 158.823 163.333C158.569 163.32 158.314 163.319 158.066 163.318C157.828 163.316 157.597 163.315 157.376 163.304C155.437 163.158 153.464 162.781 151.592 162.182C149.894 161.638 148.284 160.836 146.825 159.846C145.107 163.747 143.189 167.294 141.086 170.579C136.283 178.398 130.566 184.71 124.224 189.295C117.973 193.97 109.086 198.471 98.4373 197.96C95.28 197.953 92.0748 197.585 88.8439 196.84C84.2775 195.975 79.6766 194.397 77.9387 191.273C77.5291 190.537 77.2785 189.714 77.2249 188.795C77.172 188.059 77.4755 187.433 77.9953 187.001C78.5151 186.569 79.2536 186.287 80.08 186.055C81.4168 185.706 83.1973 185.495 85.1213 185.267L85.1779 185.26C85.3476 185.24 85.5183 185.22 85.6899 185.199C85.8263 185.183 85.974 185.168 86.1218 185.153C86.2697 185.138 86.4177 185.122 86.5544 185.107C89.0578 184.824 91.7464 184.459 94.2256 183.762C96.7049 183.065 98.9748 182.037 100.596 180.424C105.109 175.932 106.621 171.338 107.503 165.927C107.289 165.736 107.07 165.497 106.845 165.204C105.343 163.256 105.703 160.47 107.399 157.918C101.109 161.322 93.9017 160.917 89.3662 158.139C90.6018 159.94 90.7946 161.35 88.3034 163.131C86.4007 164.463 81.5441 164.349 79.407 159.487C79.2915 159.225 79.179 158.971 79.0695 158.725C77.2197 159.638 75.3834 160.284 73.9444 159.811C73.2436 159.989 72.2906 159.874 71.7886 159.201C71.3875 158.7 71.2431 158.087 71.3807 157.533C71.0816 157.161 70.7895 156.768 70.5122 156.36C69.8593 156.446 69.086 156.282 68.6524 155.689C68.0199 154.884 68.0306 153.794 68.7842 153.106L68.8213 153.072C68.8094 153.037 68.7976 153.002 68.7861 152.967C68.4226 153.249 68.1629 153.436 68.0383 153.497C67.3309 153.845 66.0904 153.828 65.4875 153.029C64.8412 152.18 64.854 151.028 65.6267 150.301C67.6679 148.353 69.1474 147.117 70.6762 145.908C69.9984 145.203 69.2294 144.4 68.3444 143.458C66.612 141.632 64.9184 141.355 62.8994 141.025C59.8087 140.52 55.9553 139.89 50.0324 133.386C49.8117 133.382 49.6854 133.371 49.6854 133.371C49.6854 133.371 48.1735 131.379 47.0955 129.88C47.0146 129.776 46.9334 129.671 46.8519 129.565C38.5505 118.754 41.7393 106.602 50.1012 102.746C50.4883 102.57 50.8882 102.43 51.2988 102.325C50.5086 101.477 49.9831 100.697 49.711 100.011C49.5122 99.5146 49.4483 99.0661 49.5147 98.6746C49.5025 98.4884 49.5275 98.303 49.5927 98.1222C53.5533 86.6093 79.0983 80.7374 105.718 78.2762C106.111 76.7959 106.549 75.3504 107.02 73.8589C107.509 72.1917 108.039 70.5061 108.604 68.7264C110.485 62.9088 113.596 56.9258 117.718 52.4167C121.792 47.951 126.925 44.9158 132.792 45.2202L138.008 46.4035C140.618 47.5127 142.805 49.3108 144.632 51.4653C150.658 44.7351 159.027 35.9827 163.21 34.2858ZM155.955 122.849C162.453 122.68 168.569 122.338 174.209 121.836C174.186 121.981 174.164 122.127 174.143 122.274C173.229 128.66 174.217 131.631 175.121 134.348C175.473 135.408 175.813 136.43 176.022 137.6C175.979 137.588 175.935 137.576 175.89 137.564L175.851 137.554C175.449 137.442 175.088 137.423 174.681 137.402C173.144 137.368 171.642 137.518 170.178 137.808C169.446 137.952 168.712 138.142 167.975 138.378C167.79 138.46 167.617 138.531 167.443 138.602C167.27 138.673 167.097 138.743 166.911 138.825C166.821 138.82 166.681 138.905 166.586 138.991L166.301 139.25C166.111 139.423 166.009 139.646 165.952 139.871C165.682 140.725 165.733 141.503 165.829 142.284C165.925 143.066 166.069 143.804 166.257 144.544C166.609 145.923 167.04 147.267 167.553 148.575C165.818 150.139 164.003 151.607 162.077 152.819C161.048 153.45 160.022 154.036 158.913 154.481C157.804 154.926 156.656 155.231 155.513 155.446C154.37 155.66 153.191 155.691 152.022 155.539C150.952 155.4 149.931 155.034 148.954 154.545C150.127 151.332 151.182 147.891 152.112 144.18C155.513 127.672 156.047 121.06 155.955 122.849ZM175.467 140.639C175.735 140.433 175.997 140.2 176.232 139.935C176.234 140.323 176.22 140.731 176.19 141.162C176.079 142.744 175.91 144.102 175.687 145.31C174.974 144.983 174.234 144.734 173.504 144.509C173.298 144.446 173.092 144.386 172.888 144.327L172.887 144.327L172.887 144.327C172.385 144.181 171.895 144.04 171.454 143.855C171.276 143.8 171.145 143.702 171.102 143.654C171.122 143.636 171.15 143.595 171.184 143.547C171.231 143.479 171.289 143.397 171.344 143.347C171.394 143.302 171.438 143.257 171.48 143.213C171.559 143.132 171.633 143.056 171.724 143.001C172.214 142.634 172.775 142.318 173.357 141.99C174.061 141.593 174.795 141.179 175.467 140.639ZM150.104 155.4C149.678 155.218 149.267 155.008 148.869 154.778L148.855 154.817C149.252 155.036 149.669 155.232 150.104 155.4ZM78.1388 145.382C78.11 145.345 78.0814 145.308 78.0529 145.271C78.8693 144.267 78.903 142.979 78.0877 142.164C77.5149 141.606 76.7406 141.583 75.9065 141.962C74.8885 139.978 74.2942 137.834 74.3532 135.374C74.4626 130.572 73.3312 124.545 71.6961 119.551C71.3903 118.321 70.8655 116.438 70.1951 114.921C69.854 114.106 69.0649 112.985 68.3978 112.111C77.0657 115.404 88.9031 118.516 104.294 120.574L104.274 120.411L104.385 120.439C104.878 123.479 105.472 126.51 106.038 129.38C106.181 130.121 106.375 131.007 106.569 131.894L106.569 131.895C106.763 132.781 106.956 133.667 107.1 134.408C108.098 139.699 109.055 144.961 109.142 150.189C105.312 155.392 98.1299 160.336 87.3061 147.773C87.3061 147.773 87.2171 137.218 84.8753 136.551C83.7418 136.226 82.5871 135.862 81.4943 135.518L81.4938 135.518C78.2846 134.507 75.6087 133.664 75.5673 134.476C75.3798 138.15 81.4356 139.828 81.4356 139.828C81.4356 139.828 79.2817 141.626 78.9177 145.246C78.9177 145.246 78.6239 145.294 78.1388 145.382Z" fill="#F0B130"/>
<path d="M138.008 46.4035L132.802 45.2208L132.817 45.2215L132.841 45.2228C134.724 45.3205 136.442 45.738 138.008 46.4035Z" fill="#F0B130"/>
<path d="M128.286 124.96C129.318 124.96 130.122 124.636 130.698 123.988C131.298 123.34 131.598 122.488 131.598 121.432C131.598 120.424 131.25 119.572 130.554 118.876C129.858 118.18 128.91 117.832 127.71 117.832C127.062 117.832 126.486 117.952 125.982 118.192C125.478 118.408 125.046 118.72 124.686 119.128C124.326 119.512 124.05 119.968 123.858 120.496C123.69 121 123.606 121.528 123.606 122.08V123.592H118.854V121.648C118.854 120.568 119.046 119.524 119.43 118.516C119.838 117.508 120.414 116.62 121.158 115.852C121.926 115.084 122.862 114.472 123.966 114.016C125.094 113.536 126.366 113.296 127.782 113.296C129.054 113.296 130.218 113.512 131.274 113.944C132.33 114.352 133.23 114.928 133.974 115.672C134.742 116.416 135.33 117.292 135.738 118.3C136.146 119.284 136.35 120.352 136.35 121.504V121.72C136.35 122.704 136.194 123.64 135.882 124.528C135.594 125.416 135.174 126.196 134.622 126.868C134.07 127.54 133.386 128.08 132.57 128.488C131.754 128.896 130.842 129.1 129.834 129.1C129.498 129.1 129.246 129.196 129.078 129.388C128.91 129.58 128.826 129.844 128.826 130.18V131.368H124.29V128.272C124.29 127.336 124.602 126.556 125.226 125.932C125.874 125.284 126.666 124.96 127.602 124.96H128.286ZM130.014 136.084C130.014 136.564 129.918 137.02 129.726 137.452C129.558 137.86 129.318 138.22 129.006 138.532C128.694 138.82 128.322 139.048 127.89 139.216C127.482 139.408 127.05 139.504 126.594 139.504C126.114 139.504 125.67 139.408 125.262 139.216C124.854 139.048 124.494 138.82 124.182 138.532C123.87 138.22 123.618 137.86 123.426 137.452C123.258 137.02 123.174 136.564 123.174 136.084C123.174 135.604 123.258 135.16 123.426 134.752C123.618 134.32 123.87 133.96 124.182 133.672C124.494 133.36 124.854 133.12 125.262 132.952C125.67 132.76 126.114 132.664 126.594 132.664C127.05 132.664 127.482 132.76 127.89 132.952C128.322 133.12 128.694 133.36 129.006 133.672C129.318 133.96 129.558 134.32 129.726 134.752C129.918 135.16 130.014 135.604 130.014 136.084Z" fill="#3C7520"/>
</svg>
