<svg width="1440" height="680" viewBox="0 0 1440 680" fill="none" xmlns="http://www.w3.org/2000/svg">
<g clip-path="url(#clip0_4730_960)">
<path fill-rule="evenodd" clip-rule="evenodd" d="M0.0683594 246.734C0.0683594 246.734 214.717 396.234 567.568 396.234C662.568 396.234 312.068 515.734 0.0683594 404.734V246.734Z" fill="#D19823"/>
<path fill-rule="evenodd" clip-rule="evenodd" d="M0.0683594 412.734C331.068 555.734 1134.07 628.734 1440.57 456.234V680.744H0.0683594V412.734Z" fill="#D19823"/>
<path fill-rule="evenodd" clip-rule="evenodd" d="M810.068 672.234C429.568 672.234 0.568359 557.234 0.568359 557.234V680.744H1440.57V627.234C1440.57 627.234 1190.57 672.234 810.068 672.234Z" fill="#6ABF41"/>
<path d="M169.193 479.934C148.337 491.47 126.333 516.848 107.312 543.244C126.593 505.637 150.713 460.84 175.183 420.596C177.383 416.936 176.246 412.615 173.704 415.18C143.339 444.088 115.462 483.167 92.5472 519.533C114.661 475.027 143.731 420.646 172.513 378.919C174.782 375.763 173.783 371.009 171.394 373.128C142.115 397.496 113.896 435.481 90.4037 472.15C100.722 444.735 114.343 412.558 131.027 380.453C133.019 376.721 131.727 372.826 129.179 375.409C103.377 401.445 79.3131 446.76 61.8915 484.501C65.5348 467.581 73.8831 442.447 90.0716 406.24C103.915 377.574 119.216 347.45 134.697 318.867C136.689 315.135 135.396 311.24 132.848 313.823C90.847 359.355 54.091 424.387 30.591 470.855C45.9182 426.009 65.443 373.753 86.7703 329.479C88.5453 325.673 86.892 322.154 84.4057 325.237C57.5969 359.772 33.7487 405.162 15.0329 447.372C15.3554 423.427 13.8321 399.331 9.19895 376.628C8.61192 373.473 5.05942 376.191 4.7141 380.005C-0.52883 428.799 -9.75768 476.707 -18.2391 514.072C-16.1393 477.959 -17.0373 437.389 -27.8509 412.572C-28.9598 410.236 -32.2258 413.532 -32.363 417.417C-33.2579 479.974 -45.5935 542.549 -51.328 569.077L-75.2912 578.573C-79.9596 580.392 -79.3395 652.833 -75.2912 654.217L98.664 654.217C102.712 655.6 107.688 644.525 105.116 640.212L91.9773 618.035C103.677 593.547 132.216 536.529 169.433 486.862C171.914 483.797 171.501 478.745 169.188 479.93L169.193 479.934Z" fill="#6ABF41"/>
<path fill-rule="evenodd" clip-rule="evenodd" d="M1329.94 593.806C1313.14 570.485 1293.69 548.064 1275.27 537.871L1275.27 537.868C1273.23 536.821 1272.87 541.284 1275.06 543.992C1307.94 587.873 1333.15 638.248 1343.49 659.883L1331.88 679.476C1331.71 679.758 1331.58 680.071 1331.48 680.41H1493.41C1494.82 661.622 1494.32 626.209 1491.27 625.019L1470.1 616.629C1465.03 593.192 1454.13 537.907 1453.34 482.638C1453.22 479.205 1450.34 476.293 1449.36 478.357C1439.8 500.283 1439.01 536.126 1440.86 568.032C1433.37 535.021 1425.22 492.694 1420.59 449.585C1420.28 446.215 1417.14 443.813 1416.62 446.601C1412.53 466.659 1411.18 487.948 1411.47 509.103C1394.93 471.81 1373.86 431.709 1350.18 401.197C1347.98 398.474 1346.52 401.583 1348.09 404.945C1366.93 444.061 1384.18 490.229 1397.72 529.85C1376.96 488.796 1344.49 431.34 1307.38 391.113C1305.13 388.831 1303.99 392.272 1305.75 395.569C1319.42 420.822 1332.94 447.437 1345.17 472.763C1359.47 504.751 1366.85 526.957 1370.07 541.907C1354.68 508.562 1333.42 468.527 1310.62 445.524C1308.37 443.242 1307.23 446.683 1308.99 449.98C1323.73 478.345 1335.76 506.773 1344.88 530.994C1324.12 498.597 1299.19 465.038 1273.32 443.508C1271.21 441.637 1270.33 445.836 1272.34 448.625C1297.76 485.49 1323.45 533.536 1342.99 572.857C1322.74 540.728 1298.11 506.202 1271.28 480.662C1269.04 478.396 1268.03 482.213 1269.98 485.447C1291.6 521.002 1312.91 560.58 1329.94 593.806Z" fill="#6ABF41"/>
<path d="M1440.57 -1V328.881C1437.3 275.924 1421.35 182.438 1351.07 152.92C1222.43 98.8938 1302.69 78.3783 1360.86 63.5095L1360.86 63.5085C1396.87 54.3041 1424.23 33.3815 1440.57 -1Z" fill="#D19823"/>
</g>
<defs>
<clipPath id="clip0_4730_960">
<rect width="1440" height="680" fill="white"/>
</clipPath>
</defs>
</svg>
