<svg width="1423" height="957" viewBox="0 0 1423 957" fill="none" xmlns="http://www.w3.org/2000/svg">
<path d="M882.335 136.591C884.35 136.591 885.984 134.957 885.984 132.941C885.984 130.926 884.35 129.292 882.335 129.292C880.319 129.292 878.685 130.926 878.685 132.941C878.685 134.957 880.319 136.591 882.335 136.591Z" fill="#CA8F16"/>
<path d="M775.46 183.511C776.036 183.511 776.503 183.044 776.503 182.468C776.503 181.892 776.036 181.426 775.46 181.426C774.885 181.426 774.418 181.892 774.418 182.468C774.418 183.044 774.885 183.511 775.46 183.511Z" fill="#CA8F16"/>
<path d="M576.309 40.3665C576.309 41.2602 575.714 41.707 575.118 41.707C574.881 41.707 574.653 41.5658 574.486 41.3144C574.318 41.063 574.224 40.722 574.224 40.3665C574.224 39.4727 574.522 38.579 575.118 38.579C575.434 38.579 575.737 38.7673 575.96 39.1025C576.184 39.4378 576.309 39.8924 576.309 40.3665Z" fill="#CA8F16"/>
<path d="M1118.5 264.84C1119.65 264.84 1120.59 264.139 1120.59 263.276C1120.59 262.412 1119.65 261.712 1118.5 261.712C1117.35 261.712 1116.42 262.412 1116.42 263.276C1116.42 264.139 1117.35 264.84 1118.5 264.84Z" fill="#CA8F16"/>
<path d="M144.641 186.639C144.641 186.776 144.614 186.911 144.562 187.038C144.51 187.164 144.433 187.279 144.336 187.376C144.239 187.473 144.124 187.55 143.998 187.602C143.871 187.655 143.736 187.682 143.599 187.682C143.322 187.682 143.057 187.572 142.861 187.376C142.666 187.181 142.556 186.916 142.556 186.639C142.556 186.362 142.666 186.097 142.861 185.902C143.057 185.706 143.322 185.596 143.599 185.596C143.736 185.596 143.871 185.623 143.998 185.676C144.124 185.728 144.239 185.805 144.336 185.902C144.433 185.999 144.51 186.113 144.562 186.24C144.614 186.366 144.641 186.502 144.641 186.639Z" fill="#CA8F16"/>
<path d="M449.103 527.754C449.025 528.293 448.755 528.785 448.342 529.139C447.929 529.493 447.401 529.685 446.857 529.679C446.347 529.679 445.857 529.476 445.496 529.115C445.135 528.754 444.932 528.265 444.932 527.754C444.927 527.21 445.119 526.683 445.473 526.27C445.827 525.857 446.319 525.586 446.857 525.509C447.453 525.509 448.024 525.745 448.445 526.166C448.866 526.588 449.103 527.159 449.103 527.754Z" fill="#CA8F16"/>
<path d="M765.034 518.061C765.034 518.377 764.845 518.68 764.51 518.904C764.175 519.127 763.72 519.253 763.246 519.253C762.353 519.253 761.906 518.657 761.906 518.061C761.906 517.824 762.047 517.597 762.298 517.429C762.55 517.261 762.891 517.167 763.246 517.167C764.14 517.167 765.034 517.465 765.034 518.061Z" fill="#CA8F16"/>
<path d="M506.414 534.681C506.468 534.991 506.461 535.314 506.396 535.62C506.33 535.926 506.207 536.204 506.038 536.429C505.87 536.654 505.661 536.818 505.431 536.906C505.202 536.993 504.96 537.002 504.727 536.93C503.884 536.93 503.322 536.18 503.322 534.681C503.322 534.184 503.47 533.708 503.734 533.356C503.997 533.005 504.355 532.807 504.727 532.807C505.852 532.807 506.414 533.557 506.414 534.681Z" fill="#CA8F16"/>
<path d="M588.821 273.181C588.821 273.458 588.727 273.723 588.56 273.918C588.392 274.114 588.165 274.224 587.928 274.224C587.332 274.224 586.736 273.876 586.736 273.181C586.736 272.486 587.332 272.138 587.928 272.138C588.165 272.138 588.392 272.248 588.56 272.444C588.727 272.639 588.821 272.905 588.821 273.181Z" fill="#CA8F16"/>
<path d="M795.271 404.767C795.271 405.184 794.924 405.601 794.229 405.601C793.533 405.601 793.186 405.184 793.186 404.767C793.186 404.435 793.296 404.117 793.491 403.882C793.687 403.647 793.952 403.516 794.229 403.516C794.505 403.516 794.77 403.647 794.966 403.882C795.161 404.117 795.271 404.435 795.271 404.767Z" fill="#CA8F16"/>
<path d="M28.9044 20.6932C28.9044 20.9881 28.837 21.2801 28.706 21.5526C28.575 21.825 28.383 22.0726 28.141 22.2811C27.8989 22.4896 27.6115 22.6551 27.2952 22.7679C26.979 22.8808 26.64 22.9389 26.2976 22.9389C25.6063 22.9389 24.9434 22.7023 24.4545 22.2811C23.9657 21.86 23.6911 21.2888 23.6911 20.6932C23.7812 20.1547 24.0951 19.6628 24.5745 19.3088C25.054 18.9548 25.6662 18.7627 26.2976 18.7683C26.9291 18.7627 27.5415 18.9548 28.021 19.3088C28.5004 19.6628 28.8143 20.1547 28.9044 20.6932Z" fill="#CA8F16"/>
<path d="M606.547 171.347C606.552 171.753 606.462 172.15 606.293 172.467C606.124 172.785 605.886 173.003 605.62 173.084C605.313 173.084 605.018 172.901 604.801 172.575C604.584 172.249 604.462 171.807 604.462 171.347C604.516 170.948 604.661 170.591 604.873 170.337C605.085 170.083 605.349 169.948 605.62 169.957C605.866 169.957 606.101 170.103 606.275 170.364C606.449 170.624 606.547 170.978 606.547 171.347Z" fill="#CA8F16"/>
<path d="M1234.24 528.115C1234.24 528.53 1234.07 528.928 1233.78 529.221C1233.49 529.515 1233.09 529.679 1232.67 529.679C1232.26 529.679 1231.86 529.515 1231.57 529.221C1231.27 528.928 1231.11 528.53 1231.11 528.115C1231.11 527.701 1231.27 527.303 1231.57 527.009C1231.86 526.716 1232.26 526.551 1232.67 526.551C1233.09 526.551 1233.49 526.716 1233.78 527.009C1234.07 527.303 1234.24 527.701 1234.24 528.115Z" fill="#CA8F16"/>
<path d="M143.599 295.077C144.751 295.077 145.684 294.144 145.684 292.992C145.684 291.84 144.751 290.907 143.599 290.907C142.447 290.907 141.513 291.84 141.513 292.992C141.513 294.144 142.447 295.077 143.599 295.077Z" fill="#CA8F16"/>
<path d="M1059.07 489.015C1059.07 489.788 1058.82 490.535 1058.37 491.112C1057.92 491.69 1057.29 492.057 1056.61 492.143C1056.25 492.143 1055.89 492.062 1055.56 491.905C1055.22 491.748 1054.92 491.517 1054.66 491.227C1054.41 490.936 1054.2 490.592 1054.06 490.212C1053.93 489.833 1053.85 489.426 1053.85 489.015C1053.85 488.185 1054.15 487.39 1054.66 486.803C1055.18 486.217 1055.88 485.887 1056.61 485.887C1057.29 485.973 1057.92 486.34 1058.37 486.917C1058.82 487.495 1059.07 488.242 1059.07 489.015Z" fill="#CA8F16"/>
<path d="M1406.28 86.3818C1406.29 86.9257 1406.05 87.4532 1405.6 87.8662C1405.16 88.2793 1404.55 88.5498 1403.87 88.6274C1403.13 88.6274 1402.41 88.3909 1401.89 87.9697C1401.36 87.5486 1401.07 86.9773 1401.07 86.3818C1401.16 85.8433 1401.5 85.3514 1402.02 84.9974C1402.53 84.6434 1403.19 84.4513 1403.87 84.4569C1404.51 84.4569 1405.12 84.6597 1405.57 85.0207C1406.03 85.3816 1406.28 85.8712 1406.28 86.3818Z" fill="#CA8F16"/>
<path d="M8.05093 504.655C8.05093 504.932 7.9412 505.197 7.74566 505.392C7.55011 505.588 7.2848 505.698 7.00825 505.698C6.73171 505.698 6.4664 505.588 6.27085 505.392C6.0753 505.197 5.96558 504.932 5.96558 504.655C5.96558 504.379 6.0753 504.113 6.27085 503.918C6.4664 503.722 6.73171 503.612 7.00825 503.612C7.24788 503.699 7.46554 503.838 7.64574 504.018C7.82593 504.198 7.9642 504.416 8.05093 504.655Z" fill="#CA8F16"/>
<path d="M1372.39 419.156C1374.41 419.156 1376.04 417.755 1376.04 416.028C1376.04 414.3 1374.41 412.9 1372.39 412.9C1370.38 412.9 1368.74 414.3 1368.74 416.028C1368.74 417.755 1370.38 419.156 1372.39 419.156Z" fill="#CA8F16"/>
<path d="M1209.21 399.345C1209.79 399.345 1210.26 398.878 1210.26 398.302C1210.26 397.726 1209.79 397.26 1209.21 397.26C1208.64 397.26 1208.17 397.726 1208.17 398.302C1208.17 398.878 1208.64 399.345 1209.21 399.345Z" fill="#CA8F16"/>
<path d="M480.383 123.036C480.298 123.569 479.941 124.068 479.372 124.447C478.803 124.827 478.056 125.064 477.255 125.121C476.454 125.064 475.707 124.827 475.138 124.447C474.569 124.068 474.212 123.569 474.127 123.036C474.212 122.502 474.569 122.004 475.138 121.624C475.707 121.245 476.454 121.007 477.255 120.95C478.056 121.007 478.803 121.245 479.372 121.624C479.941 122.004 480.298 122.502 480.383 123.036Z" fill="#CA8F16"/>
<path d="M389.67 319.037C389.67 319.308 389.617 319.576 389.513 319.826C389.41 320.076 389.258 320.304 389.066 320.495C388.874 320.687 388.647 320.839 388.397 320.943C388.146 321.046 387.878 321.1 387.607 321.1C387.323 321.166 387.026 321.158 386.746 321.078C386.465 320.997 386.21 320.847 386.003 320.641C385.797 320.434 385.646 320.179 385.566 319.898C385.486 319.617 385.478 319.321 385.544 319.037C385.544 318.489 385.761 317.965 386.148 317.578C386.535 317.191 387.06 316.973 387.607 316.973C387.878 316.973 388.146 317.027 388.397 317.131C388.647 317.234 388.874 317.386 389.066 317.578C389.258 317.769 389.41 317.997 389.513 318.247C389.617 318.497 389.67 318.766 389.67 319.037Z" fill="#CA8F16"/>
<path d="M855.225 291.949C856.089 291.949 856.789 291.016 856.789 289.864C856.789 288.712 856.089 287.779 855.225 287.779C854.361 287.779 853.661 288.712 853.661 289.864C853.661 291.016 854.361 291.949 855.225 291.949Z" fill="#CA8F16"/>
<path d="M913.094 529.679C913.094 529.956 912.968 530.221 912.745 530.417C912.521 530.612 912.218 530.722 911.902 530.722C911.306 530.722 911.008 530.201 911.008 529.679C911.008 529.158 911.306 528.637 911.902 528.637C912.218 528.637 912.521 528.747 912.745 528.942C912.968 529.138 913.094 529.403 913.094 529.679Z" fill="#CA8F16"/>
<path d="M237.44 506.741C237.44 507.847 237.019 508.907 236.271 509.69C235.523 510.472 234.508 510.911 233.45 510.911C232.356 510.915 231.301 510.488 230.494 509.715C229.688 508.942 229.189 507.88 229.098 506.741C229.189 505.601 229.688 504.539 230.494 503.766C231.301 502.993 232.356 502.566 233.45 502.57C234.508 502.57 235.523 503.009 236.271 503.791C237.019 504.574 237.44 505.634 237.44 506.741Z" fill="#CA8F16"/>
<path d="M338.579 211.465C338.583 212.558 338.228 213.613 337.585 214.422C336.942 215.231 336.056 215.735 335.104 215.834C334.09 215.834 333.117 215.374 332.4 214.554C331.683 213.735 331.28 212.623 331.28 211.465C331.367 210.376 331.808 209.364 332.516 208.629C333.224 207.893 334.147 207.488 335.104 207.493C335.999 207.582 336.838 208.029 337.474 208.756C338.11 209.482 338.501 210.441 338.579 211.465Z" fill="#CA8F16"/>
<path d="M125.873 541.67C125.873 542.361 125.599 543.024 125.11 543.513C124.621 544.002 123.958 544.277 123.267 544.277C122.575 544.277 121.912 544.002 121.423 543.513C120.935 543.024 120.66 542.361 120.66 541.67C120.66 540.979 120.935 540.316 121.423 539.827C121.912 539.338 122.575 539.063 123.267 539.063C123.958 539.063 124.621 539.338 125.11 539.827C125.599 540.316 125.873 540.979 125.873 541.67Z" fill="#CA8F16"/>
<path d="M419.387 19.8108C420.25 19.8108 420.951 19.1106 420.951 18.2468C420.951 17.383 420.25 16.6828 419.387 16.6828C418.523 16.6828 417.823 17.383 417.823 18.2468C417.823 19.1106 418.523 19.8108 419.387 19.8108Z" fill="#CA8F16"/>
<path d="M1260.3 54.2191C1260.3 54.7721 1260.11 55.3025 1259.75 55.6935C1259.39 56.0846 1258.91 56.3043 1258.41 56.3043C1257.87 56.3126 1257.34 56.107 1256.92 55.7246C1256.5 55.3421 1256.22 54.8082 1256.13 54.2191C1256.22 53.6301 1256.5 53.0962 1256.92 52.7137C1257.34 52.3313 1257.87 52.1257 1258.41 52.134C1258.91 52.134 1259.39 52.3537 1259.75 52.7448C1260.11 53.1358 1260.3 53.6661 1260.3 54.2191Z" fill="#CA8F16"/>
<path d="M1238.41 173.606C1238.41 174.297 1238.23 174.96 1237.91 175.449C1237.59 175.938 1237.15 176.212 1236.7 176.212C1236.3 176.109 1235.94 175.789 1235.68 175.311C1235.42 174.833 1235.28 174.228 1235.28 173.606C1235.28 172.983 1235.42 172.378 1235.68 171.9C1235.94 171.422 1236.3 171.102 1236.7 170.999C1236.93 170.999 1237.15 171.066 1237.36 171.197C1237.56 171.328 1237.75 171.52 1237.91 171.762C1238.07 172.004 1238.19 172.292 1238.28 172.608C1238.36 172.924 1238.41 173.263 1238.41 173.606Z" fill="#CA8F16"/>
<path d="M1136.75 83.4141C1138.19 83.4141 1139.35 82.247 1139.35 80.8074C1139.35 79.3677 1138.19 78.2007 1136.75 78.2007C1135.31 78.2007 1134.14 79.3677 1134.14 80.8074C1134.14 82.247 1135.31 83.4141 1136.75 83.4141Z" fill="#CA8F16"/>
<path d="M1048.64 173.268C1048.55 174.081 1048.16 174.832 1047.55 175.376C1046.95 175.919 1046.16 176.217 1045.34 176.212C1044.56 176.212 1043.82 175.902 1043.27 175.35C1042.72 174.798 1042.41 174.049 1042.41 173.268C1042.36 172.852 1042.39 172.429 1042.52 172.028C1042.64 171.628 1042.85 171.258 1043.13 170.944C1043.4 170.631 1043.75 170.38 1044.13 170.21C1044.51 170.039 1044.92 169.953 1045.34 169.956C1046.22 169.956 1047.06 170.305 1047.67 170.926C1048.29 171.547 1048.64 172.39 1048.64 173.268Z" fill="#CA8F16"/>
<path d="M695.13 112.587C695.196 112.871 695.188 113.168 695.108 113.448C695.028 113.729 694.877 113.984 694.671 114.191C694.464 114.397 694.209 114.548 693.928 114.628C693.648 114.708 693.351 114.716 693.067 114.65C692.52 114.65 691.995 114.433 691.608 114.046C691.221 113.659 691.004 113.134 691.004 112.587C691.004 112.04 691.221 111.515 691.608 111.128C691.995 110.741 692.52 110.524 693.067 110.524C693.614 110.524 694.139 110.741 694.526 111.128C694.913 111.515 695.13 112.04 695.13 112.587Z" fill="#CA8F16"/>
<path d="M1019.45 41.1857C1019.45 42.0872 1019.15 42.959 1018.61 43.6328C1018.07 44.3066 1017.32 44.7349 1016.5 44.8351C1015.62 44.8351 1014.78 44.4506 1014.16 43.7662C1013.54 43.0818 1013.19 42.1536 1013.19 41.1857C1013.19 40.2178 1013.54 39.2896 1014.16 38.6052C1014.78 37.9208 1015.62 37.5363 1016.5 37.5363C1017.32 37.6365 1018.07 38.0648 1018.61 38.7386C1019.15 39.4124 1019.45 40.2841 1019.45 41.1857Z" fill="#CA8F16"/>
<path d="M1392.2 207.492C1394.22 207.492 1395.85 205.625 1395.85 203.322C1395.85 201.018 1394.22 199.151 1392.2 199.151C1390.19 199.151 1388.55 201.018 1388.55 203.322C1388.55 205.625 1390.19 207.492 1392.2 207.492Z" fill="#CA8F16"/>
<path d="M1373.96 1.925C1373.96 2.46897 1373.72 2.99647 1373.28 3.4095C1372.84 3.82253 1372.22 4.09302 1371.55 4.1707C1370.81 4.1707 1370.09 3.93411 1369.57 3.51295C1369.04 3.0918 1368.74 2.5206 1368.74 1.925C1368.84 1.38658 1369.18 0.894666 1369.69 0.540638C1370.21 0.18661 1370.87 -0.00545741 1371.55 0.000118062C1372.19 0.000118062 1372.8 0.202917 1373.25 0.563903C1373.7 0.924889 1373.96 1.41449 1373.96 1.925Z" fill="#CA8F16"/>
<path d="M35.1605 291.428C35.1605 291.843 34.9957 292.241 34.7024 292.534C34.4091 292.827 34.0113 292.992 33.5965 292.992C33.1818 292.992 32.7839 292.827 32.4906 292.534C32.1973 292.241 32.0325 291.843 32.0325 291.428C32.0325 291.013 32.1973 290.615 32.4906 290.322C32.7839 290.029 33.1818 289.864 33.5965 289.864C34.0113 289.864 34.4091 290.029 34.7024 290.322C34.9957 290.615 35.1605 291.013 35.1605 291.428Z" fill="#CA8F16"/>
<path d="M277.061 337.643C277.061 338.521 276.77 339.364 276.253 339.985C275.735 340.606 275.033 340.955 274.301 340.955C273.624 340.864 272.998 340.475 272.545 339.864C272.092 339.252 271.844 338.461 271.848 337.643C271.915 336.89 272.195 336.186 272.641 335.651C273.087 335.115 273.673 334.779 274.301 334.699C274.983 334.694 275.642 334.992 276.152 335.536C276.662 336.079 276.986 336.83 277.061 337.643Z" fill="#CA8F16"/>
<path d="M194.169 405.601C196.184 405.601 197.818 403.967 197.818 401.952C197.818 399.936 196.184 398.302 194.169 398.302C192.153 398.302 190.519 399.936 190.519 401.952C190.519 403.967 192.153 405.601 194.169 405.601Z" fill="#CA8F16"/>
<path d="M7.00825 387.017C6.9224 387.83 6.5555 388.581 5.97792 389.124C5.40033 389.668 4.65309 389.966 3.88033 389.961C3.10757 389.966 2.36033 389.668 1.78275 389.124C1.20517 388.581 0.838047 387.83 0.752197 387.017C0.752197 386.138 1.08178 385.296 1.66841 384.675C2.25503 384.054 3.05072 383.705 3.88033 383.705C4.70994 383.705 5.50563 384.054 6.09226 384.675C6.67888 385.296 7.00825 386.138 7.00825 387.017Z" fill="#CA8F16"/>
<path d="M930.819 392.567C930.819 392.982 930.654 393.38 930.361 393.673C930.068 393.967 929.67 394.131 929.255 394.131C928.84 394.131 928.443 393.967 928.149 393.673C927.856 393.38 927.691 392.982 927.691 392.567C927.691 392.153 927.856 391.755 928.149 391.462C928.443 391.168 928.84 391.003 929.255 391.003C929.67 391.003 930.068 391.168 930.361 391.462C930.654 391.755 930.819 392.153 930.819 392.567Z" fill="#CA8F16"/>
<path d="M308.342 61.1971C308.342 61.8352 308.122 62.4472 307.731 62.8985C307.34 63.3497 306.809 63.6032 306.256 63.6032C305.703 63.6032 305.173 63.3497 304.782 62.8985C304.391 62.4472 304.171 61.8352 304.171 61.1971C304.171 59.5929 304.866 58.3899 306.256 58.3899C307.647 58.3899 308.342 59.5929 308.342 61.1971Z" fill="#CA8F16"/>
<path d="M1359.36 303.246C1359.36 303.816 1359.25 304.381 1359.03 304.908C1358.81 305.435 1358.49 305.914 1358.09 306.317C1357.68 306.721 1357.2 307.04 1356.68 307.259C1356.15 307.477 1355.59 307.589 1355.02 307.589C1354.46 307.592 1353.91 307.478 1353.4 307.256C1352.9 307.033 1352.44 306.707 1352.06 306.298C1351.69 305.889 1351.4 305.407 1351.23 304.881C1351.05 304.355 1350.98 303.798 1351.03 303.246C1351.03 302.19 1351.45 301.177 1352.2 300.431C1352.95 299.684 1353.96 299.264 1355.02 299.264C1355.57 299.214 1356.12 299.28 1356.65 299.457C1357.18 299.634 1357.66 299.92 1358.07 300.294C1358.48 300.669 1358.8 301.126 1359.03 301.634C1359.25 302.142 1359.36 302.691 1359.36 303.246Z" fill="#CA8F16"/>
<path d="M477.255 253.519C477.255 253.756 477.114 253.984 476.862 254.151C476.611 254.319 476.27 254.413 475.914 254.413C475.021 254.413 474.127 254.115 474.127 253.519C474.127 253.203 474.315 252.9 474.651 252.677C474.986 252.453 475.44 252.328 475.914 252.328C476.808 252.328 477.255 252.923 477.255 253.519Z" fill="#CA8F16"/>
<path d="M707.687 287.779C708.262 287.779 708.729 287.545 708.729 287.257C708.729 286.969 708.262 286.736 707.687 286.736C707.111 286.736 706.644 286.969 706.644 287.257C706.644 287.545 707.111 287.779 707.687 287.779Z" fill="#CA8F16"/>
<path d="M579.437 396.217C580.589 396.217 581.523 395.283 581.523 394.132C581.523 392.98 580.589 392.046 579.437 392.046C578.286 392.046 577.352 392.98 577.352 394.132C577.352 395.283 578.286 396.217 579.437 396.217Z" fill="#CA8F16"/>
<path d="M79.9956 433.753C80.5714 433.753 81.0382 433.286 81.0382 432.71C81.0382 432.135 80.5714 431.668 79.9956 431.668C79.4197 431.668 78.9529 432.135 78.9529 432.71C78.9529 433.286 79.4197 433.753 79.9956 433.753Z" fill="#CA8F16"/>
<path d="M438.155 411.857C439.594 411.857 440.761 410.456 440.761 408.729C440.761 407.001 439.594 405.601 438.155 405.601C436.715 405.601 435.548 407.001 435.548 408.729C435.548 410.456 436.715 411.857 438.155 411.857Z" fill="#CA8F16"/>
<path d="M849.49 29.1949C849.49 30.0245 849.161 30.8202 848.574 31.4068C847.988 31.9934 847.192 32.323 846.362 32.323C845.533 32.323 844.737 31.9934 844.15 31.4068C843.564 30.8202 843.234 30.0245 843.234 29.1949C843.234 28.3653 843.564 27.5697 844.15 26.9831C844.737 26.3965 845.533 26.0669 846.362 26.0669C847.192 26.0669 847.988 26.3965 848.574 26.9831C849.161 27.5697 849.49 28.3653 849.49 29.1949Z" fill="#CA8F16"/>
<path d="M705.601 15.9877C705.605 16.9442 705.25 17.8675 704.607 18.5753C703.964 19.283 703.078 19.7239 702.126 19.8108C701.112 19.8108 700.139 19.4081 699.422 18.6911C698.705 17.9741 698.302 17.0017 698.302 15.9877C698.389 15.0352 698.83 14.1498 699.538 13.5064C700.246 12.8629 701.169 12.5082 702.126 12.5121C703.021 12.5904 703.86 12.9818 704.496 13.6174C705.132 14.253 705.523 15.0922 705.601 15.9877Z" fill="#CA8F16"/>
<path d="M1420.36 550.533C1421.8 550.533 1422.96 549.599 1422.96 548.448C1422.96 547.296 1421.8 546.362 1420.36 546.362C1418.92 546.362 1417.75 547.296 1417.75 548.448C1417.75 549.599 1418.92 550.533 1420.36 550.533Z" fill="#CA8F16"/>
<path d="M964.185 235.096C964.185 236.815 963.623 237.675 962.779 237.675C962.547 237.757 962.305 237.748 962.075 237.647C961.846 237.547 961.637 237.359 961.468 237.101C961.3 236.843 961.177 236.523 961.111 236.172C961.045 235.822 961.039 235.451 961.093 235.096C961.093 234.757 961.137 234.422 961.221 234.109C961.306 233.796 961.43 233.512 961.587 233.272C961.744 233.033 961.929 232.843 962.134 232.713C962.339 232.583 962.558 232.517 962.779 232.517C963.176 232.619 963.536 232.936 963.794 233.409C964.052 233.882 964.19 234.48 964.185 235.096Z" fill="#CA8F16"/>
<path d="M191.041 20.8535C193.056 20.8535 194.69 19.2196 194.69 17.2042C194.69 15.1887 193.056 13.5548 191.041 13.5548C189.025 13.5548 187.391 15.1887 187.391 17.2042C187.391 19.2196 189.025 20.8535 191.041 20.8535Z" fill="#CA8F16"/>
<path d="M243.174 158.487C244.038 158.487 244.738 157.787 244.738 156.923C244.738 156.059 244.038 155.359 243.174 155.359C242.311 155.359 241.61 156.059 241.61 156.923C241.61 157.787 242.311 158.487 243.174 158.487Z" fill="#CA8F16"/>
<path d="M1239.45 277.873C1239.45 278.288 1239.29 278.686 1238.99 278.979C1238.7 279.272 1238.3 279.437 1237.89 279.437C1237.47 279.437 1237.07 279.272 1236.78 278.979C1236.49 278.686 1236.32 278.288 1236.32 277.873C1236.32 277.458 1236.49 277.061 1236.78 276.767C1237.07 276.474 1237.47 276.309 1237.89 276.309C1238.3 276.309 1238.7 276.474 1238.99 276.767C1239.29 277.061 1239.45 277.458 1239.45 277.873Z" fill="#CA8F16"/>
<path d="M109.19 74.03C110.342 74.03 111.276 73.3298 111.276 72.466C111.276 71.6022 110.342 70.902 109.19 70.902C108.039 70.902 107.105 71.6022 107.105 72.466C107.105 73.3298 108.039 74.03 109.19 74.03Z" fill="#CA8F16"/>
<path d="M341.707 526.551C341.707 526.828 341.597 527.093 341.402 527.289C341.206 527.484 340.941 527.594 340.665 527.594C340.388 527.594 340.123 527.484 339.927 527.289C339.732 527.093 339.622 526.828 339.622 526.551C339.622 526.275 339.732 526.01 339.927 525.814C340.123 525.619 340.388 525.509 340.665 525.509C340.941 525.509 341.206 525.619 341.402 525.814C341.597 526.01 341.707 526.275 341.707 526.551Z" fill="#CA8F16"/>
<path d="M506.45 445.394C506.452 445.813 506.384 446.226 506.25 446.609C506.116 446.991 505.919 447.332 505.672 447.61C505.425 447.888 505.135 448.095 504.819 448.219C504.504 448.343 504.171 448.38 503.843 448.328C503.516 448.38 503.183 448.343 502.867 448.219C502.552 448.095 502.261 447.888 502.014 447.61C501.767 447.332 501.57 446.991 501.436 446.609C501.302 446.226 501.234 445.813 501.237 445.394C501.237 444.519 501.511 443.68 502 443.061C502.489 442.442 503.152 442.095 503.843 442.095C504.535 442.095 505.198 442.442 505.686 443.061C506.175 443.68 506.45 444.519 506.45 445.394Z" fill="#CA8F16"/>
<path d="M28.8872 158.305C28.9399 158.859 28.8715 159.417 28.6865 159.944C28.5015 160.47 28.2039 160.954 27.8128 161.364C27.4218 161.774 26.9457 162.1 26.4155 162.323C25.8853 162.546 25.3126 162.66 24.7338 162.657C24.1551 162.66 23.5822 162.546 23.0519 162.323C22.5217 162.1 22.0459 161.774 21.6549 161.364C21.2638 160.954 20.9662 160.47 20.7812 159.944C20.5961 159.417 20.5276 158.859 20.5802 158.305C20.5802 157.781 20.6877 157.263 20.8964 156.779C21.1052 156.295 21.4111 155.855 21.7968 155.484C22.1825 155.114 22.6404 154.82 23.1443 154.62C23.6483 154.419 24.1884 154.316 24.7338 154.316C25.2793 154.316 25.8194 154.419 26.3233 154.62C26.8273 154.82 27.2852 155.114 27.6709 155.484C28.0565 155.855 28.3623 156.295 28.571 156.779C28.7798 157.263 28.8872 157.781 28.8872 158.305Z" fill="#CA8F16"/>
<path d="M1084.09 372.745C1084.09 373.71 1083.76 374.635 1083.18 375.318C1082.59 376 1081.8 376.383 1080.97 376.383C1080.55 376.442 1080.13 376.388 1079.72 376.226C1079.32 376.063 1078.96 375.797 1078.66 375.447C1078.36 375.097 1078.13 374.672 1077.99 374.204C1077.85 373.736 1077.81 373.237 1077.86 372.745C1077.86 371.78 1078.18 370.855 1078.77 370.173C1079.35 369.491 1080.15 369.107 1080.97 369.107C1081.78 369.189 1082.53 369.599 1083.1 370.264C1083.67 370.929 1084.02 371.808 1084.09 372.745Z" fill="#CA8F16"/>
<path d="M541.38 751.769C539.364 751.769 537.73 750.135 537.73 748.12C537.73 746.104 539.364 744.471 541.38 744.471C543.395 744.471 545.029 746.104 545.029 748.12C545.029 750.135 543.395 751.769 541.38 751.769Z" fill="#CA8F16"/>
<path d="M648.254 798.69C647.678 798.69 647.211 798.223 647.211 797.647C647.211 797.071 647.678 796.604 648.254 796.604C648.83 796.604 649.297 797.071 649.297 797.647C649.297 798.223 648.83 798.69 648.254 798.69Z" fill="#CA8F16"/>
<path d="M847.405 655.545C847.405 656.439 848.001 656.886 848.597 656.886C848.834 656.886 849.061 656.745 849.229 656.493C849.396 656.242 849.49 655.901 849.49 655.545C849.49 654.651 849.193 653.758 848.597 653.758C848.281 653.758 847.978 653.946 847.754 654.281C847.531 654.616 847.405 655.071 847.405 655.545Z" fill="#CA8F16"/>
<path d="M305.214 880.018C304.062 880.018 303.128 879.318 303.128 878.454C303.128 877.591 304.062 876.89 305.214 876.89C306.365 876.89 307.299 877.591 307.299 878.454C307.299 879.318 306.365 880.018 305.214 880.018Z" fill="#CA8F16"/>
<path d="M1279.07 801.818C1279.07 801.955 1279.1 802.09 1279.15 802.217C1279.2 802.343 1279.28 802.458 1279.38 802.555C1279.48 802.652 1279.59 802.729 1279.72 802.781C1279.84 802.833 1279.98 802.86 1280.12 802.86C1280.39 802.86 1280.66 802.751 1280.85 802.555C1281.05 802.359 1281.16 802.094 1281.16 801.818C1281.16 801.541 1281.05 801.276 1280.85 801.08C1280.66 800.885 1280.39 800.775 1280.12 800.775C1279.98 800.775 1279.84 800.802 1279.72 800.854C1279.59 800.907 1279.48 800.984 1279.38 801.08C1279.28 801.177 1279.2 801.292 1279.15 801.419C1279.1 801.545 1279.07 801.681 1279.07 801.818Z" fill="#CA8F16"/>
<path d="M834.893 888.36C834.893 888.636 834.987 888.902 835.155 889.097C835.322 889.293 835.55 889.402 835.787 889.402C836.382 889.402 836.978 889.055 836.978 888.36C836.978 887.665 836.382 887.317 835.787 887.317C835.55 887.317 835.322 887.427 835.155 887.623C834.987 887.818 834.893 888.083 834.893 888.36Z" fill="#CA8F16"/>
<path d="M1394.81 635.872C1394.81 636.167 1394.88 636.459 1395.01 636.731C1395.14 637.004 1395.33 637.251 1395.57 637.46C1395.82 637.668 1396.1 637.834 1396.42 637.947C1396.74 638.06 1397.07 638.118 1397.42 638.118C1398.11 638.118 1398.77 637.881 1399.26 637.46C1399.75 637.039 1400.02 636.467 1400.02 635.872C1399.93 635.333 1399.62 634.842 1399.14 634.487C1398.66 634.133 1398.05 633.941 1397.42 633.947C1396.79 633.941 1396.17 634.133 1395.69 634.487C1395.21 634.842 1394.9 635.333 1394.81 635.872Z" fill="#CA8F16"/>
<path d="M817.168 786.525C817.162 786.932 817.252 787.328 817.421 787.646C817.591 787.963 817.829 788.182 818.094 788.263C818.402 788.263 818.696 788.08 818.914 787.754C819.131 787.428 819.253 786.986 819.253 786.525C819.199 786.127 819.053 785.77 818.841 785.516C818.63 785.262 818.365 785.127 818.094 785.135C817.849 785.135 817.613 785.282 817.439 785.542C817.265 785.803 817.168 786.157 817.168 786.525Z" fill="#CA8F16"/>
<path d="M1280.12 910.256C1278.96 910.256 1278.03 909.322 1278.03 908.171C1278.03 907.019 1278.96 906.085 1280.12 906.085C1281.27 906.085 1282.2 907.019 1282.2 908.171C1282.2 909.322 1281.27 910.256 1280.12 910.256Z" fill="#CA8F16"/>
<path d="M17.4352 701.56C17.4282 702.104 17.6683 702.632 18.1108 703.045C18.5534 703.458 19.1683 703.728 19.8413 703.806C20.5858 703.806 21.2998 703.57 21.8262 703.148C22.3527 702.727 22.6484 702.156 22.6484 701.56C22.5513 701.022 22.2132 700.53 21.6969 700.176C21.1806 699.822 20.5213 699.63 19.8413 699.636C19.2032 699.636 18.5911 699.838 18.1399 700.199C17.6887 700.56 17.4352 701.05 17.4352 701.56Z" fill="#CA8F16"/>
<path d="M943.331 738.214C943.416 738.748 943.773 739.246 944.342 739.626C944.912 740.005 945.659 740.243 946.459 740.3C947.26 740.243 948.007 740.005 948.576 739.626C949.146 739.246 949.502 738.748 949.587 738.214C949.502 737.681 949.146 737.183 948.576 736.803C948.007 736.424 947.26 736.186 946.459 736.129C945.659 736.186 944.912 736.424 944.342 736.803C943.773 737.183 943.416 737.681 943.331 738.214Z" fill="#CA8F16"/>
<path d="M1034.04 934.215C1034.04 934.486 1034.1 934.755 1034.2 935.005C1034.3 935.255 1034.46 935.483 1034.65 935.674C1034.84 935.866 1035.07 936.018 1035.32 936.121C1035.57 936.225 1035.84 936.278 1036.11 936.278C1036.39 936.344 1036.69 936.337 1036.97 936.257C1037.25 936.176 1037.5 936.026 1037.71 935.819C1037.92 935.613 1038.07 935.357 1038.15 935.077C1038.23 934.796 1038.24 934.5 1038.17 934.215C1038.17 933.668 1037.95 933.143 1037.57 932.756C1037.18 932.37 1036.65 932.152 1036.11 932.152C1035.84 932.152 1035.57 932.206 1035.32 932.309C1035.07 932.413 1034.84 932.565 1034.65 932.756C1034.46 932.948 1034.3 933.175 1034.2 933.426C1034.1 933.676 1034.04 933.944 1034.04 934.215Z" fill="#CA8F16"/>
<path d="M568.489 907.128C567.625 907.128 566.925 906.194 566.925 905.043C566.925 903.891 567.625 902.957 568.489 902.957C569.353 902.957 570.053 903.891 570.053 905.043C570.053 906.194 569.353 907.128 568.489 907.128Z" fill="#CA8F16"/>
<path d="M1085.14 826.643C1085.13 827.736 1085.49 828.792 1086.13 829.601C1086.77 830.409 1087.66 830.913 1088.61 831.013C1089.62 831.013 1090.6 830.552 1091.31 829.733C1092.03 828.914 1092.43 827.802 1092.43 826.643C1092.35 825.555 1091.91 824.543 1091.2 823.807C1090.49 823.072 1089.57 822.667 1088.61 822.671C1087.72 822.761 1086.88 823.208 1086.24 823.934C1085.6 824.661 1085.21 825.62 1085.14 826.643Z" fill="#CA8F16"/>
<path d="M1004.33 634.99C1003.46 634.99 1002.76 634.289 1002.76 633.426C1002.76 632.562 1003.46 631.862 1004.33 631.862C1005.19 631.862 1005.89 632.562 1005.89 633.426C1005.89 634.289 1005.19 634.99 1004.33 634.99Z" fill="#CA8F16"/>
<path d="M163.41 669.398C163.41 669.951 163.609 670.481 163.965 670.872C164.32 671.263 164.803 671.483 165.305 671.483C165.848 671.491 166.376 671.286 166.794 670.903C167.211 670.521 167.49 669.987 167.58 669.398C167.49 668.809 167.211 668.275 166.794 667.892C166.376 667.51 165.848 667.304 165.305 667.313C164.803 667.313 164.32 667.532 163.965 667.923C163.609 668.314 163.41 668.845 163.41 669.398Z" fill="#CA8F16"/>
<path d="M185.306 788.784C185.306 789.476 185.486 790.139 185.805 790.627C186.125 791.116 186.559 791.391 187.012 791.391C187.414 791.287 187.778 790.968 188.038 790.489C188.299 790.011 188.439 789.407 188.434 788.784C188.439 788.162 188.299 787.557 188.038 787.079C187.778 786.601 187.414 786.281 187.012 786.178C186.788 786.178 186.566 786.245 186.359 786.376C186.152 786.507 185.964 786.699 185.805 786.941C185.647 787.183 185.521 787.47 185.436 787.787C185.35 788.103 185.306 788.442 185.306 788.784Z" fill="#CA8F16"/>
<path d="M286.967 698.593C285.527 698.593 284.36 697.426 284.36 695.986C284.36 694.546 285.527 693.379 286.967 693.379C288.406 693.379 289.573 694.546 289.573 695.986C289.573 697.426 288.406 698.593 286.967 698.593Z" fill="#CA8F16"/>
<path d="M375.073 788.447C375.163 789.26 375.551 790.011 376.16 790.554C376.769 791.098 377.558 791.396 378.373 791.391C379.151 791.391 379.897 791.081 380.447 790.529C380.997 789.977 381.306 789.228 381.306 788.447C381.358 788.031 381.321 787.608 381.197 787.207C381.074 786.806 380.866 786.437 380.588 786.123C380.31 785.809 379.969 785.559 379.587 785.389C379.205 785.218 378.791 785.132 378.373 785.135C377.498 785.135 376.658 785.484 376.039 786.105C375.421 786.726 375.073 787.569 375.073 788.447Z" fill="#CA8F16"/>
<path d="M728.584 727.766C728.518 728.05 728.526 728.346 728.606 728.627C728.687 728.908 728.837 729.163 729.044 729.37C729.25 729.576 729.506 729.726 729.786 729.807C730.067 729.887 730.363 729.895 730.648 729.829C731.195 729.829 731.72 729.611 732.106 729.224C732.493 728.837 732.711 728.313 732.711 727.766C732.711 727.218 732.493 726.694 732.106 726.307C731.72 725.92 731.195 725.702 730.648 725.702C730.1 725.702 729.576 725.92 729.189 726.307C728.802 726.694 728.584 727.218 728.584 727.766Z" fill="#CA8F16"/>
<path d="M404.268 656.364C404.263 657.266 404.561 658.138 405.104 658.812C405.648 659.485 406.399 659.914 407.212 660.014C408.09 660.014 408.933 659.629 409.554 658.945C410.175 658.26 410.524 657.332 410.524 656.364C410.524 655.397 410.175 654.468 409.554 653.784C408.933 653.1 408.09 652.715 407.212 652.715C406.399 652.815 405.648 653.243 405.104 653.917C404.561 654.591 404.263 655.463 404.268 656.364Z" fill="#CA8F16"/>
<path d="M31.5111 822.671C29.4957 822.671 27.8618 820.804 27.8618 818.501C27.8618 816.197 29.4957 814.33 31.5111 814.33C33.5266 814.33 35.1605 816.197 35.1605 818.501C35.1605 820.804 33.5266 822.671 31.5111 822.671Z" fill="#CA8F16"/>
<path d="M49.7581 617.104C49.7511 617.648 49.9912 618.175 50.4337 618.588C50.8762 619.001 51.4911 619.272 52.1642 619.349C52.9087 619.349 53.6227 619.113 54.1491 618.692C54.6755 618.27 54.9713 617.699 54.9713 617.104C54.8742 616.565 54.5361 616.073 54.0198 615.719C53.5035 615.365 52.8441 615.173 52.1642 615.179C51.526 615.179 50.914 615.382 50.4628 615.743C50.0116 616.104 49.7581 616.593 49.7581 617.104Z" fill="#CA8F16"/>
<path d="M1388.55 906.607C1388.55 907.021 1388.72 907.419 1389.01 907.713C1389.31 908.006 1389.7 908.171 1390.12 908.171C1390.53 908.171 1390.93 908.006 1391.22 907.713C1391.52 907.419 1391.68 907.021 1391.68 906.607C1391.68 906.192 1391.52 905.794 1391.22 905.501C1390.93 905.207 1390.53 905.043 1390.12 905.043C1389.7 905.043 1389.31 905.207 1389.01 905.501C1388.72 905.794 1388.55 906.192 1388.55 906.607Z" fill="#CA8F16"/>
<path d="M1146.65 952.822C1146.65 953.7 1146.94 954.543 1147.46 955.164C1147.98 955.785 1148.68 956.134 1149.41 956.134C1150.09 956.043 1150.72 955.654 1151.17 955.043C1151.62 954.431 1151.87 953.64 1151.87 952.822C1151.8 952.068 1151.52 951.365 1151.07 950.829C1150.63 950.294 1150.04 949.958 1149.41 949.878C1148.73 949.873 1148.07 950.171 1147.56 950.714C1147.05 951.258 1146.73 952.009 1146.65 952.822Z" fill="#CA8F16"/>
<path d="M1115.37 676.376C1115.37 677.014 1115.59 677.626 1115.98 678.077C1116.37 678.528 1116.91 678.782 1117.46 678.782C1118.01 678.782 1118.54 678.528 1118.93 678.077C1119.32 677.626 1119.54 677.014 1119.54 676.376C1119.54 674.772 1118.85 673.569 1117.46 673.569C1116.07 673.569 1115.37 674.772 1115.37 676.376Z" fill="#CA8F16"/>
<path d="M64.3555 918.425C64.3555 918.995 64.4679 919.56 64.6862 920.087C64.9044 920.614 65.2243 921.093 65.6277 921.496C66.031 921.899 66.5098 922.219 67.0368 922.437C67.5637 922.656 68.1285 922.768 68.6989 922.768C69.2537 922.77 69.8028 922.657 70.3111 922.434C70.8193 922.212 71.2755 921.886 71.6504 921.477C72.0252 921.068 72.3105 920.585 72.4879 920.06C72.6652 919.534 72.7308 918.977 72.6804 918.425C72.6804 917.369 72.2609 916.356 71.5142 915.609C70.7676 914.863 69.7549 914.443 68.6989 914.443C68.1464 914.393 67.5895 914.458 67.0639 914.636C66.5383 914.813 66.0555 915.098 65.6465 915.473C65.2376 915.848 64.9115 916.304 64.6892 916.812C64.4669 917.321 64.3532 917.87 64.3555 918.425Z" fill="#CA8F16"/>
<path d="M946.459 868.698C946.459 868.935 946.601 869.162 946.852 869.33C947.103 869.498 947.444 869.592 947.8 869.592C948.694 869.592 949.587 869.294 949.587 868.698C949.587 868.382 949.399 868.079 949.064 867.855C948.729 867.632 948.274 867.506 947.8 867.506C946.906 867.506 946.459 868.102 946.459 868.698Z" fill="#CA8F16"/>
<path d="M716.028 902.957C715.452 902.957 714.985 902.724 714.985 902.436C714.985 902.148 715.452 901.915 716.028 901.915C716.604 901.915 717.071 902.148 717.071 902.436C717.071 902.724 716.604 902.957 716.028 902.957Z" fill="#CA8F16"/>
<path d="M574.224 644.374C574.224 645.203 574.554 645.999 575.14 646.586C575.727 647.172 576.522 647.502 577.352 647.502C578.182 647.502 578.977 647.172 579.564 646.586C580.151 645.999 580.48 645.203 580.48 644.374C580.48 643.544 580.151 642.748 579.564 642.162C578.977 641.575 578.182 641.246 577.352 641.246C576.522 641.246 575.727 641.575 575.14 642.162C574.554 642.748 574.224 643.544 574.224 644.374Z" fill="#CA8F16"/>
<path d="M718.113 631.166C718.109 632.123 718.464 633.046 719.107 633.754C719.751 634.462 720.636 634.903 721.589 634.99C722.603 634.99 723.575 634.587 724.292 633.87C725.009 633.153 725.412 632.18 725.412 631.166C725.325 630.214 724.884 629.328 724.176 628.685C723.469 628.042 722.545 627.687 721.589 627.691C720.693 627.769 719.854 628.16 719.219 628.796C718.583 629.432 718.192 630.271 718.113 631.166Z" fill="#CA8F16"/>
<path d="M459.53 850.274C459.53 851.994 460.092 852.853 460.935 852.853C461.167 852.936 461.41 852.926 461.639 852.826C461.868 852.725 462.077 852.537 462.246 852.279C462.415 852.021 462.538 851.702 462.603 851.351C462.669 851 462.675 850.63 462.621 850.274C462.621 849.936 462.578 849.6 462.493 849.287C462.408 848.975 462.284 848.69 462.127 848.451C461.971 848.211 461.785 848.021 461.58 847.892C461.376 847.762 461.156 847.695 460.935 847.695C460.538 847.798 460.178 848.114 459.92 848.587C459.663 849.06 459.524 849.659 459.53 850.274Z" fill="#CA8F16"/>
<path d="M1232.67 636.032C1230.66 636.032 1229.02 634.398 1229.02 632.383C1229.02 630.367 1230.66 628.734 1232.67 628.734C1234.69 628.734 1236.32 630.367 1236.32 632.383C1236.32 634.398 1234.69 636.032 1232.67 636.032Z" fill="#CA8F16"/>
<path d="M1180.54 773.665C1179.68 773.665 1178.98 772.965 1178.98 772.101C1178.98 771.238 1179.68 770.537 1180.54 770.537C1181.4 770.537 1182.1 771.238 1182.1 772.101C1182.1 772.965 1181.4 773.665 1180.54 773.665Z" fill="#CA8F16"/>
<path d="M184.263 893.052C184.263 893.467 184.428 893.864 184.721 894.158C185.015 894.451 185.412 894.616 185.827 894.616C186.242 894.616 186.64 894.451 186.933 894.158C187.226 893.864 187.391 893.467 187.391 893.052C187.391 892.637 187.226 892.239 186.933 891.946C186.64 891.653 186.242 891.488 185.827 891.488C185.412 891.488 185.015 891.653 184.721 891.946C184.428 892.239 184.263 892.637 184.263 893.052Z" fill="#CA8F16"/>
<path d="M1314.52 689.209C1313.37 689.209 1312.44 688.508 1312.44 687.645C1312.44 686.781 1313.37 686.081 1314.52 686.081C1315.68 686.081 1316.61 686.781 1316.61 687.645C1316.61 688.508 1315.68 689.209 1314.52 689.209Z" fill="#CA8F16"/>
<path d="M1394.83 773.484C1394.77 774.038 1394.84 774.596 1395.03 775.122C1395.21 775.649 1395.51 776.133 1395.9 776.542C1396.29 776.952 1396.77 777.279 1397.3 777.502C1397.83 777.725 1398.4 777.838 1398.98 777.836C1399.56 777.838 1400.13 777.725 1400.66 777.502C1401.19 777.279 1401.67 776.952 1402.06 776.542C1402.45 776.133 1402.75 775.649 1402.93 775.122C1403.12 774.596 1403.19 774.038 1403.13 773.484C1403.13 772.96 1403.03 772.441 1402.82 771.957C1402.61 771.473 1402.3 771.034 1401.92 770.663C1401.53 770.293 1401.07 769.999 1400.57 769.798C1400.07 769.598 1399.53 769.495 1398.98 769.495C1398.44 769.495 1397.89 769.598 1397.39 769.798C1396.89 769.999 1396.43 770.293 1396.04 770.663C1395.66 771.034 1395.35 771.473 1395.14 771.957C1394.93 772.441 1394.83 772.96 1394.83 773.484Z" fill="#CA8F16"/>
</svg>
