<svg width="90" height="114" viewBox="0 0 90 114" fill="none" xmlns="http://www.w3.org/2000/svg">
<path d="M79.9432 51.9023L79.9439 51.9014C94.9423 32.5309 89.3572 10.3682 73.8125 3.25819L73.8073 3.2558L73.8073 3.25581C67.8713 0.581968 60.5491 2.36396 53.9614 6.49155C47.339 10.6409 41.2263 17.2912 37.5802 24.8197L37.5788 24.8226C32.9672 34.4232 29.1643 49.9296 29.4307 61.5195L29.4307 61.5207C29.6024 68.6208 26.5149 74.1899 21.9736 79.6525C19.8465 82.2112 17.4245 84.7186 14.8874 87.3452C14.7093 87.5295 14.5307 87.7145 14.3515 87.9001C11.6306 90.7189 8.80377 93.6762 6.15644 96.9269C5.98107 97.1414 5.80689 97.3536 5.63463 97.5634C4.75154 98.6392 3.91899 99.6533 3.23579 100.605C2.42104 101.741 1.75036 102.878 1.44428 104.043C1.12674 105.251 1.20903 106.464 1.84443 107.678C2.45902 108.852 3.55604 109.961 5.13681 111.083L5.14523 111.089L5.14527 111.089C7.1193 112.458 10.4304 112.998 13.7019 112.111C17.0318 111.209 20.3725 108.822 22.3904 104.27M79.9432 51.9023L21.4768 103.863M79.9432 51.9023C69.1104 65.8599 61.5602 69.894 55.5203 71.4897C54.031 71.8832 52.652 72.1236 51.3801 72.3318C51.2108 72.3595 51.044 72.3865 50.8793 72.4132C49.7931 72.5893 48.8026 72.7499 47.8456 72.9774C45.698 73.4878 43.778 74.3226 41.7993 76.3914M79.9432 51.9023L41.0759 75.701M22.3904 104.27C22.3906 104.269 22.3908 104.269 22.391 104.268L21.4768 103.863M22.3904 104.27C22.3904 104.27 22.3903 104.27 22.3903 104.27L21.4768 103.863M22.3904 104.27C26.2218 95.6687 28.094 91.8816 30.469 88.6657C32.1478 86.3925 34.0683 84.4111 37.1334 81.2486C38.4527 79.8874 39.984 78.3075 41.7993 76.3914M21.4768 103.863C27.9874 89.2476 28.9583 88.2459 36.4694 80.4962C37.7832 79.1406 39.2972 77.5785 41.0759 75.701M41.7993 76.3914C41.7991 76.3916 41.7989 76.3918 41.7987 76.3921L41.0759 75.701M41.7993 76.3914C41.8002 76.3905 41.801 76.3896 41.8019 76.3887L41.0759 75.701" fill="#F2709C" stroke="#EDE8E3" stroke-width="2" stroke-miterlimit="10"/>
</svg>
