<svg width="275" height="144" viewBox="0 0 275 144" fill="none" xmlns="http://www.w3.org/2000/svg">
<path d="M184.729 104.499L184.828 105.409L183.863 105.208L183.848 105.133C183.863 105.208 183.863 105.208 183.863 105.208L183.788 105.222C183.714 105.237 183.7 105.162 183.625 105.176C183.462 105.13 183.224 105.099 182.823 105.021C182.185 104.912 181.145 104.725 179.957 104.567C177.492 104.191 173.941 103.791 169.795 103.506C161.504 102.936 150.742 102.765 140.918 104.659C129.606 106.84 119.298 110.221 111.817 113.057C108.076 114.475 105.08 115.749 103.023 116.688C101.95 117.127 101.174 117.509 100.608 117.773C100.324 117.905 100.116 118.023 99.9667 118.051C99.8923 118.066 99.8178 118.08 99.8322 118.155L99.7578 118.169L98.9079 118.565L98.7352 117.669C95.451 103.435 94.2242 88.2625 93.8371 76.6447C93.6507 70.8731 93.6971 65.9085 93.7336 62.4944C93.7891 60.7802 93.8277 59.3789 93.8783 58.44C93.8664 57.9777 93.9432 57.5757 93.9001 57.3517C93.8713 57.2024 93.9313 57.1134 93.9169 57.0387L93.8881 56.8894C93.8737 56.8148 93.9194 56.6511 93.8906 56.5018C93.9075 56.1888 93.8811 55.6518 93.9148 55.0259C93.9678 53.6993 94.0089 51.9104 94.1869 49.6306C94.5573 45.1455 95.324 39.1127 96.9838 32.9079C100.243 20.5871 107.166 7.25042 121.604 4.46722C131.279 2.60219 140.501 6.39952 148.295 12.7953C156.178 19.2513 162.72 28.3661 167.182 37.4949C167.798 38.6924 168.326 39.8296 168.854 40.9667C172.435 48.3295 175.444 54.3312 177.861 62.4605C180.788 72.0399 182.911 84.2523 184.729 104.499Z" fill="#F2709C"/>
<path fill-rule="evenodd" clip-rule="evenodd" d="M181.749 104.838C182.046 104.887 182.315 104.934 182.548 104.974C182.646 104.991 182.738 105.007 182.823 105.021C182.976 105.051 183.106 105.074 183.216 105.093C183.395 105.125 183.524 105.148 183.625 105.176C183.662 105.169 183.685 105.184 183.707 105.199C183.729 105.214 183.751 105.23 183.788 105.222L183.863 105.208L184.828 105.409L184.729 104.499C184.663 103.764 184.597 103.039 184.53 102.325C184.529 102.318 184.529 102.311 184.528 102.304C184.527 102.297 184.527 102.289 184.526 102.282C182.752 83.3512 180.679 71.6851 177.861 62.4605C175.573 54.7643 172.754 48.9751 169.422 42.1325C169.234 41.7474 169.045 41.359 168.854 40.9667C168.326 39.8296 167.798 38.6924 167.182 37.4949C162.72 28.3661 156.178 19.2513 148.295 12.7953C140.501 6.39952 131.279 2.60219 121.604 4.46722C107.166 7.25042 100.243 20.5871 96.9838 32.9079C95.324 39.1127 94.5573 45.1455 94.1869 49.6306C94.0432 51.471 93.9888 52.9915 93.9452 54.2071C93.9348 54.4974 93.925 54.7702 93.9148 55.0259C93.8951 55.3926 93.8959 55.7287 93.8967 56.0072C93.8972 56.2041 93.8976 56.3721 93.8906 56.5018C93.9075 56.5893 93.8988 56.6816 93.8916 56.7582C93.8865 56.8123 93.8822 56.8585 93.8881 56.8894L93.9169 57.0387C93.9229 57.0697 93.9161 57.1031 93.9081 57.1422C93.8968 57.1975 93.8832 57.2643 93.9001 57.3517C93.9233 57.4722 93.9118 57.6443 93.898 57.8495C93.8862 58.0257 93.8728 58.2264 93.8783 58.44C93.8383 59.1828 93.8058 60.215 93.7665 61.4627C93.7561 61.792 93.7452 62.1364 93.7336 62.4944C93.6971 65.9085 93.6507 70.8731 93.8371 76.6447C94.205 87.6864 95.3314 101.939 98.2617 115.545C98.2624 115.549 98.2631 115.552 98.2639 115.555C98.4161 116.262 98.5731 116.967 98.7352 117.669L98.9079 118.565L99.7578 118.169L99.8322 118.155C99.8178 118.08 99.8923 118.066 99.9667 118.051C100.076 118.03 100.217 117.962 100.396 117.874C100.461 117.843 100.532 117.808 100.608 117.773C100.713 117.724 100.826 117.67 100.946 117.614C101.172 117.507 101.426 117.387 101.711 117.257C102.09 117.084 102.524 116.892 103.023 116.688C105.08 115.749 108.076 114.475 111.817 113.057C119.298 110.221 129.606 106.84 140.918 104.659C150.742 102.765 161.504 102.936 169.795 103.506C173.941 103.791 177.492 104.191 179.957 104.567C180.614 104.655 181.225 104.751 181.749 104.838ZM103.218 119.868C103.5 119.741 103.811 119.607 104.159 119.464L104.214 119.442L104.268 119.417C106.263 118.507 109.198 117.258 112.88 115.862C120.257 113.065 130.394 109.743 141.486 107.605C150.932 105.784 161.391 105.936 169.59 106.499C173.669 106.779 177.136 107.171 179.504 107.533L179.533 107.537L179.561 107.541C180.53 107.67 181.389 107.818 182.032 107.929C182.121 107.945 182.206 107.959 182.287 107.973C182.453 108.005 182.601 108.031 182.706 108.05C182.735 108.055 182.761 108.059 182.783 108.063C182.786 108.064 182.79 108.065 182.793 108.065C182.884 108.096 182.982 108.124 183.086 108.147C183.115 108.154 183.145 108.16 183.174 108.166L183.496 108.257L183.647 108.227L188.253 109.188L187.715 104.204C185.891 83.9057 183.747 71.4617 180.733 61.5948C178.374 53.6612 175.457 47.6721 172.141 40.8632C171.95 40.4713 171.758 40.0768 171.564 39.679C171.046 38.5638 170.501 37.3902 169.863 36.1495C165.26 26.7389 158.479 17.2589 150.197 10.4756C142 3.74839 131.894 -0.57157 121.036 1.52146C104.781 4.65492 97.403 19.5961 94.0847 32.1365C92.3638 38.5713 91.5762 44.7933 91.1971 49.3836L91.196 49.397C91.0469 51.3071 90.9899 52.9027 90.9464 54.1195C90.9365 54.3949 90.9274 54.6509 90.918 54.8867C90.8977 55.2748 90.8961 55.6231 90.8964 55.8843C90.8965 56.0308 90.8972 56.12 90.8968 56.2148C90.8966 56.257 90.8962 56.2881 90.8958 56.3115C90.8954 56.3305 90.895 56.3395 90.8949 56.3409L90.8751 56.7081L90.8863 56.7663C90.8853 56.8075 90.8849 56.854 90.8857 56.9042C90.8865 56.9575 90.8888 57.0289 90.8957 57.114C90.8956 57.1151 90.8956 57.1162 90.8955 57.1173C90.8888 57.2681 90.8916 57.4294 90.9081 57.5993C90.9079 57.6022 90.9077 57.6052 90.9075 57.6083C90.9066 57.6213 90.9056 57.636 90.9045 57.6523C90.8944 57.7993 90.8756 58.0736 90.8772 58.382C90.8377 59.1526 90.8049 60.1926 90.7672 61.3921C90.757 61.7162 90.7464 62.052 90.7352 62.3974L90.7342 62.4298L90.7338 62.4623C90.6972 65.8825 90.6501 70.9015 90.8387 76.7415L90.8388 76.7446C91.2287 88.4457 92.464 103.809 95.7997 118.29L96.69 122.909L100.689 121.045L103.346 120.533L103.218 119.868Z" fill="#EDE8E3"/>
<path d="M117.622 29.9212C120.274 24.904 122.516 15.9337 116.937 14.5586C112.412 13.4546 106.865 20.0583 103.66 26.6047C101.38 31.1549 100.088 39.23 103.661 40.9916C108.436 43.3912 114.731 35.3004 117.622 29.9212Z" fill="#2D2D31"/>
<path d="M102.867 40.6039C102.867 40.6039 101.61 38.9437 101.499 37.1751C101.159 31.7414 103.133 26.4899 105.718 22.3779C108.302 18.2659 112.151 15.4027 114.079 14.4025C116.007 13.4023 117.619 14.4272 117.619 14.4272C117.619 14.4272 111.031 20.2048 108.188 24.5727C103.336 32.0289 102.867 40.6039 102.867 40.6039Z" fill="#C9547C"/>
<path d="M95.3562 61.8497C36.7649 73.1445 1.50876 122.386 3.04643 127.965C6.66068 140.721 91.7914 146.745 146.763 135.09C200.301 123.738 272.305 99.7646 272.304 72.8122C257.034 42.7432 148.229 51.6571 95.3562 61.8497Z" fill="#F2709C"/>
<path fill-rule="evenodd" clip-rule="evenodd" d="M1.12023 128.503L1.12218 128.51C1.48601 129.794 2.3133 130.873 3.32405 131.771C4.33923 132.672 5.63607 133.478 7.12473 134.207C10.1001 135.665 14.1022 136.943 18.843 138.046C28.3445 140.259 41.167 141.853 55.531 142.678C84.2557 144.329 119.469 142.921 147.178 137.046C174.022 131.355 205.549 122.489 230.411 111.634C242.831 106.211 253.694 100.247 261.485 93.8645C269.214 87.5326 274.305 80.4682 274.304 72.8121V72.3334L274.088 71.9066C269.842 63.546 259.377 58.2905 246.126 55.0383C232.735 51.7514 215.874 50.3614 197.946 50.2329C162.073 49.9757 121.52 54.7692 94.9776 59.8858C65.2291 65.6205 41.4471 80.9759 25.3115 95.5672C17.2407 102.866 11.0501 110.002 6.95711 115.703C4.91399 118.548 3.36776 121.072 2.37194 123.106C1.87573 124.12 1.49274 125.059 1.26047 125.887C1.05053 126.634 0.870914 127.599 1.11833 128.496L1.12023 128.503ZM272.304 72.8122C272.305 99.7646 200.301 123.738 146.763 135.09C91.7914 146.745 6.66068 140.721 3.04643 127.965C1.50876 122.386 36.7649 73.1445 95.3562 61.8497C148.229 51.6571 257.034 42.7432 272.304 72.8122Z" fill="#EDE8E3"/>
<path d="M201.643 121.086C274.648 93.7211 224.957 86.1133 209.073 85.8111C146.779 84.6911 73.6033 98.3352 47.5029 122.731C36.1614 133.287 72.0606 137.479 97.7492 138.323C125.334 139.229 143.654 137.219 201.643 121.086Z" fill="#C9557C"/>
<path d="M129.961 54.1017C21.394 69.6112 1.42028 121.925 2.94564 127.44C3.49198 129.475 12.2858 131.143 18.4313 125.066C23.725 119.765 17.7523 112.355 23.9972 106.794C31.4032 102.462 36.362 107.01 42.7206 102.038C47.333 98.3971 42.1282 91.3741 48.9401 87.1562C57.4064 81.9314 63.0155 90.2524 72.5131 87.5807C78.8601 85.7456 73.2478 77.8074 85.185 74.2067C94.5657 71.3282 98.9769 81.0267 109.71 79.5693C118.558 78.3223 116.443 65.3527 124.932 62.646C135.904 59.2314 140.633 76.9715 151.836 74.3533C159.576 72.5554 159.148 63.5414 167.925 61.9259C178.201 60.0978 181.319 75.473 191.652 73.9397C200.041 72.7049 200.696 61.7237 209.153 61.2402C218.765 60.7632 219.613 76.3467 229.214 75.4131C236.323 74.7307 236.787 67.15 243.885 67.6162C251.295 68.0988 249.006 75.802 257.956 78.2809C267.232 80.85 273.905 75.5122 272.212 72.3223C257.011 42.6121 184.808 46.2664 129.961 54.1017Z" fill="#DDE337"/>
<path fill-rule="evenodd" clip-rule="evenodd" d="M19.8375 126.489L19.8465 126.48C23.0013 123.32 22.9255 119.483 22.8668 116.513C22.8634 116.337 22.86 116.165 22.8573 115.996C22.8079 112.876 22.9251 110.521 25.183 108.419C28.211 106.702 30.7083 106.681 33.5213 106.658L33.7692 106.656C36.8132 106.629 40.2231 106.53 43.9524 103.614L43.9598 103.608C45.5616 102.344 46.2954 100.765 46.6352 99.1923C46.8911 98.0081 46.937 96.7126 46.9759 95.6142C46.9846 95.367 46.993 95.1298 47.0034 94.9061C47.0651 93.5736 47.1898 92.4825 47.5909 91.5144C47.966 90.6088 48.6314 89.7003 49.9904 88.8582C53.4569 86.719 56.2394 87.2701 59.7657 88.3268C60.0713 88.4184 60.3836 88.5146 60.7026 88.6129C64.0396 89.6407 68.1142 90.8957 73.0547 89.5059L73.0616 89.504L73.0686 89.502C75.2122 88.8822 76.475 87.6611 77.2648 86.1491C77.627 85.4556 77.8743 84.7325 78.0752 84.0823C78.165 83.7915 78.2404 83.5344 78.3126 83.2882C78.4202 82.9214 78.5207 82.5787 78.6512 82.1847C79.0441 80.9987 79.5371 79.931 80.491 78.9561C81.4511 77.9749 83.0153 76.9502 85.7625 76.1215L85.7717 76.1188C89.6118 74.9404 92.3887 76.2407 96.0169 78.1292C96.1328 78.1895 96.2494 78.2503 96.3669 78.3116C99.8735 80.1412 104.105 82.3488 109.979 81.5511L109.989 81.5497C115.651 80.7518 117.713 76.0487 119.285 72.4622L119.287 72.4582C121.023 68.4996 122.308 65.5852 125.533 64.5536C127.674 63.8893 129.474 64.2301 131.255 65.1712C133.14 66.1675 134.918 67.7873 136.935 69.6649C137.001 69.7267 137.068 69.7888 137.135 69.8512C139.014 71.6016 141.111 73.5553 143.463 74.8883C145.982 76.3165 148.891 77.095 152.289 76.3012C156.741 75.2666 158.979 72.182 160.801 69.6715C160.904 69.5293 161.006 69.3889 161.107 69.2509C163.03 66.6179 164.716 64.5521 168.281 63.894C172.223 63.1956 174.835 65.6468 178.339 69.2222C178.426 69.3106 178.513 69.3998 178.601 69.4897C181.759 72.7174 185.784 76.8312 191.944 75.9183C196.868 75.1934 199.576 71.6495 201.711 68.8564C201.796 68.7447 201.881 68.6342 201.964 68.5251C204.292 65.489 206.06 63.4235 209.259 63.2374C211.029 63.1514 212.394 63.7727 213.678 64.892C215.041 66.0808 216.207 67.7353 217.551 69.6477L217.578 69.686C218.846 71.49 220.292 73.5483 222.097 75.0591C224.004 76.6552 226.374 77.6987 229.408 77.4037C233.559 77.0043 235.903 74.6081 237.696 72.7751C237.792 72.6773 237.886 72.5811 237.979 72.4869C239.83 70.6064 241.157 69.4413 243.754 69.6119L243.755 69.6119C245.209 69.7066 246.035 70.1295 246.65 70.6563C247.353 71.2581 247.886 72.0735 248.66 73.2797L248.664 73.2865C249.393 74.4221 250.297 75.8322 251.662 77.1013C253.063 78.4032 254.883 79.5051 257.423 80.2083C262.52 81.6203 267.044 80.8966 270.147 79.2212C271.684 78.3918 272.964 77.2769 273.729 75.9713C274.503 74.6498 274.813 72.9709 273.986 71.3997C269.872 63.3685 262.003 57.7756 251.996 53.9701C241.975 50.1592 229.592 48.0542 216.089 47.137C189.075 45.3022 157.151 48.1971 129.678 52.1218C75.0989 59.9188 42.5869 76.9976 23.869 92.9984C14.5159 100.994 8.61646 108.713 5.14079 114.85C3.40497 117.914 2.26267 120.604 1.60097 122.753C1.27067 123.826 1.05147 124.792 0.944378 125.622C0.84397 126.4 0.816346 127.242 1.01736 127.971C1.24953 128.821 1.82772 129.406 2.31601 129.772C2.83184 130.159 3.44412 130.452 4.07323 130.671C5.33776 131.112 6.92857 131.344 8.64687 131.294C12.098 131.194 16.3453 129.942 19.8375 126.489ZM272.212 72.3223C273.905 75.5122 267.232 80.85 257.956 78.2809C253.441 77.0303 251.786 74.45 250.304 72.1381C248.847 69.8673 247.557 67.8553 243.885 67.6162C240.194 67.3738 238.297 69.3072 236.326 71.3151C234.507 73.1686 232.626 75.0856 229.214 75.4131C224.377 75.8835 221.761 72.161 219.127 68.4123C216.534 64.7206 213.922 61.0035 209.153 61.2402C204.837 61.487 202.553 64.4681 200.236 67.4924C198.013 70.3938 195.76 73.3351 191.652 73.9397C186.511 74.7026 183.156 71.2794 179.816 67.8721C176.444 64.4316 173.088 61.0074 167.925 61.9259C163.353 62.7674 161.279 65.6161 159.247 68.4068C157.378 70.9739 155.544 73.4919 151.836 74.3533C146.296 75.6481 142.339 71.9638 138.427 68.3214C134.429 64.5988 130.478 60.9201 124.932 62.646C120.823 63.9561 119.199 67.6705 117.613 71.2962C115.922 75.1614 114.275 78.9258 109.71 79.5693C104.473 80.2804 100.741 78.3358 97.2031 76.492C93.4894 74.5568 89.9888 72.7327 85.185 74.2067C78.2874 76.2873 77.2492 79.816 76.3775 82.7787C75.7407 84.9434 75.1927 86.8059 72.5131 87.5807C68.1637 88.8042 64.6297 87.7223 61.2634 86.6918C57.2789 85.472 53.5292 84.3241 48.9401 87.1562C45.1978 89.4734 45.0823 92.6372 44.9734 95.6218C44.884 98.0699 44.7991 100.397 42.7206 102.038C39.4293 104.611 36.513 104.634 33.4383 104.658C30.5728 104.681 27.5698 104.704 23.9972 106.794C20.7473 109.688 20.8062 113.083 20.8642 116.421C20.9175 119.497 20.9701 122.524 18.4313 125.066C12.2858 131.143 3.49198 129.475 2.94564 127.44C1.42028 121.925 21.394 69.6112 129.961 54.1017C184.808 46.2664 257.011 42.6121 272.212 72.3223Z" fill="#EDE8E3"/>
<path d="M192.42 107.126C193.396 113.445 172.016 121.99 144.668 126.211C117.32 130.432 94.3593 128.73 93.3839 122.411C92.4086 116.091 113.788 107.547 141.136 103.326C168.484 99.1049 191.445 100.806 192.42 107.126Z" fill="#8F3856"/>
</svg>
