<svg width="1365" height="528" viewBox="0 0 1365 528" fill="none" xmlns="http://www.w3.org/2000/svg">
<path d="M846.459 131C848.392 131 849.959 129.433 849.959 127.5C849.959 125.567 848.392 124 846.459 124C844.526 124 842.959 125.567 842.959 127.5C842.959 129.433 844.526 131 846.459 131Z" fill="white"/>
<path d="M743.959 176C744.511 176 744.959 175.552 744.959 175C744.959 174.448 744.511 174 743.959 174C743.407 174 742.959 174.448 742.959 175C742.959 175.552 743.407 176 743.959 176Z" fill="white"/>
<path d="M552.959 38.7143C552.959 39.5714 552.388 40 551.816 40C551.589 40 551.371 39.8645 551.21 39.6234C551.049 39.3823 550.959 39.0553 550.959 38.7143C550.959 37.8571 551.245 37 551.816 37C552.119 37 552.41 37.1806 552.624 37.5021C552.839 37.8236 552.959 38.2596 552.959 38.7143Z" fill="white"/>
<path d="M1072.96 254C1074.06 254 1074.96 253.328 1074.96 252.5C1074.96 251.672 1074.06 251 1072.96 251C1071.85 251 1070.96 251.672 1070.96 252.5C1070.96 253.328 1071.85 254 1072.96 254Z" fill="white"/>
<path d="M138.959 179C138.959 179.131 138.933 179.261 138.883 179.383C138.833 179.504 138.759 179.614 138.666 179.707C138.573 179.8 138.463 179.874 138.342 179.924C138.22 179.974 138.09 180 137.959 180C137.694 180 137.439 179.895 137.252 179.707C137.064 179.52 136.959 179.265 136.959 179C136.959 178.735 137.064 178.48 137.252 178.293C137.439 178.105 137.694 178 137.959 178C138.09 178 138.22 178.026 138.342 178.076C138.463 178.126 138.573 178.2 138.666 178.293C138.759 178.386 138.833 178.496 138.883 178.617C138.933 178.739 138.959 178.869 138.959 179Z" fill="white"/>
<path d="M430.959 506.154C430.884 506.67 430.625 507.142 430.229 507.481C429.833 507.821 429.327 508.005 428.805 508C428.316 508 427.846 507.805 427.5 507.459C427.154 507.113 426.959 506.643 426.959 506.154C426.954 505.632 427.138 505.126 427.478 504.73C427.817 504.334 428.289 504.075 428.805 504C429.376 504 429.924 504.227 430.328 504.631C430.732 505.035 430.959 505.583 430.959 506.154Z" fill="white"/>
<path d="M733.959 496.857C733.959 497.16 733.778 497.451 733.457 497.665C733.135 497.88 732.699 498 732.245 498C731.388 498 730.959 497.429 730.959 496.857C730.959 496.63 731.095 496.412 731.336 496.251C731.577 496.09 731.904 496 732.245 496C733.102 496 733.959 496.286 733.959 496.857Z" fill="white"/>
<path d="M485.924 512.797C485.976 513.094 485.97 513.404 485.907 513.697C485.844 513.991 485.726 514.258 485.564 514.474C485.402 514.689 485.202 514.847 484.982 514.931C484.762 515.015 484.53 515.022 484.307 514.954C483.498 514.954 482.959 514.235 482.959 512.797C482.959 512.32 483.101 511.863 483.354 511.526C483.607 511.189 483.949 511 484.307 511C485.385 511 485.924 511.719 485.924 512.797Z" fill="white"/>
<path d="M564.959 262C564.959 262.265 564.869 262.52 564.708 262.707C564.547 262.895 564.329 263 564.102 263C563.53 263 562.959 262.667 562.959 262C562.959 261.333 563.53 261 564.102 261C564.329 261 564.547 261.105 564.708 261.293C564.869 261.48 564.959 261.735 564.959 262Z" fill="white"/>
<path d="M762.959 388.2C762.959 388.6 762.626 389 761.959 389C761.292 389 760.959 388.6 760.959 388.2C760.959 387.882 761.064 387.577 761.252 387.351C761.439 387.126 761.694 387 761.959 387C762.224 387 762.479 387.126 762.666 387.351C762.854 387.577 762.959 387.882 762.959 388.2Z" fill="white"/>
<path d="M27.959 19.8462C27.959 20.1291 27.8943 20.4091 27.7687 20.6704C27.643 20.9317 27.4589 21.1692 27.2268 21.3692C26.9946 21.5692 26.7189 21.7278 26.4156 21.836C26.1123 21.9443 25.7872 22 25.4589 22C24.7958 22 24.1601 21.7731 23.6912 21.3692C23.2224 20.9653 22.959 20.4174 22.959 19.8462C23.0455 19.3298 23.3465 18.858 23.8063 18.5185C24.2661 18.179 24.8533 17.9948 25.4589 18.0001C26.0645 17.9948 26.6518 18.179 27.1117 18.5185C27.5715 18.858 27.8725 19.3298 27.959 19.8462Z" fill="white"/>
<path d="M581.959 164.334C581.964 164.723 581.878 165.104 581.716 165.408C581.553 165.713 581.325 165.922 581.07 166C580.775 166 580.493 165.824 580.284 165.512C580.076 165.199 579.959 164.775 579.959 164.334C580.011 163.951 580.151 163.609 580.354 163.365C580.556 163.122 580.81 162.992 581.07 163C581.306 163 581.532 163.141 581.698 163.391C581.865 163.641 581.959 163.98 581.959 164.334Z" fill="white"/>
<path d="M1183.96 506.5C1183.96 506.898 1183.8 507.279 1183.52 507.561C1183.24 507.842 1182.86 508 1182.46 508C1182.06 508 1181.68 507.842 1181.4 507.561C1181.12 507.279 1180.96 506.898 1180.96 506.5C1180.96 506.102 1181.12 505.721 1181.4 505.439C1181.68 505.158 1182.06 505 1182.46 505C1182.86 505 1183.24 505.158 1183.52 505.439C1183.8 505.721 1183.96 506.102 1183.96 506.5Z" fill="white"/>
<path d="M137.959 283C139.064 283 139.959 282.105 139.959 281C139.959 279.895 139.064 279 137.959 279C136.854 279 135.959 279.895 135.959 281C135.959 282.105 136.854 283 137.959 283Z" fill="white"/>
<path d="M1015.96 469C1015.96 469.741 1015.72 470.458 1015.29 471.012C1014.86 471.566 1014.26 471.918 1013.61 472C1013.26 472 1012.91 471.922 1012.59 471.772C1012.27 471.621 1011.98 471.4 1011.73 471.121C1011.49 470.843 1011.29 470.512 1011.16 470.148C1011.03 469.784 1010.96 469.394 1010.96 469C1010.96 468.204 1011.24 467.441 1011.73 466.879C1012.23 466.316 1012.9 466 1013.61 466C1014.26 466.082 1014.86 466.434 1015.29 466.988C1015.72 467.542 1015.96 468.259 1015.96 469Z" fill="white"/>
<path d="M1348.96 82.8462C1348.97 83.3679 1348.74 83.8738 1348.31 84.27C1347.89 84.6661 1347.3 84.9255 1346.65 85C1345.94 85 1345.25 84.7731 1344.75 84.3692C1344.24 83.9653 1343.96 83.4174 1343.96 82.8462C1344.05 82.3298 1344.38 81.858 1344.87 81.5185C1345.37 81.179 1346 80.9948 1346.65 81.0001C1347.26 81.0001 1347.85 81.1946 1348.28 81.5408C1348.72 81.887 1348.96 82.3566 1348.96 82.8462Z" fill="white"/>
<path d="M7.95898 484C7.95898 484.265 7.85375 484.52 7.66621 484.707C7.47866 484.895 7.22421 485 6.95898 485C6.69376 485 6.43931 484.895 6.25176 484.707C6.06422 484.52 5.95898 484.265 5.95898 484C5.95898 483.735 6.06422 483.48 6.25176 483.293C6.43931 483.105 6.69376 483 6.95898 483C7.1888 483.083 7.39756 483.216 7.57038 483.389C7.7432 483.561 7.87581 483.77 7.95898 484Z" fill="white"/>
<path d="M1316.46 402C1318.39 402 1319.96 400.657 1319.96 399C1319.96 397.343 1318.39 396 1316.46 396C1314.53 396 1312.96 397.343 1312.96 399C1312.96 400.657 1314.53 402 1316.46 402Z" fill="white"/>
<path d="M1159.96 383C1160.51 383 1160.96 382.552 1160.96 382C1160.96 381.448 1160.51 381 1159.96 381C1159.41 381 1158.96 381.448 1158.96 382C1158.96 382.552 1159.41 383 1159.96 383Z" fill="white"/>
<path d="M460.959 118C460.878 118.512 460.535 118.99 459.989 119.354C459.443 119.718 458.727 119.946 457.959 120C457.191 119.946 456.475 119.718 455.929 119.354C455.383 118.99 455.04 118.512 454.959 118C455.04 117.488 455.383 117.01 455.929 116.646C456.475 116.282 457.191 116.054 457.959 116C458.727 116.054 459.443 116.282 459.989 116.646C460.535 117.01 460.878 117.488 460.959 118Z" fill="white"/>
<path d="M373.959 305.979C373.959 306.239 373.908 306.496 373.808 306.736C373.709 306.976 373.563 307.194 373.379 307.378C373.196 307.562 372.978 307.707 372.738 307.807C372.497 307.906 372.24 307.957 371.98 307.957C371.708 308.021 371.423 308.013 371.154 307.936C370.885 307.859 370.64 307.715 370.442 307.517C370.244 307.319 370.1 307.074 370.023 306.805C369.946 306.536 369.938 306.251 370.002 305.979C370.002 305.454 370.21 304.951 370.581 304.58C370.952 304.208 371.456 304 371.98 304C372.24 304 372.497 304.051 372.738 304.151C372.978 304.25 373.196 304.396 373.379 304.58C373.563 304.763 373.709 304.981 373.808 305.221C373.908 305.462 373.959 305.719 373.959 305.979Z" fill="white"/>
<path d="M820.459 280C821.287 280 821.959 279.105 821.959 278C821.959 276.895 821.287 276 820.459 276C819.631 276 818.959 276.895 818.959 278C818.959 279.105 819.631 280 820.459 280Z" fill="white"/>
<path d="M875.959 508C875.959 508.265 875.839 508.52 875.624 508.707C875.41 508.895 875.119 509 874.816 509C874.245 509 873.959 508.5 873.959 508C873.959 507.5 874.245 507 874.816 507C875.119 507 875.41 507.105 875.624 507.293C875.839 507.48 875.959 507.735 875.959 508Z" fill="white"/>
<path d="M227.959 486C227.959 487.061 227.556 488.078 226.838 488.828C226.121 489.579 225.148 490 224.133 490C223.084 490.004 222.071 489.594 221.298 488.853C220.524 488.112 220.046 487.093 219.959 486C220.046 484.907 220.524 483.888 221.298 483.147C222.071 482.406 223.084 481.996 224.133 482C225.148 482 226.121 482.421 226.838 483.172C227.556 483.922 227.959 484.939 227.959 486Z" fill="white"/>
<path d="M324.959 202.81C324.963 203.858 324.623 204.87 324.005 205.646C323.388 206.421 322.539 206.905 321.626 207C320.653 207 319.721 206.559 319.033 205.773C318.345 204.987 317.959 203.921 317.959 202.81C318.042 201.765 318.465 200.795 319.144 200.09C319.823 199.385 320.708 198.996 321.626 199C322.484 199.086 323.289 199.515 323.899 200.211C324.509 200.908 324.884 201.828 324.959 202.81Z" fill="white"/>
<path d="M120.959 519.5C120.959 520.163 120.696 520.799 120.227 521.268C119.758 521.737 119.122 522 118.459 522C117.796 522 117.16 521.737 116.691 521.268C116.222 520.799 115.959 520.163 115.959 519.5C115.959 518.837 116.222 518.201 116.691 517.732C117.16 517.263 117.796 517 118.459 517C119.122 517 119.758 517.263 120.227 517.732C120.696 518.201 120.959 518.837 120.959 519.5Z" fill="white"/>
<path d="M402.459 19C403.287 19 403.959 18.3284 403.959 17.5C403.959 16.6716 403.287 16 402.459 16C401.631 16 400.959 16.6716 400.959 17.5C400.959 18.3284 401.631 19 402.459 19Z" fill="white"/>
<path d="M1208.96 52C1208.96 52.5304 1208.77 53.039 1208.43 53.414C1208.09 53.7891 1207.62 53.9998 1207.14 53.9998C1206.62 54.0078 1206.11 53.8106 1205.71 53.4438C1205.31 53.077 1205.05 52.5649 1204.96 52C1205.05 51.4351 1205.31 50.923 1205.71 50.5562C1206.11 50.1894 1206.62 49.9922 1207.14 50.0002C1207.62 50.0002 1208.09 50.2109 1208.43 50.586C1208.77 50.961 1208.96 51.4696 1208.96 52Z" fill="white"/>
<path d="M1187.96 166.5C1187.96 167.163 1187.79 167.799 1187.48 168.268C1187.17 168.737 1186.76 169 1186.32 169C1185.94 168.901 1185.59 168.594 1185.34 168.135C1185.09 167.677 1184.95 167.097 1184.96 166.5C1184.95 165.903 1185.09 165.323 1185.34 164.865C1185.59 164.406 1185.94 164.099 1186.32 164C1186.54 164 1186.75 164.065 1186.95 164.19C1187.15 164.316 1187.33 164.5 1187.48 164.732C1187.63 164.964 1187.75 165.24 1187.83 165.543C1187.92 165.847 1187.96 166.172 1187.96 166.5Z" fill="white"/>
<path d="M1090.46 80C1091.84 80 1092.96 78.8807 1092.96 77.5C1092.96 76.1193 1091.84 75 1090.46 75C1089.08 75 1087.96 76.1193 1087.96 77.5C1087.96 78.8807 1089.08 80 1090.46 80Z" fill="white"/>
<path d="M1005.96 166.176C1005.87 166.956 1005.5 167.676 1004.92 168.198C1004.33 168.719 1003.58 169.005 1002.79 169C1002.05 169 1001.33 168.702 1000.81 168.173C1000.28 167.643 999.981 166.925 999.981 166.176C999.931 165.777 999.966 165.372 1000.09 164.987C1000.2 164.603 1000.4 164.248 1000.67 163.948C1000.94 163.647 1001.26 163.407 1001.63 163.243C1002 163.08 1002.39 162.997 1002.79 163C1003.63 163 1004.44 163.335 1005.03 163.93C1005.63 164.526 1005.96 165.334 1005.96 166.176Z" fill="white"/>
<path d="M666.916 107.979C666.98 108.251 666.972 108.536 666.895 108.805C666.818 109.074 666.674 109.319 666.476 109.517C666.278 109.715 666.033 109.859 665.764 109.936C665.495 110.013 665.21 110.021 664.938 109.957C664.413 109.957 663.91 109.749 663.538 109.378C663.167 109.007 662.959 108.503 662.959 107.979C662.959 107.454 663.167 106.951 663.538 106.58C663.91 106.208 664.413 106 664.938 106C665.462 106 665.966 106.208 666.337 106.58C666.708 106.951 666.916 107.454 666.916 107.979Z" fill="white"/>
<path d="M977.959 39.5C977.964 40.3647 977.678 41.2007 977.157 41.8469C976.635 42.4932 975.915 42.9039 975.135 43C974.293 43 973.485 42.6313 972.889 41.9749C972.294 41.3185 971.959 40.4283 971.959 39.5C971.959 38.5717 972.294 37.6815 972.889 37.0251C973.485 36.3687 974.293 36 975.135 36C975.915 36.0961 976.635 36.5068 977.157 37.1531C977.678 37.7993 977.964 38.6353 977.959 39.5Z" fill="white"/>
<path d="M1335.46 199C1337.39 199 1338.96 197.209 1338.96 195C1338.96 192.791 1337.39 191 1335.46 191C1333.53 191 1331.96 192.791 1331.96 195C1331.96 197.209 1333.53 199 1335.46 199Z" fill="white"/>
<path d="M1317.96 1.84621C1317.97 2.36791 1317.74 2.87382 1317.31 3.26995C1316.89 3.66608 1316.3 3.92549 1315.65 4C1314.94 4 1314.25 3.77309 1313.75 3.36917C1313.24 2.96526 1312.96 2.41743 1312.96 1.84621C1313.05 1.32983 1313.38 0.858048 1313.87 0.51851C1314.37 0.178973 1315 -0.00523404 1315.65 0.00011323C1316.26 0.00011323 1316.85 0.194611 1317.28 0.540823C1317.72 0.887034 1317.96 1.35659 1317.96 1.84621Z" fill="white"/>
<path d="M33.959 279.5C33.959 279.898 33.801 280.279 33.5197 280.561C33.2384 280.842 32.8569 281 32.459 281C32.0612 281 31.6796 280.842 31.3983 280.561C31.117 280.279 30.959 279.898 30.959 279.5C30.959 279.102 31.117 278.721 31.3983 278.439C31.6796 278.158 32.0612 278 32.459 278C32.8569 278 33.2384 278.158 33.5197 278.439C33.801 278.721 33.959 279.102 33.959 279.5Z" fill="white"/>
<path d="M265.959 323.824C265.959 324.666 265.68 325.474 265.184 326.07C264.687 326.665 264.014 327 263.312 327C262.662 326.913 262.062 326.54 261.628 325.954C261.193 325.367 260.955 324.608 260.959 323.824C261.023 323.101 261.291 322.427 261.72 321.913C262.148 321.399 262.71 321.077 263.312 321C263.966 320.995 264.598 321.281 265.087 321.802C265.576 322.324 265.886 323.044 265.959 323.824Z" fill="white"/>
<path d="M186.459 389C188.392 389 189.959 387.433 189.959 385.5C189.959 383.567 188.392 382 186.459 382C184.526 382 182.959 383.567 182.959 385.5C182.959 387.433 184.526 389 186.459 389Z" fill="white"/>
<path d="M6.95898 371.176C6.87665 371.956 6.52476 372.676 5.97082 373.198C5.41688 373.719 4.70022 374.005 3.95909 374C3.21795 374.005 2.50129 373.719 1.94735 373.198C1.39341 372.676 1.04132 371.956 0.958984 371.176C0.958984 370.334 1.27508 369.526 1.83769 368.93C2.40031 368.335 3.16343 368 3.95909 368C4.75474 368 5.51787 368.335 6.08048 368.93C6.64309 369.526 6.95898 370.334 6.95898 371.176Z" fill="white"/>
<path d="M892.959 376.5C892.959 376.898 892.801 377.279 892.52 377.561C892.238 377.842 891.857 378 891.459 378C891.061 378 890.68 377.842 890.398 377.561C890.117 377.279 889.959 376.898 889.959 376.5C889.959 376.102 890.117 375.721 890.398 375.439C890.68 375.158 891.061 375 891.459 375C891.857 375 892.238 375.158 892.52 375.439C892.801 375.721 892.959 376.102 892.959 376.5Z" fill="white"/>
<path d="M295.959 58.6923C295.959 59.3043 295.748 59.8913 295.373 60.3241C294.998 60.7569 294.489 61 293.959 61C293.429 61 292.92 60.7569 292.545 60.3241C292.17 59.8913 291.959 59.3043 291.959 58.6923C291.959 57.1538 292.626 56 293.959 56C295.292 56 295.959 57.1538 295.959 58.6923Z" fill="white"/>
<path d="M1303.96 290.834C1303.96 291.381 1303.85 291.923 1303.64 292.428C1303.43 292.934 1303.13 293.393 1302.74 293.78C1302.35 294.167 1301.89 294.474 1301.39 294.683C1300.88 294.892 1300.34 295 1299.79 295C1299.26 295.002 1298.73 294.893 1298.25 294.68C1297.76 294.467 1297.32 294.154 1296.96 293.762C1296.6 293.37 1296.33 292.907 1296.16 292.402C1295.99 291.898 1295.93 291.364 1295.97 290.834C1295.97 289.822 1296.38 288.85 1297.09 288.134C1297.81 287.418 1298.78 287.016 1299.79 287.016C1300.32 286.967 1300.86 287.03 1301.36 287.2C1301.87 287.371 1302.33 287.644 1302.72 288.004C1303.11 288.363 1303.43 288.801 1303.64 289.288C1303.85 289.776 1303.96 290.302 1303.96 290.834Z" fill="white"/>
<path d="M457.959 243.143C457.959 243.37 457.824 243.588 457.582 243.749C457.341 243.91 457.014 244 456.673 244C455.816 244 454.959 243.714 454.959 243.143C454.959 242.84 455.14 242.549 455.461 242.335C455.783 242.12 456.219 242 456.673 242C457.53 242 457.959 242.571 457.959 243.143Z" fill="white"/>
<path d="M678.959 276C679.511 276 679.959 275.776 679.959 275.5C679.959 275.224 679.511 275 678.959 275C678.407 275 677.959 275.224 677.959 275.5C677.959 275.776 678.407 276 678.959 276Z" fill="white"/>
<path d="M555.959 380C557.064 380 557.959 379.105 557.959 378C557.959 376.895 557.064 376 555.959 376C554.854 376 553.959 376.895 553.959 378C553.959 379.105 554.854 380 555.959 380Z" fill="white"/>
<path d="M76.959 416C77.5113 416 77.959 415.552 77.959 415C77.959 414.448 77.5113 414 76.959 414C76.4067 414 75.959 414.448 75.959 415C75.959 415.552 76.4067 416 76.959 416Z" fill="white"/>
<path d="M420.459 395C421.84 395 422.959 393.657 422.959 392C422.959 390.343 421.84 389 420.459 389C419.078 389 417.959 390.343 417.959 392C417.959 393.657 419.078 395 420.459 395Z" fill="white"/>
<path d="M814.959 28C814.959 28.7957 814.643 29.5587 814.08 30.1213C813.518 30.6839 812.755 31 811.959 31C811.163 31 810.4 30.6839 809.838 30.1213C809.275 29.5587 808.959 28.7957 808.959 28C808.959 27.2044 809.275 26.4413 809.838 25.8787C810.4 25.3161 811.163 25 811.959 25C812.755 25 813.518 25.3161 814.08 25.8787C814.643 26.4413 814.959 27.2044 814.959 28Z" fill="white"/>
<path d="M676.959 15.3334C676.963 16.2507 676.623 17.1362 676.005 17.815C675.388 18.4938 674.539 18.9166 673.626 19C672.653 19 671.721 18.6137 671.033 17.9261C670.345 17.2384 669.959 16.3058 669.959 15.3334C670.042 14.4198 670.465 13.5706 671.144 12.9535C671.823 12.3365 672.708 11.9962 673.626 12C674.484 12.0751 675.289 12.4504 675.899 13.06C676.509 13.6696 676.884 14.4745 676.959 15.3334Z" fill="white"/>
<path d="M1362.46 528C1363.84 528 1364.96 527.105 1364.96 526C1364.96 524.895 1363.84 524 1362.46 524C1361.08 524 1359.96 524.895 1359.96 526C1359.96 527.105 1361.08 528 1362.46 528Z" fill="white"/>
<path d="M924.959 225.473C924.959 227.122 924.42 227.947 923.611 227.947C923.388 228.026 923.156 228.017 922.936 227.92C922.716 227.824 922.516 227.644 922.354 227.396C922.192 227.149 922.074 226.843 922.011 226.506C921.948 226.17 921.942 225.814 921.994 225.473C921.994 225.149 922.036 224.827 922.117 224.527C922.198 224.227 922.317 223.954 922.467 223.724C922.618 223.495 922.796 223.313 922.992 223.188C923.188 223.064 923.399 223 923.611 223C923.992 223.098 924.337 223.402 924.584 223.855C924.831 224.309 924.964 224.883 924.959 225.473Z" fill="white"/>
<path d="M183.459 20C185.392 20 186.959 18.433 186.959 16.5C186.959 14.567 185.392 13 183.459 13C181.526 13 179.959 14.567 179.959 16.5C179.959 18.433 181.526 20 183.459 20Z" fill="white"/>
<path d="M233.459 152C234.287 152 234.959 151.328 234.959 150.5C234.959 149.672 234.287 149 233.459 149C232.631 149 231.959 149.672 231.959 150.5C231.959 151.328 232.631 152 233.459 152Z" fill="white"/>
<path d="M1188.96 266.5C1188.96 266.898 1188.8 267.279 1188.52 267.561C1188.24 267.842 1187.86 268 1187.46 268C1187.06 268 1186.68 267.842 1186.4 267.561C1186.12 267.279 1185.96 266.898 1185.96 266.5C1185.96 266.102 1186.12 265.721 1186.4 265.439C1186.68 265.158 1187.06 265 1187.46 265C1187.86 265 1188.24 265.158 1188.52 265.439C1188.8 265.721 1188.96 266.102 1188.96 266.5Z" fill="white"/>
<path d="M104.959 71C106.064 71 106.959 70.3284 106.959 69.5C106.959 68.6716 106.064 68 104.959 68C103.854 68 102.959 68.6716 102.959 69.5C102.959 70.3284 103.854 71 104.959 71Z" fill="white"/>
<path d="M327.959 505C327.959 505.265 327.854 505.52 327.666 505.707C327.479 505.895 327.224 506 326.959 506C326.694 506 326.439 505.895 326.252 505.707C326.064 505.52 325.959 505.265 325.959 505C325.959 504.735 326.064 504.48 326.252 504.293C326.439 504.105 326.694 504 326.959 504C327.224 504 327.479 504.105 327.666 504.293C327.854 504.48 327.959 504.735 327.959 505Z" fill="white"/>
<path d="M485.959 427.165C485.961 427.566 485.896 427.963 485.768 428.329C485.639 428.696 485.45 429.023 485.213 429.289C484.976 429.556 484.697 429.755 484.395 429.874C484.092 429.993 483.773 430.028 483.459 429.978C483.145 430.028 482.826 429.993 482.523 429.874C482.221 429.755 481.942 429.556 481.705 429.289C481.468 429.023 481.279 428.696 481.15 428.329C481.022 427.963 480.957 427.566 480.959 427.165C480.959 426.325 481.222 425.52 481.691 424.927C482.16 424.333 482.796 424 483.459 424C484.122 424 484.758 424.333 485.227 424.927C485.696 425.52 485.959 426.325 485.959 427.165Z" fill="white"/>
<path d="M27.9425 151.826C27.9929 152.357 27.9274 152.892 27.75 153.397C27.5725 153.902 27.2871 154.366 26.912 154.759C26.537 155.152 26.0805 155.466 25.5719 155.679C25.0634 155.893 24.5141 156.002 23.9591 156C23.404 156.002 22.8545 155.893 22.346 155.679C21.8375 155.466 21.3812 155.152 21.0061 154.759C20.6311 154.366 20.3457 153.902 20.1682 153.397C19.9907 152.892 19.925 152.357 19.9755 151.826C19.9755 151.324 20.0785 150.826 20.2787 150.362C20.4789 149.898 20.7724 149.476 21.1423 149.121C21.5122 148.765 21.9513 148.484 22.4346 148.291C22.9179 148.099 23.436 148 23.9591 148C24.4822 148 25.0002 148.099 25.4835 148.291C25.9668 148.484 26.406 148.765 26.7759 149.121C27.1458 149.476 27.439 149.898 27.6392 150.362C27.8394 150.826 27.9425 151.324 27.9425 151.826Z" fill="white"/>
<path d="M1039.96 357.489C1039.96 358.414 1039.64 359.302 1039.08 359.956C1038.52 360.61 1037.76 360.978 1036.97 360.978C1036.56 361.034 1036.15 360.982 1035.77 360.827C1035.38 360.671 1035.04 360.416 1034.75 360.08C1034.46 359.744 1034.24 359.337 1034.11 358.888C1033.97 358.439 1033.93 357.961 1033.98 357.489C1033.98 356.564 1034.29 355.676 1034.85 355.022C1035.41 354.368 1036.18 354 1036.97 354C1037.74 354.079 1038.46 354.471 1039.01 355.11C1039.55 355.748 1039.89 356.59 1039.96 357.489Z" fill="white"/>
</svg>
