<svg width="670" height="167" viewBox="0 0 670 167" fill="none" xmlns="http://www.w3.org/2000/svg">
<path d="M39.2868 18.7401L4.12924 142.63C3.5601 144.635 6.05529 146.065 7.4975 144.559L51.1425 99.0008L70.517 122.242C71.227 123.094 72.4943 123.205 73.3421 122.491L98.617 101.189L140.635 154.486C141.868 156.05 144.38 155.047 144.197 153.064L141.771 126.746C161.96 149.525 190.54 143.917 210.126 137.721L191.423 115.963L206.552 106.633L220.883 130.151C222.936 133.521 227.902 133.296 229.641 129.753L240.029 108.592L236.266 131.202C235.705 134.574 238.618 137.502 241.993 136.959L275.216 131.613L342.453 139.082C344.629 139.324 346.323 137.229 345.63 135.152L339.909 117.999C363.708 132.827 381.206 133.067 396.239 130.773L449.776 128.47L485.455 147.378C486.995 148.194 488.77 146.786 488.325 145.1L481.41 118.903L506.168 100.278L522.477 117.938C523.254 118.78 524.578 118.798 525.377 117.978L542.164 100.771L580.02 146.472C580.805 147.42 582.252 147.44 583.064 146.515L590.152 138.433L596.552 149.307C597.365 150.688 599.39 150.6 600.08 149.154L622.657 101.875L659.875 100.443C660.901 100.404 661.73 99.594 661.794 98.5695L666.665 20.7003C666.74 19.5116 665.765 18.5217 664.575 18.5777L577.662 22.6643C576.81 22.7044 576.077 23.2807 575.837 24.0994L570.992 40.6244L559.637 19.4498C558.989 18.2412 557.344 18.0286 556.41 19.0328L524.818 52.9923L495.296 23.632C494.305 22.6462 492.634 22.9555 492.061 24.2308L470.035 73.2796L442.339 29.0312C441.563 27.7917 439.763 27.7766 438.967 29.003L391.124 102.664C362.47 77.347 380.312 45.3064 393.773 25.8855C395.52 23.3649 393.961 19.8802 390.9 19.6906C319.56 15.2708 314.931 71.922 327.198 96.823L288.546 38.4894C287.36 36.699 284.732 36.6987 283.545 38.4887L243.666 98.641L245.276 54.1589L278.78 28.4864C281.824 26.1542 280.16 21.29 276.325 21.3114L169.034 21.911C165.38 21.9314 163.664 26.4357 166.378 28.8819L190.815 50.9117C159.88 45.987 140.073 68.2175 136.409 80.1684L118.712 19.2304C118.078 17.0489 115.344 16.3357 113.726 17.9297L76.2505 54.841L44.4541 17.6109C42.8985 15.7894 39.9408 16.4358 39.2868 18.7401Z" fill="#6ABF41"/>
<path fill-rule="evenodd" clip-rule="evenodd" d="M206.995 138.681C188.687 144.098 163.913 147.888 145.1 130.181C143.967 129.115 142.857 127.972 141.77 126.746L144.197 153.064C144.38 155.047 141.868 156.05 140.635 154.486L98.6166 101.189L73.3417 122.49C72.4939 123.205 71.2265 123.093 70.5166 122.242L51.1421 99.0007L7.49707 144.559C6.05487 146.065 3.55967 144.635 4.12882 142.63L39.2864 18.74C39.9403 16.4357 42.8981 15.7893 44.4537 17.6107L76.2501 54.8408L113.725 17.9296C115.344 16.3355 118.078 17.0487 118.711 19.2303L136.408 80.1682C136.822 78.8194 137.441 77.3396 138.259 75.7827C144.277 64.3228 161.046 48.6842 185.69 50.3309C187.362 50.4426 189.071 50.634 190.815 50.9116L166.377 28.8818C163.664 26.4356 165.38 21.9313 169.033 21.9109L276.325 21.3113C280.159 21.2898 281.824 26.1541 278.78 28.4863L245.275 54.1587L243.665 98.6408L283.545 38.4885C284.731 36.6985 287.36 36.6989 288.546 38.4892L327.198 96.8228C325.588 93.5555 324.27 89.7416 323.354 85.5907C317.294 58.1067 328.92 15.8506 390.899 19.6904C393.96 19.8801 395.52 23.3647 393.772 25.8854C380.676 44.7795 363.434 75.6181 388.894 100.589C389.604 101.285 390.347 101.977 391.124 102.663L438.966 29.0028C439.763 27.7765 441.563 27.7916 442.339 29.0311L470.034 73.2794L492.061 24.2306C492.633 22.9554 494.304 22.6461 495.295 23.6319L524.818 52.9922L556.409 19.0326C557.344 18.0285 558.988 18.241 559.636 19.4497L570.991 40.6242L575.836 24.0993C576.076 23.2805 576.809 22.7042 577.662 22.6641L664.575 18.5775C665.765 18.5216 666.739 19.5115 666.665 20.7002L661.794 98.5694C661.729 99.5939 660.9 100.404 659.874 100.443L622.656 101.875L600.08 149.154C599.389 150.6 597.364 150.687 596.551 149.307L590.152 138.433L583.063 146.515C582.252 147.44 580.805 147.42 580.019 146.472L542.164 100.771L525.377 117.978C524.577 118.798 523.253 118.779 522.476 117.938L506.167 100.277L481.41 118.903L488.325 145.1C488.77 146.786 486.995 148.194 485.454 147.378L449.775 128.47L396.239 130.773C382.05 132.938 365.665 132.846 343.859 120.361C342.562 119.618 341.245 118.832 339.909 117.999L345.629 135.151C346.322 137.228 344.629 139.324 342.452 139.082L275.216 131.613L241.992 136.959C238.617 137.502 235.705 134.574 236.266 131.202L240.028 108.592L229.641 129.753C227.901 133.295 222.936 133.521 220.882 130.151L206.552 106.633L191.423 115.963L210.126 137.721C209.106 138.044 208.061 138.365 206.995 138.681ZM195.988 116.672L215.363 139.211L211.031 140.582C193.194 146.223 166.41 151.916 145.502 134.544L147.184 152.788C147.641 157.746 141.361 160.253 138.279 156.343L98.1797 105.48L75.2751 124.784C73.1555 126.571 69.9872 126.292 68.2122 124.163L50.9867 103.499L9.6634 146.635C6.05793 150.398 -0.180102 146.825 1.24278 141.811L36.4004 17.921C37.7082 13.3123 43.6238 12.0195 46.735 15.6624L76.4396 50.4433L111.62 15.7923C114.857 12.6041 120.325 14.0305 121.592 18.3936L137.099 71.7899C140.314 66.6582 145.258 61.1986 151.675 56.7467C159.623 51.2325 169.941 47.1851 182.229 47.2106L164.369 31.11C159.62 26.8292 162.623 18.9466 169.017 18.9109L276.308 18.3113C283.018 18.2738 285.931 26.7862 280.605 30.8676L248.222 55.6801L247.048 88.1086L281.044 36.8308C283.418 33.2508 288.674 33.2515 291.047 36.8321L319.321 79.5034C318.135 68.7071 319.549 56.6175 325.024 45.8968C334.232 27.8694 354.519 14.4308 391.085 16.6962C396.656 17.0413 399.214 23.3011 396.238 27.5944C389.544 37.2518 382.04 49.6772 379.603 62.6187C377.373 74.4628 379.361 86.7748 390.563 98.0191L436.45 27.3687C438.442 24.303 442.942 24.3407 444.882 27.4394L469.598 66.9279L489.324 23.0017C490.756 19.8135 494.933 19.0403 497.411 21.5047L524.734 48.6778L554.213 16.9893C556.548 14.4789 560.66 15.0104 562.28 18.0319L570.173 32.7509L572.957 23.2553C573.557 21.2086 575.39 19.7676 577.521 19.6674L664.434 15.5808C667.408 15.441 669.845 17.9156 669.659 20.8875L664.788 98.7567C664.627 101.318 662.554 103.342 659.99 103.441L624.583 104.803L602.787 150.447C601.061 154.061 595.998 154.28 593.966 150.828L589.671 143.531L585.319 148.493C583.289 150.806 579.672 150.755 577.709 148.386L541.982 105.254L527.524 120.073C525.525 122.123 522.215 122.077 520.272 119.973L505.803 104.305L484.825 120.088L491.225 144.335C492.338 148.549 487.901 152.07 484.05 150.029L449.09 131.502L396.529 133.763C382.461 135.891 366.253 135.805 345.262 124.568L348.475 134.202C349.861 138.356 346.473 142.547 342.121 142.064L275.29 134.64L242.469 139.921C237.069 140.79 232.409 136.104 233.306 130.709L233.713 128.264L232.334 131.075C229.551 136.743 221.606 137.104 218.321 131.712L205.56 110.769L195.988 116.672Z" fill="#EDE8E3"/>
<path d="M497.839 40.2493C496.161 38.6402 493.37 39.4677 492.841 41.7311L477.435 107.605C476.988 109.513 479.268 110.858 480.723 109.545L505.048 87.5786L523.578 106.98L544.338 88.1175L577.625 132.494C578.914 134.213 581.636 132.967 581.179 130.868L561.164 38.9795C560.678 36.7474 557.975 35.8561 556.256 37.3613L524.147 65.4842L497.839 40.2493Z" fill="#F2709C"/>
<path fill-rule="evenodd" clip-rule="evenodd" d="M523.932 74.9778L498.059 50.1598L487.889 93.6414L505.409 77.8213L523.924 97.2078L545.323 77.7649L569.456 109.938L555.768 47.0945L523.932 74.9778ZM561.164 38.9795C560.678 36.7474 557.975 35.8561 556.256 37.3613L524.147 65.4842L497.839 40.2493C496.161 38.6402 493.37 39.4677 492.841 41.7311L477.435 107.605C476.988 109.513 479.268 110.858 480.723 109.545L505.048 87.5786L523.578 106.98L544.338 88.1175L577.625 132.494C578.914 134.213 581.636 132.967 581.179 130.868L561.164 38.9795Z" fill="#2D2D31"/>
<path d="M360.895 68.7656C362.049 53.4794 374.54 39.3988 381.665 32.5361C383.519 30.7501 382.598 27.6338 380.025 27.5512C366.319 27.1114 335.478 30.6626 330.757 70.6764C326.941 103.031 366.78 118.83 384.927 124.307C387.692 125.142 389.672 121.946 387.859 119.699C378.171 107.689 359.827 82.9201 360.895 68.7656Z" fill="#F2709C"/>
<path fill-rule="evenodd" clip-rule="evenodd" d="M376.771 27.5312C376.771 27.5312 376.771 27.5312 376.771 27.5312C361.961 27.823 335.134 33.5797 330.757 70.6764C327.148 101.275 362.585 117.067 381.792 123.323C381.846 123.341 381.901 123.359 381.955 123.377C382.281 123.482 382.602 123.585 382.917 123.685C383.613 123.906 384.284 124.113 384.927 124.307C387.692 125.142 389.672 121.946 387.859 119.699C387.498 119.251 387.124 118.785 386.74 118.302C386.517 118.022 386.29 117.737 386.06 117.446C386.022 117.397 385.983 117.348 385.944 117.298C375.95 104.628 359.894 82.0338 360.895 68.7656C361.946 54.8442 372.4 41.9229 379.64 34.5427C379.641 34.5417 379.642 34.5406 379.643 34.5396C379.698 34.4841 379.752 34.429 379.806 34.3742C380.456 33.7148 381.079 33.101 381.665 32.5361C383.519 30.7501 382.598 27.6338 380.025 27.5512C379.046 27.5198 377.981 27.5088 376.843 27.5299C376.819 27.5303 376.795 27.5308 376.771 27.5312ZM369.588 35.171C365.036 35.896 360.109 37.3328 355.546 39.9919C347.573 44.6371 339.831 53.5071 337.709 71.4965C336.22 84.1229 343.003 93.9926 353.765 101.94C360.018 106.559 367.212 110.193 373.87 112.95C370.666 108.535 367.33 103.632 364.337 98.6312C361.386 93.6997 358.674 88.5197 356.757 83.5067C354.882 78.6028 353.535 73.2724 353.915 68.2389C354.617 58.9395 358.703 50.4358 363.202 43.6315C365.247 40.5379 367.445 37.6945 369.588 35.171Z" fill="#2D2D31"/>
<path fill-rule="evenodd" clip-rule="evenodd" d="M282.547 50.894C283.598 48.8059 286.528 48.6694 287.769 50.6508L334.425 125.147C335.757 127.274 334.045 129.998 331.551 129.721L275.195 123.462L248.453 129.53C245.98 130.091 243.969 127.52 245.11 125.255L282.547 50.894ZM286.707 96.2535L284.733 101.517L291.053 102.671L286.707 96.2535Z" fill="#F2709C"/>
<path fill-rule="evenodd" clip-rule="evenodd" d="M274.796 116.374L324.101 121.851L285.606 60.3849L255.176 120.826L274.796 116.374ZM288.799 54.0418C288.799 54.043 288.798 54.0443 288.798 54.0455L288.799 54.0418ZM275.238 106.898L284.91 81.115L306.199 112.553L275.238 106.898ZM275.195 123.462L331.551 129.721C334.045 129.998 335.757 127.274 334.425 125.147L287.769 50.6508C286.528 48.6694 283.598 48.8059 282.547 50.894L245.11 125.255C243.969 127.52 245.98 130.091 248.453 129.53L275.195 123.462ZM284.733 101.517L291.053 102.671L286.707 96.2535L284.733 101.517Z" fill="#2D2D31"/>
<path fill-rule="evenodd" clip-rule="evenodd" d="M443.304 44.6078C442.662 43.0846 440.554 42.9541 439.728 44.3864L396.143 120.029C395.359 121.39 396.378 123.082 397.947 123.026L451.413 118.492C451.413 118.492 472.902 132.978 477.676 135.89C479.313 137.095 481.495 135.375 480.705 133.503L443.304 44.6078ZM437.959 94.7929L432.433 95.1317L435.923 89.1506L437.959 94.7929Z" fill="#F2709C"/>
<path fill-rule="evenodd" clip-rule="evenodd" d="M480.705 133.503L443.304 44.6078C442.662 43.0846 440.554 42.9541 439.728 44.3864L396.143 120.029C395.359 121.39 396.378 123.082 397.947 123.026L451.413 118.492C451.413 118.492 466.622 128.745 474.293 133.733C474.482 133.856 474.667 133.976 474.846 134.092C475.507 134.52 476.101 134.902 476.611 135.225C476.612 135.226 476.614 135.227 476.615 135.228C477.026 135.488 477.383 135.711 477.676 135.89C479.313 137.095 481.495 135.375 480.705 133.503ZM470.109 123.789C468.781 122.907 467.423 122.002 466.086 121.109C463.108 119.12 460.277 117.222 458.191 115.82C457.148 115.119 456.291 114.543 455.696 114.142L454.767 113.517C454.767 113.517 454.766 113.516 451.413 118.492L454.766 113.516L453.013 112.334L405.163 116.393L440.901 54.3686L470.109 123.789ZM421.59 101.808L437.211 75.0396L446.321 100.292L421.59 101.808ZM437.959 94.7929L435.923 89.1506L432.433 95.1317L437.959 94.7929Z" fill="#2D2D31"/>
<path d="M144.343 102.307C143.993 58.0392 183.882 56.984 193.892 57.4156C194.915 57.4597 195.444 58.5899 194.863 59.4325L177.93 83.9547C177.477 84.6109 177.686 85.5146 178.381 85.9053L196.803 96.26C197.718 96.7742 197.725 98.0886 196.817 98.6138L176.291 110.475C175.534 110.913 175.384 111.942 175.984 112.578L194.932 132.652C195.642 133.405 195.278 134.618 194.262 134.81C184.292 136.698 144.654 141.722 144.343 102.307Z" fill="#F2709C"/>
<path fill-rule="evenodd" clip-rule="evenodd" d="M156.508 80.1972C153.447 85.2248 151.263 92.2639 151.342 102.252C151.411 110.896 153.609 116.391 156.401 119.986C159.218 123.614 163.137 125.945 167.734 127.355C172.412 128.791 177.454 129.17 181.932 129.077L170.894 117.383C167.192 113.462 168.12 107.113 172.789 104.415L184.739 97.5089L174.951 92.0074C170.664 89.5976 169.376 84.0243 172.17 79.9773L182.509 65.0043C178.076 65.661 173.082 66.9364 168.431 69.3255C163.78 71.715 159.572 75.166 156.508 80.1972ZM187.72 57.4564C172.968 58.2403 144.044 64.5832 144.343 102.307C144.608 135.94 173.509 137.216 188.177 135.693C188.353 135.675 188.527 135.656 188.699 135.637C190.033 135.49 191.239 135.321 192.282 135.154C193.029 135.035 193.694 134.918 194.262 134.81C195.278 134.618 195.642 133.405 194.932 132.652L175.984 112.578C175.384 111.942 175.534 110.913 176.291 110.475L196.817 98.6138C197.725 98.0886 197.718 96.7742 196.803 96.26L178.381 85.9053C177.686 85.5146 177.477 84.6109 177.93 83.9547L194.863 59.4325C195.444 58.5899 194.915 57.4597 193.892 57.4156C193.313 57.3906 192.633 57.3706 191.866 57.3636C190.813 57.3541 189.595 57.3694 188.25 57.4304C188.075 57.4383 187.899 57.4469 187.72 57.4564Z" fill="#2D2D31"/>
<path d="M45.8363 33.5702C44.7801 32.4458 42.9024 32.89 42.4619 34.3685L16.8896 120.202C16.5849 121.224 17.8796 121.949 18.5923 121.155L51.4866 84.4915C53.427 86.9505 67.7218 104.682 72.1587 110.184C72.8732 111.07 74.1812 111.181 75.0357 110.429L101.682 86.9833L135.544 135.864C136.122 136.808 137.578 136.254 137.382 135.165L115.526 35.9781C115.228 34.3239 113.146 33.7528 112.046 35.0232L76.5648 68.3463L45.8363 33.5702Z" fill="#F2709C"/>
<path fill-rule="evenodd" clip-rule="evenodd" d="M76.0972 78.3887L46.5975 45.0033L31.2287 96.5887L51.8302 73.6265L56.9819 80.1554C58.5441 82.1352 68.3655 94.3253 74.3308 101.725L102.96 76.5352L123.981 106.88L110.569 46.0132L76.0972 78.3887ZM112.046 35.0232C113.146 33.7528 115.228 34.3239 115.526 35.9781L137.382 135.165C137.578 136.254 136.122 136.808 135.544 135.864L101.682 86.9833L75.0357 110.429C74.1812 111.181 72.8732 111.07 72.1587 110.184C69.0437 106.321 61.0695 96.4301 55.9231 90.0286C53.7393 87.3122 52.0647 85.2241 51.4866 84.4915L18.5923 121.155C17.8796 121.949 16.5849 121.224 16.8896 120.202L42.4619 34.3685C42.9024 32.89 44.7801 32.4458 45.8363 33.5702L76.5648 68.3463L112.046 35.0232Z" fill="#2D2D31"/>
<path d="M208.038 53.0223C207.929 52.1723 207.44 51.4175 206.71 50.9697L179.431 34.2504C176.996 32.7579 178.053 29.0079 180.909 29.0068L260.7 26.9046C263.597 26.9034 264.625 30.7392 262.116 32.1868L238.071 50.9942C237.377 51.3946 236.885 52.0704 236.717 52.8539L227.016 117.021C226.35 120.134 221.846 119.947 221.441 116.789L208.038 53.0223Z" fill="#F2709C"/>
<path fill-rule="evenodd" clip-rule="evenodd" d="M180.909 29.0068C178.053 29.0079 176.996 32.7579 179.431 34.2504L206.71 50.9697C207.44 51.4175 207.929 52.1723 208.038 53.0223L221.441 116.789C221.846 119.947 226.35 120.134 227.016 117.021L236.717 52.8539C236.885 52.0704 237.377 51.3946 238.071 50.9942L262.116 32.1868C264.625 30.7392 263.597 26.9034 260.7 26.9046L180.909 29.0068ZM248.131 34.2382L195.087 35.6357L210.368 45.0015C212.802 46.4937 214.463 48.9673 214.928 51.7727L223.579 92.9294L229.828 51.5973L229.872 51.3894C230.41 48.8777 231.906 46.6848 234.029 45.2686L248.131 34.2382Z" fill="#2D2D31"/>
<path fill-rule="evenodd" clip-rule="evenodd" d="M582.664 37.2363C582.279 34.3057 584.506 31.6828 587.461 31.5879L649.785 29.5871C652.635 29.4956 654.984 31.8021 654.945 34.6531L654.337 78.976C654.26 84.6313 649.906 89.3061 644.271 89.7856L615.98 92.1925C615.59 92.2257 615.256 92.4831 615.124 92.8514L599.498 136.422C598.79 138.397 595.906 138.088 595.632 136.007L582.664 37.2363ZM616.978 53.6895C616.489 53.763 616.127 54.1829 616.126 54.6774L616.116 66.3632C616.115 66.9287 616.583 67.3821 617.148 67.3635L629.043 66.9735C629.572 66.9562 629.996 66.53 630.01 66.0012L630.367 52.8646C630.384 52.2423 629.834 51.756 629.219 51.8486L616.978 53.6895Z" fill="#F2709C"/>
<path fill-rule="evenodd" clip-rule="evenodd" d="M588.756 37.5494L599.43 118.839L609.476 90.8259C610.4 88.2482 612.743 86.4463 615.471 86.2141L643.762 83.8072C646.324 83.5893 648.303 81.4643 648.338 78.8937L648.931 35.6176L588.756 37.5494ZM599.498 136.422C598.79 138.397 595.906 138.088 595.632 136.007L582.664 37.2363C582.279 34.3057 584.506 31.6828 587.461 31.5879L649.785 29.5871C652.635 29.4956 654.984 31.8021 654.945 34.6531L654.337 78.976C654.26 84.6313 649.906 89.3061 644.271 89.7856L615.98 92.1925C615.59 92.2257 615.256 92.4831 615.124 92.8514L599.498 136.422ZM610.116 66.3577L610.126 54.6719C610.13 51.2104 612.662 48.271 616.085 47.7562L628.326 45.9153C632.635 45.2672 636.483 48.6715 636.365 53.0275L636.008 66.1641C635.907 69.8659 632.941 72.8489 629.24 72.9703L617.345 73.3603C613.389 73.4901 610.112 70.3161 610.116 66.3577ZM616.126 54.6774C616.127 54.1829 616.489 53.763 616.978 53.6895L629.219 51.8486C629.834 51.756 630.384 52.2423 630.367 52.8646L630.01 66.0012C629.996 66.53 629.572 66.9562 629.043 66.9735L617.148 67.3635C616.583 67.3821 616.115 66.9287 616.116 66.3632L616.126 54.6774Z" fill="#2D2D31"/>
</svg>
