<svg width="1440" height="357" viewBox="0 0 1440 357" fill="none" xmlns="http://www.w3.org/2000/svg">
<g clip-path="url(#clip0_4727_1027)">
<path opacity="0.05" d="M1537.39 309.93C1511.02 306.042 1462.2 281.634 1410.81 291.269C1359.42 300.904 1340.77 357.192 1290.73 356.178C1240.7 355.164 1220.69 292.148 1170.66 286.401C1120.62 280.654 1100.61 325.38 1050.58 328.592C1000.55 331.803 980.535 296.069 930.503 301.817C880.471 307.564 860.458 364.461 810.426 356.178C760.394 347.895 740.381 266.793 690.349 262.06C640.317 257.327 620.304 334.643 570.272 333.46C520.24 332.276 500.227 259.423 450.195 256.38C400.163 253.338 380.15 319.193 330.118 318.855C280.086 318.517 260.073 254.757 210.041 254.757C160.009 254.757 139.996 321.053 89.9644 318.855C39.9323 316.658 28.7793 311.992 -30.1127 244.21C-89.0045 176.427 -585.677 130.247 -192.717 -6.5017C200.243 -143.25 1429.26 -327.666 1856.1 -412.183" fill="url(#paint0_linear_4727_1027)"/>
<path opacity="0.29" d="M1537.39 258.004C1511.02 254.116 1462.2 229.707 1410.81 239.342C1359.42 248.977 1340.77 305.265 1290.73 304.251C1240.7 303.237 1220.69 240.221 1170.66 234.474C1120.62 228.727 1100.61 273.453 1050.58 276.665C1000.55 279.876 980.535 244.143 930.503 249.89C880.471 255.637 860.458 312.534 810.426 304.251C760.394 295.969 740.381 214.866 690.349 210.133C640.317 205.4 620.304 282.716 570.272 281.533C520.24 280.35 500.227 207.496 450.195 204.453C400.163 201.411 380.15 267.266 330.118 266.928C280.086 266.59 260.073 202.831 210.041 202.831C160.009 202.831 139.996 269.126 89.9644 266.928C39.9323 264.731 28.7793 260.066 -30.1127 192.283C-89.0045 124.5 -585.677 78.3201 -192.717 -58.4285C200.243 -195.177 1429.26 -379.593 1856.1 -464.11" fill="url(#paint1_linear_4727_1027)"/>
<path opacity="0.53" d="M1537.39 206.075C1511.02 202.188 1462.2 177.779 1410.81 187.414C1359.42 197.049 1340.77 253.337 1290.73 252.323C1240.7 251.309 1220.69 188.293 1170.66 182.546C1120.62 176.799 1100.61 221.525 1050.58 224.737C1000.55 227.948 980.535 192.215 930.503 197.962C880.471 203.709 860.458 260.606 810.426 252.323C760.394 244.04 740.381 162.938 690.349 158.205C640.317 153.472 620.304 230.788 570.272 229.605C520.24 228.422 500.227 155.568 450.195 152.525C400.163 149.483 380.15 215.338 330.118 215C280.086 214.662 260.073 150.903 210.041 150.903C160.009 150.903 139.996 217.198 89.9644 215C39.9323 212.803 28.7793 208.138 -30.1127 140.355C-89.0045 72.5722 -585.677 26.392 -192.717 -110.357C200.243 -247.105 1429.26 -431.521 1856.1 -516.038" fill="url(#paint2_linear_4727_1027)"/>
<path opacity="0.76" d="M1537.39 154.149C1511.02 150.261 1462.2 125.852 1410.81 135.487C1359.42 145.122 1340.77 201.411 1290.73 200.396C1240.7 199.382 1220.69 136.366 1170.66 130.619C1120.62 124.872 1100.61 169.598 1050.58 172.81C1000.55 176.022 980.535 140.288 930.503 146.035C880.471 151.782 860.458 208.679 810.426 200.396C760.394 192.114 740.381 111.011 690.349 106.278C640.317 101.545 620.304 178.861 570.272 177.678C520.24 176.495 500.227 103.641 450.195 100.599C400.163 97.556 380.15 163.412 330.118 163.074C280.086 162.736 260.073 98.9759 210.041 98.9759C160.009 98.9759 139.996 165.271 89.9644 163.074C39.9323 160.876 28.7793 156.211 -30.1127 88.4281C-89.0045 20.6454 -585.677 -25.5347 -192.717 -162.283C200.243 -299.032 1429.26 -483.448 1856.1 -567.965" fill="url(#paint3_linear_4727_1027)"/>
<path d="M1537.39 102.221C1511.02 98.3335 1462.2 73.925 1410.81 83.5599C1359.42 93.1948 1340.77 149.483 1290.73 148.469C1240.7 147.455 1220.69 84.4389 1170.66 78.6917C1120.62 72.9445 1100.61 117.671 1050.58 120.883C1000.55 124.094 980.535 88.3604 930.503 94.1076C880.471 99.8547 860.458 156.752 810.426 148.469C760.394 140.186 740.381 59.0837 690.349 54.3508C640.317 49.6178 620.304 126.934 570.272 125.751C520.24 124.568 500.227 51.7138 450.195 48.6712C400.163 45.6286 380.15 111.484 330.118 111.146C280.086 110.808 260.073 47.0484 210.041 47.0484C160.009 47.0484 139.996 113.344 89.9644 111.146C39.9323 108.949 28.7793 104.283 -30.1127 36.5007C-89.0045 -31.282 -585.677 -77.4621 -192.717 -214.211C200.243 -350.959 1429.26 -535.375 1856.1 -619.892" fill="url(#paint4_linear_4727_1027)"/>
</g>
<defs>
<linearGradient id="paint0_linear_4727_1027" x1="-108084" y1="356.991" x2="-108084" y2="-76561.4" gradientUnits="userSpaceOnUse">
<stop stop-color="#6E84F2"/>
<stop offset="1" stop-color="#292F51"/>
</linearGradient>
<linearGradient id="paint1_linear_4727_1027" x1="-108084" y1="305.064" x2="-108084" y2="-76613.3" gradientUnits="userSpaceOnUse">
<stop stop-color="#6E84F2"/>
<stop offset="1" stop-color="#292F51"/>
</linearGradient>
<linearGradient id="paint2_linear_4727_1027" x1="-108084" y1="253.136" x2="-108084" y2="-76665.2" gradientUnits="userSpaceOnUse">
<stop stop-color="#6E84F2"/>
<stop offset="1" stop-color="#292F51"/>
</linearGradient>
<linearGradient id="paint3_linear_4727_1027" x1="-108084" y1="201.209" x2="-108084" y2="-76717.1" gradientUnits="userSpaceOnUse">
<stop stop-color="#6E84F2"/>
<stop offset="1" stop-color="#292F51"/>
</linearGradient>
<linearGradient id="paint4_linear_4727_1027" x1="-108084" y1="149.282" x2="-108084" y2="-76769.1" gradientUnits="userSpaceOnUse">
<stop stop-color="#6E84F2"/>
<stop offset="1" stop-color="#292F51"/>
</linearGradient>
<clipPath id="clip0_4727_1027">
<rect width="1440" height="357" fill="white" transform="translate(1440.1 357) rotate(-180)"/>
</clipPath>
</defs>
</svg>
