<svg width="480" height="637" viewBox="0 0 480 637" fill="none" xmlns="http://www.w3.org/2000/svg">
<g clip-path="url(#clip0_4857_1850)">
<path d="M-598.855 605.626C-598.855 605.626 -594.653 618.581 -590.044 631.399C-587.604 638.354 -584.893 645.308 -582.996 650.217H292.13C294.027 645.308 296.738 638.354 299.178 631.399C303.787 618.581 307.989 605.626 307.989 605.626C307.989 605.626 312.056 592.808 315.716 579.854C319.376 566.899 322.629 553.808 322.629 553.808C322.629 553.808 316.529 565.672 309.887 577.263C303.245 588.854 296.332 600.308 296.332 600.308C296.332 600.308 293.079 605.763 288.605 612.717L284.403 549.717L274.914 597.717L272.068 611.899C270.306 606.581 269.086 602.626 269.086 602.626C269.086 602.626 265.833 591.717 263.121 580.399C260.41 569.081 258.377 557.763 258.377 557.763C258.377 557.763 257.157 569.354 256.751 581.081C256.344 592.808 256.479 604.672 256.479 604.672C256.479 604.672 256.615 611.763 257.157 620.49L254.717 613.672C250.244 600.717 246.177 587.354 246.177 587.354C246.177 587.354 242.246 574.126 238.722 560.626C235.198 547.126 232.351 533.49 232.351 533.49C232.351 533.49 232.08 547.399 232.487 561.445C232.893 575.49 233.571 589.672 233.571 589.672C233.571 589.672 234.52 603.717 236.011 617.899C236.282 620.899 236.689 624.036 237.095 626.899C236.147 622.808 235.333 618.036 234.384 613.263L228.42 585.308L222.32 557.49L215.814 529.672C215.814 529.672 215.949 543.99 215.949 558.172C215.949 572.354 215.814 586.672 215.814 586.672L215.271 615.035C215 621.035 214.865 627.172 214.729 632.081H214.594C214.729 629.354 214.729 626.626 214.729 623.763C214.729 611.354 214.187 598.945 214.187 598.945C214.187 598.945 213.645 586.535 212.56 574.126C211.476 561.717 210.121 549.717 210.121 549.717C210.121 549.717 208.358 561.854 206.19 573.854C204.021 585.854 201.445 597.717 201.445 597.717C201.445 597.717 198.734 609.581 195.616 621.308C195.637 621.5 195.589 621.694 195.481 621.854C195.752 618.99 195.752 615.99 195.888 612.99C196.037 606.346 195.811 599.699 195.21 593.081C195.074 590.354 194.803 588.035 194.668 586.535C194.517 585.725 194.427 584.905 194.396 584.081L193.99 581.626C193.719 579.99 193.448 577.808 193.041 575.217C192.092 569.899 190.601 562.945 188.839 555.99C187.115 549.799 185.079 543.7 182.739 537.717C181.926 535.126 180.977 533.217 180.435 531.717L179.486 529.535C179.486 529.535 179.621 530.49 179.892 531.99C180.163 533.49 180.57 535.535 180.841 538.126C181.519 543.308 182.197 550.263 182.468 557.081C182.731 563.308 182.64 569.546 182.197 575.763C182.167 577.814 182.031 579.862 181.79 581.899L181.519 584.217C181.519 584.217 181.383 585.035 181.248 586.535C181.112 588.035 180.841 590.081 180.435 592.535C180.028 594.99 179.215 599.899 178.266 604.126C175.284 595.945 173.115 589.535 173.115 589.535C173.115 589.535 168.777 576.445 165.388 562.945C161.999 549.445 159.695 535.535 159.695 535.535C159.695 535.535 158.882 549.581 159.153 563.763C159.424 577.945 160.644 592.263 160.644 592.263C160.644 592.263 161.593 603.308 163.491 615.854C163.454 615.65 163.36 615.46 163.219 615.308C160.563 611.237 158.163 607.001 156.035 602.626C154.137 598.945 153.053 596.49 153.053 596.49C153.053 596.49 151.969 594.035 150.478 590.217C148.986 586.399 148.173 583.808 147.089 579.854C147.07 578.943 147.115 578.031 147.224 577.126C147.495 570.99 147.36 562.945 147.089 555.035C146.818 547.126 145.869 539.081 145.055 533.217C144.784 530.217 144.242 527.763 144.107 526.126L143.7 523.399C143.597 524.304 143.552 525.215 143.564 526.126C143.429 527.763 143.429 530.354 143.158 533.217C142.751 539.081 141.802 546.99 140.718 554.626C139.633 562.263 137.871 570.035 136.516 575.626C135.16 581.217 134.076 584.899 134.076 584.899C134.076 584.899 132.991 588.717 131.229 594.172C131.094 594.717 130.822 595.263 130.687 595.808C130.416 593.899 130.145 592.808 130.145 592.808C128.754 585.36 126.989 577.987 124.858 570.717C122.74 563.591 120.251 556.581 117.403 549.717C117.403 549.717 118.623 560.763 118.623 571.672C118.623 582.581 117.809 589.399 117.538 592.399C116.047 584.49 115.098 578.763 115.098 578.763C115.098 578.763 112.794 564.581 110.896 550.126C108.999 535.672 107.643 521.354 107.643 521.354C107.643 521.354 107.101 524.899 106.559 530.354C107.372 522.717 108.05 517.399 108.05 517.399C108.05 517.399 102.899 532.672 98.561 548.354C94.2234 564.035 90.699 579.854 90.699 579.854C90.699 579.854 87.3102 595.126 84.7347 611.081C85.4124 595.399 85.1413 581.49 85.1413 581.49C85.1413 581.49 84.8702 563.217 83.3792 545.217C81.8881 527.217 79.1771 509.217 79.1771 509.217C79.1771 509.217 78.6348 527.354 76.8727 545.081C75.1105 562.808 72.3995 580.672 72.3995 580.672C72.3995 580.672 71.0439 588.445 69.0107 598.672C68.0618 594.99 67.1129 591.445 66.4351 588.445C65.7574 585.445 65.3507 583.399 64.9441 581.763C64.8074 580.89 64.6264 580.026 64.4018 579.172L63.9952 576.581C63.7241 574.945 63.3175 572.626 62.9108 569.763C62.0975 564.035 61.4197 556.399 61.013 548.626C60.6064 540.854 60.742 533.081 61.1486 527.217C61.2842 524.217 61.5552 521.899 61.6908 520.126C61.8264 518.354 61.8264 517.399 61.8264 517.399L61.1486 519.99C60.6064 521.626 59.9287 524.081 59.1154 526.945C57.6243 532.672 55.9976 540.308 54.6421 548.217C53.4566 555.489 52.6422 562.817 52.2021 570.172C51.931 573.172 51.9311 575.626 51.7955 577.399C51.8081 578.31 51.7628 579.221 51.66 580.126V582.99C51.7955 584.763 51.6599 587.217 51.7955 590.354V592.126L51.3889 590.217C50.5238 585.385 49.3924 580.605 48.0001 575.899C46.6445 570.717 44.8824 565.672 43.5268 561.854C42.1713 558.035 41.0868 555.717 41.0868 555.717C41.7378 562.651 41.9189 569.622 41.6291 576.581C41.4935 581.763 41.0869 586.945 40.6802 590.763C40.2735 594.581 40.2735 594.445 40.0024 595.536L38.6469 585.172L29.7005 523.399L26.4472 574.399C26.0406 572.354 25.6339 570.035 25.0917 567.854C22.3806 555.581 19.1274 543.581 19.1274 543.581C19.1274 543.581 19.2629 556.126 18.7207 568.535C18.1785 580.945 17.0942 593.081 17.0942 593.081C17.0942 593.081 16.9586 595.808 16.5519 599.763C13.8409 591.581 12.2142 584.763 12.2142 584.763C10.2764 577.076 8.73809 569.293 7.6055 561.445C5.84333 549.717 5.3011 537.581 5.3011 537.581C3.53538 545.505 2.17805 553.516 1.23453 561.581C0.0145626 571.672 -0.392119 581.763 -0.527671 585.035V582.172C-0.663223 578.217 -0.934311 575.49 -0.934311 575.49C-1.53456 568.549 -2.66754 561.665 -4.32312 554.899C-5.67864 549.854 -7.16972 544.945 -8.52525 541.399C-9.88077 537.854 -10.9652 535.535 -10.9652 535.535C-10.4054 542.157 -10.3148 548.81 -10.6941 555.445C-11.0583 559.926 -11.6464 564.386 -12.4563 568.808C-13.134 572.354 -13.6762 574.672 -13.6762 574.672C-15.0783 580.521 -16.8902 586.262 -19.0983 591.854C-21.5382 584.354 -23.436 577.535 -23.436 577.535C-23.436 577.535 -25.8759 568.672 -27.9092 559.672C-29.9425 550.672 -31.298 541.535 -31.298 541.535C-31.298 541.535 -33.0602 550.672 -34.2802 559.945C-35.5001 569.217 -36.1779 578.626 -36.1779 578.626C-36.1868 579.039 -36.2322 579.449 -36.3135 579.854L-37.669 575.217C-37.669 575.217 -41.1934 562.672 -43.3622 549.717C-44.8411 541.003 -45.8816 532.219 -46.4799 523.399C-46.4799 523.399 -48.7843 536.49 -49.7331 549.99C-50.387 558.974 -50.568 567.987 -50.2753 576.99V579.445C-51.2242 574.808 -52.7153 567.717 -54.613 560.763C-57.5952 549.035 -61.2551 537.581 -61.2551 537.581C-61.2551 537.581 -60.7129 549.581 -60.8484 561.445C-60.984 573.308 -61.9328 585.308 -61.9328 585.308C-61.9328 585.308 -62.7462 597.172 -64.3728 608.763C-64.3728 609.172 -64.5083 609.581 -64.5083 609.99C-65.4572 606.854 -66.406 603.445 -67.2193 600.035C-70.6082 587.081 -72.777 573.717 -72.777 573.717C-72.777 573.717 -75.0814 560.354 -76.1658 546.717C-77.2502 533.081 -77.3858 519.308 -77.3858 519.308C-77.3858 519.308 -80.5035 532.808 -82.5368 546.581C-84.5701 560.354 -85.5189 574.263 -85.5189 574.263C-85.5189 574.263 -86.0611 582.308 -86.1967 592.263C-86.7389 590.081 -87.01 588.717 -87.01 588.717C-87.01 588.717 -89.8566 576.717 -91.8899 564.445C-93.9232 552.172 -95.1431 539.626 -95.1431 539.626C-95.1431 539.626 -97.1764 552.035 -98.2608 564.581C-99.3453 577.126 -99.7519 590.081 -99.7519 590.081C-99.7519 590.081 -99.8874 591.99 -99.8874 595.126L-101.379 588.99L-103.683 581.49C-103.683 581.49 -104.632 578.49 -106.258 574.126C-107.885 569.763 -110.461 564.035 -113.036 558.445C-115.612 552.854 -118.865 547.672 -121.305 543.854C-123.745 540.035 -125.507 537.445 -125.507 537.445C-122.89 545.026 -120.762 552.769 -119.136 560.626C-118.051 566.49 -117.238 572.217 -116.831 576.717C-116.425 581.217 -116.289 583.945 -116.289 583.945C-116.289 583.945 -116.154 586.263 -116.018 589.808L-131.742 553.808L-128.082 593.763L-126.185 614.763L-126.998 613.126C-129.438 606.854 -131.607 600.445 -133.098 595.536L-134.724 589.672C-135.131 588.172 -135.267 587.354 -135.267 587.354C-135.496 586.593 -135.677 585.819 -135.809 585.035C-136.08 583.672 -136.622 581.49 -137.029 579.035C-138.267 572.816 -139.172 566.534 -139.74 560.217C-140.282 553.263 -140.418 546.308 -140.282 540.99C-140.282 538.399 -140.146 536.217 -140.011 534.717C-140.025 533.897 -139.98 533.076 -139.875 532.263L-140.553 534.581C-140.96 536.081 -141.638 538.126 -142.315 540.717C-143.905 547.103 -145.172 553.566 -146.111 560.081L-146.517 563.217C-147.06 559.263 -147.873 554.899 -148.822 550.672C-150.344 543.65 -152.43 536.764 -155.057 530.081C-156.142 527.354 -157.226 525.308 -157.904 523.808L-159.124 521.354L-158.446 523.945C-157.875 526.192 -157.423 528.468 -157.091 530.763C-155.832 537.599 -155.197 544.537 -155.193 551.49C-155.125 558.366 -155.442 565.241 -156.142 572.081C-156.819 577.672 -157.226 581.49 -157.226 581.49L-157.633 583.945C-158.039 585.581 -158.31 587.899 -158.853 590.626C-159.802 596.217 -161.428 603.581 -163.19 610.808C-163.733 612.854 -164.275 615.035 -164.953 617.081L-162.784 593.763L-159.124 553.808L-174.848 589.808C-174.712 586.263 -174.577 583.945 -174.577 583.945C-174.577 583.945 -174.441 581.081 -174.035 576.717C-173.628 572.354 -172.815 566.49 -171.73 560.626C-170.104 552.769 -167.976 545.026 -165.359 537.445C-165.359 537.445 -167.121 539.899 -169.561 543.854C-172.001 547.808 -174.983 552.99 -177.83 558.445C-180.677 563.899 -182.981 569.763 -184.608 574.126C-186.234 578.49 -187.183 581.49 -187.183 581.49L-189.487 588.99L-190.979 595.126C-190.979 591.99 -191.114 590.081 -191.114 590.081C-191.114 590.081 -191.385 577.263 -192.605 564.581C-193.825 551.899 -195.723 539.626 -195.723 539.626C-195.723 539.626 -196.807 552.035 -198.976 564.445C-201.145 576.854 -203.856 588.717 -203.856 588.717C-203.856 588.717 -204.127 590.081 -204.669 592.263C-204.805 582.308 -205.347 574.263 -205.347 574.263C-205.347 574.263 -206.296 560.217 -208.329 546.581C-210.363 532.945 -213.48 519.308 -213.48 519.308C-213.48 519.308 -213.48 533.081 -214.7 546.717C-215.92 560.354 -218.089 573.717 -218.089 573.717C-218.089 573.717 -220.258 587.081 -223.647 600.035C-224.46 603.445 -225.409 606.854 -226.358 609.99C-226.358 609.581 -226.493 609.172 -226.493 608.763C-228.12 597.172 -228.933 585.308 -228.933 585.308C-228.933 585.308 -229.746 573.445 -230.018 561.445C-230.289 549.445 -229.611 537.581 -229.611 537.581C-229.611 537.581 -233.271 549.035 -236.253 560.763C-238.151 567.717 -239.642 574.808 -240.591 579.445V576.99C-240.298 567.987 -240.479 558.974 -241.133 549.99C-242.082 536.49 -244.386 523.399 -244.386 523.399C-244.984 532.219 -246.025 541.003 -247.504 549.717C-249.673 562.672 -253.197 575.217 -253.197 575.217L-254.553 579.854C-254.634 579.449 -254.679 579.039 -254.688 578.626C-254.688 578.626 -255.366 569.217 -256.586 559.945C-257.806 550.672 -259.568 541.535 -259.568 541.535C-259.568 541.535 -261.059 550.808 -262.957 559.672C-264.855 568.535 -267.43 577.535 -267.43 577.535C-267.43 577.535 -269.328 584.354 -271.768 591.854C-273.976 586.262 -275.788 580.521 -277.19 574.672C-277.19 574.672 -277.732 572.354 -278.41 568.808C-279.22 564.386 -279.808 559.926 -280.172 555.445C-280.551 548.81 -280.461 542.157 -279.901 535.535C-279.901 535.535 -280.985 537.854 -282.341 541.399C-283.696 544.945 -285.187 549.854 -286.543 554.899C-288.198 561.665 -289.331 568.549 -289.932 575.49C-289.932 575.49 -290.203 578.217 -290.338 582.172V585.035C-290.474 581.763 -290.881 571.672 -292.101 561.581C-293.044 553.516 -294.401 545.505 -296.167 537.581C-296.167 537.581 -296.709 549.717 -298.471 561.445C-299.604 569.293 -301.142 577.076 -303.08 584.763C-303.08 584.763 -304.707 591.581 -307.418 599.763C-307.825 595.808 -307.96 593.081 -307.96 593.081C-307.96 593.081 -309.18 580.808 -309.587 568.535C-309.993 556.263 -309.993 543.581 -309.993 543.581C-309.993 543.581 -313.247 555.581 -315.958 567.854C-316.5 570.035 -316.907 572.354 -317.313 574.399L-320.566 523.399L-329.513 585.172L-330.868 595.536C-331.14 594.445 -331.275 592.808 -331.546 590.763C-331.817 588.717 -332.36 581.763 -332.495 576.581C-332.785 569.622 -332.604 562.651 -331.953 555.717C-331.953 555.717 -333.037 558.172 -334.393 561.854C-335.748 565.535 -337.511 570.717 -338.866 575.899C-340.258 580.605 -341.39 585.385 -342.255 590.217L-342.661 592.126V590.354C-342.526 587.217 -342.661 584.763 -342.526 582.99V580.126C-342.629 579.221 -342.674 578.31 -342.661 577.399C-342.797 575.626 -342.797 573.172 -343.068 570.172C-343.508 562.817 -344.323 555.489 -345.508 548.217C-346.864 540.308 -348.49 532.672 -349.981 526.945C-350.795 524.081 -351.472 521.626 -352.015 519.99L-352.692 517.399C-352.692 517.399 -352.692 518.354 -352.557 520.126C-352.421 521.899 -352.15 524.217 -352.015 527.217C-351.608 533.081 -351.608 540.854 -351.879 548.626C-352.15 556.399 -352.963 564.035 -353.777 569.763C-354.183 572.626 -354.59 574.945 -354.861 576.581L-355.268 579.172C-355.492 580.026 -355.673 580.89 -355.81 581.763C-356.217 583.399 -356.623 585.717 -357.301 588.445C-357.979 591.172 -358.928 594.99 -359.877 598.672C-361.91 588.445 -363.265 580.672 -363.265 580.672C-363.265 580.672 -366.112 563.081 -367.739 545.081C-369.365 527.081 -370.043 509.217 -370.043 509.217C-370.043 509.217 -372.754 527.081 -374.245 545.217C-375.736 563.354 -376.007 581.49 -376.007 581.49C-376.007 581.49 -376.278 595.399 -375.601 611.081C-378.176 595.126 -381.565 579.854 -381.565 579.854C-381.565 579.854 -385.089 563.899 -389.427 548.354C-393.765 532.808 -398.916 517.399 -398.916 517.399C-398.916 517.399 -398.238 522.854 -397.425 530.354C-397.967 525.035 -398.509 521.354 -398.509 521.354C-398.509 521.354 -399.865 535.808 -401.762 550.126C-403.66 564.445 -405.964 578.763 -405.964 578.763C-405.964 578.763 -406.913 584.49 -408.404 592.399C-408.675 589.399 -409.489 580.672 -409.489 571.672C-409.489 562.672 -408.269 549.717 -408.269 549.717C-411.117 556.581 -413.606 563.591 -415.724 570.717C-417.855 577.987 -419.62 585.36 -421.011 592.808C-421.011 592.808 -421.282 593.899 -421.553 595.808C-421.688 595.263 -421.96 594.717 -422.095 594.172C-423.857 588.717 -424.942 584.899 -424.942 584.899C-424.942 584.899 -426.026 581.217 -427.382 575.626C-428.737 570.035 -430.364 562.399 -431.584 554.626C-432.804 546.854 -433.617 539.081 -434.024 533.217C-434.295 530.354 -434.295 527.763 -434.43 526.126C-434.418 525.215 -434.463 524.304 -434.566 523.399L-434.973 526.126C-435.108 527.763 -435.65 530.217 -435.921 533.217C-436.735 539.081 -437.548 546.99 -437.955 555.035C-438.361 563.081 -438.361 570.99 -438.09 577.126C-437.981 578.031 -437.936 578.943 -437.955 579.854C-439.039 583.808 -440.259 587.354 -441.344 590.217C-442.428 593.081 -443.919 596.49 -443.919 596.49C-443.919 596.49 -445.003 598.945 -446.901 602.626C-449.029 607.001 -451.429 611.237 -454.085 615.308C-454.226 615.46 -454.32 615.65 -454.357 615.854C-452.459 603.308 -451.51 592.263 -451.51 592.263C-451.51 592.263 -450.154 577.945 -450.019 563.763C-449.883 549.581 -450.561 535.535 -450.561 535.535C-450.561 535.535 -452.865 549.445 -456.254 562.945C-459.643 576.445 -463.981 589.535 -463.981 589.535C-463.981 589.535 -466.15 595.945 -469.132 604.126C-470.081 599.899 -470.894 595.945 -471.301 592.535C-471.707 589.126 -471.978 588.035 -472.114 586.535C-472.249 585.035 -472.385 584.217 -472.385 584.217C-472.385 584.217 -472.521 583.399 -472.656 581.899C-472.897 579.862 -473.033 577.814 -473.063 575.763C-473.506 569.546 -473.597 563.308 -473.334 557.081C-473.063 550.263 -472.385 543.308 -471.707 538.126C-471.436 535.535 -471.029 533.49 -470.758 531.99L-470.352 529.535L-471.301 531.717C-471.843 533.217 -472.792 535.126 -473.605 537.717C-475.945 543.7 -477.981 549.799 -479.705 555.99C-481.467 562.945 -482.958 569.899 -483.907 575.217C-484.314 577.808 -484.585 579.99 -484.856 581.626L-485.262 584.081C-485.293 584.905 -485.383 585.725 -485.534 586.535C-485.669 588.035 -485.94 590.354 -486.076 593.081C-486.677 599.699 -486.903 606.346 -486.754 612.99C-486.618 615.99 -486.618 618.99 -486.347 621.854C-486.455 621.694 -486.503 621.5 -486.482 621.308C-489.6 609.581 -492.311 597.717 -492.311 597.717C-492.311 597.717 -494.887 585.854 -497.055 573.854C-499.224 561.854 -500.987 549.717 -500.987 549.717C-500.987 549.717 -502.478 561.854 -503.426 574.126C-504.375 586.399 -505.053 598.945 -505.053 598.945C-505.053 598.945 -505.595 611.354 -505.595 623.763C-505.595 626.626 -505.595 629.354 -505.46 632.081H-506.002L-506.951 589.672L-508.035 537.854L-519.693 588.445L-527.284 621.717L-526.877 617.899C-525.386 603.717 -524.437 589.672 -524.437 589.672C-524.437 589.672 -523.624 575.49 -523.353 561.445C-523.082 547.399 -523.217 533.49 -523.217 533.49C-523.217 533.49 -526.199 547.126 -529.588 560.626C-532.977 574.126 -537.043 587.354 -537.043 587.354C-537.043 587.354 -541.11 600.717 -545.583 613.672L-548.023 620.49C-547.481 611.763 -547.345 604.672 -547.345 604.672C-547.345 604.672 -547.074 592.808 -547.616 581.081C-548.159 569.354 -549.243 557.763 -549.243 557.763C-549.243 557.763 -551.276 569.217 -553.987 580.399C-556.698 591.581 -559.952 602.626 -559.952 602.626C-559.952 602.626 -561.172 606.581 -562.934 611.899L-565.78 597.717L-575.269 549.717L-579.471 612.717C-583.944 605.763 -587.198 600.308 -587.198 600.308C-587.198 600.308 -594.111 588.99 -600.753 577.263C-607.395 565.535 -613.495 553.808 -613.495 553.808C-613.495 553.808 -610.377 566.763 -606.582 579.854C-602.786 592.945 -598.855 605.626 -598.855 605.626Z" fill="url(#paint0_linear_4857_1850)"/>
<path d="M173.011 605.626C173.011 605.626 177.213 618.581 181.822 631.399C184.262 638.354 186.973 645.308 188.87 650.217H1064C1065.89 645.308 1068.6 638.354 1071.04 631.399C1075.65 618.581 1079.86 605.626 1079.86 605.626C1079.86 605.626 1083.92 592.808 1087.58 579.854C1091.24 566.899 1094.49 553.808 1094.49 553.808C1094.49 553.808 1088.4 565.672 1081.75 577.263C1075.11 588.854 1068.2 600.308 1068.2 600.308C1068.2 600.308 1064.94 605.763 1060.47 612.717L1056.27 549.717L1046.78 597.717L1043.93 611.899C1042.17 606.581 1040.95 602.626 1040.95 602.626C1040.95 602.626 1037.7 591.717 1034.99 580.399C1032.28 569.081 1030.24 557.763 1030.24 557.763C1030.24 557.763 1029.02 569.354 1028.62 581.081C1028.21 592.808 1028.35 604.672 1028.35 604.672C1028.35 604.672 1028.48 611.763 1029.02 620.49L1026.58 613.672C1022.11 600.717 1018.04 587.354 1018.04 587.354C1018.04 587.354 1014.11 574.126 1010.59 560.626C1007.06 547.126 1004.22 533.49 1004.22 533.49C1004.22 533.49 1003.95 547.399 1004.35 561.445C1004.76 575.49 1005.44 589.672 1005.44 589.672C1005.44 589.672 1006.39 603.717 1007.88 617.899C1008.15 620.899 1008.55 624.035 1008.96 626.899C1008.01 622.808 1007.2 618.036 1006.25 613.263L1000.29 585.308L994.186 557.49L987.68 529.672C987.68 529.672 987.815 543.99 987.815 558.172C987.815 572.354 987.68 586.672 987.68 586.672L987.137 615.035C986.866 621.035 986.731 627.172 986.595 632.081H986.46C986.595 629.354 986.595 626.626 986.595 623.763C986.595 611.354 986.053 598.945 986.053 598.945C986.053 598.945 985.511 586.535 984.426 574.126C983.342 561.717 981.987 549.717 981.987 549.717C981.987 549.717 980.224 561.854 978.056 573.854C975.887 585.854 973.311 597.717 973.311 597.717C973.311 597.717 970.6 609.581 967.482 621.308C967.503 621.5 967.455 621.694 967.347 621.854C967.618 618.99 967.618 615.99 967.754 612.99C967.903 606.346 967.677 599.699 967.076 593.081C966.94 590.354 966.669 588.035 966.534 586.535C966.383 585.725 966.293 584.905 966.262 584.081L965.856 581.626C965.585 579.99 965.314 577.808 964.907 575.217C963.958 569.899 962.467 562.945 960.705 555.99C958.981 549.799 956.945 543.7 954.605 537.717C953.792 535.126 952.843 533.217 952.301 531.717L951.352 529.535C951.352 529.535 951.487 530.49 951.758 531.99C952.03 533.49 952.436 535.535 952.707 538.126C953.385 543.308 954.063 550.263 954.334 557.081C954.597 563.308 954.507 569.546 954.063 575.763C954.033 577.814 953.897 579.862 953.656 581.899L953.385 584.217C953.385 584.217 953.249 585.035 953.114 586.535C952.978 588.035 952.707 590.081 952.301 592.535C951.894 594.99 951.081 599.899 950.132 604.126C947.15 595.945 944.981 589.535 944.981 589.535C944.981 589.535 940.643 576.445 937.254 562.945C933.866 549.445 931.561 535.535 931.561 535.535C931.561 535.535 930.748 549.581 931.019 563.763C931.29 577.945 932.51 592.263 932.51 592.263C932.51 592.263 933.459 603.308 935.357 615.854C935.32 615.65 935.226 615.46 935.085 615.308C932.429 611.237 930.029 607.001 927.901 602.626C926.003 598.945 924.919 596.49 924.919 596.49C924.919 596.49 923.835 594.035 922.344 590.217C920.852 586.399 920.039 583.808 918.955 579.854C918.936 578.943 918.981 578.031 919.09 577.126C919.361 570.99 919.226 562.945 918.955 555.035C918.684 547.126 917.735 539.081 916.921 533.217C916.65 530.217 916.108 527.763 915.973 526.126L915.566 523.399C915.463 524.304 915.418 525.215 915.43 526.126C915.295 527.763 915.295 530.354 915.024 533.217C914.617 539.081 913.668 546.99 912.584 554.626C911.499 562.263 909.737 570.035 908.382 575.626C907.026 581.217 905.942 584.899 905.942 584.899C905.942 584.899 904.857 588.717 903.095 594.172C902.96 594.717 902.688 595.263 902.553 595.808C902.282 593.899 902.011 592.808 902.011 592.808C900.62 585.36 898.855 577.987 896.724 570.717C894.606 563.591 892.117 556.581 889.269 549.717C889.269 549.717 890.489 560.763 890.489 571.672C890.489 582.581 889.675 589.399 889.404 592.399C887.913 584.49 886.964 578.763 886.964 578.763C886.964 578.763 884.66 564.581 882.762 550.126C880.865 535.672 879.509 521.354 879.509 521.354C879.509 521.354 878.967 524.899 878.425 530.354C879.238 522.717 879.916 517.399 879.916 517.399C879.916 517.399 874.765 532.672 870.427 548.354C866.089 564.035 862.565 579.854 862.565 579.854C862.565 579.854 859.176 595.126 856.601 611.081C857.278 595.399 857.007 581.49 857.007 581.49C857.007 581.49 856.736 563.217 855.245 545.217C853.754 527.217 851.043 509.217 851.043 509.217C851.043 509.217 850.501 527.354 848.739 545.081C846.977 562.808 844.265 580.672 844.265 580.672C844.265 580.672 842.91 588.445 840.877 598.672C839.928 594.99 838.979 591.445 838.301 588.445C837.623 585.445 837.217 583.399 836.81 581.763C836.673 580.89 836.492 580.026 836.268 579.172L835.861 576.581C835.59 574.945 835.183 572.626 834.777 569.763C833.964 564.035 833.286 556.399 832.879 548.626C832.472 540.854 832.608 533.081 833.015 527.217C833.15 524.217 833.421 521.899 833.557 520.126C833.692 518.354 833.692 517.399 833.692 517.399L833.015 519.99C832.472 521.626 831.795 524.081 830.981 526.945C829.49 532.672 827.864 540.308 826.508 548.217C825.323 555.489 824.508 562.817 824.068 570.172C823.797 573.172 823.797 575.626 823.662 577.399C823.674 578.31 823.629 579.221 823.526 580.126V582.99C823.662 584.763 823.526 587.217 823.662 590.354V592.126L823.255 590.217C822.39 585.385 821.258 580.605 819.866 575.899C818.511 570.717 816.748 565.672 815.393 561.854C814.037 558.035 812.953 555.717 812.953 555.717C813.604 562.651 813.785 569.622 813.495 576.581C813.36 581.763 812.953 586.945 812.546 590.763C812.14 594.581 812.14 594.445 811.868 595.535L810.513 585.172L801.567 523.399L798.313 574.399C797.907 572.354 797.5 570.035 796.958 567.854C794.247 555.581 790.993 543.581 790.993 543.581C790.993 543.581 791.129 556.126 790.587 568.535C790.045 580.945 788.96 593.081 788.96 593.081C788.96 593.081 788.825 595.808 788.418 599.763C785.707 591.581 784.08 584.763 784.08 584.763C782.142 577.076 780.604 569.293 779.472 561.445C777.709 549.717 777.167 537.581 777.167 537.581C775.401 545.505 774.044 553.516 773.101 561.581C771.881 571.672 771.474 581.763 771.338 585.035V582.172C771.203 578.217 770.932 575.49 770.932 575.49C770.331 568.549 769.199 561.665 767.543 554.899C766.187 549.854 764.696 544.945 763.341 541.399C761.985 537.854 760.901 535.535 760.901 535.535C761.461 542.157 761.551 548.81 761.172 555.445C760.808 559.926 760.22 564.386 759.41 568.808C758.732 572.354 758.19 574.672 758.19 574.672C756.788 580.521 754.976 586.262 752.768 591.854C750.328 584.354 748.43 577.535 748.43 577.535C748.43 577.535 745.99 568.672 743.957 559.672C741.924 550.672 740.568 541.535 740.568 541.535C740.568 541.535 738.806 550.672 737.586 559.945C736.366 569.217 735.688 578.626 735.688 578.626C735.679 579.039 735.634 579.449 735.553 579.854L734.197 575.217C734.197 575.217 730.673 562.672 728.504 549.717C727.025 541.003 725.984 532.219 725.386 523.399C725.386 523.399 723.082 536.49 722.133 549.99C721.479 558.974 721.298 567.987 721.591 576.99V579.445C720.642 574.808 719.151 567.717 717.253 560.763C714.271 549.035 710.611 537.581 710.611 537.581C710.611 537.581 711.153 549.581 711.018 561.445C710.882 573.308 709.933 585.308 709.933 585.308C709.933 585.308 709.12 597.172 707.493 608.763C707.493 609.172 707.358 609.581 707.358 609.99C706.409 606.854 705.46 603.445 704.647 600.035C701.258 587.081 699.089 573.717 699.089 573.717C699.089 573.717 696.785 560.354 695.7 546.717C694.616 533.081 694.48 519.308 694.48 519.308C694.48 519.308 691.363 532.808 689.329 546.581C687.296 560.354 686.347 574.263 686.347 574.263C686.347 574.263 685.805 582.308 685.669 592.263C685.127 590.081 684.856 588.717 684.856 588.717C684.856 588.717 682.009 576.717 679.976 564.445C677.943 552.172 676.723 539.626 676.723 539.626C676.723 539.626 674.69 552.035 673.605 564.581C672.521 577.126 672.114 590.081 672.114 590.081C672.114 590.081 671.979 591.99 671.979 595.126L670.487 588.99L668.183 581.49C668.183 581.49 667.234 578.49 665.608 574.126C663.981 569.763 661.406 564.035 658.83 558.445C656.255 552.854 653.001 547.672 650.561 543.854C648.121 540.035 646.359 537.445 646.359 537.445C648.976 545.026 651.104 552.769 652.73 560.626C653.815 566.49 654.628 572.217 655.035 576.717C655.441 581.217 655.577 583.945 655.577 583.945C655.577 583.945 655.712 586.263 655.848 589.808L640.124 553.808L643.784 593.763L645.681 614.763L644.868 613.126C642.428 606.854 640.259 600.445 638.768 595.535L637.142 589.672C636.735 588.172 636.599 587.354 636.599 587.354C636.37 586.593 636.189 585.819 636.057 585.035C635.786 583.672 635.244 581.49 634.837 579.035C633.599 572.816 632.694 566.534 632.126 560.217C631.584 553.263 631.448 546.308 631.584 540.99C631.584 538.399 631.72 536.217 631.855 534.717C631.841 533.897 631.886 533.076 631.991 532.263L631.313 534.581C630.906 536.081 630.228 538.126 629.551 540.717C627.961 547.103 626.694 553.566 625.755 560.081L625.349 563.217C624.806 559.263 623.993 554.899 623.044 550.672C621.522 543.65 619.437 536.764 616.809 530.081C615.724 527.354 614.64 525.308 613.962 523.808L612.742 521.354L613.42 523.945C613.991 526.192 614.443 528.468 614.776 530.763C616.034 537.599 616.669 544.537 616.673 551.49C616.741 558.366 616.424 565.241 615.724 572.081C615.047 577.672 614.64 581.49 614.64 581.49L614.233 583.945C613.827 585.581 613.556 587.899 613.013 590.626C612.065 596.217 610.438 603.581 608.676 610.808C608.133 612.854 607.591 615.035 606.914 617.081L609.082 593.763L612.742 553.808L597.018 589.808C597.154 586.263 597.289 583.945 597.289 583.945C597.289 583.945 597.425 581.081 597.832 576.717C598.238 572.354 599.051 566.49 600.136 560.626C601.762 552.769 603.89 545.026 606.507 537.445C606.507 537.445 604.745 539.899 602.305 543.854C599.865 547.808 596.883 552.99 594.036 558.445C591.189 563.899 588.885 569.763 587.258 574.126C585.632 578.49 584.683 581.49 584.683 581.49L582.379 588.99L580.887 595.126C580.887 591.99 580.752 590.081 580.752 590.081C580.752 590.081 580.481 577.263 579.261 564.581C578.041 551.899 576.143 539.626 576.143 539.626C576.143 539.626 575.059 552.035 572.89 564.445C570.721 576.854 568.01 588.717 568.01 588.717C568.01 588.717 567.739 590.081 567.197 592.263C567.061 582.308 566.519 574.263 566.519 574.263C566.519 574.263 565.57 560.217 563.537 546.581C561.504 532.945 558.386 519.308 558.386 519.308C558.386 519.308 558.386 533.081 557.166 546.717C555.946 560.354 553.777 573.717 553.777 573.717C553.777 573.717 551.608 587.081 548.219 600.035C547.406 603.445 546.457 606.854 545.508 609.99C545.508 609.581 545.373 609.172 545.373 608.763C543.746 597.172 542.933 585.308 542.933 585.308C542.933 585.308 542.12 573.445 541.848 561.445C541.577 549.445 542.255 537.581 542.255 537.581C542.255 537.581 538.595 549.035 535.613 560.763C533.715 567.717 532.224 574.808 531.275 579.445V576.99C531.568 567.987 531.387 558.974 530.733 549.99C529.784 536.49 527.48 523.399 527.48 523.399C526.882 532.219 525.841 541.003 524.362 549.717C522.193 562.672 518.669 575.217 518.669 575.217L517.313 579.854C517.232 579.449 517.187 579.039 517.178 578.626C517.178 578.626 516.5 569.217 515.28 559.945C514.06 550.672 512.298 541.535 512.298 541.535C512.298 541.535 510.807 550.808 508.909 559.672C507.011 568.535 504.436 577.535 504.436 577.535C504.436 577.535 502.538 584.354 500.098 591.854C497.89 586.262 496.078 580.521 494.676 574.672C494.676 574.672 494.134 572.354 493.456 568.808C492.646 564.386 492.058 559.926 491.694 555.445C491.315 548.81 491.405 542.157 491.965 535.535C491.965 535.535 490.881 537.854 489.525 541.399C488.17 544.945 486.679 549.854 485.323 554.899C483.668 561.665 482.535 568.549 481.934 575.49C481.934 575.49 481.663 578.217 481.528 582.172V585.035C481.392 581.763 480.985 571.672 479.766 561.581C478.822 553.516 477.465 545.505 475.699 537.581C475.699 537.581 475.157 549.717 473.395 561.445C472.262 569.293 470.724 577.076 468.786 584.763C468.786 584.763 467.159 591.581 464.448 599.763C464.041 595.808 463.906 593.081 463.906 593.081C463.906 593.081 462.686 580.808 462.279 568.535C461.873 556.263 461.873 543.581 461.873 543.581C461.873 543.581 458.619 555.581 455.908 567.854C455.366 570.035 454.959 572.354 454.553 574.399L451.3 523.399L442.353 585.172L440.998 595.535C440.727 594.445 440.591 592.808 440.32 590.763C440.049 588.717 439.506 581.763 439.371 576.581C439.081 569.622 439.262 562.651 439.913 555.717C439.913 555.717 438.829 558.172 437.473 561.854C436.118 565.535 434.356 570.717 433 575.899C431.608 580.605 430.476 585.385 429.611 590.217L429.205 592.126V590.354C429.34 587.217 429.205 584.763 429.34 582.99V580.126C429.237 579.221 429.192 578.31 429.205 577.399C429.069 575.626 429.069 573.172 428.798 570.172C428.358 562.817 427.543 555.489 426.358 548.217C425.002 540.308 423.376 532.672 421.885 526.945C421.071 524.081 420.394 521.626 419.851 519.99L419.174 517.399C419.174 517.399 419.174 518.354 419.309 520.126C419.445 521.899 419.716 524.217 419.851 527.217C420.258 533.081 420.258 540.854 419.987 548.626C419.716 556.399 418.903 564.035 418.089 569.763C417.683 572.626 417.276 574.945 417.005 576.581L416.598 579.172C416.374 580.026 416.193 580.89 416.056 581.763C415.649 583.399 415.243 585.717 414.565 588.445C413.887 591.172 412.938 594.99 411.989 598.672C409.956 588.445 408.601 580.672 408.601 580.672C408.601 580.672 405.754 563.081 404.127 545.081C402.501 527.081 401.823 509.217 401.823 509.217C401.823 509.217 399.112 527.081 397.621 545.217C396.13 563.354 395.859 581.49 395.859 581.49C395.859 581.49 395.588 595.399 396.265 611.081C393.69 595.126 390.301 579.854 390.301 579.854C390.301 579.854 386.777 563.899 382.439 548.354C378.101 532.808 372.95 517.399 372.95 517.399C372.95 517.399 373.628 522.854 374.441 530.354C373.899 525.035 373.357 521.354 373.357 521.354C373.357 521.354 372.001 535.808 370.104 550.126C368.206 564.445 365.902 578.763 365.902 578.763C365.902 578.763 364.953 584.49 363.462 592.399C363.191 589.399 362.377 580.672 362.377 571.672C362.377 562.672 363.597 549.717 363.597 549.717C360.749 556.581 358.26 563.591 356.142 570.717C354.011 577.987 352.246 585.36 350.855 592.808C350.855 592.808 350.584 593.899 350.313 595.808C350.178 595.263 349.906 594.717 349.771 594.172C348.009 588.717 346.924 584.899 346.924 584.899C346.924 584.899 345.84 581.217 344.484 575.626C343.129 570.035 341.502 562.399 340.282 554.626C339.062 546.854 338.249 539.081 337.842 533.217C337.571 530.354 337.571 527.763 337.436 526.126C337.448 525.215 337.403 524.304 337.3 523.399L336.893 526.126C336.758 527.763 336.216 530.217 335.945 533.217C335.131 539.081 334.318 546.99 333.911 555.035C333.505 563.081 333.505 570.99 333.776 577.126C333.885 578.031 333.93 578.943 333.911 579.854C332.827 583.808 331.607 587.354 330.523 590.217C329.438 593.081 327.947 596.49 327.947 596.49C327.947 596.49 326.863 598.945 324.965 602.626C322.837 607.001 320.438 611.237 317.781 615.308C317.641 615.46 317.546 615.65 317.509 615.854C319.407 603.308 320.356 592.263 320.356 592.263C320.356 592.263 321.712 577.945 321.847 563.763C321.983 549.581 321.305 535.535 321.305 535.535C321.305 535.535 319.001 549.445 315.612 562.945C312.223 576.445 307.885 589.535 307.885 589.535C307.885 589.535 305.716 595.945 302.734 604.126C301.785 599.899 300.972 595.945 300.565 592.535C300.159 589.126 299.888 588.035 299.752 586.535C299.617 585.035 299.481 584.217 299.481 584.217C299.481 584.217 299.345 583.399 299.21 581.899C298.969 579.862 298.834 577.814 298.803 575.763C298.36 569.546 298.269 563.308 298.532 557.081C298.803 550.263 299.481 543.308 300.159 538.126C300.43 535.535 300.837 533.49 301.108 531.99L301.514 529.535L300.565 531.717C300.023 533.217 299.074 535.126 298.261 537.717C295.921 543.7 293.885 549.799 292.161 555.99C290.399 562.945 288.908 569.899 287.959 575.217C287.552 577.808 287.281 579.99 287.01 581.626L286.604 584.081C286.573 584.905 286.483 585.725 286.332 586.535C286.197 588.035 285.926 590.354 285.79 593.081C285.189 599.699 284.963 606.346 285.113 612.99C285.248 615.99 285.248 618.99 285.519 621.854C285.411 621.694 285.363 621.5 285.384 621.308C282.266 609.581 279.555 597.717 279.555 597.717C279.555 597.717 276.979 585.854 274.811 573.854C272.642 561.854 270.88 549.717 270.88 549.717C270.88 549.717 269.388 561.854 268.44 574.126C267.491 586.399 266.813 598.945 266.813 598.945C266.813 598.945 266.271 611.354 266.271 623.763C266.271 626.626 266.271 629.354 266.406 632.081H265.864L264.915 589.672L263.831 537.854L252.173 588.445L244.582 621.717L244.989 617.899C246.48 603.717 247.429 589.672 247.429 589.672C247.429 589.672 248.242 575.49 248.513 561.445C248.785 547.399 248.649 533.49 248.649 533.49C248.649 533.49 245.667 547.126 242.278 560.626C238.889 574.126 234.823 587.354 234.823 587.354C234.823 587.354 230.756 600.717 226.283 613.672L223.843 620.49C224.385 611.763 224.521 604.672 224.521 604.672C224.521 604.672 224.792 592.808 224.25 581.081C223.707 569.354 222.623 557.763 222.623 557.763C222.623 557.763 220.59 569.217 217.879 580.399C215.168 591.581 211.914 602.626 211.914 602.626C211.914 602.626 210.694 606.581 208.932 611.899L206.086 597.717L196.597 549.717L192.395 612.717C187.922 605.763 184.668 600.308 184.668 600.308C184.668 600.308 177.755 588.99 171.113 577.263C164.471 565.535 158.371 553.808 158.371 553.808C158.371 553.808 161.489 566.763 165.284 579.854C169.08 592.945 173.011 605.626 173.011 605.626Z" fill="url(#paint1_linear_4857_1850)"/>
<path d="M-17.7963 338.565C-13.4831 339.206 -9.20685 340.077 -4.98574 341.174L-2.90835 334.043C-8.62118 331.609 -27.1446 323.609 -34.0692 317.522C-40.9939 311.435 -68 286.913 -68 286.913C-68 286.913 -47.5723 296.826 -36.8391 302.913C-26.1059 309 -8.27494 323.609 -1.52341 329C-0.657834 326.391 0.0346192 323.609 0.9002 320.826C-6.02444 316.478 -24.5478 305 -32.165 298.043C-39.7821 291.087 -52.9389 270.739 -52.9389 270.739C-52.9389 270.739 -39.4358 288.826 -30.2607 292.652C-21.0855 296.478 -14.1609 298.391 -6.89002 305.522C-2.38901 309.869 0.727097 313.348 2.45826 315.261C3.49695 311.956 4.53563 308.304 5.57432 304.652C-0.311622 302.217 -17.4501 295.087 -24.3747 289.348L-59.1711 260.652C-50.0247 266.018 -40.5411 270.782 -30.78 274.913C-20.22 278.913 0.727083 295.087 6.95926 300.13L8.51732 294.913C3.15072 291.956 -14.334 282.565 -21.4318 275.783C-28.5295 269 -56.7475 238.739 -56.7475 238.739C-47.5254 245.322 -37.9301 251.362 -28.0102 256.826C-17.4501 262.217 4.01629 283.609 10.0754 289.869L12.6721 281C5.64271 276.281 -1.1193 271.171 -7.58248 265.696C-14.6802 259.435 -24.2016 250.391 -32.5112 245.174C-40.8208 239.956 -55.5356 232.13 -55.5356 232.13C-55.5356 232.13 -17.9694 246.391 -7.06312 255.435C3.84319 264.478 10.2485 273.869 13.5377 278.217L17.1731 266.565C12.1528 263.609 -3.4277 254.043 -11.5642 244.13C-19.7006 234.217 -40.3014 199.087 -40.3014 199.087C-33.2989 208.371 -25.7855 217.254 -17.7963 225.696C-8.79431 234.739 13.0183 258.043 18.2118 263.435C19.0774 260.478 20.1161 257.522 20.9817 254.565C15.0957 250.391 -3.94703 236.478 -11.391 226.391C-18.835 216.304 -37.5316 189.696 -37.5316 189.696C-37.5316 189.696 -15.892 209.522 -3.6008 221.174C5.63813 230.384 14.2553 240.203 22.1935 250.565C23.2322 247.609 24.0978 244.826 25.1365 242.043C22.1935 238.565 7.99795 221.869 1.24642 210.913C-5.5051 199.956 -18.4888 171.261 -18.4888 171.261C-18.4888 171.261 -1.86964 192.478 7.65174 206.739C17.1731 221 23.9246 234.043 26.3483 238.565C27.7332 234.565 29.2912 230.565 30.6762 226.913C23.4616 219.652 17.2333 211.465 12.1527 202.565C4.1894 187.783 -3.4277 169.348 -3.4277 169.348C4.21023 178.29 11.21 187.763 17.5194 197.696C23.2322 207.261 29.1181 218.391 32.0611 223.609C33.0998 220.826 34.3116 218.043 35.5234 215.435C32.7536 211.435 24.7902 200.304 20.4623 190.565C16.1344 180.826 8.86355 160.478 8.86355 160.478C12.9647 168.358 17.6522 175.916 22.8859 183.087C29.4643 191.956 35.0041 206.739 36.9083 212.304C38.2933 209.174 39.6782 206.391 41.0631 203.783C38.6395 200.304 31.0224 188.826 29.4644 182.913C27.9063 177 21.8473 154.043 21.8473 154.043C21.8473 154.043 30.5031 171.435 34.6579 180.13C37.8432 186.952 40.3931 194.054 42.2749 201.348L45.9104 194.913C42.7943 190.565 33.446 176.652 33.0998 172.304C32.7535 167.956 26.8676 146.913 26.8676 146.913C26.8676 146.913 32.9267 162.565 37.7739 172.304L47.2953 192.478C48.334 190.739 49.3727 189 50.4114 187.609C51.4501 186.217 44.5255 173 42.2749 167.782C39.7563 161.128 37.6177 154.334 35.8696 147.435C35.8696 147.435 40.3707 157 43.3137 163.956C46.2566 170.913 50.0652 181.348 51.6232 185.522L54.0468 182.217C52.6619 179.609 47.4684 168.826 46.0835 162.913C44.6985 157 43.1405 142.217 43.1405 142.217C43.1405 142.217 47.2953 153.174 49.892 162.739L55.2587 180.652C55.8644 179.716 56.5602 178.842 57.336 178.043C55.5345 173.43 54.4824 168.557 54.22 163.609C54.0468 155.609 53.8737 144.652 53.8737 144.652C56.771 150.093 58.5379 156.069 59.0672 162.217C59.4396 167.162 59.1485 172.134 58.2016 177C59.581 175.213 61.1481 173.58 62.8758 172.13C61.9294 168.429 61.8701 164.555 62.7026 160.826C63.7322 156.068 65.0034 151.366 66.5112 146.739C66.5112 146.739 70.1467 153.348 68.4155 157.869C66.6843 162.391 65.8187 165 65.8187 165C67.7537 161.72 70.1436 158.734 72.9165 156.13C77.4175 151.956 85.3808 150.217 85.3808 150.217C85.3808 150.217 77.0713 161.522 73.0896 164.304C69.1079 167.087 66.5112 169.522 64.6069 171.087C66.8296 170.003 69.1478 169.13 71.5316 168.478C75.0846 167.506 78.7556 167.037 82.4378 167.087C79.6175 169.394 76.2966 171.002 72.7434 171.782C67.5499 172.826 67.3767 172.478 63.3951 173.174C61.272 176.019 59.307 178.98 57.5091 182.043C61.5079 179.178 65.9546 177.003 70.666 175.609C78.6293 173.174 91.7862 170.217 91.7862 170.217C91.7862 170.217 77.0713 178.043 70.1467 179.261C65.6762 180.068 61.2767 181.231 56.9898 182.739L54.22 187.956C58.342 185.604 62.6925 183.681 67.2037 182.217C73.7821 180.304 74.3014 181 82.4378 178.913C88.6552 177.177 94.7318 174.968 100.615 172.304C100.615 172.304 91.7861 182.217 86.0733 182.913C80.3605 183.609 74.9939 187.087 67.3768 188.13C62.402 188.725 57.4818 189.714 52.6619 191.087C51.5434 192.926 50.5598 194.844 49.7189 196.826C56.1243 194.4 62.7276 192.538 69.4541 191.261C79.3218 189.696 100.961 188.304 100.961 188.304C100.961 188.304 80.3605 194.913 73.0896 196.13L47.8146 200.478C46.5451 202.913 45.3333 205.522 44.1792 208.304C51.8773 204.718 59.7997 201.639 67.8961 199.087C78.11 196.304 100.269 192.13 100.269 192.13C100.269 192.13 78.8024 203.435 67.8961 205.696C56.9898 207.956 47.1222 210.391 42.6212 211.609L38.4664 220.826C43.3136 218.217 59.0672 209.869 66.3381 207.783C73.609 205.696 99.057 200.826 99.057 200.826C99.057 200.826 75.167 212.304 66.8574 214.565C58.5478 216.826 41.5825 222.739 37.0815 224.304C35.6919 227.244 34.478 230.263 33.446 233.348C39.5051 231.261 56.4705 225.696 62.8758 222.043C69.2811 218.391 71.5316 220.13 80.3605 216.826C89.1894 213.522 102 207.783 102 207.783C102 207.783 90.4012 218.739 83.6497 220.478C76.8982 222.217 71.5315 228.826 63.3951 231.261C53.1116 234.233 42.5558 236.156 31.888 237C30.8493 240.13 29.6375 243.087 28.5988 246.217C33.9654 243.956 53.8737 235.956 61.3177 234.043C68.7617 232.13 98.3645 226.913 98.3645 226.913C98.3645 226.913 82.9572 231.956 75.8595 234.913C68.7617 237.869 64.9532 244.13 54.5662 245.869C44.1792 247.609 32.9267 249 27.5601 249.696C26.8676 251.435 26.3483 253 25.8289 254.739L24.2709 259.956C31.6165 257.249 39.1352 255.041 46.776 253.348C59.2403 250.913 65.6456 253.869 75.8595 250.739C84.0128 247.79 91.9398 244.245 99.5764 240.13C99.5764 240.13 87.2851 253 77.9369 254.391C68.5886 255.782 59.0672 255.435 53.3544 258.217C47.6415 261 44.0061 263.261 37.2546 263.261C30.5031 263.261 26.6945 262.739 23.5784 262.565C22.1935 266.739 20.9817 271.261 19.5967 275.956C24.444 273.696 42.2749 265.522 52.4888 263.087C62.7026 260.652 94.0366 258.913 94.0366 258.913C94.0366 258.913 73.0896 264.13 63.3951 267.783C53.7006 271.435 45.9104 275.956 37.4277 276.652L18.9043 278.565C18.0387 281.522 17.1731 284.652 16.1344 287.783C22.5397 285.522 39.8513 279.261 48.8533 276.478C57.8554 273.696 91.9592 266.217 91.9592 266.217C91.9592 266.217 69.4542 273.522 63.9145 277.174C58.3747 280.826 47.4684 286.739 37.2546 288.652C27.0407 290.565 19.4236 291.087 15.0957 291.609L11.9796 302.565C17 300.478 31.0224 294.391 42.2749 291.956C56.1242 289 89.3625 290.043 89.3625 290.043C89.3625 290.043 73.0896 290.913 62.7026 295.261C52.3157 299.609 36.389 305.869 27.2138 306.391L10.7678 306.913C10.2485 309.174 9.55601 311.435 8.86355 313.696C13.5377 312.478 24.444 309.869 35.0041 308.304C48.8533 306.217 91.613 302.043 91.613 302.043C91.613 302.043 62.0102 311.783 49.5458 315.261C37.0814 318.739 30.5031 318.739 7.65174 317.869L5.40123 326.391C7.99797 324.826 13.7108 323.261 26.5214 322.913C50.2383 322.217 78.4562 327.435 78.4562 327.435C69.5402 327.678 60.6423 328.375 51.7963 329.522C43.833 330.913 11.8065 330.913 4.18942 330.913L2.112 338.043C8.61795 335.058 15.7424 333.686 22.8859 334.043C37.4277 334.565 57.336 351.261 57.336 351.261C57.336 351.261 37.0815 338.391 28.5988 339.087C20.1161 339.783 19.7699 342.739 13.5377 342.565C9.46911 342.305 5.4214 341.782 1.41955 341C0.55397 343.782 0.380854 345 -0.31161 347.435C4.01629 346.217 14.7495 346.739 22.8859 350.043C31.0224 353.348 37.4277 361 37.4277 361C32.019 358.999 26.3743 357.712 20.6354 357.174C13.5377 356.652 2.80448 352.13 -1.17719 350.217C-6.19756 369 -9.83299 382.217 -9.83299 382.217L-14.6802 376.13L-6.02444 344.826C-10.3523 345.174 -21.778 346.043 -31.4725 343.783C-41.167 341.522 -63.6721 330.913 -63.6721 330.913C-63.6721 330.913 -46.8798 337 -39.6089 338.217C-32.3381 339.435 -26.1059 337.522 -17.7963 338.565Z" fill="url(#paint2_linear_4857_1850)"/>
<path d="M401.763 396.492C394.963 400.135 389.604 406.557 385.583 412.979C388.168 404.351 391.71 393.998 396.018 384.51C396.4 383.649 395.349 382.881 394.679 383.551C386.443 391.22 380.605 400.708 376.389 409.335C379.164 399.172 383.38 386.618 389.218 376.553C389.696 375.785 388.642 374.924 387.972 375.497C379.549 382.207 373.423 391.504 369.017 400.229C369.398 394.189 370.453 387 372.749 379.62C373.037 378.758 371.983 378.084 371.313 378.758C364.517 385.562 361.069 396.013 359.251 404.542C358.39 400.996 358.293 395.533 359.827 387.386C361.454 380.866 363.466 373.965 365.762 367.353C366.05 366.492 364.996 365.818 364.326 366.492C353.696 378.182 347.854 393.328 344.791 403.967C344.791 394.19 345.461 382.687 347.952 372.622C348.143 371.761 346.994 371.184 346.418 371.952C340.385 380.482 337.034 390.933 335.309 400.421C332.149 395.725 328.225 391.123 323.243 387.001C322.574 386.424 321.519 387.191 321.904 387.959C326.501 397.833 329.373 407.801 331.098 415.66C326.98 408.471 321.044 400.611 313.286 396.489C312.52 396.107 311.659 396.968 312.138 397.735C320.374 410.006 324.013 423.044 325.352 428.605L317.023 432.057C315.396 432.723 315.875 435.217 317.692 435.217H397.355C399.173 435.217 399.652 432.723 398.025 432.053L389.695 428.601C391.034 423.04 394.673 410.006 402.812 397.829C403.388 397.065 402.528 396.106 401.761 396.492L401.763 396.492Z" fill="url(#paint3_linear_4857_1850)"/>
<path d="M506.796 332.747C502.483 333.385 498.207 334.252 493.986 335.345L491.908 328.244C497.621 325.819 516.145 317.853 523.069 311.791C529.994 305.73 557 281.31 557 281.31C557 281.31 536.572 291.182 525.839 297.243C515.106 303.305 497.275 317.853 490.523 323.222C489.658 320.624 488.965 317.853 488.1 315.082C495.024 310.752 513.548 299.322 521.165 292.394C528.782 285.467 541.939 265.204 541.939 265.204C541.939 265.204 528.436 283.215 519.261 287.025C510.086 290.835 503.161 292.74 495.89 299.841C491.389 304.171 488.273 307.635 486.542 309.54C485.503 306.249 484.464 302.612 483.426 298.975C489.312 296.551 506.45 289.45 513.375 283.735L548.171 255.159C539.025 260.502 529.541 265.246 519.78 269.36C509.22 273.343 488.273 289.45 482.041 294.472L480.483 289.277C485.849 286.333 503.334 276.98 510.432 270.226C517.53 263.472 545.747 233.337 545.747 233.337C536.525 239.893 526.93 245.907 517.01 251.348C506.45 256.717 484.984 278.019 478.925 284.254L476.328 275.422C483.357 270.722 490.119 265.634 496.582 260.181C503.68 253.946 513.202 244.94 521.511 239.745C529.821 234.549 544.536 226.756 544.536 226.756C544.536 226.756 506.969 240.957 496.063 249.963C485.157 258.969 478.752 268.321 475.462 272.651L471.827 261.047C476.847 258.103 492.428 248.577 500.564 238.706C508.701 228.834 529.301 193.85 529.301 193.85C522.299 203.095 514.786 211.941 506.796 220.348C497.794 229.354 475.982 252.561 470.788 257.93C469.923 254.985 468.884 252.041 468.018 249.097C473.904 244.94 492.947 231.085 500.391 221.04C507.835 210.996 526.532 184.498 526.532 184.498C526.532 184.498 504.892 204.241 492.601 215.845C483.362 225.017 474.745 234.795 466.807 245.114C465.768 242.169 464.902 239.398 463.864 236.627C466.807 233.164 481.002 216.538 487.754 205.627C494.505 194.716 507.489 166.14 507.489 166.14C507.489 166.14 490.87 187.269 481.348 201.47C471.827 215.672 465.075 228.661 462.652 233.164C461.267 229.18 459.709 225.197 458.324 221.56C465.538 214.329 471.767 206.176 476.847 197.314C484.811 182.593 492.428 164.235 492.428 164.235C484.79 173.14 477.79 182.573 471.481 192.464C465.768 201.99 459.882 213.074 456.939 218.269C455.9 215.498 454.688 212.727 453.477 210.13C456.246 206.146 464.21 195.062 468.538 185.364C472.866 175.665 480.136 155.402 480.136 155.402C476.035 163.249 471.348 170.775 466.114 177.917C459.536 186.749 453.996 201.47 452.092 207.012C450.707 203.895 449.322 201.124 447.937 198.526C450.361 195.062 457.978 183.632 459.536 177.743C461.094 171.855 467.153 148.994 467.153 148.994C467.153 148.994 458.497 166.313 454.342 174.972C451.157 181.765 448.607 188.838 446.725 196.101L443.09 189.693C446.206 185.364 455.554 171.509 455.9 167.179C456.246 162.849 462.132 141.893 462.132 141.893C462.132 141.893 456.073 157.48 451.226 167.179L441.705 187.269C440.666 185.537 439.627 183.805 438.589 182.419C437.55 181.034 444.475 167.872 446.725 162.676C449.244 156.049 451.382 149.284 453.13 142.413C453.13 142.413 448.629 151.938 445.686 158.866C442.743 165.793 438.935 176.185 437.377 180.341L434.953 177.051C436.338 174.453 441.532 163.715 442.917 157.827C444.301 151.938 445.859 137.217 445.859 137.217C445.859 137.217 441.705 148.128 439.108 157.654L433.741 175.492C433.136 174.56 432.44 173.69 431.664 172.894C433.466 168.3 434.518 163.447 434.78 158.519C434.953 150.553 435.126 139.642 435.126 139.642C432.229 145.061 430.462 151.012 429.933 157.134C429.56 162.058 429.852 167.009 430.798 171.855C429.419 170.075 427.852 168.449 426.124 167.006C427.071 163.32 427.13 159.462 426.297 155.748C425.268 151.01 423.997 146.328 422.489 141.72C422.489 141.72 418.853 148.301 420.585 152.804C422.316 157.307 423.181 159.905 423.181 159.905C421.246 156.639 418.856 153.665 416.084 151.072C411.583 146.916 403.619 145.184 403.619 145.184C403.619 145.184 411.929 156.441 415.91 159.212C419.892 161.983 422.489 164.408 424.393 165.967C422.17 164.888 419.852 164.018 417.468 163.369C413.915 162.4 410.244 161.934 406.562 161.983C409.383 164.281 412.703 165.882 416.257 166.659C421.45 167.698 421.623 167.352 425.605 168.045C427.728 170.878 429.693 173.827 431.491 176.877C427.492 174.024 423.045 171.858 418.334 170.469C410.371 168.045 397.214 165.101 397.214 165.101C397.214 165.101 411.929 172.894 418.853 174.106C423.324 174.91 427.723 176.069 432.01 177.57L434.78 182.766C430.658 180.423 426.308 178.508 421.796 177.051C415.218 175.146 414.699 175.838 406.562 173.76C400.345 172.031 394.268 169.831 388.385 167.179C388.385 167.179 397.214 177.051 402.927 177.743C408.64 178.436 414.006 181.9 421.623 182.939C426.598 183.532 431.518 184.516 436.338 185.883C437.457 187.714 438.44 189.624 439.281 191.598C432.876 189.182 426.272 187.328 419.546 186.056C409.678 184.498 388.039 183.112 388.039 183.112C388.039 183.112 408.64 189.693 415.91 190.906L441.185 195.235C442.455 197.66 443.667 200.258 444.821 203.029C437.123 199.457 429.2 196.391 421.104 193.85C410.89 191.079 388.731 186.922 388.731 186.922C388.731 186.922 410.198 198.18 421.104 200.431C432.01 202.683 441.878 205.107 446.379 206.319L450.534 215.498C445.686 212.901 429.933 204.588 422.662 202.509C415.391 200.431 389.943 195.582 389.943 195.582C389.943 195.582 413.833 207.012 422.143 209.264C430.452 211.515 447.418 217.404 451.919 218.962C453.308 221.889 454.522 224.897 455.554 227.968C449.495 225.89 432.53 220.348 426.124 216.711C419.719 213.074 417.468 214.806 408.64 211.515C399.811 208.225 387 202.509 387 202.509C387 202.509 398.599 213.42 405.35 215.152C412.102 216.884 417.468 223.465 425.605 225.89C435.888 228.85 446.444 230.765 457.112 231.605C458.151 234.722 459.363 237.667 460.401 240.784C455.035 238.533 435.126 230.566 427.682 228.661C420.238 226.756 390.635 221.56 390.635 221.56C390.635 221.56 406.043 226.583 413.141 229.527C420.238 232.471 424.047 238.706 434.434 240.438C444.821 242.169 456.073 243.555 461.44 244.248C462.132 245.98 462.652 247.538 463.171 249.27L464.729 254.466C457.384 251.769 449.865 249.571 442.224 247.885C429.76 245.46 423.354 248.404 413.141 245.287C404.987 242.351 397.06 238.82 389.424 234.722C389.424 234.722 401.715 247.538 411.063 248.924C420.411 250.309 429.933 249.963 435.646 252.734C441.358 255.505 444.994 257.756 451.745 257.756C458.497 257.756 462.306 257.237 465.422 257.064C466.807 261.22 468.018 265.723 469.403 270.399C464.556 268.148 446.725 260.008 436.511 257.583C426.297 255.159 394.963 253.427 394.963 253.427C394.963 253.427 415.91 258.622 425.605 262.259C435.299 265.896 443.09 270.399 451.572 271.092L470.096 272.997C470.961 275.941 471.827 279.059 472.866 282.176C466.46 279.925 449.149 273.69 440.147 270.919C431.145 268.148 397.041 260.701 397.041 260.701C397.041 260.701 419.546 267.975 425.086 271.611C430.625 275.248 441.532 281.137 451.745 283.042C461.959 284.947 469.576 285.467 473.904 285.986L477.02 296.897C472 294.819 457.978 288.757 446.725 286.333C432.876 283.388 399.638 284.427 399.638 284.427C399.638 284.427 415.91 285.293 426.297 289.623C436.684 293.953 452.611 300.188 461.786 300.707L478.232 301.227C478.752 303.478 479.444 305.73 480.136 307.981C475.462 306.769 464.556 304.171 453.996 302.612C440.147 300.534 397.387 296.377 397.387 296.377C397.387 296.377 426.99 306.076 439.454 309.54C451.919 313.004 458.497 313.004 481.348 312.138L483.599 320.624C481.002 319.065 475.289 317.506 462.479 317.16C438.762 316.467 410.544 321.663 410.544 321.663C419.46 321.906 428.358 322.599 437.204 323.741C445.167 325.127 477.193 325.127 484.811 325.127L486.888 332.227C480.382 329.255 473.258 327.889 466.114 328.244C451.572 328.764 431.664 345.39 431.664 345.39C431.664 345.39 451.919 332.574 460.401 333.267C468.884 333.959 469.23 336.904 475.462 336.73C479.531 336.471 483.579 335.95 487.58 335.172C488.446 337.943 488.619 339.155 489.312 341.58C484.984 340.367 474.251 340.887 466.114 344.177C457.978 347.468 451.572 355.088 451.572 355.088C456.981 353.095 462.626 351.815 468.365 351.278C475.462 350.759 486.196 346.256 490.177 344.351C495.198 363.055 498.833 376.217 498.833 376.217L503.68 370.156L495.024 338.982C499.352 339.328 510.778 340.194 520.473 337.943C530.167 335.691 552.672 325.127 552.672 325.127C552.672 325.127 535.88 331.188 528.609 332.401C521.338 333.613 515.106 331.708 506.796 332.747Z" fill="url(#paint4_linear_4857_1850)"/>
<path d="M108.265 469.009C108.177 463.965 129.627 464.584 129.627 464.584C129.627 464.584 129.891 458.213 121.451 447.86C110.55 434.586 86.6382 429.277 78.4623 444.32C77.1436 446.621 75.2975 451.93 77.4953 456.532C78.492 454.532 79.7647 452.685 81.2755 451.045C83.907 448.269 87.0794 446.07 90.5942 444.585C87.6992 446.602 85.0443 448.948 82.6821 451.576C80.9129 453.584 79.567 455.932 78.7261 458.478L80.2206 460.691C82.4184 458.478 87.869 453.257 92.7041 450.337C99.0338 446.532 101.935 446.709 101.935 446.709C101.935 446.709 98.5943 447.24 93.2316 451.222C87.869 455.204 84.0008 460.779 82.1547 463.257L86.6382 469.097C89.1238 467.308 91.8462 465.878 94.7261 464.85C98.3121 463.59 102.094 462.991 105.891 463.08C102.25 463.977 98.6684 465.1 95.1657 466.442C92.5339 467.462 90.1827 469.1 88.3085 471.221C91.2096 474.938 94.3745 478.831 97.5393 482.636C99.6449 481.382 101.927 480.457 104.309 479.893C106.549 479.319 108.909 479.443 111.078 480.247C108.832 480.395 106.615 480.842 104.484 481.574C102.553 482.247 100.806 483.369 99.3855 484.848C103.605 489.981 123.825 513.519 123.825 513.519L104.924 493.255C104.309 494.671 102.023 500.423 101.407 504.405C101.045 507.203 101.134 510.042 101.671 512.811C101.291 510.32 101.056 507.809 100.968 505.29C100.792 501.485 102.638 493.697 103.429 491.574L91.9129 479.185C89.7863 482.415 87.9336 485.819 86.3744 489.361C83.6492 495.556 81.1876 505.998 81.1876 505.998C81.6011 500.645 82.6338 495.358 84.2645 490.246C85.8889 485.777 87.8279 481.43 90.0668 477.238L82.1547 468.655C79.6052 471.221 73.803 477.504 71.781 480.689C69.759 483.875 64.748 496.352 64.748 496.352C65.6518 490.579 67.6197 485.027 70.5502 479.981C73.4803 475.306 76.6494 470.787 80.0448 466.442L77.4074 463.611C77.2316 463.345 69.6711 466.885 65.5392 470.602C59.8249 475.734 53.8469 484.229 53.8469 484.229C53.8469 484.229 59.2095 473.876 64.3963 469.097C67.7262 466.146 71.3842 463.592 75.2975 461.487L73.803 460.248C71.3414 459.983 68.7041 459.629 65.9788 460.602C63.5431 461.643 61.3106 463.111 59.3854 464.938C60.9504 462.521 63.1802 460.615 65.8029 459.452C67.3513 458.715 69.0191 458.265 70.726 458.124C54.1106 448.656 39.9567 470.159 45.0556 489.361C49.0117 504.582 65.5392 518.563 65.5392 518.563C65.5392 518.563 64.6601 510.422 66.5942 503.608C68.5282 496.795 73.6271 484.583 79.6931 485.468C85.759 486.353 68.0887 506.529 70.2865 519.006C72.0447 529.536 93.4953 531.217 93.4953 531.217C93.4953 531.217 89.0997 529.89 86.814 523.43C84.5283 516.97 89.3635 497.856 94.0228 497.149C100.177 496.175 87.3415 518.386 98.0668 527.324C104.221 532.456 112.572 526.173 119.078 523.961C123.365 522.706 127.892 522.524 132.265 523.43C132.265 523.43 132.528 519.979 133.056 512.28C133.583 504.582 138.331 499.184 134.55 494.317C130.77 489.45 116.44 492.016 117.847 487.857C119.254 483.698 135.078 489.981 135.078 489.981C135.078 489.981 134.902 486.176 134.726 477.504C134.55 468.832 108.353 474.053 108.265 469.009Z" fill="#5FAA3B"/>
<path d="M383.008 390.282C383.008 390.282 382.752 395.899 385.225 400.41C387.697 404.92 396.224 401.431 396.821 405.431C397.418 409.431 388.038 406.027 388.038 406.027C388.038 406.027 391.023 415.303 395.713 416.58C400.403 417.856 405.178 411.133 408.93 414.112C412.682 417.09 402.023 421.175 402.023 421.175C402.023 421.175 406.116 426.962 412.34 427.132C418.565 427.303 416.433 420.494 420.185 423.558C423.937 426.622 416.689 429.005 416.689 429.005C416.689 429.005 421.038 431.132 425.216 429.175C429.395 427.218 432.976 418.622 432.976 418.622C432.976 418.622 433.146 416.239 435.022 423.558C436.046 427.558 434.596 434.707 434.596 434.707L436.898 435.217C437.492 431.729 437.55 428.17 437.069 424.664C436.301 418.452 435.79 417.345 435.79 417.345C435.79 417.345 440.821 423.558 451.224 425.601C456.255 426.622 458.983 419.984 458.983 419.984C458.983 419.984 446.278 420.579 447.045 416.58C447.813 412.58 453.1 415.814 460.859 416.239C468.619 416.665 467.084 402.622 467.084 402.622C467.084 402.622 459.324 407.558 456.681 404.92C454.038 402.282 463.673 400.24 468.022 397.431C472.371 394.623 468.193 386.112 468.193 386.112C468.193 386.112 457.193 395.133 455.487 393.687C453.782 392.24 463.844 384.41 467.255 381.602C470.665 378.793 463.503 370.453 463.503 370.453C463.503 370.453 456.681 380.07 453.611 378.368C450.542 376.666 457.619 371.56 458.813 365.602C460.007 359.645 451.821 355.985 451.821 355.985C451.821 355.985 451.394 366.623 447.387 366.964C443.379 367.304 447.898 364.666 449.348 355.22C450.2 349.688 441.418 347.475 441.418 347.475C441.418 347.475 442.185 353.688 437.666 355.73C433.146 357.773 434.425 349.347 434.852 346.199C435.278 343.05 427.092 342.369 427.092 342.369C427.092 342.369 427.945 356.411 424.364 356.241C420.782 356.071 426.069 351.135 423.511 344.326C422.147 340.582 417.286 342.965 417.286 342.965C417.286 342.965 419.077 345.943 419.162 352.581C419.162 354.879 419.503 356.411 416.689 358.113C413.875 359.815 415.495 351.56 415.154 348.837C414.472 341.688 410.806 345.943 407.565 346.879C404.325 347.815 402.108 345.262 400.488 348.071C397.503 353.092 409.782 359.219 402.193 360.411C399.038 360.922 393.666 354.624 393.666 354.624C393.666 354.624 390.341 357.347 390.767 360.326C391.62 365.943 399.294 365.602 396.48 369.347C393.666 373.091 389.403 366.283 389.403 366.283C389.403 366.283 388.038 366.709 387.271 371.56C386.504 376.41 391.79 376.07 390.938 377.091C387.868 380.751 385.225 374.198 385.225 374.198C383.854 376.606 383.176 379.344 383.263 382.112C383.263 387.219 391.279 386.112 390.767 389.091C389.914 394.367 383.008 390.282 383.008 390.282ZM413.108 379.644C410.891 381.857 401.17 375.73 403.899 372.836C406.627 369.943 415.837 376.921 413.108 379.644ZM402.364 384.666C403.643 381.176 419.759 389.006 418.65 391.219C417.542 393.431 401.341 387.389 402.364 384.666ZM418.224 375.559C415.325 374.879 421.805 361.007 424.705 362.368C427.604 363.73 421.123 376.24 418.224 375.559ZM432.891 389.261C429.821 387.389 443.379 369.262 445.17 371.56C446.96 373.857 435.96 391.133 432.891 389.261ZM439.201 396.069C438.518 394.197 450.968 382.368 451.65 384.666C452.332 386.963 439.883 397.942 439.201 396.069ZM431.1 374.793C428.115 371.389 433.232 360.581 436.216 361.773C439.201 362.964 434.17 378.113 431.1 374.793ZM423.34 384.155C420.441 382.623 425.984 372.496 428.627 375.985C431.27 379.474 426.154 385.687 423.34 384.155ZM405.178 407.048C404.922 404.665 418.65 406.537 418.48 407.984C418.139 411.303 405.775 411.473 405.178 407.048ZM395.969 393.772C397.845 391.219 416.263 398.623 415.24 401.346C414.216 404.069 394.434 395.899 395.969 393.772ZM394.945 379.474C396.31 378.198 403.643 381.602 400.744 384.155C397.845 386.708 392.728 381.602 394.945 379.474Z" fill="#5FAA3B"/>
<path d="M381.09 418.894C391.89 418.829 401.367 424.862 408.452 431.725C406.801 428.617 406.755 425.578 405.2 422.515C403.644 419.452 398.858 414.846 397.326 410.287C408.915 409.322 421.412 418.537 426.29 429.219C427.871 433.918 429.402 438.478 428.776 443.864C428.15 449.25 424.106 450.104 423.41 453.949C425.569 437.693 419.846 421.038 405.027 414.195C418.336 421.013 420.048 440.626 420.204 450.91C412.33 435.549 394.375 427.209 377.304 427.413C395.885 427.234 414.724 440.984 419.578 459.429C420.296 460.119 416.464 462.467 416.464 462.467C405.501 454.913 393.842 448.07 380.553 448.92C382.158 448.99 400.834 451.989 412.424 466.687L410.985 468.204C400.754 459.144 377.627 467.478 369.963 475.305C381.6 468.215 399.617 461.966 407.825 471.337C404.335 474.922 401.054 478.701 397.997 482.656C386.337 478.946 377.093 488.339 369.38 496.027C377.069 489.836 385.299 482.047 396.241 485.066C395.087 486.313 393.826 487.458 392.472 488.488C391.026 489.537 378.695 500.706 373.354 509.294C378.633 503.632 384.323 498.361 390.378 493.521C385.082 502.075 382.718 512.098 383.641 522.094C382.736 509.016 388.869 496.629 398.067 487.33C402.921 502.642 402.317 518.828 399.345 534.348C404.64 519.589 402.921 502.642 400.46 486.5C400.414 483.462 404.176 479.573 406.498 477.201C415.139 487.127 416.857 500.941 421.619 513.308C419.204 500.205 413.583 487.196 409.658 474.068L413.42 470.179C429.89 476.998 435.487 494.636 442.593 509.167C438.577 493.095 430.608 477.689 417.277 466.335C422.76 463.964 427.405 465.486 432.096 466.913C446.078 471.384 453.233 482.921 461.873 492.847C453.162 478.246 440.573 462.955 422.714 460.926C430.424 459.27 437.247 458.234 445.173 461.438C451.247 463.874 457.786 468.968 464.754 471.25C453.024 462.866 440.552 455.287 426.521 456.942C435.047 449.991 447.473 448.266 458.274 448.201C452.504 447.088 446.565 447.159 440.824 448.409C435.084 449.659 429.662 452.062 424.895 455.47C430.261 442.253 446.551 440.284 459.807 440.463C468.535 440.569 468.448 450.389 467.705 451.195C460.713 453.542 453.628 449.812 448.287 455.267C458.366 457.41 478.842 479.6 469.713 477.91C460.584 476.221 453.024 465.998 442.224 466.063C449.168 469.842 456.583 473.614 463.291 480.529C467.123 484.447 467.261 490.43 466.589 495.91C465.917 501.391 461.223 502.862 456.507 502.931C454.185 502.171 454.184 499.038 453.371 498.302C452.537 489.898 448.517 479.857 439.923 476.103C436.788 474.606 447.124 490.679 449.469 499.107C450.328 506.014 452.025 515.294 444.265 519.943C441.968 520.818 438.832 519.321 438.807 517.685C430.909 506.954 435.395 485.427 419.066 484.825C415.185 490.165 421.481 494.795 422.269 500.16C424.733 507.138 432.56 513.195 429.517 520.907C427.17 524.776 421.039 524.866 417.904 520.236C413.884 513.328 413.025 506.421 411.399 498.683C410.61 496.451 408.242 492.651 405.152 494.193C408.404 506.536 410.123 520.35 405.545 532.667C404.036 535.776 399.436 540.425 396.301 538.928C390.03 535.934 393.816 527.416 395.279 521.269C396.743 515.123 394.374 508.191 392.818 501.995C388.194 511.274 388.286 520.483 387.59 530.593C387.661 532.135 385.314 532.871 382.991 532.11L380.693 529.852C377.511 522.184 378.904 514.496 379.6 507.519C376.581 510.602 372.749 516.082 368.776 515.346C364.803 514.609 368.73 509.175 370.239 506.067C376.418 499.851 385.687 488.961 383.294 489.791C377.115 492.874 373.353 499.896 365.572 500.01L363.992 498.443C365.526 490.706 372.448 486.817 378.673 483.64C384.898 480.463 391.82 479.707 394.026 472.755C381.6 471.347 374.724 481.407 366.965 489.189C366.268 489.9 364.713 489.97 363.108 489.9C361.504 489.83 361.577 485.34 361.507 483.798C366.014 469.939 380.741 461.307 394.701 458.11C384.573 455.827 375.212 457.508 365.084 455.225C362.715 454.558 357.327 453.842 358.07 449.904C373.518 439.064 393.771 446.528 410.1 447.13C406 444.245 398.507 438.463 391.117 436.328C377.237 432.37 362.763 432.769 364.783 429.092C368.182 423.058 374.122 419.745 381.09 418.894Z" fill="url(#paint5_linear_4857_1850)"/>
<path d="M80.3019 406.053C86.9522 409.644 92.1939 415.973 96.1261 422.301C93.5984 413.799 90.1343 403.595 85.9206 394.245C85.5475 393.396 86.5754 392.64 87.2302 393.3C95.2852 400.858 100.995 410.208 105.118 418.71C102.404 408.695 98.2814 396.322 92.5717 386.403C92.1035 385.646 93.135 384.798 93.7898 385.362C102.028 391.975 108.019 401.138 112.329 409.736C111.956 403.784 110.924 396.698 108.678 389.425C108.396 388.577 109.428 387.912 110.083 388.577C116.729 395.282 120.102 405.581 121.88 413.987C122.722 410.492 122.817 405.108 121.317 397.079C119.726 390.654 117.758 383.853 115.512 377.337C115.23 376.488 116.261 375.824 116.916 376.488C127.313 388.008 133.026 402.935 136.022 413.42C136.022 403.785 135.367 392.448 132.931 382.529C132.744 381.681 133.867 381.112 134.431 381.869C140.331 390.275 143.608 400.574 145.295 409.925C148.386 405.297 152.223 400.762 157.096 396.699C157.751 396.131 158.783 396.888 158.406 397.644C153.91 407.375 151.101 417.198 149.414 424.944C153.442 417.858 159.247 410.113 166.834 406.05C167.584 405.673 168.426 406.522 167.957 407.279C159.902 419.372 156.343 432.22 155.033 437.7L163.18 441.103C164.771 441.76 164.303 444.217 162.525 444.217H84.6132C82.8354 444.217 82.3672 441.76 83.9584 441.099L92.1048 437.697C90.7952 432.217 87.236 419.372 79.2763 407.37C78.713 406.618 79.5543 405.673 80.3043 406.053L80.3019 406.053Z" fill="url(#paint6_linear_4857_1850)"/>
<path d="M-16.3691 402.145C-7.40239 406.95 -0.33495 415.419 4.96684 423.888C1.55874 412.51 -3.11198 398.855 -8.79331 386.342C-9.29639 385.206 -7.91045 384.194 -7.02765 385.078C3.833 395.192 11.5318 407.705 17.0911 419.083C13.4315 405.68 7.87291 389.122 0.174397 375.848C-0.456919 374.836 0.93395 373.7 1.81683 374.455C12.9241 383.305 21.0025 395.566 26.8131 407.073C26.31 399.108 24.9192 389.626 21.8909 379.893C21.5111 378.757 22.902 377.868 23.7848 378.757C32.7466 387.73 37.2937 401.513 39.6915 412.762C40.8258 408.085 40.9541 400.88 38.9319 390.135C36.7864 381.537 34.1329 372.436 31.1046 363.715C30.7248 362.58 32.1157 361.691 32.9985 362.58C47.0163 377.997 54.7196 397.972 58.7587 412.003C58.7587 399.109 57.8759 383.938 54.591 370.664C54.3395 369.528 55.8537 368.768 56.6133 369.78C64.5689 381.03 68.9881 394.813 71.2623 407.326C75.43 401.133 80.6038 395.064 87.174 389.627C88.0568 388.867 89.4477 389.879 88.9397 390.891C82.878 403.914 79.0901 417.059 76.8164 427.424C82.2467 417.943 90.074 407.578 100.304 402.14C101.315 401.637 102.449 402.772 101.818 403.785C90.9573 419.968 86.1588 437.162 84.3924 444.496L95.3763 449.049C97.5218 449.928 96.8904 453.217 94.4934 453.217H-10.5562C-12.9531 453.217 -13.5845 449.928 -11.439 449.044L-0.455146 444.491C-2.22081 437.158 -7.01982 419.968 -17.7519 403.907C-18.5115 402.9 -17.3771 401.636 -16.3659 402.145L-16.3691 402.145Z" fill="url(#paint7_linear_4857_1850)"/>
</g>
<defs>
<linearGradient id="paint0_linear_4857_1850" x1="-145.433" y1="509.217" x2="-148.145" y2="850.392" gradientUnits="userSpaceOnUse">
<stop stop-color="#519D2B"/>
<stop offset="0.354167" stop-color="#6ABF41"/>
<stop offset="1" stop-color="#6ABF41"/>
</linearGradient>
<linearGradient id="paint1_linear_4857_1850" x1="626.433" y1="509.217" x2="623.721" y2="850.392" gradientUnits="userSpaceOnUse">
<stop stop-color="#519D2B"/>
<stop offset="0.354167" stop-color="#6ABF41"/>
<stop offset="1" stop-color="#6ABF41"/>
</linearGradient>
<linearGradient id="paint2_linear_4857_1850" x1="-54.4259" y1="298.542" x2="137.329" y2="168.138" gradientUnits="userSpaceOnUse">
<stop stop-color="#3C7520"/>
<stop offset="0.572917" stop-color="#6ABF41"/>
<stop offset="1" stop-color="#6ABF41"/>
</linearGradient>
<linearGradient id="paint3_linear_4857_1850" x1="357.5" y1="366.217" x2="367.785" y2="472.348" gradientUnits="userSpaceOnUse">
<stop stop-color="#3C7520"/>
<stop offset="0.572917" stop-color="#6ABF41"/>
<stop offset="1" stop-color="#6ABF41"/>
</linearGradient>
<linearGradient id="paint4_linear_4857_1850" x1="543.426" y1="292.89" x2="352.178" y2="162.287" gradientUnits="userSpaceOnUse">
<stop stop-color="#3C7520"/>
<stop offset="0.572917" stop-color="#6ABF41"/>
<stop offset="1" stop-color="#6ABF41"/>
</linearGradient>
<linearGradient id="paint5_linear_4857_1850" x1="292.818" y1="534.548" x2="663.039" y2="379.373" gradientUnits="userSpaceOnUse">
<stop stop-color="#3C7520"/>
<stop offset="0.572917" stop-color="#6ABF41"/>
<stop offset="1" stop-color="#6ABF41"/>
</linearGradient>
<linearGradient id="paint6_linear_4857_1850" x1="123.592" y1="376.217" x2="130.216" y2="540.499" gradientUnits="userSpaceOnUse">
<stop stop-color="#3C7520"/>
<stop offset="0.395302" stop-color="#6ABF41"/>
<stop offset="1" stop-color="#6ABF41"/>
</linearGradient>
<linearGradient id="paint7_linear_4857_1850" x1="42" y1="362.217" x2="42.264" y2="476.099" gradientUnits="userSpaceOnUse">
<stop stop-color="#3C7520"/>
<stop offset="0.572917" stop-color="#6ABF41"/>
<stop offset="1" stop-color="#6ABF41"/>
</linearGradient>
<clipPath id="clip0_4857_1850">
<rect width="480" height="637" fill="white"/>
</clipPath>
</defs>
</svg>
