<svg width="1440" height="901" viewBox="0 0 1440 901" fill="none" xmlns="http://www.w3.org/2000/svg">
<g clip-path="url(#clip0_4871_985)">
<mask id="mask0_4871_985" style="mask-type:luminance" maskUnits="userSpaceOnUse" x="0" y="0" width="1440" height="901">
<path d="M1440 0H0V901H1440V0Z" fill="white"/>
</mask>
<g mask="url(#mask0_4871_985)">
<path d="M39.5928 709.906C56.7042 719.041 70.1913 735.142 80.3088 751.242C73.8051 729.612 64.8918 703.653 54.0499 679.864C53.0899 677.705 55.7347 675.78 57.4194 677.461C78.1451 696.688 92.8369 720.476 103.446 742.107C96.4623 716.626 85.8546 685.149 71.1633 659.913C69.9585 657.989 72.6128 655.83 74.2976 657.266C95.4939 674.09 110.91 697.4 121.999 719.276C121.039 704.132 118.385 686.107 112.606 667.603C111.881 665.444 114.535 663.754 116.22 665.444C133.322 682.502 141.999 708.705 146.575 730.09C148.74 721.199 148.984 707.502 145.126 687.074C141.031 670.729 135.967 653.427 130.188 636.848C129.464 634.689 132.118 632.999 133.803 634.689C160.553 663.998 175.254 701.974 182.962 728.647C182.962 704.135 181.277 675.294 175.008 650.058C174.528 647.899 177.418 646.453 178.867 648.378C194.049 669.764 202.483 695.967 206.823 719.756C214.776 707.983 224.649 696.445 237.188 686.109C238.872 684.663 241.527 686.588 240.557 688.512C228.989 713.269 221.761 738.26 217.422 757.965C227.785 739.94 242.722 720.234 262.244 709.897C264.173 708.94 266.338 711.099 265.133 713.024C244.407 743.79 235.25 776.478 231.879 790.42L252.84 799.076C256.934 800.747 255.73 807 251.155 807H50.6858C46.1115 807 44.9068 800.747 49.001 799.067L69.9619 790.411C66.5924 776.469 57.4343 743.79 36.9539 713.257C35.5044 711.342 37.6692 708.939 39.5988 709.906H39.5928Z" fill="url(#paint0_linear_4871_985)"/>
<path d="M378.791 718.601C391.494 725.412 401.506 737.418 409.017 749.423C404.189 733.294 397.572 713.938 389.523 696.199C388.811 694.589 390.774 693.154 392.025 694.407C407.411 708.744 418.317 726.482 426.193 742.612C421.008 723.611 413.134 700.14 402.228 681.323C401.333 679.888 403.304 678.278 404.554 679.349C420.29 691.893 431.734 709.275 439.966 725.587C439.253 714.295 437.283 700.854 432.993 687.056C432.455 685.446 434.425 684.186 435.676 685.446C448.371 698.166 454.813 717.705 458.21 733.651C459.817 727.021 459.999 716.808 457.134 701.575C454.095 689.388 450.335 676.486 446.045 664.124C445.507 662.514 447.478 661.253 448.728 662.514C468.587 684.368 479.5 712.686 485.222 732.575C485.222 714.297 483.971 692.791 479.318 673.974C478.961 672.364 481.107 671.286 482.183 672.721C493.453 688.668 499.714 708.207 502.935 725.945C508.84 717.167 516.169 708.563 525.477 700.856C526.728 699.778 528.698 701.213 527.978 702.648C519.391 721.108 514.025 739.743 510.804 754.437C518.497 740.996 529.585 726.302 544.078 718.594C545.51 717.88 547.117 719.49 546.223 720.925C530.837 743.866 524.039 768.241 521.536 778.637L537.097 785.092C540.136 786.338 539.242 791 535.846 791H387.026C383.63 791 382.736 786.338 385.775 785.085L401.336 778.63C398.834 768.234 392.036 743.866 376.832 721.099C375.756 719.671 377.363 717.879 378.795 718.6L378.791 718.601Z" fill="url(#paint1_linear_4871_985)"/>
<path d="M1155.13 732.478C1142.2 739.395 1132.01 751.587 1124.37 763.779C1129.28 747.4 1136.02 727.743 1144.21 709.729C1144.93 708.094 1142.93 706.637 1141.66 707.909C1126 722.469 1114.91 740.482 1106.89 756.861C1112.17 737.567 1120.18 713.731 1131.28 694.622C1132.19 693.165 1130.18 691.53 1128.91 692.618C1112.9 705.357 1101.25 723.008 1092.87 739.573C1093.6 728.106 1095.61 714.456 1099.97 700.445C1100.52 698.81 1098.51 697.53 1097.24 698.81C1084.32 711.727 1077.77 731.568 1074.31 747.762C1072.67 741.03 1072.49 730.658 1075.4 715.189C1078.5 702.812 1082.32 689.71 1086.69 677.157C1087.24 675.521 1085.23 674.242 1083.96 675.521C1063.75 697.715 1052.64 726.472 1046.82 746.669C1046.82 728.108 1048.09 706.269 1052.83 687.16C1053.19 685.525 1051.01 684.43 1049.91 685.887C1038.44 702.082 1032.07 721.923 1028.79 739.937C1022.79 731.022 1015.33 722.285 1005.85 714.458C1004.58 713.363 1002.58 714.821 1003.31 716.278C1012.05 735.025 1017.51 753.948 1020.79 768.87C1012.96 755.22 1001.67 740.299 986.926 732.472C985.468 731.746 983.833 733.381 984.743 734.839C1000.4 758.135 1007.32 782.888 1009.86 793.445L994.03 800C990.937 801.265 991.847 806 995.302 806H1146.75C1150.2 806 1151.11 801.265 1148.02 799.993L1132.19 793.438C1134.73 782.881 1141.65 758.136 1157.12 735.016C1158.22 733.565 1156.58 731.745 1155.12 732.478H1155.13Z" fill="url(#paint2_linear_4871_985)"/>
<path d="M1456.8 579.061C1448.58 580.278 1440.43 581.933 1432.38 584.017L1428.42 570.47C1439.31 565.843 1474.61 550.643 1487.81 539.078C1501.01 527.513 1552.48 480.922 1552.48 480.922C1552.48 480.922 1513.55 499.757 1493.09 511.322C1472.64 522.887 1438.65 550.644 1425.78 560.887C1424.13 555.93 1422.81 550.644 1421.16 545.357C1434.36 537.096 1469.67 515.287 1484.18 502.07C1498.7 488.852 1523.78 450.191 1523.78 450.191C1523.78 450.191 1498.04 484.557 1480.55 491.826C1463.07 499.096 1449.87 502.73 1436.01 516.278C1427.43 524.539 1421.49 531.148 1418.2 534.783C1416.22 528.504 1414.24 521.565 1412.26 514.626C1423.47 510 1456.14 496.452 1469.34 485.548L1535.65 431.026C1518.22 441.222 1500.15 450.273 1481.54 458.122C1461.42 465.722 1421.49 496.452 1409.62 506.035L1406.65 496.122C1416.88 490.504 1450.2 472.661 1463.73 459.774C1477.25 446.887 1531.03 389.391 1531.03 389.391C1513.46 401.9 1495.17 413.374 1476.26 423.757C1456.14 434 1415.23 474.644 1403.68 486.539L1398.73 469.687C1412.13 460.72 1425.01 451.012 1437.33 440.609C1450.86 428.713 1469.01 411.53 1484.84 401.617C1500.68 391.704 1528.72 376.835 1528.72 376.835C1528.72 376.835 1457.13 403.93 1436.34 421.113C1415.56 438.296 1403.35 456.139 1397.08 464.4L1390.15 442.261C1399.72 436.644 1429.41 418.47 1444.92 399.635C1460.43 380.8 1499.69 314.052 1499.69 314.052C1486.34 331.691 1472.02 348.57 1456.8 364.609C1439.64 381.791 1398.07 426.07 1388.17 436.313C1386.52 430.696 1384.54 425.078 1382.89 419.461C1394.11 411.53 1430.4 385.096 1444.59 365.93C1458.78 346.765 1494.41 296.209 1494.41 296.209C1494.41 296.209 1453.17 333.878 1429.74 356.017C1412.13 373.517 1395.71 392.173 1380.58 411.861C1378.6 406.243 1376.95 400.957 1374.97 395.67C1380.58 389.061 1407.64 357.339 1420.5 336.522C1433.37 315.704 1458.12 261.183 1458.12 261.183C1458.12 261.183 1426.44 301.496 1408.3 328.591C1390.15 355.687 1377.28 380.47 1372.66 389.061C1370.02 381.461 1367.05 373.861 1364.42 366.922C1378.17 353.125 1390.04 337.57 1399.72 320.661C1414.9 292.574 1429.41 257.548 1429.41 257.548C1414.86 274.538 1401.52 292.536 1389.49 311.409C1378.6 329.583 1367.38 350.73 1361.78 360.643C1359.8 355.357 1357.49 350.07 1355.18 345.113C1360.46 337.513 1375.63 316.365 1383.88 297.861C1392.13 279.357 1405.99 240.696 1405.99 240.696C1398.17 255.668 1389.24 270.027 1379.26 283.652C1366.72 300.504 1356.17 328.591 1352.54 339.165C1349.9 333.217 1347.26 327.93 1344.62 322.974C1349.24 316.365 1363.76 294.557 1366.72 283.322C1369.69 272.087 1381.24 228.47 1381.24 228.47C1381.24 228.47 1364.75 261.513 1356.83 278.035C1350.76 290.995 1345.9 304.49 1342.31 318.348L1335.38 306.122C1341.32 297.861 1359.14 271.426 1359.8 263.165C1360.46 254.904 1371.67 214.922 1371.67 214.922C1371.67 214.922 1360.13 244.661 1350.89 263.165L1332.74 301.496C1330.76 298.191 1328.78 294.887 1326.8 292.243C1324.82 289.6 1338.02 264.487 1342.31 254.574C1347.11 241.93 1351.19 229.022 1354.52 215.913C1354.52 215.913 1345.94 234.087 1340.33 247.304C1334.72 260.522 1327.46 280.348 1324.49 288.278L1319.87 282C1322.51 277.043 1332.41 256.557 1335.05 245.322C1337.69 234.087 1340.66 206 1340.66 206C1340.66 206 1332.74 226.817 1327.79 244.991L1317.56 279.026C1316.41 277.248 1315.08 275.588 1313.6 274.07C1317.04 265.305 1319.04 256.045 1319.54 246.643C1319.87 231.443 1320.2 210.626 1320.2 210.626C1314.68 220.965 1311.31 232.319 1310.31 244C1309.6 253.394 1310.15 262.841 1311.96 272.087C1309.33 268.691 1306.34 265.589 1303.05 262.835C1304.85 255.802 1304.96 248.441 1303.38 241.357C1301.41 232.317 1298.99 223.383 1296.12 214.591C1296.12 214.591 1289.19 227.148 1292.49 235.739C1295.79 244.33 1297.44 249.287 1297.44 249.287C1293.75 243.055 1289.2 237.381 1283.91 232.435C1275.33 224.504 1260.15 221.2 1260.15 221.2C1260.15 221.2 1275.99 242.678 1283.58 247.965C1291.17 253.252 1296.12 257.878 1299.75 260.852C1295.51 258.794 1291.09 257.134 1286.55 255.896C1279.78 254.048 1272.78 253.158 1265.76 253.252C1271.14 257.636 1277.47 260.692 1284.24 262.174C1294.14 264.157 1294.47 263.496 1302.06 264.817C1306.1 270.224 1309.85 275.85 1313.27 281.67C1305.65 276.226 1297.18 272.093 1288.2 269.443C1273.02 264.817 1247.95 259.2 1247.95 259.2C1247.95 259.2 1275.99 274.07 1289.19 276.383C1297.71 277.916 1306.09 280.126 1314.26 282.991L1319.54 292.904C1311.69 288.435 1303.4 284.781 1294.8 282C1282.26 278.365 1281.27 279.687 1265.76 275.722C1253.91 272.423 1242.33 268.226 1231.12 263.165C1231.12 263.165 1247.95 282 1258.83 283.322C1269.72 284.643 1279.95 291.252 1294.47 293.235C1303.95 294.365 1313.33 296.244 1322.51 298.852C1324.64 302.346 1326.52 305.99 1328.12 309.757C1315.91 305.146 1303.33 301.609 1290.51 299.183C1271.7 296.209 1230.46 293.565 1230.46 293.565C1230.46 293.565 1269.72 306.122 1283.58 308.435L1331.75 316.696C1334.17 321.322 1336.48 326.278 1338.68 331.565C1324.01 324.751 1308.91 318.901 1293.48 314.052C1274.01 308.765 1231.78 300.835 1231.78 300.835C1231.78 300.835 1272.69 322.313 1293.48 326.609C1314.26 330.904 1333.07 335.53 1341.65 337.843L1349.57 355.357C1340.33 350.4 1310.31 334.539 1296.45 330.574C1282.59 326.609 1234.09 317.357 1234.09 317.357C1234.09 317.357 1279.62 339.165 1295.46 343.461C1311.3 347.757 1343.63 358.991 1352.21 361.965C1354.86 367.55 1357.17 373.288 1359.14 379.148C1347.59 375.183 1315.25 364.609 1303.05 357.67C1290.84 350.73 1286.55 354.035 1269.72 347.757C1252.9 341.478 1228.48 330.574 1228.48 330.574C1228.48 330.574 1250.59 351.391 1263.45 354.696C1276.32 358 1286.55 370.557 1302.06 375.183C1321.66 380.831 1341.77 384.484 1362.11 386.087C1364.09 392.035 1366.39 397.652 1368.37 403.6C1358.15 399.304 1320.2 384.104 1306.02 380.47C1291.83 376.835 1235.41 366.922 1235.41 366.922C1235.41 366.922 1264.77 376.504 1278.3 382.122C1291.83 387.739 1299.09 399.635 1318.88 402.939C1338.68 406.243 1360.13 408.887 1370.35 410.209C1371.67 413.513 1372.66 416.487 1373.65 419.791L1376.62 429.704C1362.62 424.56 1348.29 420.365 1333.73 417.148C1309.98 412.522 1297.77 418.139 1278.3 412.191C1262.76 406.589 1247.65 399.852 1233.1 392.035C1233.1 392.035 1256.53 416.487 1274.34 419.13C1292.16 421.774 1310.31 421.113 1321.19 426.4C1332.08 431.687 1339.01 435.983 1351.88 435.983C1364.75 435.983 1372 434.991 1377.94 434.661C1380.58 442.591 1382.89 451.183 1385.53 460.104C1376.29 455.809 1342.31 440.278 1322.84 435.652C1303.38 431.026 1243.66 427.722 1243.66 427.722C1243.66 427.722 1283.58 437.635 1302.06 444.574C1320.53 451.513 1335.38 460.104 1351.55 461.426L1386.85 465.061C1388.5 470.678 1390.15 476.626 1392.13 482.574C1379.92 478.278 1346.93 466.383 1329.77 461.096C1312.61 455.809 1247.62 441.6 1247.62 441.6C1247.62 441.6 1290.51 455.478 1301.07 462.417C1311.63 469.357 1332.41 480.591 1351.88 484.226C1371.34 487.861 1385.86 488.852 1394.11 489.843L1400.05 510.661C1390.48 506.696 1363.76 495.13 1342.31 490.504C1315.91 484.887 1252.57 486.87 1252.57 486.87C1252.57 486.87 1283.58 488.522 1303.38 496.783C1323.17 505.043 1353.53 516.939 1371.01 517.93L1402.36 518.922C1403.35 523.217 1404.67 527.513 1405.99 531.809C1397.08 529.496 1376.29 524.539 1356.17 521.565C1329.77 517.6 1248.28 509.67 1248.28 509.67C1248.28 509.67 1304.7 528.174 1328.45 534.783C1352.21 541.391 1364.75 541.391 1408.3 539.739L1412.59 555.93C1407.64 552.957 1396.75 549.983 1372.33 549.322C1327.13 548 1273.35 557.913 1273.35 557.913C1290.34 558.376 1307.3 559.699 1324.16 561.878C1339.34 564.522 1400.38 564.522 1414.9 564.522L1418.86 578.07C1406.46 572.398 1392.88 569.791 1379.26 570.47C1351.55 571.461 1313.6 603.183 1313.6 603.183C1313.6 603.183 1352.21 578.73 1368.37 580.052C1384.54 581.374 1385.2 586.991 1397.08 586.661C1404.83 586.166 1412.55 585.172 1420.17 583.687C1421.82 588.974 1422.15 591.287 1423.47 595.913C1415.23 593.6 1394.77 594.591 1379.26 600.87C1363.76 607.148 1351.55 621.687 1351.55 621.687C1361.86 617.884 1372.61 615.441 1383.55 614.417C1397.08 613.426 1417.54 604.835 1425.12 601.2C1434.69 636.887 1441.62 662 1441.62 662L1450.86 650.435L1434.36 590.957C1442.61 591.617 1464.39 593.27 1482.86 588.974C1501.34 584.678 1544.23 564.522 1544.23 564.522C1544.23 564.522 1512.23 576.087 1498.37 578.4C1484.51 580.713 1472.64 577.078 1456.8 579.061Z" fill="url(#paint3_linear_4871_985)"/>
<path d="M360.723 691.063C360.556 681.5 401.359 682.675 401.359 682.675C401.359 682.675 401.86 670.596 385.807 650.968C365.071 625.803 319.586 615.737 304.034 644.257C301.525 648.619 298.014 658.685 302.194 667.408C304.09 663.618 306.511 660.117 309.385 657.007C314.39 651.744 320.425 647.575 327.111 644.76C321.604 648.584 316.554 653.031 312.061 658.014C308.695 661.819 306.135 666.271 304.536 671.099L307.378 675.293C311.559 671.099 321.927 661.201 331.124 655.665C343.164 648.451 348.683 648.787 348.683 648.787C348.683 648.787 342.328 649.793 332.128 657.343C321.927 664.892 314.569 675.461 311.057 680.158L319.586 691.231C324.314 687.839 329.492 685.128 334.97 683.178C341.792 680.79 348.985 679.654 356.208 679.823C349.283 681.523 342.469 683.652 335.806 686.198C330.8 688.13 326.328 691.236 322.763 695.257C328.281 702.303 334.301 709.685 340.322 716.898C344.327 714.521 348.668 712.768 353.198 711.698C357.459 710.61 361.948 710.844 366.074 712.369C361.801 712.65 357.584 713.496 353.532 714.885C349.858 716.161 346.535 718.288 343.833 721.092C351.86 730.823 390.322 775.447 390.322 775.447L354.368 737.03C353.198 739.714 348.85 750.619 347.679 758.168C346.99 763.473 347.159 768.855 348.181 774.105C347.458 769.382 347.011 764.621 346.843 759.846C346.509 752.632 350.021 737.869 351.526 733.842L329.619 710.356C325.574 716.478 322.05 722.932 319.084 729.648C313.9 741.392 309.218 761.188 309.218 761.188C310.004 751.039 311.969 741.018 315.071 731.326C318.16 722.853 321.849 714.611 326.107 706.665L311.057 690.392C306.208 695.257 295.171 707.168 291.325 713.208C287.479 719.247 277.947 742.902 277.947 742.902C279.666 731.957 283.409 721.431 288.984 711.865C294.557 703.002 300.585 694.435 307.044 686.198L302.027 680.829C301.693 680.326 287.311 687.037 279.452 694.083C268.582 703.813 257.211 719.918 257.211 719.918C257.211 719.918 267.412 700.29 277.278 691.231C283.612 685.635 290.57 680.793 298.014 676.803L295.171 674.454C290.489 673.951 285.472 673.28 280.288 675.125C275.655 677.098 271.408 679.882 267.746 683.346C270.723 678.764 274.965 675.15 279.953 672.945C282.899 671.548 286.071 670.695 289.318 670.428C257.713 652.477 230.789 693.244 240.488 729.648C248.014 758.503 279.452 785.01 279.452 785.01C279.452 785.01 277.78 769.576 281.458 756.658C285.137 743.74 294.836 720.589 306.375 722.267C317.913 723.944 284.301 762.194 288.482 785.849C291.826 805.812 332.629 809 332.629 809C332.629 809 324.268 806.484 319.92 794.237C315.572 781.99 324.77 745.753 333.633 744.411C345.338 742.566 320.924 784.674 341.325 801.618C353.031 811.349 368.917 799.438 381.292 795.243C389.447 792.865 398.057 792.519 406.375 794.237C406.375 794.237 406.877 787.694 407.88 773.099C408.884 758.503 417.914 748.27 410.723 739.043C403.532 729.816 376.275 734.681 378.95 726.796C381.626 718.911 411.726 730.823 411.726 730.823C411.726 730.823 411.392 723.609 411.058 707.168C410.723 690.727 360.89 700.625 360.723 691.063Z" fill="#5FAA3B"/>
<path d="M1275.56 616.515C1300.85 616.362 1323.05 630.626 1339.64 646.852C1335.78 639.502 1335.67 632.318 1332.03 625.076C1328.38 617.834 1317.17 606.945 1313.59 596.164C1340.73 593.883 1370 615.67 1381.42 640.927C1385.13 652.037 1388.71 662.818 1387.24 675.553C1385.78 688.287 1376.31 690.307 1374.68 699.396C1379.74 660.961 1366.33 621.583 1331.62 605.405C1362.79 621.525 1366.8 667.896 1367.17 692.211C1348.73 655.893 1306.67 636.174 1266.69 636.656C1310.21 636.233 1354.33 668.744 1365.7 712.352C1367.38 713.986 1358.41 719.535 1358.41 719.535C1332.73 701.675 1305.43 685.497 1274.3 687.506C1278.06 687.671 1321.8 694.762 1348.95 729.514L1345.58 733.101C1321.61 711.678 1267.45 731.384 1249.5 749.89C1276.75 733.125 1318.95 718.351 1338.18 740.507C1330 748.984 1322.32 757.919 1315.16 767.269C1287.85 758.498 1266.2 780.706 1248.13 798.883C1266.14 784.245 1285.42 765.83 1311.04 772.968C1308.34 775.915 1305.39 778.622 1302.22 781.058C1298.83 783.54 1269.95 809.946 1257.44 830.251C1269.81 816.865 1283.13 804.401 1297.31 792.959C1284.91 813.183 1279.37 836.882 1281.54 860.516C1279.41 829.594 1293.78 800.307 1315.32 778.321C1326.69 814.523 1325.28 852.793 1318.31 889.488C1330.72 854.592 1326.69 814.523 1320.93 776.359C1320.82 769.175 1329.63 759.979 1335.07 754.372C1355.31 777.84 1359.33 810.502 1370.48 839.743C1364.83 808.763 1351.66 778.004 1342.47 746.966L1351.28 737.771C1389.85 753.892 1402.96 795.596 1419.61 829.951C1410.2 791.951 1391.54 755.526 1360.31 728.683C1373.15 723.076 1384.03 726.673 1395.02 730.048C1427.77 740.618 1444.53 767.896 1464.76 791.364C1444.36 756.844 1414.88 720.689 1373.05 715.892C1391.1 711.976 1407.09 709.529 1425.65 717.103C1439.87 722.862 1455.19 734.906 1471.51 740.302C1444.04 720.479 1414.83 702.56 1381.96 706.474C1401.93 690.038 1431.04 685.959 1456.33 685.806C1442.82 683.175 1428.91 683.342 1415.46 686.298C1402.02 689.254 1389.32 694.936 1378.16 702.992C1390.72 671.743 1428.88 667.087 1459.92 667.512C1480.36 667.762 1480.16 690.98 1478.42 692.885C1462.04 698.434 1445.45 689.615 1432.94 702.513C1456.55 707.58 1504.5 760.044 1483.12 756.049C1461.74 752.054 1444.04 727.885 1418.74 728.039C1435 736.973 1452.37 745.892 1468.08 762.241C1477.06 771.505 1477.38 785.65 1475.81 798.608C1474.23 811.565 1463.24 815.044 1452.2 815.208C1446.76 813.409 1446.75 806.002 1444.85 804.262C1442.9 784.392 1433.48 760.653 1413.35 751.776C1406.01 748.236 1430.22 786.238 1435.71 806.166C1437.72 822.497 1441.7 844.437 1423.52 855.429C1418.14 857.499 1410.8 853.959 1410.74 850.091C1392.24 824.718 1402.75 773.821 1364.5 772.397C1355.41 785.024 1370.16 795.971 1372.01 808.656C1377.78 825.153 1396.11 839.474 1388.98 857.709C1383.48 866.856 1369.13 867.068 1361.78 856.122C1352.37 839.79 1350.35 823.459 1346.55 805.164C1344.7 799.885 1339.15 790.902 1331.92 794.547C1339.53 823.729 1343.56 856.392 1332.84 885.514C1329.3 892.862 1318.53 903.856 1311.19 900.316C1296.5 893.238 1305.36 873.097 1308.79 858.565C1312.22 844.032 1306.67 827.643 1303.03 812.994C1292.2 834.932 1292.41 856.707 1290.78 880.609C1290.95 884.255 1285.45 885.994 1280.01 884.196L1274.63 878.858C1267.18 860.728 1270.44 842.55 1272.07 826.055C1265 833.345 1256.02 846.301 1246.72 844.56C1237.41 842.818 1246.61 829.969 1250.15 822.621C1264.62 807.925 1286.33 782.177 1280.72 784.14C1266.25 791.429 1257.44 808.031 1239.22 808.301L1235.51 804.597C1239.11 786.303 1255.32 777.109 1269.9 769.597C1284.48 762.085 1300.69 760.297 1305.86 743.86C1276.75 740.532 1260.65 764.317 1242.48 782.716C1240.85 784.398 1237.2 784.563 1233.44 784.397C1229.69 784.232 1229.86 773.617 1229.69 769.971C1240.25 737.203 1274.74 716.794 1307.44 709.235C1283.72 703.838 1261.79 707.81 1238.07 702.413C1232.52 700.837 1219.9 699.144 1221.64 689.833C1257.82 664.203 1305.26 681.851 1343.5 683.275C1333.9 676.453 1316.35 662.784 1299.04 657.734C1266.54 648.376 1232.64 649.32 1237.37 640.627C1245.33 626.359 1259.24 618.526 1275.56 616.515Z" fill="url(#paint4_linear_4871_985)"/>
<path d="M-138.863 864.392C-138.863 864.392 -133.508 880.838 -127.634 897.11C-124.525 905.939 -121.07 914.768 -118.651 921H996.612C999.031 914.768 1002.49 905.939 1005.6 897.11C1011.47 880.838 1016.82 864.392 1016.82 864.392C1016.82 864.392 1022.01 848.119 1026.67 831.673C1031.33 815.227 1035.48 798.608 1035.48 798.608C1035.48 798.608 1027.71 813.669 1019.24 828.384C1010.78 843.099 1001.97 857.64 1001.97 857.64C1001.97 857.64 997.821 864.565 992.121 873.394L986.765 793.415L974.673 854.351L971.045 872.355C968.8 865.604 967.245 860.583 967.245 860.583C967.245 860.583 963.099 846.734 959.644 832.366C956.189 817.997 953.598 803.629 953.598 803.629C953.598 803.629 952.043 818.343 951.525 833.231C951.007 848.119 951.179 863.18 951.179 863.18C951.179 863.18 951.352 872.182 952.043 883.261L948.934 874.605C943.233 858.16 938.05 841.194 938.05 841.194C938.05 841.194 933.041 824.402 928.549 807.264C924.058 790.126 920.43 772.814 920.43 772.814C920.43 772.814 920.085 790.472 920.603 808.303C921.121 826.134 921.985 844.137 921.985 844.137C921.985 844.137 923.194 861.968 925.094 879.972C925.44 883.78 925.958 887.762 926.476 891.398C925.267 886.204 924.231 880.145 923.021 874.086L915.42 838.598L907.647 803.282L899.355 767.967C899.355 767.967 899.527 786.144 899.527 804.148C899.527 822.152 899.355 840.329 899.355 840.329L898.664 876.337C898.318 883.954 898.146 891.744 897.973 897.976H897.8C897.973 894.514 897.973 891.051 897.973 887.416C897.973 871.662 897.282 855.909 897.282 855.909C897.282 855.909 896.591 840.156 895.209 824.402C893.827 808.649 892.099 793.415 892.099 793.415C892.099 793.415 889.854 808.822 887.09 824.056C884.326 839.29 881.044 854.351 881.044 854.351C881.044 854.351 877.588 869.412 873.615 884.3C873.641 884.544 873.58 884.789 873.443 884.992C873.788 881.357 873.788 877.548 873.961 873.74C874.151 865.305 873.863 856.867 873.097 848.465C872.924 845.003 872.579 842.06 872.406 840.156C872.215 839.127 872.099 838.085 872.061 837.04L871.542 833.924C871.197 831.846 870.851 829.076 870.333 825.787C869.124 819.036 867.224 810.207 864.978 801.378C862.781 793.518 860.187 785.776 857.204 778.181C856.168 774.892 854.959 772.468 854.268 770.564L853.058 767.794C853.058 767.794 853.231 769.006 853.576 770.91C853.922 772.814 854.44 775.411 854.786 778.7C855.649 785.279 856.513 794.107 856.859 802.763C857.194 810.669 857.079 818.587 856.513 826.48C856.475 829.084 856.302 831.684 855.995 834.27L855.649 837.213C855.649 837.213 855.477 838.251 855.304 840.156C855.131 842.06 854.786 844.657 854.268 847.773C853.749 850.889 852.713 857.121 851.503 862.487C847.703 852.101 844.939 843.964 844.939 843.964C844.939 843.964 839.411 827.345 835.092 810.207C830.774 793.069 827.837 775.411 827.837 775.411C827.837 775.411 826.801 793.242 827.146 811.246C827.491 829.25 829.046 847.426 829.046 847.426C829.046 847.426 830.255 861.449 832.674 877.375C832.627 877.116 832.507 876.876 832.328 876.683C828.942 871.514 825.885 866.137 823.173 860.583C820.754 855.909 819.372 852.793 819.372 852.793C819.372 852.793 817.99 849.677 816.09 844.83C814.19 839.983 813.153 836.693 811.771 831.673C811.747 830.516 811.805 829.359 811.944 828.211C812.29 820.421 812.117 810.207 811.771 800.166C811.426 790.126 810.217 779.912 809.18 772.468C808.835 768.66 808.144 765.544 807.971 763.466L807.453 760.004C807.322 761.153 807.264 762.31 807.28 763.466C807.107 765.544 807.107 768.833 806.762 772.468C806.243 779.912 805.034 789.953 803.652 799.647C802.27 809.341 800.024 819.209 798.297 826.307C796.57 833.404 795.188 838.078 795.188 838.078C795.188 838.078 793.806 842.926 791.56 849.85C791.387 850.543 791.042 851.235 790.869 851.927C790.523 849.504 790.178 848.119 790.178 848.119C788.405 838.663 786.157 829.303 783.441 820.074C780.741 811.028 777.57 802.129 773.94 793.415C773.94 793.415 775.494 807.437 775.494 821.286C775.494 835.135 774.458 843.791 774.112 847.6C772.212 837.559 771.003 830.288 771.003 830.288C771.003 830.288 768.066 812.284 765.648 793.934C763.229 775.584 761.502 757.407 761.502 757.407C761.502 757.407 760.811 761.908 760.12 768.833C761.156 759.138 762.02 752.387 762.02 752.387C762.02 752.387 755.455 771.776 749.927 791.684C744.4 811.592 739.908 831.673 739.908 831.673C739.908 831.673 735.589 851.062 732.307 871.316C733.171 851.408 732.825 833.75 732.825 833.75C732.825 833.75 732.48 810.553 730.58 787.702C728.679 764.851 725.224 742 725.224 742C725.224 742 724.533 765.024 722.288 787.529C720.042 810.034 716.587 832.712 716.587 832.712C716.587 832.712 714.86 842.579 712.268 855.563C711.059 850.889 709.85 846.388 708.986 842.579C708.122 838.771 707.604 836.174 707.086 834.097C706.912 832.989 706.681 831.891 706.395 830.808L705.877 827.518C705.531 825.441 705.013 822.498 704.495 818.863C703.458 811.592 702.594 801.897 702.076 792.03C701.558 782.162 701.731 772.295 702.249 764.851C702.422 761.043 702.767 758.1 702.94 755.849C703.113 753.599 703.113 752.387 703.113 752.387L702.249 755.676C701.558 757.753 700.694 760.869 699.658 764.505C697.758 771.776 695.684 781.47 693.957 791.511C692.446 800.742 691.408 810.044 690.848 819.382C690.502 823.191 690.502 826.307 690.329 828.557C690.345 829.714 690.288 830.87 690.157 832.019V835.655C690.329 837.905 690.157 841.021 690.329 845.003V847.253L689.811 844.83C688.709 838.695 687.267 832.627 685.492 826.653C683.765 820.074 681.519 813.669 679.792 808.822C678.064 803.975 676.682 801.032 676.682 801.032C677.512 809.835 677.743 818.684 677.373 827.518C677.2 834.097 676.682 840.675 676.164 845.522C675.646 850.369 675.646 850.196 675.3 851.581L673.573 838.425L662.171 760.004L658.025 824.749C657.507 822.152 656.989 819.209 656.298 816.439C652.843 800.859 648.697 785.625 648.697 785.625C648.697 785.625 648.87 801.551 648.179 817.305C647.488 833.058 646.106 848.465 646.106 848.465C646.106 848.465 645.933 851.927 645.415 856.948C641.96 846.561 639.887 837.905 639.887 837.905C637.417 828.147 635.457 818.266 634.013 808.303C631.768 793.415 631.077 778.008 631.077 778.008C628.826 788.068 627.097 798.237 625.894 808.476C624.339 821.286 623.821 834.097 623.648 838.251V834.616C623.476 829.596 623.13 826.133 623.13 826.133C622.365 817.322 620.921 808.582 618.811 799.993C617.084 793.588 615.184 787.356 613.456 782.855C611.729 778.354 610.347 775.411 610.347 775.411C611.06 783.817 611.176 792.263 610.692 800.686C610.228 806.375 609.479 812.037 608.447 817.651C607.583 822.152 606.892 825.095 606.892 825.095C605.105 832.52 602.796 839.809 599.982 846.907C596.872 837.386 594.454 828.73 594.454 828.73C594.454 828.73 591.345 817.478 588.753 806.052C586.162 794.627 584.435 783.028 584.435 783.028C584.435 783.028 582.189 794.627 580.634 806.398C579.079 818.17 578.216 830.115 578.216 830.115C578.204 830.639 578.146 831.16 578.043 831.673L576.315 825.787C576.315 825.787 571.824 809.861 569.06 793.415C567.175 782.352 565.849 771.201 565.087 760.004C565.087 760.004 562.15 776.623 560.941 793.761C560.107 805.166 559.877 816.608 560.25 828.038V831.154C559.041 825.268 557.14 816.266 554.722 807.437C550.921 792.549 546.257 778.008 546.257 778.008C546.257 778.008 546.948 793.242 546.775 808.303C546.603 823.364 545.393 838.598 545.393 838.598C545.393 838.598 544.357 853.659 542.284 868.373C542.284 868.893 542.111 869.412 542.111 869.931C540.902 865.95 539.693 861.622 538.656 857.294C534.338 840.848 531.574 823.883 531.574 823.883C531.574 823.883 528.637 806.918 527.255 789.606C525.873 772.295 525.7 754.81 525.7 754.81C525.7 754.81 521.727 771.949 519.136 789.433C516.544 806.918 515.335 824.575 515.335 824.575C515.335 824.575 514.644 834.789 514.472 847.426C513.781 844.657 513.435 842.926 513.435 842.926C513.435 842.926 509.807 827.691 507.216 812.111C504.625 796.531 503.07 780.604 503.07 780.604C503.07 780.604 500.479 796.358 499.097 812.284C497.715 828.211 497.197 844.657 497.197 844.657C497.197 844.657 497.024 847.08 497.024 851.062L495.124 843.272L492.187 833.75C492.187 833.75 490.978 829.942 488.905 824.402C486.832 818.863 483.55 811.592 480.267 804.494C476.985 797.397 472.839 790.818 469.73 785.971C466.62 781.124 464.374 777.835 464.374 777.835C467.709 787.46 470.421 797.29 472.494 807.264C473.876 814.708 474.912 821.979 475.43 827.691C475.949 833.404 476.121 836.867 476.121 836.867C476.121 836.867 476.294 839.809 476.467 844.31L456.428 798.608L461.092 849.331L463.511 875.99L462.474 873.913C459.365 865.95 456.601 857.813 454.701 851.581L452.628 844.137C452.109 842.233 451.937 841.194 451.937 841.194C451.644 840.229 451.413 839.246 451.246 838.251C450.9 836.52 450.209 833.751 449.691 830.634C448.112 822.739 446.959 814.764 446.236 806.745C445.545 797.916 445.372 789.087 445.545 782.336C445.545 779.046 445.718 776.277 445.89 774.372C445.872 773.331 445.93 772.289 446.063 771.256L445.199 774.199C444.681 776.103 443.817 778.7 442.954 781.989C440.928 790.096 439.314 798.301 438.117 806.572L437.598 810.553C436.908 805.533 435.871 799.993 434.662 794.627C432.722 785.713 430.064 776.971 426.715 768.486C425.333 765.024 423.951 762.427 423.088 760.523L421.533 757.407L422.397 760.696C423.124 763.549 423.701 766.438 424.124 769.352C425.727 778.031 426.537 786.839 426.543 795.665C426.629 804.395 426.225 813.122 425.333 821.806C424.47 828.903 423.951 833.75 423.951 833.75L423.433 836.867C422.915 838.944 422.569 841.887 421.878 845.349C420.669 852.447 418.596 861.795 416.35 870.97C415.659 873.567 414.968 876.337 414.105 878.933L416.869 849.331L421.533 798.608L401.494 844.31C401.667 839.809 401.84 836.867 401.84 836.867C401.84 836.867 402.012 833.231 402.531 827.691C403.049 822.152 404.085 814.708 405.467 807.264C407.54 797.29 410.252 787.46 413.586 777.835C413.586 777.835 411.341 780.951 408.231 785.971C405.122 790.991 401.321 797.57 397.694 804.494C394.066 811.419 391.129 818.863 389.056 824.402C386.983 829.942 385.774 833.75 385.774 833.75L382.837 843.272L380.937 851.062C380.937 847.08 380.764 844.657 380.764 844.657C380.764 844.657 380.419 828.384 378.864 812.284C377.309 796.185 374.891 780.604 374.891 780.604C374.891 780.604 373.509 796.358 370.745 812.111C367.981 827.865 364.526 842.926 364.526 842.926C364.526 842.926 364.18 844.657 363.489 847.426C363.317 834.789 362.626 824.575 362.626 824.575C362.626 824.575 361.416 806.745 358.825 789.433C356.234 772.122 352.261 754.81 352.261 754.81C352.261 754.81 352.261 772.295 350.706 789.606C349.151 806.918 346.387 823.883 346.387 823.883C346.387 823.883 343.623 840.848 339.305 857.294C338.268 861.622 337.059 865.95 335.85 869.931C335.85 869.412 335.677 868.893 335.677 868.373C333.604 853.659 332.567 838.598 332.567 838.598C332.567 838.598 331.531 823.537 331.186 808.303C330.84 793.069 331.704 778.008 331.704 778.008C331.704 778.008 327.04 792.549 323.239 807.437C320.821 816.266 318.92 825.268 317.711 831.154V828.038C318.084 816.608 317.853 805.166 317.02 793.761C315.811 776.623 312.874 760.004 312.874 760.004C312.112 771.201 310.786 782.352 308.901 793.415C306.137 809.861 301.646 825.787 301.646 825.787L299.918 831.673C299.814 831.16 299.757 830.639 299.745 830.115C299.745 830.115 298.882 818.17 297.327 806.398C295.772 794.627 293.526 783.028 293.526 783.028C293.526 783.028 291.626 794.8 289.208 806.052C286.789 817.305 283.507 828.73 283.507 828.73C283.507 828.73 281.088 837.386 277.979 846.907C275.165 839.809 272.856 832.52 271.069 825.095C271.069 825.095 270.378 822.152 269.514 817.651C268.482 812.037 267.733 806.375 267.269 800.686C266.785 792.263 266.901 783.817 267.614 775.411C267.614 775.411 266.232 778.354 264.505 782.855C262.777 787.356 260.877 793.588 259.149 799.993C257.04 808.582 255.596 817.322 254.831 826.133C254.831 826.133 254.485 829.596 254.313 834.616V838.251C254.14 834.097 253.622 821.286 252.067 808.476C250.864 798.237 249.135 788.068 246.884 778.008C246.884 778.008 246.193 793.415 243.948 808.303C242.504 818.266 240.544 828.147 238.074 837.905C238.074 837.905 236.001 846.561 232.546 856.948C232.028 851.927 231.855 848.465 231.855 848.465C231.855 848.465 230.3 832.885 229.782 817.305C229.264 801.724 229.264 785.625 229.264 785.625C229.264 785.625 225.118 800.859 221.663 816.439C220.972 819.209 220.454 822.152 219.936 824.749L215.79 760.004L204.388 838.425L202.661 851.581C202.315 850.196 202.143 848.119 201.797 845.522C201.452 842.926 200.761 834.097 200.588 827.518C200.218 818.684 200.449 809.835 201.279 801.032C201.279 801.032 199.897 804.148 198.169 808.822C196.442 813.496 194.196 820.074 192.469 826.653C190.694 832.627 189.252 838.695 188.15 844.83L187.632 847.253V845.003C187.804 841.021 187.632 837.905 187.804 835.655V832.019C187.673 830.87 187.616 829.714 187.632 828.557C187.459 826.307 187.459 823.191 187.113 819.382C186.553 810.044 185.515 800.742 184.004 791.511C182.276 781.47 180.203 771.776 178.303 764.505C177.267 760.869 176.403 757.753 175.712 755.676L174.848 752.387C174.848 752.387 174.848 753.599 175.021 755.849C175.194 758.1 175.539 761.043 175.712 764.851C176.23 772.295 176.23 782.162 175.885 792.03C175.539 801.897 174.503 811.592 173.466 818.863C172.948 822.498 172.43 825.441 172.084 827.518L171.566 830.808C171.28 831.891 171.049 832.989 170.875 834.097C170.357 836.174 169.839 839.117 168.975 842.579C168.111 846.042 166.902 850.889 165.693 855.563C163.101 842.579 161.374 832.712 161.374 832.712C161.374 832.712 157.746 810.38 155.673 787.529C153.6 764.678 152.736 742 152.736 742C152.736 742 149.282 764.678 147.381 787.702C145.481 810.726 145.136 833.75 145.136 833.75C145.136 833.75 144.79 851.408 145.654 871.316C142.372 851.062 138.053 831.673 138.053 831.673C138.053 831.673 133.561 811.419 128.033 791.684C122.506 771.949 115.941 752.387 115.941 752.387C115.941 752.387 116.805 759.311 117.841 768.833C117.15 762.081 116.459 757.407 116.459 757.407C116.459 757.407 114.732 775.757 112.313 793.934C109.895 812.111 106.958 830.288 106.958 830.288C106.958 830.288 105.749 837.559 103.849 847.6C103.503 843.791 102.467 832.712 102.467 821.286C102.467 809.861 104.021 793.415 104.021 793.415C100.391 802.129 97.2198 811.028 94.5203 820.074C91.8044 829.303 89.5558 838.663 87.7831 848.119C87.7831 848.119 87.4376 849.504 87.0921 851.927C86.9194 851.235 86.5739 850.543 86.4011 849.85C84.1554 842.926 82.7734 838.078 82.7734 838.078C82.7734 838.078 81.3914 833.404 79.6639 826.307C77.9365 819.209 75.8635 809.515 74.3087 799.647C72.754 789.78 71.7175 779.912 71.1993 772.468C70.8538 768.833 70.8538 765.544 70.681 763.466C70.697 762.31 70.6393 761.153 70.5083 760.004L69.99 763.466C69.8173 765.544 69.1263 768.66 68.7808 772.468C67.7443 779.912 66.7078 789.953 66.1896 800.166C65.6713 810.38 65.6713 820.421 66.0168 828.211C66.1562 829.359 66.2139 830.516 66.1896 831.673C64.8076 836.693 63.2528 841.194 61.8709 844.83C60.4889 848.465 58.5887 852.793 58.5887 852.793C58.5887 852.793 57.2067 855.909 54.7882 860.583C52.0765 866.137 49.0185 871.514 45.6325 876.683C45.454 876.876 45.3342 877.116 45.287 877.375C47.7055 861.449 48.9147 847.426 48.9147 847.426C48.9147 847.426 50.6422 829.25 50.815 811.246C50.9877 793.242 50.124 775.411 50.124 775.411C50.124 775.411 47.1873 793.069 42.8685 810.207C38.5498 827.345 33.0219 843.964 33.0219 843.964C33.0219 843.964 30.2579 852.101 26.4574 862.487C25.2482 857.121 24.2117 852.101 23.6935 847.773C23.1752 843.445 22.8297 842.06 22.657 840.156C22.4842 838.251 22.3115 837.213 22.3115 837.213C22.3115 837.213 22.1388 836.174 21.966 834.27C21.6593 831.684 21.4863 829.084 21.4478 826.48C20.8823 818.587 20.767 810.669 21.1023 802.763C21.4478 794.107 22.3115 785.279 23.1752 778.7C23.5207 775.411 24.039 772.814 24.3845 770.91L24.9027 767.794L23.6935 770.564C23.0025 772.468 21.7932 774.892 20.7567 778.181C17.774 785.776 15.1795 793.518 12.9831 801.378C10.7373 810.207 8.83711 819.036 7.62787 825.787C7.10963 829.076 6.76414 831.846 6.41864 833.924L5.90039 837.04C5.86179 838.085 5.74632 839.127 5.5549 840.156C5.38215 842.06 5.03664 845.003 4.86389 848.465C4.09794 856.867 3.80956 865.305 4.00015 873.74C4.17289 877.548 4.1729 881.357 4.5184 884.992C4.381 884.789 4.31979 884.544 4.34564 884.3C0.372428 869.412 -3.08252 854.351 -3.08252 854.351C-3.08252 854.351 -6.36474 839.29 -9.12871 824.056C-11.8927 808.822 -14.1384 793.415 -14.1384 793.415C-14.1384 793.415 -16.0386 808.822 -17.2479 824.402C-18.4571 839.983 -19.3209 855.909 -19.3209 855.909C-19.3209 855.909 -20.0118 871.662 -20.0118 887.416C-20.0118 891.051 -20.0119 894.514 -19.8391 897.976H-20.5301L-21.7393 844.137L-23.1213 778.354L-37.9777 842.579L-47.6516 884.819L-47.1333 879.972C-45.2331 861.968 -44.0239 844.137 -44.0239 844.137C-44.0239 844.137 -42.9874 826.134 -42.6419 808.303C-42.2964 790.472 -42.4691 772.814 -42.4691 772.814C-42.4691 772.814 -46.2696 790.126 -50.5883 807.264C-54.907 824.402 -60.0895 841.194 -60.0895 841.194C-60.0895 841.194 -65.2719 858.16 -70.9726 874.605L-74.0821 883.261C-73.3911 872.182 -73.2183 863.18 -73.2183 863.18C-73.2183 863.18 -72.8728 848.119 -73.5638 833.231C-74.2548 818.343 -75.6368 803.629 -75.6368 803.629C-75.6368 803.629 -78.228 818.17 -81.683 832.366C-85.138 846.561 -89.2839 860.583 -89.2839 860.583C-89.2839 860.583 -90.8387 865.604 -93.0844 872.355L-96.7121 854.351L-108.804 793.415L-114.16 873.394C-119.86 864.565 -124.006 857.64 -124.006 857.64C-124.006 857.64 -132.817 843.272 -141.281 828.384C-149.746 813.496 -157.52 798.608 -157.52 798.608C-157.52 798.608 -153.546 815.054 -148.709 831.673C-143.872 848.292 -138.863 864.392 -138.863 864.392Z" fill="url(#paint5_linear_4871_985)"/>
<path d="M843.137 864.392C843.137 864.392 848.492 880.838 854.366 897.11C857.475 905.939 860.93 914.768 863.349 921H1978.61C1981.03 914.768 1984.49 905.939 1987.59 897.11C1993.47 880.838 1998.82 864.392 1998.82 864.392C1998.82 864.392 2004.01 848.119 2008.67 831.673C2013.33 815.227 2017.48 798.608 2017.48 798.608C2017.48 798.608 2009.71 813.669 2001.24 828.384C1992.78 843.099 1983.97 857.64 1983.97 857.64C1983.97 857.64 1979.82 864.565 1974.12 873.394L1968.77 793.415L1956.67 854.351L1953.05 872.355C1950.8 865.604 1949.24 860.583 1949.24 860.583C1949.24 860.583 1945.1 846.734 1941.64 832.366C1938.19 817.997 1935.6 803.629 1935.6 803.629C1935.6 803.629 1934.04 818.343 1933.52 833.231C1933.01 848.119 1933.18 863.18 1933.18 863.18C1933.18 863.18 1933.35 872.182 1934.04 883.261L1930.93 874.605C1925.23 858.16 1920.05 841.194 1920.05 841.194C1920.05 841.194 1915.04 824.402 1910.55 807.264C1906.06 790.126 1902.43 772.814 1902.43 772.814C1902.43 772.814 1902.08 790.472 1902.6 808.303C1903.12 826.133 1903.98 844.137 1903.98 844.137C1903.98 844.137 1905.19 861.968 1907.09 879.972C1907.44 883.78 1907.96 887.762 1908.48 891.398C1907.27 886.204 1906.23 880.145 1905.02 874.086L1897.42 838.598L1889.65 803.282L1881.35 767.967C1881.35 767.967 1881.53 786.144 1881.53 804.148C1881.53 822.152 1881.35 840.329 1881.35 840.329L1880.66 876.337C1880.32 883.954 1880.15 891.744 1879.97 897.976H1879.8C1879.97 894.514 1879.97 891.051 1879.97 887.416C1879.97 871.662 1879.28 855.909 1879.28 855.909C1879.28 855.909 1878.59 840.156 1877.21 824.402C1875.83 808.649 1874.1 793.415 1874.1 793.415C1874.1 793.415 1871.85 808.822 1869.09 824.056C1866.33 839.29 1863.04 854.351 1863.04 854.351C1863.04 854.351 1859.59 869.412 1855.62 884.3C1855.64 884.544 1855.58 884.789 1855.44 884.992C1855.79 881.357 1855.79 877.548 1855.96 873.74C1856.15 865.305 1855.86 856.867 1855.1 848.465C1854.92 845.003 1854.58 842.06 1854.41 840.156C1854.21 839.127 1854.1 838.085 1854.06 837.04L1853.54 833.924C1853.2 831.846 1852.85 829.076 1852.33 825.787C1851.12 819.036 1849.22 810.207 1846.98 801.378C1844.78 793.518 1842.19 785.776 1839.2 778.181C1838.17 774.892 1836.96 772.468 1836.27 770.564L1835.06 767.794C1835.06 767.794 1835.23 769.006 1835.58 770.91C1835.92 772.814 1836.44 775.411 1836.79 778.7C1837.65 785.279 1838.51 794.107 1838.86 802.763C1839.19 810.669 1839.08 818.587 1838.51 826.48C1838.47 829.084 1838.3 831.684 1837.99 834.27L1837.65 837.213C1837.65 837.213 1837.48 838.251 1837.3 840.156C1837.13 842.06 1836.79 844.657 1836.27 847.773C1835.75 850.889 1834.71 857.121 1833.5 862.487C1829.7 852.101 1826.94 843.964 1826.94 843.964C1826.94 843.964 1821.41 827.345 1817.09 810.207C1812.77 793.069 1809.84 775.411 1809.84 775.411C1809.84 775.411 1808.8 793.242 1809.15 811.246C1809.49 829.25 1811.05 847.426 1811.05 847.426C1811.05 847.426 1812.26 861.449 1814.67 877.375C1814.63 877.116 1814.51 876.876 1814.33 876.683C1810.94 871.514 1807.88 866.137 1805.17 860.583C1802.75 855.909 1801.37 852.793 1801.37 852.793C1801.37 852.793 1799.99 849.677 1798.09 844.83C1796.19 839.983 1795.15 836.693 1793.77 831.673C1793.75 830.516 1793.8 829.359 1793.94 828.211C1794.29 820.421 1794.12 810.207 1793.77 800.166C1793.43 790.126 1792.22 779.912 1791.18 772.468C1790.83 768.66 1790.14 765.544 1789.97 763.466L1789.45 760.004C1789.32 761.153 1789.26 762.31 1789.28 763.466C1789.11 765.544 1789.11 768.833 1788.76 772.468C1788.24 779.912 1787.03 789.953 1785.65 799.647C1784.27 809.341 1782.02 819.209 1780.3 826.307C1778.57 833.404 1777.19 838.078 1777.19 838.078C1777.19 838.078 1775.81 842.926 1773.56 849.85C1773.39 850.543 1773.04 851.235 1772.87 851.927C1772.52 849.504 1772.18 848.119 1772.18 848.119C1770.41 838.663 1768.16 829.303 1765.44 820.074C1762.74 811.028 1759.57 802.129 1755.94 793.415C1755.94 793.415 1757.49 807.437 1757.49 821.286C1757.49 835.135 1756.46 843.791 1756.11 847.6C1754.21 837.559 1753 830.288 1753 830.288C1753 830.288 1750.07 812.284 1747.65 793.934C1745.23 775.584 1743.5 757.407 1743.5 757.407C1743.5 757.407 1742.81 761.908 1742.12 768.833C1743.16 759.138 1744.02 752.387 1744.02 752.387C1744.02 752.387 1737.46 771.776 1731.93 791.684C1726.4 811.592 1721.91 831.673 1721.91 831.673C1721.91 831.673 1717.59 851.062 1714.31 871.316C1715.17 851.408 1714.83 833.75 1714.83 833.75C1714.83 833.75 1714.48 810.553 1712.58 787.702C1710.68 764.851 1707.22 742 1707.22 742C1707.22 742 1706.53 765.024 1704.29 787.529C1702.04 810.034 1698.59 832.712 1698.59 832.712C1698.59 832.712 1696.86 842.579 1694.27 855.563C1693.06 850.889 1691.85 846.388 1690.99 842.579C1690.12 838.771 1689.6 836.174 1689.09 834.097C1688.91 832.989 1688.68 831.891 1688.39 830.808L1687.88 827.518C1687.53 825.441 1687.01 822.498 1686.49 818.863C1685.46 811.592 1684.59 801.897 1684.08 792.03C1683.56 782.162 1683.73 772.295 1684.25 764.851C1684.42 761.043 1684.77 758.1 1684.94 755.849C1685.11 753.599 1685.11 752.387 1685.11 752.387L1684.25 755.676C1683.56 757.753 1682.69 760.869 1681.66 764.505C1679.76 771.776 1677.68 781.47 1675.96 791.511C1674.45 800.742 1673.41 810.044 1672.85 819.382C1672.5 823.191 1672.5 826.307 1672.33 828.557C1672.35 829.714 1672.29 830.87 1672.16 832.019V835.655C1672.33 837.905 1672.16 841.021 1672.33 845.003V847.253L1671.81 844.83C1670.71 838.695 1669.27 832.627 1667.49 826.653C1665.76 820.074 1663.52 813.669 1661.79 808.822C1660.06 803.975 1658.68 801.032 1658.68 801.032C1659.51 809.835 1659.74 818.684 1659.37 827.518C1659.2 834.097 1658.68 840.675 1658.16 845.522C1657.65 850.369 1657.65 850.196 1657.3 851.581L1655.57 838.425L1644.17 760.004L1640.03 824.749C1639.51 822.152 1638.99 819.209 1638.3 816.439C1634.84 800.859 1630.7 785.625 1630.7 785.625C1630.7 785.625 1630.87 801.551 1630.18 817.305C1629.49 833.058 1628.11 848.465 1628.11 848.465C1628.11 848.465 1627.93 851.927 1627.41 856.948C1623.96 846.561 1621.89 837.905 1621.89 837.905C1619.42 828.147 1617.46 818.266 1616.01 808.303C1613.77 793.415 1613.08 778.008 1613.08 778.008C1610.83 788.068 1609.1 798.237 1607.89 808.476C1606.34 821.286 1605.82 834.097 1605.65 838.251V834.616C1605.48 829.596 1605.13 826.133 1605.13 826.133C1604.37 817.322 1602.92 808.582 1600.81 799.993C1599.08 793.588 1597.18 787.356 1595.46 782.855C1593.73 778.354 1592.35 775.411 1592.35 775.411C1593.06 783.817 1593.18 792.263 1592.69 800.686C1592.23 806.375 1591.48 812.037 1590.45 817.651C1589.58 822.152 1588.89 825.095 1588.89 825.095C1587.1 832.52 1584.8 839.809 1581.98 846.907C1578.87 837.386 1576.45 828.73 1576.45 828.73C1576.45 828.73 1573.34 817.478 1570.75 806.052C1568.16 794.627 1566.43 783.028 1566.43 783.028C1566.43 783.028 1564.19 794.627 1562.63 806.398C1561.08 818.17 1560.22 830.115 1560.22 830.115C1560.2 830.639 1560.15 831.16 1560.04 831.673L1558.32 825.787C1558.32 825.787 1553.82 809.861 1551.06 793.415C1549.18 782.352 1547.85 771.201 1547.09 760.004C1547.09 760.004 1544.15 776.623 1542.94 793.761C1542.11 805.166 1541.88 816.608 1542.25 828.038V831.154C1541.04 825.268 1539.14 816.266 1536.72 807.437C1532.92 792.549 1528.26 778.008 1528.26 778.008C1528.26 778.008 1528.95 793.242 1528.78 808.303C1528.6 823.364 1527.39 838.598 1527.39 838.598C1527.39 838.598 1526.36 853.659 1524.28 868.373C1524.28 868.893 1524.11 869.412 1524.11 869.931C1522.9 865.95 1521.69 861.622 1520.66 857.294C1516.34 840.848 1513.57 823.883 1513.57 823.883C1513.57 823.883 1510.64 806.918 1509.25 789.606C1507.87 772.295 1507.7 754.81 1507.7 754.81C1507.7 754.81 1503.73 771.949 1501.14 789.433C1498.54 806.918 1497.34 824.575 1497.34 824.575C1497.34 824.575 1496.64 834.789 1496.47 847.426C1495.78 844.657 1495.43 842.926 1495.43 842.926C1495.43 842.926 1491.81 827.691 1489.22 812.111C1486.62 796.531 1485.07 780.604 1485.07 780.604C1485.07 780.604 1482.48 796.358 1481.1 812.284C1479.71 828.211 1479.2 844.657 1479.2 844.657C1479.2 844.657 1479.02 847.08 1479.02 851.062L1477.12 843.272L1474.19 833.75C1474.19 833.75 1472.98 829.942 1470.9 824.402C1468.83 818.863 1465.55 811.592 1462.27 804.494C1458.99 797.397 1454.84 790.818 1451.73 785.971C1448.62 781.124 1446.37 777.835 1446.37 777.835C1449.71 787.46 1452.42 797.29 1454.49 807.264C1455.88 814.708 1456.91 821.979 1457.43 827.691C1457.95 833.404 1458.12 836.867 1458.12 836.867C1458.12 836.867 1458.29 839.809 1458.47 844.31L1438.43 798.608L1443.09 849.331L1445.51 875.99L1444.47 873.913C1441.36 865.95 1438.6 857.813 1436.7 851.581L1434.63 844.137C1434.11 842.233 1433.94 841.194 1433.94 841.194C1433.64 840.229 1433.41 839.246 1433.25 838.251C1432.9 836.52 1432.21 833.751 1431.69 830.634C1430.11 822.739 1428.96 814.764 1428.24 806.745C1427.54 797.916 1427.37 789.087 1427.54 782.336C1427.54 779.046 1427.72 776.277 1427.89 774.372C1427.87 773.331 1427.93 772.289 1428.06 771.256L1427.2 774.199C1426.68 776.103 1425.82 778.7 1424.95 781.989C1422.93 790.096 1421.31 798.301 1420.12 806.572L1419.6 810.553C1418.91 805.533 1417.87 799.993 1416.66 794.627C1414.72 785.713 1412.06 776.971 1408.72 768.486C1407.33 765.024 1405.95 762.427 1405.09 760.523L1403.53 757.407L1404.4 760.696C1405.12 763.549 1405.7 766.438 1406.12 769.352C1407.73 778.031 1408.54 786.839 1408.54 795.665C1408.63 804.395 1408.23 813.122 1407.33 821.806C1406.47 828.903 1405.95 833.75 1405.95 833.75L1405.43 836.867C1404.91 838.944 1404.57 841.887 1403.88 845.349C1402.67 852.447 1400.6 861.795 1398.35 870.97C1397.66 873.567 1396.97 876.337 1396.1 878.933L1398.87 849.331L1403.53 798.608L1383.49 844.31C1383.67 839.809 1383.84 836.867 1383.84 836.867C1383.84 836.867 1384.01 833.231 1384.53 827.691C1385.05 822.152 1386.09 814.708 1387.47 807.264C1389.54 797.29 1392.25 787.46 1395.59 777.835C1395.59 777.835 1393.34 780.951 1390.23 785.971C1387.12 790.991 1383.32 797.57 1379.69 804.494C1376.07 811.419 1373.13 818.863 1371.06 824.402C1368.98 829.942 1367.77 833.75 1367.77 833.75L1364.84 843.272L1362.94 851.062C1362.94 847.08 1362.76 844.657 1362.76 844.657C1362.76 844.657 1362.42 828.384 1360.86 812.284C1359.31 796.185 1356.89 780.604 1356.89 780.604C1356.89 780.604 1355.51 796.358 1352.74 812.111C1349.98 827.865 1346.53 842.926 1346.53 842.926C1346.53 842.926 1346.18 844.657 1345.49 847.426C1345.32 834.789 1344.63 824.575 1344.63 824.575C1344.63 824.575 1343.42 806.745 1340.83 789.433C1338.23 772.122 1334.26 754.81 1334.26 754.81C1334.26 754.81 1334.26 772.295 1332.71 789.606C1331.15 806.918 1328.39 823.883 1328.39 823.883C1328.39 823.883 1325.62 840.848 1321.3 857.294C1320.27 861.622 1319.06 865.95 1317.85 869.931C1317.85 869.412 1317.68 868.893 1317.68 868.373C1315.6 853.659 1314.57 838.598 1314.57 838.598C1314.57 838.598 1313.53 823.537 1313.19 808.303C1312.84 793.069 1313.7 778.008 1313.7 778.008C1313.7 778.008 1309.04 792.549 1305.24 807.437C1302.82 816.266 1300.92 825.268 1299.71 831.154V828.038C1300.08 816.608 1299.85 805.166 1299.02 793.761C1297.81 776.623 1294.87 760.004 1294.87 760.004C1294.11 771.201 1292.79 782.352 1290.9 793.415C1288.14 809.861 1283.65 825.787 1283.65 825.787L1281.92 831.673C1281.81 831.16 1281.76 830.639 1281.75 830.115C1281.75 830.115 1280.88 818.17 1279.33 806.398C1277.77 794.627 1275.53 783.028 1275.53 783.028C1275.53 783.028 1273.63 794.8 1271.21 806.052C1268.79 817.305 1265.51 828.73 1265.51 828.73C1265.51 828.73 1263.09 837.386 1259.98 846.907C1257.17 839.809 1254.86 832.52 1253.07 825.095C1253.07 825.095 1252.38 822.152 1251.51 817.651C1250.48 812.037 1249.73 806.375 1249.27 800.686C1248.79 792.263 1248.9 783.817 1249.61 775.411C1249.61 775.411 1248.23 778.354 1246.5 782.855C1244.78 787.356 1242.88 793.588 1241.15 799.993C1239.04 808.582 1237.6 817.322 1236.83 826.133C1236.83 826.133 1236.49 829.596 1236.31 834.616V838.251C1236.14 834.097 1235.62 821.286 1234.07 808.476C1232.86 798.237 1231.13 788.068 1228.88 778.008C1228.88 778.008 1228.19 793.415 1225.95 808.303C1224.5 818.266 1222.54 828.147 1220.07 837.905C1220.07 837.905 1218 846.561 1214.55 856.948C1214.03 851.927 1213.86 848.465 1213.86 848.465C1213.86 848.465 1212.3 832.885 1211.78 817.305C1211.26 801.724 1211.26 785.625 1211.26 785.625C1211.26 785.625 1207.12 800.859 1203.66 816.439C1202.97 819.209 1202.45 822.152 1201.94 824.749L1197.79 760.004L1186.39 838.425L1184.66 851.581C1184.32 850.196 1184.14 848.119 1183.8 845.522C1183.45 842.926 1182.76 834.097 1182.59 827.518C1182.22 818.684 1182.45 809.835 1183.28 801.032C1183.28 801.032 1181.9 804.148 1180.17 808.822C1178.44 813.496 1176.2 820.074 1174.47 826.653C1172.69 832.627 1171.25 838.695 1170.15 844.83L1169.63 847.253V845.003C1169.8 841.021 1169.63 837.905 1169.8 835.655V832.019C1169.67 830.87 1169.62 829.714 1169.63 828.557C1169.46 826.307 1169.46 823.191 1169.11 819.382C1168.55 810.044 1167.51 800.742 1166 791.511C1164.28 781.47 1162.2 771.776 1160.3 764.505C1159.27 760.869 1158.4 757.753 1157.71 755.676L1156.85 752.387C1156.85 752.387 1156.85 753.599 1157.02 755.849C1157.19 758.1 1157.54 761.043 1157.71 764.851C1158.23 772.295 1158.23 782.162 1157.88 792.03C1157.54 801.897 1156.5 811.592 1155.47 818.863C1154.95 822.498 1154.43 825.441 1154.08 827.518L1153.57 830.808C1153.28 831.891 1153.05 832.989 1152.88 834.097C1152.36 836.174 1151.84 839.117 1150.97 842.579C1150.11 846.042 1148.9 850.889 1147.69 855.563C1145.1 842.579 1143.37 832.712 1143.37 832.712C1143.37 832.712 1139.75 810.38 1137.67 787.529C1135.6 764.678 1134.74 742 1134.74 742C1134.74 742 1131.28 764.678 1129.38 787.702C1127.48 810.726 1127.14 833.75 1127.14 833.75C1127.14 833.75 1126.79 851.408 1127.65 871.316C1124.37 851.062 1120.05 831.673 1120.05 831.673C1120.05 831.673 1115.56 811.419 1110.03 791.684C1104.51 771.949 1097.94 752.387 1097.94 752.387C1097.94 752.387 1098.8 759.311 1099.84 768.833C1099.15 762.081 1098.46 757.407 1098.46 757.407C1098.46 757.407 1096.73 775.757 1094.31 793.934C1091.89 812.111 1088.96 830.288 1088.96 830.288C1088.96 830.288 1087.75 837.559 1085.85 847.6C1085.5 843.791 1084.47 832.712 1084.47 821.286C1084.47 809.861 1086.02 793.415 1086.02 793.415C1082.39 802.129 1079.22 811.028 1076.52 820.074C1073.8 829.303 1071.56 838.663 1069.78 848.119C1069.78 848.119 1069.44 849.504 1069.09 851.927C1068.92 851.235 1068.57 850.543 1068.4 849.85C1066.16 842.926 1064.77 838.078 1064.77 838.078C1064.77 838.078 1063.39 833.404 1061.66 826.307C1059.94 819.209 1057.86 809.515 1056.31 799.647C1054.75 789.78 1053.72 779.912 1053.2 772.468C1052.85 768.833 1052.85 765.544 1052.68 763.466C1052.7 762.31 1052.64 761.153 1052.51 760.004L1051.99 763.466C1051.82 765.544 1051.13 768.66 1050.78 772.468C1049.74 779.912 1048.71 789.953 1048.19 800.166C1047.67 810.38 1047.67 820.421 1048.02 828.211C1048.16 829.359 1048.21 830.516 1048.19 831.673C1046.81 836.693 1045.25 841.194 1043.87 844.83C1042.49 848.465 1040.59 852.793 1040.59 852.793C1040.59 852.793 1039.21 855.909 1036.79 860.583C1034.08 866.137 1031.02 871.514 1027.63 876.683C1027.45 876.876 1027.33 877.116 1027.29 877.375C1029.71 861.449 1030.91 847.426 1030.91 847.426C1030.91 847.426 1032.64 829.25 1032.81 811.246C1032.99 793.242 1032.12 775.411 1032.12 775.411C1032.12 775.411 1029.19 793.069 1024.87 810.207C1020.55 827.345 1015.02 843.964 1015.02 843.964C1015.02 843.964 1012.26 852.101 1008.46 862.487C1007.25 857.121 1006.21 852.101 1005.69 847.773C1005.18 843.445 1004.83 842.06 1004.66 840.156C1004.48 838.251 1004.31 837.213 1004.31 837.213C1004.31 837.213 1004.14 836.174 1003.97 834.27C1003.66 831.684 1003.49 829.084 1003.45 826.48C1002.88 818.587 1002.77 810.669 1003.1 802.763C1003.45 794.107 1004.31 785.279 1005.18 778.7C1005.52 775.411 1006.04 772.814 1006.38 770.91L1006.9 767.794L1005.69 770.564C1005 772.468 1003.79 774.892 1002.76 778.181C999.774 785.776 997.179 793.518 994.983 801.378C992.737 810.207 990.837 819.036 989.628 825.787C989.11 829.076 988.764 831.846 988.419 833.924L987.9 837.04C987.862 838.085 987.746 839.127 987.555 840.156C987.382 842.06 987.037 845.003 986.864 848.465C986.098 856.867 985.81 865.305 986 873.74C986.173 877.548 986.173 881.357 986.518 884.992C986.381 884.789 986.32 884.544 986.346 884.3C982.372 869.412 978.917 854.351 978.917 854.351C978.917 854.351 975.635 839.29 972.871 824.056C970.107 808.822 967.862 793.415 967.862 793.415C967.862 793.415 965.961 808.822 964.752 824.402C963.543 839.983 962.679 855.909 962.679 855.909C962.679 855.909 961.988 871.662 961.988 887.416C961.988 891.051 961.988 894.514 962.161 897.976H961.47L960.261 844.137L958.879 778.354L944.022 842.579L934.348 884.819L934.867 879.972C936.767 861.968 937.976 844.137 937.976 844.137C937.976 844.137 939.013 826.133 939.358 808.303C939.704 790.472 939.531 772.814 939.531 772.814C939.531 772.814 935.73 790.126 931.412 807.264C927.093 824.402 921.911 841.194 921.911 841.194C921.911 841.194 916.728 858.16 911.027 874.605L907.918 883.261C908.609 872.182 908.782 863.18 908.782 863.18C908.782 863.18 909.127 848.119 908.436 833.231C907.745 818.343 906.363 803.629 906.363 803.629C906.363 803.629 903.772 818.17 900.317 832.366C896.862 846.561 892.716 860.583 892.716 860.583C892.716 860.583 891.161 865.604 888.916 872.355L885.288 854.351L873.196 793.415L867.84 873.394C862.14 864.565 857.994 857.64 857.994 857.64C857.994 857.64 849.183 843.272 840.719 828.384C832.254 813.496 824.48 798.608 824.48 798.608C824.48 798.608 828.454 815.054 833.291 831.673C838.128 848.292 843.137 864.392 843.137 864.392Z" fill="url(#paint6_linear_4871_985)"/>
</g>
</g>
<defs>
<linearGradient id="paint0_linear_4871_985" x1="150.98" y1="634" x2="151.48" y2="850.5" gradientUnits="userSpaceOnUse">
<stop stop-color="#3C7520"/>
<stop offset="0.572917" stop-color="#6ABF41"/>
<stop offset="1" stop-color="#6ABF41"/>
</linearGradient>
<linearGradient id="paint1_linear_4871_985" x1="461.48" y1="662" x2="473.961" y2="973.659" gradientUnits="userSpaceOnUse">
<stop stop-color="#3C7520"/>
<stop offset="0.395302" stop-color="#6ABF41"/>
<stop offset="1" stop-color="#6ABF41"/>
</linearGradient>
<linearGradient id="paint2_linear_4871_985" x1="1070.98" y1="675" x2="1090.48" y2="876.5" gradientUnits="userSpaceOnUse">
<stop stop-color="#3C7520"/>
<stop offset="0.572917" stop-color="#6ABF41"/>
<stop offset="1" stop-color="#6ABF41"/>
</linearGradient>
<linearGradient id="paint3_linear_4871_985" x1="1526.61" y1="503.016" x2="1161.86" y2="254.201" gradientUnits="userSpaceOnUse">
<stop stop-color="#3C7520"/>
<stop offset="0.572917" stop-color="#6ABF41"/>
<stop offset="1" stop-color="#6ABF41"/>
</linearGradient>
<linearGradient id="paint4_linear_4871_985" x1="1068.82" y1="889.961" x2="1938.35" y2="528.932" gradientUnits="userSpaceOnUse">
<stop stop-color="#3C7520"/>
<stop offset="0.572917" stop-color="#6ABF41"/>
<stop offset="1" stop-color="#6ABF41"/>
</linearGradient>
<linearGradient id="paint5_linear_4871_985" x1="438.981" y1="742" x2="435.551" y2="1175.12" gradientUnits="userSpaceOnUse">
<stop stop-color="#519D2B"/>
<stop offset="0.354167" stop-color="#6ABF41"/>
<stop offset="1" stop-color="#6ABF41"/>
</linearGradient>
<linearGradient id="paint6_linear_4871_985" x1="1420.98" y1="742" x2="1417.55" y2="1175.12" gradientUnits="userSpaceOnUse">
<stop stop-color="#519D2B"/>
<stop offset="0.354167" stop-color="#6ABF41"/>
<stop offset="1" stop-color="#6ABF41"/>
</linearGradient>
<clipPath id="clip0_4871_985">
<rect width="1440" height="901" fill="white"/>
</clipPath>
</defs>
</svg>
