<svg width="1000" height="221" viewBox="0 0 1000 221" fill="none" xmlns="http://www.w3.org/2000/svg">
<g clip-path="url(#clip0_4990_4816)">
<path d="M23.4228 205.857L160.212 202.109L157.401 139.633L162.398 144.631L170.83 209.605L28.1074 209.917L23.4228 205.857ZM74.3284 74.9709L154.278 73.0968L151.467 7.49788C154.174 8.74739 156.256 12.7041 157.713 19.3682C159.379 26.0322 160.628 33.3209 161.461 41.2344C162.502 49.1479 163.231 56.8533 163.647 64.3503C164.064 71.639 164.48 76.7411 164.896 79.6567L74.9529 79.0319L74.3284 74.9709ZM126.171 123.077L124.297 88.4032L130.855 94.0259L133.666 125.263L74.6406 126.825L74.0159 124.951L126.171 123.077ZM29.0443 127.762L52.1546 102.772L25.9212 69.973L47.1578 39.9849L24.0475 2.81224C29.4606 2.39575 34.7699 2.1875 39.975 2.1875C45.1799 2.1875 50.4891 2.1875 55.9025 2.1875C71.1012 2.1875 86.1958 2.39575 101.186 2.81224C116.177 3.22875 131.272 3.22875 146.47 2.81224L148.344 67.1616C134.603 67.5781 120.966 67.9946 107.432 68.4111C93.8993 68.8275 80.262 69.14 66.5207 69.3482L67.1454 85.5917L117.739 84.0299L118.675 119.016L68.0821 120.578L68.7068 134.01L150.218 135.259L152.092 195.86C130.855 196.485 109.723 197.11 88.6942 197.735C67.8741 198.359 46.8455 198.88 25.6089 199.297L48.407 166.185L29.0443 127.762ZM16.5521 199.609L6.24608 200.234L6.87068 171.495C6.87068 143.173 5.93377 115.163 4.05995 87.466C2.39433 59.5606 1.04101 31.4466 0 3.12461L17.489 2.81224L39.975 39.3603L18.7382 69.0359C22.694 74.8669 26.9622 80.4897 31.5427 85.9042C36.1231 91.3186 40.5995 96.7332 44.9718 102.148L21.8613 126.825C24.9842 133.073 28.1074 139.32 31.2303 145.568C34.3534 151.815 37.5806 157.959 40.9117 163.998L16.5521 199.609ZM24.672 40.2973L21.2366 36.8612L17.8012 39.9849L21.2366 43.7335L24.672 40.2973ZM28.1074 101.211L24.672 97.7745L21.2366 100.898L24.672 104.647L28.1074 101.211ZM27.4827 163.686L24.0475 160.249L20.6121 163.373L24.0475 167.122L27.4827 163.686ZM75.2651 165.56L71.8298 162.124L68.3946 165.248L71.8298 168.996L75.2651 165.56ZM120.861 160.874L117.426 157.438L113.991 160.562L117.426 164.31L120.861 160.874ZM89.0065 104.334L85.5713 100.898L82.1359 104.022L85.5713 107.77L89.0065 104.334ZM75.8898 34.0499L72.4545 30.6136L69.0191 33.7374L72.4545 37.486L75.8898 34.0499ZM124.297 39.0478L120.861 35.6117L117.426 38.7355L120.861 42.4839L124.297 39.0478Z" fill="black"/>
<path d="M301.797 213.041L229.969 207.417L227.158 203.356C238.191 203.564 249.123 204.086 259.95 204.917C270.776 205.542 281.706 206.167 292.741 206.792L292.429 75.2821L337.713 74.6573L338.65 7.49656L344.895 14.3688L346.769 84.0286L298.988 81.842L301.797 213.041ZM325.846 33.4237L322.41 29.9876L318.974 33.4237L322.41 36.8598L325.846 33.4237ZM291.179 36.2352C290.764 35.4022 290.347 34.6732 289.93 34.0486C289.513 33.2154 288.785 32.7989 287.745 32.7989L284.309 36.2352L287.745 39.6713C288.785 39.6713 289.513 39.3588 289.93 38.7341C290.347 37.9011 290.764 37.0682 291.179 36.2352ZM239.962 198.046L264.634 165.559L247.146 126.824L271.505 102.771C267.34 97.1483 263.281 91.5256 259.324 85.9029C255.368 80.0718 251.309 74.2408 247.146 68.4097L269.631 39.9836L248.394 4.99756L332.717 4.68518L331.466 69.3469L288.056 70.5964L285.559 198.982H283.06L239.962 198.046ZM249.331 98.3978L245.895 94.9617L242.461 98.3978L245.895 101.834L249.331 98.3978ZM246.832 33.7361L243.398 30.3L239.962 33.7361L243.398 37.1722L246.832 33.7361ZM244.021 146.504L240.587 149.94L244.021 153.376L247.457 149.94L244.021 146.504ZM217.477 47.1683L214.041 43.7322L210.605 47.1683L214.041 50.6044L217.477 47.1683ZM198.738 31.8619L195.302 28.4257L191.867 31.8619L195.302 35.298L198.738 31.8619ZM177.189 68.0974L178.438 3.74805L241.836 4.99756L262.447 38.7341L239.962 67.1603C243.501 73.4078 247.352 79.3428 251.517 84.9657C255.89 90.3801 260.158 96.003 264.321 101.834L239.962 125.574L257.139 163.372L230.906 197.734H220.911L223.41 69.0345L177.189 68.0974ZM182.498 72.1583L219.037 74.3449V80.9048L186.557 76.8439L182.498 72.1583Z" fill="black"/>
<path d="M545.833 14.6817L558.637 34.3613L548.332 212.728L483.684 207.418L477.439 203.044L538.338 203.356L545.833 14.6817ZM449.019 109.331L445.896 105.583L442.149 108.707L445.271 112.455L449.019 109.331ZM533.029 199.921L468.695 197.735L471.506 133.384L419.975 131.822C419.558 142.443 419.142 153.064 418.727 163.685C418.518 174.306 418.101 184.926 417.476 195.548L372.504 193.673L397.488 161.498L380.937 122.764L405.609 99.3354L381.874 64.3494L404.672 36.2356L384.373 0.937132L424.972 2.499L421.849 80.2805L473.38 82.1548C474.212 69.6598 474.732 57.2689 474.94 44.9821C475.357 32.6954 475.877 20.3044 476.502 7.8094L540.525 10.3084C539.483 41.9625 538.234 73.6164 536.777 105.271C535.527 136.716 534.278 168.266 533.029 199.921ZM511.168 37.1726L508.045 33.4242L504.297 36.548L507.42 40.2964L511.168 37.1726ZM500.55 123.701L496.802 126.824L499.924 130.573L503.672 127.449L500.55 123.701ZM506.483 79.9681C505.651 79.9681 504.921 80.3846 504.297 81.2176C503.672 81.8424 503.152 82.4671 502.735 83.0919L505.546 86.8403L508.982 83.7167L506.483 79.9681ZM500.55 162.748L496.802 165.871L499.924 169.62L503.672 166.496L500.55 162.748ZM429.656 8.74652L440.275 22.4911L431.842 76.8444L425.597 75.5949L429.656 8.74652ZM383.436 94.6499L380.313 90.9013L376.565 94.025L379.688 97.7736L383.436 94.6499ZM386.558 33.4242L383.748 29.6758C382.916 29.6758 382.187 30.0923 381.562 30.9252C380.937 31.5499 380.417 32.1747 380 32.7994C380.417 34.882 381.457 36.1315 383.122 36.548L386.558 33.4242ZM380.937 146.192L377.814 142.443L374.066 145.567L377.189 149.315L380.937 146.192ZM360.949 0L377.814 0.624762L397.802 34.986L374.692 63.0998L398.739 98.086L373.755 121.514L390.306 159.624L363.448 193.361L353.142 192.736C355.224 160.457 356.578 128.386 357.201 96.524C358.035 64.4534 359.283 32.2789 360.949 0ZM422.161 200.544L424.035 136.196L433.093 137.758L431.219 209.916C428.094 209.708 422.889 209.499 415.602 209.291C408.523 209.083 401.028 208.668 393.117 208.043C385.413 207.209 378.231 206.064 371.567 204.606C365.114 203.148 360.949 201.169 359.075 198.671C369.695 199.088 380.208 199.4 390.618 199.608C401.028 199.816 411.543 200.128 422.161 200.544Z" fill="black"/>
<path d="M578.165 107.281C578.165 122.353 581.494 136.687 587.493 149.644C586.617 141.447 587.107 132.791 588.867 123.986C589.969 118.475 591.568 112.884 593.652 107.28C591.568 101.676 589.969 96.0855 588.867 90.5742C587.107 81.7708 586.617 73.1158 587.493 64.9199C581.494 77.8769 578.165 92.21 578.165 107.281Z" fill="black"/>
<path d="M596.299 125.375C593.228 140.747 594.394 155.054 599.867 166.812C600.916 159.457 604.063 150.933 608.842 141.798C609.376 140.779 609.93 139.75 610.506 138.712C605.65 131.879 601.515 124.868 598.131 117.812C597.41 120.351 596.799 122.875 596.299 125.375Z" fill="black"/>
<path d="M601.73 107.28C604.97 115.415 609.305 123.602 614.694 131.601C619.536 123.808 625.443 115.615 632.273 107.28C625.443 98.9445 619.536 90.7514 614.694 82.959C609.305 90.9581 604.97 99.1453 601.73 107.28Z" fill="black"/>
<path d="M619.439 138.236C624.157 130.297 630.121 121.809 637.172 113.098C643.608 120.544 650.742 128.056 658.48 135.452C666.193 142.823 674.024 149.623 681.788 155.759C672.678 162.49 663.8 168.184 655.497 172.688C648.786 168.042 642.252 162.736 636.031 156.79C629.826 150.859 624.289 144.632 619.439 138.236Z" fill="black"/>
<path d="M619.439 76.3233C624.157 84.2624 630.121 92.7503 637.172 101.462C643.608 94.0148 650.742 86.5033 658.48 79.1076C666.193 71.7363 674.024 64.9359 681.788 58.8005C672.678 52.0696 663.8 46.3751 655.497 41.8711C648.786 46.5169 642.252 51.8229 636.031 57.7692C629.826 63.6999 624.289 69.9275 619.439 76.3233Z" fill="black"/>
<path d="M663.802 84.3137C671.802 76.6668 679.905 69.6745 687.891 63.4375C695.875 69.6745 703.979 76.6668 711.979 84.3137C719.958 91.9412 727.255 99.6667 733.767 107.279C727.255 114.891 719.958 122.617 711.979 130.244C703.979 137.891 695.875 144.884 687.891 151.121C679.905 144.884 671.802 137.891 663.802 130.244C655.823 122.617 648.525 114.891 642.014 107.279C648.525 99.6667 655.823 91.9412 663.802 84.3137Z" fill="black"/>
<path d="M662.485 37.3099C670.625 41.939 679.184 47.582 687.892 54.1037C696.597 47.582 705.156 41.939 713.296 37.3099C704.942 32.1767 696.389 28.0459 687.892 24.9551C679.393 28.0459 670.841 32.1767 662.485 37.3099Z" fill="black"/>
<path d="M693.993 58.8005C703.103 52.0696 711.981 46.3749 720.284 41.8711C726.995 46.5168 733.529 51.8229 739.75 57.7692C745.955 63.6999 751.492 69.9275 756.342 76.3233C751.624 84.2624 745.66 92.7503 738.611 101.462C732.175 94.0148 725.039 86.5033 717.301 79.1076C709.59 71.7363 701.758 64.9359 693.993 58.8005Z" fill="black"/>
<path d="M699.009 21.496C706.354 24.7233 713.651 28.6638 720.769 33.2879C721.874 32.727 722.97 32.1869 724.054 31.6681C733.546 27.1309 742.399 24.138 750.04 23.1172C737.757 17.9444 722.828 16.8497 706.797 19.7765C704.222 20.2467 701.624 20.8203 699.009 21.496Z" fill="black"/>
<path d="M705.392 12.5811C714.516 10.9153 723.487 10.4406 731.989 11.2486C718.497 5.58424 703.581 2.43945 687.891 2.43945C672.201 2.43945 657.285 5.58422 643.793 11.2486C652.294 10.4406 661.264 10.9154 670.388 12.5811C676.161 13.6351 682.019 15.1678 687.891 17.1643C693.761 15.1678 699.62 13.6351 705.392 12.5811Z" fill="black"/>
<path d="M668.985 19.7765C652.953 16.8497 638.025 17.9444 625.741 23.1172C633.382 24.138 642.235 27.1309 651.727 31.6681C652.813 32.1869 653.908 32.727 655.014 33.2879C662.13 28.6638 669.429 24.7233 676.773 21.496C674.16 20.8203 671.561 20.2467 668.985 19.7765Z" fill="black"/>
<path d="M630.709 52.5626C636.265 47.2524 642.074 42.4179 648.049 38.077C638.708 33.6411 630.498 31.018 623.906 30.2704C617.265 29.5176 612.921 30.7197 610.385 33.0682L610.188 33.2571C607.744 35.6684 606.496 39.7852 607.28 46.1036C608.061 52.4061 610.815 60.2703 615.48 69.2307C620.04 63.4853 625.125 57.9014 630.709 52.5626Z" fill="black"/>
<path d="M608.842 72.7617C604.063 63.6265 600.916 55.1024 599.867 47.748C594.394 59.5056 593.228 73.813 596.299 89.185C596.799 91.685 597.41 94.2083 598.131 96.7472C601.515 89.6919 605.65 82.681 610.506 75.8473C609.93 74.8093 609.376 73.7806 608.842 72.7617Z" fill="black"/>
<path d="M797.618 107.281C797.618 92.2086 794.287 77.8751 788.289 64.918C789.165 73.114 788.675 81.7693 786.914 90.5733C785.815 96.0846 784.214 101.675 782.13 107.279C784.214 112.883 785.815 118.474 786.914 123.985C788.675 132.79 789.165 141.447 788.289 149.644C794.287 136.687 797.618 122.353 797.618 107.281Z" fill="black"/>
<path d="M779.482 125.374C778.983 122.874 778.372 120.351 777.65 117.812C774.267 124.868 770.132 131.879 765.275 138.712C765.852 139.75 766.407 140.779 766.939 141.798C771.718 150.933 774.866 159.457 775.916 166.811C781.388 155.054 782.554 140.747 779.482 125.374Z" fill="black"/>
<path d="M774.052 107.28C770.811 115.415 766.476 123.602 761.089 131.601C756.245 123.809 750.338 115.615 743.508 107.28C750.338 98.9445 756.245 90.7514 761.089 82.959C766.476 90.9581 770.811 99.1453 774.052 107.28Z" fill="black"/>
<path d="M768.502 168.457C767.719 162.155 764.966 154.291 760.301 145.33C755.74 151.076 750.656 156.659 745.071 161.998C739.516 167.308 733.709 172.143 727.733 176.483C737.075 180.919 745.283 183.544 751.877 184.289C758.604 185.053 762.973 183.81 765.495 181.399C768.003 179.002 769.296 174.86 768.502 168.457Z" fill="black"/>
<path d="M739.752 156.79C733.529 162.736 726.995 168.042 720.284 172.688C711.981 168.184 703.103 162.49 693.993 155.759C701.758 149.623 709.59 142.823 717.301 135.452C725.039 128.056 732.175 120.544 738.611 113.098C745.66 121.809 751.624 130.297 756.342 138.236C751.492 144.632 745.955 150.859 739.752 156.79Z" fill="black"/>
<path d="M724.054 182.893C722.97 182.375 721.874 181.835 720.769 181.273C713.651 185.897 706.354 189.838 699.009 193.066C701.624 193.742 704.221 194.314 706.797 194.785C722.828 197.713 737.757 196.617 750.04 191.445C742.399 190.424 733.546 187.431 724.054 182.893Z" fill="black"/>
<path d="M713.298 177.251C704.942 182.384 696.389 186.515 687.892 189.605C679.393 186.515 670.841 182.384 662.485 177.251C670.625 172.622 679.184 166.979 687.892 160.457C696.597 166.979 705.156 172.622 713.298 177.251Z" fill="black"/>
<path d="M705.392 201.978C699.62 200.924 693.761 199.392 687.891 197.395C682.019 199.392 676.161 200.924 670.388 201.978C661.262 203.645 652.289 204.119 643.784 203.31C657.28 208.975 672.197 212.121 687.891 212.121C703.583 212.121 718.502 208.975 731.996 203.31C723.492 204.119 714.518 203.645 705.392 201.978Z" fill="black"/>
<path d="M668.985 194.785C652.953 197.713 638.025 196.617 625.741 191.445C633.382 190.424 642.235 187.431 651.727 182.893C652.813 182.375 653.908 181.835 655.014 181.273C662.13 185.897 669.429 189.838 676.773 193.066C674.16 193.742 671.561 194.314 668.985 194.785Z" fill="black"/>
<path d="M630.709 161.998C636.265 167.308 642.074 172.143 648.049 176.483C638.708 180.919 630.497 183.544 623.905 184.289C617.177 185.053 612.807 183.81 610.287 181.399C607.779 179.002 606.485 174.86 607.28 168.457C608.061 162.155 610.814 154.291 615.48 145.33C620.04 151.076 625.124 156.659 630.709 161.998Z" fill="black"/>
<path d="M777.65 96.7472C774.267 89.6919 770.132 82.681 765.275 75.8473C765.852 74.8093 766.407 73.7806 766.939 72.7617C771.718 63.6265 774.866 55.1024 775.916 47.748C781.388 59.5056 782.554 73.813 779.482 89.185C778.983 91.6852 778.372 94.2083 777.65 96.7472Z" fill="black"/>
<path d="M745.071 52.5627C750.656 57.9014 755.74 63.4853 760.301 69.2307C764.966 60.2703 767.719 52.4062 768.502 46.1036C769.287 39.774 768.031 35.6539 765.579 33.2444L765.409 33.0807C762.875 30.7239 758.528 29.5163 751.877 30.2705C745.283 31.018 737.075 33.6411 727.733 38.077C733.709 42.4179 739.516 47.2524 745.071 52.5627Z" fill="black"/>
<path d="M902.492 68.831L986.916 64.1386C986.916 56.8396 985.774 49.6446 983.489 42.5541C981.412 35.2549 978.298 28.5814 974.144 22.5336C987.643 35.6721 995.016 51.8343 996.261 71.0208L902.804 72.5849L902.492 68.831ZM959.501 157.985L956.075 154.544L952.648 157.985L956.075 161.426L959.501 157.985ZM957.009 110.123L953.583 113.564L957.009 117.005L960.436 113.564L957.009 110.123ZM899.067 34.7335L895.639 31.2925L892.212 34.7335L895.639 38.1745L899.067 34.7335ZM900 169.559L896.574 166.118L893.147 169.559L896.574 173L900 169.559ZM909.347 108.872L905.919 105.431L902.492 108.872L905.919 112.313L909.347 108.872ZM897.82 64.1386L898.443 76.9642L915.576 76.3387C925.961 76.3387 935.307 77.0686 943.615 78.5285C952.13 79.9882 959.294 82.8037 965.109 86.9746C971.131 90.9369 975.701 96.5677 978.816 103.867C982.138 111.166 983.8 120.551 983.8 132.021C983.8 147.662 980.79 159.862 974.767 168.621C968.744 177.38 960.851 183.845 951.091 188.016C941.538 192.186 930.737 194.689 918.692 195.523C906.855 196.358 895.016 196.774 883.179 196.774C878.194 196.774 872.793 196.253 866.979 195.211C861.371 194.167 856.387 192.499 852.026 190.206L863.863 172.375L850.156 142.657L920.56 136.087L919.939 126.077C913.916 126.286 907.788 126.703 901.559 127.328C895.536 127.746 889.408 127.954 883.179 127.954C877.778 127.954 872.378 127.537 866.979 126.703C861.58 125.869 856.49 124.2 851.715 121.698L866.356 105.118L839.876 72.272L860.436 46.3079L840.187 16.9027H839.876C844.445 13.1489 849.534 10.2293 855.14 8.14378C860.748 6.05831 866.461 4.4942 872.275 3.45147C878.298 2.40873 884.32 1.78309 890.343 1.57454C896.366 1.36599 902.18 1.26172 907.788 1.26172C918.173 1.26172 927.727 2.0959 936.448 3.76428C945.172 5.2241 952.751 8.03949 959.191 12.2104C965.835 16.3814 971.131 22.2207 975.077 29.7284C979.024 37.2361 981.517 46.9336 982.555 58.8207L897.82 64.1386ZM992.212 135.149C992.212 128.058 991.588 121.176 990.343 114.503C989.305 107.621 986.604 101.156 982.243 95.108C990.343 101.573 995.327 109.185 997.196 117.944C999.065 126.703 1000 135.983 1000 145.785C1000 156.838 998.546 166.222 995.639 173.939C992.73 181.447 988.681 187.702 983.489 192.707C978.298 197.713 972.275 201.571 965.42 204.283C958.567 206.993 951.091 209.078 942.991 210.538C935.1 211.79 926.792 212.52 918.068 212.728C909.553 212.937 901.039 213.042 892.524 213.042C887.124 213.042 881.725 212.415 876.324 211.165C870.925 209.705 865.732 207.828 860.748 205.533C855.764 203.031 851.091 200.111 846.73 196.774C842.368 193.229 838.63 189.267 835.515 184.887C841.538 190.309 848.911 194.584 857.634 197.713C866.356 200.841 874.767 202.405 882.867 202.405C895.536 202.405 908.308 202.093 921.184 201.466C934.268 200.633 946.002 198.129 956.387 193.959C966.979 189.579 975.597 182.907 982.243 173.939C988.89 164.763 992.212 151.833 992.212 135.149ZM819.315 144.221L843.303 142.969L856.075 170.811L845.483 186.764C841.538 185.722 838.007 183.635 834.891 180.509C831.984 177.172 829.389 173.417 827.103 169.246C825.026 165.075 823.366 160.8 822.119 156.421C820.874 151.833 819.939 147.766 819.315 144.221ZM833.023 160.487L836.45 163.929L839.876 160.487L836.45 157.046L833.023 160.487ZM842.058 45.0567C841.641 44.2225 841.226 43.4924 840.811 42.8669C840.396 42.0327 839.669 41.6155 838.63 41.6155L835.515 45.0567L838.63 48.4977C839.669 48.4977 840.396 48.1848 840.811 47.5591C841.226 46.7249 841.641 45.8907 842.058 45.0567ZM844.238 102.303L840.811 98.8618L837.384 102.303L840.811 105.744L844.238 102.303ZM853.271 45.6822L832.399 71.6463L859.191 104.493L846.419 118.882C837.695 113.46 830.427 106.057 824.611 96.6721C818.797 87.2874 815.89 77.3814 815.89 66.9541C815.89 58.1952 817.55 49.7489 820.874 41.6155C824.196 33.4823 829.18 26.4959 835.827 20.6567L853.271 45.6822ZM942.68 30.354L939.252 26.913L935.827 30.354L939.252 33.7951L942.68 30.354Z" fill="black"/>
<path d="M688.459 216.139C751.118 216.139 801.911 167.607 801.911 107.739C801.911 86.848 795.725 67.3372 785.009 50.7871C799.674 68.6124 808.421 91.0923 808.421 115.524C808.421 173.426 759.294 220.366 698.694 220.366C681.979 220.366 666.139 216.794 651.96 210.408C663.414 214.124 675.69 216.139 688.459 216.139Z" fill="black"/>
</g>
<defs>
<clipPath id="clip0_4990_4816">
<rect width="1000" height="220.588" fill="white"/>
</clipPath>
</defs>
</svg>
